<svg version="1.1" xmlns="http://www.w3.org/2000/svg" xmlns:xlink="http://www.w3.org/1999/xlink" width="148.74923" height="250.23382" viewBox="0,0,148.74923,250.23382"><g transform="translate(-165.53729,-57.2662)"><g data-paper-data="{&quot;isPaintingLayer&quot;:true}" fill-rule="nonzero" stroke-linejoin="miter" stroke-miterlimit="10" stroke-dasharray="" stroke-dashoffset="0" style="mix-blend-mode: normal"><path d="M204.70838,307.50002l15.14285,-131.8421l37.78325,-0.15789l13.57389,132z" fill="#494949" stroke="#000000" stroke-width="0" stroke-linecap="butt"/><path d="M222.51204,207.13128v-16.6h32.8v16.6l-17,2.6z" fill="#591b1a" stroke="none" stroke-width="0" stroke-linecap="butt"/><path d="M214.18751,185.69186l12.02222,9.4l13.2,13.85l12.75,-16.05l9.52778,-7.2l11.3268,9.8602l-12.74862,4.03868l4.86948,5.69507l-25.94766,7.65606l-26.11124,-6.52225l4.21232,-7.20426l-15.39702,-3.82449z" fill="#383838" stroke="none" stroke-width="0" stroke-linecap="butt"/><path d="M265.65677,194.19568c0.26477,-2.39162 -3.96926,-8.50382 -3.96926,-8.50382l11.3268,9.8602l-12.74862,4.03868z" fill="#742322" stroke="none" stroke-width="0" stroke-linecap="butt"/><path d="M248.86569,205.59074c2.4124,-0.7118 3.65351,3.41751 3.65351,3.41751l-13.33169,3.93362c0,0 5.12903,-6.00887 9.67818,-7.35113z" fill="#742322" stroke="none" stroke-width="0" stroke-linecap="butt"/><path d="M214.18751,185.69186c0,0 3.90813,6.40002 4.45518,8.82557c0.43389,1.92379 -1.43296,4.57443 -1.43296,4.57443c0,0 -0.24729,2.47957 0.92077,4.0513c0.91284,1.22832 3.23504,1.51294 3.62374,2.19163c0.96894,1.69185 1.04275,3.51292 1.04275,3.51292l-9.72072,-2.42811l4.21232,-7.20426l-15.39702,-3.82449z" fill="#742322" stroke="none" stroke-width="0" stroke-linecap="butt"/><path d="M173.79829,136.84617c0,-33.30185 28.7599,-60.29833 64.23702,-60.29833c35.47712,0 64.23702,26.99649 64.23702,60.29833c0,33.30185 -28.7599,60.29833 -64.23702,60.29833c-35.47712,0 -64.23702,-26.99649 -64.23702,-60.29833z" fill="#742322" stroke="#000000" stroke-width="2" stroke-linecap="butt"/><path d="M176.75,128.88369v-17.05556l-8,-1l17.5,-9.5c0,0 -6.00554,-3.87949 -8.79059,-6.14235c-2.52217,-2.04927 -5.70941,-10.85765 -5.70941,-10.85765c0,0 5.26458,5.82101 9.81836,6.82438c5.19487,1.14464 15.18164,0.67562 15.18164,0.67562" fill="#742322" stroke="#000000" stroke-width="2" stroke-linecap="round"/><path d="M284.75,95.82815c0,0 9.62593,0.16085 15.42222,0.98889c4.12139,0.58877 11.07778,0.01111 11.07778,0.01111c0,0 -6.79194,5.73618 -10.348,6.58286c-3.44009,0.81907 -10.652,1.41714 -10.652,1.41714l17,6l-8,1v17.05556" data-paper-data="{&quot;index&quot;:null}" fill="#742322" stroke="#000000" stroke-width="2" stroke-linecap="round"/><path d="M253.90832,172.73982c0,0 -5.18437,14.3273 -16.33848,14.47615c-9.19495,0.12271 -15.43778,-14.47615 -15.43778,-14.47615z" fill="#ffffff" stroke="#000000" stroke-width="2" stroke-linecap="round"/><path d="M174.52135,136.90003c0,-0.72799 5.20666,55.91939 63.36046,56.93429c55.56352,0.9697 63.51358,-57.95314 63.51358,-56.93429c0,32.80479 -28.40173,59.39833 -63.43702,59.39833c-35.03529,0 -63.43702,-26.59354 -63.43702,-59.39833z" fill="#591b1a" stroke="#000000" stroke-width="0" stroke-linecap="butt"/><path d="M187.3485,137.27566c0,-12.968 10.51265,-23.48065 23.48065,-23.48065c12.968,0 23.48065,10.51265 23.48065,23.48065c0,12.968 -10.51265,23.48065 -23.48065,23.48065c-12.968,0 -23.48065,-10.51265 -23.48065,-23.48065z" fill="#ffffff" stroke="#000000" stroke-width="2" stroke-linecap="butt"/><path d="M194.41389,137c0,-9.12808 7.39976,-16.52784 16.52783,-16.52784c9.12808,0 16.52784,7.39977 16.52784,16.52784c0,9.12808 -7.39977,16.52784 -16.52784,16.52784c-9.12808,0 -16.52783,-7.39977 -16.52783,-16.52784z" fill="#000000" stroke="none" stroke-width="0" stroke-linecap="butt"/><path d="M265.0876,160.7563c-12.968,0 -23.48065,-10.51265 -23.48065,-23.48065c0,-12.968 10.51265,-23.48065 23.48065,-23.48065c12.968,0 23.48065,10.51265 23.48065,23.48065c0,12.968 -10.51265,23.48065 -23.48065,23.48065z" data-paper-data="{&quot;index&quot;:null}" fill="#ffffff" stroke="#000000" stroke-width="2" stroke-linecap="butt"/><path d="M264.97502,153.52785c-9.12807,0 -16.52783,-7.39977 -16.52783,-16.52784c0,-9.12808 7.39977,-16.52784 16.52783,-16.52784c9.12807,0 16.52783,7.39977 16.52783,16.52784c0,9.12808 -7.39977,16.52784 -16.52783,16.52784z" data-paper-data="{&quot;index&quot;:null}" fill="#000000" stroke="none" stroke-width="0" stroke-linecap="butt"/><path d="M199.98617,108.46719c0,0 6.70895,-5.16922 11.79721,-6.36355c5.08827,-1.19433 12.33413,0.69937 12.33413,0.69937c0,0 -8.03812,-0.06028 -11.96762,0.86207c-4.10648,0.96389 -12.16372,4.80211 -12.16372,4.80211z" fill="#000000" stroke="none" stroke-width="0" stroke-linecap="butt"/><path d="M176.94908,164.03358c0,0 -5.43777,-9.74151 -5.25,-28.17115c0.16638,-16.32969 5.25,-23.99552 5.25,-23.99552h121.83333c0,0 6,6.61465 6,23.73812c0,18.93107 -6,28.42854 -6,28.42854z" fill="#494949" stroke="#000000" stroke-width="0" stroke-linecap="butt"/><path d="M263.9207,103.66509c-3.9295,-0.92235 -11.96762,-0.86207 -11.96762,-0.86207c0,0 7.24586,-1.8937 12.33413,-0.69937c5.08826,1.19433 11.79721,6.36355 11.79721,6.36355c0,0 -8.05724,-3.83822 -12.16372,-4.80211z" data-paper-data="{&quot;index&quot;:null}" fill="#000000" stroke="none" stroke-width="0" stroke-linecap="butt"/><path d="M249.54419,179.32258c0,0 -7.52014,0.4 -11.4,0.4c-4.04646,0 -12.4,-0.4 -12.4,-0.4" fill="none" stroke="#000000" stroke-width="2" stroke-linecap="round"/><path d="M186.81733,186.57019c0,0 0.5298,-15.62255 1.03739,-22.67191c0.42922,-5.96089 1.81267,-16.90908 1.81267,-16.90908l6.62341,-0.75823c0,0 -0.50243,13.19571 0.28769,20.09769c0.85951,7.50806 4.67876,23.28563 4.67876,23.28563z" fill="#272727" stroke="none" stroke-width="0" stroke-linecap="butt"/><path d="M178.48611,193.55209c0,0 2.3032,-15.46092 3.60926,-22.40681c1.1044,-5.8734 3.72407,-16.59319 3.72407,-16.59319h6.66666c0,0 -2,13.05294 -2,20c0,7.55709 2,23.66667 2,23.66667z" fill="#2e2e2e" stroke="none" stroke-width="0" stroke-linecap="butt"/><path d="M176.94908,164.03358c0,0 -5.43777,-9.74151 -5.25,-28.17115c0.16638,-16.32969 5.25,-23.99552 5.25,-23.99552c0,0 -0.04615,42.89383 60.30092,42.72862c65.20726,-0.17852 61.53242,-42.72862 61.53242,-42.72862c0,0 6,6.61465 6,23.73812c0,18.93107 -6,28.42854 -6,28.42854z" fill="#272727" stroke="#000000" stroke-width="0" stroke-linecap="butt"/><path d="M282.74539,97.8299l4.5,24.83334c0,0 -7.3444,-2.67735 -9.79341,-4.38291c-3.43392,-2.39148 -8.87326,-8.61709 -8.87326,-8.61709l-0.66666,8.66666c0,0 -2.95676,-2.85831 -4.04209,-4.44368c-1.2495,-1.82518 -3.03199,-5.88966 -3.03199,-5.88966c0,0 -3.39718,3.86123 -6.08362,5.97939c-3.04604,2.40169 -11.24972,7.68728 -11.24972,7.68728l-2,-9.66667c0,0 -8.25494,4.70158 -12.04922,5.49379c-5.59773,1.16875 -18.28412,0.83954 -18.28412,0.83954l11,-13.66666c0,0 -7.48804,3.82049 -10.53145,5.66188c-3.50288,2.11939 -9.30188,6.33812 -9.30188,6.33812c0,0 -2.95684,-5.56001 -3.39475,-8.33342c-0.38982,-2.46886 0.89475,-7.49992 0.89475,-7.49992" fill="#742322" stroke="#000000" stroke-width="2" stroke-linecap="round"/><g stroke="none" stroke-width="0" stroke-linecap="butt"><path d="M212.41528,232.13631l1.25,-10.75h49.7l0.75,10.75z" fill="#371916"/><path d="M231.33427,234.83496v-15.2h15.2v15.2z" fill="#d3d3d3"/><path d="M233.53427,232.63498v-10.8h10.8v10.8z" fill="#371916"/></g><g stroke="none" stroke-width="0" stroke-linecap="butt"><path d="M211.21528,249.13631l1.25,-10.75h52.5l0.75,10.75z" fill="#371916"/><path d="M231.33427,251.83496v-15.2h15.2v15.2z" fill="#d3d3d3"/><path d="M233.53427,249.63498v-10.8h10.8v10.8z" fill="#371916"/></g><g stroke="none" stroke-width="0" stroke-linecap="butt"><path d="M207.21528,282.1363l1.25,-10.75h59.9l0.75,10.75z" fill="#371916"/><path d="M231.33427,284.83495v-15.2h15.2v15.2z" fill="#d3d3d3"/><path d="M233.53427,282.63497v-10.8h10.8v10.8z" fill="#371916"/></g><g stroke="none" stroke-width="0" stroke-linecap="butt"><path d="M205.01528,299.1363l1.25,-10.75h64.1l0.75,10.75z" fill="#371916"/><path d="M231.33427,301.83495v-15.2h15.2v15.2z" fill="#d3d3d3"/><path d="M233.53427,299.63497v-10.8h10.8v10.8z" fill="#371916"/></g><path d="M231.30555,79.82815c0,0 -5.35397,-2.78787 -8.87619,-3.56276c-4.5467,-1.00027 -16.12381,-1.93724 -16.12381,-1.93724c0,0 11.71434,-1.8177 17.48853,-1.73151c5.36191,0.08003 16.01147,2.23151 16.01147,2.23151c0,0 -4.78424,-4.56379 -7.89219,-6.65985c-3.88421,-2.61958 -13.60781,-7.84015 -13.60781,-7.84015c0,0 9.98007,2.59019 15.02543,4.65796c5.12021,2.09845 15.47457,7.84204 15.47457,7.84204c0,0 10.3619,-4.74285 15.81811,-6.18715c5.8497,-1.54845 18.18189,-2.81285 18.18189,-2.81285c0,0 -12.02743,3.76371 -16.9,6.2c-3.91732,1.95866 -10.1,7.3 -10.1,7.3c0,0 11.79535,0.52733 17.33175,1.47889c5.09325,0.8754 14.66825,4.02111 14.66825,4.02111c0,0 -10.096,-0.97779 -15.01156,-0.72354c-4.74509,0.24544 -13.98844,2.22354 -13.98844,2.22354" fill="#742322" stroke="#000000" stroke-width="2" stroke-linecap="round"/></g></g></svg>