<svg version="1.1" xmlns="http://www.w3.org/2000/svg" xmlns:xlink="http://www.w3.org/1999/xlink" width="196.76219" height="267.22501" viewBox="0,0,196.76219,267.22501"><g transform="translate(-139.6449,-56.79508)"><g data-paper-data="{&quot;isPaintingLayer&quot;:true}" fill-rule="nonzero" stroke-linejoin="miter" stroke-miterlimit="10" stroke-dasharray="" stroke-dashoffset="0" style="mix-blend-mode: normal"><g data-paper-data="{&quot;index&quot;:null}" stroke="#000000" stroke-width="2" stroke-linecap="butt"><path d="M285.8864,168.70968l28.50065,-63.93522l6.69796,2.98576l-28.50064,63.93523z" fill="#f0e0ff"/><path d="M310.54301,122.40337c-8.91168,-3.97259 -12.9156,-14.41738 -8.94302,-23.32906c3.9726,-8.91168 14.41738,-12.9156 23.32906,-8.94302c8.91167,3.97259 12.9156,14.41738 8.94301,23.32905c-3.97259,8.91169 -14.41737,12.91561 -23.32905,8.94302z" fill="#c581ff"/></g><g stroke="#000000" stroke-width="2" stroke-linecap="butt"><path d="M183.46762,174.36097l-28.50064,-63.93523l6.69797,-2.98576l28.50064,63.93523z" fill="#f0e0ff"/><path d="M142.17993,116.12587c-3.97259,-8.91168 0.03134,-19.35646 8.94301,-23.32905c8.91168,-3.97259 19.35646,0.03133 23.32905,8.94302c3.97259,8.91168 -0.03133,19.35647 -8.94302,23.32906c-8.91168,3.97259 -19.35645,-0.03133 -23.32905,-8.94302z" fill="#c581ff"/></g><path d="M176.40714,324.02009v-267.22501h123.18203v267.22501z" fill-opacity="0.01" fill="#000000" stroke="none" stroke-width="0" stroke-linecap="butt"/><path d="M206.75007,307.50003l15.14285,-131.8421l37.78325,-0.15789l13.57389,132z" fill="#c581ff" stroke="#000000" stroke-width="2" stroke-linecap="butt"/><path d="M219.7003,204.11267l3.12142,-26.32765l35.83075,-0.14203l2.76735,26.1059c0,0 -7.51543,4.19603 -21.55904,4.50964c-12.48458,0.27879 -20.16049,-4.14586 -20.16049,-4.14586z" fill="#a66dd7" stroke="#000000" stroke-width="0" stroke-linecap="butt"/><path d="M173.83812,147.58708c0,-33.30185 28.7599,-60.29833 64.23702,-60.29833c35.47712,0 64.23702,26.99649 64.23702,60.29833c0,33.30185 -28.7599,60.29833 -64.23702,60.29833c-35.47712,0 -64.23702,-26.99649 -64.23702,-60.29833z" fill="#c581ff" stroke="#000000" stroke-width="2" stroke-linecap="butt"/><path d="M174.56119,147.30759c0,-0.72799 5.20666,55.91939 63.36046,56.93429c55.56352,0.9697 63.51358,-57.95314 63.51358,-56.93429c0,32.80479 -28.40173,59.39833 -63.43702,59.39833c-35.03529,0 -63.43702,-26.59354 -63.43702,-59.39833z" fill="#a66dd7" stroke="#000000" stroke-width="0" stroke-linecap="butt"/><path d="M187.38833,147.68322c0,-12.968 10.51265,-23.48065 23.48065,-23.48065c12.968,0 23.48065,10.51265 23.48065,23.48065c0,12.968 -10.51265,23.48065 -23.48065,23.48065c-12.968,0 -23.48065,-10.51265 -23.48065,-23.48065z" fill="#ffffff" stroke="#000000" stroke-width="2" stroke-linecap="butt"/><path d="M194.45372,147.40757c0,-9.12808 7.39976,-16.52784 16.52783,-16.52784c9.12808,0 16.52784,7.39977 16.52784,16.52784c0,9.12808 -7.39977,16.52784 -16.52784,16.52784c-9.12808,0 -16.52783,-7.39977 -16.52783,-16.52784z" fill="#000000" stroke="none" stroke-width="0" stroke-linecap="butt"/><path d="M265.12741,171.16385c-12.968,0 -23.48065,-10.51265 -23.48065,-23.48065c0,-12.968 10.51265,-23.48065 23.48065,-23.48065c12.968,0 23.48065,10.51265 23.48065,23.48065c0,12.968 -10.51265,23.48065 -23.48065,23.48065z" data-paper-data="{&quot;index&quot;:null}" fill="#ffffff" stroke="#000000" stroke-width="2" stroke-linecap="butt"/><path d="M265.01486,163.93543c-9.12807,0 -16.52783,-7.39977 -16.52783,-16.52784c0,-9.12808 7.39977,-16.52784 16.52783,-16.52784c9.12807,0 16.52783,7.39977 16.52783,16.52784c0,9.12808 -7.39977,16.52784 -16.52783,16.52784z" data-paper-data="{&quot;index&quot;:null}" fill="#000000" stroke="none" stroke-width="0" stroke-linecap="butt"/><path d="M187.38833,147.68322c0,-12.968 10.51265,-23.48065 23.48065,-23.48065c12.968,0 23.48065,10.51265 23.48065,23.48065c0,0 -46.96131,1.23155 -46.96131,0z" fill="#c581ff" stroke="#000000" stroke-width="2" stroke-linecap="butt"/><path d="M241.64679,147.68322c0,-12.968 10.51265,-23.48065 23.48065,-23.48065c12.968,0 23.48065,10.51265 23.48065,23.48065c0,1.2138 -46.96131,0 -46.96131,0z" data-paper-data="{&quot;index&quot;:null}" fill="#c581ff" stroke="#000000" stroke-width="2" stroke-linecap="butt"/><path d="M200.026,118.87475c0,0 6.70895,-5.16922 11.79722,-6.36355c5.08827,-1.19433 12.33413,0.69937 12.33413,0.69937c0,0 -8.03812,-0.06028 -11.96762,0.86207c-4.10648,0.96388 -12.16372,4.80211 -12.16372,4.80211z" fill="#000000" stroke="none" stroke-width="0" stroke-linecap="butt"/><path d="M263.96051,114.07265c-3.9295,-0.92235 -11.96762,-0.86207 -11.96762,-0.86207c0,0 7.24586,-1.8937 12.33413,-0.69937c5.08826,1.19433 11.79721,6.36355 11.79721,6.36355c0,0 -8.05724,-3.83822 -12.16372,-4.80211z" data-paper-data="{&quot;index&quot;:null}" fill="#000000" stroke="none" stroke-width="0" stroke-linecap="butt"/><path d="M252.37041,94.16519l14.5,15.5l-22.5,-6l3.25,13.75l-33.25,-19.5" data-paper-data="{&quot;index&quot;:null}" fill="#c581ff" stroke="#000000" stroke-width="2" stroke-linecap="round"/><path d="M252.78883,192.73833c0,4.16864 -28.1803,4.16864 -28.1803,0c0,-4.16864 6.30837,-7.548 14.09015,-7.548c7.78177,0 14.09015,3.37935 14.09015,7.548z" fill="#000000" stroke="#000000" stroke-width="2" stroke-linecap="butt"/></g></g></svg>