<svg version="1.1" xmlns="http://www.w3.org/2000/svg" xmlns:xlink="http://www.w3.org/1999/xlink" width="211.57228" height="376.76129" viewBox="0,0,211.57228,376.76129"><g transform="translate(-135.21386,8.38064)"><g data-paper-data="{&quot;isPaintingLayer&quot;:true}" fill-rule="nonzero" stroke="none" stroke-width="0" stroke-linecap="butt" stroke-linejoin="miter" stroke-miterlimit="10" stroke-dasharray="" stroke-dashoffset="0" style="mix-blend-mode: normal"><path d="M193.43526,368.38063l21.2068,-184.63823l52.91355,-0.22111l19.00955,184.85936z" fill="#000000"/><path d="M244.75952,223.17361l9.01925,41.60707l-12.13196,16.36086l-12.13196,-16.36086l8.72873,-41.57239z" fill="#000000"/><path d="M238.24357,223.21713l-8.72873,-9.40935l11.79164,-11.79165l11.79164,11.79165l-8.3386,9.36583z" fill="#000000"/><path d="M150.14723,129.38851c0,-46.63756 40.2768,-84.44478 89.96072,-84.44478c49.68392,0 89.96072,37.80723 89.96072,84.44478c0,46.63756 -40.2768,84.44478 -89.96072,84.44478c-49.68392,0 -89.96072,-37.80723 -89.96072,-84.44478z" fill="#000000"/><path d="M169.12348,129.98997c0,-18.16103 14.72244,-32.88347 32.88347,-32.88347c18.16103,0 32.88347,14.72244 32.88347,32.88347c0,18.16103 -14.72244,32.88347 -32.88347,32.88347c-18.16103,0 -32.88347,-14.72244 -32.88347,-32.88347z" fill="#000000"/><path d="M179.01819,129.60395c0,-12.78341 10.36299,-23.14641 23.1464,-23.14641c12.78341,0 23.14641,10.36301 23.14641,23.14641c0,12.78341 -10.36301,23.14641 -23.14641,23.14641c-12.78341,0 -23.1464,-10.36301 -23.1464,-23.14641z" fill="#000000"/><path d="M277.99318,162.87342c-18.16103,0 -32.88347,-14.72244 -32.88347,-32.88347c0,-18.16103 14.72244,-32.88347 32.88347,-32.88347c18.16103,0 32.88347,14.72244 32.88347,32.88347c0,18.16103 -14.72244,32.88347 -32.88347,32.88347z" data-paper-data="{&quot;index&quot;:null}" fill="#000000"/><path d="M277.83553,152.75036c-12.7834,0 -23.1464,-10.36301 -23.1464,-23.14641c0,-12.78341 10.36301,-23.14641 23.1464,-23.14641c12.7834,0 23.1464,10.36301 23.1464,23.14641c0,12.78341 -10.36301,23.14641 -23.1464,23.14641z" data-paper-data="{&quot;index&quot;:null}" fill="#000000"/><path d="M169.12348,129.98997c0,-18.16103 14.72244,-32.88347 32.88347,-32.88347c18.16103,0 32.88347,14.72244 32.88347,32.88347c0,0 -65.76696,1.72472 -65.76696,0z" fill="#ffffff"/><path d="M245.10972,129.98997c0,-18.16103 14.72244,-32.88347 32.88347,-32.88347c18.16103,0 32.88347,14.72244 32.88347,32.88347c0,1.69986 -65.76696,0 -65.76696,0z" data-paper-data="{&quot;index&quot;:null}" fill="#ffffff"/><g fill="#000000"><path d="M346.78614,73.71281c0,14.26097 -47.36208,25.82181 -105.78614,25.82181c-58.42406,0 -105.78614,-11.56084 -105.78614,-25.82181c0,-14.26097 47.36208,-25.82181 105.78614,-25.82181c58.42406,0 105.78614,11.56084 105.78614,25.82181z"/><path d="M175.19604,73.24478v-66.21086c0,0 15.15807,-14.37884 67.632,-15.37035c53.03965,-1.00228 63.97588,15.37035 63.97588,15.37035v66.21086c0,0 -13.96263,7.48068 -64.39236,6.3058c-45.0674,-1.04994 -67.21552,-6.3058 -67.21552,-6.3058z"/></g></g></g></svg>