<svg version="1.1" xmlns="http://www.w3.org/2000/svg" xmlns:xlink="http://www.w3.org/1999/xlink" width="483.53084" height="367.72442" viewBox="0,0,483.53084,367.72442"><defs><radialGradient cx="240" cy="180" r="238.97286" gradientUnits="userSpaceOnUse" id="color-1"><stop offset="0" stop-color="#00c1ff"/><stop offset="1" stop-color="#0bff00"/></radialGradient><radialGradient cx="240" cy="180" r="238.97286" gradientUnits="userSpaceOnUse" id="color-2"><stop offset="0" stop-color="#c39600" stop-opacity="0"/><stop offset="1" stop-color="#c39600"/></radialGradient><linearGradient x1="249.16024" y1="76.28041" x2="249.16024" y2="136.66368" gradientUnits="userSpaceOnUse" id="color-3"><stop offset="0" stop-color="#381d1d"/><stop offset="1" stop-color="#803d3d"/></linearGradient><linearGradient x1="248.26949" y1="73.29663" x2="248.26949" y2="187.63544" gradientUnits="userSpaceOnUse" id="color-4"><stop offset="0" stop-color="#1a1a1a"/><stop offset="1" stop-color="#808080"/></linearGradient><linearGradient x1="246.00015" y1="169.50008" x2="246.00015" y2="301.50005" gradientUnits="userSpaceOnUse" id="color-5"><stop offset="0" stop-color="#1a1900"/><stop offset="1" stop-color="#8a8100"/></linearGradient><linearGradient x1="246.07707" y1="70.8812" x2="246.07707" y2="191.47786" gradientUnits="userSpaceOnUse" id="color-6"><stop offset="0" stop-color="#1a1900"/><stop offset="1" stop-color="#8a8100"/></linearGradient><linearGradient x1="218.87094" y1="107.79505" x2="218.87094" y2="154.75634" gradientUnits="userSpaceOnUse" id="color-7"><stop offset="0" stop-color="#7d7d7d"/><stop offset="1" stop-color="#693c3c"/></linearGradient><linearGradient x1="273.12935" y1="107.79504" x2="273.12935" y2="154.75634" gradientUnits="userSpaceOnUse" id="color-8"><stop offset="0" stop-color="#7d7d7d"/><stop offset="1" stop-color="#693c3c"/></linearGradient><linearGradient x1="246.00005" y1="154.97346" x2="246.00005" y2="193.02653" gradientUnits="userSpaceOnUse" id="color-9"><stop offset="0" stop-color="#796100"/><stop offset="1" stop-color="#2e2500"/></linearGradient></defs><g transform="translate(1.56881,3.86221)"><g data-paper-data="{&quot;isPaintingLayer&quot;:true}" stroke-miterlimit="10" stroke-dasharray="" stroke-dashoffset="0" style="mix-blend-mode: normal"><path d="M1.02714,361.36221v-362.72442h477.94572v362.72442z" fill="url(#color-1)" fill-rule="nonzero" stroke="#8b5304" stroke-width="5" stroke-linecap="butt" stroke-linejoin="miter"/><path d="M1.02714,361.36221v-362.72442h477.94572v362.72442z" fill="url(#color-2)" fill-rule="nonzero" stroke="#8b5304" stroke-width="5" stroke-linecap="butt" stroke-linejoin="miter"/><path d="M0.93119,56.08069v-54.63017h478.53084v54.63017z" fill="#a26100" fill-rule="nonzero" stroke="#8b5304" stroke-width="5" stroke-linecap="butt" stroke-linejoin="miter"/><path d="M201.36095,352.38196c-0.00002,0.02694 -0.02188,0.04879 -0.04884,0.04879c-0.02694,0 -0.04881,-0.02184 -0.04884,-0.04879c0.00002,-0.02694 0.02188,-0.04879 0.04884,-0.04879c0.02694,0 0.04881,0.02184 0.04884,0.04879z" fill="#ffffff" fill-rule="nonzero" stroke="#000000" stroke-width="0.27531" stroke-linecap="butt" stroke-linejoin="miter"/><path d="" fill="#808080" fill-rule="evenodd" stroke="none" stroke-width="0.82588" stroke-linecap="round" stroke-linejoin="round"/><path d="M44.86315,138.76331c0,0 0.10036,-2.7506 0.70504,-3.60765c0.76671,-1.08672 2.9992,-2.49179 2.9992,-2.49179l5.90546,0.04414c0,0 -2.85294,2.44692 -3.73302,3.50796c-0.8119,0.97885 -1.23838,3.23937 -1.23838,3.23937c0,0 -1.63761,0.44115 -2.34454,0.00928c-0.4667,-0.28511 0.04148,-1.49902 -0.33518,-1.51675c-0.45152,-0.02124 0.32217,1.34796 -0.28356,1.667c-0.39062,0.20574 -1.67502,-0.85157 -1.67502,-0.85157z" fill="#16c300" fill-rule="nonzero" stroke="#000000" stroke-width="0" stroke-linecap="butt" stroke-linejoin="miter"/><path d="M47.21983,132.52827h13.94932" fill="none" fill-rule="nonzero" stroke="#000000" stroke-width="0" stroke-linecap="round" stroke-linejoin="miter"/><path d="M192.04906,290.17264v-229.78515h105.92347v229.78515z" fill-opacity="0.01" fill="#000000" fill-rule="nonzero" stroke="none" stroke-width="0" stroke-linecap="butt" stroke-linejoin="miter"/><path d="M216.4194,284.91654l13.02124,-113.37021l32.48959,-0.13577l11.6721,113.50599z" fill="#fff000" fill-rule="nonzero" stroke="#000000" stroke-width="2" stroke-linecap="butt" stroke-linejoin="miter"/><path d="M227.55523,196.01438l2.68409,-22.63898l30.81064,-0.12213l2.37963,22.4483c0,0 -6.46247,3.60814 -18.53849,3.87781c-10.73541,0.23973 -17.33588,-3.565 -17.33588,-3.565z" fill="#ffcb00" fill-rule="nonzero" stroke="#000000" stroke-width="0" stroke-linecap="butt" stroke-linejoin="miter"/><path d="M189.84001,138.45898c0,-28.63606 24.73046,-51.85016 55.23702,-51.85016c30.50656,0 55.23702,23.21412 55.23702,51.85016c0,28.63606 -24.73046,51.85016 -55.23702,51.85016c-30.50656,0 -55.23702,-23.21412 -55.23702,-51.85016z" fill="#fff000" fill-rule="nonzero" stroke="#000000" stroke-width="2" stroke-linecap="butt" stroke-linejoin="miter"/><path d="M190.46177,138.21865c0,-0.62599 4.47718,48.08474 54.48327,48.95745c47.77873,0.83384 54.61494,-49.83355 54.61494,-48.95745c0,28.20864 -24.42247,51.07626 -54.5491,51.07626c-30.12663,0 -54.5491,-22.86762 -54.5491,-51.07626z" fill="#ffcb00" fill-rule="nonzero" stroke="#000000" stroke-width="0" stroke-linecap="butt" stroke-linejoin="miter"/><path d="M201.49175,138.54165c0,-11.1511 9.03976,-20.19087 20.19087,-20.19087c11.1511,0 20.19087,9.03976 20.19087,20.19087c0,11.1511 -9.03976,20.19087 -20.19087,20.19087c-11.1511,0 -20.19087,-9.03976 -20.19087,-20.19087z" fill="#ffffff" fill-rule="nonzero" stroke="#000000" stroke-width="2" stroke-linecap="butt" stroke-linejoin="miter"/><path d="M207.56723,138.30464c0,-7.84918 6.36301,-14.21219 14.21218,-14.21219c7.84918,0 14.21219,6.36302 14.21219,14.21219c0,7.84918 -6.36302,14.21219 -14.21219,14.21219c-7.84918,0 -14.21218,-6.36302 -14.21218,-14.21219z" fill="#000000" fill-rule="nonzero" stroke="none" stroke-width="0" stroke-linecap="butt" stroke-linejoin="miter"/><path d="M268.33911,158.73251c-11.1511,0 -20.19087,-9.03976 -20.19087,-20.19087c0,-11.1511 9.03976,-20.19087 20.19087,-20.19087c11.1511,0 20.19087,9.03976 20.19087,20.19087c0,11.1511 -9.03976,20.19087 -20.19087,20.19087z" data-paper-data="{&quot;index&quot;:null}" fill="#ffffff" fill-rule="nonzero" stroke="#000000" stroke-width="2" stroke-linecap="butt" stroke-linejoin="miter"/><path d="M268.60328,153.10239c-7.84917,0 -14.21218,-6.36302 -14.21218,-14.21219c0,-7.84918 6.36302,-14.21219 14.21218,-14.21219c7.84917,0 14.21218,6.36302 14.21218,14.21219c0,7.84918 -6.36302,14.21219 -14.21218,14.21219z" data-paper-data="{&quot;index&quot;:null}" fill="#000000" fill-rule="nonzero" stroke="none" stroke-width="0" stroke-linecap="butt" stroke-linejoin="miter"/><path d="M201.49175,138.54165c0,-11.1511 9.03976,-20.19087 20.19087,-20.19087c11.1511,0 20.19087,9.03976 20.19087,20.19087c0,0 -40.38174,1.059 -40.38174,0z" fill="#fff000" fill-rule="nonzero" stroke="#000000" stroke-width="2" stroke-linecap="butt" stroke-linejoin="miter"/><path d="M248.14826,138.54165c0,-11.1511 9.03976,-20.19087 20.19087,-20.19087c11.1511,0 20.19087,9.03976 20.19087,20.19087c0,1.04374 -40.38174,0 -40.38174,0z" data-paper-data="{&quot;index&quot;:null}" fill="#fff000" fill-rule="nonzero" stroke="#000000" stroke-width="2" stroke-linecap="butt" stroke-linejoin="miter"/><path d="M212.3588,113.76942c0,0 5.76899,-4.44498 10.14436,-5.47198c4.37537,-1.027 10.60604,0.60138 10.60604,0.60138c0,0 -6.91193,-0.05183 -10.29088,0.74129c-3.53114,0.82883 -10.45951,4.1293 -10.45951,4.1293z" fill="#000000" fill-rule="nonzero" stroke="none" stroke-width="0" stroke-linecap="butt" stroke-linejoin="miter"/><path d="M267.33566,109.64013c-3.37895,-0.79312 -10.29088,-0.74129 -10.29088,-0.74129c0,0 6.23067,-1.62838 10.60604,-0.60138c4.37536,1.027 10.14435,5.47198 10.14435,5.47198c0,0 -6.92837,-3.30046 -10.45951,-4.1293z" data-paper-data="{&quot;index&quot;:null}" fill="#000000" fill-rule="nonzero" stroke="none" stroke-width="0" stroke-linecap="butt" stroke-linejoin="miter"/><g fill-rule="nonzero" stroke-linejoin="miter"><path d="M254.92106,175.2043h-21.59158" fill="none" stroke="#000000" stroke-width="2" stroke-linecap="round"/><path d="M292.6254,178.55732c0,7.48979 -31.06137,13.08356 -48.5533,13.08356c-17.49193,0 -46.67586,-5.52528 -46.67586,-13.01507c0,-7.48979 31.43712,-19.70653 48.92904,-19.70653c17.49193,0 46.30012,12.14825 46.30012,19.63804z" fill="#ffcb00" stroke="#000000" stroke-width="2" stroke-linecap="butt"/><path d="M243.91541,190.95393c-6.44864,0 -15.06673,-1.107 -22.64541,-2.29978c-2.16298,-6.64103 -5.47839,-14.66542 -8.20485,-20.90677c-0.15967,-0.36551 22.51676,-8.12678 31.65595,-8.12678c9.16864,0 22.32719,3.67034 31.93562,7.5051c-0.59449,1.20152 -7.76888,16.22854 -10.18874,21.65196c-7.90261,1.20391 -16.10237,2.17627 -22.55257,2.17627z" fill="#ff9f00" stroke="#000000" stroke-width="0" stroke-linecap="butt"/><path d="M232.88869,173.09962c0,2.49817 -1.03169,4.52335 -2.30434,4.52335c-1.27265,0 -2.30434,-2.02518 -2.30434,-4.52335c0,-2.49817 1.03169,-4.52336 2.30434,-4.52336c1.27265,0 2.30434,2.02518 2.30434,4.52336z" fill="#000000" stroke="none" stroke-width="0" stroke-linecap="butt"/><path d="M262.04121,172.58554c0,2.49817 -1.03169,4.52335 -2.30434,4.52335c-1.27265,0 -2.30434,-2.02517 -2.30434,-4.52335c0,-2.49817 1.03169,-4.52336 2.30434,-4.52336c1.27265,0 2.30434,2.02518 2.30434,4.52336z" fill="#000000" stroke="none" stroke-width="0" stroke-linecap="butt"/></g><path d="M226.73769,95.43397l28.59147,-16.76793l-2.79466,11.82354l19.34761,-5.15936l-12.46846,13.32836" data-paper-data="{&quot;index&quot;:null}" fill="#fff000" fill-rule="nonzero" stroke="#000000" stroke-width="2" stroke-linecap="round" stroke-linejoin="miter"/><text transform="translate(348.6875,125.39999) scale(0.5,0.5)" font-size="40" xml:space="preserve" fill="#000000" fill-rule="nonzero" stroke="none" stroke-width="1" stroke-linecap="butt" stroke-linejoin="miter" stroke-miterlimit="10" stroke-dasharray="" stroke-dashoffset="0" font-family="Sans Serif" font-weight="normal" text-anchor="start" style="mix-blend-mode: normal"><tspan x="0" dy="0">50 = 25$</tspan></text><path d="M353.6875,129.39999l-60,80l1,-16l14,14l-16,6l2,-20" fill="none" fill-rule="nonzero" stroke="#8b5304" stroke-width="5" stroke-linecap="round" stroke-linejoin="miter"/><path d="M184.409,307.61251v-267.22501h123.18203v267.22501z" fill-opacity="0.01" fill="#000000" fill-rule="nonzero" stroke="none" stroke-width="0" stroke-linecap="butt" stroke-linejoin="miter"/><path d="M299.73242,106.47206c0,16.67439 -22.64196,30.19165 -50.57223,30.19165c-27.93027,0 -50.57222,-13.51726 -50.57222,-30.19165c0,-7.14877 1.01839,-16.02352 8.19943,-20.56358c3.36705,-2.12874 11.88371,-6.15053 16.2329,-7.87717c8.01049,-3.18019 29.58211,0.77098 39.9233,0.77098c5.86276,0 5.40083,3.73636 5.84838,2.18388c0.29225,-1.01379 10.38701,0.42049 10.90036,0.65072c2.70848,1.21467 9.63522,4.58286 13.7006,8.02935c5.92094,5.01957 6.33948,14.52725 6.33948,16.80582z" fill="url(#color-3)" fill-rule="nonzero" stroke="none" stroke-width="0" stroke-linecap="butt" stroke-linejoin="miter"/><path d="M187.01884,126.77014c0,-11.56827 3.70699,-21.83789 10.05894,-30.20755c1.52875,1.13967 3.11849,2.188 4.84261,3.01959c2.19648,1.05942 4.52832,1.72388 6.84984,2.44158c-0.07772,0.22495 -0.13394,0.45287 -0.14367,0.6866c-0.09868,2.37102 10.22517,3.23548 12.73567,1.5453c2.76451,-1.86118 6.52652,0.67736 9.91324,-3.45738c0.72842,-0.8893 3.15864,-0.86703 4.15074,0.55884c2.26773,0.0427 4.60842,0.70034 6.80317,0.1281c2.46173,-0.64185 4.66882,-2.93529 5.8927,-5.56533c7.85064,1.67754 15.26021,2.75576 23.34443,0.15572c0.13621,-0.05232 0.27204,-0.10487 0.40751,-0.15768c0.68989,0.07709 1.42216,0.0577 2.15364,0.02878c0.58866,1.89957 1.56803,3.68215 2.53039,5.75654c1.1164,1.29018 4.64336,0.65721 6.15121,1.45552c6.62513,3.50755 8.11383,0.6682 13.91318,-0.62807c1.36516,-0.30514 2.73014,-0.62184 4.09584,-0.94178c3.36846,6.79325 5.20491,14.64635 5.20491,23.37711c0,31.57378 -19.35085,37.66938 -57.65369,38.00271c-49.3021,0.42905 -61.25068,-4.62483 -61.25068,-36.1986z" fill="url(#color-4)" fill-rule="nonzero" stroke="#000000" stroke-width="0" stroke-linecap="butt" stroke-linejoin="miter"/><path d="M212.75016,301.50005l15.14285,-131.8421l37.78325,-0.15789l13.57389,132z" fill="url(#color-5)" fill-rule="nonzero" stroke="#000000" stroke-width="0" stroke-linecap="butt" stroke-linejoin="miter"/><path d="M181.84005,131.17952c0,-12.24469 3.88818,-23.63693 10.56881,-33.14818c0.57636,0.58881 1.15826,1.15324 1.77065,1.59374c7.91415,5.69267 15.91608,8.10468 25.69296,6.9442c4.12078,-0.48912 7.85256,-3.20934 11.35358,-5.26943c1.20059,-0.70646 2.22888,-2.81345 3.51043,-2.26744c7.3817,3.14501 11.95226,10.21621 20.53969,10.97061c5.9915,0.52635 12.48773,-9.55919 17.17848,-8.72299c11.17322,1.99181 22.09928,4.41884 33.04621,6.95683c3.1022,7.07225 4.81324,14.81989 4.81324,22.94266c0,33.30185 -28.7599,60.29833 -64.23702,60.29833c-35.47712,0 -64.23702,-26.99649 -64.23702,-60.29833z" fill="url(#color-6)" fill-rule="nonzero" stroke="#000000" stroke-width="0" stroke-linecap="butt" stroke-linejoin="miter"/><path d="M195.39028,131.2757c0,-12.968 10.51265,-23.48065 23.48065,-23.48065c12.968,0 23.48065,10.51265 23.48065,23.48065c0,12.968 -10.51265,23.48065 -23.48065,23.48065c-12.968,0 -23.48065,-10.51265 -23.48065,-23.48065z" fill="url(#color-7)" fill-rule="nonzero" stroke="#000000" stroke-width="0" stroke-linecap="butt" stroke-linejoin="miter"/><path d="M202.45571,131c0,-9.12808 7.39976,-16.52784 16.52783,-16.52784c9.12808,0 16.52784,7.39977 16.52784,16.52784c0,9.12808 -7.39977,16.52784 -16.52784,16.52784c-9.12808,0 -16.52783,-7.39977 -16.52783,-16.52784z" fill="#000000" fill-rule="nonzero" stroke="none" stroke-width="0" stroke-linecap="butt" stroke-linejoin="miter"/><path d="M273.12935,154.75634c-12.968,0 -23.48065,-10.51265 -23.48065,-23.48065c0,-12.968 10.51265,-23.48065 23.48065,-23.48065c12.968,0 23.48065,10.51265 23.48065,23.48065c0,12.968 -10.51265,23.48065 -23.48065,23.48065z" data-paper-data="{&quot;index&quot;:null}" fill="url(#color-8)" fill-rule="nonzero" stroke="#000000" stroke-width="0" stroke-linecap="butt" stroke-linejoin="miter"/><path d="M273.01672,147.52785c-9.12807,0 -16.52783,-7.39977 -16.52783,-16.52784c0,-9.12808 7.39977,-16.52784 16.52783,-16.52784c9.12807,0 16.52783,7.39977 16.52783,16.52784c0,9.12808 -7.39977,16.52784 -16.52783,16.52784z" data-paper-data="{&quot;index&quot;:null}" fill="#000000" fill-rule="nonzero" stroke="none" stroke-width="0" stroke-linecap="butt" stroke-linejoin="miter"/><path d="M208.02798,102.46723c0,0 6.70895,-5.16922 11.79722,-6.36355c5.08827,-1.19433 12.33413,0.69937 12.33413,0.69937c0,0 -8.03812,-0.06028 -11.96762,0.86207c-4.10648,0.96388 -12.16372,4.80211 -12.16372,4.80211z" fill="#000000" fill-rule="nonzero" stroke="none" stroke-width="0" stroke-linecap="butt" stroke-linejoin="miter"/><path d="M271.96236,97.66513c-3.9295,-0.92235 -11.96762,-0.86207 -11.96762,-0.86207c0,0 7.24586,-1.8937 12.33413,-0.69937c5.08826,1.19433 11.79721,6.36355 11.79721,6.36355c0,0 -8.05724,-3.83822 -12.16372,-4.80211z" data-paper-data="{&quot;index&quot;:null}" fill="#000000" fill-rule="nonzero" stroke="none" stroke-width="0" stroke-linecap="butt" stroke-linejoin="miter"/><path d="M283.33215,179.03236c0,9.56143 -16.31758,17.3125 -36.44633,17.3125c-20.12875,0 -36.44633,-7.75107 -36.44633,-17.3125c0,-9.56143 16.31758,-17.3125 36.44633,-17.3125c20.12875,0 36.44633,7.75107 36.44633,17.3125z" fill="#000000" fill-rule="nonzero" stroke="none" stroke-width="NaN" stroke-linecap="butt" stroke-linejoin="miter"/><path d="M257.52504,173.91192h-25.10959" fill="none" fill-rule="nonzero" stroke="#000000" stroke-width="2" stroke-linecap="round" stroke-linejoin="miter"/><path d="M301.37263,177.81122c0,8.71013 -36.12233,15.21532 -56.46429,15.21532c-20.34196,0 -54.28096,-6.42554 -54.28096,-15.13567c0,-8.71013 36.5593,-22.9174 56.90126,-22.9174c20.34196,0 53.84399,14.12762 53.84399,22.83775z" fill="url(#color-9)" fill-rule="nonzero" stroke="#000000" stroke-width="0" stroke-linecap="butt" stroke-linejoin="miter"/><path d="M231.90282,171.46431c0,2.90521 -1.19979,5.26036 -2.6798,5.26036c-1.48001,0 -2.6798,-2.35515 -2.6798,-5.26036c0,-2.90521 1.19979,-5.26037 2.6798,-5.26037c1.48001,0 2.6798,2.35515 2.6798,5.26037z" fill="#000000" fill-rule="nonzero" stroke="none" stroke-width="0" stroke-linecap="butt" stroke-linejoin="miter"/><path d="M265.8053,170.86646c0,2.90521 -1.19979,5.26036 -2.6798,5.26036c-1.48001,0 -2.6798,-2.35514 -2.6798,-5.26036c0,-2.90521 1.19979,-5.26037 2.6798,-5.26037c1.48001,0 2.6798,2.35515 2.6798,5.26037z" fill="#000000" fill-rule="nonzero" stroke="none" stroke-width="0" stroke-linecap="butt" stroke-linejoin="miter"/></g></g></svg>