<svg version="1.1" xmlns="http://www.w3.org/2000/svg" xmlns:xlink="http://www.w3.org/1999/xlink" width="215.48508" height="292.2932" viewBox="0,0,215.48508,292.2932"><defs><linearGradient x1="240.00007" y1="175.50003" x2="240.00007" y2="307.50003" gradientUnits="userSpaceOnUse" id="color-1"><stop offset="0" stop-color="#2a1d19"/><stop offset="1" stop-color="#825b4e"/></linearGradient><linearGradient x1="240" y1="76.54782" x2="240" y2="219.32066" gradientUnits="userSpaceOnUse" id="color-2"><stop offset="0" stop-color="#2a1d19"/><stop offset="1" stop-color="#825b4e"/></linearGradient><radialGradient cx="155.61519" cy="217.69888" r="107.74254" gradientUnits="userSpaceOnUse" id="color-3"><stop offset="0" stop-color="#2a1d19"/><stop offset="1" stop-color="#825b4e"/></radialGradient><radialGradient cx="243.75034" cy="127.15595" r="101.35785" gradientUnits="userSpaceOnUse" id="color-4"><stop offset="0" stop-color="#150000"/><stop offset="1" stop-color="#850000"/></radialGradient><linearGradient x1="203.78442" y1="107.43048" x2="203.78442" y2="154.39178" gradientUnits="userSpaceOnUse" id="color-5"><stop offset="0" stop-color="#919191"/><stop offset="1" stop-color="#865959"/></linearGradient><linearGradient x1="268.59049" y1="96.06211" x2="268.59049" y2="143.02341" gradientUnits="userSpaceOnUse" id="color-6"><stop offset="0" stop-color="#919191"/><stop offset="1" stop-color="#865959"/></linearGradient><linearGradient x1="263.59387" y1="148.87658" x2="265.53208" y2="154.31631" gradientUnits="userSpaceOnUse" id="color-7"><stop offset="0" stop-color="#363636"/><stop offset="1" stop-color="#636363"/></linearGradient><linearGradient x1="261.23773" y1="149.11803" x2="263.55413" y2="155.61916" gradientUnits="userSpaceOnUse" id="color-8"><stop offset="0" stop-color="#363636"/><stop offset="1" stop-color="#636363"/></linearGradient><linearGradient x1="257.91166" y1="149.85455" x2="260.51171" y2="157.15175" gradientUnits="userSpaceOnUse" id="color-9"><stop offset="0" stop-color="#363636"/><stop offset="1" stop-color="#636363"/></linearGradient><linearGradient x1="253.297" y1="150.7512" x2="256.36978" y2="159.37515" gradientUnits="userSpaceOnUse" id="color-10"><stop offset="0" stop-color="#363636"/><stop offset="1" stop-color="#636363"/></linearGradient><linearGradient x1="242.31385" y1="153.91698" x2="245.95391" y2="164.13304" gradientUnits="userSpaceOnUse" id="color-11"><stop offset="0" stop-color="#363636"/><stop offset="1" stop-color="#636363"/></linearGradient><linearGradient x1="248.02198" y1="152.03264" x2="251.47295" y2="161.71801" gradientUnits="userSpaceOnUse" id="color-12"><stop offset="0" stop-color="#363636"/><stop offset="1" stop-color="#636363"/></linearGradient><linearGradient x1="216.45485" y1="165.52305" x2="218.39307" y2="170.96278" gradientUnits="userSpaceOnUse" id="color-13"><stop offset="0" stop-color="#363636"/><stop offset="1" stop-color="#636363"/></linearGradient><linearGradient x1="218.43281" y1="164.22021" x2="220.74921" y2="170.72134" gradientUnits="userSpaceOnUse" id="color-14"><stop offset="0" stop-color="#363636"/><stop offset="1" stop-color="#636363"/></linearGradient><linearGradient x1="221.47522" y1="162.68761" x2="224.07527" y2="169.9848" gradientUnits="userSpaceOnUse" id="color-15"><stop offset="0" stop-color="#363636"/><stop offset="1" stop-color="#636363"/></linearGradient><linearGradient x1="225.61716" y1="160.46423" x2="228.68994" y2="169.08817" gradientUnits="userSpaceOnUse" id="color-16"><stop offset="0" stop-color="#363636"/><stop offset="1" stop-color="#636363"/></linearGradient><linearGradient x1="236.12757" y1="155.97168" x2="239.76763" y2="166.18774" gradientUnits="userSpaceOnUse" id="color-17"><stop offset="0" stop-color="#363636"/><stop offset="1" stop-color="#636363"/></linearGradient><linearGradient x1="230.51398" y1="158.12135" x2="233.96495" y2="167.80672" gradientUnits="userSpaceOnUse" id="color-18"><stop offset="0" stop-color="#363636"/><stop offset="1" stop-color="#636363"/></linearGradient><linearGradient x1="264.1414" y1="157.17349" x2="265.81312" y2="162.08043" gradientUnits="userSpaceOnUse" id="color-19"><stop offset="0" stop-color="#636363"/><stop offset="1" stop-color="#363636"/></linearGradient><linearGradient x1="262.42105" y1="158.52763" x2="264.41897" y2="164.39202" gradientUnits="userSpaceOnUse" id="color-20"><stop offset="0" stop-color="#636363"/><stop offset="1" stop-color="#363636"/></linearGradient><linearGradient x1="259.70159" y1="159.95502" x2="261.94415" y2="166.5375" gradientUnits="userSpaceOnUse" id="color-21"><stop offset="0" stop-color="#636363"/><stop offset="1" stop-color="#363636"/></linearGradient><linearGradient x1="255.82347" y1="161.50999" x2="258.47377" y2="169.28928" gradientUnits="userSpaceOnUse" id="color-22"><stop offset="0" stop-color="#636363"/><stop offset="1" stop-color="#363636"/></linearGradient><linearGradient x1="246.39431" y1="165.59059" x2="249.53389" y2="174.80606" gradientUnits="userSpaceOnUse" id="color-23"><stop offset="0" stop-color="#636363"/><stop offset="1" stop-color="#363636"/></linearGradient><linearGradient x1="251.37839" y1="163.49187" x2="254.35488" y2="172.2286" gradientUnits="userSpaceOnUse" id="color-24"><stop offset="0" stop-color="#636363"/><stop offset="1" stop-color="#363636"/></linearGradient><linearGradient x1="221.48377" y1="171.70636" x2="223.15549" y2="176.6133" gradientUnits="userSpaceOnUse" id="color-25"><stop offset="0" stop-color="#636363"/><stop offset="1" stop-color="#363636"/></linearGradient><linearGradient x1="223.673" y1="171.72856" x2="225.67091" y2="177.59295" gradientUnits="userSpaceOnUse" id="color-26"><stop offset="0" stop-color="#636363"/><stop offset="1" stop-color="#363636"/></linearGradient><linearGradient x1="226.69826" y1="171.1988" x2="228.94082" y2="177.78128" gradientUnits="userSpaceOnUse" id="color-27"><stop offset="0" stop-color="#636363"/><stop offset="1" stop-color="#363636"/></linearGradient><linearGradient x1="230.7191" y1="170.0627" x2="233.3694" y2="177.84199" gradientUnits="userSpaceOnUse" id="color-28"><stop offset="0" stop-color="#636363"/><stop offset="1" stop-color="#363636"/></linearGradient><linearGradient x1="240.67832" y1="167.53794" x2="243.81791" y2="176.75342" gradientUnits="userSpaceOnUse" id="color-29"><stop offset="0" stop-color="#636363"/><stop offset="1" stop-color="#363636"/></linearGradient><linearGradient x1="235.44961" y1="168.91859" x2="238.42609" y2="177.65532" gradientUnits="userSpaceOnUse" id="color-30"><stop offset="0" stop-color="#636363"/><stop offset="1" stop-color="#363636"/></linearGradient></defs><g transform="translate(-136.29166,-21.31931)"><g data-paper-data="{&quot;isPaintingLayer&quot;:true}" fill-rule="nonzero" stroke-width="0" stroke-linecap="butt" stroke-linejoin="miter" stroke-miterlimit="10" stroke-dasharray="" stroke-dashoffset="0" style="mix-blend-mode: normal"><path d="M178.40899,313.61251v-267.22501h123.18203v267.22501z" fill-opacity="0.01" fill="#000000" stroke="none"/><path d="M206.75007,307.50002l15.14285,-131.8421l37.78325,-0.15789l13.57389,132z" fill="url(#color-1)" stroke="#000000"/><path d="M175.06777,136.84615c0,-33.30185 28.7599,-60.29833 64.23702,-60.29833c35.47712,0 64.23702,26.99649 64.23702,60.29833c0,13.05014 4.0286,82.47451 4.0286,82.47451c0,0 -46.69107,-22.17618 -68.26562,-22.17618c-20.49118,0 -66.8752,20.6796 -66.8752,20.6796c0,0 2.63818,-66.91085 2.63818,-80.97793z" fill="url(#color-2)" stroke="#000000"/><g stroke="none"><g fill="url(#color-3)"><path d="M140.55264,205.23209l18.50323,-56.63564l-22.76421,-28.10776l29.94245,-18.10513l7.09554,-31.71783l38.21793,18.70714l24.49605,-68.05356l26.79509,75.86143l37.68426,-31.55798l2.13355,43.89763l49.12021,5.54972l-42.40356,30.14046l33.04464,49.17646l-45.26528,-12.16217l6.37467,47.47005l-50.48801,-34.25879l-15.02463,34.81375l-51.70255,-45.69321l-44.7831,47.98139z"/></g><g fill="url(#color-4)"><path d="M146.40098,201.89549l17.40675,-53.27948l-21.41523,-26.44213l28.1681,-17.03224l6.67506,-29.83827l35.95318,17.59858l23.04444,-64.02079l25.20724,71.36597l35.45114,-29.68789l2.00712,41.29631l46.20941,5.22085l-39.89077,28.35438l31.08645,46.26232l-42.58292,-11.44146l5.99691,44.65703l-47.49615,-32.22865l-14.13429,32.75073l-48.63872,-42.98549l-42.1293,45.13807z"/></g></g><path d="M180.30377,130.91113c0,-12.968 10.51265,-23.48065 23.48065,-23.48065c12.968,0 23.48065,10.51265 23.48065,23.48065c0,12.968 -10.51265,23.48065 -23.48065,23.48065c-12.968,0 -23.48065,-10.51265 -23.48065,-23.48065z" fill="url(#color-5)" stroke="#000000"/><path d="M190.71802,132.17658c0,-9.12808 7.39976,-16.52784 16.52783,-16.52784c9.12808,0 16.52784,7.39977 16.52784,16.52784c0,9.12808 -7.39977,16.52784 -16.52784,16.52784c-9.12808,0 -16.52783,-7.39977 -16.52783,-16.52784z" fill="#000000" stroke="none"/><path d="M268.59049,143.02341c-12.968,0 -23.48065,-10.51265 -23.48065,-23.48065c0,-12.968 10.51265,-23.48065 23.48065,-23.48065c12.968,0 23.48065,10.51265 23.48065,23.48065c0,12.968 -10.51265,23.48065 -23.48065,23.48065z" data-paper-data="{&quot;index&quot;:null}" fill="url(#color-6)" stroke="#000000"/><path d="M267.37034,137.63008c-9.12807,0 -16.52783,-7.39977 -16.52783,-16.52784c0,-9.12808 7.39977,-16.52784 16.52783,-16.52784c9.12807,0 16.52783,7.39977 16.52783,16.52784c0,9.12808 -7.39977,16.52784 -16.52783,16.52784z" data-paper-data="{&quot;index&quot;:null}" fill="#000000" stroke="none"/><g stroke="none"><g><path d="M263.81909,154.92666c0,0 -2.40408,-5.27373 -0.17206,-6.06902c2.23201,-0.79528 3.56305,4.86078 3.56305,4.86078z" fill="url(#color-7)"/><path d="M261.5069,156.3486c0,0 -2.87317,-6.30276 -0.20564,-7.25322c2.66752,-0.95046 4.2583,5.80922 4.2583,5.80922z" fill="url(#color-8)"/><path d="M258.2138,157.97051c0,0 -3.22499,-7.07452 -0.23083,-8.14137c2.99416,-1.06685 4.77973,6.52056 4.77973,6.52056z" fill="url(#color-9)"/><path d="M253.65407,160.34277c0,0 -3.81135,-8.36078 -0.2728,-9.6216c3.53855,-1.26082 5.64875,7.7061 5.64875,7.7061z" fill="url(#color-10)"/><path d="M242.73684,165.27931c0,0 -4.51497,-9.90432 -0.32314,-11.3979c4.19183,-1.49358 6.69161,9.12877 6.69161,9.12877z" fill="url(#color-11)"/><path d="M248.42299,162.80473c0,0 -4.28043,-9.38983 -0.30637,-10.80581c3.97407,-1.41599 6.34401,8.65456 6.34401,8.65456z" fill="url(#color-12)"/></g><g data-paper-data="{&quot;index&quot;:null}"><path d="M216.71506,171.56067c0,0 -2.54539,-5.22339 -0.31338,-6.01866c2.23202,-0.79529 3.70437,4.81043 3.70437,4.81043z" fill="url(#color-13)"/><path d="M218.74378,171.43589c0,0 -3.04204,-6.2426 -0.37451,-7.19306c2.66753,-0.95046 4.42718,5.74906 4.42718,5.74906z" fill="url(#color-14)"/><path d="M221.82429,170.78685c0,0 -3.41453,-7.007 -0.42037,-8.07384c2.99417,-1.06685 4.96927,6.45303 4.96927,6.45303z" fill="url(#color-15)"/><path d="M226.02968,170.03604c0,0 -4.03535,-8.28097 -0.4968,-9.54179c3.53855,-1.26082 5.87276,7.62629 5.87276,7.62629z" fill="url(#color-16)"/><path d="M236.61623,167.3106c0,0 -4.78034,-9.80977 -0.5885,-11.30335c4.19183,-1.49358 6.95697,9.03422 6.95697,9.03422z" fill="url(#color-17)"/><path d="M230.97727,168.87125c0,0 -4.53201,-9.30019 -0.55794,-10.71618c3.97407,-1.41599 6.59557,8.56492 6.59557,8.56492z" fill="url(#color-18)"/></g></g><g stroke="none"><g><path d="M265.65504,156.65781c0,0 2.21942,4.72035 0.20602,5.40629c-2.0134,0.68594 -3.26488,-4.36418 -3.26488,-4.36418z" fill="url(#color-19)"/><path d="M264.23006,157.91133c0,0 2.65248,5.64139 0.24621,6.46117c-2.40625,0.81977 -3.90194,-5.21571 -3.90194,-5.21571z" fill="url(#color-20)"/><path d="M261.73212,159.26325c0,0 2.97726,6.33217 0.27637,7.25233c-2.7009,0.92016 -4.37973,-5.85437 -4.37973,-5.85437z" fill="url(#color-21)"/><path d="M258.22317,160.69244c0,0 3.51859,7.48347 0.32662,8.57094c-3.19197,1.08746 -5.17605,-6.9188 -5.17605,-6.9188z" fill="url(#color-22)"/><path d="M249.23703,164.62211c0,0 4.16816,8.86503 0.38691,10.15326c-3.78126,1.28822 -6.13162,-8.19612 -6.13162,-8.19612z" fill="url(#color-23)"/><path d="M254.07344,162.5737c0,0 3.95166,8.40451 0.36681,9.62582c-3.58483,1.2213 -5.81309,-7.77035 -5.81309,-7.77035z" fill="url(#color-24)"/></g><g data-paper-data="{&quot;index&quot;:null}"><path d="M223.02897,171.17993c0,0 2.09197,4.76377 0.07858,5.4497c-2.0134,0.68594 -3.13743,-4.40759 -3.13743,-4.40759z" fill="url(#color-25)"/><path d="M225.51972,171.09941c0,0 2.50014,5.69329 0.09389,6.51306c-2.40625,0.81977 -3.74962,-5.2676 -3.74962,-5.2676z" fill="url(#color-26)"/><path d="M228.77111,170.49261c0,0 2.80629,6.39042 0.10539,7.31058c-2.70089,0.92016 -4.20874,-5.91262 -4.20874,-5.91262z" fill="url(#color-27)"/><path d="M233.16882,169.22812c0,0 3.31653,7.55231 0.12456,8.63977c-3.19197,1.08746 -4.97398,-6.98764 -4.97398,-6.98764z" fill="url(#color-28)"/><path d="M243.5803,166.54928c0,0 3.92881,8.94658 0.14754,10.23481c-3.78126,1.28822 -5.89225,-8.27767 -5.89225,-8.27767z" fill="url(#color-29)"/><path d="M238.20083,167.98128c0,0 3.72472,8.48183 0.13989,9.70314c-3.58483,1.2213 -5.58617,-7.84766 -5.58617,-7.84766z" fill="url(#color-30)"/></g></g></g></g></svg>