<svg version="1.1" xmlns="http://www.w3.org/2000/svg" xmlns:xlink="http://www.w3.org/1999/xlink" width="155.58313" height="267.46502" viewBox="0,0,155.58313,267.46502"><defs><linearGradient x1="240.00006" y1="175.50001" x2="240.00006" y2="307.50001" gradientUnits="userSpaceOnUse" id="color-1"><stop offset="0" stop-color="#18252b"/><stop offset="1" stop-color="#517a8f"/></linearGradient><linearGradient x1="240.07699" y1="76.88116" x2="240.07699" y2="197.47782" gradientUnits="userSpaceOnUse" id="color-2"><stop offset="0" stop-color="#18252b"/><stop offset="1" stop-color="#517a8f"/></linearGradient><linearGradient x1="268.59821" y1="132.62755" x2="268.59821" y2="174.8586" gradientUnits="userSpaceOnUse" id="color-3"><stop offset="0" stop-color="#1a0000"/><stop offset="1" stop-color="#800000"/></linearGradient><linearGradient x1="213.11028" y1="136.29421" x2="213.11028" y2="178.52526" gradientUnits="userSpaceOnUse" id="color-4"><stop offset="0" stop-color="#1a0000"/><stop offset="1" stop-color="#800000"/></linearGradient><radialGradient cx="212.87085" cy="137.27563" r="23.48065" gradientUnits="userSpaceOnUse" id="color-5"><stop offset="0" stop-color="#808080"/><stop offset="1" stop-color="#804040"/></radialGradient><radialGradient cx="267.12926" cy="137.27562" r="23.48065" gradientUnits="userSpaceOnUse" id="color-6"><stop offset="0" stop-color="#808080"/><stop offset="1" stop-color="#804040"/></radialGradient><linearGradient x1="237.05394" y1="90.91529" x2="250.64444" y2="90.91529" gradientUnits="userSpaceOnUse" id="color-7"><stop offset="0" stop-color="#18252b"/><stop offset="1" stop-color="#517a8f"/></linearGradient><linearGradient x1="317.74077" y1="37.82812" x2="317.74077" y2="141.82812" gradientUnits="userSpaceOnUse" id="color-8"><stop offset="0" stop-color="#49565c"/><stop offset="1" stop-color="#6b808b"/></linearGradient><linearGradient x1="303.16958" y1="62.71127" x2="303.16958" y2="123.89805" gradientUnits="userSpaceOnUse" id="color-9"><stop offset="0" stop-color="#484848"/><stop offset="1" stop-color="#808080"/></linearGradient><linearGradient x1="162.5984" y1="36.82812" x2="162.5984" y2="140.82812" gradientUnits="userSpaceOnUse" id="color-10"><stop offset="0" stop-color="#49565c"/><stop offset="1" stop-color="#6b808b"/></linearGradient><linearGradient x1="177.16958" y1="61.71127" x2="177.16958" y2="122.89805" gradientUnits="userSpaceOnUse" id="color-11"><stop offset="0" stop-color="#484848"/><stop offset="1" stop-color="#808080"/></linearGradient><radialGradient cx="191.198" cy="99.34989" r="27.5" gradientUnits="userSpaceOnUse" id="color-12"><stop offset="0" stop-color="#18252b"/><stop offset="1" stop-color="#18252b" stop-opacity="0"/></radialGradient><radialGradient cx="287.23082" cy="98.34989" r="27.5" gradientUnits="userSpaceOnUse" id="color-13"><stop offset="0" stop-color="#18252b"/><stop offset="1" stop-color="#18252b" stop-opacity="0"/></radialGradient></defs><g transform="translate(-162.37801,-46.38751)"><g data-paper-data="{&quot;isPaintingLayer&quot;:true}" fill-rule="nonzero" stroke-linejoin="miter" stroke-miterlimit="10" stroke-dasharray="" stroke-dashoffset="0" style="mix-blend-mode: normal"><path d="M178.409,313.85253v-267.22501h123.18203v267.22501z" fill-opacity="0.01" fill="#000000" stroke="none" stroke-width="0" stroke-linecap="butt"/><path d="M179.28375,313.61252v-267.22501h123.18203v267.22501z" fill-opacity="0.01" fill="#000000" stroke="none" stroke-width="0" stroke-linecap="butt"/><path d="M206.75007,307.5l15.14285,-131.8421l37.78325,-0.15789l13.57389,132z" fill="url(#color-1)" stroke="#000000" stroke-width="0" stroke-linecap="butt"/><path d="M175.83997,137.17949c0,-33.30185 28.7599,-60.29833 64.23702,-60.29833c18.60725,0 35.36669,7.42634 47.09804,19.29375c10.63597,10.75933 17.13898,25.16909 17.13898,41.00458c0,33.30185 -28.7599,60.29833 -64.23702,60.29833c-35.47712,0 -64.23702,-26.99649 -64.23702,-60.29833z" fill="url(#color-2)" stroke="#000000" stroke-width="0" stroke-linecap="butt"/><path d="M279.62679,169.0998c-0.68537,-0.02506 -0.80909,-3.43474 -1.28579,-6.3807c-0.33999,-2.10107 -0.95779,-3.96627 -1.6401,-4.19951c-0.42519,-0.14535 -0.03531,4.80106 -0.35509,9.68935c-0.31306,4.78541 -1.33121,9.51512 -2.15911,9.3576c-1.36871,-0.26042 -0.63823,-5.74657 -0.7849,-9.07413c-0.06309,-1.43148 -0.61449,-2.46349 -1.02745,-2.50813c-2.00574,-0.21683 -0.86623,-5.4274 -3.16217,-5.26721c-0.69691,0.04863 -0.45082,2.65846 -0.80187,5.5131c-0.43673,3.55134 -1.46905,7.48156 -2.55192,7.33075c-0.92196,-0.1284 -0.37238,-3.60455 -0.47113,-7.71158c-0.12259,-5.09865 -0.81144,-11.06138 -1.46123,-11.52474c-0.59023,-0.42088 -0.35454,3.08355 -0.82637,5.81667c-0.27507,1.59339 -1.18668,3.05665 -1.6009,2.97988c-1.75932,-0.32607 -0.2229,4.00066 -2.44196,3.92345c-1.22072,-0.04247 -1.03327,-2.6529 -0.98388,-5.39657c0.03882,-2.15705 -0.16045,-4.39645 -0.16045,-5.53509c0,-7.38776 -0.14286,-4.48539 -0.14286,-4.48539l22.6572,-1c0,0 0.34286,-1.62426 0.34286,5.91197c0,2.11806 0.2035,4.23 0.16416,6.10109c-0.07821,3.71987 -0.52579,6.48777 -1.30702,6.45921z" data-paper-data="{&quot;index&quot;:null}" fill="url(#color-3)" stroke="none" stroke-width="0" stroke-linecap="butt"/><path d="M202.08168,172.76648c-0.78123,0.02856 -1.22881,-2.73934 -1.30702,-6.45921c-0.03934,-1.87109 0.16416,-3.98303 0.16416,-6.10109c0,-7.53623 0.34286,-23.91197 0.34286,-23.91197h23.6572c0,0 -1.14286,16.09763 -1.14286,23.48539c0,1.13864 -0.19927,3.37804 -0.16045,5.53509c0.04939,2.74367 0.23684,5.3541 -0.98388,5.39657c-2.21906,0.07721 -0.68264,-4.24952 -2.44196,-3.92345c-0.41422,0.07677 -1.32583,-1.38649 -1.6009,-2.97988c-0.47183,-2.73312 -0.23614,-6.23755 -0.82637,-5.81667c-0.64979,0.46336 -1.33864,6.42609 -1.46123,11.52474c-0.09875,4.10703 0.45083,7.58318 -0.47113,7.71158c-1.08287,0.15081 -2.11519,-3.77941 -2.55192,-7.33075c-0.35105,-2.85464 -0.10496,-5.46447 -0.80187,-5.5131c-2.29594,-0.16019 -1.15643,5.05038 -3.16217,5.26721c-0.41296,0.04464 -0.96436,1.07665 -1.02745,2.50813c-0.14667,3.32756 0.58381,8.81371 -0.7849,9.07413c-0.8279,0.15752 -1.84605,-4.57219 -2.15911,-9.3576c-0.31978,-4.88829 0.0701,-9.8347 -0.35509,-9.68935c-0.68231,0.23324 -1.30011,2.09844 -1.6401,4.19951c-0.4767,2.94596 -0.60042,6.35564 -1.28579,6.3807z" fill="url(#color-4)" stroke="none" stroke-width="0" stroke-linecap="butt"/><path d="M189.3902,137.27563c0,-12.968 10.51265,-23.48065 23.48065,-23.48065c12.968,0 23.48065,10.51265 23.48065,23.48065c0,12.968 -10.51265,23.48065 -23.48065,23.48065c-12.968,0 -23.48065,-10.51265 -23.48065,-23.48065z" fill="url(#color-5)" stroke="#000000" stroke-width="0" stroke-linecap="butt"/><path d="M196.45557,137c0,-9.12808 7.39976,-16.52784 16.52783,-16.52784c9.12808,0 16.52784,7.39977 16.52784,16.52784c0,9.12808 -7.39977,16.52784 -16.52784,16.52784c-9.12808,0 -16.52783,-7.39977 -16.52783,-16.52784z" fill="#000000" stroke="none" stroke-width="0" stroke-linecap="butt"/><path d="M267.12926,160.75627c-12.968,0 -23.48065,-10.51265 -23.48065,-23.48065c0,-12.968 10.51265,-23.48065 23.48065,-23.48065c12.968,0 23.48065,10.51265 23.48065,23.48065c0,12.968 -10.51265,23.48065 -23.48065,23.48065z" data-paper-data="{&quot;index&quot;:null}" fill="url(#color-6)" stroke="#000000" stroke-width="0" stroke-linecap="butt"/><path d="M267.01671,153.52784c-9.12807,0 -16.52783,-7.39977 -16.52783,-16.52784c0,-9.12808 7.39977,-16.52784 16.52783,-16.52784c9.12807,0 16.52783,7.39977 16.52783,16.52784c0,9.12808 -7.39977,16.52784 -16.52783,16.52784z" data-paper-data="{&quot;index&quot;:null}" fill="#000000" stroke="none" stroke-width="0" stroke-linecap="butt"/><path d="M202.02787,108.46716c0,0 6.70895,-5.16922 11.79722,-6.36355c5.08827,-1.19433 12.33413,0.69937 12.33413,0.69937c0,0 -8.03812,-0.06028 -11.96762,0.86207c-4.10648,0.96388 -12.16372,4.80211 -12.16372,4.80211z" fill="#000000" stroke="none" stroke-width="0" stroke-linecap="butt"/><path d="M265.96236,103.66506c-3.9295,-0.92235 -11.96762,-0.86207 -11.96762,-0.86207c0,0 7.24586,-1.8937 12.33413,-0.69937c5.08826,1.19433 11.79721,6.36355 11.79721,6.36355c0,0 -8.05724,-3.83822 -12.16372,-4.80211z" data-paper-data="{&quot;index&quot;:null}" fill="#000000" stroke="none" stroke-width="0" stroke-linecap="butt"/><path d="M237.05394,78.12004c0,0 13.33113,-8.10062 13.58333,1.21301c0.22781,8.41273 -5.03385,4.90057 -6.76135,9.55697c-1.45075,3.91042 5.65281,2.16719 6.42377,8.67609c1.36163,11.49568 -9.74575,9.22926 -9.74575,9.22926" fill="url(#color-7)" stroke="#000000" stroke-width="0" stroke-linecap="round"/><g stroke="#000000" stroke-width="0" stroke-linecap="butt"><path d="M303.25617,121.82812c0,0 2.88382,5.15595 6.03596,-7.36507c1.70295,-6.76451 3.30974,11.84405 3.30974,11.84405l-7.8457,15.52102z" data-paper-data="{&quot;index&quot;:null}" fill="url(#color-8)"/><path d="M292.50617,63.82812c7.27382,-4.24586 12.75,3.65532 20.75,23c6.43737,15.56611 6.6528,36.42661 -1.75,37c-14.65462,1 -6.57991,-8.67111 -14.25,-32.5c-5.23286,-16.25707 -14.17234,-22 -4.75,-27.5z" data-paper-data="{&quot;index&quot;:null}" fill="url(#color-9)"/></g><g data-paper-data="{&quot;index&quot;:null}" stroke="#000000" stroke-width="0" stroke-linecap="butt"><path d="M175.583,140.82812l-7.84569,-15.52102c0,0 1.60679,-18.60855 3.30973,-11.84405c3.15214,12.52102 6.03596,7.36507 6.03596,7.36507z" data-paper-data="{&quot;index&quot;:null}" fill="url(#color-10)"/><path d="M183.083,90.32812c-7.67009,23.82889 0.40462,33.5 -14.25,32.5c-8.4028,-0.57339 -8.18737,-21.43389 -1.75,-37c8,-19.34468 13.47618,-27.24586 20.75,-23c9.42234,5.5 0.48286,11.24293 -4.75,27.5z" data-paper-data="{&quot;index&quot;:null}" fill="url(#color-11)"/></g><path d="M240.07157,188.54984c-5.01054,-0.0941 -15.28584,-2.85044 -15.28584,-2.85044c0,0 1.07469,-14.5669 14.66029,-14.24683c14.01401,0.33016 15.76828,14.81826 15.76828,14.81826c0,0 -10.0132,2.37534 -15.14273,2.27901z" fill="#000000" stroke="#000000" stroke-width="2" stroke-linecap="round"/><path d="M227.79041,185.78696l0.72727,-1.90909c0,0 7.62133,1.82265 11.32876,1.92772c3.77616,0.10702 11.12578,-1.29136 11.12578,-1.29136l0.54545,2c0,0 -7.79291,1.76821 -11.67513,1.64922c-4.02193,-0.12328 -12.05215,-2.37649 -12.05215,-2.37649z" fill="#808080" stroke="none" stroke-width="0" stroke-linecap="butt"/><path d="M192.34958,96.56845c-10.50417,10.96962 -17.29138,25.40159 -11.52246,28.37332c5.76892,2.97173 10.21129,-9.33906 20.81644,-20.21109c10.72657,-10.9965 26.61226,-19.47527 20.84334,-22.447c-5.76892,-2.97173 -19.18178,2.84377 -30.13732,14.28477z" fill="url(#color-12)" stroke="#000000" stroke-width="0" stroke-linecap="butt"/><path d="M286.07925,95.56846c10.50417,10.96963 17.29138,25.40159 11.52246,28.37332c-5.76892,2.97173 -10.2113,-9.33906 -20.81644,-20.21109c-10.72657,-10.9965 -26.61226,-19.47527 -20.84334,-22.447c5.76892,-2.97173 19.18178,2.84377 30.13732,14.28477z" data-paper-data="{&quot;index&quot;:null}" fill="url(#color-13)" stroke="#000000" stroke-width="0" stroke-linecap="butt"/></g></g></svg>