<svg version="1.1" xmlns="http://www.w3.org/2000/svg" xmlns:xlink="http://www.w3.org/1999/xlink" width="34.17311" height="34.17311" viewBox="0,0,34.17311,34.17311"><g transform="translate(-222.91345,-162.91344)"><g data-paper-data="{&quot;isPaintingLayer&quot;:true}" stroke-miterlimit="10" stroke-dasharray="" stroke-dashoffset="0" style="mix-blend-mode: normal"><path d="M229.98312,162.91345h20.03378c3.9166,0 7.06966,3.15307 7.06966,7.06966v20.03379c0,3.91659 -3.15306,7.06966 -7.06966,7.06966h-20.03378c-3.91659,0 -7.06967,-3.15307 -7.06967,-7.06966v-20.03379c0,-3.91659 3.15308,-7.06966 7.06967,-7.06966z" fill-opacity="0.09677" fill="#191919" fill-rule="evenodd" stroke="none" stroke-width="4.43922" stroke-linecap="round" stroke-linejoin="round"/><g fill="#000000" fill-rule="nonzero" stroke="#ffffff" stroke-width="0.5" stroke-linecap="butt" stroke-linejoin="miter"><path d="M228.24218,175.15683c1.73512,-0.81068 4.12362,-0.27847 4.64048,0.8088c1.32861,2.79488 -1.24828,6.89849 -1.24828,6.89849c0,0 -4.56546,-0.58114 -5.89407,-3.37602c-0.54973,-1.15642 0.6346,-3.45885 2.50187,-4.33127z" data-paper-data="{&quot;index&quot;:null}"/><path d="M253.53105,179.32243c-1.32861,2.79488 -5.89407,3.37602 -5.89407,3.37602c0,0 -2.57688,-4.10361 -1.24827,-6.89849c0.51685,-1.08726 2.90536,-1.61948 4.64048,-0.8088c1.86726,0.87242 3.05159,3.17485 2.50187,4.33127z" data-paper-data="{&quot;index&quot;:null}"/></g><path d="M228.23776,188.09204c0,-6.14664 5.30831,-11.12947 11.85645,-11.12947c6.54814,0 11.85645,4.98283 11.85645,11.12947" fill="#000000" fill-rule="nonzero" stroke="#ffffff" stroke-width="0.5" stroke-linecap="butt" stroke-linejoin="miter"/></g></g></svg>