<svg version="1.1" xmlns="http://www.w3.org/2000/svg" xmlns:xlink="http://www.w3.org/1999/xlink" width="215.20012" height="267.22501" viewBox="0,0,215.20012,267.22501"><defs><linearGradient x1="285.23164" y1="111.8016" x2="357.20994" y2="111.8016" gradientUnits="userSpaceOnUse" id="color-1"><stop offset="0" stop-color="#000000"/><stop offset="1" stop-color="#3d2900"/></linearGradient><linearGradient x1="142.79875" y1="129.27093" x2="213.18047" y2="129.27093" gradientUnits="userSpaceOnUse" id="color-2"><stop offset="0" stop-color="#3d2900"/><stop offset="1" stop-color="#000000"/></linearGradient><linearGradient x1="312.12165" y1="147.3508" x2="312.12165" y2="194.69711" gradientUnits="userSpaceOnUse" id="color-3"><stop offset="0" stop-color="#605540"/><stop offset="1" stop-color="#938567"/></linearGradient><linearGradient x1="340.33104" y1="174.07399" x2="340.33104" y2="209.40969" gradientUnits="userSpaceOnUse" id="color-4"><stop offset="0" stop-color="#0e0900"/><stop offset="1" stop-color="#885b00"/></linearGradient><linearGradient x1="193.30454" y1="139.99737" x2="193.30454" y2="187.1759" gradientUnits="userSpaceOnUse" id="color-5"><stop offset="0" stop-color="#605540"/><stop offset="1" stop-color="#938567"/></linearGradient><linearGradient x1="165.02864" y1="166.5458" x2="165.02864" y2="201.88157" gradientUnits="userSpaceOnUse" id="color-6"><stop offset="0" stop-color="#0e0900"/><stop offset="1" stop-color="#885b00"/></linearGradient><linearGradient x1="240.00007" y1="175.50006" x2="240.00007" y2="307.50005" gradientUnits="userSpaceOnUse" id="color-7"><stop offset="0" stop-color="#0e0900"/><stop offset="1" stop-color="#885b00"/></linearGradient><linearGradient x1="250.00413" y1="78.1425" x2="250.00413" y2="198.73918" gradientUnits="userSpaceOnUse" id="color-8"><stop offset="0" stop-color="#0e0900"/><stop offset="1" stop-color="#885b00"/></linearGradient></defs><g transform="translate(-142.79876,-47.90897)"><g data-paper-data="{&quot;isPaintingLayer&quot;:true}" fill-rule="nonzero" stroke-linejoin="miter" stroke-miterlimit="10" stroke-dasharray="" stroke-dashoffset="0" style="mix-blend-mode: normal"><path d="M188.3361,315.13398v-267.22501h123.18203v267.22501z" fill-opacity="0.01" fill="#000000" stroke="none" stroke-width="0" stroke-linecap="butt"/><path d="M302.86963,125.66486c-8.07114,1.61251 -15.85086,-3.27076 -17.3765,-10.90706c-1.52564,-7.63631 3.78055,-15.13394 11.8517,-16.74646c8.07114,-1.61251 59.8651,2.4184 59.8651,2.4184c0,0 -46.26916,23.62261 -54.34029,25.23511z" data-paper-data="{&quot;index&quot;:null}" fill="url(#color-1)" stroke="#000000" stroke-width="0" stroke-linecap="butt"/><path d="M194.11157,144.37183c-7.85103,-2.47076 -51.31281,-30.93015 -51.31281,-30.93015c0,0 51.92716,1.55998 59.7782,4.03076c7.85104,2.47077 12.32053,10.49535 9.98288,17.92341c-2.33765,7.42807 -10.59722,11.44675 -18.44826,8.97599z" fill="url(#color-2)" stroke="#000000" stroke-width="0" stroke-linecap="butt"/><g data-paper-data="{&quot;index&quot;:null}" stroke="#000000" stroke-width="0" stroke-linecap="butt"><path d="M286.0827,147.3508l56.41876,41.43578l-4.34087,5.91053l-56.41876,-41.43578z" fill="url(#color-3)"/><path d="M329.87343,205.98088c-7.86399,-5.77558 -9.55699,-16.83264 -3.78142,-24.69663c5.77558,-7.86399 16.83263,-9.55699 24.69663,-3.78142c7.86399,5.77558 9.55698,16.83264 3.78142,24.69663c-5.77557,7.86398 -16.83263,9.55698 -24.69662,3.78142z" fill="url(#color-4)"/></g><g stroke="#000000" stroke-width="0" stroke-linecap="butt"><path d="M223.74134,145.92181l-56.55175,41.25408l-4.32184,-5.92446l56.55176,-41.25408z" fill="url(#color-5)"/><path d="M175.44036,198.48629c-7.88252,5.75024 -18.9341,4.02168 -24.68433,-3.86083c-5.75024,-7.88252 -4.02169,-18.93409 3.86085,-24.68434c7.88252,-5.75024 18.93409,-4.02169 24.68434,3.86084c5.75024,7.88252 4.02169,18.93407 -3.86084,24.68433z" fill="url(#color-6)"/></g><path d="M206.7501,307.50005l15.14285,-131.8421l37.78325,-0.15789l13.57389,132z" fill="url(#color-7)" stroke="#000000" stroke-width="0" stroke-linecap="butt"/><path d="M185.76711,138.44084c0,-33.30185 28.7599,-60.29833 64.23702,-60.29833c35.47712,0 64.23702,26.99649 64.23702,60.29833c0,33.30185 -28.7599,60.29833 -64.23702,60.29833c-35.47712,0 -64.23702,-26.99649 -64.23702,-60.29833z" fill="url(#color-8)" stroke="#000000" stroke-width="0" stroke-linecap="butt"/><path d="M199.3173,138.79713c0,-12.968 10.51265,-23.48065 23.48065,-23.48065c12.968,0 23.48065,10.51265 23.48065,23.48065c0,12.968 -10.51265,23.48065 -23.48065,23.48065c-12.968,0 -23.48065,-10.51265 -23.48065,-23.48065z" fill="#b1b1b1" stroke="#000000" stroke-width="0" stroke-linecap="butt"/><path d="M277.05636,162.27774c-12.968,0 -23.48065,-10.51265 -23.48065,-23.48065c0,-12.968 10.51265,-23.48065 23.48065,-23.48065c12.968,0 23.48065,10.51265 23.48065,23.48065c0,12.968 -10.51265,23.48065 -23.48065,23.48065z" data-paper-data="{&quot;index&quot;:null}" fill="#b1b1b1" stroke="#000000" stroke-width="0" stroke-linecap="butt"/><path d="M270.99949,155.18944c-9.12807,0 -16.52783,-7.39977 -16.52783,-16.52784c0,-9.12808 7.39977,-16.52784 16.52783,-16.52784c9.12807,0 16.52783,7.39977 16.52783,16.52784c0,9.12808 -7.39977,16.52784 -16.52783,16.52784z" data-paper-data="{&quot;index&quot;:null}" fill="#000000" stroke="none" stroke-width="0" stroke-linecap="butt"/><path d="M208.49226,107.51368c0,0 7.2153,-4.43512 12.40095,-5.0878c5.18565,-0.65268 12.19222,1.99242 12.19222,1.99242c0,0 -7.98722,-0.90515 -11.99192,-0.4011c-4.18507,0.52674 -12.60123,3.49648 -12.60123,3.49648z" fill="#000000" stroke="none" stroke-width="0" stroke-linecap="butt"/><path d="M283.87127,108.03207c3.9295,0.92235 11.96762,0.86207 11.96762,0.86207c0,0 -7.24586,1.8937 -12.33413,0.69937c-5.08826,-1.19433 -11.79721,-6.36355 -11.79721,-6.36355c0,0 8.05724,3.83822 12.16372,4.80211z" data-paper-data="{&quot;index&quot;:null}" fill="#000000" stroke="none" stroke-width="0" stroke-linecap="butt"/><path d="M241.56208,139.03427c0,9.84884 -7.7645,17.83289 -17.34251,17.83289c-9.578,0 -17.34251,-7.98406 -17.34251,-17.83289c0,-9.84884 7.7645,-17.83289 17.34251,-17.83289c9.578,0 17.34251,7.98406 17.34251,17.83289z" fill="#b1b1b1" stroke="#000000" stroke-width="5" stroke-linecap="butt"/><path d="M204.19559,157.74199l4.79477,4.26164l-7.50032,-6.49203" fill="none" stroke="#000000" stroke-width="2" stroke-linecap="round"/><path d="M268.80548,170.91068c9.18938,-0.67893 19.21179,7.49108 19.21179,7.49108c0,0 -15.46298,0.49176 -23.01302,2.24208c-7.41259,1.71846 -22.95261,6.943 -22.95261,6.943c0,0 10.73194,-15.49243 26.75385,-16.67616z" data-paper-data="{&quot;index&quot;:null}" fill="#b4b4b4" stroke="#000000" stroke-width="2" stroke-linecap="round"/></g></g></svg>