<svg version="1.1" xmlns="http://www.w3.org/2000/svg" xmlns:xlink="http://www.w3.org/1999/xlink" width="34.67311" height="34.67311" viewBox="0,0,34.67311,34.67311"><defs><linearGradient x1="240.00005" y1="162.9135" x2="240.00005" y2="197.08661" gradientUnits="userSpaceOnUse" id="color-1"><stop offset="0" stop-color="#000000"/><stop offset="1" stop-color="#242e30"/></linearGradient><linearGradient x1="239.49181" y1="177.05072" x2="239.49181" y2="187.27443" gradientUnits="userSpaceOnUse" id="color-2"><stop offset="0" stop-color="#242e30"/><stop offset="1" stop-color="#648b95"/></linearGradient><linearGradient x1="240" y1="176.33021" x2="240" y2="179.96099" gradientUnits="userSpaceOnUse" id="color-3"><stop offset="0" stop-color="#648b95"/><stop offset="1" stop-color="#242e30"/></linearGradient></defs><g transform="translate(-222.66349,-162.6635)"><g data-paper-data="{&quot;isPaintingLayer&quot;:true}" stroke-miterlimit="10" stroke-dasharray="" stroke-dashoffset="0" style="mix-blend-mode: normal"><path d="M229.98315,162.9135h20.03379c3.9166,0 7.06966,3.15307 7.06966,7.06966v20.03379c0,3.91659 -3.15306,7.06966 -7.06966,7.06966h-20.03379c-3.91659,0 -7.06966,-3.15307 -7.06966,-7.06966v-20.03379c0,-3.91659 3.15307,-7.06966 7.06966,-7.06966z" fill="url(#color-1)" fill-rule="evenodd" stroke="#4b676e" stroke-width="0.5" stroke-linecap="round" stroke-linejoin="round"/><path d="M228.60028,187.27443c0,-5.6464 4.8763,-10.22371 10.89152,-10.22371c6.01522,0 10.89153,4.57732 10.89153,10.22371" fill="url(#color-2)" fill-rule="nonzero" stroke="#000000" stroke-width="0" stroke-linecap="butt" stroke-linejoin="miter"/><path d="M235.90074,179.37538l5.1924,-3.04517l-0.50753,2.14723l3.51365,-0.93697l-2.26435,2.42052" data-paper-data="{&quot;index&quot;:null}" fill="url(#color-3)" fill-rule="nonzero" stroke="#000000" stroke-width="0" stroke-linecap="round" stroke-linejoin="miter"/></g></g></svg>