<svg version="1.1" xmlns="http://www.w3.org/2000/svg" xmlns:xlink="http://www.w3.org/1999/xlink" width="327.43697" height="364.16588" viewBox="0,0,327.43697,364.16588"><defs><linearGradient x1="338.64277" y1="102.05157" x2="325.16951" y2="147.03862" gradientUnits="userSpaceOnUse" id="color-1"><stop offset="0" stop-color="#999999"/><stop offset="1" stop-color="#b58989"/></linearGradient><linearGradient x1="295.1899" y1="155.37288" x2="257.3189" y2="281.82361" gradientUnits="userSpaceOnUse" id="color-2"><stop offset="0" stop-color="#392500"/><stop offset="1" stop-color="#6a4800"/></linearGradient><linearGradient x1="291.31313" y1="170.71692" x2="282.22792" y2="201.05231" gradientUnits="userSpaceOnUse" id="color-3"><stop offset="0" stop-color="#1a0000"/><stop offset="1" stop-color="#800000"/></linearGradient><linearGradient x1="323.91379" y1="48.70508" x2="319.61908" y2="63.04505" gradientUnits="userSpaceOnUse" id="color-4"><stop offset="0" stop-color="#2c2300"/><stop offset="1" stop-color="#6b5400"/></linearGradient><linearGradient x1="322.42137" y1="56.72239" x2="315.71025" y2="79.13071" gradientUnits="userSpaceOnUse" id="color-5"><stop offset="0" stop-color="#634e00"/><stop offset="1" stop-color="#070600"/></linearGradient><linearGradient x1="319.38618" y1="70.90505" x2="312.67507" y2="93.31337" gradientUnits="userSpaceOnUse" id="color-6"><stop offset="0" stop-color="#2c2300"/><stop offset="1" stop-color="#6b5400"/></linearGradient><linearGradient x1="317.06292" y1="83.68908" x2="308.93396" y2="110.83157" gradientUnits="userSpaceOnUse" id="color-7"><stop offset="0" stop-color="#634e00"/><stop offset="1" stop-color="#070600"/></linearGradient><linearGradient x1="290.40573" y1="162.42142" x2="286.11102" y2="176.76139" gradientUnits="userSpaceOnUse" id="color-8"><stop offset="0" stop-color="#2c2300"/><stop offset="1" stop-color="#6b5400"/></linearGradient><linearGradient x1="295.30428" y1="145.30774" x2="288.59316" y2="167.71608" gradientUnits="userSpaceOnUse" id="color-9"><stop offset="0" stop-color="#000000"/><stop offset="1" stop-color="#493900"/></linearGradient><linearGradient x1="300.56468" y1="131.79152" x2="293.85356" y2="154.19985" gradientUnits="userSpaceOnUse" id="color-10"><stop offset="0" stop-color="#2c2300"/><stop offset="1" stop-color="#6b5400"/></linearGradient><linearGradient x1="307.06887" y1="115.10085" x2="298.93991" y2="142.24334" gradientUnits="userSpaceOnUse" id="color-11"><stop offset="0" stop-color="#000000"/><stop offset="1" stop-color="#493900"/></linearGradient><linearGradient x1="313.36941" y1="98.70775" x2="305.24045" y2="125.85023" gradientUnits="userSpaceOnUse" id="color-12"><stop offset="0" stop-color="#2c2300"/><stop offset="1" stop-color="#6b5400"/></linearGradient><linearGradient x1="313.36941" y1="98.70775" x2="305.24045" y2="125.85023" gradientUnits="userSpaceOnUse" id="color-13"><stop offset="0" stop-color="#2c2300"/><stop offset="1" stop-color="#6b5400"/></linearGradient><linearGradient x1="329.37533" y1="133.6615" x2="320.76939" y2="162.39664" gradientUnits="userSpaceOnUse" id="color-14"><stop offset="0" stop-color="#1a0000"/><stop offset="1" stop-color="#800000"/></linearGradient></defs><g transform="translate(-76.28151,2.08294)"><g data-paper-data="{&quot;isPaintingLayer&quot;:true}" fill-rule="nonzero" stroke-linejoin="miter" stroke-miterlimit="10" stroke-dasharray="" stroke-dashoffset="0" style="mix-blend-mode: normal"><path d="M325.16951,147.03862c-12.42282,-3.72054 -19.47743,-16.80733 -15.75689,-29.23016c3.72054,-12.42283 16.80733,-19.47743 29.23015,-15.75689c12.42282,3.72054 19.47744,16.80733 15.75689,29.23016c-3.72054,12.42283 -16.80733,19.47743 -29.23016,15.75689z" data-paper-data="{&quot;index&quot;:null}" fill="url(#color-1)" stroke="#000000" stroke-width="0" stroke-linecap="butt"/><path d="M331.39246,137.45035c-8.74433,-2.61885 -13.70999,-11.83054 -11.09114,-20.57487c2.61886,-8.74433 11.83054,-13.71001 20.57486,-11.09115c8.74433,2.61885 13.70999,11.83055 11.09114,20.57487c-2.61886,8.74434 -11.83055,13.71001 -20.57486,11.09115z" data-paper-data="{&quot;index&quot;:null}" fill="#000000" stroke="none" stroke-width="0" stroke-linecap="butt"/><path d="M225.46674,272.28413l52.33194,-121.95497l36.24014,10.68882l-24.86775,130.3451z" data-paper-data="{&quot;index&quot;:null}" fill="url(#color-2)" stroke="#000000" stroke-width="0" stroke-linecap="butt"/><path d="M264.92264,199.87109c-2.64431,-0.49744 9.54636,-34.19886 9.54636,-34.19886l33.68827,10.08937c0,0 -11.63273,40.90829 -13.91541,40.07327c-2.02325,-0.7401 5.34967,-24.62114 3.25946,-25.18203c-2.7051,-0.72587 -4.03324,9.02017 -5.6631,8.18922c-2.56002,-1.30517 -2.62073,6.92958 -4.91835,6.43899c-2.43165,-0.51922 6.97472,-22.6993 5.47039,-23.47951c-2.42075,-1.25553 -6.31101,15.01537 -8.10816,14.17846c-1.86894,-0.87033 -0.04781,-10.7305 -1.36109,-12.22733c-2.11054,-2.40553 -9.47794,28.91534 -11.18706,27.83909c-1.57892,-0.99427 5.4772,-22.60035 3.80962,-23.06816c-2.1737,-0.6098 2.38989,-10.3825 1.68037,-10.98034c-1.22016,-1.02811 -9.61198,22.83375 -12.3013,22.32784z" data-paper-data="{&quot;index&quot;:null}" fill="url(#color-3)" stroke="none" stroke-width="0" stroke-linecap="butt"/><path d="M282.89033,152.89642l24.05399,7.20398" data-paper-data="{&quot;index&quot;:null}" fill="none" stroke="#000000" stroke-width="2" stroke-linecap="round"/><g stroke="#000000" stroke-width="0" stroke-linecap="butt"><path d="M319.61908,63.04505c-17.36524,-5.20075 -30.30661,-13.20963 -28.90538,-17.8883c1.40123,-4.67867 16.02812,-1.59454 33.39335,3.60621c17.36524,5.20075 30.89294,10.5487 29.49171,15.22738c-1.40123,4.67867 -16.61445,4.25547 -33.97968,-0.94528z" data-paper-data="{&quot;index&quot;:null}" fill="url(#color-4)"/><g><path d="M315.71025,79.13071c-27.13574,-8.12694 -47.35856,-20.64198 -45.16893,-27.9531c2.18962,-7.31112 25.04629,-2.49171 52.18205,5.63523c27.13575,8.12694 48.27478,16.48391 46.08516,23.79502c-2.18962,7.31113 -25.96253,6.64979 -53.09828,-1.47716z" data-paper-data="{&quot;index&quot;:null}" fill="url(#color-5)"/><path d="M312.67506,93.31337c-29.95133,-8.97019 -52.45661,-22.1688 -50.26698,-29.47993c2.18962,-7.31112 27.36011,-1.79875 57.31145,7.17144c29.95133,8.97019 53.34151,18.00135 51.15188,25.31248c-2.18962,7.31113 -28.24501,5.96621 -58.19635,-3.00398z" data-paper-data="{&quot;index&quot;:null}" fill="url(#color-6)"/><path d="M308.93396,110.83157c-32.86867,-9.84391 -57.36391,-25.00296 -54.71169,-33.85869c2.65222,-8.85574 30.33778,-3.01815 63.20646,6.82576c32.86867,9.84391 58.47371,19.96644 55.82149,28.82217c-1.30059,4.34265 -8.88778,6.36313 -20.1591,6.13385c-2.68296,-8.9728 -14.29528,-18.00658 -23.13945,-17.50688c-1.78388,0.10079 -4.07711,0.2073 -5.75344,0.95114c-1.21202,0.53781 -3.60061,2.73286 -4.87871,2.79842c-2.91902,0.14974 -6.01517,2.35735 -7.5743,4.74908c-0.24561,0.37677 -0.49336,0.96466 -0.73043,1.6979c-0.69164,-0.20019 -1.3853,-0.40444 -2.0808,-0.61274z" data-paper-data="{&quot;index&quot;:null}" fill="url(#color-7)"/></g><path d="M319.31106,180.30969c-1.40123,4.67867 -15.6416,1.71031 -33.00683,-3.49044c-17.36524,-5.20075 -31.27945,-10.66447 -29.87823,-15.34314c1.40123,-4.67867 16.61446,-4.25546 33.97968,0.94528c17.36524,5.20075 30.30661,13.20962 28.90538,17.88829z" fill="url(#color-8)"/><path d="M340.47314,173.26081c-2.18962,7.31113 -24.4423,2.67262 -51.57805,-5.45432c-27.13574,-8.12694 -48.87878,-16.66481 -46.68916,-23.97593c2.18963,-7.31113 25.96253,-6.6498 53.09828,1.47715c27.13574,8.12694 47.35855,20.64198 45.16893,27.9531z" fill="url(#color-9)"/><path d="M350.83163,161.27143c-2.18962,7.31113 -26.69345,1.99842 -56.64478,-6.97176c-29.95133,-8.97018 -54.00818,-18.20102 -51.81856,-25.51215c2.18963,-7.31113 28.24501,-5.96621 58.19634,3.00398c3.52731,1.05641 6.95136,2.17146 10.24395,3.32862c2.13155,3.63032 6.41486,7.6464 8.86432,8.37313c1.94376,0.57669 4.01981,0.54231 6.01583,0.89831c1.9121,0.34104 4.70463,0.49498 7.6837,0.34054c11.80424,6.1776 18.71901,12.33291 17.45922,16.53933z" fill="url(#color-10)"/><path d="M361.7805,148.95953c-2.65222,8.85573 -29.60618,3.23725 -62.47484,-6.60666c-32.86867,-9.84391 -59.2053,-20.18554 -56.55308,-29.04127c2.65222,-8.85573 31.44757,-8.05468 64.31624,1.78923c0.97848,0.29305 1.94955,0.5908 2.91269,0.89296c-0.32533,2.02344 -0.52836,4.18537 -0.51307,5.99342c-0.33074,0.74108 -0.63817,1.53762 -0.92813,2.44573c-0.62951,1.97154 1.46,4.82727 1.07196,6.31216c-0.95695,3.66183 6.4949,11.69025 10.06062,12.74815c1.94376,0.57669 4.01981,0.54231 6.01583,0.89831c5.67424,1.01206 19.10183,0.37635 22.14901,-5.07572c0.66042,-1.18163 1.20263,-2.42956 1.63284,-3.72348c0.36948,-0.44996 0.71717,-0.91869 1.04217,-1.40394c8.13364,5.49548 12.46455,10.77501 11.26776,14.77107z" fill="url(#color-11)"/><path d="M242.87807,95.06912c2.65222,-8.85574 34.21225,-7.22667 70.49134,3.63863c3.71542,1.11274 7.33623,2.27919 10.84001,3.48621c-0.00374,0.00164 -0.00747,0.00331 -0.01121,0.00496c-1.21202,0.53781 -3.6006,2.73286 -4.87871,2.79842c-2.91902,0.14974 -1.7076,3.64743 -3.26672,6.03916c-1.13353,1.73886 -6.62039,6.68474 -6.58431,10.95073c-0.33074,0.74108 -0.63816,1.53762 -0.92812,2.44573c-0.23377,0.73215 -0.09257,1.58623 0.15747,2.44676c-1.01232,-0.29917 -2.03033,-0.60211 -3.0536,-0.90857h-0.00001c-36.27908,-10.8653 -65.41836,-22.04629 -62.76614,-30.90202z" fill="url(#color-12)"/><path d="M374.25618,134.41583c-1.45189,4.84786 -11.0036,5.11343 -25.30354,2.57837c0.18786,-0.46044 0.3604,-0.92805 0.51792,-1.40182c3.28224,-3.99723 4.84443,-9.47583 4.06561,-14.84432c-0.38435,-2.64937 -1.6348,-5.36709 -3.44392,-7.901c16.12199,7.98688 25.79425,16.12514 24.16392,21.56879z" fill="url(#color-13)"/></g><path d="M292.41131,110.97478c-2.81307,9.3928 -11.41348,15.1144 -19.20956,12.77953c-7.79606,-2.33486 -11.83559,-11.84202 -9.02252,-21.23482c2.81307,-9.3928 11.41348,-15.11439 19.20954,-12.77953c7.79606,2.33486 11.8356,11.84202 9.02254,21.23481z" fill="#000000" stroke="#000000" stroke-width="0" stroke-linecap="butt"/><path d="M319.18501,210.50812l-19.6429,-10.77195l22.12238,0.10675z" data-paper-data="{&quot;index&quot;:null}" fill="#000000" stroke="none" stroke-width="1" stroke-linecap="butt"/><path d="M228.08351,221.10681l22.09986,-1.0036l-19.19,11.5595z" data-paper-data="{&quot;index&quot;:null}" fill="#000000" stroke="none" stroke-width="1" stroke-linecap="butt"/><path d="M308.38737,130.33343c0,0 11.73562,12.14202 18.808,13.73279c5.957,1.33989 20.85724,-4.81103 20.85724,-4.81103c0,0 0.24457,17.93175 -10.16006,20.62128c-0.41179,0.10644 3.03145,-9.81039 3.03145,-9.81039c0,0 -3.7058,7.49758 -4.61633,7.17742c-1.20934,-0.42523 0.15085,-6.50695 -0.4878,-6.82934c-0.87779,-0.4431 -3.21008,6.8385 -4.46704,6.95709c-1.33808,0.12624 -0.7312,-4.96841 -2.02838,-5.00645c-0.75196,-0.02205 -4.54987,8.5767 -5.32657,8.52564c-0.33168,-0.02181 0.27089,-4.46798 -0.71654,-5.30521c-0.57749,-0.48963 -2.89499,2.93858 -3.09416,2.10304c-0.53641,-2.2503 1.1341,-5.85998 0.19283,-6.37255c-1.38322,-0.75324 -3.95132,6.13064 -5.09253,5.00053c-2.4293,-2.40566 -3.4725,-5.73588 -3.4725,-5.73588c0,0 -3.98089,7.78838 -6.66854,7.1373c0,0 1.67134,-5.76918 2.21703,-10.37992c0.5344,-4.51534 1.02389,-17.00431 1.02389,-17.00431z" fill="url(#color-14)" stroke="#000000" stroke-width="0" stroke-linecap="butt"/><path d="M76.28152,362.08294v-364.16588h327.43697v364.16588z" fill-opacity="0.01" fill="#000000" stroke="none" stroke-width="0" stroke-linecap="butt"/></g></g></svg>