<svg version="1.1" xmlns="http://www.w3.org/2000/svg" xmlns:xlink="http://www.w3.org/1999/xlink" width="34.67311" height="34.67311" viewBox="0,0,34.67311,34.67311"><defs><linearGradient x1="239.99999" y1="162.91345" x2="239.99999" y2="197.08657" gradientUnits="userSpaceOnUse" id="color-1"><stop offset="0" stop-color="#000000"/><stop offset="1" stop-color="#3c3800"/></linearGradient><linearGradient x1="-591.19935" y1="-7.91138" x2="-591.19935" y2="106.42741" gradientUnits="userSpaceOnUse" id="color-2"><stop offset="0" stop-color="#1a1a1a"/><stop offset="1" stop-color="#808080"/></linearGradient><linearGradient x1="239.99998" y1="175.23322" x2="239.99998" y2="184.76675" gradientUnits="userSpaceOnUse" id="color-3"><stop offset="0" stop-color="#796100"/><stop offset="1" stop-color="#2e2500"/></linearGradient></defs><g transform="translate(-222.66344,-162.66344)"><g data-paper-data="{&quot;isPaintingLayer&quot;:true}" stroke-miterlimit="10" stroke-dasharray="" stroke-dashoffset="0" style="mix-blend-mode: normal"><path d="M229.9831,162.91345h20.03379c3.9166,0 7.06966,3.15307 7.06966,7.06966v20.03379c0,3.91659 -3.15306,7.06966 -7.06966,7.06966h-20.03379c-3.91659,0 -7.06966,-3.15307 -7.06966,-7.06966v-20.03379c0,-3.91659 3.15307,-7.06966 7.06966,-7.06966z" fill="url(#color-1)" fill-rule="evenodd" stroke="#b18d00" stroke-width="0.5" stroke-linecap="round" stroke-linejoin="round"/><path d="" fill="url(#color-2)" fill-rule="nonzero" stroke="#000000" stroke-width="0" stroke-linecap="butt" stroke-linejoin="miter"/><g fill-rule="nonzero" stroke-linejoin="miter"><path d="M242.88736,179.97791h-6.29076" fill="none" stroke="#000000" stroke-width="2" stroke-linecap="round"/><path d="M253.8726,180.95481c0,2.18216 -9.04981,3.81192 -14.14612,3.81192c-5.09631,0 -13.59913,-1.60981 -13.59913,-3.79197c0,-2.18216 9.15928,-5.74155 14.2556,-5.74155c5.09631,0 13.48965,3.53942 13.48965,5.72159z" fill="url(#color-3)" stroke="#000000" stroke-width="0" stroke-linecap="butt"/><path d="M236.46817,179.3647c0,0.72785 -0.30058,1.31789 -0.67138,1.31789c-0.37079,0 -0.67138,-0.59004 -0.67138,-1.31789c0,-0.72785 0.30058,-1.31789 0.67138,-1.31789c0.37079,0 0.67138,0.59004 0.67138,1.31789z" fill="#000000" stroke="none" stroke-width="0" stroke-linecap="butt"/><path d="M244.96183,179.21492c0,0.72785 -0.30058,1.31789 -0.67138,1.31789c-0.37079,0 -0.67138,-0.59004 -0.67138,-1.31789c0,-0.72785 0.30058,-1.31789 0.67138,-1.31789c0.37079,0 0.67138,0.59004 0.67138,1.31789z" fill="#000000" stroke="none" stroke-width="0" stroke-linecap="butt"/></g></g></g></svg>