<svg version="1.1" xmlns="http://www.w3.org/2000/svg" xmlns:xlink="http://www.w3.org/1999/xlink" width="215.48508" height="292.2932" viewBox="0,0,215.48508,292.2932"><defs><linearGradient x1="240.00007" y1="175.50005" x2="240.00007" y2="307.50005" gradientUnits="userSpaceOnUse" id="color-1"><stop offset="0" stop-color="#2a1d19"/><stop offset="1" stop-color="#825b4e"/></linearGradient><linearGradient x1="236.3974" y1="80.59059" x2="236.3974" y2="223.36342" gradientUnits="userSpaceOnUse" id="color-2"><stop offset="0" stop-color="#2a1d19"/><stop offset="1" stop-color="#825b4e"/></linearGradient><radialGradient cx="152.01259" cy="221.74164" r="107.74254" gradientUnits="userSpaceOnUse" id="color-3"><stop offset="0" stop-color="#2a1d19"/><stop offset="1" stop-color="#825b4e"/></radialGradient><radialGradient cx="240.14774" cy="131.19872" r="101.35785" gradientUnits="userSpaceOnUse" id="color-4"><stop offset="0" stop-color="#150000"/><stop offset="1" stop-color="#850000"/></radialGradient><linearGradient x1="200.18182" y1="111.47325" x2="200.18182" y2="158.43454" gradientUnits="userSpaceOnUse" id="color-5"><stop offset="0" stop-color="#919191"/><stop offset="1" stop-color="#865959"/></linearGradient><linearGradient x1="264.98789" y1="100.10487" x2="264.98789" y2="147.06617" gradientUnits="userSpaceOnUse" id="color-6"><stop offset="0" stop-color="#919191"/><stop offset="1" stop-color="#865959"/></linearGradient><linearGradient x1="259.99127" y1="152.91933" x2="261.92949" y2="158.35907" gradientUnits="userSpaceOnUse" id="color-7"><stop offset="0" stop-color="#363636"/><stop offset="1" stop-color="#636363"/></linearGradient><linearGradient x1="257.63513" y1="153.16078" x2="259.95153" y2="159.66194" gradientUnits="userSpaceOnUse" id="color-8"><stop offset="0" stop-color="#363636"/><stop offset="1" stop-color="#636363"/></linearGradient><linearGradient x1="254.30907" y1="153.8973" x2="256.90911" y2="161.19452" gradientUnits="userSpaceOnUse" id="color-9"><stop offset="0" stop-color="#363636"/><stop offset="1" stop-color="#636363"/></linearGradient><linearGradient x1="249.6944" y1="154.79396" x2="252.76718" y2="163.4179" gradientUnits="userSpaceOnUse" id="color-10"><stop offset="0" stop-color="#363636"/><stop offset="1" stop-color="#636363"/></linearGradient><linearGradient x1="238.71126" y1="157.95976" x2="242.35132" y2="168.17582" gradientUnits="userSpaceOnUse" id="color-11"><stop offset="0" stop-color="#363636"/><stop offset="1" stop-color="#636363"/></linearGradient><linearGradient x1="244.41938" y1="156.07539" x2="247.87035" y2="165.76078" gradientUnits="userSpaceOnUse" id="color-12"><stop offset="0" stop-color="#363636"/><stop offset="1" stop-color="#636363"/></linearGradient><linearGradient x1="212.85225" y1="169.56582" x2="214.79047" y2="175.00556" gradientUnits="userSpaceOnUse" id="color-13"><stop offset="0" stop-color="#363636"/><stop offset="1" stop-color="#636363"/></linearGradient><linearGradient x1="214.83021" y1="168.26299" x2="217.14661" y2="174.76411" gradientUnits="userSpaceOnUse" id="color-14"><stop offset="0" stop-color="#363636"/><stop offset="1" stop-color="#636363"/></linearGradient><linearGradient x1="217.87263" y1="166.73038" x2="220.47267" y2="174.02758" gradientUnits="userSpaceOnUse" id="color-15"><stop offset="0" stop-color="#363636"/><stop offset="1" stop-color="#636363"/></linearGradient><linearGradient x1="222.01456" y1="164.50699" x2="225.08734" y2="173.13095" gradientUnits="userSpaceOnUse" id="color-16"><stop offset="0" stop-color="#363636"/><stop offset="1" stop-color="#636363"/></linearGradient><linearGradient x1="232.52497" y1="160.01445" x2="236.16503" y2="170.23051" gradientUnits="userSpaceOnUse" id="color-17"><stop offset="0" stop-color="#363636"/><stop offset="1" stop-color="#636363"/></linearGradient><linearGradient x1="226.91139" y1="162.16412" x2="230.36236" y2="171.84949" gradientUnits="userSpaceOnUse" id="color-18"><stop offset="0" stop-color="#363636"/><stop offset="1" stop-color="#636363"/></linearGradient><linearGradient x1="265.32701" y1="166.6179" x2="266.99874" y2="171.52485" gradientUnits="userSpaceOnUse" id="color-19"><stop offset="0" stop-color="#636363"/><stop offset="1" stop-color="#363636"/></linearGradient><linearGradient x1="263.60666" y1="167.97206" x2="265.60458" y2="173.83645" gradientUnits="userSpaceOnUse" id="color-20"><stop offset="0" stop-color="#636363"/><stop offset="1" stop-color="#363636"/></linearGradient><linearGradient x1="260.8872" y1="169.39945" x2="263.12976" y2="175.98192" gradientUnits="userSpaceOnUse" id="color-21"><stop offset="0" stop-color="#636363"/><stop offset="1" stop-color="#363636"/></linearGradient><linearGradient x1="257.00908" y1="170.9544" x2="259.65938" y2="178.73371" gradientUnits="userSpaceOnUse" id="color-22"><stop offset="0" stop-color="#636363"/><stop offset="1" stop-color="#363636"/></linearGradient><linearGradient x1="247.57992" y1="175.03502" x2="250.7195" y2="184.25049" gradientUnits="userSpaceOnUse" id="color-23"><stop offset="0" stop-color="#636363"/><stop offset="1" stop-color="#363636"/></linearGradient><linearGradient x1="252.564" y1="172.9363" x2="255.54049" y2="181.67303" gradientUnits="userSpaceOnUse" id="color-24"><stop offset="0" stop-color="#636363"/><stop offset="1" stop-color="#363636"/></linearGradient><linearGradient x1="222.66938" y1="181.15079" x2="224.34111" y2="186.05771" gradientUnits="userSpaceOnUse" id="color-25"><stop offset="0" stop-color="#636363"/><stop offset="1" stop-color="#363636"/></linearGradient><linearGradient x1="224.85861" y1="181.17297" x2="226.85653" y2="187.03738" gradientUnits="userSpaceOnUse" id="color-26"><stop offset="0" stop-color="#636363"/><stop offset="1" stop-color="#363636"/></linearGradient><linearGradient x1="227.88387" y1="180.64322" x2="230.12644" y2="187.22569" gradientUnits="userSpaceOnUse" id="color-27"><stop offset="0" stop-color="#636363"/><stop offset="1" stop-color="#363636"/></linearGradient><linearGradient x1="231.90472" y1="179.50712" x2="234.55501" y2="187.2864" gradientUnits="userSpaceOnUse" id="color-28"><stop offset="0" stop-color="#636363"/><stop offset="1" stop-color="#363636"/></linearGradient><linearGradient x1="241.86394" y1="176.98237" x2="245.00352" y2="186.19785" gradientUnits="userSpaceOnUse" id="color-29"><stop offset="0" stop-color="#636363"/><stop offset="1" stop-color="#363636"/></linearGradient><linearGradient x1="236.63522" y1="178.36302" x2="239.6117" y2="187.09973" gradientUnits="userSpaceOnUse" id="color-30"><stop offset="0" stop-color="#636363"/><stop offset="1" stop-color="#363636"/></linearGradient></defs><g transform="translate(-132.68906,-25.36207)"><g data-paper-data="{&quot;isPaintingLayer&quot;:true}" fill-rule="nonzero" stroke-width="0" stroke-linecap="butt" stroke-linejoin="miter" stroke-miterlimit="10" stroke-dasharray="" stroke-dashoffset="0" style="mix-blend-mode: normal"><path d="M174.80639,317.65527v-267.22501h123.18203v267.22501z" fill-opacity="0.01" fill="#000000" stroke="none"/><path d="M206.75007,307.50003l15.14285,-131.8421l37.78325,-0.15789l13.57389,132z" fill="url(#color-1)" stroke="#000000"/><path d="M171.46517,140.88892c0,-33.30185 28.7599,-60.29833 64.23702,-60.29833c35.47712,0 64.23702,26.99649 64.23702,60.29833c0,13.05014 4.0286,82.47451 4.0286,82.47451c0,0 -46.69107,-22.17618 -68.26562,-22.17618c-20.49118,0 -66.8752,20.6796 -66.8752,20.6796c0,0 2.63818,-66.91085 2.63818,-80.97793z" fill="url(#color-2)" stroke="#000000"/><g stroke="none"><g fill="url(#color-3)"><path d="M136.95004,209.27485l18.50323,-56.63564l-22.76421,-28.10776l29.94245,-18.10513l7.09554,-31.71783l38.21793,18.70714l24.49605,-68.05356l26.79509,75.86143l37.68426,-31.55798l2.13355,43.89763l49.12021,5.54972l-42.40356,30.14046l33.04464,49.17646l-45.26528,-12.16217l6.37467,47.47005l-50.48801,-34.25879l-15.02463,34.81375l-51.70255,-45.69321l-44.7831,47.98139z"/></g><g fill="url(#color-4)"><path d="M142.79838,205.93827l17.40675,-53.27948l-21.41523,-26.44213l28.1681,-17.03224l6.67506,-29.83827l35.95318,17.59858l23.04444,-64.02079l25.20724,71.36597l35.45114,-29.68789l2.00712,41.29631l46.20941,5.22085l-39.89077,28.35438l31.08645,46.26232l-42.58292,-11.44146l5.99691,44.65703l-47.49615,-32.22865l-14.13429,32.75073l-48.63872,-42.98549l-42.1293,45.13807z"/></g></g><path d="M176.70117,134.95389c0,-12.968 10.51265,-23.48065 23.48065,-23.48065c12.968,0 23.48065,10.51265 23.48065,23.48065c0,12.968 -10.51265,23.48065 -23.48065,23.48065c-12.968,0 -23.48065,-10.51265 -23.48065,-23.48065z" fill="url(#color-5)" stroke="#000000"/><path d="M182.14529,136.27943c0,-9.12808 7.39976,-16.52784 16.52783,-16.52784c9.12808,0 16.52784,7.39977 16.52784,16.52784c0,9.12808 -7.39977,16.52784 -16.52784,16.52784c-9.12808,0 -16.52783,-7.39977 -16.52783,-16.52784z" fill="#000000" stroke="none"/><path d="M264.98789,147.06617c-12.968,0 -23.48065,-10.51265 -23.48065,-23.48065c0,-12.968 10.51265,-23.48065 23.48065,-23.48065c12.968,0 23.48065,10.51265 23.48065,23.48065c0,12.968 -10.51265,23.48065 -23.48065,23.48065z" data-paper-data="{&quot;index&quot;:null}" fill="url(#color-6)" stroke="#000000"/><path d="M264.13468,141.29263c-9.12807,0 -16.52783,-7.39977 -16.52783,-16.52784c0,-9.12808 7.39977,-16.52784 16.52783,-16.52784c9.12807,0 16.52783,7.39977 16.52783,16.52784c0,9.12808 -7.39977,16.52784 -16.52783,16.52784z" data-paper-data="{&quot;index&quot;:null}" fill="#000000" stroke="none"/><g stroke="none"><g><path d="M260.21649,158.96943c0,0 -2.40409,-5.27373 -0.17207,-6.06902c2.23201,-0.79528 3.56306,4.86078 3.56306,4.86078z" fill="url(#color-7)"/><path d="M257.90431,160.39136c0,0 -2.87317,-6.30276 -0.20564,-7.25322c2.66752,-0.95046 4.2583,5.80922 4.2583,5.80922z" fill="url(#color-8)"/><path d="M254.6112,162.01328c0,0 -3.225,-7.07452 -0.23083,-8.14137c2.99417,-1.06685 4.77973,6.52056 4.77973,6.52056z" fill="url(#color-9)"/><path d="M250.05148,164.38553c0,0 -3.81134,-8.36078 -0.2728,-9.6216c3.53855,-1.26082 5.64875,7.70611 5.64875,7.70611z" fill="url(#color-10)"/><path d="M239.13425,169.32206c0,0 -4.51498,-9.90432 -0.32315,-11.3979c4.19183,-1.49358 6.69161,9.12877 6.69161,9.12877z" fill="url(#color-11)"/><path d="M244.82039,166.8475c0,0 -4.28043,-9.38983 -0.30637,-10.80581c3.97407,-1.41599 6.34401,8.65456 6.34401,8.65456z" fill="url(#color-12)"/></g><g data-paper-data="{&quot;index&quot;:null}"><path d="M213.11246,175.60344c0,0 -2.54539,-5.22339 -0.31338,-6.01866c2.23202,-0.79529 3.70436,4.81043 3.70436,4.81043z" fill="url(#color-13)"/><path d="M215.14119,175.47865c0,0 -3.04204,-6.24259 -0.37451,-7.19305c2.66753,-0.95046 4.42718,5.74906 4.42718,5.74906z" fill="url(#color-14)"/><path d="M218.22169,174.82962c0,0 -3.41453,-7.00699 -0.42037,-8.07384c2.99417,-1.06685 4.96927,6.45303 4.96927,6.45303z" fill="url(#color-15)"/><path d="M222.42708,174.07882c0,0 -4.03535,-8.28098 -0.4968,-9.54179c3.53855,-1.26082 5.87276,7.62629 5.87276,7.62629z" fill="url(#color-16)"/><path d="M233.01364,171.35338c0,0 -4.78034,-9.80977 -0.5885,-11.30335c4.19183,-1.49358 6.95697,9.03422 6.95697,9.03422z" fill="url(#color-17)"/><path d="M227.37467,172.91401c0,0 -4.53201,-9.30019 -0.55794,-10.71618c3.97407,-1.41599 6.59557,8.56493 6.59557,8.56493z" fill="url(#color-18)"/></g></g><g stroke="none"><g><path d="M266.84066,166.10223c0,0 2.21942,4.72035 0.20602,5.40629c-2.0134,0.68594 -3.26487,-4.36418 -3.26487,-4.36418z" fill="url(#color-19)"/><path d="M265.41567,167.35574c0,0 2.65249,5.64139 0.24622,6.46117c-2.40625,0.81977 -3.90194,-5.21571 -3.90194,-5.21571z" fill="url(#color-20)"/><path d="M262.91773,168.70767c0,0 2.97726,6.33218 0.27637,7.25233c-2.7009,0.92016 -4.37973,-5.85437 -4.37973,-5.85437z" fill="url(#color-21)"/><path d="M259.40879,170.13687c0,0 3.5186,7.48347 0.32662,8.57093c-3.19198,1.08747 -5.17605,-6.9188 -5.17605,-6.9188z" fill="url(#color-22)"/><path d="M250.42265,174.06654c0,0 4.16816,8.86504 0.38691,10.15326c-3.78126,1.28823 -6.13162,-8.19611 -6.13162,-8.19611z" fill="url(#color-23)"/><path d="M255.25905,172.01813c0,0 3.95166,8.40452 0.36681,9.62582c-3.58483,1.22131 -5.81309,-7.77034 -5.81309,-7.77034z" fill="url(#color-24)"/></g><g data-paper-data="{&quot;index&quot;:null}"><path d="M224.21458,180.62434c0,0 2.09196,4.76377 0.07858,5.4497c-2.0134,0.68594 -3.13743,-4.4076 -3.13743,-4.4076z" fill="url(#color-25)"/><path d="M226.70533,180.54384c0,0 2.50014,5.69329 0.09389,6.51306c-2.40625,0.81977 -3.74962,-5.26761 -3.74962,-5.26761z" fill="url(#color-26)"/><path d="M229.95672,179.93702c0,0 2.80629,6.39042 0.10539,7.31058c-2.70089,0.92015 -4.20874,-5.91263 -4.20874,-5.91263z" fill="url(#color-27)"/><path d="M234.35443,178.67252c0,0 3.31653,7.55231 0.12455,8.63977c-3.19198,1.08747 -4.97398,-6.98764 -4.97398,-6.98764z" fill="url(#color-28)"/><path d="M244.76592,175.99369c0,0 3.92881,8.94658 0.14754,10.23481c-3.78126,1.28823 -5.89225,-8.27767 -5.89225,-8.27767z" fill="url(#color-29)"/><path d="M239.38644,177.42571c0,0 3.72472,8.48183 0.13989,9.70313c-3.58483,1.22131 -5.58617,-7.84766 -5.58617,-7.84766z" fill="url(#color-30)"/></g></g></g></g></svg>