<svg version="1.1" xmlns="http://www.w3.org/2000/svg" xmlns:xlink="http://www.w3.org/1999/xlink" width="176.59187" height="267.22501" viewBox="0,0,176.59187,267.22501"><defs><linearGradient x1="174.11675" y1="72.97882" x2="216.67096" y2="127.36075" gradientUnits="userSpaceOnUse" id="color-1"><stop offset="0" stop-color="#627e83"/><stop offset="1" stop-color="#80b3bf"/></linearGradient><linearGradient x1="248.61455" y1="155.34138" x2="313.82042" y2="178.06691" gradientUnits="userSpaceOnUse" id="color-2"><stop offset="0" stop-color="#627e83"/><stop offset="1" stop-color="#80b3bf"/></linearGradient><linearGradient x1="292.71869" y1="181.63515" x2="326.09261" y2="193.26662" gradientUnits="userSpaceOnUse" id="color-3"><stop offset="0" stop-color="#242e30"/><stop offset="1" stop-color="#648b95"/></linearGradient><linearGradient x1="229.96616" y1="171.27607" x2="164.76028" y2="194.00161" gradientUnits="userSpaceOnUse" id="color-4"><stop offset="0" stop-color="#627e83"/><stop offset="1" stop-color="#80b3bf"/></linearGradient><linearGradient x1="185.86202" y1="197.56984" x2="152.4881" y2="209.20132" gradientUnits="userSpaceOnUse" id="color-5"><stop offset="0" stop-color="#242e30"/><stop offset="1" stop-color="#648b95"/></linearGradient><linearGradient x1="318.54859" y1="83.62994" x2="275.99438" y2="138.01188" gradientUnits="userSpaceOnUse" id="color-6"><stop offset="0" stop-color="#627e83"/><stop offset="1" stop-color="#80b3bf"/></linearGradient><linearGradient x1="240.00009" y1="175.50005" x2="240.00009" y2="307.50005" gradientUnits="userSpaceOnUse" id="color-7"><stop offset="0" stop-color="#242e30"/><stop offset="1" stop-color="#648b95"/></linearGradient><linearGradient x1="240.07703" y1="76.88119" x2="240.07703" y2="197.47785" gradientUnits="userSpaceOnUse" id="color-8"><stop offset="0" stop-color="#242e30"/><stop offset="1" stop-color="#648b95"/></linearGradient><radialGradient cx="212.87087" cy="137.27568" r="23.48065" gradientUnits="userSpaceOnUse" id="color-9"><stop offset="0" stop-color="#969696"/><stop offset="1" stop-color="#967676"/></radialGradient><radialGradient cx="267.12931" cy="137.27567" r="23.48065" gradientUnits="userSpaceOnUse" id="color-10"><stop offset="0" stop-color="#969696"/><stop offset="1" stop-color="#967676"/></radialGradient><linearGradient x1="243.90327" y1="68.40651" x2="243.90327" y2="91.65651" gradientUnits="userSpaceOnUse" id="color-11"><stop offset="0" stop-color="#648b95"/><stop offset="1" stop-color="#242e30"/></linearGradient></defs><g transform="translate(-151.50723,-46.3875)"><g data-paper-data="{&quot;isPaintingLayer&quot;:true}" fill-rule="nonzero" stroke-linejoin="miter" stroke-miterlimit="10" stroke-dasharray="" stroke-dashoffset="0" style="mix-blend-mode: normal"><path d="M168.75332,77.17573l57.46815,39.96765l-4.18708,6.02046l-57.46814,-39.96764z" data-paper-data="{&quot;index&quot;:null}" fill="url(#color-1)" stroke="#000000" stroke-width="0" stroke-linecap="butt"/><g data-paper-data="{&quot;index&quot;:null}" stroke="#000000" stroke-width="0" stroke-linecap="butt"><path d="M255.2028,143.00435l56.37632,41.4935l-4.34693,5.90609l-56.37633,-41.4935z" fill="url(#color-2)"/><path d="M298.9335,201.6792c-7.85808,-5.78361 -9.53976,-16.84242 -3.75615,-24.70049c5.78362,-7.85807 16.84239,-9.53975 24.70047,-3.75614c7.85807,5.78361 9.53976,16.8424 3.75614,24.70047c-5.78362,7.85808 -16.8424,9.53976 -24.70048,3.75614z" fill="url(#color-3)"/></g><path d="M178.40904,313.61251v-267.22501h123.18203v267.22501z" fill-opacity="0.01" fill="#000000" stroke="none" stroke-width="0" stroke-linecap="butt"/><g data-paper-data="{&quot;index&quot;:null}" stroke="#000000" stroke-width="0" stroke-linecap="butt"><path d="M227.72485,164.84513l-56.37633,41.4935l-4.34693,-5.90609l56.37632,-41.4935z" fill="url(#color-4)"/><path d="M179.64722,217.61389c-7.85808,5.78362 -18.91686,4.10193 -24.70048,-3.75615c-5.78361,-7.85807 -4.10193,-18.91686 3.75614,-24.70047c7.85808,-5.78362 18.91686,-4.10193 24.70047,3.75614c5.78361,7.85807 4.10194,18.91687 -3.75614,24.70048z" fill="url(#color-5)"/></g><path d="M328.09909,93.84732l-57.46814,39.96764l-4.18708,-6.02046l57.46815,-39.96765z" fill="url(#color-6)" stroke="#000000" stroke-width="0" stroke-linecap="butt"/><path d="M206.7501,307.50004l15.14285,-131.8421l37.78325,-0.15789l13.57389,132z" fill="url(#color-7)" stroke="#000000" stroke-width="0" stroke-linecap="butt"/><path d="M175.84001,137.17952c0,-33.30185 28.7599,-60.29833 64.23702,-60.29833c35.47712,0 64.23702,26.99649 64.23702,60.29833c0,33.30185 -28.7599,60.29833 -64.23702,60.29833c-35.47712,0 -64.23702,-26.99649 -64.23702,-60.29833z" fill="url(#color-8)" stroke="#000000" stroke-width="0" stroke-linecap="butt"/><path d="M189.39022,137.27568c0,-12.968 10.51265,-23.48065 23.48065,-23.48065c12.968,0 23.48065,10.51265 23.48065,23.48065c0,12.968 -10.51265,23.48065 -23.48065,23.48065c-12.968,0 -23.48065,-10.51265 -23.48065,-23.48065z" fill="url(#color-9)" stroke="#000000" stroke-width="0" stroke-linecap="butt"/><path d="M196.45561,137c0,-9.12808 7.39976,-16.52784 16.52783,-16.52784c9.12808,0 16.52784,7.39977 16.52784,16.52784c0,9.12808 -7.39977,16.52784 -16.52784,16.52784c-9.12808,0 -16.52783,-7.39977 -16.52783,-16.52784z" fill="#000000" stroke="none" stroke-width="0" stroke-linecap="butt"/><path d="M267.12931,160.75632c-12.968,0 -23.48065,-10.51265 -23.48065,-23.48065c0,-12.968 10.51265,-23.48065 23.48065,-23.48065c12.968,0 23.48065,10.51265 23.48065,23.48065c0,12.968 -10.51265,23.48065 -23.48065,23.48065z" data-paper-data="{&quot;index&quot;:null}" fill="url(#color-10)" stroke="#000000" stroke-width="0" stroke-linecap="butt"/><path d="M267.01671,153.52785c-9.12807,0 -16.52783,-7.39977 -16.52783,-16.52784c0,-9.12808 7.39977,-16.52784 16.52783,-16.52784c9.12807,0 16.52783,7.39977 16.52783,16.52784c0,9.12808 -7.39977,16.52784 -16.52783,16.52784z" data-paper-data="{&quot;index&quot;:null}" fill="#000000" stroke="none" stroke-width="0" stroke-linecap="butt"/><path d="M202.02789,108.4672c0,0 6.70895,-5.16922 11.79722,-6.36355c5.08827,-1.19433 12.33413,0.69937 12.33413,0.69937c0,0 -8.03812,-0.06028 -11.96762,0.86207c-4.10648,0.96388 -12.16372,4.80211 -12.16372,4.80211z" fill="#000000" stroke="none" stroke-width="0" stroke-linecap="butt"/><path d="M265.96236,103.6651c-3.9295,-0.92235 -11.96762,-0.86207 -11.96762,-0.86207c0,0 7.24586,-1.8937 12.33413,-0.69937c5.08826,1.19433 11.79721,6.36355 11.79721,6.36355c0,0 -8.05724,-3.83822 -12.16372,-4.80211z" data-paper-data="{&quot;index&quot;:null}" fill="#000000" stroke="none" stroke-width="0" stroke-linecap="butt"/><path d="M227.50709,176.65648c0,0 7.79458,-2.49516 11.8598,-2.49516c4.29229,0 13.24979,2.49516 13.24979,2.49516" fill="none" stroke="#000000" stroke-width="2" stroke-linecap="round"/><path d="M217.65327,87.90651l33.25,-19.5l-3.25,13.75l22.5,-6l-14.5,15.5" data-paper-data="{&quot;index&quot;:null}" fill="url(#color-11)" stroke="#000000" stroke-width="0" stroke-linecap="round"/></g></g></svg>