<svg version="1.1" xmlns="http://www.w3.org/2000/svg" xmlns:xlink="http://www.w3.org/1999/xlink" width="184.33333" height="374.80303" viewBox="0,0,184.33333,374.80303"><g transform="translate(-143.83334,8.59149)"><g data-paper-data="{&quot;isPaintingLayer&quot;:true}" stroke-miterlimit="10" stroke-dasharray="" stroke-dashoffset="0" style="mix-blend-mode: normal"><path d="M187.77548,362.70215c0,0 -3.29883,-30.08224 9.04243,-64.27471c7.41333,-20.53925 31.32607,-45.87309 34.51138,-57.76421c5.60205,-20.91313 3.6844,-61.16967 3.6844,-61.16967l8.10799,2.17191c0,0 1.86361,42.93505 -2.8628,60.57926c-3.61163,13.48263 -27.0281,35.09295 -35.80154,58.75528c-11.59381,31.26898 -8.57387,63.87407 -8.57387,63.87407z" fill="#000000" fill-rule="nonzero" stroke="#000000" stroke-width="2" stroke-linecap="butt" stroke-linejoin="miter"/><path d="M311.54473,363.62173h-16.3214v-182.33333h16.3214z" fill="#000000" fill-rule="nonzero" stroke="#000000" stroke-width="2" stroke-linecap="butt" stroke-linejoin="miter"/><path d="M178.64192,362.68909h-16.32139v-182.33333h16.32139z" fill="#000000" fill-rule="nonzero" stroke="#000000" stroke-width="2" stroke-linecap="butt" stroke-linejoin="miter"/><path d="M144.83335,195.97767v-27.04688h182.33333v27.04688z" fill="#000000" fill-rule="nonzero" stroke="#000000" stroke-width="2" stroke-linecap="butt" stroke-linejoin="miter"/><path d="M226.06722,164.26539v-45.8165h19.86547v45.8165z" fill="#000000" fill-rule="nonzero" stroke="#000000" stroke-width="2" stroke-linecap="butt" stroke-linejoin="miter"/><path d="M186.33629,176.22666l8.02683,-15.94834h85.71505l8.31349,15.94834z" fill="#000000" fill-rule="nonzero" stroke="#000000" stroke-width="2" stroke-linecap="butt" stroke-linejoin="miter"/><path d="M198.64449,36.13632h74.71097c12.48635,0 22.5385,10.05218 22.5385,22.5385v63.8689c0,12.48632 -10.05214,22.5385 -22.5385,22.5385h-74.71097c-12.48632,0 -22.5385,-10.05218 -22.5385,-22.5385v-63.8689c0,-12.48632 10.05218,-22.5385 22.5385,-22.5385z" fill="#000000" fill-rule="evenodd" stroke="#000000" stroke-width="2" stroke-linecap="round" stroke-linejoin="round"/><path d="M205.62481,46.31517h60.75044c10.15315,0 18.32695,8.17382 18.32695,18.32695v51.93432c0,10.15312 -8.1738,18.32695 -18.32695,18.32695h-60.75044c-10.15312,0 -18.32695,-8.17382 -18.32695,-18.32695v-51.93432c0,-10.15312 8.17382,-18.32695 18.32695,-18.32695z" fill="#000000" fill-rule="evenodd" stroke="#000000" stroke-width="2" stroke-linecap="round" stroke-linejoin="round"/><path d="M209.37332,90.10723c0,-4.09636 3.32075,-7.41712 7.41712,-7.41712c4.09636,0 7.41712,3.32075 7.41712,7.41712c0,4.09636 -3.32077,7.41712 -7.41712,7.41712c-4.09636,0 -7.41712,-3.32077 -7.41712,-7.41712z" fill="#ffffff" fill-rule="nonzero" stroke="none" stroke-width="0" stroke-linecap="butt" stroke-linejoin="miter"/><path d="M217.04514,108.70616h37.90973l-18.3662,20.5294z" fill="#000000" fill-rule="nonzero" stroke="none" stroke-width="0" stroke-linecap="butt" stroke-linejoin="miter"/><path d="M248.40177,90.53114c0,-4.09636 3.32075,-7.41712 7.41712,-7.41712c4.09636,0 7.41712,3.32075 7.41712,7.41712c0,4.09636 -3.32077,7.41712 -7.41712,7.41712c-4.09636,0 -7.41712,-3.32077 -7.41712,-7.41712z" fill="#ffffff" fill-rule="nonzero" stroke="none" stroke-width="0" stroke-linecap="butt" stroke-linejoin="miter"/><path d="M271.80458,33.25124l33.06363,-38.12531l-18.07573,47.06483c0,0 -3.19293,-1.90443 -5.19741,-3.10001c-2.75112,-1.6409 -9.79047,-5.83953 -9.79047,-5.83953z" fill="#000000" fill-rule="nonzero" stroke="#000000" stroke-width="1.5" stroke-linecap="butt" stroke-linejoin="miter"/><g fill="#000000" fill-rule="nonzero" stroke="#000000" stroke-width="1.4" stroke-linejoin="miter"><path d="M258.03623,28.4343l4.68604,-7.85657l38.79933,23.14185l-4.68606,7.85656z" stroke-linecap="butt"/><g><path d="M245.13273,37.31226c0,0 0.2318,-5.19345 2.16237,-7.74653c3.23435,-4.27722 5.99443,-5.92907 5.99443,-5.92907l51.85331,30.92788c0,0 0.09579,4.35826 -2.29624,7.97099c-2.63907,3.98581 -5.86057,5.70459 -5.86057,5.70459z" stroke-linecap="butt"/><path d="M252.92837,41.1192c0,0 1.31142,-4.94611 2.61224,-7.12705c1.21682,-2.0401 4.95753,-5.56432 4.95753,-5.56432" stroke-linecap="round"/><path d="M298.0421,51.47643c0,0 -1.80391,5.11641 -3.06556,7.18344c-1.1157,1.8279 -4.12042,4.58972 -4.12042,4.58972" stroke-linecap="round"/><path d="M266.14985,48.34967c0,0 0.88182,-3.75399 1.93564,-5.56341c1.19503,-2.05189 4.8644,-6.11223 4.8644,-6.11223" stroke-linecap="round"/><path d="M285.69003,44.43676c0,0 -1.60535,4.88948 -2.78187,6.86201c-1.12847,1.89198 -4.13907,4.74154 -4.13907,4.74154" stroke-linecap="round"/></g></g></g></g></svg>