<svg version="1.1" xmlns="http://www.w3.org/2000/svg" xmlns:xlink="http://www.w3.org/1999/xlink" width="194.76219" height="267.22501" viewBox="0,0,194.76219,267.22501"><defs><linearGradient x1="322.54008" y1="94.40727" x2="322.54008" y2="161.32826" gradientUnits="userSpaceOnUse" id="color-1"><stop offset="0" stop-color="#4b4650"/><stop offset="1" stop-color="#8c8395"/></linearGradient><linearGradient x1="336.7904" y1="78.22907" x2="336.7904" y2="113.57119" gradientUnits="userSpaceOnUse" id="color-2"><stop offset="0" stop-color="#291b44"/><stop offset="1" stop-color="#573a90"/></linearGradient><linearGradient x1="191.62066" y1="97.07279" x2="191.62066" y2="163.99378" gradientUnits="userSpaceOnUse" id="color-3"><stop offset="0" stop-color="#4b4650"/><stop offset="1" stop-color="#8c8395"/></linearGradient><linearGradient x1="177.37033" y1="80.8946" x2="177.37033" y2="116.23673" gradientUnits="userSpaceOnUse" id="color-4"><stop offset="0" stop-color="#291b44"/><stop offset="1" stop-color="#573a90"/></linearGradient><linearGradient x1="240.00005" y1="175.50004" x2="240.00005" y2="307.50004" gradientUnits="userSpaceOnUse" id="color-5"><stop offset="0" stop-color="#291b44"/><stop offset="1" stop-color="#573a90"/></linearGradient><linearGradient x1="257.12951" y1="76.92156" x2="257.12951" y2="197.51822" gradientUnits="userSpaceOnUse" id="color-6"><stop offset="0" stop-color="#291b44"/><stop offset="1" stop-color="#573a90"/></linearGradient></defs><g transform="translate(-159.69927,-46.42788)"><g data-paper-data="{&quot;isPaintingLayer&quot;:true}" fill-rule="nonzero" stroke-linejoin="miter" stroke-miterlimit="10" stroke-dasharray="" stroke-dashoffset="0" style="mix-blend-mode: normal"><g data-paper-data="{&quot;index&quot;:null}" stroke="#000000" stroke-width="0" stroke-linecap="butt"><path d="M304.94077,158.34249l28.50065,-63.93522l6.69796,2.98576l-28.50064,63.93523z" fill="url(#color-1)"/><path d="M329.59738,112.03618c-8.91168,-3.97259 -12.9156,-14.41738 -8.94302,-23.32906c3.9726,-8.91168 14.41738,-12.9156 23.32906,-8.94302c8.91167,3.97259 12.9156,14.41738 8.94301,23.32905c-3.97259,8.91169 -14.41737,12.91561 -23.32905,8.94302z" fill="url(#color-2)"/></g><g stroke="#000000" stroke-width="0" stroke-linecap="butt"><path d="M202.52199,163.99378l-28.50064,-63.93523l6.69797,-2.98576l28.50064,63.93523z" fill="url(#color-3)"/><path d="M161.2343,105.75868c-3.97259,-8.91168 0.03134,-19.35646 8.94301,-23.32905c8.91168,-3.97259 19.35646,0.03133 23.32905,8.94302c3.97259,8.91168 -0.03133,19.35647 -8.94302,23.32906c-8.91168,3.97259 -19.35645,-0.03133 -23.32905,-8.94302z" fill="url(#color-4)"/></g><path d="M195.46151,313.65289v-267.22501h123.18203v267.22501z" fill-opacity="0.01" fill="#000000" stroke="none" stroke-width="0" stroke-linecap="butt"/><path d="M206.75006,307.50003l15.14285,-131.8421l37.78325,-0.15789l13.57389,132z" fill="url(#color-5)" stroke="#000000" stroke-width="0" stroke-linecap="butt"/><path d="M192.89249,137.21989c0,-33.30185 28.7599,-60.29833 64.23702,-60.29833c35.47712,0 64.23702,26.99649 64.23702,60.29833c0,33.30185 -28.7599,60.29833 -64.23702,60.29833c-35.47712,0 -64.23702,-26.99649 -64.23702,-60.29833z" fill="url(#color-6)" stroke="#000000" stroke-width="0" stroke-linecap="butt"/><path d="M206.4427,137.31603c0,-12.968 10.51265,-23.48065 23.48065,-23.48065c12.968,0 23.48065,10.51265 23.48065,23.48065c0,12.968 -10.51265,23.48065 -23.48065,23.48065c-12.968,0 -23.48065,-10.51265 -23.48065,-23.48065z" fill="#909090" stroke="#000000" stroke-width="0" stroke-linecap="butt"/><path d="M213.50809,137.04038c0,-9.12808 7.39976,-16.52784 16.52783,-16.52784c9.12808,0 16.52784,7.39977 16.52784,16.52784c0,9.12808 -7.39977,16.52784 -16.52784,16.52784c-9.12808,0 -16.52783,-7.39977 -16.52783,-16.52784z" fill="#000000" stroke="none" stroke-width="0" stroke-linecap="butt"/><path d="M284.18178,160.79665c-12.968,0 -23.48065,-10.51265 -23.48065,-23.48065c0,-12.968 10.51265,-23.48065 23.48065,-23.48065c12.968,0 23.48065,10.51265 23.48065,23.48065c0,12.968 -10.51265,23.48065 -23.48065,23.48065z" data-paper-data="{&quot;index&quot;:null}" fill="#909090" stroke="#000000" stroke-width="0" stroke-linecap="butt"/><path d="M284.06923,153.56823c-9.12807,0 -16.52783,-7.39977 -16.52783,-16.52784c0,-9.12808 7.39977,-16.52784 16.52783,-16.52784c9.12807,0 16.52783,7.39977 16.52783,16.52784c0,9.12808 -7.39977,16.52784 -16.52783,16.52784z" data-paper-data="{&quot;index&quot;:null}" fill="#000000" stroke="none" stroke-width="0" stroke-linecap="butt"/><path d="M219.08037,108.50756c0,0 6.70895,-5.16922 11.79722,-6.36355c5.08827,-1.19433 12.33413,0.69937 12.33413,0.69937c0,0 -8.03812,-0.06028 -11.96762,0.86207c-4.10648,0.96388 -12.16372,4.80211 -12.16372,4.80211z" fill="#000000" stroke="none" stroke-width="0" stroke-linecap="butt"/><path d="M283.01488,103.70546c-3.9295,-0.92235 -11.96762,-0.86207 -11.96762,-0.86207c0,0 7.24586,-1.8937 12.33413,-0.69937c5.08826,1.19433 11.79721,6.36355 11.79721,6.36355c0,0 -8.05724,-3.83822 -12.16372,-4.80211z" data-paper-data="{&quot;index&quot;:null}" fill="#000000" stroke="none" stroke-width="0" stroke-linecap="butt"/><path d="M271.42478,83.798l14.5,15.5l-22.5,-6l3.25,13.75l-33.25,-19.5" data-paper-data="{&quot;index&quot;:null}" fill="none" stroke="#000000" stroke-width="1" stroke-linecap="round"/><path d="M244.98324,179.24026l35.50572,-9.32722v9.32722z" data-paper-data="{&quot;index&quot;:null}" fill="#808080" stroke="#000000" stroke-width="2" stroke-linecap="butt"/></g></g></svg>