<svg version="1.1" xmlns="http://www.w3.org/2000/svg" xmlns:xlink="http://www.w3.org/1999/xlink" width="128.47405" height="267.22501" viewBox="0,0,128.47405,267.22501"><defs><linearGradient x1="243.16023" y1="82.2804" x2="243.16023" y2="142.66368" gradientUnits="userSpaceOnUse" id="color-1"><stop offset="0" stop-color="#381d1d"/><stop offset="1" stop-color="#803d3d"/></linearGradient><linearGradient x1="242.26948" y1="79.29663" x2="242.26948" y2="193.63543" gradientUnits="userSpaceOnUse" id="color-2"><stop offset="0" stop-color="#1a1a1a"/><stop offset="1" stop-color="#808080"/></linearGradient><linearGradient x1="242.26948" y1="79.29663" x2="242.26948" y2="193.63543" gradientUnits="userSpaceOnUse" id="color-3"><stop offset="0" stop-color="#1a1a1a"/><stop offset="1" stop-color="#808080"/></linearGradient><linearGradient x1="240.00014" y1="175.50007" x2="240.00014" y2="307.50005" gradientUnits="userSpaceOnUse" id="color-4"><stop offset="0" stop-color="#1a1900"/><stop offset="1" stop-color="#8a8100"/></linearGradient><linearGradient x1="240.07706" y1="76.88119" x2="240.07706" y2="197.47785" gradientUnits="userSpaceOnUse" id="color-5"><stop offset="0" stop-color="#1a1900"/><stop offset="1" stop-color="#8a8100"/></linearGradient><linearGradient x1="212.87093" y1="113.79504" x2="212.87093" y2="160.75633" gradientUnits="userSpaceOnUse" id="color-6"><stop offset="0" stop-color="#7d7d7d"/><stop offset="1" stop-color="#693c3c"/></linearGradient><linearGradient x1="267.12935" y1="113.79503" x2="267.12935" y2="160.75633" gradientUnits="userSpaceOnUse" id="color-7"><stop offset="0" stop-color="#7d7d7d"/><stop offset="1" stop-color="#693c3c"/></linearGradient><linearGradient x1="240.00004" y1="160.97345" x2="240.00004" y2="199.02652" gradientUnits="userSpaceOnUse" id="color-8"><stop offset="0" stop-color="#796100"/><stop offset="1" stop-color="#2e2500"/></linearGradient></defs><g transform="translate(-175.84004,-46.3875)"><g data-paper-data="{&quot;isPaintingLayer&quot;:true}" fill-rule="nonzero" stroke-linejoin="miter" stroke-miterlimit="10" stroke-dasharray="" stroke-dashoffset="0" style="mix-blend-mode: normal"><path d="M178.40899,313.61251v-267.22501h123.18203v267.22501z" fill-opacity="0.01" fill="#000000" stroke="none" stroke-width="0" stroke-linecap="butt"/><path d="M293.73242,112.47205c0,16.67439 -22.64196,30.19165 -50.57223,30.19165c-27.93027,0 -50.57222,-13.51726 -50.57222,-30.19165c0,-7.14877 1.01839,-16.02352 8.19943,-20.56358c3.36705,-2.12874 11.88371,-6.15053 16.2329,-7.87717c8.01049,-3.18019 29.58211,0.77098 39.9233,0.77098c5.86276,0 5.40083,3.73636 5.84838,2.18388c0.29225,-1.01379 10.38701,0.42049 10.90036,0.65072c2.70848,1.21467 9.63522,4.58286 13.7006,8.02935c5.92094,5.01957 6.33948,14.52725 6.33948,16.80582z" fill="url(#color-1)" stroke="none" stroke-width="0" stroke-linecap="butt"/><path d="M181.01883,132.77013c0,-11.56827 3.70699,-21.83789 10.05894,-30.20755c1.52875,1.13967 3.11849,2.188 4.84261,3.01959c2.19648,1.05942 4.52832,1.72388 6.84984,2.44158c-0.07772,0.22495 -0.13394,0.45287 -0.14367,0.6866c-0.09868,2.37102 10.22517,3.23548 12.73567,1.5453c2.76451,-1.86118 6.52652,0.67736 9.91324,-3.45738c0.72842,-0.8893 3.15864,-0.86703 4.15074,0.55884c2.26773,0.0427 4.60842,0.70034 6.80317,0.1281c2.46173,-0.64185 4.66882,-2.93529 5.8927,-5.56533c7.85064,1.67754 15.26021,2.75576 23.34443,0.15572c0.13621,-0.05232 0.27204,-0.10487 0.40751,-0.15768c0.68989,0.07709 1.42216,0.0577 2.15364,0.02878c0.58866,1.89957 1.56803,3.68215 2.53039,5.75654c1.1164,1.29018 4.64336,0.65721 6.15121,1.45552c6.62513,3.50755 8.11383,0.6682 13.91318,-0.62807c1.36516,-0.30514 2.73014,-0.62184 4.09584,-0.94178c3.36846,6.79325 5.20491,14.64635 5.20491,23.37711c0,31.57378 -19.35085,37.66938 -57.65369,38.00271c-49.3021,0.42905 -61.25068,-4.62483 -61.25068,-36.1986z" fill="url(#color-2)" stroke="#000000" stroke-width="0" stroke-linecap="butt"/><path d="" fill="url(#color-3)" stroke="#000000" stroke-width="0" stroke-linecap="butt"/><path d="M206.75015,307.50005l15.14285,-131.8421l37.78325,-0.15789l13.57389,132z" fill="url(#color-4)" stroke="#000000" stroke-width="0" stroke-linecap="butt"/><path d="M175.84004,137.17951c0,-12.24469 3.88818,-23.63693 10.56881,-33.14818c0.57636,0.58881 1.15826,1.15324 1.77065,1.59374c7.91415,5.69267 15.91608,8.10468 25.69296,6.9442c4.12078,-0.48912 7.85256,-3.20934 11.35358,-5.26943c1.20059,-0.70646 2.22888,-2.81345 3.51043,-2.26744c7.3817,3.14501 11.95226,10.21621 20.53969,10.97061c5.9915,0.52635 12.48773,-9.55919 17.17848,-8.72299c11.17322,1.99181 22.09928,4.41884 33.04621,6.95683c3.1022,7.07225 4.81324,14.81989 4.81324,22.94266c0,33.30185 -28.7599,60.29833 -64.23702,60.29833c-35.47712,0 -64.23702,-26.99649 -64.23702,-60.29833z" fill="url(#color-5)" stroke="#000000" stroke-width="0" stroke-linecap="butt"/><path d="M189.39027,137.27569c0,-12.968 10.51265,-23.48065 23.48065,-23.48065c12.968,0 23.48065,10.51265 23.48065,23.48065c0,12.968 -10.51265,23.48065 -23.48065,23.48065c-12.968,0 -23.48065,-10.51265 -23.48065,-23.48065z" fill="url(#color-6)" stroke="#000000" stroke-width="0" stroke-linecap="butt"/><path d="M196.4557,137c0,-9.12808 7.39976,-16.52784 16.52783,-16.52784c9.12808,0 16.52784,7.39977 16.52784,16.52784c0,9.12808 -7.39977,16.52784 -16.52784,16.52784c-9.12808,0 -16.52783,-7.39977 -16.52783,-16.52784z" fill="#000000" stroke="none" stroke-width="0" stroke-linecap="butt"/><path d="M267.12935,160.75633c-12.968,0 -23.48065,-10.51265 -23.48065,-23.48065c0,-12.968 10.51265,-23.48065 23.48065,-23.48065c12.968,0 23.48065,10.51265 23.48065,23.48065c0,12.968 -10.51265,23.48065 -23.48065,23.48065z" data-paper-data="{&quot;index&quot;:null}" fill="url(#color-7)" stroke="#000000" stroke-width="0" stroke-linecap="butt"/><path d="M267.01671,153.52785c-9.12807,0 -16.52783,-7.39977 -16.52783,-16.52784c0,-9.12808 7.39977,-16.52784 16.52783,-16.52784c9.12807,0 16.52783,7.39977 16.52783,16.52784c0,9.12808 -7.39977,16.52784 -16.52783,16.52784z" data-paper-data="{&quot;index&quot;:null}" fill="#000000" stroke="none" stroke-width="0" stroke-linecap="butt"/><path d="M202.02797,108.46722c0,0 6.70895,-5.16922 11.79722,-6.36355c5.08827,-1.19433 12.33413,0.69937 12.33413,0.69937c0,0 -8.03812,-0.06028 -11.96762,0.86207c-4.10648,0.96388 -12.16372,4.80211 -12.16372,4.80211z" fill="#000000" stroke="none" stroke-width="0" stroke-linecap="butt"/><path d="M265.96236,103.66512c-3.9295,-0.92235 -11.96762,-0.86207 -11.96762,-0.86207c0,0 7.24586,-1.8937 12.33413,-0.69937c5.08826,1.19433 11.79721,6.36355 11.79721,6.36355c0,0 -8.05724,-3.83822 -12.16372,-4.80211z" data-paper-data="{&quot;index&quot;:null}" fill="#000000" stroke="none" stroke-width="0" stroke-linecap="butt"/><path d="M277.33214,185.03235c0,9.56143 -16.31758,17.3125 -36.44633,17.3125c-20.12875,0 -36.44633,-7.75107 -36.44633,-17.3125c0,-9.56143 16.31758,-17.3125 36.44633,-17.3125c20.12875,0 36.44633,7.75107 36.44633,17.3125z" fill="#000000" stroke="none" stroke-width="NaN" stroke-linecap="butt"/><path d="M251.52503,179.91191h-25.10959" fill="none" stroke="#000000" stroke-width="2" stroke-linecap="round"/><path d="M295.37262,183.81121c0,8.71013 -36.12233,15.21532 -56.46429,15.21532c-20.34196,0 -54.28096,-6.42554 -54.28096,-15.13567c0,-8.71013 36.5593,-22.9174 56.90126,-22.9174c20.34196,0 53.84399,14.12762 53.84399,22.83775z" fill="url(#color-8)" stroke="#000000" stroke-width="0" stroke-linecap="butt"/><path d="M225.90281,177.4643c0,2.90521 -1.19979,5.26036 -2.6798,5.26036c-1.48001,0 -2.6798,-2.35515 -2.6798,-5.26036c0,-2.90521 1.19979,-5.26037 2.6798,-5.26037c1.48001,0 2.6798,2.35515 2.6798,5.26037z" fill="#000000" stroke="none" stroke-width="0" stroke-linecap="butt"/><path d="M259.8053,176.86645c0,2.90521 -1.19979,5.26036 -2.6798,5.26036c-1.48001,0 -2.6798,-2.35514 -2.6798,-5.26036c0,-2.90521 1.19979,-5.26037 2.6798,-5.26037c1.48001,0 2.6798,2.35515 2.6798,5.26037z" fill="#000000" stroke="none" stroke-width="0" stroke-linecap="butt"/></g></g></svg>