<svg version="1.1" xmlns="http://www.w3.org/2000/svg" xmlns:xlink="http://www.w3.org/1999/xlink" width="34.67311" height="34.67311" viewBox="0,0,34.67311,34.67311"><defs><linearGradient x1="240.00002" y1="162.91346" x2="240.00002" y2="197.08658" gradientUnits="userSpaceOnUse" id="color-1"><stop offset="0" stop-color="#000000"/><stop offset="1" stop-color="#4d3364"/></linearGradient><linearGradient x1="250.22234" y1="175.82984" x2="250.22234" y2="186.28038" gradientUnits="userSpaceOnUse" id="color-2"><stop offset="0" stop-color="#393345"/><stop offset="1" stop-color="#71628f"/></linearGradient><linearGradient x1="252.44773" y1="173.30342" x2="252.44773" y2="178.82253" gradientUnits="userSpaceOnUse" id="color-3"><stop offset="0" stop-color="#291b44"/><stop offset="1" stop-color="#573a90"/></linearGradient><linearGradient x1="229.77768" y1="176.2461" x2="229.77768" y2="186.69664" gradientUnits="userSpaceOnUse" id="color-4"><stop offset="0" stop-color="#393345"/><stop offset="1" stop-color="#71628f"/></linearGradient><linearGradient x1="227.55231" y1="173.71967" x2="227.55231" y2="179.23877" gradientUnits="userSpaceOnUse" id="color-5"><stop offset="0" stop-color="#291b44"/><stop offset="1" stop-color="#573a90"/></linearGradient><linearGradient x1="239.49179" y1="177.0507" x2="239.49179" y2="187.27441" gradientUnits="userSpaceOnUse" id="color-6"><stop offset="0" stop-color="#291b44"/><stop offset="1" stop-color="#573a90"/></linearGradient><linearGradient x1="240.00002" y1="178.18464" x2="240.00002" y2="181.81542" gradientUnits="userSpaceOnUse" id="color-7"><stop offset="0" stop-color="#291b44"/><stop offset="1" stop-color="#573a90"/></linearGradient></defs><g transform="translate(-222.66347,-162.66346)"><g data-paper-data="{&quot;isPaintingLayer&quot;:true}" stroke-miterlimit="10" stroke-dasharray="" stroke-dashoffset="0" style="mix-blend-mode: normal"><path d="M229.98313,162.91346h20.03379c3.9166,0 7.06966,3.15307 7.06966,7.06966v20.03379c0,3.91659 -3.15306,7.06966 -7.06966,7.06966h-20.03379c-3.91659,0 -7.06966,-3.15307 -7.06966,-7.06966v-20.03379c0,-3.91659 3.15307,-7.06966 7.06966,-7.06966z" fill="url(#color-1)" fill-rule="evenodd" stroke="#8800ff" stroke-width="0.5" stroke-linecap="round" stroke-linejoin="round"/><g data-paper-data="{&quot;index&quot;:null}" fill-rule="nonzero" stroke="#000000" stroke-width="0" stroke-linecap="butt" stroke-linejoin="miter"><path d="M247.47399,185.81412l4.45073,-9.98427l1.04597,0.46626l-4.45073,9.98427z" fill="url(#color-2)"/><path d="M251.32445,178.58282c-1.39167,-0.62037 -2.01693,-2.25145 -1.39656,-3.64312c0.62037,-1.39167 2.25145,-2.01693 3.64312,-1.39656c1.39167,0.62037 2.01693,2.25145 1.39656,3.64312c-0.62037,1.39167 -2.25145,2.01693 -3.64312,1.39656z" fill="url(#color-3)"/></g><g fill-rule="nonzero" stroke="#000000" stroke-width="0" stroke-linecap="butt" stroke-linejoin="miter"><path d="M231.48006,186.69664l-4.45073,-9.98427l1.04597,-0.46626l4.45073,9.98427z" fill="url(#color-4)"/><path d="M225.03246,177.6025c-0.62037,-1.39167 0.00489,-3.02275 1.39656,-3.64312c1.39167,-0.62037 3.02275,0.00489 3.64312,1.39656c0.62037,1.39167 -0.00489,3.02275 -1.39656,3.64312c-1.39167,0.62037 -3.02275,-0.00489 -3.64312,-1.39656z" fill="url(#color-5)"/></g><path d="M228.60026,187.27441c0,-5.6464 4.8763,-10.22371 10.89152,-10.22371c6.01522,0 10.89153,4.57732 10.89153,10.22371" fill="url(#color-6)" fill-rule="nonzero" stroke="#000000" stroke-width="0" stroke-linecap="butt" stroke-linejoin="miter"/><path d="M241.83493,178.18464l2.26435,2.42052l-3.51365,-0.93697l0.50753,2.14723l-5.1924,-3.04517" data-paper-data="{&quot;index&quot;:null}" fill="url(#color-7)" fill-rule="nonzero" stroke="#000000" stroke-width="0.25" stroke-linecap="round" stroke-linejoin="miter"/></g></g></svg>