<svg version="1.1" xmlns="http://www.w3.org/2000/svg" xmlns:xlink="http://www.w3.org/1999/xlink" width="327.43697" height="364.16588" viewBox="0,0,327.43697,364.16588"><defs><linearGradient x1="342.7935" y1="95.44659" x2="329.32024" y2="140.43364" gradientUnits="userSpaceOnUse" id="color-1"><stop offset="0" stop-color="#999999"/><stop offset="1" stop-color="#b58989"/></linearGradient><linearGradient x1="299.34062" y1="148.76789" x2="261.46963" y2="275.21863" gradientUnits="userSpaceOnUse" id="color-2"><stop offset="0" stop-color="#392500"/><stop offset="1" stop-color="#6a4800"/></linearGradient><linearGradient x1="295.46386" y1="164.11194" x2="286.37865" y2="194.44733" gradientUnits="userSpaceOnUse" id="color-3"><stop offset="0" stop-color="#1a0000"/><stop offset="1" stop-color="#800000"/></linearGradient><linearGradient x1="328.06451" y1="42.1001" x2="323.76981" y2="56.44007" gradientUnits="userSpaceOnUse" id="color-4"><stop offset="0" stop-color="#2c2300"/><stop offset="1" stop-color="#6b5400"/></linearGradient><linearGradient x1="326.57209" y1="50.1174" x2="319.86098" y2="72.52573" gradientUnits="userSpaceOnUse" id="color-5"><stop offset="0" stop-color="#634e00"/><stop offset="1" stop-color="#070600"/></linearGradient><linearGradient x1="323.53691" y1="64.30006" x2="316.82579" y2="86.70839" gradientUnits="userSpaceOnUse" id="color-6"><stop offset="0" stop-color="#2c2300"/><stop offset="1" stop-color="#6b5400"/></linearGradient><linearGradient x1="321.21365" y1="77.0841" x2="313.08469" y2="104.22658" gradientUnits="userSpaceOnUse" id="color-7"><stop offset="0" stop-color="#634e00"/><stop offset="1" stop-color="#070600"/></linearGradient><linearGradient x1="294.55646" y1="155.81644" x2="290.26175" y2="170.15641" gradientUnits="userSpaceOnUse" id="color-8"><stop offset="0" stop-color="#2c2300"/><stop offset="1" stop-color="#6b5400"/></linearGradient><linearGradient x1="299.455" y1="138.70276" x2="292.74389" y2="161.1111" gradientUnits="userSpaceOnUse" id="color-9"><stop offset="0" stop-color="#000000"/><stop offset="1" stop-color="#493900"/></linearGradient><linearGradient x1="304.71541" y1="125.18654" x2="298.00429" y2="147.59486" gradientUnits="userSpaceOnUse" id="color-10"><stop offset="0" stop-color="#2c2300"/><stop offset="1" stop-color="#6b5400"/></linearGradient><linearGradient x1="311.2196" y1="108.49587" x2="303.09064" y2="135.63835" gradientUnits="userSpaceOnUse" id="color-11"><stop offset="0" stop-color="#000000"/><stop offset="1" stop-color="#493900"/></linearGradient><linearGradient x1="317.52014" y1="92.10277" x2="309.39118" y2="119.24524" gradientUnits="userSpaceOnUse" id="color-12"><stop offset="0" stop-color="#2c2300"/><stop offset="1" stop-color="#6b5400"/></linearGradient><linearGradient x1="317.52014" y1="92.10277" x2="309.39118" y2="119.24524" gradientUnits="userSpaceOnUse" id="color-13"><stop offset="0" stop-color="#2c2300"/><stop offset="1" stop-color="#6b5400"/></linearGradient><linearGradient x1="333.52606" y1="127.05652" x2="324.92012" y2="155.79166" gradientUnits="userSpaceOnUse" id="color-14"><stop offset="0" stop-color="#1a0000"/><stop offset="1" stop-color="#800000"/></linearGradient></defs><g transform="translate(-76.28151,2.08294)"><g data-paper-data="{&quot;isPaintingLayer&quot;:true}" fill-rule="nonzero" stroke-linejoin="miter" stroke-miterlimit="10" stroke-dasharray="" stroke-dashoffset="0" style="mix-blend-mode: normal"><path d="M329.32024,140.43364c-12.42283,-3.72054 -19.47743,-16.80733 -15.75689,-29.23016c3.72054,-12.42283 16.80733,-19.47743 29.23016,-15.75689c12.42283,3.72054 19.47743,16.80733 15.75689,29.23016c-3.72054,12.42283 -16.80733,19.47743 -29.23016,15.75689z" data-paper-data="{&quot;index&quot;:null}" fill="url(#color-1)" stroke="#000000" stroke-width="0" stroke-linecap="butt"/><path d="M336.52973,128.96856c-8.74433,-2.61886 -13.71,-11.83054 -11.09114,-20.57487c2.61886,-8.74434 11.83055,-13.71001 20.57486,-11.09115c8.74433,2.61886 13.71,11.83054 11.09114,20.57487c-2.61886,8.74434 -11.83055,13.71001 -20.57486,11.09115z" data-paper-data="{&quot;index&quot;:null}" fill="#000000" stroke="none" stroke-width="0" stroke-linecap="butt"/><path d="M229.61747,265.67914l52.33194,-121.95496l36.24014,10.68882l-24.86775,130.3451z" data-paper-data="{&quot;index&quot;:null}" fill="url(#color-2)" stroke="#000000" stroke-width="0" stroke-linecap="butt"/><path d="M269.07337,193.2661c-2.64431,-0.49744 9.54636,-34.19885 9.54636,-34.19885l33.68827,10.08937c0,0 -11.63274,40.90828 -13.91541,40.07327c-2.02325,-0.74011 5.34967,-24.62114 3.25946,-25.18203c-2.7051,-0.72587 -4.03325,9.02017 -5.66311,8.18922c-2.56003,-1.30517 -2.62072,6.92958 -4.91834,6.43899c-2.43165,-0.51922 6.97471,-22.6993 5.47039,-23.47951c-2.42075,-1.25553 -6.31101,15.01537 -8.10816,14.17846c-1.86894,-0.87033 -0.04781,-10.7305 -1.36109,-12.22733c-2.11054,-2.40553 -9.47795,28.91534 -11.18706,27.83909c-1.57892,-0.99427 5.4772,-22.60035 3.80962,-23.06816c-2.1737,-0.6098 2.38989,-10.38251 1.68037,-10.98034c-1.22016,-1.02811 -9.61198,22.83375 -12.30131,22.32784z" data-paper-data="{&quot;index&quot;:null}" fill="url(#color-3)" stroke="none" stroke-width="0" stroke-linecap="butt"/><path d="M311.09505,153.49542l-24.05399,-7.20398" data-paper-data="{&quot;index&quot;:null}" fill="none" stroke="#000000" stroke-width="2" stroke-linecap="round"/><g stroke="#000000" stroke-width="0" stroke-linecap="butt"><path d="M323.76981,56.44007c-17.36524,-5.20075 -30.3066,-13.20963 -28.90538,-17.8883c1.40122,-4.67867 16.02812,-1.59454 33.39335,3.60621c17.36524,5.20075 30.89294,10.5487 29.49171,15.22737c-1.40122,4.67867 -16.61445,4.25547 -33.97968,-0.94528z" data-paper-data="{&quot;index&quot;:null}" fill="url(#color-4)"/><g><path d="M319.86098,72.52573c-27.13574,-8.12694 -47.35856,-20.64198 -45.16893,-27.9531c2.18962,-7.31112 25.04629,-2.49171 52.18204,5.63523c27.13575,8.12694 48.27478,16.48391 46.08516,23.79502c-2.18962,7.31112 -25.96253,6.64979 -53.09828,-1.47715z" data-paper-data="{&quot;index&quot;:null}" fill="url(#color-5)"/><path d="M316.82578,86.70839c-29.95133,-8.97019 -52.45661,-22.1688 -50.26698,-29.47993c2.18962,-7.31112 27.36011,-1.79875 57.31145,7.17144c29.95133,8.97019 53.34151,18.00135 51.15188,25.31248c-2.18962,7.31112 -28.24501,5.9662 -58.19635,-3.00399z" data-paper-data="{&quot;index&quot;:null}" fill="url(#color-6)"/><path d="M313.08469,104.22658c-32.86866,-9.84391 -57.36391,-25.00296 -54.71169,-33.85869c2.65222,-8.85574 30.33778,-3.01815 63.20645,6.82576c32.86866,9.84391 58.47371,19.96644 55.82149,28.82217c-1.30059,4.34264 -8.88778,6.36313 -20.15911,6.13385c-2.68296,-8.9728 -14.29528,-18.00658 -23.13945,-17.50688c-1.78388,0.10079 -4.07711,0.20731 -5.75344,0.95115c-1.21202,0.53781 -3.60061,2.73286 -4.87871,2.79843c-2.91902,0.14974 -6.01517,2.35734 -7.5743,4.74907c-0.24561,0.37676 -0.49336,0.96466 -0.73044,1.6979c-0.69164,-0.20019 -1.3853,-0.40444 -2.0808,-0.61273z" data-paper-data="{&quot;index&quot;:null}" fill="url(#color-7)"/></g><path d="M323.46179,173.70471c-1.40122,4.67867 -15.6416,1.71031 -33.00683,-3.49044c-17.36524,-5.20075 -31.27945,-10.66447 -29.87823,-15.34314c1.40122,-4.67867 16.61446,-4.25546 33.97968,0.94529c17.36524,5.20075 30.30661,13.20961 28.90538,17.88829z" fill="url(#color-8)"/><path d="M344.62386,166.65583c-2.18962,7.31112 -24.4423,2.67262 -51.57804,-5.45432c-27.13574,-8.12694 -48.87878,-16.66481 -46.68916,-23.97593c2.18962,-7.31112 25.96253,-6.64979 53.09828,1.47715c27.13574,8.12694 47.35856,20.64198 45.16893,27.9531z" fill="url(#color-9)"/><path d="M354.98235,154.66645c-2.18962,7.31112 -26.69345,1.99842 -56.64478,-6.97176c-29.95133,-8.97019 -54.00818,-18.20102 -51.81855,-25.51215c2.18962,-7.31112 28.245,-5.96621 58.19633,3.00398c3.52731,1.0564 6.95136,2.17145 10.24396,3.32862c2.13155,3.63032 6.41485,7.64641 8.86431,8.37313c1.94376,0.57669 4.01981,0.54231 6.01583,0.89831c1.9121,0.34104 4.70463,0.49497 7.6837,0.34054c11.80424,6.1776 18.71901,12.3329 17.45922,16.53933z" fill="url(#color-10)"/><path d="M365.93123,142.35455c-2.65222,8.85573 -29.60618,3.23725 -62.47485,-6.60666c-32.86866,-9.84391 -59.2053,-20.18554 -56.55307,-29.04126c2.65222,-8.85573 31.44757,-8.05468 64.31624,1.78922c0.97848,0.29305 1.94955,0.5908 2.91269,0.89296c-0.32533,2.02344 -0.52836,4.18537 -0.51307,5.99342c-0.33073,0.74109 -0.63816,1.53761 -0.92812,2.44573c-0.62951,1.97154 1.46,4.82727 1.07196,6.31216c-0.95695,3.66183 6.4949,11.69025 10.06062,12.74816c1.94376,0.57669 4.01981,0.54231 6.01583,0.89831c5.67423,1.01205 19.10184,0.37635 22.14901,-5.07572c0.66042,-1.18163 1.20262,-2.42956 1.63283,-3.72347c0.36948,-0.44996 0.71716,-0.9187 1.04217,-1.40394c8.13364,5.49548 12.46454,10.77501 11.26775,14.77107z" fill="url(#color-11)"/><path d="M247.0288,88.46414c2.65222,-8.85574 34.21225,-7.22666 70.49134,3.63864c3.71542,1.11274 7.33623,2.27919 10.84002,3.48621c-0.00374,0.00165 -0.00747,0.00331 -0.01121,0.00496c-1.21202,0.53781 -3.60061,2.73286 -4.87871,2.79843c-2.91902,0.14974 -1.70759,3.64743 -3.26672,6.03916c-1.13353,1.73886 -6.62039,6.68475 -6.58431,10.95073c-0.33073,0.74109 -0.63816,1.53761 -0.92812,2.44573c-0.23377,0.73215 -0.09257,1.58623 0.15746,2.44676c-1.01231,-0.29917 -2.03033,-0.60211 -3.05359,-0.90857h-0.00001c-36.27908,-10.8653 -65.41836,-22.0463 -62.76614,-30.90203z" fill="url(#color-12)"/><path d="M378.4069,127.81084c-1.4519,4.84786 -11.0036,5.11343 -25.30354,2.57837c0.18786,-0.46044 0.3604,-0.92805 0.51792,-1.40182c3.28225,-3.99723 4.84444,-9.47583 4.06562,-14.84432c-0.38435,-2.64937 -1.6348,-5.36709 -3.44392,-7.901c16.12199,7.98688 25.79425,16.12515 24.16392,21.56879z" fill="url(#color-13)"/></g><path d="M296.56204,104.3698c-2.81307,9.3928 -11.41348,15.11439 -19.20956,12.77953c-7.79606,-2.33486 -11.83559,-11.84201 -9.02252,-21.23481c2.81307,-9.3928 11.41347,-15.1144 19.20954,-12.77953c7.79606,2.33486 11.8356,11.84202 9.02254,21.23482z" fill="#000000" stroke="#000000" stroke-width="0" stroke-linecap="butt"/><path d="M323.33573,203.90314l-19.64289,-10.77196l22.12238,0.10675z" data-paper-data="{&quot;index&quot;:null}" fill="#000000" stroke="none" stroke-width="1" stroke-linecap="butt"/><path d="M232.23423,214.50183l22.09986,-1.0036l-19.19,11.5595z" data-paper-data="{&quot;index&quot;:null}" fill="#000000" stroke="none" stroke-width="1" stroke-linecap="butt"/><path d="M312.5381,123.72845c0,0 11.73562,12.14202 18.808,13.73279c5.957,1.33989 20.85724,-4.81103 20.85724,-4.81103c0,0 0.24456,17.93176 -10.16006,20.62128c-0.41179,0.10644 3.03146,-9.81039 3.03146,-9.81039c0,0 -3.70581,7.49758 -4.61633,7.17742c-1.20934,-0.42523 0.15086,-6.50695 -0.4878,-6.82934c-0.8778,-0.4431 -3.21008,6.8385 -4.46703,6.95709c-1.33808,0.12624 -0.73121,-4.96841 -2.02839,-5.00645c-0.75195,-0.02205 -4.54986,8.5767 -5.32657,8.52564c-0.33168,-0.02181 0.2709,-4.46798 -0.71653,-5.3052c-0.57749,-0.48964 -2.89499,2.93858 -3.09415,2.10304c-0.53641,-2.2503 1.13409,-5.85998 0.19283,-6.37255c-1.38322,-0.75325 -3.95132,6.13064 -5.09253,5.00053c-2.4293,-2.40566 -3.4725,-5.73588 -3.4725,-5.73588c0,0 -3.98088,7.78838 -6.66854,7.13731c0,0 1.67134,-5.76919 2.21703,-10.37992c0.5344,-4.51535 1.0239,-17.00431 1.0239,-17.00431z" fill="url(#color-14)" stroke="#000000" stroke-width="0" stroke-linecap="butt"/><path d="M76.28151,362.08294v-364.16588h327.43697v364.16588z" fill-opacity="0.01" fill="#000000" stroke="none" stroke-width="0" stroke-linecap="butt"/></g></g></svg>