<svg version="1.1" xmlns="http://www.w3.org/2000/svg" xmlns:xlink="http://www.w3.org/1999/xlink" width="186.34736" height="318.90126" viewBox="0,0,186.34736,318.90126"><g transform="translate(-146.87801,5.28874)"><g data-paper-data="{&quot;isPaintingLayer&quot;:true}" fill-rule="nonzero" stroke-linejoin="miter" stroke-miterlimit="10" stroke-dasharray="" stroke-dashoffset="0" style="mix-blend-mode: normal"><path d="M179.28373,313.61252v-267.22501h123.18203v267.22501z" fill-opacity="0.01" fill="#000000" stroke="none" stroke-width="0" stroke-linecap="butt"/><path d="M206.75005,307.5l15.14285,-131.8421l37.78325,-0.15789l13.57389,132z" fill="#89cff1" stroke="#000000" stroke-width="2" stroke-linecap="butt"/><path d="M219.70027,204.11263l3.12142,-26.32765l35.83075,-0.14203l2.76735,26.1059c0,0 -7.51543,4.19603 -21.55904,4.50964c-12.48458,0.27879 -20.16049,-4.14586 -20.16049,-4.14586z" fill="#7bb9d8" stroke="#000000" stroke-width="0" stroke-linecap="butt"/><path d="M175.83995,137.17949c0,-33.30185 28.7599,-60.29833 64.23702,-60.29833c35.47712,0 64.23702,26.99649 64.23702,60.29833c0,33.30185 -28.7599,60.29833 -64.23702,60.29833c-35.47712,0 -64.23702,-26.99649 -64.23702,-60.29833z" fill="#89cff1" stroke="#000000" stroke-width="2" stroke-linecap="butt"/><path d="M176.56305,136.9c0,-0.72799 5.20666,55.91939 63.36046,56.93429c55.56352,0.9697 63.51358,-57.95314 63.51358,-56.93429c0,32.80479 -28.40173,59.39833 -63.43702,59.39833c-35.03529,0 -63.43702,-26.59354 -63.43702,-59.39833z" fill="#7bb9d8" stroke="#000000" stroke-width="0" stroke-linecap="butt"/><path d="M189.39018,137.27563c0,-12.968 10.51265,-23.48065 23.48065,-23.48065c12.968,0 23.48065,10.51265 23.48065,23.48065c0,12.968 -10.51265,23.48065 -23.48065,23.48065c-12.968,0 -23.48065,-10.51265 -23.48065,-23.48065z" fill="#ffffff" stroke="#000000" stroke-width="2" stroke-linecap="butt"/><path d="M196.45555,137c0,-9.12808 7.39976,-16.52784 16.52783,-16.52784c9.12808,0 16.52784,7.39977 16.52784,16.52784c0,9.12808 -7.39977,16.52784 -16.52784,16.52784c-9.12808,0 -16.52783,-7.39977 -16.52783,-16.52784z" fill="#000000" stroke="none" stroke-width="0" stroke-linecap="butt"/><path d="M227.50704,176.65643h25.10959" fill="none" stroke="#000000" stroke-width="2" stroke-linecap="round"/><path d="M267.12926,160.75627c-12.968,0 -23.48065,-10.51265 -23.48065,-23.48065c0,-12.968 10.51265,-23.48065 23.48065,-23.48065c12.968,0 23.48065,10.51265 23.48065,23.48065c0,12.968 -10.51265,23.48065 -23.48065,23.48065z" data-paper-data="{&quot;index&quot;:null}" fill="#ffffff" stroke="#000000" stroke-width="2" stroke-linecap="butt"/><path d="M267.01669,153.52784c-9.12807,0 -16.52783,-7.39977 -16.52783,-16.52784c0,-9.12808 7.39977,-16.52784 16.52783,-16.52784c9.12807,0 16.52783,7.39977 16.52783,16.52784c0,9.12808 -7.39977,16.52784 -16.52783,16.52784z" data-paper-data="{&quot;index&quot;:null}" fill="#000000" stroke="none" stroke-width="0" stroke-linecap="butt"/><path d="M189.39018,137.27563c0,-12.968 10.51265,-23.48065 23.48065,-23.48065c12.968,0 23.48065,10.51265 23.48065,23.48065c0,0 -46.96131,1.23155 -46.96131,0z" fill="#89cff1" stroke="#000000" stroke-width="2" stroke-linecap="butt"/><path d="M243.64862,137.27563c0,-12.968 10.51265,-23.48065 23.48065,-23.48065c12.968,0 23.48065,10.51265 23.48065,23.48065c0,1.2138 -46.96131,0 -46.96131,0z" data-paper-data="{&quot;index&quot;:null}" fill="#89cff1" stroke="#000000" stroke-width="2" stroke-linecap="butt"/><path d="M202.02786,108.46716c0,0 6.70895,-5.16922 11.79722,-6.36355c5.08827,-1.19433 12.33413,0.69937 12.33413,0.69937c0,0 -8.03812,-0.06028 -11.96762,0.86207c-4.10648,0.96388 -12.16372,4.80211 -12.16372,4.80211z" fill="#000000" stroke="none" stroke-width="0" stroke-linecap="butt"/><path d="M265.96236,103.66506c-3.9295,-0.92235 -11.96762,-0.86207 -11.96762,-0.86207c0,0 7.24586,-1.8937 12.33413,-0.69937c5.08826,1.19433 11.79721,6.36355 11.79721,6.36355c0,0 -8.05724,-3.83822 -12.16372,-4.80211z" data-paper-data="{&quot;index&quot;:null}" fill="#000000" stroke="none" stroke-width="0" stroke-linecap="butt"/><path d="M237.05393,77.62004c0,0 13.33113,-8.10062 13.58333,1.21301c0.22781,8.41273 -5.03385,4.90057 -6.76135,9.55697c-1.45075,3.91042 5.65281,2.16719 6.42377,8.67609c1.36163,11.49568 -9.74575,9.22926 -9.74575,9.22926" fill="#89cff1" stroke="#000000" stroke-width="2" stroke-linecap="round"/><g stroke="#000000" stroke-width="2" stroke-linecap="butt"><path d="M303.25616,121.82812c0,0 13.88382,-20.34405 17.03597,-32.86507c2.80797,-11.1539 -2.53597,-50.63493 -2.53597,-50.63493l9,-0.5c0,0 8.02078,36.9484 4.63593,50.78868c-4.00902,16.39241 -26.63593,53.21132 -26.63593,53.21132z" data-paper-data="{&quot;index&quot;:null}" fill="#c7ecff"/><path d="M306.00616,-3.17189c7.27382,-4.24586 12.75,3.65532 20.75,23c6.43737,15.56611 6.6528,36.42661 -1.75,37c-14.65462,1 -6.57991,-8.67111 -14.25,-32.5c-5.23286,-16.25707 -14.17234,-22 -4.75,-27.5z" data-paper-data="{&quot;index&quot;:null}" fill="#ffffff"/></g><g stroke="#000000" stroke-width="2" stroke-linecap="butt"><path d="M175.34721,142.32812c0,0 -22.62691,-36.81891 -26.63592,-53.21132c-3.38485,-13.84028 4.63592,-50.78868 4.63592,-50.78868l9,0.5c0,0 -5.34394,39.48103 -2.53596,50.63493c3.15214,12.52102 17.03596,32.86507 17.03596,32.86507z" fill="#c7ecff"/><path d="M169.34721,24.82812c-7.67009,23.82889 0.40462,33.5 -14.25,32.5c-8.4028,-0.57339 -8.18737,-21.43389 -1.75,-37c8,-19.34468 13.47618,-27.24587 20.75,-23c9.42234,5.5 0.48286,11.24293 -4.75,27.5z" fill="#ffffff"/></g></g></g></svg>