<svg version="1.1" xmlns="http://www.w3.org/2000/svg" xmlns:xlink="http://www.w3.org/1999/xlink" width="130.47404" height="267.22501" viewBox="0,0,130.47404,267.22501"><g transform="translate(-161.40976,-60.49792)"><g data-paper-data="{&quot;isPaintingLayer&quot;:true}" fill-rule="nonzero" stroke-linejoin="miter" stroke-miterlimit="10" stroke-dasharray="" stroke-dashoffset="0" style="mix-blend-mode: normal"><path d="M206.75005,307.50001l15.14285,-131.8421l37.78325,-0.15789l13.57389,132z" fill="#009fac" stroke="#000000" stroke-width="2" stroke-linecap="butt"/><path d="M219.70027,204.11265l3.12142,-26.32765l35.83075,-0.14203l2.76735,26.1059c0,0 -7.51543,4.19603 -21.55904,4.50964c-12.48458,0.27879 -20.16049,-4.14586 -20.16049,-4.14586z" fill="#008793" stroke="#000000" stroke-width="0" stroke-linecap="butt"/><g><path d="M165.85354,327.72293v-267.22501h123.18203v267.22501z" fill-opacity="0.01" fill="#000000" stroke="none" stroke-width="0" stroke-linecap="butt"/><path d="M240.03438,92.83556l26.75699,-7.77409l-3.68922,11.74492l25.39052,-5.65809l-13.73323,25.82482" fill="#009fac" stroke="#000000" stroke-width="2" stroke-linecap="round"/><path d="M179.77093,117.14954l-13.73323,-25.82482l25.39053,5.65809l-3.68922,-11.74492l26.75699,7.7741" data-paper-data="{&quot;index&quot;:null}" fill="#009fac" stroke="#000000" stroke-width="2" stroke-linecap="round"/><path d="M162.40976,151.2899c0,-33.30185 28.7599,-60.29833 64.23702,-60.29833c35.47712,0 64.23702,26.99649 64.23702,60.29833c0,33.30185 -28.7599,60.29833 -64.23702,60.29833c-35.47712,0 -64.23702,-26.99649 -64.23702,-60.29833z" fill="#009fac" stroke="#000000" stroke-width="2" stroke-linecap="butt"/><path d="M163.13288,151.01041c0,-0.72799 5.20666,55.91939 63.36046,56.93429c55.56352,0.9697 63.51358,-57.95314 63.51358,-56.93429c0,32.80479 -28.40173,59.39833 -63.43702,59.39833c-35.03529,0 -63.43702,-26.59354 -63.43702,-59.39833z" fill="#008793" stroke="#000000" stroke-width="0" stroke-linecap="butt"/><path d="M175.95999,151.38604c0,-12.968 10.51265,-23.48065 23.48065,-23.48065c12.968,0 23.48065,10.51265 23.48065,23.48065c0,12.968 -10.51265,23.48065 -23.48065,23.48065c-12.968,0 -23.48065,-10.51265 -23.48065,-23.48065z" fill="#ffffff" stroke="#000000" stroke-width="2" stroke-linecap="butt"/><path d="M253.69907,174.86668c-12.968,0 -23.48065,-10.51265 -23.48065,-23.48065c0,-12.968 10.51265,-23.48065 23.48065,-23.48065c12.968,0 23.48065,10.51265 23.48065,23.48065c0,12.968 -10.51265,23.48065 -23.48065,23.48065z" data-paper-data="{&quot;index&quot;:null}" fill="#ffffff" stroke="#000000" stroke-width="2" stroke-linecap="butt"/><path d="M184.52536,151.11041c0,-8.29964 6.72818,-15.02784 15.02783,-15.02784c8.29964,0 15.02784,6.72819 15.02784,15.02785c0,8.29964 -6.72819,15.02785 -15.02784,15.02785c-8.29964,0 -15.02783,-6.72819 -15.02783,-15.02785z" fill="none" stroke="#000000" stroke-width="5" stroke-linecap="butt"/><path d="M268.61432,151.11041c0,8.29966 -6.72818,15.02785 -15.02783,15.02785c-8.29964,0 -15.02784,-6.72821 -15.02784,-15.02785c0,-8.29966 6.7282,-15.02785 15.02784,-15.02785c8.29964,0 15.02783,6.7282 15.02783,15.02784z" data-paper-data="{&quot;index&quot;:null}" fill="#0040ff" stroke="#000000" stroke-width="5" stroke-linecap="butt"/><path d="M175.95999,151.38604c0,-12.968 10.51265,-23.48065 23.48065,-23.48065c12.968,0 23.48065,10.51265 23.48065,23.48065c0,0 -46.96131,1.23155 -46.96131,0z" fill="#515151" stroke="#000000" stroke-width="2" stroke-linecap="butt"/><path d="M230.21843,151.38604c0,-12.968 10.51265,-23.48065 23.48065,-23.48065c12.968,0 23.48065,10.51265 23.48065,23.48065c0,1.2138 -46.96131,0 -46.96131,0z" data-paper-data="{&quot;index&quot;:null}" fill="#515151" stroke="#000000" stroke-width="2" stroke-linecap="butt"/><path d="M188.59769,122.57757c0,0 6.70895,-5.16922 11.79722,-6.36355c5.08827,-1.19433 12.33413,0.69937 12.33413,0.69937c0,0 -8.03812,-0.06028 -11.96762,0.86207c-4.10648,0.96388 -12.16372,4.80211 -12.16372,4.80211z" fill="#000000" stroke="none" stroke-width="0" stroke-linecap="butt"/><path d="M252.53217,117.77547c-3.9295,-0.92235 -11.96762,-0.86207 -11.96762,-0.86207c0,0 7.24586,-1.8937 12.33413,-0.69937c5.08826,1.19433 11.79721,6.36355 11.79721,6.36355c0,0 -8.05724,-3.83822 -12.16372,-4.80211z" data-paper-data="{&quot;index&quot;:null}" fill="#000000" stroke="none" stroke-width="0" stroke-linecap="butt"/><g stroke="#000000" stroke-width="2" stroke-linecap="butt"><path d="M252.34944,115.67842c1.8063,46.17332 1.29764,44.59324 -5.68642,44.77377c-7.69227,0.19883 -5.28562,-6.65741 -5.86248,-37.44479c-0.34579,-18.45472 -2.6129,-39.89146 -3.03857,-40.04414c-3.64553,-1.30756 -3.3829,2.65201 -6.97967,7.56499c-0.77328,1.05626 -4.29428,0.21982 -8.03031,0.29539c-2.82097,0.05706 -6.18895,1.44287 -6.18895,-0.018c0,-0.66147 6.41567,-21.82948 16.6912,-21.82948c10.54598,0 17.42745,4.07085 19.09519,46.70227z" fill="#8d8d8d"/><path d="M237.34744,182.26993c-4.24996,-5.62901 -4.94842,-17.38252 0.68059,-24.83806c5.62901,-7.45554 13.7429,-6.34945 17.99286,-0.72044c4.24996,5.62901 7.06373,19.09327 1.32108,26.69933c-2.0305,2.68937 -7.63574,2.83701 -10.28869,3.208c-4.85009,0.67824 -6.95858,-0.71014 -9.70583,-4.34882z" fill="#272727"/></g></g><path d="M225.50065,197.00608c-6.44738,0 -12.24271,-11.79016 -12.24271,-11.79016h25.10959c0,0 -6.4195,11.79016 -12.86688,11.79016z" fill="#000000" stroke="#000000" stroke-width="2" stroke-linecap="round"/></g></g></svg>