<svg version="1.1" xmlns="http://www.w3.org/2000/svg" xmlns:xlink="http://www.w3.org/1999/xlink" width="230.82471" height="307.29912" viewBox="0,0,230.82471,307.29912"><g transform="translate(-128.7142,-7.59433)"><g data-paper-data="{&quot;isPaintingLayer&quot;:true}" fill-rule="nonzero" stroke-linecap="butt" stroke-linejoin="miter" stroke-miterlimit="10" stroke-dasharray="" stroke-dashoffset="0" style="mix-blend-mode: normal"><path d="M178.52852,314.89346v-267.22501h123.18203v267.22501z" fill-opacity="0.01" fill="#000000" stroke="none" stroke-width="0"/><path d="M300.60238,138.2001c-9.33149,5.94822 -21.45836,3.61309 -27.08613,-5.21567c-5.62777,-8.82876 -2.62529,-20.80787 6.70619,-26.75609c9.33149,-5.94823 76.20956,-26.09736 76.20956,-26.09736c0,0 -46.49813,52.12089 -55.82961,58.06911z" fill="#d98000" stroke="#000000" stroke-width="2"/><path d="M286.09067,114.24653c-4.97325,7.11985 -14.4657,9.07722 -21.20198,4.3719c-6.73627,-4.70531 -8.16549,-14.29152 -3.19222,-21.41138c4.97325,-7.11986 47.38249,-41.85269 47.38249,-41.85269c0,0 -18.01504,51.7723 -22.9883,58.89215z" fill="#d98000" stroke="#000000" stroke-width="2"/><path d="M187.65073,139.20403c-9.33149,-5.94822 -55.82962,-58.0691 -55.82962,-58.0691c0,0 66.87807,20.14913 76.20956,26.09736c9.33149,5.94823 12.33397,17.92734 6.7062,26.75609c-5.62777,8.82875 -17.75465,11.16388 -27.08613,5.21566z" fill="#d98000" stroke="#000000" stroke-width="2"/><path d="M191.70287,100.26452c-3.26457,-6.20856 -12.46062,-49.51772 -12.46062,-49.51772c0,0 30.46798,32.12401 33.73255,38.33259c3.26457,6.20857 1.14914,13.74549 -4.72494,16.83418c-5.87409,3.08868 -13.28242,0.55952 -16.547,-5.64904z" fill="#d98000" stroke="#000000" stroke-width="2"/><path d="M209.82589,82.79878c1.1877,-11.00215 31.53352,-72.91461 31.53352,-72.91461c0,0 31.0872,64.66083 29.89949,75.66298c-1.18772,11.00216 -22.55771,21.95896 -32.96712,20.83523c-10.40941,-1.12373 -29.6536,-12.58145 -28.46589,-23.5836z" fill="#d98000" stroke="#000000" stroke-width="2"/><path d="M206.75005,307.50003l15.14285,-131.8421l37.78325,-0.15789l13.57389,132z" fill="#ffb650" stroke="#000000" stroke-width="2"/><path d="M219.70027,204.11266l3.12142,-26.32765l35.83075,-0.14203l2.76735,26.1059c0,0 -7.51543,4.19603 -21.55904,4.50964c-12.48458,0.27879 -20.16049,-4.14586 -20.16049,-4.14586z" fill="#d69842" stroke="#000000" stroke-width="0"/><path d="M175.95948,138.46047c0,-33.30185 28.7599,-60.29833 64.23702,-60.29833c35.47712,0 64.23702,26.99649 64.23702,60.29833c0,33.30185 -28.7599,60.29833 -64.23702,60.29833c-35.47712,0 -64.23702,-26.99649 -64.23702,-60.29833z" fill="#ffb650" stroke="#000000" stroke-width="2"/><path d="M176.84287,138.02093c0,-0.72799 5.20666,55.91939 63.36046,56.93429c55.56352,0.9697 63.51358,-57.95314 63.51358,-56.93429c0,32.80479 -28.40173,59.39833 -63.43702,59.39833c-35.03529,0 -63.43702,-26.59354 -63.43702,-59.39833z" fill="#d69842" stroke="#000000" stroke-width="0"/><path d="M189.50971,138.5566c0,-12.968 10.51265,-23.48065 23.48065,-23.48065c12.968,0 23.48065,10.51265 23.48065,23.48065c0,12.968 -10.51265,23.48065 -23.48065,23.48065c-12.968,0 -23.48065,-10.51265 -23.48065,-23.48065z" fill="#ffffff" stroke="#000000" stroke-width="2"/><path d="M196.57508,138.28095c0,-9.12808 7.39976,-16.52784 16.52783,-16.52784c9.12808,0 16.52784,7.39977 16.52784,16.52784c0,9.12808 -7.39977,16.52784 -16.52784,16.52784c-9.12808,0 -16.52783,-7.39977 -16.52783,-16.52784z" fill="#000000" stroke="none" stroke-width="0"/><path d="M267.24879,162.03722c-12.968,0 -23.48065,-10.51265 -23.48065,-23.48065c0,-12.968 10.51265,-23.48065 23.48065,-23.48065c12.968,0 23.48065,10.51265 23.48065,23.48065c0,12.968 -10.51265,23.48065 -23.48065,23.48065z" data-paper-data="{&quot;index&quot;:null}" fill="#ffffff" stroke="#000000" stroke-width="2"/><path d="M267.13622,154.8088c-9.12807,0 -16.52783,-7.39977 -16.52783,-16.52784c0,-9.12808 7.39977,-16.52784 16.52783,-16.52784c9.12807,0 16.52783,7.39977 16.52783,16.52784c0,9.12808 -7.39977,16.52784 -16.52783,16.52784z" data-paper-data="{&quot;index&quot;:null}" fill="#000000" stroke="none" stroke-width="0"/><path d="M189.50971,138.5566c0,-12.968 10.51265,-23.48065 23.48065,-23.48065c12.968,0 23.48065,10.51265 23.48065,23.48065c0,0 -46.96131,1.23155 -46.96131,0z" fill="#ffb650" stroke="#000000" stroke-width="2"/><path d="M243.76815,138.5566c0,-12.968 10.51265,-23.48065 23.48065,-23.48065c12.968,0 23.48065,10.51265 23.48065,23.48065c0,1.2138 -46.96131,0 -46.96131,0z" data-paper-data="{&quot;index&quot;:null}" fill="#ffb650" stroke="#000000" stroke-width="2"/><path d="M202.14738,109.74814c0,0 6.70895,-5.16922 11.79722,-6.36355c5.08827,-1.19433 12.33413,0.69937 12.33413,0.69937c0,0 -8.03812,-0.06028 -11.96762,0.86207c-4.10648,0.96388 -12.16372,4.80211 -12.16372,4.80211z" fill="#000000" stroke="none" stroke-width="0"/><path d="M266.08189,104.94604c-3.9295,-0.92235 -11.96762,-0.86207 -11.96762,-0.86207c0,0 7.24586,-1.8937 12.33413,-0.69937c5.08826,1.19433 11.79721,6.36355 11.79721,6.36355c0,0 -8.05724,-3.83822 -12.16372,-4.80211z" data-paper-data="{&quot;index&quot;:null}" fill="#000000" stroke="none" stroke-width="0"/><path d="M225.94317,179.21265v-5.25034h28.11367z" fill="#000000" stroke="#000000" stroke-width="2"/></g></g></svg>