<svg version="1.1" xmlns="http://www.w3.org/2000/svg" xmlns:xlink="http://www.w3.org/1999/xlink" width="154.51372" height="267.22501" viewBox="0,0,154.51372,267.22501"><defs><linearGradient x1="240.00005" y1="175.50001" x2="240.00005" y2="307.50001" gradientUnits="userSpaceOnUse" id="color-1"><stop offset="0" stop-color="#121b00"/><stop offset="1" stop-color="#395700"/></linearGradient><linearGradient x1="239.75649" y1="62.33766" x2="239.75649" y2="203.36762" gradientUnits="userSpaceOnUse" id="color-2"><stop offset="0" stop-color="#121b00"/><stop offset="1" stop-color="#395700"/></linearGradient><linearGradient x1="189.14655" y1="167.52548" x2="209.98327" y2="145.33121" gradientUnits="userSpaceOnUse" id="color-3"><stop offset="0" stop-color="#1a0000"/><stop offset="1" stop-color="#800000"/></linearGradient><radialGradient cx="212.87082" cy="137.27563" r="23.48065" gradientUnits="userSpaceOnUse" id="color-4"><stop offset="0" stop-color="#808080"/><stop offset="1" stop-color="#804040"/></radialGradient><linearGradient x1="286.31041" y1="174.19215" x2="265.4737" y2="151.99788" gradientUnits="userSpaceOnUse" id="color-5"><stop offset="0" stop-color="#1a0000"/><stop offset="1" stop-color="#800000"/></linearGradient><linearGradient x1="280.81459" y1="103.04976" x2="280.81459" y2="146.24976" gradientUnits="userSpaceOnUse" id="color-6"><stop offset="0" stop-color="#1a0000"/><stop offset="1" stop-color="#800000"/></linearGradient><radialGradient cx="267.12926" cy="137.27562" r="23.48065" gradientUnits="userSpaceOnUse" id="color-7"><stop offset="0" stop-color="#808080"/><stop offset="1" stop-color="#804040"/></radialGradient></defs><g transform="translate(-149.36826,-46.38751)"><g data-paper-data="{&quot;isPaintingLayer&quot;:true}" fill-rule="nonzero" stroke-linejoin="miter" stroke-miterlimit="10" stroke-dasharray="" stroke-dashoffset="0" style="mix-blend-mode: normal"><path d="M179.28374,313.61252v-267.22501h123.18203v267.22501z" fill-opacity="0.01" fill="#000000" stroke="none" stroke-width="0" stroke-linecap="butt"/><path d="M206.75005,307.5l15.14285,-131.8421l37.78325,-0.15789l13.57389,132z" fill="url(#color-1)" stroke="#000000" stroke-width="0" stroke-linecap="butt"/><path d="M175.40795,136.74748c0,-10.28879 2.74523,-19.97571 7.58564,-28.45056c2.20256,-3.85635 -33.62533,-44.45565 -33.62533,-44.45565c0,0 45.22133,27.2565 47.28366,25.5116c11.38468,-9.63242 26.45941,-12.90372 42.99305,-12.90372c12.36582,0 23.91555,3.27987 33.71574,8.9634c3.19828,1.85481 16.87917,13.80602 19.97199,18.21458c6.66868,9.50564 10.54928,20.8876 10.54928,33.12036c0,6.58102 -1.12314,12.48379 -3.19933,18.41264c-1.03696,2.9612 -22.39195,31.46589 -26.21026,32.90912c-14.35807,5.42701 -14.40784,8.97657 -34.82744,8.97657c-13.85496,0 -26.68544,-4.11738 -37.17854,-11.11974c-4.55127,-3.0372 -23.63615,-27.65584 -26.17544,-35.10622c-1.97625,-5.79838 -0.88305,-7.65836 -0.88305,-14.07237z" fill="url(#color-2)" stroke="#000000" stroke-width="0" stroke-linecap="butt"/><path d="M214.73856,150.74437c0,0 -6.08431,8.11383 -7.59452,13.77944c-1.44067,5.40472 -4.26794,22.13512 -4.26794,22.13512c0,0 -9.5816,-8.58033 -14.99432,-14.27932c-4.45015,-4.68551 -10.83005,-21.47332 -10.83005,-21.47332c0,0 0.48349,-4.2803 1.80321,-6.36828c1.47166,-2.32839 5.28735,-5.62626 5.28735,-5.62626l-2.22208,8.20605c0,0 0.70066,-1.05131 1.58937,-1.89149c0.70614,-0.66759 1.53099,-1.20188 2.2174,-0.96959c1.25858,0.42593 0.38221,1.40937 -0.06697,2.66933c-0.33254,0.93279 -0.15251,2.28289 -0.15251,2.28289c0,0 0.68911,-2.55725 1.92552,-4.05528c0.98809,-1.19717 2.45862,-1.48469 3.22827,-0.9658c1.35474,0.91333 0.27126,2.00957 -0.20204,3.22262c-0.31849,0.81633 -0.1547,1.92003 0.43804,2.17266c1.47355,0.62804 1.77993,3.90298 1.77993,3.90298c0,0 0.30561,-3.46019 1.24414,-5.90123c1.29161,-3.3594 3.34642,-5.99325 3.50352,-5.94612c0.43025,0.12906 -0.72658,2.90641 -0.7324,5.33884c-0.00276,1.15287 0.5848,2.51808 1.10735,2.94979c0.69058,0.57054 0.24976,4.35465 0.24976,4.35465c0,0 1.26907,-0.70429 2.02372,-2.1518c0.8182,-1.56942 2.38831,-2.71791 3.3113,-1.75117c1.83869,1.92584 -0.56302,1.38029 -1.07225,4.07716c-0.57824,3.06237 -2.24285,5.9228 -2.24285,5.9228c0,0 5.89731,-1.76748 8.69914,-4.17059c1.82574,-1.56592 5.9699,-5.46408 5.9699,-5.46408z" data-paper-data="{&quot;index&quot;:null}" fill="url(#color-3)" stroke="#000000" stroke-width="0" stroke-linecap="butt"/><path d="M189.39017,137.27563c0,-12.968 10.51265,-23.48065 23.48065,-23.48065c12.968,0 23.48065,10.51265 23.48065,23.48065c0,12.968 -10.51265,23.48065 -23.48065,23.48065c-12.968,0 -23.48065,-10.51265 -23.48065,-23.48065z" fill="url(#color-4)" stroke="#000000" stroke-width="0" stroke-linecap="butt"/><path d="M260.71841,157.41103c0,0 4.14417,3.89816 5.96991,5.46408c2.80183,2.40311 8.69914,4.17059 8.69914,4.17059c0,0 -1.66462,-2.86044 -2.24285,-5.9228c-0.50922,-2.69688 -2.91094,-2.15132 -1.07225,-4.07716c0.92299,-0.96673 2.4931,0.18174 3.3113,1.75117c0.75466,1.44752 2.02372,2.1518 2.02372,2.1518c0,0 -0.44081,-3.78411 0.24976,-4.35464c0.52255,-0.43171 1.1101,-1.79692 1.10734,-2.94979c-0.00582,-2.43243 -1.16266,-5.20977 -0.7324,-5.33884c0.1571,-0.04712 2.21191,2.58672 3.50352,5.94612c0.93853,2.44105 1.24414,5.90123 1.24414,5.90123c0,0 0.30638,-3.27494 1.77993,-3.90298c0.59274,-0.25263 0.75655,-1.35633 0.43805,-2.17266c-0.4733,-1.21305 -1.55679,-2.3093 -0.20205,-3.22263c0.76965,-0.51888 2.24019,-0.23136 3.22828,0.9658c1.23641,1.49803 1.92552,4.05528 1.92552,4.05528c0,0 0.18002,-1.35009 -0.15252,-2.28289c-0.44918,-1.25996 -1.32555,-2.24341 -0.06697,-2.66934c0.68641,-0.23228 1.51127,0.30201 2.21741,0.96959c0.8887,0.84018 1.58937,1.8915 1.58937,1.8915l-2.22208,-8.20605c0,0 3.81569,3.29787 5.28735,5.62626c1.31972,2.08798 3.13654,6.36827 3.13654,6.36827c0,0 -7.71323,16.78782 -12.16338,21.47333c-5.41272,5.69898 -17.99432,11.61265 -17.99432,11.61265c0,0 0.17273,-14.06373 -1.26794,-19.46845c-1.51021,-5.66561 -7.59451,-13.77945 -7.59451,-13.77945z" data-paper-data="{&quot;index&quot;:null}" fill="url(#color-5)" stroke="#000000" stroke-width="0" stroke-linecap="butt"/><path d="M272.75756,142.04976c-1.25418,-0.2896 -1.0134,-4.02256 -0.97775,-8.19668c0.01893,-2.21677 -0.2922,-5.41951 -0.31616,-6.39906c-0.13549,-5.53893 -4.12477,-44.73759 -4.12477,-44.73759c0,0 12.57145,5.57433 17.17526,9.31796c4.81497,3.91533 11.1095,13.68204 11.1095,13.68204c0,0 -3.15005,18.01727 -3.15005,25.73333c0,6.45935 0.46867,15.09959 -2.65408,15.4c-1.54836,0.14895 -0.81468,-4.50613 -0.89931,-7.99619c-0.05471,-2.256 -0.78243,-3.67591 -1.57588,-4.17165c-0.46482,-0.29041 -0.40543,1.98256 -0.56753,3.74749c-0.21702,2.36296 -0.68081,4.44925 -1.89183,4.3277c-1.593,-0.15989 -1.20208,-3.75685 -1.20656,-7.10781c-0.00363,-2.71362 -0.39706,-5.26593 -1.28284,-5.70099c0,0 -0.39585,3.10348 -1.75537,3.35784c-1.82027,0.34056 -0.31943,3.99436 -2.42165,3.94814c-2.36645,-0.05203 -2.09875,-8.75854 -2.88249,-8.46538c-0.62459,0.23362 -0.08766,2.71264 -0.13144,5.46725c-0.06089,3.83046 -0.71367,8.19384 -2.44704,7.7936z" fill="url(#color-6)" stroke="none" stroke-width="0" stroke-linecap="butt"/><path d="M196.45556,137c0,-9.12808 7.39976,-16.52784 16.52783,-16.52784c9.12808,0 16.52784,7.39977 16.52784,16.52784c0,9.12808 -7.39977,16.52784 -16.52784,16.52784c-9.12808,0 -16.52783,-7.39977 -16.52783,-16.52784z" fill="#000000" stroke="none" stroke-width="0" stroke-linecap="butt"/><path d="M267.12926,160.75627c-12.968,0 -23.48065,-10.51265 -23.48065,-23.48065c0,-12.968 10.51265,-23.48065 23.48065,-23.48065c12.968,0 23.48065,10.51265 23.48065,23.48065c0,12.968 -10.51265,23.48065 -23.48065,23.48065z" data-paper-data="{&quot;index&quot;:null}" fill="url(#color-7)" stroke="#000000" stroke-width="0" stroke-linecap="butt"/><path d="M267.0167,153.52784c-9.12807,0 -16.52783,-7.39977 -16.52783,-16.52784c0,-9.12808 7.39977,-16.52784 16.52783,-16.52784c9.12807,0 16.52783,7.39977 16.52783,16.52784c0,9.12808 -7.39977,16.52784 -16.52783,16.52784z" data-paper-data="{&quot;index&quot;:null}" fill="#000000" stroke="none" stroke-width="0" stroke-linecap="butt"/><path d="M202.02784,108.46716c0,0 6.70895,-5.16922 11.79722,-6.36355c5.08827,-1.19433 12.33413,0.69937 12.33413,0.69937c0,0 -8.03812,-0.06028 -11.96762,0.86207c-4.10648,0.96388 -12.16372,4.80211 -12.16372,4.80211z" fill="#000000" stroke="none" stroke-width="0" stroke-linecap="butt"/><path d="M265.96236,103.66506c-3.9295,-0.92235 -11.96762,-0.86207 -11.96762,-0.86207c0,0 7.24586,-1.8937 12.33413,-0.69937c5.08826,1.19433 11.79721,6.36355 11.79721,6.36355c0,0 -8.05724,-3.83822 -12.16372,-4.80211z" data-paper-data="{&quot;index&quot;:null}" fill="#000000" stroke="none" stroke-width="0" stroke-linecap="butt"/><path d="M252.5548,181.40784h-25.10959c0,0 5.79533,-7.31567 12.24271,-7.31567c6.44738,0 12.86688,7.31567 12.86688,7.31567z" data-paper-data="{&quot;index&quot;:null}" fill="#000000" stroke="#000000" stroke-width="2" stroke-linecap="round"/></g></g></svg>