<svg version="1.1" xmlns="http://www.w3.org/2000/svg" xmlns:xlink="http://www.w3.org/1999/xlink" width="137.14362" height="267.22501" viewBox="0,0,137.14362,267.22501"><defs><linearGradient x1="266.32826" y1="111.95363" x2="266.32826" y2="158.91493" gradientUnits="userSpaceOnUse" id="color-1"><stop offset="0" stop-color="#999999"/><stop offset="1" stop-color="#b58989"/></linearGradient><linearGradient x1="240.0001" y1="175.50001" x2="240.0001" y2="307.50001" gradientUnits="userSpaceOnUse" id="color-2"><stop offset="0" stop-color="#392500"/><stop offset="1" stop-color="#6a4800"/></linearGradient><linearGradient x1="240.68854" y1="191.31124" x2="240.68854" y2="222.9779" gradientUnits="userSpaceOnUse" id="color-3"><stop offset="0" stop-color="#1a0000"/><stop offset="1" stop-color="#800000"/></linearGradient><linearGradient x1="236.91329" y1="65.07559" x2="236.91329" y2="80.04487" gradientUnits="userSpaceOnUse" id="color-4"><stop offset="0" stop-color="#2c2300"/><stop offset="1" stop-color="#6b5400"/></linearGradient><linearGradient x1="237.78379" y1="73.18403" x2="237.78379" y2="96.57574" gradientUnits="userSpaceOnUse" id="color-5"><stop offset="0" stop-color="#634e00"/><stop offset="1" stop-color="#070600"/></linearGradient><linearGradient x1="238.94523" y1="87.64125" x2="238.94523" y2="111.03296" gradientUnits="userSpaceOnUse" id="color-6"><stop offset="0" stop-color="#2c2300"/><stop offset="1" stop-color="#6b5400"/></linearGradient><linearGradient x1="240.3874" y1="100.55439" x2="240.3874" y2="128.88802" gradientUnits="userSpaceOnUse" id="color-7"><stop offset="0" stop-color="#634e00"/><stop offset="1" stop-color="#070600"/></linearGradient><linearGradient x1="237.4393" y1="183.62482" x2="237.4393" y2="198.5941" gradientUnits="userSpaceOnUse" id="color-8"><stop offset="0" stop-color="#2c2300"/><stop offset="1" stop-color="#6b5400"/></linearGradient><linearGradient x1="237.22197" y1="165.8252" x2="237.22197" y2="189.21692" gradientUnits="userSpaceOnUse" id="color-9"><stop offset="0" stop-color="#000000"/><stop offset="1" stop-color="#493900"/></linearGradient><linearGradient x1="238.3834" y1="151.36798" x2="238.3834" y2="174.75969" gradientUnits="userSpaceOnUse" id="color-10"><stop offset="0" stop-color="#2c2300"/><stop offset="1" stop-color="#6b5400"/></linearGradient><linearGradient x1="239.82558" y1="133.51292" x2="239.82558" y2="161.84655" gradientUnits="userSpaceOnUse" id="color-11"><stop offset="0" stop-color="#000000"/><stop offset="1" stop-color="#493900"/></linearGradient><linearGradient x1="241.15804" y1="116.00135" x2="241.15804" y2="144.33497" gradientUnits="userSpaceOnUse" id="color-12"><stop offset="0" stop-color="#2c2300"/><stop offset="1" stop-color="#6b5400"/></linearGradient><linearGradient x1="241.15804" y1="116.00135" x2="241.15804" y2="144.33497" gradientUnits="userSpaceOnUse" id="color-13"><stop offset="0" stop-color="#2c2300"/><stop offset="1" stop-color="#6b5400"/></linearGradient><linearGradient x1="266.51936" y1="144.89353" x2="266.51936" y2="174.8897" gradientUnits="userSpaceOnUse" id="color-14"><stop offset="0" stop-color="#1a0000"/><stop offset="1" stop-color="#800000"/></linearGradient></defs><g transform="translate(-172.58621,-46.3875)"><g data-paper-data="{&quot;isPaintingLayer&quot;:true}" fill-rule="nonzero" stroke-linejoin="miter" stroke-miterlimit="10" stroke-dasharray="" stroke-dashoffset="0" style="mix-blend-mode: normal"><path d="M266.32826,158.91493c-12.968,0 -23.48065,-10.51265 -23.48065,-23.48065c0,-12.968 10.51265,-23.48065 23.48065,-23.48065c12.968,0 23.48065,10.51265 23.48065,23.48065c0,12.968 -10.51265,23.48065 -23.48065,23.48065z" data-paper-data="{&quot;index&quot;:null}" fill="url(#color-1)" stroke="#000000" stroke-width="0" stroke-linecap="butt"/><path d="M266.21569,151.6865c-9.12807,0 -16.52783,-7.39977 -16.52783,-16.52784c0,-9.12808 7.39977,-16.52784 16.52783,-16.52784c9.12807,0 16.52783,7.39977 16.52783,16.52784c0,9.12808 -7.39977,16.52784 -16.52783,16.52784z" data-paper-data="{&quot;index&quot;:null}" fill="#000000" stroke="none" stroke-width="0" stroke-linecap="butt"/><path d="M206.75011,307.5l15.14285,-131.8421l37.78325,-0.15789l13.57389,132z" data-paper-data="{&quot;index&quot;:null}" fill="url(#color-2)" stroke="#000000" stroke-width="0" stroke-linecap="butt"/><path d="M223.77188,226.81124c-2.67586,0.28213 -0.66667,-35.5 -0.66667,-35.5h35.16667c0,0 0.59295,42.52595 -1.83333,42.38095c-2.15053,-0.12852 -1.93907,-25.1209 -4.10233,-25.05852c-2.79963,0.08074 -1.27579,9.79811 -3.07553,9.4697c-2.82686,-0.51583 -0.52244,7.39015 -2.86422,7.57937c-2.47839,0.20025 0.16903,-23.74608 -1.49589,-24.0619c-2.6792,-0.50823 -1.73776,16.19476 -3.69947,15.90864c-2.04007,-0.29754 -3.1244,-10.26567 -4.81191,-11.32279c-2.71196,-1.69889 -0.78364,30.41898 -2.72968,29.87832c-1.7978,-0.49948 -1.23713,-23.22165 -2.96882,-23.19136c-2.25727,0.03947 -0.68934,-10.63169 -1.54055,-11.00083c-1.46383,-0.63482 -2.65686,24.63151 -5.37827,24.91844z" data-paper-data="{&quot;index&quot;:null}" fill="url(#color-3)" stroke="none" stroke-width="0" stroke-linecap="butt"/><path d="M252.6167,176.65643h-25.10959" data-paper-data="{&quot;index&quot;:null}" fill="none" stroke="#000000" stroke-width="2" stroke-linecap="round"/><g stroke="#000000" stroke-width="0" stroke-linecap="butt"><path d="M236.91329,80.04487c-18.12731,0 -32.82238,-3.95929 -32.82238,-8.84328c0,-4.88399 14.89682,-6.126 33.02412,-6.126c18.12731,0 32.62064,1.242 32.62064,6.126c0,4.88399 -14.69508,8.84328 -32.82238,8.84328z" data-paper-data="{&quot;index&quot;:null}" fill="url(#color-4)"/><g><path d="M237.78379,96.57574c-28.32659,0 -51.28982,-6.18695 -51.28982,-13.81892c0,-7.63197 23.27847,-9.57278 51.60507,-9.57278c28.3266,0 50.97457,1.94082 50.97457,9.57278c0,7.63197 -22.96323,13.81892 -51.28983,13.81892z" data-paper-data="{&quot;index&quot;:null}" fill="url(#color-5)"/><path d="M238.94522,111.03296c-31.26574,0 -56.6116,-6.18695 -56.6116,-13.81892c0,-7.63197 25.69383,-9.57279 56.95958,-9.57279c31.26574,0 56.26365,1.94082 56.26365,9.57279c0,7.63197 -25.34588,13.81892 -56.61163,13.81892z" data-paper-data="{&quot;index&quot;:null}" fill="url(#color-6)"/><path d="M240.3874,128.88802c-34.3111,0 -62.12572,-7.49405 -62.12572,-16.73841c0,-9.24437 28.19647,-11.59522 62.50758,-11.59522c34.3111,0 61.74388,2.35086 61.74388,11.59522c0,4.53322 -6.68855,8.64554 -17.55181,11.65966c-5.14448,-7.82584 -18.86042,-13.14825 -27.18942,-10.13215c-1.67997,0.60835 -3.84623,1.36832 -5.23868,2.56183c-1.00677,0.86293 -2.66518,3.65099 -3.87074,4.08049c-2.75334,0.98092 -5.08597,3.984 -5.89336,6.7225c-0.12719,0.43139 -0.19586,1.06565 -0.2126,1.83608c-0.72,0.00666 -1.4431,0.01001 -2.16912,0.01001z" data-paper-data="{&quot;index&quot;:null}" fill="url(#color-7)"/></g><path d="M270.26162,192.46809c0,4.88399 -14.49334,6.12601 -32.62064,6.12601c-18.12731,0 -33.02412,-1.24202 -33.02412,-6.12601c0,-4.88399 14.69509,-8.84327 32.82238,-8.84327c18.12731,0 32.82238,3.95927 32.82238,8.84327z" fill="url(#color-8)"/><path d="M288.51171,179.64411c0,7.63197 -22.64797,9.5728 -50.97456,9.5728c-28.32659,0 -51.60508,-1.94083 -51.60508,-9.5728c0,-7.63197 22.96323,-13.81892 51.28983,-13.81892c28.32659,0 51.28982,6.18695 51.28982,13.81892z" fill="url(#color-9)"/><path d="M294.99496,165.1869c0,7.63197 -24.99791,9.5728 -56.26365,9.5728c-31.26574,0 -56.95958,-1.94082 -56.95958,-9.5728c0,-7.63197 25.34587,-13.81892 56.61161,-13.81892c3.68211,0 7.28212,0.08581 10.76829,0.24968c3.08348,2.86616 8.33894,5.48452 10.89392,5.47794c2.0275,-0.00522 4.00641,-0.63378 6.02065,-0.8654c1.92956,-0.22188 4.64886,-0.8756 7.45838,-1.87824c13.08035,2.53124 21.47039,6.44392 21.47039,10.83494z" fill="url(#color-10)"/><path d="M301.95124,150.25134c0,9.24436 -27.43277,11.59521 -61.74387,11.59521c-34.3111,0 -62.50757,-2.35085 -62.50757,-11.59521c0,-9.24436 27.81462,-16.73842 62.12572,-16.73842c1.02142,0 2.03709,0.00664 3.04643,0.01977c0.26887,2.03171 0.69464,4.161 1.22802,5.88866c-0.10421,0.80482 -0.17019,1.65606 -0.18742,2.60919c-0.03741,2.06926 2.78357,4.20546 2.83786,5.73925c0.13387,3.78244 9.57581,9.3354 13.29514,9.32582c2.0275,-0.00522 4.00641,-0.63378 6.02065,-0.8654c5.72605,-0.65844 18.40677,-5.11982 19.76164,-11.21692c0.29364,-1.32143 0.45502,-2.67246 0.49592,-4.0354c0.22485,-0.53705 0.42344,-1.08583 0.59556,-1.64392c9.36836,2.9309 15.0319,6.74593 15.0319,10.91736z" fill="url(#color-11)"/><path d="M172.58622,132.73976c0,-9.24437 30.70063,-16.7384 68.57182,-16.7384c3.87847,0 7.68172,0.0786 11.3845,0.22963c-0.00311,0.00265 -0.00621,0.00531 -0.00932,0.00797c-1.00677,0.86293 -2.66518,3.65099 -3.87074,4.08049c-2.75334,0.98092 -0.58935,3.984 -1.39674,6.7225c-0.58699,1.99097 -4.42421,8.30312 -3.16573,12.37941c-0.10421,0.80482 -0.17019,1.65606 -0.18742,2.60919c-0.01389,0.76844 0.36641,1.5461 0.85282,2.29872c-1.05559,0.00384 -2.11772,0.00571 -3.18589,0.00571h-0.00001c-37.87118,0 -68.99329,-2.35085 -68.99329,-11.59521z" fill="url(#color-12)"/><path d="M309.72983,132.73976c0,5.06061 -9.07396,8.05541 -23.50004,9.7296c0.04786,-0.49498 0.07899,-0.99243 0.09396,-1.49148c1.99745,-4.77087 1.92215,-10.46734 -0.36416,-15.3867c-1.1283,-2.42772 -3.1059,-4.67243 -5.56595,-6.58078c17.73567,3.02569 29.33619,8.04684 29.33619,13.72938z" fill="url(#color-13)"/></g><path d="M224.60045,133.76559c0,9.805 -6.59732,17.75353 -14.73553,17.75353c-8.13819,0 -14.73551,-7.94853 -14.73551,-17.75353c0,-9.805 6.59731,-17.75353 14.73551,-17.75353c8.13819,0 14.73553,7.94853 14.73553,17.75353z" fill="#000000" stroke="#000000" stroke-width="0" stroke-linecap="butt"/><path d="M278.80484,221.43314l-21.9076,-4.68353l21.22298,-6.24468z" data-paper-data="{&quot;index&quot;:null}" fill="#000000" stroke="none" stroke-width="1" stroke-linecap="butt"/><path d="M194.57402,257.72342l20.88285,-7.30189l-15.06682,16.57918z" data-paper-data="{&quot;index&quot;:null}" fill="#000000" stroke="none" stroke-width="1" stroke-linecap="butt"/><path d="M245.4589,147.72685c0,0 14.72582,8.2646 21.95727,7.75942c6.09098,-0.42551 18.60011,-10.59275 18.60011,-10.59275c0,0 5.37893,17.10774 -3.81666,22.6693c-0.36394,0.22011 0.0894,-10.26769 0.0894,-10.26769c0,0 -1.39895,8.24558 -2.36305,8.20011c-1.2805,-0.06039 -1.72234,-6.27668 -2.42664,-6.40228c-0.96802,-0.17263 -1.11315,7.47199 -2.28324,7.94621c-1.24561,0.50483 -2.12591,-4.54975 -3.37947,-4.21403c-0.72667,0.19461 -1.89792,9.5215 -2.65662,9.69542c-0.32399,0.07427 -1.02236,-4.35787 -2.20848,-4.8766c-0.69369,-0.30337 -1.9302,3.64562 -2.36071,2.90235c-1.15947,-2.0018 -0.59482,-5.939 -1.64357,-6.15997c-1.54118,-0.32473 -2.02632,7.00655 -3.44378,6.25136c-3.01736,-1.60756 -4.97215,-4.49848 -4.97215,-4.49848c0,0 -1.57903,8.60308 -4.34049,8.75047c0,0 -0.05411,-6.00616 -0.85419,-10.57962c-0.78353,-4.47884 -3.89771,-16.58321 -3.89771,-16.58321z" fill="url(#color-14)" stroke="#000000" stroke-width="0" stroke-linecap="butt"/><path d="M178.409,313.61251v-267.22501h123.18203v267.22501z" fill-opacity="0.01" fill="#000000" stroke="none" stroke-width="0" stroke-linecap="butt"/></g></g></svg>