<svg version="1.1" xmlns="http://www.w3.org/2000/svg" xmlns:xlink="http://www.w3.org/1999/xlink" width="176.59187" height="267.22501" viewBox="0,0,176.59187,267.22501"><defs><linearGradient x1="173.91332" y1="78.30256" x2="216.46753" y2="132.68449" gradientUnits="userSpaceOnUse" id="color-1"><stop offset="0" stop-color="#627e83"/><stop offset="1" stop-color="#80b3bf"/></linearGradient><linearGradient x1="248.41112" y1="160.66511" x2="313.61699" y2="183.39066" gradientUnits="userSpaceOnUse" id="color-2"><stop offset="0" stop-color="#627e83"/><stop offset="1" stop-color="#80b3bf"/></linearGradient><linearGradient x1="292.51526" y1="186.95889" x2="325.88918" y2="198.59035" gradientUnits="userSpaceOnUse" id="color-3"><stop offset="0" stop-color="#242e30"/><stop offset="1" stop-color="#648b95"/></linearGradient><linearGradient x1="229.76273" y1="176.59982" x2="164.55685" y2="199.32535" gradientUnits="userSpaceOnUse" id="color-4"><stop offset="0" stop-color="#627e83"/><stop offset="1" stop-color="#80b3bf"/></linearGradient><linearGradient x1="185.65859" y1="202.89359" x2="152.28467" y2="214.52506" gradientUnits="userSpaceOnUse" id="color-5"><stop offset="0" stop-color="#242e30"/><stop offset="1" stop-color="#648b95"/></linearGradient><linearGradient x1="318.34516" y1="88.95368" x2="275.79095" y2="143.33561" gradientUnits="userSpaceOnUse" id="color-6"><stop offset="0" stop-color="#627e83"/><stop offset="1" stop-color="#80b3bf"/></linearGradient><linearGradient x1="240.19693" y1="175.50005" x2="240.19693" y2="307.50003" gradientUnits="userSpaceOnUse" id="color-7"><stop offset="0" stop-color="#242e30"/><stop offset="1" stop-color="#648b95"/></linearGradient><linearGradient x1="239.8736" y1="82.20493" x2="239.8736" y2="202.80158" gradientUnits="userSpaceOnUse" id="color-8"><stop offset="0" stop-color="#242e30"/><stop offset="1" stop-color="#648b95"/></linearGradient><radialGradient cx="212.66744" cy="142.59941" r="23.48065" gradientUnits="userSpaceOnUse" id="color-9"><stop offset="0" stop-color="#969696"/><stop offset="1" stop-color="#967676"/></radialGradient><radialGradient cx="266.92588" cy="142.59941" r="23.48065" gradientUnits="userSpaceOnUse" id="color-10"><stop offset="0" stop-color="#969696"/><stop offset="1" stop-color="#967676"/></radialGradient><linearGradient x1="243.69984" y1="73.73025" x2="243.69984" y2="96.98025" gradientUnits="userSpaceOnUse" id="color-11"><stop offset="0" stop-color="#648b95"/><stop offset="1" stop-color="#242e30"/></linearGradient></defs><g transform="translate(-151.30379,-51.71124)"><g data-paper-data="{&quot;isPaintingLayer&quot;:true}" fill-rule="nonzero" stroke-linejoin="miter" stroke-miterlimit="10" stroke-dasharray="" stroke-dashoffset="0" style="mix-blend-mode: normal"><path d="M168.54989,82.49947l57.46815,39.96765l-4.18708,6.02046l-57.46814,-39.96764z" data-paper-data="{&quot;index&quot;:null}" fill="url(#color-1)" stroke="#000000" stroke-width="0" stroke-linecap="butt"/><g data-paper-data="{&quot;index&quot;:null}" stroke="#000000" stroke-width="0" stroke-linecap="butt"><path d="M254.99937,148.32809l56.37632,41.4935l-4.34693,5.90609l-56.37633,-41.4935z" fill="url(#color-2)"/><path d="M298.73007,207.00294c-7.85808,-5.78361 -9.53976,-16.84242 -3.75615,-24.70049c5.78362,-7.85807 16.84239,-9.53975 24.70047,-3.75614c7.85807,5.78361 9.53976,16.8424 3.75614,24.70047c-5.78362,7.85808 -16.8424,9.53976 -24.70048,3.75614z" fill="url(#color-3)"/></g><path d="M178.20561,318.93625v-267.22501h123.18203v267.22501z" fill-opacity="0.01" fill="#000000" stroke="none" stroke-width="0" stroke-linecap="butt"/><g data-paper-data="{&quot;index&quot;:null}" stroke="#000000" stroke-width="0" stroke-linecap="butt"><path d="M227.52142,170.16887l-56.37633,41.4935l-4.34693,-5.90609l56.37632,-41.4935z" fill="url(#color-4)"/><path d="M179.44379,222.93763c-7.85808,5.78362 -18.91686,4.10193 -24.70048,-3.75615c-5.78361,-7.85807 -4.10193,-18.91686 3.75614,-24.70047c7.85808,-5.78362 18.91686,-4.10193 24.70047,3.75614c5.78361,7.85807 4.10194,18.91687 -3.75614,24.70048z" fill="url(#color-5)"/></g><path d="M327.89566,99.17106l-57.46814,39.96764l-4.18708,-6.02046l57.46815,-39.96765z" fill="url(#color-6)" stroke="#000000" stroke-width="0" stroke-linecap="butt"/><path d="M206.94694,307.50003l15.14285,-131.8421l37.78325,-0.15789l13.57389,132z" fill="url(#color-7)" stroke="#000000" stroke-width="0" stroke-linecap="butt"/><path d="M175.63658,142.50325c0,-33.30185 28.7599,-60.29833 64.23702,-60.29833c35.47712,0 64.23702,26.99649 64.23702,60.29833c0,33.30185 -28.7599,60.29833 -64.23702,60.29833c-35.47712,0 -64.23702,-26.99649 -64.23702,-60.29833z" fill="url(#color-8)" stroke="#000000" stroke-width="0" stroke-linecap="butt"/><path d="M189.18679,142.59941c0,-12.968 10.51265,-23.48065 23.48065,-23.48065c12.968,0 23.48065,10.51265 23.48065,23.48065c0,12.968 -10.51265,23.48065 -23.48065,23.48065c-12.968,0 -23.48065,-10.51265 -23.48065,-23.48065z" fill="url(#color-9)" stroke="#000000" stroke-width="0" stroke-linecap="butt"/><path d="M196.25218,142.32372c0,-9.12808 7.39976,-16.52784 16.52783,-16.52784c9.12808,0 16.52784,7.39977 16.52784,16.52784c0,9.12808 -7.39977,16.52784 -16.52784,16.52784c-9.12808,0 -16.52783,-7.39977 -16.52783,-16.52784z" fill="#000000" stroke="none" stroke-width="0" stroke-linecap="butt"/><path d="M266.92588,166.08005c-12.968,0 -23.48065,-10.51265 -23.48065,-23.48065c0,-12.968 10.51265,-23.48065 23.48065,-23.48065c12.968,0 23.48065,10.51265 23.48065,23.48065c0,12.968 -10.51265,23.48065 -23.48065,23.48065z" data-paper-data="{&quot;index&quot;:null}" fill="url(#color-10)" stroke="#000000" stroke-width="0" stroke-linecap="butt"/><path d="M266.81328,158.85157c-9.12807,0 -16.52783,-7.39977 -16.52783,-16.52784c0,-9.12808 7.39977,-16.52784 16.52783,-16.52784c9.12807,0 16.52783,7.39977 16.52783,16.52784c0,9.12808 -7.39977,16.52784 -16.52783,16.52784z" data-paper-data="{&quot;index&quot;:null}" fill="#000000" stroke="none" stroke-width="0" stroke-linecap="butt"/><path d="M201.82446,113.79094c0,0 6.70895,-5.16922 11.79722,-6.36355c5.08827,-1.19433 12.33413,0.69937 12.33413,0.69937c0,0 -8.03812,-0.06028 -11.96762,0.86207c-4.10648,0.96388 -12.16372,4.80211 -12.16372,4.80211z" fill="#000000" stroke="none" stroke-width="0" stroke-linecap="butt"/><path d="M265.75893,108.98884c-3.9295,-0.92235 -11.96762,-0.86207 -11.96762,-0.86207c0,0 7.24586,-1.8937 12.33413,-0.69937c5.08826,1.19433 11.79721,6.36355 11.79721,6.36355c0,0 -8.05724,-3.83822 -12.16372,-4.80211z" data-paper-data="{&quot;index&quot;:null}" fill="#000000" stroke="none" stroke-width="0" stroke-linecap="butt"/><path d="M217.44984,93.23025l33.25,-19.5l-3.25,13.75l22.5,-6l-14.5,15.5" data-paper-data="{&quot;index&quot;:null}" fill="url(#color-11)" stroke="#000000" stroke-width="0" stroke-linecap="round"/><path d="M253.84404,187.46363c0,4.86917 -29.30124,4.86917 -29.30124,0c0,-4.86917 6.5593,-12.15887 14.65062,-12.15887c8.09132,0 14.65062,7.2897 14.65062,12.15887z" fill="#000000" stroke="#000000" stroke-width="2" stroke-linecap="butt"/></g></g></svg>