<svg version="1.1" xmlns="http://www.w3.org/2000/svg" xmlns:xlink="http://www.w3.org/1999/xlink" width="164.59034" height="267.22501" viewBox="0,0,164.59034,267.22501"><defs><linearGradient x1="240.00005" y1="175.50001" x2="240.00005" y2="307.50001" gradientUnits="userSpaceOnUse" id="color-1"><stop offset="0" stop-color="#18140c"/><stop offset="1" stop-color="#736039"/></linearGradient><linearGradient x1="240.07697" y1="76.88116" x2="240.07697" y2="197.47782" gradientUnits="userSpaceOnUse" id="color-2"><stop offset="0" stop-color="#18140c"/><stop offset="1" stop-color="#736039"/></linearGradient><linearGradient x1="236.53699" y1="68.61158" x2="236.53699" y2="89.94491" gradientUnits="userSpaceOnUse" id="color-3"><stop offset="0" stop-color="#736039"/><stop offset="1" stop-color="#18140c"/></linearGradient><linearGradient x1="239.39114" y1="48.1353" x2="239.39114" y2="125.46873" gradientUnits="userSpaceOnUse" id="color-4"><stop offset="0" stop-color="#675633"/><stop offset="1" stop-color="#b19358"/></linearGradient><linearGradient x1="177.44838" y1="113.65391" x2="177.44838" y2="161.98725" gradientUnits="userSpaceOnUse" id="color-5"><stop offset="0" stop-color="#675633"/><stop offset="1" stop-color="#b19358"/></linearGradient><linearGradient x1="301.39397" y1="113.65391" x2="301.39397" y2="161.98725" gradientUnits="userSpaceOnUse" id="color-6"><stop offset="0" stop-color="#675633"/><stop offset="1" stop-color="#b19358"/></linearGradient></defs><g transform="translate(-157.30726,-46.38751)"><g data-paper-data="{&quot;isPaintingLayer&quot;:true}" fill-rule="nonzero" stroke-linejoin="miter" stroke-miterlimit="10" stroke-dasharray="" stroke-dashoffset="0" style="mix-blend-mode: normal"><path d="M179.28373,313.61252v-267.22501h123.18203v267.22501z" fill-opacity="0.01" fill="#000000" stroke="none" stroke-width="0" stroke-linecap="butt"/><path d="M206.75005,307.5l15.14285,-131.8421l37.78325,-0.15789l13.57389,132z" fill="url(#color-1)" stroke="#000000" stroke-width="0" stroke-linecap="butt"/><path d="M175.83995,137.17949c0,-33.30185 28.7599,-60.29833 64.23702,-60.29833c35.47712,0 64.23702,26.99649 64.23702,60.29833c0,33.30185 -28.7599,60.29833 -64.23702,60.29833c-35.47712,0 -64.23702,-26.99649 -64.23702,-60.29833z" fill="url(#color-2)" stroke="#000000" stroke-width="0" stroke-linecap="butt"/><path d="M189.39018,137.27563c0,-12.968 10.51265,-23.48065 23.48065,-23.48065c12.968,0 23.48065,10.51265 23.48065,23.48065c0,12.968 -10.51265,23.48065 -23.48065,23.48065c-12.968,0 -23.48065,-10.51265 -23.48065,-23.48065z" fill="#666666" stroke="#000000" stroke-width="0" stroke-linecap="butt"/><path d="M196.45555,137c0,-9.12808 7.39976,-16.52784 16.52783,-16.52784c9.12808,0 16.52784,7.39977 16.52784,16.52784c0,9.12808 -7.39977,16.52784 -16.52784,16.52784c-9.12808,0 -16.52783,-7.39977 -16.52783,-16.52784z" fill="#000000" stroke="none" stroke-width="0" stroke-linecap="butt"/><path d="M227.50704,176.65643h25.10959" fill="none" stroke="#000000" stroke-width="2" stroke-linecap="round"/><path d="M267.12926,160.75627c-12.968,0 -23.48065,-10.51265 -23.48065,-23.48065c0,-12.968 10.51265,-23.48065 23.48065,-23.48065c12.968,0 23.48065,10.51265 23.48065,23.48065c0,12.968 -10.51265,23.48065 -23.48065,23.48065z" data-paper-data="{&quot;index&quot;:null}" fill="#000000" stroke="#000000" stroke-width="0" stroke-linecap="butt"/><path d="M267.01669,153.52784c-9.12807,0 -16.52783,-7.39977 -16.52783,-16.52784c0,-9.12808 7.39977,-16.52784 16.52783,-16.52784c9.12807,0 16.52783,7.39977 16.52783,16.52784c0,9.12808 -7.39977,16.52784 -16.52783,16.52784z" data-paper-data="{&quot;index&quot;:null}" fill="#7a5b00" stroke="none" stroke-width="0" stroke-linecap="butt"/><path d="M202.02785,108.46716c0,0 6.70895,-5.16922 11.79722,-6.36355c5.08827,-1.19433 12.33413,0.69937 12.33413,0.69937c0,0 -8.03812,-0.06028 -11.96762,0.86207c-4.10648,0.96388 -12.16372,4.80211 -12.16372,4.80211z" fill="#000000" stroke="none" stroke-width="0" stroke-linecap="butt"/><path d="M265.96236,103.66506c-3.9295,-0.92235 -11.96762,-0.86207 -11.96762,-0.86207c0,0 7.24586,-1.8937 12.33413,-0.69937c5.08826,1.19433 11.79721,6.36355 11.79721,6.36355c0,0 -8.05724,-3.83822 -12.16372,-4.80211z" data-paper-data="{&quot;index&quot;:null}" fill="#000000" stroke="none" stroke-width="0" stroke-linecap="butt"/><path d="M291.24899,136.48061l4.74338,-5.09362" fill="none" stroke="#000000" stroke-width="2" stroke-linecap="round"/><path d="M189.12523,138.27195l-5.78415,-6.13441" fill="none" stroke="#000000" stroke-width="2" stroke-linecap="round"/><path d="M213.78699,86.77824l23,-18l-1.33333,11.33334l23.83333,-11.5l-4.83333,21.33333" data-paper-data="{&quot;index&quot;:null}" fill="url(#color-3)" stroke="#000000" stroke-width="0" stroke-linecap="round"/><g stroke="#000000" stroke-width="0" stroke-linecap="butt"><path d="M173.77082,121.80206l-7.38022,3c0,0 -0.61983,-76.56595 73.48132,-76.66666c73.73495,-0.10021 72.51868,77.33333 72.51868,77.33333l-8.66374,-4c0,0 0.0045,-64.86172 -63.85494,-66.33334c-61.84366,-1.42516 -66.1011,66.66667 -66.1011,66.66667z" fill="url(#color-4)"/><path d="M157.30726,137.98725c0,-12.51846 9.08054,-22.66667 20.28196,-22.66667c1.01424,0 1.18635,45.33333 0,45.33333c-11.20142,0 -20.28196,-10.14821 -20.28196,-22.66666z" fill="#736039"/><path d="M172.37789,161.98725v-48.33334h10.14098v48.33334z" fill="url(#color-5)"/><path d="M301.61563,160.65391c-1.18635,0 -1.01423,-45.33333 0,-45.33333c11.20142,0 20.28197,10.14821 20.28197,22.66667c0,12.51845 -9.08055,22.66666 -20.28197,22.66666z" data-paper-data="{&quot;index&quot;:null}" fill="#736039"/><path d="M296.32348,161.98725v-48.33334h10.14098v48.33334z" fill="url(#color-6)"/></g></g></g></svg>