<svg version="1.1" xmlns="http://www.w3.org/2000/svg" xmlns:xlink="http://www.w3.org/1999/xlink" width="123.18203" height="336.36254" viewBox="0,0,123.18203,336.36254"><g transform="translate(-179.28375,22.75)"><g data-paper-data="{&quot;isPaintingLayer&quot;:true}" fill-rule="nonzero" stroke-linejoin="miter" stroke-miterlimit="10" stroke-dasharray="" stroke-dashoffset="0" style="mix-blend-mode: normal"><g><g stroke-linecap="round"><path d="M241.29523,149.87373c7.46117,0.17232 15.02029,4.03394 20.22619,9.18041c3.62707,3.77067 2.99205,9.96285 3.79095,15.06567c0.83433,5.33341 0.08953,10.80248 1.07749,15.94651c0.66281,3.67272 2.31149,6.94185 3.82878,10.25447c1.60888,3.51474 6.96908,6.7811 5.33223,10.26626c-2.03595,4.67394 -8.29627,6.20352 -13.2898,7.41339c-7.80709,1.89037 -16.03898,1.52189 -24.07006,1.61521c-5.55932,-0.19046 -11.11033,-0.76397 -16.5242,-1.93423c-5.03032,-1.08237 -10.32815,-1.94436 -14.69876,-4.62623c-1.56447,-0.977 -2.09216,-3.78563 -1.45861,-5.72506c1.17393,-3.12911 4.79337,-4.8959 6.3784,-8.06928c1.72689,-3.45665 2.56432,-7.32214 3.39519,-11.09982c0.96243,-4.30833 1.36441,-9.00417 2.21122,-13.51492c1.02043,-5.41269 -0.44218,-12.22699 3.43525,-16.21168c5.05653,-5.31723 13.0031,-8.72984 20.36573,-8.5607z" fill="#ffd351" stroke="#000000" stroke-width="2"/><path d="M225.71275,159.96856c2.39283,-3.33356 7.5251,-4.59296 11.76738,-5.01974c1.95319,-0.19451 4.63167,1.98871 4.18377,3.34078c-0.17601,1.49984 -3.62245,1.15339 -5.43149,2.36304c-2.814,1.90493 -5.79938,3.95404 -7.57181,6.85706c-2.06906,3.39264 -1.22768,8.05612 -3.69578,11.09746c-0.76392,1.15655 -3.94822,0.28288 -3.89964,-1.23347c0.19384,-5.99484 1.16115,-12.52416 4.64757,-17.40511z" fill="#fff1c8" stroke="none" stroke-width="0.60142"/><path d="M238.16045,151.14262c0,0 0.2271,-11.30314 3.18855,-10.85225c3.03838,0.4626 2.80429,11.31145 2.80429,11.31145" fill="#ffd351" stroke="#000000" stroke-width="2"/></g><path d="M274.43454,209.2736c0.1172,6.18536 -13.0921,9.5164 -32.62993,9.2865c-19.32863,-0.22743 -35.48231,-4.00871 -35.57299,-8.79433c-0.03018,-1.5929 2.54411,-6.64904 5.48229,-6.80481c5.88908,-0.31222 15.99392,5.13098 28.88754,4.88667c14.31576,-0.27126 25.49615,-4.14423 30.59543,-3.1423c1.78482,0.35069 3.21022,3.12013 3.23766,4.56825z" fill="#eac24d" stroke="#dcb749" stroke-width="0" stroke-linecap="butt"/></g><path d="M241.19443,140.15623l1,-161.65623" fill="none" stroke="#000000" stroke-width="2.5" stroke-linecap="round"/><g fill="#000000"><path d="M240.61752,199.97661c-3.41369,0 -6.48214,-10.22705 -6.48214,-10.22705h13.29476c0,0 -3.39893,10.22705 -6.81262,10.22705z" stroke="#000000" stroke-width="2" stroke-linecap="round"/><path d="M222.46457,179.87155c0,-3.83312 3.10735,-6.94047 6.94047,-6.94047c3.83312,0 6.94047,3.10736 6.94047,6.94047c0,3.83312 -3.10735,6.94047 -6.94047,6.94047c-3.83312,0 -6.94047,-3.10736 -6.94047,-6.94047z" stroke="none" stroke-width="0" stroke-linecap="butt"/><path d="M252.09504,186.81202c-3.83311,0 -6.94047,-3.10736 -6.94047,-6.94047c0,-3.83312 3.10736,-6.94047 6.94047,-6.94047c3.83312,0 6.94047,3.10736 6.94047,6.94047c0,3.83312 -3.10735,6.94047 -6.94047,6.94047z" data-paper-data="{&quot;index&quot;:null}" stroke="none" stroke-width="0" stroke-linecap="butt"/></g><path d="M179.28375,313.61253v-267.22501h123.18203v267.22501z" fill-opacity="0.01" fill="#000000" stroke="none" stroke-width="0" stroke-linecap="butt"/></g></g></svg>