<svg version="1.1" xmlns="http://www.w3.org/2000/svg" xmlns:xlink="http://www.w3.org/1999/xlink" width="79.94216" height="219.27856" viewBox="0,0,79.94216,219.27856"><defs><radialGradient cx="199.82919" cy="152.70165" r="35.29831" gradientUnits="userSpaceOnUse" id="color-1"><stop offset="0" stop-color="#1f190a"/><stop offset="1" stop-color="#7b6628"/></radialGradient><radialGradient cx="199.21887" cy="153.17457" r="21.6" gradientUnits="userSpaceOnUse" id="color-2"><stop offset="0" stop-color="#808080"/><stop offset="1" stop-color="#404040"/></radialGradient></defs><g transform="translate(-163.14465,25.74997)"><g data-paper-data="{&quot;isPaintingLayer&quot;:true}" fill-rule="nonzero" stroke-linejoin="miter" stroke-miterlimit="10" stroke-dasharray="" stroke-dashoffset="0" style="mix-blend-mode: normal"><path d="M241.19443,140.15626l-2,-164.65623" fill="none" stroke="#000000" stroke-width="2.5" stroke-linecap="round"/><g stroke-width="0"><path d="M233.94315,145.17352c1.69119,7.26902 -0.1663,15.55166 -3.85421,21.87519c-2.74862,4.45182 -8.90385,5.37885 -13.64695,7.42336c-4.95761,2.13623 -10.43985,2.77687 -15.17578,5.01474c-3.39196,1.55656 -6.1475,3.9674 -8.97792,6.26183c-3.00334,2.43348 -4.83194,8.43822 -8.61493,7.72087c-5.0337,-0.80786 -8.07412,-6.49003 -10.48942,-11.02493c-3.77504,-7.09037 -5.46817,-15.15468 -7.55855,-22.90949c-1.19998,-5.4316 -2.02692,-10.95056 -2.24177,-16.48529c-0.20444,-5.14138 -0.68893,-10.48697 0.82002,-15.38776c0.5566,-1.75848 3.14535,-2.96899 5.18145,-2.83839c3.32288,0.35771 5.93535,3.42311 9.40349,4.16795c3.77779,0.81167 7.73006,0.66009 11.59565,0.52401c4.41228,-0.1408 9.06028,-0.92092 13.6398,-1.22409c5.49629,-0.35965 11.73166,-3.47316 16.55643,-0.7102c6.40896,3.57307 11.693,10.41944 13.36273,17.59223z" fill="url(#color-1)" stroke="#000000" stroke-linecap="round"/><path d="M231.78172,141.82337c0,0 11.03011,-2.47971 11.29976,0.50369c0.27664,3.06091 -10.31401,5.42531 -10.31401,5.42531" fill="#665521" stroke="#000000" stroke-linecap="round"/><g stroke-linecap="butt"><path d="M193.66235,132.30149c0,0 15.53341,5.87237 18.60219,17.40025c3.06877,11.52787 -7.48916,24.34589 -7.48916,24.34589c0,0 -15.53341,-5.87237 -18.60219,-17.40025c-3.06877,-11.52787 7.48916,-24.34589 7.48916,-24.34589z" fill="url(#color-2)" stroke="#000000"/><g stroke="none"><path d="M196.14914,142.28096c6.02011,-1.60259 12.19954,1.97853 13.80211,7.99864c1.60259,6.02011 -1.97853,12.19954 -7.99864,13.80211c-6.02011,1.60259 -12.19954,-1.97853 -13.80211,-7.99864c-1.60259,-6.02011 1.97853,-12.19954 7.99864,-13.80211z" fill="#000000"/><path d="M201.77279,146.9796c-0.90836,0.24181 -1.70012,0.22972 -1.76847,-0.02697c-0.06834,-0.25672 0.61263,-0.66083 1.52099,-0.90264c0.90836,-0.24181 1.70012,-0.22972 1.76847,0.02697c0.06834,0.25672 -0.61263,0.66083 -1.52099,0.90264z" fill="#808080"/><path d="M202.53543,150.40426c-1.24375,0.33109 -2.32786,0.31455 -2.42142,-0.03694c-0.09356,-0.3515 0.83883,-0.90485 2.08258,-1.23592c1.24375,-0.33109 2.32786,-0.31455 2.42142,0.03694c0.09356,0.3515 -0.83883,0.90485 -2.08258,1.23592z" fill="#808080"/><path d="M204.89187,158.13671c-0.90836,0.24181 -1.70012,0.22972 -1.76847,-0.02697c-0.06834,-0.25672 0.61263,-0.66083 1.52099,-0.90264c0.90836,-0.24181 1.70012,-0.22972 1.76847,0.02697c0.06834,0.25672 -0.61263,0.66083 -1.52099,0.90264z" fill="#808080"/></g></g></g></g></g></svg>