<svg version="1.1" xmlns="http://www.w3.org/2000/svg" xmlns:xlink="http://www.w3.org/1999/xlink" width="123.18203" height="339.3625" viewBox="0,0,123.18203,339.3625"><defs><radialGradient cx="240" cy="184.78855" r="35.29831" gradientUnits="userSpaceOnUse" id="color-1"><stop offset="0" stop-color="#1f190a"/><stop offset="1" stop-color="#7b6628"/></radialGradient><radialGradient cx="240.3" cy="185.50001" r="21.6" gradientUnits="userSpaceOnUse" id="color-2"><stop offset="0" stop-color="#808080"/><stop offset="1" stop-color="#404040"/></radialGradient></defs><g transform="translate(-179.28375,25.74997)"><g data-paper-data="{&quot;isPaintingLayer&quot;:true}" fill-rule="nonzero" stroke-linejoin="miter" stroke-miterlimit="10" stroke-dasharray="" stroke-dashoffset="0" style="mix-blend-mode: normal"><path d="M241.50091,149.8861c7.45944,0.23566 14.9855,4.16132 20.14752,9.3518c3.59492,3.80133 2.90735,9.9879 3.6629,15.09731c0.78902,5.3403 -0.00219,10.80285 0.94206,15.95508c0.6316,3.67822 2.25246,6.96122 3.74157,10.2866c1.57899,3.52827 6.91125,6.84003 5.24487,10.31117c-2.07556,4.65648 -8.34865,6.13286 -13.35226,7.30029c-7.82286,1.82402 -16.05132,1.38566 -24.08291,1.41079c-5.5575,-0.23766 -11.10344,-0.85828 -16.50718,-2.07446c-5.02095,-1.12504 -10.31127,-2.03198 -14.65895,-4.75086c-1.55612,-0.99024 -2.05995,-3.80326 -1.40995,-5.73724c1.20046,-3.11903 4.83476,-4.85502 6.44669,-8.01483c1.75618,-3.44186 2.6264,-7.30011 3.48931,-11.0706c0.99898,-4.3 1.44081,-8.99227 2.32589,-13.49566c1.06635,-5.40383 -0.33835,-12.2303 3.57277,-16.18193c5.1015,-5.27411 13.07675,-8.61912 20.43768,-8.38748z" fill="url(#color-1)" stroke="#000000" stroke-width="0" stroke-linecap="round"/><path d="M237.70748,151.11297c0,0 0.44119,-11.29681 3.39357,-10.7899c3.02907,0.52008 2.58949,11.36255 2.58949,11.36255" fill="#665521" stroke="#000000" stroke-width="0" stroke-linecap="round"/><path d="M241.19443,140.15626l-2,-164.65623" fill="none" stroke="#000000" stroke-width="2.5" stroke-linecap="round"/><g stroke-width="0" stroke-linecap="butt"><path d="M218.7,185.50001c0,0 9.67065,-13.5 21.6,-13.5c11.92935,0 21.6,13.5 21.6,13.5c0,0 -9.67065,13.5 -21.6,13.5c-11.92935,0 -21.6,-13.5 -21.6,-13.5z" fill="url(#color-2)" stroke="#000000"/><g stroke="none"><path d="M228.98333,185.66409c0,-6.22977 5.05023,-11.28 11.28,-11.28c6.22977,0 11.28,5.05023 11.28,11.28c0,6.22977 -5.05023,11.28 -11.28,11.28c-6.22977,0 -11.28,-5.05023 -11.28,-11.28z" fill="#000000"/><path d="M234.9705,181.4384c0,0.93999 -0.21535,1.702 -0.481,1.702c-0.26565,0 -0.481,-0.76201 -0.481,-1.702c0,-0.93999 0.21535,-1.702 0.481,-1.702c0.26565,0 0.481,0.76201 0.481,1.702z" fill="#808080"/><path d="M238.4761,181.5824c0,1.28706 -0.29487,2.33043 -0.6586,2.33043c-0.36373,0 -0.6586,-1.04337 -0.6586,-2.33043c0,-1.28706 0.29487,-2.33043 0.6586,-2.33043c0.36373,0 0.6586,1.04337 0.6586,2.33043z" fill="#808080"/><path d="M246.5545,181.29441c0,0.93999 -0.21535,1.702 -0.481,1.702c-0.26565,0 -0.481,-0.76201 -0.481,-1.702c0,-0.93999 0.21535,-1.702 0.481,-1.702c0.26565,0 0.481,0.76201 0.481,1.702z" fill="#808080"/></g></g><path d="M179.28375,313.61253v-267.22501h123.18203v267.22501z" fill-opacity="0.01" fill="#000000" stroke="none" stroke-width="0" stroke-linecap="butt"/></g></g></svg>