<svg version="1.1" xmlns="http://www.w3.org/2000/svg" xmlns:xlink="http://www.w3.org/1999/xlink" width="37.8911" height="29.94234" viewBox="0,0,37.8911,29.94234"><g transform="translate(-221.05445,-165.02884)"><g data-paper-data="{&quot;isPaintingLayer&quot;:true}" fill-rule="nonzero" stroke="none" stroke-width="1" stroke-linecap="butt" stroke-linejoin="miter" stroke-miterlimit="10" stroke-dasharray="" stroke-dashoffset="0" style="mix-blend-mode: normal"><g><path d="M238.63772,176.28797c0,0 -13.53855,-5.14465 -7.58159,-10.01853c7.31082,-5.68619 7.58159,10.01853 7.58159,10.01853z" fill="#9bc9bb"/><path d="M238.9085,176.55874c0,0 0.27077,-14.89241 6.4985,-10.56007c7.85236,5.14465 -6.4985,10.56007 -6.4985,10.56007z" fill="#9bc9bb"/><path d="M250.55165,183.05724l8.3939,2.16617l-8.66467,1.62463z" fill="#614f4f"/><path d="M229.16074,194.42963c-10.01853,-1.08308 -11.10161,-15.43395 -0.81231,-18.6832c10.2893,-3.24925 26.53556,-2.43694 26.26479,11.10161c-0.27077,9.20622 -17.60012,8.3939 -25.45248,7.58159z" fill="#ffac38"/><path d="M228.88997,194.42963c-9.74776,-1.08308 -10.83084,-15.16318 -0.81231,-18.41243c2.43694,4.06157 5.14465,11.37238 0.81231,18.41243z" fill="#3c3131"/><path d="M240.53312,194.97117c-1.62463,0 -3.24925,0 -4.60311,0c3.24925,-8.66467 0.54154,-16.24626 -1.8954,-20.30783c1.35386,-0.27077 2.70771,-0.27077 4.06157,-0.27077c6.4985,7.31082 4.60311,15.43395 2.43694,20.5786z" fill="#3c3131"/><path d="M249.46857,177.10028c3.24925,5.41542 2.70771,11.10161 1.35386,15.43395c-1.35386,0.81231 -3.24925,1.62463 -5.14465,1.8954c2.97848,-8.3939 0,-15.43395 -2.16617,-19.49551c2.43694,0.27077 4.33234,1.08308 5.95696,2.16617z" fill="#3c3131"/></g></g></g></svg>