<svg version="1.1" xmlns="http://www.w3.org/2000/svg" xmlns:xlink="http://www.w3.org/1999/xlink" width="34.67311" height="34.67311" viewBox="0,0,34.67311,34.67311"><defs><radialGradient cx="240.00002" cy="180.00003" r="17.08655" gradientUnits="userSpaceOnUse" id="color-1"><stop offset="0" stop-color="#ffc700"/><stop offset="1" stop-color="#ffa400"/></radialGradient><linearGradient x1="239.59394" y1="167.90616" x2="239.59394" y2="170.68467" gradientUnits="userSpaceOnUse" id="color-2"><stop offset="0" stop-color="#2c2300"/><stop offset="1" stop-color="#6b5400"/></linearGradient><linearGradient x1="239.7462" y1="169.41121" x2="239.7462" y2="173.75303" gradientUnits="userSpaceOnUse" id="color-3"><stop offset="0" stop-color="#000000"/><stop offset="1" stop-color="#493900"/></linearGradient><linearGradient x1="239.94937" y1="172.09466" x2="239.94937" y2="176.43649" gradientUnits="userSpaceOnUse" id="color-4"><stop offset="0" stop-color="#2c2300"/><stop offset="1" stop-color="#6b5400"/></linearGradient><linearGradient x1="240.20161" y1="174.49151" x2="240.20161" y2="179.75064" gradientUnits="userSpaceOnUse" id="color-5"><stop offset="0" stop-color="#000000"/><stop offset="1" stop-color="#493900"/></linearGradient><linearGradient x1="239.68594" y1="189.91053" x2="239.68594" y2="192.68904" gradientUnits="userSpaceOnUse" id="color-6"><stop offset="0" stop-color="#2c2300"/><stop offset="1" stop-color="#6b5400"/></linearGradient><linearGradient x1="239.64794" y1="186.60669" x2="239.64794" y2="190.94852" gradientUnits="userSpaceOnUse" id="color-7"><stop offset="0" stop-color="#634e00"/><stop offset="1" stop-color="#070600"/></linearGradient><linearGradient x1="239.85107" y1="183.92323" x2="239.85107" y2="188.26505" gradientUnits="userSpaceOnUse" id="color-8"><stop offset="0" stop-color="#2c2300"/><stop offset="1" stop-color="#6b5400"/></linearGradient><linearGradient x1="240.10334" y1="180.60908" x2="240.10334" y2="185.86819" gradientUnits="userSpaceOnUse" id="color-9"><stop offset="0" stop-color="#634e00"/><stop offset="1" stop-color="#070600"/></linearGradient><linearGradient x1="240.33642" y1="177.35869" x2="240.33642" y2="182.6178" gradientUnits="userSpaceOnUse" id="color-10"><stop offset="0" stop-color="#2c2300"/><stop offset="1" stop-color="#6b5400"/></linearGradient></defs><g transform="translate(-222.66347,-162.66347)"><g data-paper-data="{&quot;isPaintingLayer&quot;:true}" stroke-miterlimit="10" stroke-dasharray="" stroke-dashoffset="0" style="mix-blend-mode: normal"><path d="M229.98313,162.91348h20.03379c3.9166,0 7.06966,3.15307 7.06966,7.06966v20.03379c0,3.91659 -3.15306,7.06966 -7.06966,7.06966h-20.03379c-3.91659,0 -7.06966,-3.15307 -7.06966,-7.06966v-20.03379c0,-3.91659 3.15307,-7.06966 7.06966,-7.06966z" fill="#000000" fill-rule="evenodd" stroke="url(#color-1)" stroke-width="0.5" stroke-linecap="round" stroke-linejoin="round"/><g fill-rule="nonzero" stroke="#000000" stroke-width="0" stroke-linecap="butt" stroke-linejoin="miter"><g><path d="M239.59395,170.68467c-3.17068,0 -5.74104,-0.7349 -5.74104,-1.64144c0,-0.90653 2.60564,-1.13707 5.77632,-1.13707c3.17068,0 5.70575,0.23053 5.70575,1.13707c0,0.90653 -2.57035,1.64144 -5.74103,1.64144z" data-paper-data="{&quot;index&quot;:null}" fill="url(#color-2)"/><g><path d="M239.7462,173.75303c-4.95467,0 -8.97122,-1.14838 -8.97122,-2.56498c0,-1.4166 4.07169,-1.77684 9.02636,-1.77684c4.95467,0 8.91608,0.36024 8.91608,1.77684c0,1.4166 -4.01655,2.56498 -8.97122,2.56498z" data-paper-data="{&quot;index&quot;:null}" fill="url(#color-3)"/><path d="M239.94937,176.43649c-5.46875,0 -9.90206,-1.14838 -9.90206,-2.56498c0,-1.4166 4.49417,-1.77685 9.96292,-1.77685c5.46876,0 9.8412,0.36025 9.8412,1.77685c0,1.4166 -4.43331,2.56498 -9.90206,2.56498z" data-paper-data="{&quot;index&quot;:null}" fill="url(#color-4)"/><path d="M240.20161,179.75063c-6.00143,0 -10.86655,-1.391 -10.86655,-3.10688c0,-1.71588 4.93191,-2.15224 10.93334,-2.15224c6.00143,0 10.79976,0.43636 10.79976,2.15224c0,1.71588 -4.86512,3.10689 -10.86655,3.10689z" data-paper-data="{&quot;index&quot;:null}" fill="url(#color-5)"/></g><path d="M245.42698,191.55197c0,0.90653 -2.53507,1.13707 -5.70575,1.13707c-3.17068,0 -5.77632,-0.23054 -5.77632,-1.13707c0,-0.90653 2.57035,-1.64144 5.74103,-1.64144c3.17068,0 5.74104,0.7349 5.74104,1.64144z" fill="url(#color-6)"/><path d="M248.61915,189.17167c0,1.4166 -3.96141,1.77685 -8.91608,1.77685c-4.95467,0 -9.02636,-0.36025 -9.02636,-1.77685c0,-1.4166 4.01655,-2.56498 8.97122,-2.56498c4.95467,0 8.97122,1.14838 8.97122,2.56498z" fill="url(#color-7)"/><path d="M249.75315,186.48821c0,1.4166 -4.37244,1.77684 -9.8412,1.77684c-5.46876,0 -9.96293,-0.36024 -9.96293,-1.77684c0,-1.4166 4.4333,-2.56498 9.90206,-2.56498c5.46876,0 9.90206,1.14838 9.90206,2.56498z" fill="url(#color-8)"/><path d="M250.96988,183.71596c0,1.71588 -4.79833,2.15223 -10.79976,2.15223c-6.00143,0 -10.93334,-0.43635 -10.93334,-2.15223c0,-1.71588 4.86512,-3.10688 10.86655,-3.10688c6.00143,0 10.86655,1.391 10.86655,3.10688z" fill="url(#color-9)"/><path d="M252.33046,180.46557c0,1.71588 -5.29619,2.15223 -11.92033,2.15223c-6.62413,0 -12.06777,-0.43635 -12.06777,-2.15223c0,-1.71588 5.36991,-3.10688 11.99405,-3.10688c6.62413,0 11.99405,1.391 11.99405,3.10688z" fill="url(#color-10)"/></g><g><path d="M237.44028,180.65598c0,1.81994 -1.15395,3.2953 -2.57742,3.2953c-1.42347,0 -2.57742,-1.47536 -2.57742,-3.2953c0,-1.81994 1.15395,-3.2953 2.57742,-3.2953c1.42347,0 2.57742,1.47536 2.57742,3.2953z" fill="#000000"/><path d="M236.40564,188.72415c0,0.48085 0.1733,-4.05607 -1.31734,-4.05607c-1.49065,0 -2.69906,-0.3898 -2.69906,-0.87066c0,-0.48085 1.20841,-0.87067 2.69906,-0.87067c0.35817,0 1.483,0.58262 1.67452,1.05567c0.60557,1.49571 -0.35718,4.3764 -0.35718,4.74171z" fill="#b50000"/></g></g></g></g></svg>