<svg version="1.1" xmlns="http://www.w3.org/2000/svg" xmlns:xlink="http://www.w3.org/1999/xlink" width="34.17311" height="34.17311" viewBox="0,0,34.17311,34.17311"><g transform="translate(-222.91344,-162.91346)"><g data-paper-data="{&quot;isPaintingLayer&quot;:true}" stroke-miterlimit="10" stroke-dasharray="" stroke-dashoffset="0" style="mix-blend-mode: normal"><path d="M229.98311,162.91347h20.03379c3.9166,0 7.06966,3.15307 7.06966,7.06966v20.03379c0,3.91659 -3.15306,7.06966 -7.06966,7.06966h-20.03379c-3.91659,0 -7.06966,-3.15307 -7.06966,-7.06966v-20.03379c0,-3.91659 3.15307,-7.06966 7.06966,-7.06966z" fill="#a5d5ff" fill-rule="evenodd" stroke="none" stroke-width="0" stroke-linecap="round" stroke-linejoin="round"/><g fill-rule="nonzero" stroke="#000000" stroke-width="0" stroke-linecap="butt" stroke-linejoin="miter"><path d="M227.16667,185.66668v-15.5l6.16667,-0.66667l-0.08447,21.16667z" fill="#0088ff"/><path d="M233.33333,190.33335v-21h19.5v21z" fill="#90cbff"/></g><path d="M236.16667,176.83335l4.33333,-5.16667" fill="none" fill-rule="nonzero" stroke="#d4ebff" stroke-width="2" stroke-linecap="round" stroke-linejoin="miter"/><path d="M237.5,182.50001l8,-10.66667" fill="none" fill-rule="nonzero" stroke="#d4ebff" stroke-width="2" stroke-linecap="round" stroke-linejoin="miter"/><path d="M242.83334,184.33335l5.83333,-7.66667" fill="none" fill-rule="nonzero" stroke="#d4ebff" stroke-width="2" stroke-linecap="round" stroke-linejoin="miter"/><path d="M250.5,183.33334l-1.33333,3.16667" fill="none" fill-rule="nonzero" stroke="#d4ebff" stroke-width="2" stroke-linecap="round" stroke-linejoin="miter"/></g></g></svg>