<svg version="1.1" xmlns="http://www.w3.org/2000/svg" xmlns:xlink="http://www.w3.org/1999/xlink" width="188.95815" height="267.22501" viewBox="0,0,188.95815,267.22501"><g transform="translate(-144.31789,-48.38751)"><g data-paper-data="{&quot;isPaintingLayer&quot;:true}" fill-rule="nonzero" stroke-linejoin="miter" stroke-miterlimit="10" stroke-dasharray="" stroke-dashoffset="0" style="mix-blend-mode: normal"><path d="M179.28374,315.61252v-267.22501h123.18203v267.22501z" fill-opacity="0.01" fill="#000000" stroke="none" stroke-width="0" stroke-linecap="butt"/><path d="M206.75005,307.5l15.14285,-131.8421l37.78325,-0.15789l13.57389,132z" fill="#5a8a00" stroke="#000000" stroke-width="2" stroke-linecap="butt"/><path d="M219.70028,204.11263l3.12142,-26.32765l35.83075,-0.14203l2.76735,26.1059c0,0 -7.51543,4.19603 -21.55904,4.50964c-12.48458,0.27879 -20.16049,-4.14586 -20.16049,-4.14586z" fill="#4f7900" stroke="#000000" stroke-width="0" stroke-linecap="butt"/><path d="M175.40795,138.74748c0,-10.28879 2.74523,-19.97571 7.58564,-28.45056c2.20256,-3.85635 -33.62533,-44.45565 -33.62533,-44.45565c0,0 45.22133,27.2565 47.28366,25.5116c11.38468,-9.63242 26.45941,-12.90372 42.99305,-12.90372c12.36582,0 23.91555,3.27987 33.71574,8.9634c3.19828,1.85481 54.79673,-23.07489 54.79673,-23.07489c0,0 -37.91756,36.88091 -34.82474,41.28947c6.66868,9.50564 10.54928,20.8876 10.54928,33.12036c0,6.58102 -1.12314,12.48379 -3.19933,18.41264c-1.03696,2.9612 29.46206,44.86698 29.46206,44.86698c0,0 -51.85401,-13.40109 -55.67232,-11.95786c-14.35807,5.42701 -14.40784,8.97657 -34.82744,8.97657c-13.85496,0 -26.68544,-4.11738 -37.17854,-11.11974c-4.55127,-3.0372 -49.81257,17.44154 -49.81257,17.44154c0,0 26.17642,-45.09738 23.63713,-52.54776c-1.97625,-5.79838 -0.88305,-7.65836 -0.88305,-14.07237z" fill="#5a8a00" stroke="#000000" stroke-width="2" stroke-linecap="butt"/><path d="M153.39441,201.97384c0,-0.50603 18.61216,-18.92944 45.27768,-19.76536c11.69654,-0.36667 21.08837,9.86027 38.81939,10.16971c14.01124,0.24453 26.01878,-5.52166 36.78836,-5.22031c31.93867,0.89371 50.0539,10.59793 50.0539,11.35986c0,5.33416 -24.5162,-6.21075 -43.30829,-7.83579c-18.5272,-1.60213 -21.31236,8.4804 -43.88943,8.04838c-19.33825,-0.37004 -28.74591,-10.76752 -39.82131,-11.88188c-2.70249,-0.27191 -5.50427,1.63405 -8.57385,2.49213c-4.08453,1.1418 -16.92296,5.76361 -25.07345,9.48519c-5.76993,2.6346 -10.273,7.40712 -10.273,3.14807z" fill="#4f7900" stroke="#000000" stroke-width="0" stroke-linecap="butt"/><path d="M189.39017,139.27563c0,-12.968 10.51265,-23.48065 23.48065,-23.48065c12.968,0 23.48065,10.51265 23.48065,23.48065c0,12.968 -10.51265,23.48065 -23.48065,23.48065c-12.968,0 -23.48065,-10.51265 -23.48065,-23.48065z" fill="#fefffd" stroke="#000000" stroke-width="2" stroke-linecap="butt"/><path d="M196.45556,139c0,-9.12808 7.39976,-16.52784 16.52783,-16.52784c9.12808,0 16.52784,7.39977 16.52784,16.52784c0,9.12808 -7.39977,16.52784 -16.52784,16.52784c-9.12808,0 -16.52783,-7.39977 -16.52783,-16.52784z" fill="#000000" stroke="none" stroke-width="0" stroke-linecap="butt"/><path d="M267.12926,162.75627c-12.968,0 -23.48065,-10.51265 -23.48065,-23.48065c0,-12.968 10.51265,-23.48065 23.48065,-23.48065c12.968,0 23.48065,10.51265 23.48065,23.48065c0,12.968 -10.51265,23.48065 -23.48065,23.48065z" data-paper-data="{&quot;index&quot;:null}" fill="#fefffd" stroke="#000000" stroke-width="2" stroke-linecap="butt"/><path d="M267.0167,155.52784c-9.12807,0 -16.52783,-7.39977 -16.52783,-16.52784c0,-9.12808 7.39977,-16.52784 16.52783,-16.52784c9.12807,0 16.52783,7.39977 16.52783,16.52784c0,9.12808 -7.39977,16.52784 -16.52783,16.52784z" data-paper-data="{&quot;index&quot;:null}" fill="#000000" stroke="none" stroke-width="0" stroke-linecap="butt"/><path d="M189.39017,139.27563c0,-12.968 10.51265,-23.48065 23.48065,-23.48065c12.968,0 23.48065,10.51265 23.48065,23.48065c0,0 -46.96131,1.23155 -46.96131,0z" fill="#5a8a00" stroke="#000000" stroke-width="2" stroke-linecap="butt"/><path d="M243.64863,139.27563c0,-12.968 10.51265,-23.48065 23.48065,-23.48065c12.968,0 23.48065,10.51265 23.48065,23.48065c0,1.2138 -46.96131,0 -46.96131,0z" data-paper-data="{&quot;index&quot;:null}" fill="#5a8a00" stroke="#000000" stroke-width="2" stroke-linecap="butt"/><path d="M202.02784,110.46716c0,0 6.70895,-5.16922 11.79722,-6.36355c5.08827,-1.19433 12.33413,0.69937 12.33413,0.69937c0,0 -8.03812,-0.06028 -11.96762,0.86207c-4.10648,0.96388 -12.16372,4.80211 -12.16372,4.80211z" fill="#000000" stroke="none" stroke-width="0" stroke-linecap="butt"/><path d="M265.96236,105.66506c-3.9295,-0.92235 -11.96762,-0.86207 -11.96762,-0.86207c0,0 7.24586,-1.8937 12.33413,-0.69937c5.08826,1.19433 11.79721,6.36355 11.79721,6.36355c0,0 -8.05724,-3.83822 -12.16372,-4.80211z" data-paper-data="{&quot;index&quot;:null}" fill="#000000" stroke="none" stroke-width="0" stroke-linecap="butt"/><path d="M239.68792,185.40784c-6.44738,0 -12.24271,-10.81567 -12.24271,-10.81567h25.10959c0,0 -6.4195,10.81567 -12.86688,10.81567z" fill="#000000" stroke="#000000" stroke-width="2" stroke-linecap="round"/></g></g></svg>