<svg version="1.1" xmlns="http://www.w3.org/2000/svg" xmlns:xlink="http://www.w3.org/1999/xlink" width="34.17311" height="34.17311" viewBox="0,0,34.17311,34.17311"><g transform="translate(-222.91344,-162.91344)"><g data-paper-data="{&quot;isPaintingLayer&quot;:true}" stroke-miterlimit="10" stroke-dasharray="" stroke-dashoffset="0" style="mix-blend-mode: normal"><path d="M229.98311,162.91345h20.03379c3.9166,0 7.06966,3.15307 7.06966,7.06966v20.03379c0,3.91659 -3.15306,7.06966 -7.06966,7.06966h-20.03379c-3.91659,0 -7.06966,-3.15307 -7.06966,-7.06966v-20.03379c0,-3.91659 3.15307,-7.06966 7.06966,-7.06966z" fill-opacity="0.09677" fill="#191919" fill-rule="evenodd" stroke="none" stroke-width="4.43922" stroke-linecap="round" stroke-linejoin="round"/><path d="M228.60031,187.27445c0,-1.50609 0.34693,-2.90497 0.96988,-4.157c0.44165,-0.88765 -3.4508,-6.92736 -3.4508,-6.92736c0,0 6.43262,3.32587 7.1737,2.84352c1.75942,-1.14516 3.8956,-1.98287 6.19874,-1.98287c2.15906,0 4.17139,0.58971 5.86417,1.6069c0.66507,0.39964 9.00342,-2.27962 9.00342,-2.27962c0,0 -5.74134,5.21983 -5.22865,6.13184c0.79981,1.42276 1.25258,3.04404 1.25258,4.76459" fill="#616161" fill-rule="nonzero" stroke="#000000" stroke-width="0.5" stroke-linecap="butt" stroke-linejoin="miter"/></g></g></svg>