<svg version="1.1" xmlns="http://www.w3.org/2000/svg" xmlns:xlink="http://www.w3.org/1999/xlink" width="139.29766" height="242.30388" viewBox="0,0,139.29766,242.30388"><g transform="translate(-169.27463,-66.19613)"><g data-paper-data="{&quot;isPaintingLayer&quot;:true}" fill-rule="nonzero" stroke-linecap="butt" stroke-linejoin="miter" stroke-miterlimit="10" stroke-dasharray="" stroke-dashoffset="0" style="mix-blend-mode: normal"><path d="M206.75011,307.5l15.14285,-131.8421l37.78325,-0.15789l13.57389,132z" fill="#afffce" stroke="#000000" stroke-width="2"/><path d="M219.70034,204.11263l3.12142,-26.32765l35.83075,-0.14203l2.76735,26.1059c0,0 -7.51543,4.19603 -21.55904,4.50964c-12.48458,0.27879 -20.16049,-4.14586 -20.16049,-4.14586z" fill="#92d4ab" stroke="#000000" stroke-width="0"/><path d="M176.0804,147.70708c0,-33.30185 28.7599,-60.29833 64.23702,-60.29833c35.47712,0 64.23702,26.99649 64.23702,60.29833c0,33.30185 -28.7599,60.29833 -64.23702,60.29833c-35.47712,0 -64.23702,-26.99649 -64.23702,-60.29833z" fill="#afffce" stroke="#000000" stroke-width="2"/><path d="M176.80347,147.42759c0,-0.72799 5.20666,55.91939 63.36046,56.93429c55.56352,0.9697 63.51358,-57.95314 63.51358,-56.93429c0,32.80479 -28.40173,59.39833 -63.43702,59.39833c-35.03529,0 -63.43702,-26.59354 -63.43702,-59.39833z" fill="#92d4ab" stroke="#000000" stroke-width="0"/><path d="M189.6306,147.80322c0,-12.968 10.51265,-23.48065 23.48065,-23.48065c12.968,0 23.48065,10.51265 23.48065,23.48065c0,12.968 -10.51265,23.48065 -23.48065,23.48065c-12.968,0 -23.48065,-10.51265 -23.48065,-23.48065z" fill="#ffffff" stroke="#000000" stroke-width="2"/><path d="M196.696,147.52759c0,-9.12808 7.39976,-16.52784 16.52783,-16.52784c9.12808,0 16.52784,7.39977 16.52784,16.52784c0,9.12808 -7.39977,16.52784 -16.52784,16.52784c-9.12808,0 -16.52783,-7.39977 -16.52783,-16.52784z" fill="#000000" stroke="none" stroke-width="0"/><path d="M267.36965,171.28386c-12.968,0 -23.48065,-10.51265 -23.48065,-23.48065c0,-12.968 10.51265,-23.48065 23.48065,-23.48065c12.968,0 23.48065,10.51265 23.48065,23.48065c0,12.968 -10.51265,23.48065 -23.48065,23.48065z" data-paper-data="{&quot;index&quot;:null}" fill="#ffffff" stroke="#000000" stroke-width="2"/><path d="M267.2571,164.05543c-9.12807,0 -16.52783,-7.39977 -16.52783,-16.52784c0,-9.12808 7.39977,-16.52784 16.52783,-16.52784c9.12807,0 16.52783,7.39977 16.52783,16.52784c0,9.12808 -7.39977,16.52784 -16.52783,16.52784z" data-paper-data="{&quot;index&quot;:null}" fill="#000000" stroke="none" stroke-width="0"/><path d="M189.6306,147.80322c0,-12.968 10.51265,-23.48065 23.48065,-23.48065c12.968,0 23.48065,10.51265 23.48065,23.48065c0,0 -46.96131,1.23155 -46.96131,0z" fill="#afffce" stroke="#000000" stroke-width="2"/><path d="M243.88907,147.80322c0,-12.968 10.51265,-23.48065 23.48065,-23.48065c12.968,0 23.48065,10.51265 23.48065,23.48065c0,1.2138 -46.96131,0 -46.96131,0z" data-paper-data="{&quot;index&quot;:null}" fill="#afffce" stroke="#000000" stroke-width="2"/><path d="M202.26828,118.99475c0,0 6.70895,-5.16922 11.79722,-6.36355c5.08827,-1.19433 12.33413,0.69937 12.33413,0.69937c0,0 -8.03812,-0.06028 -11.96762,0.86207c-4.10648,0.96388 -12.16372,4.80211 -12.16372,4.80211z" fill="#000000" stroke="none" stroke-width="0"/><path d="M266.20275,114.19265c-3.9295,-0.92235 -11.96762,-0.86207 -11.96762,-0.86207c0,0 7.24586,-1.8937 12.33413,-0.69937c5.08826,1.19433 11.79721,6.36355 11.79721,6.36355c0,0 -8.05724,-3.83822 -12.16372,-4.80211z" data-paper-data="{&quot;index&quot;:null}" fill="#000000" stroke="none" stroke-width="0"/><path d="M254.38301,183.49988v6.59737h-27.80674v-6.61179" fill="#000000" stroke="#000000" stroke-width="2"/><g stroke="#000000"><path d="M217.41805,97.72831c0,0.62224 -5.12753,0.8263 -5.18449,0.23971c-0.64966,-6.68968 -1.73588,-15.69241 -5.82427,-20.59699c-3.27504,-3.92886 -9.30962,-4.31808 -12.41486,-4.51084c-13.11052,-0.81386 -14.16296,4.24776 -14.58841,4.50303c-0.42545,0.25527 -3.89906,15.28578 -3.76086,15.40155c0.13821,0.11577 6.03979,3.53686 9.36268,2.37897c2.4352,-0.84857 1.75925,-4.4721 2.93355,-5.10418c1.20331,-0.64768 3.48435,0.67543 3.48435,0.64362c0,-0.25753 1.88927,8.55606 -5.28949,10.42282c-4.16911,1.08413 -15.80742,-3.15594 -15.86162,-5.67831c-0.0542,-2.52238 2.04124,-20.82745 4.45181,-22.98826c4.98496,-4.46847 13.10063,-5.2433 19.26797,-5.2433c5.24125,0 13.68919,-0.61163 18.75554,5.46892c6.88993,8.26919 4.66809,24.16195 4.66809,25.06327z" fill="#afffce" stroke-width="2"/><path d="M190.85335,95.72444c-1.03394,0.2044 -2.56486,-3.34717 -2.56486,-3.34717c0,0 -3.69831,1.13671 -4.21259,0.21611c-0.51494,-0.92081 2.39099,-3.47495 2.39099,-3.47495c0,0 -2.22338,-3.16602 -1.50684,-3.9395c0.71679,-0.77418 4.04336,1.20013 4.04336,1.20013c0,0 2.32316,-3.09307 3.28073,-2.65146c0.95867,0.44275 0.10899,4.21735 0.10899,4.21735c0,0 3.65965,1.25359 3.53397,2.30097c-0.12345,1.04746 -3.97603,1.40626 -3.97603,1.40626c0,0 -0.06178,3.86859 -1.09772,4.07227z" fill="#ffff00" stroke-width="1.28786"/></g><g data-paper-data="{&quot;index&quot;:null}" stroke="#000000"><path d="M260.42785,97.84752c0,-0.90132 -2.22184,-16.79408 4.66809,-25.06327c5.06635,-6.08055 13.51429,-5.46892 18.75554,-5.46892c6.16734,0 14.28301,0.77483 19.26797,5.2433c2.41057,2.16081 4.50601,20.46588 4.45181,22.98826c-0.0542,2.52237 -11.69251,6.76244 -15.86162,5.67831c-7.17876,-1.86676 -5.28949,-10.68035 -5.28949,-10.42282c0,0.03181 2.28104,-1.2913 3.48435,-0.64362c1.1743,0.63208 0.49835,4.25561 2.93355,5.10418c3.32289,1.15789 9.22447,-2.2632 9.36268,-2.37897c0.1382,-0.11577 -3.33541,-15.14628 -3.76086,-15.40155c-0.42545,-0.25527 -1.47789,-5.31689 -14.58841,-4.50303c-3.10524,0.19276 -9.13982,0.58198 -12.41486,4.51084c-4.08839,4.90458 -5.17461,13.90731 -5.82427,20.59699c-0.05696,0.58659 -5.18449,0.38253 -5.18449,-0.23971z" fill="#afffce" stroke-width="2"/><path d="M285.8948,91.77138c0,0 -3.85259,-0.3588 -3.97603,-1.40626c-0.12567,-1.04739 3.53397,-2.30097 3.53397,-2.30097c0,0 -0.84968,-3.77461 0.10899,-4.21735c0.95757,-0.44161 3.28073,2.65146 3.28073,2.65146c0,0 3.32657,-1.97431 4.04336,-1.20013c0.71654,0.77348 -1.50684,3.93951 -1.50684,3.93951c0,0 2.90593,2.55414 2.39099,3.47494c-0.51428,0.9206 -4.21259,-0.21611 -4.21259,-0.21611c0,0 -1.53093,3.55158 -2.56486,3.34718c-1.03595,-0.20367 -1.09772,-4.07227 -1.09772,-4.07227z" fill="#ffff00" stroke-width="1.28786"/></g><g data-paper-data="{&quot;index&quot;:null}" fill="#000000" stroke="none" stroke-width="0.5"><path d="M244.15634,76.68203c0.37775,-0.3845 0.76225,-0.00676 0.76225,-0.00676l-0.13227,0.04091c1.4526,0.13316 2.81321,0.47103 4.03229,-0.6261c0.27992,-0.25192 0.50543,-0.6254 0.71336,-0.93839c0.56349,-0.84754 0.07305,-1.95214 -0.25127,-2.83694c-0.09823,-0.26797 -0.22248,-0.79658 -0.41424,-1.04159c-0.15819,-0.20211 -0.61803,-0.35581 -0.80636,-0.45246c-0.60314,-0.30953 -1.31233,-0.95575 -2.00996,-0.55374c-0.33195,0.19128 -1.22875,0.54574 -1.33526,0.94895c-0.0284,0.10752 -0.02849,0.21718 -0.01605,0.32797c0.23217,-0.08498 0.45063,-0.0323 0.6398,0.10553c0.24537,0.06556 0.44626,0.15633 0.52813,0.26257c0.2497,0.32402 0.24428,0.80557 0.19487,1.21164c-0.00342,0.0281 -0.00756,0.05542 -0.01238,0.08199c0.03809,0.57607 -0.10382,1.15328 -0.42518,1.39442c-0.74982,0.56266 -1.49188,0.10334 -1.9064,-0.6231c-0.13576,-0.15801 -0.19833,-0.32388 -0.21716,-0.49312c-0.19331,-0.59803 -0.16878,-1.25463 0.20424,-1.66138c-0.03958,-0.32102 -0.11755,-0.6446 -0.01414,-0.94267c0.26039,-0.75062 1.20053,-1.23959 1.86306,-1.56968c1.1434,-0.56969 1.99016,0.03154 2.99623,0.55031c0.44897,0.23151 0.79835,0.2987 1.143,0.7206c0.35001,0.42845 0.41981,0.87019 0.60012,1.36319c0.47099,1.28773 0.88121,2.55145 0.14551,3.79085c-0.2741,0.4099 -0.51815,0.8163 -0.89445,1.15245c-1.48229,1.3241 -3.07374,1.06284 -4.85536,0.90232l-0.52561,-0.34551c0,0 -0.38451,-0.37774 -0.00676,-0.76224z"/><path d="M246.34788,86.86009c0.29922,0.09676 0.83111,-0.08257 1.21206,-0.0845c0.13427,-0.12073 0.25493,-0.25471 0.33574,-0.33354c0.12628,-0.12319 0.25544,-0.24741 0.38278,-0.37421c-0.06467,-0.3264 0.24458,-0.53136 0.24458,-0.53136l0.0604,0.17997c0.09013,-0.63172 0.41983,-1.19988 0.40933,-1.84188c-0.00878,-0.53706 -0.28241,-0.6408 -0.20543,-1.25089c0.00598,-0.04736 0.0104,-0.09688 0.01401,-0.14781c-0.2157,-0.57585 -0.50006,-1.10945 -0.82265,-1.54715c0,0 -0.0552,-0.07542 -0.08822,-0.18644c-0.61398,0.03172 -1.26463,0.16994 -1.72549,0.35827c-0.25709,0.10506 -0.70846,0.18566 -0.91811,0.42888c-0.09581,0.11116 -0.08959,0.29074 -0.1913,0.39653c-0.00528,0.00549 -0.01059,0.01096 -0.01592,0.0164l0.0043,0.00274l-0.0998,0.1569l-0.04829,0.1648c-0.05776,0.21531 -0.24553,0.3774 -0.474,0.39699c-0.04561,0.01254 -0.09364,0.01924 -0.14324,0.01924c-0.28274,0 -0.51464,-0.21769 -0.53721,-0.49461l-0.0682,-0.73226c-0.12311,-0.4202 -0.16173,-0.84413 -0.17114,-1.27192c-0.11291,-0.25768 -0.25935,-0.49711 -0.44398,-0.72303l-0.20134,-0.07499c-0.21108,-0.07305 -0.36266,-0.27358 -0.36266,-0.50951c0,-0.21491 0.12577,-0.40044 0.30772,-0.487l0.43689,-0.21919c0.08967,-0.09754 0.15616,-0.18306 0.20582,-0.26188l0.01061,-0.377c0.00349,-0.14403 0.06347,-0.27405 0.15863,-0.36876c0.0098,-0.1195 0.02638,-0.25708 0.06377,-0.42444l0.00342,-0.55577c0.00156,-0.29636 0.24228,-0.53611 0.539,-0.53611c0.19387,0 0.36384,0.10235 0.45881,0.25597l0.22512,0.35165c0.3248,0.14699 0.63441,0.32758 0.93644,0.51701c0,0 0.45633,0.28688 0.16945,0.74321c-0.28688,0.45633 -0.7432,0.16945 -0.7432,0.16945c-0.1411,-0.08893 -0.28379,-0.17536 -0.4278,-0.25961c-0.04658,0.20552 -0.1487,0.43326 -0.27241,0.654l0.00701,0.11543l-0.00324,0.00019c0.00129,0.00404 0.00258,0.00808 0.00385,0.01213c0.1672,0.53317 0.10261,1.11722 0.06625,1.70058c0.10321,0.17085 0.21452,0.34511 0.30856,0.52053c0.05298,-0.03078 0.10436,-0.05931 0.15244,-0.08534c1.0179,-0.55089 2.04353,-0.59312 3.17093,-0.58602c0.29221,0.00184 0.6,-0.0851 0.87662,0.00908c0.91723,0.3123 1.06144,1.08433 1.42587,1.84582c0.90275,1.88631 1.27782,4.7772 -0.80507,5.94794c-0.92313,0.47621 -2.06944,1.0628 -3.08221,1.19311c-0.82482,0.10613 -1.49865,0.38599 -2.18791,-0.28896c-0.25223,-0.24699 -0.50332,-0.95397 -0.6853,-1.26029c-0.17488,-0.29436 -0.66664,-0.8219 -0.73184,-1.16103c-0.05775,-0.30039 -0.00135,-0.61639 0.06259,-0.91553c0.08961,-0.41922 0.50411,-1.36518 1.0032,-1.46448c0.37212,-0.07403 0.73929,0.18936 1.08324,0.34951c0.79188,0.3687 1.54964,1.16119 0.92563,2.08226c-0.09636,0.14225 -0.24162,0.23867 -0.40153,0.31577c0.12712,0.19979 0.31162,0.36035 0.59239,0.45114z"/><path d="M246.42998,70.72865c-0.56195,0.25634 -1.40456,0.60408 -1.49917,1.12549c-0.04013,0.22118 -0.01049,0.44947 -0.01574,0.67419c0,0 -0.0234,0.53849 -0.5619,0.5151c-0.5385,-0.02339 -0.51511,-0.56189 -0.51511,-0.56189c0.01774,-0.30429 -0.02591,-0.61852 0.05321,-0.91287c0.16028,-0.59623 0.61834,-0.98745 1.13926,-1.30119c-0.02348,-0.07218 -0.03222,-0.15907 -0.01766,-0.26356c0.07441,-0.53385 0.60826,-0.45945 0.60826,-0.45945l0.4607,0.0644c0.04984,0.00576 0.09965,0.01157 0.14939,0.01749c0.34457,-0.19375 0.91471,-0.55 1.29597,-0.55262c1.16922,-0.00804 2.16355,1.43035 2.4918,2.43154c0.21445,0.17987 0.17261,0.48843 0.17261,0.48843l-0.00646,0.04381l0.09302,0.29741c0.01836,0.05427 0.02832,0.11242 0.02832,0.17289c0,0.15137 -0.0624,0.28817 -0.16287,0.38607c0.00876,0.67624 0.02072,1.3655 -0.15988,2.01417c-0.00718,0.02581 -0.0137,0.0523 -0.0199,0.07917c-0.00771,0.19651 -0.01411,0.39115 -0.01655,0.58283l-0.06957,0.08043l0.04166,0.01636l-0.22312,0.56794c-0.07558,0.20636 -0.27374,0.35362 -0.50628,0.35362c-0.29769,0 -0.53901,-0.24132 -0.53901,-0.53901c0,-0.01013 0.00028,-0.0202 0.00083,-0.03019l0.03086,-0.63428l0.01855,0.0009c-0.0034,-0.02786 -0.0061,-0.05584 -0.008,-0.08398c-0.01752,-0.25953 0.10567,-0.50149 0.21045,-0.74762c0.0296,-0.73185 0.07422,-1.48333 -0.08097,-2.17476c-0.00992,-0.04419 -0.02123,-0.08874 -0.03376,-0.13357c-0.33344,-0.37578 -0.56144,-0.95428 -1.00051,-1.19372c-0.35977,-0.1962 -0.88815,-0.27276 -1.35844,-0.32355z"/></g></g></g></svg>