<svg version="1.1" xmlns="http://www.w3.org/2000/svg" xmlns:xlink="http://www.w3.org/1999/xlink" width="137.29958" height="267.22501" viewBox="0,0,137.29958,267.22501"><g transform="translate(-171.36697,-46.3875)"><g data-paper-data="{&quot;isPaintingLayer&quot;:true}" fill-rule="nonzero" stroke-linejoin="miter" stroke-miterlimit="10" stroke-dasharray="" stroke-dashoffset="0" style="mix-blend-mode: normal"><path d="M206.75008,307.50004l15.14285,-131.8421l37.78325,-0.15789l13.57389,132z" fill="#ffb299" stroke="#000000" stroke-width="2" stroke-linecap="butt"/><path d="M219.7003,204.11268l3.12142,-26.32765l35.83075,-0.14203l2.76735,26.1059c0,0 -7.51543,4.19603 -21.55904,4.50964c-12.48458,0.27879 -20.16049,-4.14586 -20.16049,-4.14586z" fill="#e38f73" stroke="#000000" stroke-width="0" stroke-linecap="butt"/><path d="M176.56304,136.90004c0,-0.72799 5.20666,55.91939 63.36046,56.93429c55.56352,0.9697 63.51358,-57.95314 63.51358,-56.93429c0,32.80479 -28.40173,59.39833 -63.43702,59.39833c-35.03529,0 -63.43702,-26.59354 -63.43702,-59.39833z" fill="#e38f73" stroke="#000000" stroke-width="0" stroke-linecap="butt"/><path d="M189.3902,137.27567c0,-12.968 10.51265,-23.48065 23.48065,-23.48065c12.968,0 23.48065,10.51265 23.48065,23.48065c0,12.968 -10.51265,23.48065 -23.48065,23.48065c-12.968,0 -23.48065,-10.51265 -23.48065,-23.48065z" fill="#ffffff" stroke="#000000" stroke-width="2" stroke-linecap="butt"/><path d="M196.45558,137.00001c0,-9.12808 7.39976,-16.52784 16.52783,-16.52784c9.12808,0 16.52784,7.39977 16.52784,16.52784c0,9.12808 -7.39977,16.52784 -16.52784,16.52784c-9.12808,0 -16.52783,-7.39977 -16.52783,-16.52784z" fill="#000000" stroke="none" stroke-width="0" stroke-linecap="butt"/><path d="M267.12926,160.75632c-12.968,0 -23.48065,-10.51265 -23.48065,-23.48065c0,-12.968 10.51265,-23.48065 23.48065,-23.48065c12.968,0 23.48065,10.51265 23.48065,23.48065c0,12.968 -10.51265,23.48065 -23.48065,23.48065z" data-paper-data="{&quot;index&quot;:null}" fill="#ffffff" stroke="#000000" stroke-width="2" stroke-linecap="butt"/><path d="M267.01671,153.52785c-9.12807,0 -16.52783,-7.39977 -16.52783,-16.52784c0,-9.12808 7.39977,-16.52784 16.52783,-16.52784c9.12807,0 16.52783,7.39977 16.52783,16.52784c0,9.12808 -7.39977,16.52784 -16.52783,16.52784z" data-paper-data="{&quot;index&quot;:null}" fill="#000000" stroke="none" stroke-width="0" stroke-linecap="butt"/><path d="M189.3902,137.27567c0,-12.968 10.51265,-23.48065 23.48065,-23.48065c12.968,0 23.48065,10.51265 23.48065,23.48065c0,0 -46.96131,1.23155 -46.96131,0z" fill="#e38f73" stroke="#000000" stroke-width="2" stroke-linecap="butt"/><path d="M243.64864,137.27567c0,-12.968 10.51265,-23.48065 23.48065,-23.48065c12.968,0 23.48065,10.51265 23.48065,23.48065c0,1.2138 -46.96131,0 -46.96131,0z" data-paper-data="{&quot;index&quot;:null}" fill="#e38f73" stroke="#000000" stroke-width="2" stroke-linecap="butt"/><path d="M252.61665,176.65649c0,0 -4.09668,4 -12.91066,4.14285c-7.26585,0.11777 -12.19893,-4.14285 -12.19893,-4.14285" fill="none" stroke="#000000" stroke-width="2" stroke-linecap="round"/><path d="M178.51156,313.61251v-267.22501h123.18203v267.22501z" fill-opacity="0.01" fill="#000000" stroke="none" stroke-width="0" stroke-linecap="butt"/><path d="M175.06778,136.84616c0,-33.30185 28.7599,-60.29833 64.23702,-60.29833c35.47712,0 64.23702,26.99649 64.23702,60.29833c0,13.05014 4.0286,82.47451 4.0286,82.47451c0,0 -46.69107,-22.17618 -68.26562,-22.17618c-20.49118,0 -66.8752,20.6796 -66.8752,20.6796c0,0 2.63818,-66.91085 2.63818,-80.97793z" fill="#ffb299" stroke="#000000" stroke-width="2" stroke-linecap="butt"/><path d="M201.25567,108.46717c0,0 6.70895,-5.16922 11.79721,-6.36355c5.08827,-1.19433 12.33413,0.69937 12.33413,0.69937c0,0 -8.03812,-0.06028 -11.96762,0.86207c-4.10648,0.96389 -12.16372,4.80211 -12.16372,4.80211z" fill="#000000" stroke="none" stroke-width="0" stroke-linecap="butt"/><path d="M265.19016,103.66507c-3.9295,-0.92235 -11.96762,-0.86207 -11.96762,-0.86207c0,0 7.24586,-1.8937 12.33413,-0.69937c5.08826,1.19433 11.79721,6.36355 11.79721,6.36355c0,0 -8.05724,-3.83822 -12.16372,-4.80211z" data-paper-data="{&quot;index&quot;:null}" fill="#000000" stroke="none" stroke-width="0" stroke-linecap="butt"/><path d="M184.30799,196.60479v-101.3132h110.13953v101.31321z" fill="#ff0000" stroke="#000000" stroke-width="2" stroke-linecap="butt"/><path d="M227.50775,100.71375l4.71544,-20.58282h12.59581l4.87555,20.59884z" fill="#ffe88e" stroke="#000000" stroke-width="2" stroke-linecap="butt"/><path d="M219.69,151.39107c-2.48882,-0.23615 -2.25267,-2.72498 -2.25267,-2.72498l0.21522,-2.26003c0.56576,-8.08376 1.30317,-16.16786 1.57635,-24.26752c0,0 0.08448,-2.49857 2.58305,-2.41409c2.49857,0.08448 2.41409,2.58306 2.41409,2.58306c-0.27658,8.15999 -1.01675,16.3033 -1.58567,24.44732l-0.22539,2.38359c0,0 -0.23615,2.48882 -2.72498,2.25266z" fill="#000000" stroke="none" stroke-width="0.5" stroke-linecap="butt"/><path d="M254.97397,150.62623c-2.48454,-0.27754 -2.20702,-2.76208 -2.20702,-2.76208l0.00571,0.02557c0.23871,-8.29905 0.27906,-16.58213 0.27906,-24.88628c0,0 0,-2.5 2.5,-2.5c2.5,0 2.5,2.5 2.5,2.5c0,8.35197 -0.04161,16.68295 -0.28112,25.02986l-0.03455,0.38592c0,0 -0.27754,2.48454 -2.76208,2.20701z" fill="#000000" stroke="none" stroke-width="0.5" stroke-linecap="butt"/><path d="M248.04437,167.09422c2.08371,1.38136 0.70235,3.46507 0.70235,3.46507l-1.09776,1.64687c-1.9754,3.43282 -5.02078,12.46304 -10.41902,11.61001c-1.51499,-0.2394 -2.0651,-2.2966 -2.84061,-3.6199c-1.60139,-2.73253 -2.32787,-7.32761 -3.01056,-10.25152c0,0 -0.56669,-2.43493 1.86824,-3.00162c2.43493,-0.56669 3.00162,1.86824 3.00162,1.86824c0.52715,2.2728 1.07118,4.54963 1.82962,6.75605c0.25716,0.7481 0.6325,1.46862 0.81336,2.23527c0.17738,-0.52817 0.35666,-1.05745 0.60985,-1.55246c1.1489,-2.24619 2.55548,-4.35103 3.81377,-6.53781l1.26408,-1.91585c0,0 1.38136,-2.08371 3.46507,-0.70235z" fill="#000000" stroke="none" stroke-width="0.5" stroke-linecap="butt"/></g></g></svg>