<svg version="1.1" xmlns="http://www.w3.org/2000/svg" xmlns:xlink="http://www.w3.org/1999/xlink" width="130.47404" height="267.22501" viewBox="0,0,130.47404,267.22501"><defs><radialGradient cx="267.44942" cy="147.06282" r="23.48065" gradientUnits="userSpaceOnUse" id="color-1"><stop offset="0" stop-color="#ffffff"/><stop offset="1" stop-color="#ffc0c0"/></radialGradient></defs><g transform="translate(-175.16013,-56.17468)"><g data-paper-data="{&quot;isPaintingLayer&quot;:true}" fill-rule="nonzero" stroke-linejoin="miter" stroke-miterlimit="10" stroke-dasharray="" stroke-dashoffset="0" style="mix-blend-mode: normal"><path d="M179.60391,323.39969v-267.22501h123.18203v267.22501z" fill-opacity="0.01" fill="#000000" stroke="none" stroke-width="0" stroke-linecap="butt"/><path d="M206.75007,307.50005l15.14285,-131.8421l37.78325,-0.15789l13.57389,132z" fill="#0064ff" stroke="#000000" stroke-width="2" stroke-linecap="butt"/><path d="M219.70029,204.11268l3.12142,-26.32765l35.83075,-0.14203l2.76735,26.1059c0,0 -7.51543,4.19603 -21.55904,4.50964c-12.48458,0.27879 -20.16049,-4.14586 -20.16049,-4.14586z" fill="#0054d1" stroke="#000000" stroke-width="0" stroke-linecap="butt"/><path d="M176.16013,146.63333c0,-33.30185 28.7599,-60.29833 64.23702,-60.29833c35.47712,0 64.23702,26.99649 64.23702,60.29833c0,33.30185 -28.7599,60.29833 -64.23702,60.29833c-35.47712,0 -64.23702,-26.99649 -64.23702,-60.29833z" fill="#0064ff" stroke="#000000" stroke-width="2" stroke-linecap="butt"/><path d="M176.88319,146.6872c0,-0.72799 5.20666,55.91939 63.36046,56.93429c55.56352,0.9697 63.51358,-57.95314 63.51358,-56.93429c0,32.80479 -28.40173,59.39833 -63.43702,59.39833c-35.03529,0 -63.43702,-26.59354 -63.43702,-59.39833z" fill="#0054d1" stroke="#000000" stroke-width="0" stroke-linecap="butt"/><path d="M189.71035,147.06283c0,-12.968 10.51265,-23.48065 23.48065,-23.48065c12.968,0 23.48065,10.51265 23.48065,23.48065c0,12.968 -10.51265,23.48065 -23.48065,23.48065c-12.968,0 -23.48065,-10.51265 -23.48065,-23.48065z" fill="#ffffff" stroke="#000000" stroke-width="2" stroke-linecap="butt"/><path d="M196.77573,146.78717c0,-9.12808 7.39976,-16.52784 16.52783,-16.52784c9.12808,0 16.52784,7.39977 16.52784,16.52784c0,9.12808 -7.39977,16.52784 -16.52784,16.52784c-9.12808,0 -16.52783,-7.39977 -16.52783,-16.52784z" fill="#000000" stroke="none" stroke-width="0" stroke-linecap="butt"/><path d="M267.44942,170.54347c-12.968,0 -23.48065,-10.51265 -23.48065,-23.48065c0,-12.968 10.51265,-23.48065 23.48065,-23.48065c12.968,0 23.48065,10.51265 23.48065,23.48065c0,12.968 -10.51265,23.48065 -23.48065,23.48065z" data-paper-data="{&quot;index&quot;:null}" fill="url(#color-1)" stroke="#000000" stroke-width="2" stroke-linecap="butt"/><path d="M267.33687,163.31501c-9.12807,0 -16.52783,-7.39977 -16.52783,-16.52784c0,-9.12808 7.39977,-16.52784 16.52783,-16.52784c9.12807,0 16.52783,7.39977 16.52783,16.52784c0,9.12808 -7.39977,16.52784 -16.52783,16.52784z" data-paper-data="{&quot;index&quot;:null}" fill="#000000" stroke="none" stroke-width="0" stroke-linecap="butt"/><path d="M189.71035,147.06283c0,-12.968 10.51265,-23.48065 23.48065,-23.48065c12.968,0 23.48065,10.51265 23.48065,23.48065c0,0 -46.96131,1.23155 -46.96131,0z" fill="#0064ff" stroke="#000000" stroke-width="2" stroke-linecap="butt"/><path d="M243.96879,147.06283c0,-12.968 10.51265,-23.48065 23.48065,-23.48065c12.968,0 23.48065,10.51265 23.48065,23.48065c0,1.2138 -46.96131,0 -46.96131,0z" data-paper-data="{&quot;index&quot;:null}" fill="#0064ff" stroke="#000000" stroke-width="2" stroke-linecap="butt"/><path d="M211.26507,101.08859l23,-18l-1.33333,11.33334l23.83333,-11.5l-4.83333,21.33333" data-paper-data="{&quot;index&quot;:null}" fill="#0064ff" stroke="#000000" stroke-width="2" stroke-linecap="round"/><path d="M202.34802,118.25435c0,0 6.70895,-5.16922 11.79721,-6.36355c5.08827,-1.19433 12.33413,0.69937 12.33413,0.69937c0,0 -8.03812,-0.06028 -11.96762,0.86207c-4.10648,0.96389 -12.16372,4.80211 -12.16372,4.80211z" fill="#000000" stroke="none" stroke-width="0" stroke-linecap="butt"/><path d="M266.28252,113.45225c-3.9295,-0.92235 -11.96762,-0.86207 -11.96762,-0.86207c0,0 7.24586,-1.8937 12.33413,-0.69937c5.08826,1.19433 11.79721,6.36355 11.79721,6.36355c0,0 -8.05724,-3.83822 -12.16372,-4.80211z" data-paper-data="{&quot;index&quot;:null}" fill="#000000" stroke="none" stroke-width="0" stroke-linecap="butt"/><g stroke="#000000" stroke-width="2"><path d="M229.49899,86.28485c5.52844,0 19.8453,-0.09255 28.57057,3.54315c12.39207,5.16361 22.26571,12.81024 28.48728,24.809c9.80899,18.91737 17.93017,42.179 13.88056,58.46085c-2.89733,11.64899 -17.99751,22.22681 -25.64136,24.528c-0.36921,0.11115 -27.1519,-23.01504 -42.49302,-50.70352c-15.53315,-28.03508 -19.52271,-60.63748 -2.80401,-60.63748z" fill="#ffffff" stroke-linecap="butt"/><path d="M255.03898,89.43349l-32.7636,32.00289" fill="none" stroke-linecap="round"/><path d="M271.57878,100.6736l-40.68927,42.4707" fill="none" stroke-linecap="round"/><path d="M248.61235,153.7761l34.46494,-29.11515" fill="none" stroke-linecap="round"/><path d="M285.11872,153.51187l-27.15352,24.35545" fill="none" stroke-linecap="round"/></g><path d="M249.83928,192.47761c0,1.38905 -5.1166,2.5151 -11.42824,2.5151c-6.31164,0 -11.42824,-1.12605 -11.42824,-2.5151c0,-1.38905 5.1166,-2.5151 11.42824,-2.5151c6.31164,0 11.42824,1.12605 11.42824,2.5151z" fill="#000000" stroke="#000000" stroke-width="2" stroke-linecap="butt"/></g></g></svg>