<svg version="1.1" xmlns="http://www.w3.org/2000/svg" xmlns:xlink="http://www.w3.org/1999/xlink" width="215.48508" height="292.2932" viewBox="0,0,215.48508,292.2932"><defs><linearGradient x1="240.00007" y1="175.50003" x2="240.00007" y2="307.50003" gradientUnits="userSpaceOnUse" id="color-1"><stop offset="0" stop-color="#2a1d19"/><stop offset="1" stop-color="#825b4e"/></linearGradient><linearGradient x1="239.35968" y1="83.51261" x2="239.35968" y2="226.28545" gradientUnits="userSpaceOnUse" id="color-2"><stop offset="0" stop-color="#2a1d19"/><stop offset="1" stop-color="#825b4e"/></linearGradient><radialGradient cx="154.97487" cy="224.66367" r="107.74254" gradientUnits="userSpaceOnUse" id="color-3"><stop offset="0" stop-color="#2a1d19"/><stop offset="1" stop-color="#825b4e"/></radialGradient><radialGradient cx="243.11002" cy="134.12074" r="101.35785" gradientUnits="userSpaceOnUse" id="color-4"><stop offset="0" stop-color="#150000"/><stop offset="1" stop-color="#850000"/></radialGradient><linearGradient x1="203.1441" y1="114.39527" x2="203.1441" y2="161.35657" gradientUnits="userSpaceOnUse" id="color-5"><stop offset="0" stop-color="#919191"/><stop offset="1" stop-color="#865959"/></linearGradient><linearGradient x1="267.95017" y1="103.0269" x2="267.95017" y2="149.9882" gradientUnits="userSpaceOnUse" id="color-6"><stop offset="0" stop-color="#919191"/><stop offset="1" stop-color="#865959"/></linearGradient><linearGradient x1="266.46306" y1="161.25355" x2="266.48357" y2="167.02823" gradientUnits="userSpaceOnUse" id="color-7"><stop offset="0" stop-color="#363636"/><stop offset="1" stop-color="#636363"/></linearGradient><linearGradient x1="264.16057" y1="160.69836" x2="264.18509" y2="167.5998" gradientUnits="userSpaceOnUse" id="color-8"><stop offset="0" stop-color="#363636"/><stop offset="1" stop-color="#636363"/></linearGradient><linearGradient x1="260.77876" y1="160.28782" x2="260.80629" y2="168.03434" gradientUnits="userSpaceOnUse" id="color-9"><stop offset="0" stop-color="#363636"/><stop offset="1" stop-color="#636363"/></linearGradient><linearGradient x1="256.12836" y1="159.60012" x2="256.1609" y2="168.75508" gradientUnits="userSpaceOnUse" id="color-10"><stop offset="0" stop-color="#363636"/><stop offset="1" stop-color="#636363"/></linearGradient><linearGradient x1="244.71735" y1="158.93643" x2="244.75589" y2="169.78154" gradientUnits="userSpaceOnUse" id="color-11"><stop offset="0" stop-color="#363636"/><stop offset="1" stop-color="#636363"/></linearGradient><linearGradient x1="250.72728" y1="159.05591" x2="250.76381" y2="169.33766" gradientUnits="userSpaceOnUse" id="color-12"><stop offset="0" stop-color="#363636"/><stop offset="1" stop-color="#636363"/></linearGradient><linearGradient x1="216.47115" y1="161.29036" x2="216.49167" y2="167.06504" gradientUnits="userSpaceOnUse" id="color-13"><stop offset="0" stop-color="#363636"/><stop offset="1" stop-color="#636363"/></linearGradient><linearGradient x1="218.76964" y1="160.71881" x2="218.79416" y2="167.62024" gradientUnits="userSpaceOnUse" id="color-14"><stop offset="0" stop-color="#363636"/><stop offset="1" stop-color="#636363"/></linearGradient><linearGradient x1="222.14844" y1="160.28425" x2="222.17597" y2="168.03077" gradientUnits="userSpaceOnUse" id="color-15"><stop offset="0" stop-color="#363636"/><stop offset="1" stop-color="#636363"/></linearGradient><linearGradient x1="226.79383" y1="159.56353" x2="226.82636" y2="168.71849" gradientUnits="userSpaceOnUse" id="color-16"><stop offset="0" stop-color="#363636"/><stop offset="1" stop-color="#636363"/></linearGradient><linearGradient x1="238.19983" y1="158.81875" x2="238.23838" y2="169.66386" gradientUnits="userSpaceOnUse" id="color-17"><stop offset="0" stop-color="#363636"/><stop offset="1" stop-color="#636363"/></linearGradient><linearGradient x1="232.19091" y1="158.98094" x2="232.22745" y2="169.26268" gradientUnits="userSpaceOnUse" id="color-18"><stop offset="0" stop-color="#363636"/><stop offset="1" stop-color="#636363"/></linearGradient><linearGradient x1="264.4431" y1="176.46447" x2="264.50371" y2="181.648" gradientUnits="userSpaceOnUse" id="color-19"><stop offset="0" stop-color="#636363"/><stop offset="1" stop-color="#363636"/></linearGradient><linearGradient x1="262.38661" y1="177.21557" x2="262.45906" y2="183.41053" gradientUnits="userSpaceOnUse" id="color-20"><stop offset="0" stop-color="#636363"/><stop offset="1" stop-color="#363636"/></linearGradient><linearGradient x1="259.35788" y1="177.72517" x2="259.4392" y2="184.67869" gradientUnits="userSpaceOnUse" id="color-21"><stop offset="0" stop-color="#636363"/><stop offset="1" stop-color="#363636"/></linearGradient><linearGradient x1="255.18837" y1="177.9952" x2="255.28448" y2="186.213" gradientUnits="userSpaceOnUse" id="color-22"><stop offset="0" stop-color="#636363"/><stop offset="1" stop-color="#363636"/></linearGradient><linearGradient x1="244.95735" y1="178.93673" x2="245.07119" y2="188.67167" gradientUnits="userSpaceOnUse" id="color-23"><stop offset="0" stop-color="#636363"/><stop offset="1" stop-color="#363636"/></linearGradient><linearGradient x1="250.34715" y1="178.49437" x2="250.45509" y2="187.72358" gradientUnits="userSpaceOnUse" id="color-24"><stop offset="0" stop-color="#636363"/><stop offset="1" stop-color="#363636"/></linearGradient><linearGradient x1="219.38092" y1="176.99144" x2="219.44153" y2="182.17497" gradientUnits="userSpaceOnUse" id="color-25"><stop offset="0" stop-color="#636363"/><stop offset="1" stop-color="#363636"/></linearGradient><linearGradient x1="221.45439" y1="177.69425" x2="221.52683" y2="183.8892" gradientUnits="userSpaceOnUse" id="color-26"><stop offset="0" stop-color="#636363"/><stop offset="1" stop-color="#363636"/></linearGradient><linearGradient x1="224.4942" y1="178.13288" x2="224.57552" y2="185.0864" gradientUnits="userSpaceOnUse" id="color-27"><stop offset="0" stop-color="#636363"/><stop offset="1" stop-color="#363636"/></linearGradient><linearGradient x1="228.66891" y1="178.30533" x2="228.76501" y2="186.52313" gradientUnits="userSpaceOnUse" id="color-28"><stop offset="0" stop-color="#636363"/><stop offset="1" stop-color="#363636"/></linearGradient><linearGradient x1="238.91916" y1="179.00734" x2="239.033" y2="188.74228" gradientUnits="userSpaceOnUse" id="color-29"><stop offset="0" stop-color="#636363"/><stop offset="1" stop-color="#363636"/></linearGradient><linearGradient x1="233.52049" y1="178.69115" x2="233.62841" y2="187.92036" gradientUnits="userSpaceOnUse" id="color-30"><stop offset="0" stop-color="#636363"/><stop offset="1" stop-color="#363636"/></linearGradient></defs><g transform="translate(-135.65134,-28.2841)"><g data-paper-data="{&quot;isPaintingLayer&quot;:true}" fill-rule="nonzero" stroke-width="0" stroke-linecap="butt" stroke-linejoin="miter" stroke-miterlimit="10" stroke-dasharray="" stroke-dashoffset="0" style="mix-blend-mode: normal"><path d="M177.76867,320.5773v-267.22501h123.18203v267.22501z" fill-opacity="0.01" fill="#000000" stroke="none"/><path d="M206.75007,307.50002l15.14285,-131.8421l37.78325,-0.15789l13.57389,132z" fill="url(#color-1)" stroke="#000000"/><path d="M174.42745,143.81094c0,-33.30185 28.7599,-60.29833 64.23702,-60.29833c35.47712,0 64.23702,26.99649 64.23702,60.29833c0,13.05014 4.0286,82.47451 4.0286,82.47451c0,0 -46.69107,-22.17618 -68.26562,-22.17618c-20.49118,0 -66.8752,20.6796 -66.8752,20.6796c0,0 2.63818,-66.91085 2.63818,-80.97793z" fill="url(#color-2)" stroke="#000000"/><g stroke="none"><g fill="url(#color-3)"><path d="M139.91232,212.19688l18.50323,-56.63564l-22.76421,-28.10776l29.94245,-18.10513l7.09554,-31.71783l38.21793,18.70714l24.49605,-68.05356l26.79509,75.86143l37.68426,-31.55798l2.13355,43.89763l49.12021,5.54972l-42.40356,30.14046l33.04464,49.17646l-45.26528,-12.16217l6.37467,47.47005l-50.48801,-34.25879l-15.02463,34.81375l-51.70255,-45.69321l-44.7831,47.98139z"/></g><g fill="url(#color-4)"><path d="M145.76066,208.86028l17.40675,-53.27948l-21.41523,-26.44213l28.1681,-17.03224l6.67506,-29.83827l35.95318,17.59858l23.04444,-64.02079l25.20724,71.36597l35.45114,-29.68789l2.00712,41.29631l46.20941,5.22085l-39.89077,28.35438l31.08645,46.26232l-42.58292,-11.44146l5.99691,44.65703l-47.49615,-32.22865l-14.13429,32.75073l-48.63872,-42.98549l-42.1293,45.13807z"/></g></g><path d="M179.66345,137.87592c0,-12.968 10.51265,-23.48065 23.48065,-23.48065c12.968,0 23.48065,10.51265 23.48065,23.48065c0,12.968 -10.51265,23.48065 -23.48065,23.48065c-12.968,0 -23.48065,-10.51265 -23.48065,-23.48065z" fill="url(#color-5)" stroke="#000000"/><path d="M189.75098,141.04281c0,-9.12808 7.39976,-16.52784 16.52783,-16.52784c9.12808,0 16.52784,7.39977 16.52784,16.52784c0,9.12808 -7.39977,16.52784 -16.52784,16.52784c-9.12808,0 -16.52783,-7.39977 -16.52783,-16.52784z" fill="#000000" stroke="none"/><path d="M267.95017,149.9882c-12.968,0 -23.48065,-10.51265 -23.48065,-23.48065c0,-12.968 10.51265,-23.48065 23.48065,-23.48065c12.968,0 23.48065,10.51265 23.48065,23.48065c0,12.968 -10.51265,23.48065 -23.48065,23.48065z" data-paper-data="{&quot;index&quot;:null}" fill="url(#color-6)" stroke="#000000"/><path d="M269.31867,149.77843c-9.12807,0 -16.52783,-7.39977 -16.52783,-16.52784c0,-9.12808 7.39977,-16.52784 16.52783,-16.52784c9.12807,0 16.52783,7.39977 16.52783,16.52784c0,9.12808 -7.39977,16.52784 -16.52783,16.52784z" data-paper-data="{&quot;index&quot;:null}" fill="#000000" stroke="none"/><g stroke="none"><g><path d="M264.66511,167.03469c0,0 -0.51507,-5.77291 1.85438,-5.78134c2.36944,-0.00842 1.74541,5.76854 1.74541,5.76854z" fill="url(#color-7)"/><path d="M262.01181,167.60752c0,0 -0.61557,-6.89934 2.21621,-6.90941c2.83177,-0.01007 2.08599,6.89411 2.08599,6.89411z" fill="url(#color-8)"/><path d="M258.36688,168.04301c0,0 -0.69095,-7.74416 2.48757,-7.75546c3.17853,-0.0113 2.34143,7.7383 2.34143,7.7383z" fill="url(#color-9)"/><path d="M253.27797,168.76532c0,0 -0.81659,-9.15217 2.93985,-9.16553c3.75644,-0.01336 2.76712,9.14524 2.76712,9.14524z" fill="url(#color-10)"/><path d="M241.34073,169.79368c0,0 -0.96732,-10.84181 3.48262,-10.85762c4.44994,-0.01581 3.27799,10.8336 3.27799,10.8336z" fill="url(#color-11)"/><path d="M247.52605,169.34916c0,0 -0.91707,-10.27862 3.30169,-10.2936c4.21877,-0.01499 3.10772,10.27083 3.10772,10.27083z" fill="url(#color-12)"/></g><g data-paper-data="{&quot;index&quot;:null}"><path d="M214.71034,167.07138c0,0 -0.66508,-5.77239 1.70436,-5.7808c2.36946,-0.00842 1.89543,5.76801 1.89543,5.76801z" fill="url(#color-13)"/><path d="M216.66525,167.62781c0,0 -0.79484,-6.89872 2.03694,-6.90878c2.83178,-0.01006 2.26527,6.89349 2.26527,6.89349z" fill="url(#color-14)"/><path d="M219.78638,168.03927c0,0 -0.89216,-7.74346 2.28636,-7.75475c3.17854,-0.0113 2.54263,7.73759 2.54263,7.73759z" fill="url(#color-15)"/><path d="M224.0023,168.72852c0,0 -1.05438,-9.15133 2.70206,-9.16468c3.75644,-0.01336 3.00493,9.1444 3.00493,9.1444z" fill="url(#color-16)"/><path d="M234.89293,169.67574c0,0 -1.24903,-10.84081 3.20092,-10.85662c4.44994,-0.01581 3.55969,10.8326 3.55969,10.8326z" fill="url(#color-17)"/><path d="M229.0558,169.27395c0,0 -1.18414,-10.27767 3.03463,-10.29266c4.21877,-0.01499 3.37477,10.26988 3.37477,10.26988z" fill="url(#color-18)"/></g></g><g stroke="none"><g><path d="M266.04206,176.44576c0,0 0.63918,5.17677 -1.48771,5.20165c-2.12689,0.02487 -1.74357,-5.16386 -1.74357,-5.16386z" fill="url(#color-19)"/><path d="M264.29759,177.19323c0,0 0.76391,6.18687 -1.778,6.21659c-2.54188,0.02972 -2.0838,-6.17143 -2.0838,-6.17143z" fill="url(#color-20)"/><path d="M261.50287,177.70009c0,0 0.85743,6.94444 -1.9957,6.97781c-2.85315,0.03337 -2.33896,-6.92712 -2.33896,-6.92712z" fill="url(#color-21)"/><path d="M257.72334,177.96555c0,0 1.01334,8.20707 -2.35856,8.24651c-3.3719,0.03943 -2.76423,-8.18659 -2.76423,-8.18659z" fill="url(#color-22)"/><path d="M247.96031,178.90161c0,0 1.2004,9.72221 -2.79399,9.76893c-3.9944,0.04671 -3.27454,-9.69797 -3.27454,-9.69797z" fill="url(#color-23)"/><path d="M253.19412,178.46108c0,0 1.13807,9.21717 -2.64885,9.26145c-3.7869,0.04428 -3.10443,-9.19418 -3.10443,-9.19418z" fill="url(#color-24)"/></g><g data-paper-data="{&quot;index&quot;:null}"><path d="M221.01322,176.97235c0,0 0.50455,5.17835 -1.62233,5.20321c-2.12689,0.02487 -1.60894,-5.16543 -1.60894,-5.16543z" fill="url(#color-25)"/><path d="M223.40521,177.67144c0,0 0.60298,6.18875 -1.93891,6.21847c-2.54188,0.02972 -1.92289,-6.17331 -1.92289,-6.17331z" fill="url(#color-26)"/><path d="M226.6839,178.10727c0,0 0.67682,6.94656 -2.17632,6.97992c-2.85314,0.03337 -2.15833,-6.92923 -2.15833,-6.92923z" fill="url(#color-27)"/><path d="M231.25671,178.27507c0,0 0.79989,8.20956 -2.57201,8.249c-3.3719,0.03943 -2.55077,-8.18909 -2.55077,-8.18909z" fill="url(#color-28)"/><path d="M241.98472,178.97149c0,0 0.94756,9.72517 -3.04686,9.77189c-3.9944,0.04671 -3.02167,-9.70092 -3.02167,-9.70092z" fill="url(#color-29)"/><path d="M236.42679,178.65716c0,0 0.89834,9.21998 -2.88857,9.26427c-3.7869,0.04428 -2.86472,-9.19698 -2.86472,-9.19698z" fill="url(#color-30)"/></g></g></g></g></svg>