<svg version="1.1" xmlns="http://www.w3.org/2000/svg" xmlns:xlink="http://www.w3.org/1999/xlink" width="138.94239" height="312.58665" viewBox="0,0,138.94239,312.58665"><g transform="translate(-172.73632,-1.02585)"><g data-paper-data="{&quot;isPaintingLayer&quot;:true}" fill-rule="nonzero" stroke-linejoin="miter" stroke-miterlimit="10" stroke-dasharray="" stroke-dashoffset="0" style="mix-blend-mode: normal"><path d="M178.40899,313.6125v-267.22501h123.18203v267.22501z" fill-opacity="0.01" fill="#000000" stroke="none" stroke-width="0" stroke-linecap="butt"/><path d="M206.75005,307.5l15.14285,-131.8421l37.78325,-0.15789l13.57389,132z" fill="#89cff1" stroke="#000000" stroke-width="2" stroke-linecap="butt"/><g stroke="#000000" stroke-width="2" stroke-linecap="butt"><path d="M276.69104,127.35892c0,0 15.32246,-19.28375 19.37423,-31.54324c3.60937,-10.92093 1.14234,-50.68553 1.14234,-50.68553l9.01256,0.15393c0,0 5.32047,37.43273 0.94095,50.99114c-5.18711,16.05856 -30.42426,51.13982 -30.42426,51.13982z" data-paper-data="{&quot;index&quot;:null}" fill="#c7ecff"/><path d="M288.49779,2.88737c7.56255,-3.70725 12.45138,4.57023 19.0276,24.44407c5.2917,15.99192 3.99392,36.81313 -4.42833,36.7757c-14.68855,-0.06527 -5.93383,-9.1254 -11.85585,-33.44774c-4.04025,-16.59372 -12.53977,-22.96975 -2.74342,-27.77204z" data-paper-data="{&quot;index&quot;:null}" fill="#ffffff"/></g><path d="M219.70027,204.11263l3.12142,-26.32765l35.83075,-0.14203l2.76735,26.1059c0,0 -7.51543,4.19603 -21.55904,4.50964c-12.48458,0.27879 -20.16049,-4.14586 -20.16049,-4.14586z" fill="#7bb9d8" stroke="#000000" stroke-width="0" stroke-linecap="butt"/><g stroke="#000000" stroke-width="2" stroke-linecap="butt"><path d="M200.74713,149.63063c0,0 -22.35435,-36.98503 -26.24217,-53.4066c-3.28253,-13.86491 5.01092,-50.75304 5.01092,-50.75304l8.99606,0.56646c0,0 -5.63541,39.44049 -2.90988,50.61483c3.05957,12.54396 16.79275,32.99 16.79275,32.99z" fill="#c7ecff"/><path d="M195.61516,32.08951c-7.84589,23.77159 0.15718,33.50207 -14.48966,32.39386c-8.39834,-0.63543 -8.02884,-21.49378 -1.47667,-37.01192c8.14266,-19.28507 13.67705,-27.14559 20.91932,-22.84612c9.38146,5.56944 0.39981,11.24619 -4.95299,27.46417z" fill="#ffffff"/></g><path d="M175.83995,139.17949c0,-33.30185 28.7599,-60.29833 64.23702,-60.29833c35.47712,0 64.23702,26.99649 64.23702,60.29833c0,33.30185 -28.7599,60.29833 -64.23702,60.29833c-35.47712,0 -64.23702,-26.99649 -64.23702,-60.29833z" fill="#89cff1" stroke="#000000" stroke-width="2" stroke-linecap="butt"/><path d="M176.56305,138.9c0,-0.72799 5.20666,55.91939 63.36046,56.93429c55.56352,0.9697 63.51358,-57.95314 63.51358,-56.93429c0,32.80479 -28.40173,59.39833 -63.43702,59.39833c-35.03529,0 -63.43702,-26.59354 -63.43702,-59.39833z" fill="#7bb9d8" stroke="#000000" stroke-width="0" stroke-linecap="butt"/><path d="M189.39018,139.27563c0,-12.968 10.51265,-23.48065 23.48065,-23.48065c12.968,0 23.48065,10.51265 23.48065,23.48065c0,12.968 -10.51265,23.48065 -23.48065,23.48065c-12.968,0 -23.48065,-10.51265 -23.48065,-23.48065z" fill="#ffffff" stroke="#000000" stroke-width="2" stroke-linecap="butt"/><path d="M196.45555,139c0,-9.12808 7.39976,-16.52784 16.52783,-16.52784c9.12808,0 16.52784,7.39977 16.52784,16.52784c0,9.12808 -7.39977,16.52784 -16.52784,16.52784c-9.12808,0 -16.52783,-7.39977 -16.52783,-16.52784z" fill="#000000" stroke="none" stroke-width="0" stroke-linecap="butt"/><path d="M267.12926,162.75627c-12.968,0 -23.48065,-10.51265 -23.48065,-23.48065c0,-12.968 10.51265,-23.48065 23.48065,-23.48065c12.968,0 23.48065,10.51265 23.48065,23.48065c0,12.968 -10.51265,23.48065 -23.48065,23.48065z" data-paper-data="{&quot;index&quot;:null}" fill="#ffffff" stroke="#000000" stroke-width="2" stroke-linecap="butt"/><path d="M267.01669,155.52784c-9.12807,0 -16.52783,-7.39977 -16.52783,-16.52784c0,-9.12808 7.39977,-16.52784 16.52783,-16.52784c9.12807,0 16.52783,7.39977 16.52783,16.52784c0,9.12808 -7.39977,16.52784 -16.52783,16.52784z" data-paper-data="{&quot;index&quot;:null}" fill="#000000" stroke="none" stroke-width="0" stroke-linecap="butt"/><path d="M189.39018,139.27563c0,-12.968 10.51265,-23.48065 23.48065,-23.48065c12.968,0 23.48065,10.51265 23.48065,23.48065c0,0 -46.96131,1.23155 -46.96131,0z" fill="#89cff1" stroke="#000000" stroke-width="2" stroke-linecap="butt"/><path d="M243.64862,139.27563c0,-12.968 10.51265,-23.48065 23.48065,-23.48065c12.968,0 23.48065,10.51265 23.48065,23.48065c0,1.2138 -46.96131,0 -46.96131,0z" data-paper-data="{&quot;index&quot;:null}" fill="#89cff1" stroke="#000000" stroke-width="2" stroke-linecap="butt"/><path d="M202.02786,107.96716c0,0 6.70895,-5.16922 11.79722,-6.36355c5.08827,-1.19433 12.33413,0.69937 12.33413,0.69937c0,0 -8.03812,-0.06028 -11.96762,0.86207c-4.10648,0.96388 -12.16372,4.80211 -12.16372,4.80211z" fill="#000000" stroke="none" stroke-width="0" stroke-linecap="butt"/><path d="M265.96236,103.16506c-3.9295,-0.92235 -11.96762,-0.86207 -11.96762,-0.86207c0,0 7.24586,-1.8937 12.33413,-0.69937c5.08826,1.19433 11.79721,6.36355 11.79721,6.36355c0,0 -8.05724,-3.83822 -12.16372,-4.80211z" data-paper-data="{&quot;index&quot;:null}" fill="#000000" stroke="none" stroke-width="0" stroke-linecap="butt"/><path d="M237.05393,79.62004c0,0 13.33113,-8.10062 13.58333,1.21301c0.22781,8.41273 -5.03385,4.90057 -6.76135,9.55697c-1.45075,3.91042 5.65281,2.16719 6.42377,8.67609c1.36163,11.49568 -9.74575,9.22926 -9.74575,9.22926" fill="#89cff1" stroke="#000000" stroke-width="2" stroke-linecap="round"/><g stroke="#000000" stroke-width="2" stroke-linecap="round"><path d="M255.88813,172.76154c0,0 -5.18437,14.3273 -16.33848,14.47615c-9.19495,0.12271 -15.43778,-14.47615 -15.43778,-14.47615z" fill="#ffffff"/><path d="M251.524,179.3443c0,0 -7.52014,0.4 -11.4,0.4c-4.04646,0 -12.4,-0.4 -12.4,-0.4" fill="none"/></g></g></g></svg>