<svg version="1.1" xmlns="http://www.w3.org/2000/svg" xmlns:xlink="http://www.w3.org/1999/xlink" width="215.48508" height="292.2932" viewBox="0,0,215.48508,292.2932"><defs><linearGradient x1="240.00007" y1="175.50003" x2="240.00007" y2="307.50003" gradientUnits="userSpaceOnUse" id="color-1"><stop offset="0" stop-color="#2a1d19"/><stop offset="1" stop-color="#825b4e"/></linearGradient><linearGradient x1="265.09781" y1="81.19101" x2="265.09781" y2="223.96385" gradientUnits="userSpaceOnUse" id="color-2"><stop offset="0" stop-color="#2a1d19"/><stop offset="1" stop-color="#825b4e"/></linearGradient><radialGradient cx="180.713" cy="222.34207" r="107.74254" gradientUnits="userSpaceOnUse" id="color-3"><stop offset="0" stop-color="#2a1d19"/><stop offset="1" stop-color="#825b4e"/></radialGradient><radialGradient cx="268.84815" cy="131.79914" r="101.35785" gradientUnits="userSpaceOnUse" id="color-4"><stop offset="0" stop-color="#150000"/><stop offset="1" stop-color="#850000"/></radialGradient><linearGradient x1="228.88222" y1="112.07367" x2="228.88222" y2="159.03497" gradientUnits="userSpaceOnUse" id="color-5"><stop offset="0" stop-color="#919191"/><stop offset="1" stop-color="#865959"/></linearGradient><linearGradient x1="293.68829" y1="100.70529" x2="293.68829" y2="147.66659" gradientUnits="userSpaceOnUse" id="color-6"><stop offset="0" stop-color="#919191"/><stop offset="1" stop-color="#865959"/></linearGradient><linearGradient x1="240.95732" y1="153.43964" x2="239.01911" y2="158.87937" gradientUnits="userSpaceOnUse" id="color-7"><stop offset="0" stop-color="#363636"/><stop offset="1" stop-color="#636363"/></linearGradient><linearGradient x1="243.31346" y1="153.68109" x2="240.99706" y2="160.18222" gradientUnits="userSpaceOnUse" id="color-8"><stop offset="0" stop-color="#363636"/><stop offset="1" stop-color="#636363"/></linearGradient><linearGradient x1="246.63953" y1="154.41761" x2="244.03948" y2="161.71481" gradientUnits="userSpaceOnUse" id="color-9"><stop offset="0" stop-color="#363636"/><stop offset="1" stop-color="#636363"/></linearGradient><linearGradient x1="251.25419" y1="155.31426" x2="248.18141" y2="163.93821" gradientUnits="userSpaceOnUse" id="color-10"><stop offset="0" stop-color="#363636"/><stop offset="1" stop-color="#636363"/></linearGradient><linearGradient x1="262.23734" y1="158.48004" x2="258.59728" y2="168.6961" gradientUnits="userSpaceOnUse" id="color-11"><stop offset="0" stop-color="#363636"/><stop offset="1" stop-color="#636363"/></linearGradient><linearGradient x1="256.52921" y1="156.5957" x2="253.07824" y2="166.28107" gradientUnits="userSpaceOnUse" id="color-12"><stop offset="0" stop-color="#363636"/><stop offset="1" stop-color="#636363"/></linearGradient><linearGradient x1="288.09634" y1="170.08611" x2="286.15812" y2="175.52584" gradientUnits="userSpaceOnUse" id="color-13"><stop offset="0" stop-color="#363636"/><stop offset="1" stop-color="#636363"/></linearGradient><linearGradient x1="286.11838" y1="168.78327" x2="283.80198" y2="175.2844" gradientUnits="userSpaceOnUse" id="color-14"><stop offset="0" stop-color="#363636"/><stop offset="1" stop-color="#636363"/></linearGradient><linearGradient x1="283.07597" y1="167.25067" x2="280.47592" y2="174.54786" gradientUnits="userSpaceOnUse" id="color-15"><stop offset="0" stop-color="#363636"/><stop offset="1" stop-color="#636363"/></linearGradient><linearGradient x1="278.93403" y1="165.02729" x2="275.86125" y2="173.65123" gradientUnits="userSpaceOnUse" id="color-16"><stop offset="0" stop-color="#363636"/><stop offset="1" stop-color="#636363"/></linearGradient><linearGradient x1="268.42362" y1="160.53474" x2="264.78356" y2="170.7508" gradientUnits="userSpaceOnUse" id="color-17"><stop offset="0" stop-color="#363636"/><stop offset="1" stop-color="#636363"/></linearGradient><linearGradient x1="274.03721" y1="162.68441" x2="270.58624" y2="172.36978" gradientUnits="userSpaceOnUse" id="color-18"><stop offset="0" stop-color="#363636"/><stop offset="1" stop-color="#636363"/></linearGradient><linearGradient x1="235.10802" y1="174.66351" x2="233.43629" y2="179.57045" gradientUnits="userSpaceOnUse" id="color-19"><stop offset="0" stop-color="#636363"/><stop offset="1" stop-color="#363636"/></linearGradient><linearGradient x1="236.82837" y1="176.01765" x2="234.83045" y2="181.88204" gradientUnits="userSpaceOnUse" id="color-20"><stop offset="0" stop-color="#636363"/><stop offset="1" stop-color="#363636"/></linearGradient><linearGradient x1="239.54783" y1="177.44504" x2="237.30527" y2="184.02751" gradientUnits="userSpaceOnUse" id="color-21"><stop offset="0" stop-color="#636363"/><stop offset="1" stop-color="#363636"/></linearGradient><linearGradient x1="243.42595" y1="179" x2="240.77565" y2="186.7793" gradientUnits="userSpaceOnUse" id="color-22"><stop offset="0" stop-color="#636363"/><stop offset="1" stop-color="#363636"/></linearGradient><linearGradient x1="252.85511" y1="183.08061" x2="249.71553" y2="192.29608" gradientUnits="userSpaceOnUse" id="color-23"><stop offset="0" stop-color="#636363"/><stop offset="1" stop-color="#363636"/></linearGradient><linearGradient x1="247.87103" y1="180.98189" x2="244.89454" y2="189.71862" gradientUnits="userSpaceOnUse" id="color-24"><stop offset="0" stop-color="#636363"/><stop offset="1" stop-color="#363636"/></linearGradient><linearGradient x1="277.76565" y1="189.19638" x2="276.09392" y2="194.10331" gradientUnits="userSpaceOnUse" id="color-25"><stop offset="0" stop-color="#636363"/><stop offset="1" stop-color="#363636"/></linearGradient><linearGradient x1="275.57642" y1="189.21858" x2="273.5785" y2="195.08297" gradientUnits="userSpaceOnUse" id="color-26"><stop offset="0" stop-color="#636363"/><stop offset="1" stop-color="#363636"/></linearGradient><linearGradient x1="272.55116" y1="188.68881" x2="270.30859" y2="195.27129" gradientUnits="userSpaceOnUse" id="color-27"><stop offset="0" stop-color="#636363"/><stop offset="1" stop-color="#363636"/></linearGradient><linearGradient x1="268.53031" y1="187.55272" x2="265.88002" y2="195.33201" gradientUnits="userSpaceOnUse" id="color-28"><stop offset="0" stop-color="#636363"/><stop offset="1" stop-color="#363636"/></linearGradient><linearGradient x1="258.57109" y1="185.02796" x2="255.43151" y2="194.24344" gradientUnits="userSpaceOnUse" id="color-29"><stop offset="0" stop-color="#636363"/><stop offset="1" stop-color="#363636"/></linearGradient><linearGradient x1="263.79981" y1="186.40861" x2="260.82333" y2="195.14534" gradientUnits="userSpaceOnUse" id="color-30"><stop offset="0" stop-color="#636363"/><stop offset="1" stop-color="#363636"/></linearGradient></defs><g transform="translate(-161.38947,-25.9625)"><g data-paper-data="{&quot;isPaintingLayer&quot;:true}" fill-rule="nonzero" stroke-width="0" stroke-linecap="butt" stroke-linejoin="miter" stroke-miterlimit="10" stroke-dasharray="" stroke-dashoffset="0" style="mix-blend-mode: normal"><path d="M203.5068,318.2557v-267.22501h123.18203v267.22501z" fill-opacity="0.01" fill="#000000" stroke="none"/><path d="M206.75007,307.50002l15.14285,-131.8421l37.78325,-0.15789l13.57389,132z" fill="url(#color-1)" stroke="#000000"/><path d="M200.16558,141.48934c0,-33.30185 28.7599,-60.29833 64.23702,-60.29833c35.47712,0 64.23702,26.99649 64.23702,60.29833c0,13.05014 4.0286,82.47451 4.0286,82.47451c0,0 -46.69107,-22.17618 -68.26562,-22.17618c-20.49118,0 -66.8752,20.6796 -66.8752,20.6796c0,0 2.63818,-66.91085 2.63818,-80.97793z" fill="url(#color-2)" stroke="#000000"/><g stroke="none"><g fill="url(#color-3)"><path d="M165.65045,209.87528l18.50323,-56.63564l-22.76421,-28.10776l29.94245,-18.10513l7.09554,-31.71783l38.21793,18.70714l24.49605,-68.05356l26.79509,75.86143l37.68426,-31.55798l2.13355,43.89763l49.12021,5.54972l-42.40356,30.14046l33.04464,49.17646l-45.26528,-12.16217l6.37467,47.47005l-50.48801,-34.25879l-15.02463,34.81375l-51.70255,-45.69321l-44.7831,47.98139z"/></g><g fill="url(#color-4)"><path d="M171.49879,206.53868l17.40675,-53.27948l-21.41523,-26.44213l28.1681,-17.03224l6.67506,-29.83827l35.95318,17.59858l23.04444,-64.02079l25.20724,71.36597l35.45114,-29.68789l2.00712,41.29631l46.20941,5.22085l-39.89077,28.35438l31.08645,46.26232l-42.58292,-11.44146l5.99691,44.65703l-47.49615,-32.22865l-14.13429,32.75073l-48.63872,-42.98549l-42.1293,45.13807z"/></g></g><path d="M205.40157,135.55432c0,-12.968 10.51265,-23.48065 23.48065,-23.48065c12.968,0 23.48065,10.51265 23.48065,23.48065c0,12.968 -10.51265,23.48065 -23.48065,23.48065c-12.968,0 -23.48065,-10.51265 -23.48065,-23.48065z" fill="url(#color-5)" stroke="#000000"/><path d="M218.99164,137.44021c0,-9.12808 7.39976,-16.52784 16.52783,-16.52784c9.12808,0 16.52784,7.39977 16.52784,16.52784c0,9.12808 -7.39977,16.52784 -16.52784,16.52784c-9.12808,0 -16.52783,-7.39977 -16.52783,-16.52784z" fill="#000000" stroke="none"/><path d="M293.68829,147.66659c-12.968,0 -23.48065,-10.51265 -23.48065,-23.48065c0,-12.968 10.51265,-23.48065 23.48065,-23.48065c12.968,0 23.48065,10.51265 23.48065,23.48065c0,12.968 -10.51265,23.48065 -23.48065,23.48065z" data-paper-data="{&quot;index&quot;:null}" fill="url(#color-6)" stroke="#000000"/><path d="M298.93949,144.11458c-9.12807,0 -16.52783,-7.39977 -16.52783,-16.52784c0,-9.12808 7.39977,-16.52784 16.52783,-16.52784c9.12807,0 16.52783,7.39977 16.52783,16.52784c0,9.12808 -7.39977,16.52784 -16.52783,16.52784z" data-paper-data="{&quot;index&quot;:null}" fill="#000000" stroke="none"/><g data-paper-data="{&quot;index&quot;:null}" stroke="none"><g><path d="M237.34111,158.28148c0,0 1.33105,-5.65606 3.56306,-4.86078c2.23202,0.79529 -0.17207,6.06902 -0.17207,6.06902z" fill="url(#color-7)"/><path d="M238.99163,159.46767c0,0 1.59078,-6.75968 4.2583,-5.80922c2.66753,0.95046 -0.20564,7.25322 -0.20564,7.25322z" fill="url(#color-8)"/><path d="M241.78849,160.91276c0,0 1.78556,-7.58741 4.77973,-6.52056c2.99416,1.06685 -0.23083,8.14137 -0.23083,8.14137z" fill="url(#color-9)"/><path d="M245.52116,162.99034c0,0 2.1102,-8.96692 5.64875,-7.70611c3.53855,1.26082 -0.27279,9.6216 -0.27279,9.6216z" fill="url(#color-10)"/><path d="M255.44588,167.57324c0,0 2.49978,-10.62235 6.69161,-9.12877c4.19183,1.49358 -0.32314,11.3979 -0.32314,11.3979z" fill="url(#color-11)"/><path d="M250.09057,165.21654c0,0 2.36994,-10.07055 6.34401,-8.65456c3.97406,1.41599 -0.30637,10.80581 -0.30637,10.80581z" fill="url(#color-12)"/></g><g data-paper-data="{&quot;index&quot;:null}"><path d="M284.44514,174.91549c0,0 1.47234,-5.60572 3.70436,-4.81043c2.23201,0.79528 -0.31338,6.01866 -0.31338,6.01866z" fill="url(#color-13)"/><path d="M281.75474,174.55496c0,0 1.75964,-6.69952 4.42718,-5.74906c2.66753,0.95046 -0.37451,7.19305 -0.37451,7.19305z" fill="url(#color-14)"/><path d="M278.178,173.7291c0,0 1.9751,-7.51987 4.96926,-6.45303c2.99417,1.06685 -0.42036,8.07384 -0.42036,8.07384z" fill="url(#color-15)"/><path d="M273.14555,172.6836c0,0 2.33421,-8.88711 5.87276,-7.62629c3.53855,1.26082 -0.4968,9.54179 -0.4968,9.54179z" fill="url(#color-16)"/><path d="M261.56649,169.60453c0,0 2.76514,-10.5278 6.95697,-9.03422c4.19183,1.49358 -0.58851,11.30335 -0.58851,11.30335z" fill="url(#color-17)"/><path d="M267.53629,171.28306c0,0 2.6215,-9.98092 6.59557,-8.56493c3.97407,1.41599 -0.55794,10.71618 -0.55794,10.71618z" fill="url(#color-18)"/></g></g><g data-paper-data="{&quot;index&quot;:null}" stroke="none"><g><path d="M236.65323,175.18994c0,0 -1.25147,5.05012 -3.26487,4.36418c-2.0134,-0.68594 0.20602,-5.40629 0.20602,-5.40629z" fill="url(#color-19)"/><path d="M238.67509,176.6468c0,0 -1.49569,6.03549 -3.90194,5.21571c-2.40627,-0.81978 0.24622,-6.46117 0.24622,-6.46117z" fill="url(#color-20)"/><path d="M241.62065,178.15122c0,0 -1.67882,6.77453 -4.37972,5.85437c-2.70089,-0.92015 0.27637,-7.25233 0.27637,-7.25233z" fill="url(#color-21)"/><path d="M245.87567,179.83459c0,0 -1.98407,8.00627 -5.17605,6.9188c-3.19198,-1.08747 0.32662,-8.57093 0.32662,-8.57093z" fill="url(#color-22)"/><path d="M255.75709,184.06927c0,0 -2.35036,9.48434 -6.13162,8.19611c-3.78125,-1.28822 0.38691,-10.15326 0.38691,-10.15326z" fill="url(#color-23)"/><path d="M250.62226,181.9192c0,0 -2.22826,8.99165 -5.81309,7.77034c-3.58485,-1.22131 0.36681,-9.62582 0.36681,-9.62582z" fill="url(#color-24)"/></g><g data-paper-data="{&quot;index&quot;:null}"><path d="M279.27931,189.71206c0,0 -1.12403,5.09354 -3.13743,4.4076c-2.01339,-0.68594 0.07858,-5.4497 0.07858,-5.4497z" fill="url(#color-25)"/><path d="M277.38542,189.83488c0,0 -1.34337,6.08738 -3.74962,5.26761c-2.40625,-0.81977 0.09389,-6.51306 0.09389,-6.51306z" fill="url(#color-26)"/><path d="M274.58166,189.38058c0,0 -1.50785,6.83278 -4.20874,5.91263c-2.7009,-0.92016 0.10539,-7.31058 0.10539,-7.31058z" fill="url(#color-27)"/><path d="M270.93002,188.37026c0,0 -1.782,8.07511 -4.97398,6.98764c-3.19197,-1.08747 0.12455,-8.63977 0.12455,-8.63977z" fill="url(#color-28)"/><path d="M261.41382,185.99644c0,0 -2.11099,9.5659 -5.89225,8.27767c-3.78127,-1.28823 0.14754,-10.23481 0.14754,-10.23481z" fill="url(#color-29)"/><path d="M266.49487,187.32677c0,0 -2.00134,9.06897 -5.58617,7.84766c-3.58483,-1.22131 0.13989,-9.70313 0.13989,-9.70313z" fill="url(#color-30)"/></g></g></g></g></svg>