<svg version="1.1" xmlns="http://www.w3.org/2000/svg" xmlns:xlink="http://www.w3.org/1999/xlink" width="186.12898" height="278.20683" viewBox="0,0,186.12898,278.20683"><defs><linearGradient x1="240.00008" y1="175.50003" x2="240.00008" y2="307.50003" gradientUnits="userSpaceOnUse" id="color-1"><stop offset="0" stop-color="#242400"/><stop offset="1" stop-color="#6e6e00"/></linearGradient><linearGradient x1="289.4725" y1="51.25957" x2="289.4725" y2="97.11947" gradientUnits="userSpaceOnUse" id="color-2"><stop offset="0" stop-color="#6e6e00"/><stop offset="1" stop-color="#242400"/></linearGradient><linearGradient x1="316.33214" y1="29.2932" x2="316.33214" y2="64.63406" gradientUnits="userSpaceOnUse" id="color-3"><stop offset="0" stop-color="#241300"/><stop offset="1" stop-color="#4a2800"/></linearGradient><linearGradient x1="192.4037" y1="54.46547" x2="192.4037" y2="100.32537" gradientUnits="userSpaceOnUse" id="color-4"><stop offset="0" stop-color="#6e6e00"/><stop offset="1" stop-color="#242400"/></linearGradient><linearGradient x1="165.54404" y1="32.4991" x2="165.54404" y2="67.83997" gradientUnits="userSpaceOnUse" id="color-5"><stop offset="0" stop-color="#241300"/><stop offset="1" stop-color="#4a2800"/></linearGradient><linearGradient x1="239.83659" y1="62.2176" x2="239.83659" y2="182.81426" gradientUnits="userSpaceOnUse" id="color-6"><stop offset="0" stop-color="#242400"/><stop offset="1" stop-color="#6e6e00"/></linearGradient><linearGradient x1="244.18321" y1="53.19494" x2="244.18321" y2="76.44494" gradientUnits="userSpaceOnUse" id="color-7"><stop offset="0" stop-color="#6e6e00"/><stop offset="1" stop-color="#242400"/></linearGradient><linearGradient x1="234.92672" y1="143.08606" x2="256.84406" y2="199.50106" gradientUnits="userSpaceOnUse" id="color-8"><stop offset="0" stop-color="#717171"/><stop offset="1" stop-color="#542828"/></linearGradient></defs><g transform="translate(-147.8736,-29.2932)"><g data-paper-data="{&quot;isPaintingLayer&quot;:true}" fill-rule="nonzero" stroke-width="0" stroke-linejoin="miter" stroke-miterlimit="10" stroke-dasharray="" stroke-dashoffset="0" style="mix-blend-mode: normal"><path d="M178.16858,299.28225v-267.22501h123.18203v267.22501z" fill-opacity="0.01" fill="#000000" stroke="none" stroke-linecap="butt"/><path d="M206.75009,307.50002l15.14285,-131.8421l37.78325,-0.15789l13.57389,132z" fill="url(#color-1)" stroke="#000000" stroke-linecap="butt"/><path d="M235.00696,210.89302c0,8.72179 -4.91983,15.7246 -10.98792,15.7922c-3.42018,0.03811 -4.31831,0.52658 -5.34042,0.06644c-2.19904,-0.98997 -1.1227,-4.99092 0.12667,-17.59994c2.47174,-16.39728 -0.8547,-14.0509 5.21376,-14.0509c6.06846,0 10.98792,7.07041 10.98792,15.7922z" data-paper-data="{&quot;index&quot;:null}" fill="#4f2b00" stroke="none" stroke-linecap="butt"/><path d="M250.27879,249.64453c0,-8.72179 4.91946,-15.7922 10.98792,-15.7922c6.06846,0 2.74202,-2.34638 5.21376,14.0509c1.24937,12.60902 2.3257,16.60996 0.12667,17.59994c-1.02211,0.46014 -1.92025,-0.02834 -5.34042,-0.06644c-6.06809,-0.0676 -10.98792,-7.07041 -10.98792,-15.7922z" fill="#4f2b00" stroke="none" stroke-linecap="butt"/><path d="M233.44623,274.40078c-0.11894,11.90573 -6.93029,21.39787 -15.21449,21.40741c-4.66925,0.00538 -5.90192,0.65992 -7.29089,0.01787c-2.9883,-1.38136 -1.46448,-6.82819 0.41292,-24.02319c3.59768,-22.3495 -0.9751,-19.19193 7.30869,-19.10918c8.28379,0.08275 14.90271,9.80136 14.78377,21.70709z" data-paper-data="{&quot;index&quot;:null}" fill="#4f2b00" stroke="none" stroke-linecap="butt"/><path d="M266.16333,293.34804c3.15361,0 4.88125,1.7211 5.14223,2.06661c1.06883,1.41502 0.58592,3.81305 0.58592,6.99072c0,5.66314 1.36537,4.09334 -8.56085,4.09334c-9.92622,0 -11.491,1.37883 -11.491,-4.28431c0,-5.66314 4.39748,-8.86636 14.3237,-8.86636z" fill="#4f2b00" stroke="none" stroke-linecap="butt"/><g data-paper-data="{&quot;index&quot;:null}" stroke="#000000" stroke-linecap="butt"><path d="M266.4357,92.06604l41.05018,-40.80647l5.02342,5.05343l-41.05018,40.80647z" fill="url(#color-2)"/><path d="M320.15072,64.21267c-9.52639,2.10894 -18.95869,-3.90409 -21.06763,-13.43046c-2.10894,-9.52638 3.9041,-18.95868 13.43048,-21.06762c9.52638,-2.10894 18.95868,3.9041 21.06762,13.43048c2.10894,9.52638 -3.9041,18.95868 -13.43048,21.06762z" fill="url(#color-3)"/></g><g stroke="#000000" stroke-linecap="butt"><path d="M210.41708,100.32537l-41.05018,-40.80647l5.02342,-5.05343l41.05018,40.80647z" fill="url(#color-4)"/><path d="M161.72546,67.41858c-9.52638,-2.10894 -15.53942,-11.54124 -13.43047,-21.06762c2.10894,-9.52638 11.54124,-15.53942 21.06762,-13.43047c9.52638,2.10894 15.53942,11.54124 13.43047,21.06762c-2.10894,9.52638 -11.54124,15.53941 -21.06763,13.43047z" fill="url(#color-5)"/></g><path d="M175.59957,122.51593c0,-33.30185 28.7599,-60.29833 64.23702,-60.29833c35.47712,0 64.23702,26.99649 64.23702,60.29833c0,33.30185 -28.7599,60.29833 -64.23702,60.29833c-35.47712,0 -64.23702,-26.99649 -64.23702,-60.29833z" fill="url(#color-6)" stroke="#000000" stroke-linecap="butt"/><path d="M189.14979,122.6954c0,-12.968 10.51265,-23.48065 23.48065,-23.48065c12.968,0 23.48065,10.51265 23.48065,23.48065c0,12.968 -10.51265,23.48065 -23.48065,23.48065c-12.968,0 -23.48065,-10.51265 -23.48065,-23.48065z" fill="#8a8a8a" stroke="#000000" stroke-linecap="butt"/><path d="M196.21517,122.66975c0,-9.12808 7.39976,-16.52784 16.52783,-16.52784c9.12808,0 16.52784,7.39977 16.52784,16.52784c0,9.12808 -7.39977,16.52784 -16.52784,16.52784c-9.12808,0 -16.52783,-7.39977 -16.52783,-16.52784z" fill="#000000" stroke="none" stroke-linecap="butt"/><path d="M266.88884,146.17603c-12.968,0 -23.48065,-10.51265 -23.48065,-23.48065c0,-12.968 10.51265,-23.48065 23.48065,-23.48065c12.968,0 23.48065,10.51265 23.48065,23.48065c0,12.968 -10.51265,23.48065 -23.48065,23.48065z" data-paper-data="{&quot;index&quot;:null}" fill="#8a8a8a" stroke="#000000" stroke-linecap="butt"/><path d="M266.77629,139.19761c-9.12807,0 -16.52783,-7.39977 -16.52783,-16.52784c0,-9.12808 7.39977,-16.52784 16.52783,-16.52784c9.12807,0 16.52783,7.39977 16.52783,16.52784c0,9.12808 -7.39977,16.52784 -16.52783,16.52784z" data-paper-data="{&quot;index&quot;:null}" fill="#000000" stroke="none" stroke-linecap="butt"/><path d="M201.78746,94.13693c0,0 6.70895,-5.16922 11.79721,-6.36355c5.08827,-1.19433 12.33413,0.69937 12.33413,0.69937c0,0 -8.03812,-0.06028 -11.96762,0.86207c-4.10648,0.96389 -12.16372,4.80211 -12.16372,4.80211z" fill="#000000" stroke="none" stroke-linecap="butt"/><path d="M265.72194,89.33483c-3.9295,-0.92235 -11.96762,-0.86207 -11.96762,-0.86207c0,0 7.24586,-1.8937 12.33413,-0.69937c5.08826,1.19433 11.79721,6.36355 11.79721,6.36355c0,0 -8.05724,-3.83822 -12.16372,-4.80211z" data-paper-data="{&quot;index&quot;:null}" fill="#000000" stroke="none" stroke-linecap="butt"/><path d="M217.93321,72.69494l33.25,-19.5l-3.25,13.75l22.5,-6l-14.5,15.5" fill="url(#color-7)" stroke="#000000" stroke-linecap="round"/><path d="M254.0796,192.86074c-2.90384,0.42672 -1.28003,12.77431 -6.27828,6.82078c-5.03439,-5.99657 -11.80702,-35.17426 -11.80702,-35.17426l15.09647,0.17215c0,0 10.95853,17.67652 12.59257,28.69227c1.33134,8.97514 -6.09615,-1.02638 -9.60374,-0.51094z" data-paper-data="{&quot;index&quot;:null}" fill="url(#color-8)" stroke="none" stroke-linecap="butt"/><path d="M252.31052,161.9198c0,4.80557 -25.20825,4.80557 -25.20825,0c0,-4.80557 5.64306,-8.70125 12.60413,-8.70125c6.96107,0 12.60413,3.89568 12.60413,8.70125z" fill="#000000" stroke="#000000" stroke-linecap="butt"/></g></g></svg>