<svg version="1.1" xmlns="http://www.w3.org/2000/svg" xmlns:xlink="http://www.w3.org/1999/xlink" width="168.59301" height="267.22501" viewBox="0,0,168.59301,267.22501"><defs><linearGradient x1="164.02024" y1="54.33559" x2="192.58395" y2="114.42267" gradientUnits="userSpaceOnUse" id="color-1"><stop offset="0" stop-color="#ff323d"/><stop offset="1" stop-color="#ff808a"/></linearGradient><linearGradient x1="316.15151" y1="53.35204" x2="287.5878" y2="113.43912" gradientUnits="userSpaceOnUse" id="color-2"><stop offset="0" stop-color="#ff323d"/><stop offset="1" stop-color="#ff808a"/></linearGradient><linearGradient x1="240.00003" y1="175.50002" x2="240.00003" y2="307.50002" gradientUnits="userSpaceOnUse" id="color-3"><stop offset="0" stop-color="#ff323d"/><stop offset="1" stop-color="#ff808a"/></linearGradient><linearGradient x1="239.35611" y1="71.85766" x2="239.35611" y2="192.45432" gradientUnits="userSpaceOnUse" id="color-4"><stop offset="0" stop-color="#ff323d"/><stop offset="1" stop-color="#ff808a"/></linearGradient></defs><g transform="translate(-155.78936,-41.34405)"><g data-paper-data="{&quot;isPaintingLayer&quot;:true}" fill-rule="nonzero" stroke-linecap="butt" stroke-linejoin="miter" stroke-miterlimit="10" stroke-dasharray="" stroke-dashoffset="0" style="mix-blend-mode: normal"><path d="M172.4452,68.6662c10.30102,-4.81284 24.48103,-1.65319 27.54948,4.80164c7.88766,16.59259 -7.41074,40.95482 -7.41074,40.95482c0,0 -27.10411,-3.4501 -34.99177,-20.04269c-3.26362,-6.8654 3.7675,-20.5344 14.85302,-25.71377z" data-paper-data="{&quot;index&quot;:null}" fill="url(#color-1)" stroke="#000000" stroke-width="2"/><path d="M322.57956,93.39642c-7.88765,16.59259 -34.99176,20.04269 -34.99176,20.04269c0,0 -15.29839,-24.36223 -7.41073,-40.95482c3.06845,-6.45484 17.24845,-9.61448 27.54948,-4.80165c11.08552,5.17937 18.11663,18.84838 14.85302,25.71377z" data-paper-data="{&quot;index&quot;:null}" fill="url(#color-2)" stroke="#000000" stroke-width="2"/><path d="M178.16858,308.56906v-267.22501h123.18203v267.22501z" fill-opacity="0.01" fill="#000000" stroke="none" stroke-width="0"/><path d="M206.75004,307.50001l15.14285,-131.8421l37.78325,-0.15789l13.57389,132z" fill="url(#color-3)" stroke="#000000" stroke-width="2"/><path d="M219.70027,204.11264l3.12142,-26.32765l35.83075,-0.14203l2.76735,26.1059c0,0 -7.51543,4.19603 -21.55904,4.50964c-12.48458,0.27879 -20.16049,-4.14586 -20.16049,-4.14586z" fill="#cb000a" stroke="#000000" stroke-width="0"/><path d="M175.11909,132.15599c0,-33.30185 28.7599,-60.29833 64.23702,-60.29833c35.47712,0 64.23702,26.99649 64.23702,60.29833c0,33.30185 -28.7599,60.29833 -64.23702,60.29833c-35.47712,0 -64.23702,-26.99649 -64.23702,-60.29833z" fill="url(#color-4)" stroke="#000000" stroke-width="2"/><path d="M176.3226,131.85655c0,-0.72799 5.20666,55.91939 63.36046,56.93429c55.56352,0.9697 63.51358,-57.95314 63.51358,-56.93429c0,32.80479 -28.40173,59.39833 -63.43702,59.39833c-35.03529,0 -63.43702,-26.59354 -63.43702,-59.39833z" fill="#cb000a" stroke="#000000" stroke-width="0"/><path d="M189.14974,132.23218c0,-12.968 10.51265,-23.48065 23.48065,-23.48065c12.968,0 23.48065,10.51265 23.48065,23.48065c0,12.968 -10.51265,23.48065 -23.48065,23.48065c-12.968,0 -23.48065,-10.51265 -23.48065,-23.48065z" fill="#ffffff" stroke="#000000" stroke-width="2"/><path d="M196.21513,131.95655c0,-9.12808 7.39976,-16.52784 16.52783,-16.52784c9.12808,0 16.52784,7.39977 16.52784,16.52784c0,9.12808 -7.39977,16.52784 -16.52784,16.52784c-9.12808,0 -16.52783,-7.39977 -16.52783,-16.52784z" fill="#000000" stroke="none" stroke-width="0"/><path d="M266.88885,155.71282c-12.968,0 -23.48065,-10.51265 -23.48065,-23.48065c0,-12.968 10.51265,-23.48065 23.48065,-23.48065c12.968,0 23.48065,10.51265 23.48065,23.48065c0,12.968 -10.51265,23.48065 -23.48065,23.48065z" data-paper-data="{&quot;index&quot;:null}" fill="#ffffff" stroke="#000000" stroke-width="2"/><path d="M266.77627,148.48439c-9.12807,0 -16.52783,-7.39977 -16.52783,-16.52784c0,-9.12808 7.39977,-16.52784 16.52783,-16.52784c9.12807,0 16.52783,7.39977 16.52783,16.52784c0,9.12808 -7.39977,16.52784 -16.52783,16.52784z" data-paper-data="{&quot;index&quot;:null}" fill="#000000" stroke="none" stroke-width="0"/><path d="M189.14974,132.23218c0,-12.968 10.51265,-23.48065 23.48065,-23.48065c12.968,0 23.48065,10.51265 23.48065,23.48065c0,0 -46.96131,1.23155 -46.96131,0z" fill="#ff000d" stroke="#000000" stroke-width="2"/><path d="M243.4082,132.23218c0,-12.968 10.51265,-23.48065 23.48065,-23.48065c12.968,0 23.48065,10.51265 23.48065,23.48065c0,1.2138 -46.96131,0 -46.96131,0z" data-paper-data="{&quot;index&quot;:null}" fill="#ff000d" stroke="#000000" stroke-width="2"/><path d="M201.78741,103.42371c0,0 6.70895,-5.16922 11.79722,-6.36355c5.08827,-1.19433 12.33413,0.69937 12.33413,0.69937c0,0 -8.03812,-0.06028 -11.96762,0.86207c-4.10648,0.96388 -12.16372,4.80211 -12.16372,4.80211z" fill="#000000" stroke="none" stroke-width="0"/><path d="M265.72195,98.62161c-3.9295,-0.92235 -11.96762,-0.86207 -11.96762,-0.86207c0,0 7.24586,-1.8937 12.33413,-0.69937c5.08826,1.19433 11.79721,6.36355 11.79721,6.36355c0,0 -8.05724,-3.83822 -12.16372,-4.80211z" data-paper-data="{&quot;index&quot;:null}" fill="#000000" stroke="none" stroke-width="0"/><path d="M254.41026,166.75056c0,0 -6.35766,11.01793 -14.20024,11.01793c-7.84258,0 -14.20024,-11.01793 -14.20024,-11.01793z" fill="#000000" stroke="#000000" stroke-width="2"/></g></g></svg>