<svg version="1.1" xmlns="http://www.w3.org/2000/svg" xmlns:xlink="http://www.w3.org/1999/xlink" width="130.47404" height="300.99172" viewBox="0,0,130.47404,300.99172"><g transform="translate(-174.83995,-12.62078)"><g data-paper-data="{&quot;isPaintingLayer&quot;:true}" fill-rule="nonzero" stroke-linejoin="miter" stroke-miterlimit="10" stroke-dasharray="" stroke-dashoffset="0" style="mix-blend-mode: normal"><path d="M178.40899,313.6125v-267.22501h123.18203v267.22501z" fill-opacity="0.01" fill="#000000" stroke="none" stroke-width="0" stroke-linecap="butt"/><path d="M206.75005,307.5l15.14285,-131.8421l37.78325,-0.15789l13.57389,132z" fill="#89cff1" stroke="#000000" stroke-width="2" stroke-linecap="butt"/><g stroke="#000000" stroke-width="2" stroke-linecap="butt"><path d="M290.24368,121.89981c0,0 -1.7787,-24.56577 -7.09666,-36.33145c-4.73732,-10.48103 -33.4744,-38.07614 -33.4744,-38.07614l6.73714,-5.9884c0,0 29.25839,23.9471 35.21453,36.89063c7.05444,15.33031 12.23151,58.23493 12.23151,58.23493z" data-paper-data="{&quot;index&quot;:null}" fill="#c7ecff"/><path d="M214.66329,22.29976c3.05589,-7.8484 12.25791,-5.06631 30.55277,5.1079c14.72135,8.1869 27.86261,24.38919 21.63879,30.06368c-10.85444,9.89641 -10.54517,-2.69865 -31.37028,-16.5897c-14.20776,-9.47706 -24.77981,-8.41524 -20.82129,-18.58189z" data-paper-data="{&quot;index&quot;:null}" fill="#ffffff"/></g><path d="M219.70027,204.11263l3.12142,-26.32765l35.83075,-0.14203l2.76735,26.1059c0,0 -7.51543,4.19603 -21.55904,4.50964c-12.48458,0.27879 -20.16049,-4.14586 -20.16049,-4.14586z" fill="#7bb9d8" stroke="#000000" stroke-width="0" stroke-linecap="butt"/><g stroke="#000000" stroke-width="2" stroke-linecap="butt"><path d="M181.60439,135.37561c0,0 3.63002,-43.06312 10.12832,-58.63731c5.48658,-13.14945 33.8644,-38.13376 33.8644,-38.13376l6.94824,5.74213c0,0 -27.72561,28.61119 -32.08275,39.25589c-4.8912,11.9494 -5.78488,36.56326 -5.78488,36.56326z" fill="#c7ecff"/><path d="M246.48636,37.2299c-20.31183,14.63134 -19.54959,27.20712 -30.75307,17.70765c-6.42396,-5.44689 6.12584,-22.11151 20.5431,-30.82278c17.91695,-10.82587 27.01292,-13.93725 30.34921,-6.20388c4.32175,10.01763 -6.28165,9.33689 -20.13924,19.319z" fill="#ffffff"/></g><path d="M175.83995,142.17949c0,-33.30185 28.7599,-60.29833 64.23702,-60.29833c35.47712,0 64.23702,26.99649 64.23702,60.29833c0,33.30185 -28.7599,60.29833 -64.23702,60.29833c-35.47712,0 -64.23702,-26.99649 -64.23702,-60.29833z" fill="#89cff1" stroke="#000000" stroke-width="2" stroke-linecap="butt"/><path d="M176.56305,141.9c0,-0.72799 5.20666,55.91939 63.36046,56.93429c55.56352,0.9697 63.51358,-57.95314 63.51358,-56.93429c0,32.80479 -28.40173,59.39833 -63.43702,59.39833c-35.03529,0 -63.43702,-26.59354 -63.43702,-59.39833z" fill="#7bb9d8" stroke="#000000" stroke-width="0" stroke-linecap="butt"/><path d="M189.39018,142.27563c0,-12.968 10.51265,-23.48065 23.48065,-23.48065c12.968,0 23.48065,10.51265 23.48065,23.48065c0,12.968 -10.51265,23.48065 -23.48065,23.48065c-12.968,0 -23.48065,-10.51265 -23.48065,-23.48065z" fill="#ffffff" stroke="#000000" stroke-width="2" stroke-linecap="butt"/><path d="M196.45555,142c0,-9.12808 7.39976,-16.52784 16.52783,-16.52784c9.12808,0 16.52784,7.39977 16.52784,16.52784c0,9.12808 -7.39977,16.52784 -16.52784,16.52784c-9.12808,0 -16.52783,-7.39977 -16.52783,-16.52784z" fill="#000000" stroke="none" stroke-width="0" stroke-linecap="butt"/><path d="M267.12926,165.75627c-12.968,0 -23.48065,-10.51265 -23.48065,-23.48065c0,-12.968 10.51265,-23.48065 23.48065,-23.48065c12.968,0 23.48065,10.51265 23.48065,23.48065c0,12.968 -10.51265,23.48065 -23.48065,23.48065z" data-paper-data="{&quot;index&quot;:null}" fill="#ffffff" stroke="#000000" stroke-width="2" stroke-linecap="butt"/><path d="M267.01669,158.52784c-9.12807,0 -16.52783,-7.39977 -16.52783,-16.52784c0,-9.12808 7.39977,-16.52784 16.52783,-16.52784c9.12807,0 16.52783,7.39977 16.52783,16.52784c0,9.12808 -7.39977,16.52784 -16.52783,16.52784z" data-paper-data="{&quot;index&quot;:null}" fill="#000000" stroke="none" stroke-width="0" stroke-linecap="butt"/><path d="M189.39018,142.27563c0,-12.968 10.51265,-23.48065 23.48065,-23.48065c12.968,0 23.48065,10.51265 23.48065,23.48065c0,0 -46.96131,1.23155 -46.96131,0z" fill="#89cff1" stroke="#000000" stroke-width="2" stroke-linecap="butt"/><path d="M243.64862,142.27563c0,-12.968 10.51265,-23.48065 23.48065,-23.48065c12.968,0 23.48065,10.51265 23.48065,23.48065c0,1.2138 -46.96131,0 -46.96131,0z" data-paper-data="{&quot;index&quot;:null}" fill="#89cff1" stroke="#000000" stroke-width="2" stroke-linecap="butt"/><path d="M202.02786,105.96716c0,0 6.70895,-5.16922 11.79722,-6.36355c5.08827,-1.19433 12.33413,0.69937 12.33413,0.69937c0,0 -8.03812,-0.06028 -11.96762,0.86207c-4.10648,0.96388 -12.16372,4.80211 -12.16372,4.80211z" fill="#000000" stroke="none" stroke-width="0" stroke-linecap="butt"/><path d="M265.96236,102.66506c-3.9295,-0.92235 -11.96762,-0.86207 -11.96762,-0.86207c0,0 7.24586,-1.8937 12.33413,-0.69937c5.08826,1.19433 11.79721,6.36355 11.79721,6.36355c0,0 -8.05724,-3.83822 -12.16372,-4.80211z" data-paper-data="{&quot;index&quot;:null}" fill="#000000" stroke="none" stroke-width="0" stroke-linecap="butt"/><path d="M237.05393,82.62004c0,0 13.33113,-8.10062 13.58333,1.21301c0.22781,8.41273 -5.03385,4.90057 -6.76135,9.55697c-1.45075,3.91042 5.65281,2.16719 6.42377,8.67609c1.36163,11.49568 -9.74575,9.22926 -9.74575,9.22926" fill="#89cff1" stroke="#000000" stroke-width="2" stroke-linecap="round"/><path d="M239.68791,192.65783c-6.44738,0 -12.24271,-19.31567 -12.24271,-19.31567h25.10959c0,0 -6.4195,19.31567 -12.86688,19.31567z" fill="#000000" stroke="#000000" stroke-width="2" stroke-linecap="round"/></g></g></svg>