<svg version="1.1" xmlns="http://www.w3.org/2000/svg" xmlns:xlink="http://www.w3.org/1999/xlink" width="127.65352" height="340.36252" viewBox="0,0,127.65352,340.36252"><g transform="translate(-174.81226,26.74999)"><g data-paper-data="{&quot;isPaintingLayer&quot;:true}" fill-rule="nonzero" stroke-linejoin="miter" stroke-miterlimit="10" stroke-dasharray="" stroke-dashoffset="0" style="mix-blend-mode: normal"><g><path d="M235.87795,152.24863c6.49818,3.6705 11.34288,10.64051 13.5066,17.63379c1.42023,5.03551 -2.05984,10.19646 -3.76175,15.07297c-1.7794,5.09658 -5.01531,9.56809 -6.56991,14.57011c-1.14751,3.55125 -1.23533,7.21153 -1.45951,10.8482c-0.23874,3.85809 2.94764,9.26621 -0.13931,11.56761c-3.99949,3.16147 -10.2413,1.55803 -15.21526,0.27008c-7.77593,-2.0147 -14.86123,-6.22165 -21.98723,-9.92667c-4.81251,-2.78963 -9.43706,-5.91313 -13.65926,-9.49816c-3.92542,-3.32666 -8.19067,-6.58516 -10.78006,-11.01118c-0.91886,-1.59932 -0.05968,-4.32489 1.4136,-5.73634c2.51083,-2.20572 6.53571,-2.05686 9.42994,-4.10773c3.1529,-2.23378 5.71427,-5.24754 8.22842,-8.18696c2.88042,-3.34531 5.44937,-7.29665 8.32329,-10.87498c3.45237,-4.29182 5.37611,-10.99057 10.67442,-12.67582c6.96647,-2.30428 15.58326,-1.56615 21.99603,2.05509z" fill="#ffd351" stroke="#000000" stroke-width="2" stroke-linecap="round"/><path d="M211.40243,197.11602c8.08622,4.40641 14.96205,9.22787 19.53857,13.45736c4.57626,4.23004 6.85326,7.868 5.7419,9.90754c-1.11135,2.03944 -5.40283,2.09816 -11.43812,0.5456c-6.03494,-1.55309 -13.81379,-4.71738 -21.90001,-9.12379c-8.08622,-4.40641 -14.96205,-9.22787 -19.53866,-13.45738c-4.57617,-4.23002 -6.85326,-7.868 -5.7419,-9.90754c1.11146,-2.03951 5.40283,-2.09816 11.43812,-0.5456c6.03503,1.55311 13.81389,4.71741 21.9001,9.12381z" fill="#eac24d" stroke="#736026" stroke-width="0" stroke-linecap="butt"/><path d="M210.40984,198.98511c0.65587,0.35744 0.96794,1.19867 0.94201,2.2694c-0.0255,1.07105 -0.38895,2.37163 -1.08365,3.64642c-0.6947,1.2748 -1.59053,2.2852 -2.47676,2.88725c-0.88565,0.60222 -1.76176,0.79597 -2.41775,0.43861c-0.65587,-0.35744 -0.96794,-1.19867 -0.94198,-2.26949c0.02539,-1.07097 0.38892,-2.37153 1.08362,-3.64632c0.69472,-1.27489 1.59056,-2.28529 2.47676,-2.88725c0.88567,-0.60232 1.76178,-0.79607 2.41775,-0.43861z" fill="#ffd351" stroke="none" stroke-width="0.60142" stroke-linecap="butt"/><path d="M217.37643,153.80205c3.68209,-1.8112 8.80176,-0.50147 12.74397,1.12277c1.81409,0.74956 3.14648,3.93789 2.11389,4.91896c-0.8625,1.2396 -3.73828,-0.69118 -5.90399,-0.47761c-3.37978,0.35278 -6.97868,0.75188 -9.91065,2.47597c-3.42446,2.01598 -4.88172,6.52512 -8.49237,8.04312c-1.21905,0.65962 -3.61504,-1.61246 -2.85711,-2.92672c2.99799,-5.19498 6.93009,-10.49651 12.30626,-13.15651z" fill="#fff1c8" stroke="none" stroke-width="0.60142" stroke-linecap="round"/><path d="M232.51524,151.88925c0,0 5.53061,-9.86027 7.92946,-8.06609c2.46115,1.84078 -2.8614,11.29715 -2.8614,11.29715" fill="#ffd351" stroke="#000000" stroke-width="2" stroke-linecap="round"/></g><path d="M232.19444,-25.49999c0,0 19,61.91111 19,81.48434c0,27.40653 -10.5,88.67189 -10.5,88.67189" fill="none" stroke="#000000" stroke-width="2.5" stroke-linecap="round"/><g fill="#000000"><path d="M211.62856,186.27131c-2.59169,-2.22181 1.73501,-11.98335 1.73501,-11.98335l10.09346,8.65291c0,0 -9.23677,5.55224 -11.82846,3.33044z" stroke="#000000" stroke-width="2" stroke-linecap="round"/><path d="M210.93213,159.19257c2.49478,-2.91013 6.87632,-3.24682 9.78645,-0.75204c2.91013,2.49478 3.24682,6.87634 0.75204,9.78645c-2.49478,2.91013 -6.87632,3.24682 -9.78645,0.75204c-2.91013,-2.49478 -3.24682,-6.87634 -0.75204,-9.78645z" stroke="none" stroke-width="0" stroke-linecap="butt"/><path d="M228.91054,183.74682c-2.91011,-2.49478 -3.24682,-6.87634 -0.75204,-9.78645c2.49478,-2.91013 6.87634,-3.24682 9.78645,-0.75204c2.91013,2.49478 3.24682,6.87634 0.75204,9.78645c-2.49478,2.91013 -6.87632,3.24682 -9.78645,0.75204z" data-paper-data="{&quot;index&quot;:null}" stroke="none" stroke-width="0" stroke-linecap="butt"/></g><path d="M179.28375,313.61253v-267.22501h123.18203v267.22501z" fill-opacity="0.01" fill="#000000" stroke="none" stroke-width="0" stroke-linecap="butt"/></g></g></svg>