<svg version="1.1" xmlns="http://www.w3.org/2000/svg" xmlns:xlink="http://www.w3.org/1999/xlink" width="34.67311" height="34.67311" viewBox="0,0,34.67311,34.67311"><defs><linearGradient x1="240.00001" y1="162.91348" x2="240.00001" y2="197.08659" gradientUnits="userSpaceOnUse" id="color-1"><stop offset="0" stop-color="#000000"/><stop offset="1" stop-color="#2b3742"/></linearGradient><radialGradient cx="230.2322" cy="178.57106" r="10.58334" gradientUnits="userSpaceOnUse" id="color-2"><stop offset="0" stop-color="#003462"/><stop offset="1" stop-color="#001527"/></radialGradient><radialGradient cx="241.97668" cy="180.28424" r="10.5" gradientUnits="userSpaceOnUse" id="color-3"><stop offset="0" stop-color="#436685"/><stop offset="1" stop-color="#2e5475"/></radialGradient></defs><g transform="translate(-222.66345,-162.66347)"><g data-paper-data="{&quot;isPaintingLayer&quot;:true}" stroke-miterlimit="10" stroke-dasharray="" stroke-dashoffset="0" style="mix-blend-mode: normal"><path d="M229.98312,162.91348h20.03379c3.9166,0 7.06966,3.15307 7.06966,7.06966v20.03379c0,3.91659 -3.15306,7.06966 -7.06966,7.06966h-20.03379c-3.91659,0 -7.06966,-3.15307 -7.06966,-7.06966v-20.03379c0,-3.91659 3.15307,-7.06966 7.06966,-7.06966z" fill="url(#color-1)" fill-rule="evenodd" stroke="#0059a8" stroke-width="0.5" stroke-linecap="round" stroke-linejoin="round"/><g fill-rule="nonzero" stroke="#000000" stroke-width="0" stroke-linecap="butt" stroke-linejoin="miter"><path d="M227.16667,185.66667v-15.5l6.16667,-0.66667l-0.08447,21.16667z" fill="url(#color-2)"/><path d="M233.33333,190.33334v-21h19.5v21z" fill="url(#color-3)"/></g><path d="M236.16668,176.83336l4.33333,-5.16667" fill="none" fill-rule="nonzero" stroke="#758a9c" stroke-width="2" stroke-linecap="round" stroke-linejoin="miter"/><path d="M237.50001,182.50002l8,-10.66667" fill="none" fill-rule="nonzero" stroke="#758a9c" stroke-width="2" stroke-linecap="round" stroke-linejoin="miter"/><path d="M248.66668,176.66669l-5.83333,7.66667" fill="none" fill-rule="nonzero" stroke="#758a9c" stroke-width="2" stroke-linecap="round" stroke-linejoin="miter"/><path d="M249.16668,186.50002l1.33333,-3.16667" fill="none" fill-rule="nonzero" stroke="#758a9c" stroke-width="2" stroke-linecap="round" stroke-linejoin="miter"/></g></g></svg>