<svg version="1.1" xmlns="http://www.w3.org/2000/svg" xmlns:xlink="http://www.w3.org/1999/xlink" width="130.47404" height="267.22501" viewBox="0,0,130.47404,267.22501"><g transform="translate(-175.07826,-57.62349)"><g data-paper-data="{&quot;isPaintingLayer&quot;:true}" fill-rule="nonzero" stroke-linejoin="miter" stroke-miterlimit="10" stroke-dasharray="" stroke-dashoffset="0" style="mix-blend-mode: normal"><path d="M179.52204,324.8485v-267.22501h123.18203v267.22501z" fill-opacity="0.01" fill="#000000" stroke="none" stroke-width="0" stroke-linecap="butt"/><path d="M206.75007,307.5l15.14285,-131.8421l37.78325,-0.15789l13.57389,132z" fill="#fff000" stroke="#000000" stroke-width="2" stroke-linecap="butt"/><path d="M219.7003,204.11263l3.12142,-26.32765l35.83075,-0.14203l2.76735,26.1059c0,0 -7.51543,4.19603 -21.55904,4.50964c-12.48458,0.27879 -20.16049,-4.14586 -20.16049,-4.14586z" fill="#ffcb00" stroke="#000000" stroke-width="0" stroke-linecap="butt"/><path d="M279.01544,199.74036c0,5.55279 -18.25024,22.44093 -39.66115,22.44093c-21.41091,0 -37.87462,-16.88814 -37.87462,-22.44093c0,-5.55279 17.35697,-10.05421 38.76788,-10.05421c21.41091,0 38.76789,4.50143 38.76789,10.05421z" fill="#000000" stroke="none" stroke-width="NaN" stroke-linecap="butt"/><path d="M176.07826,148.41547c0,-33.30185 28.7599,-60.29833 64.23702,-60.29833c35.47712,0 64.23702,26.99649 64.23702,60.29833c0,33.30185 -28.7599,60.29833 -64.23702,60.29833c-35.47712,0 -64.23702,-26.99649 -64.23702,-60.29833z" fill="#fff000" stroke="#000000" stroke-width="2" stroke-linecap="butt"/><path d="M176.80133,148.13598c0,-0.72799 5.20666,55.91939 63.36046,56.93429c55.56352,0.9697 63.51358,-57.95314 63.51358,-56.93429c0,32.80479 -28.40173,59.39833 -63.43702,59.39833c-35.03529,0 -63.43702,-26.59354 -63.43702,-59.39833z" fill="#ffcb00" stroke="#000000" stroke-width="0" stroke-linecap="butt"/><path d="M189.62847,148.51161c0,-12.968 10.51265,-23.48065 23.48065,-23.48065c12.968,0 23.48065,10.51265 23.48065,23.48065c0,12.968 -10.51265,23.48065 -23.48065,23.48065c-12.968,0 -23.48065,-10.51265 -23.48065,-23.48065z" fill="#ffffff" stroke="#000000" stroke-width="2" stroke-linecap="butt"/><path d="M196.69386,148.23598c0,-9.12808 7.39976,-16.52784 16.52783,-16.52784c9.12808,0 16.52784,7.39977 16.52784,16.52784c0,9.12808 -7.39977,16.52784 -16.52784,16.52784c-9.12808,0 -16.52783,-7.39977 -16.52783,-16.52784z" fill="#000000" stroke="none" stroke-width="0" stroke-linecap="butt"/><path d="M267.36755,171.99225c-12.968,0 -23.48065,-10.51265 -23.48065,-23.48065c0,-12.968 10.51265,-23.48065 23.48065,-23.48065c12.968,0 23.48065,10.51265 23.48065,23.48065c0,12.968 -10.51265,23.48065 -23.48065,23.48065z" data-paper-data="{&quot;index&quot;:null}" fill="#ffffff" stroke="#000000" stroke-width="2" stroke-linecap="butt"/><path d="M267.255,164.76382c-9.12807,0 -16.52783,-7.39977 -16.52783,-16.52784c0,-9.12808 7.39977,-16.52784 16.52783,-16.52784c9.12807,0 16.52783,7.39977 16.52783,16.52784c0,9.12808 -7.39977,16.52784 -16.52783,16.52784z" data-paper-data="{&quot;index&quot;:null}" fill="#000000" stroke="none" stroke-width="0" stroke-linecap="butt"/><path d="M189.62847,148.51161c0,-12.968 10.51265,-23.48065 23.48065,-23.48065c12.968,0 23.48065,10.51265 23.48065,23.48065c0,0 -46.96131,1.23155 -46.96131,0z" fill="#fff000" stroke="#000000" stroke-width="2" stroke-linecap="butt"/><path d="M243.88693,148.51161c0,-12.968 10.51265,-23.48065 23.48065,-23.48065c12.968,0 23.48065,10.51265 23.48065,23.48065c0,1.2138 -46.96131,0 -46.96131,0z" data-paper-data="{&quot;index&quot;:null}" fill="#fff000" stroke="#000000" stroke-width="2" stroke-linecap="butt"/><path d="M202.26614,119.70314c0,0 6.70895,-5.16922 11.79722,-6.36355c5.08827,-1.19433 12.33413,0.69937 12.33413,0.69937c0,0 -8.03812,-0.06028 -11.96762,0.86207c-4.10648,0.96388 -12.16372,4.80211 -12.16372,4.80211z" fill="#000000" stroke="none" stroke-width="0" stroke-linecap="butt"/><path d="M266.20065,114.90104c-3.9295,-0.92235 -11.96762,-0.86207 -11.96762,-0.86207c0,0 7.24586,-1.8937 12.33413,-0.69937c5.08826,1.19433 11.79721,6.36355 11.79721,6.36355c0,0 -8.05724,-3.83822 -12.16372,-4.80211z" data-paper-data="{&quot;index&quot;:null}" fill="#000000" stroke="none" stroke-width="0" stroke-linecap="butt"/><g><path d="M251.76327,191.14786h-25.10959" fill="none" stroke="#000000" stroke-width="2" stroke-linecap="round"/><path d="M295.61093,195.0472c0,8.71013 -36.12233,15.21532 -56.46429,15.21532c-20.34196,0 -54.28096,-6.42554 -54.28096,-15.13567c0,-8.71013 36.5593,-22.9174 56.90126,-22.9174c20.34196,0 53.84399,14.12762 53.84399,22.83775z" fill="#ffcb00" stroke="#000000" stroke-width="2" stroke-linecap="butt"/><path d="M238.96442,209.46364c-7.49934,0 -17.52161,-1.28737 -26.33512,-2.67449c-2.5154,-7.72308 -6.37101,-17.05492 -9.5417,-24.3132c-0.18569,-0.42506 26.18551,-9.45091 36.81379,-9.45091c10.66252,0 25.96505,4.26836 37.13902,8.72794c-0.69135,1.39729 -9.0347,18.87272 -11.84884,25.1798c-9.19022,1.40007 -18.726,2.53086 -26.22716,2.53086z" fill="#ff9f00" stroke="#000000" stroke-width="0" stroke-linecap="butt"/><path d="M226.14107,188.70026c0,2.90521 -1.19979,5.26036 -2.6798,5.26036c-1.48001,0 -2.6798,-2.35515 -2.6798,-5.26036c0,-2.90521 1.19979,-5.26037 2.6798,-5.26037c1.48001,0 2.6798,2.35515 2.6798,5.26037z" fill="#000000" stroke="none" stroke-width="0" stroke-linecap="butt"/><path d="M260.04356,188.10241c0,2.90521 -1.19979,5.26036 -2.6798,5.26036c-1.48001,0 -2.6798,-2.35514 -2.6798,-5.26036c0,-2.90521 1.19979,-5.26037 2.6798,-5.26037c1.48001,0 2.6798,2.35515 2.6798,5.26037z" fill="#000000" stroke="none" stroke-width="0" stroke-linecap="butt"/></g><path d="M218.98784,98.38021l33.25,-19.5l-3.25,13.75l22.5,-6l-14.5,15.5" data-paper-data="{&quot;index&quot;:null}" fill="#fff000" stroke="#000000" stroke-width="2" stroke-linecap="round"/></g></g></svg>