<svg version="1.1" xmlns="http://www.w3.org/2000/svg" xmlns:xlink="http://www.w3.org/1999/xlink" width="34.17311" height="34.17311" viewBox="0,0,34.17311,34.17311"><defs><linearGradient x1="227.1874" y1="171.39749" x2="231.99872" y2="181.51865" gradientUnits="userSpaceOnUse" id="color-1"><stop offset="0" stop-color="#828282"/><stop offset="1" stop-color="#b4b4b4"/></linearGradient><linearGradient x1="252.81263" y1="171.23182" x2="248.00132" y2="181.35298" gradientUnits="userSpaceOnUse" id="color-2"><stop offset="0" stop-color="#828282"/><stop offset="1" stop-color="#b4b4b4"/></linearGradient><linearGradient x1="240.45852" y1="175.6171" x2="240.45852" y2="186.74657" gradientUnits="userSpaceOnUse" id="color-3"><stop offset="0" stop-color="#828282"/><stop offset="1" stop-color="#b4b4b4"/></linearGradient></defs><g transform="translate(-222.91344,-162.91345)"><g data-paper-data="{&quot;isPaintingLayer&quot;:true}" stroke-miterlimit="10" stroke-dasharray="" stroke-dashoffset="0" style="mix-blend-mode: normal"><path d="M229.98311,162.91346h20.03379c3.9166,0 7.06966,3.15307 7.06966,7.06966v20.03379c0,3.91659 -3.15306,7.06966 -7.06966,7.06966h-20.03379c-3.91659,0 -7.06966,-3.15307 -7.06966,-7.06966v-20.03379c0,-3.91659 3.15307,-7.06966 7.06966,-7.06966z" fill-opacity="0.09677" fill="#191919" fill-rule="evenodd" stroke="none" stroke-width="4.43922" stroke-linecap="round" stroke-linejoin="round"/><g fill-rule="nonzero" stroke="#000000" stroke-width="0.5" stroke-linecap="butt" stroke-linejoin="miter"><path d="M228.60652,173.81136c1.73512,-0.81068 4.12362,-0.27846 4.64047,0.8088c1.32861,2.79488 -1.24828,6.89849 -1.24828,6.89849c0,0 -4.56546,-0.58114 -5.89407,-3.37602c-0.54973,-1.15642 0.63461,-3.45884 2.50187,-4.33127z" data-paper-data="{&quot;index&quot;:null}" fill="url(#color-1)"/><path d="M253.89538,177.97694c-1.32861,2.79488 -5.89407,3.37602 -5.89407,3.37602c0,0 -2.57688,-4.10361 -1.24827,-6.89849c0.51685,-1.08727 2.90535,-1.61948 4.64047,-0.8088c1.86726,0.87242 3.0516,3.17485 2.50187,4.33127z" data-paper-data="{&quot;index&quot;:null}" fill="url(#color-2)"/></g><path d="M228.60207,186.74657c0,-6.14664 5.30831,-11.12947 11.85645,-11.12947c6.54814,0 11.85645,4.98283 11.85645,11.12947" fill="url(#color-3)" fill-rule="nonzero" stroke="#000000" stroke-width="0.5" stroke-linecap="butt" stroke-linejoin="miter"/></g></g></svg>