<svg version="1.1" xmlns="http://www.w3.org/2000/svg" xmlns:xlink="http://www.w3.org/1999/xlink" width="179.47384" height="267.22501" viewBox="0,0,179.47384,267.22501"><g transform="translate(-151.11035,-65.88751)"><g data-paper-data="{&quot;isPaintingLayer&quot;:true}" fill-rule="nonzero" stroke-linejoin="miter" stroke-miterlimit="10" stroke-dasharray="" stroke-dashoffset="0" style="mix-blend-mode: normal"><g><g stroke="#000000" stroke-width="0" stroke-linecap="butt"><path d="M177.56274,146.38412l-26.45239,-25.34747l8.94674,-11.61429l35.98503,34.75844z" fill="#0088ff"/><path d="M195.61139,143.49155l-35.83872,-34.34173l31.88875,-33.27881l35.83872,34.34173z" fill="#90cbff"/></g><path d="M177.20561,116.57935l-1.73109,-15.84445" fill="none" stroke="#d4ebff" stroke-width="2" stroke-linecap="round"/><path d="M189.05679,123.57068l-5.12124,-31.09627" fill="none" stroke="#d4ebff" stroke-width="2" stroke-linecap="round"/><path d="M200.9073,117.46687l-3.54462,-22.49266" fill="none" stroke="#d4ebff" stroke-width="2" stroke-linecap="round"/><path d="M211.73812,102.74757l3.22384,7.45399" fill="none" stroke="#d4ebff" stroke-width="2" stroke-linecap="round"/></g><g data-paper-data="{&quot;index&quot;:null}"><g stroke="#000000" stroke-width="0" stroke-linecap="butt"><path d="M287.66435,143.22089l33.06597,-37.54614l9.85387,10.85528l-24.32299,27.39735z" fill="#0088ff"/><path d="M253.57047,111.89926l32.95374,-37.11899l34.46764,30.5999l-32.95374,37.11899z" fill="#90cbff"/></g><path d="M304.21454,114.19081l0.4482,-15.93243" fill="none" stroke="#d4ebff" stroke-width="2" stroke-linecap="round"/><path d="M295.56336,90.70684l-2.59784,31.4079" fill="none" stroke="#d4ebff" stroke-width="2" stroke-linecap="round"/><path d="M282.38145,94.28089l-1.71991,22.70519" fill="none" stroke="#d4ebff" stroke-width="2" stroke-linecap="round"/><path d="M268.67941,103.18778l-2.61246,7.68961" fill="none" stroke="#d4ebff" stroke-width="2" stroke-linecap="round"/></g><path d="M178.28372,333.11252v-267.22501h123.18203v267.22501z" fill-opacity="0.01" fill="#000000" stroke="none" stroke-width="0" stroke-linecap="butt"/><path d="M206.75003,307.5l15.14285,-131.8421l37.78325,-0.15789l13.57389,132z" fill="#8cc9ff" stroke="#000000" stroke-width="2" stroke-linecap="butt"/><path d="M219.70026,204.11263l3.12142,-26.32765l35.83075,-0.14203l2.76735,26.1059c0,0 -7.51543,4.19603 -21.55904,4.50964c-12.48458,0.27879 -20.16049,-4.14586 -20.16049,-4.14586z" fill="#3ca4ff" stroke="#000000" stroke-width="0" stroke-linecap="butt"/><path d="M174.83994,156.67949c0,-33.30185 28.7599,-60.29833 64.23702,-60.29833c35.47712,0 64.23702,26.99649 64.23702,60.29833c0,33.30185 -28.7599,60.29833 -64.23702,60.29833c-35.47712,0 -64.23702,-26.99649 -64.23702,-60.29833z" fill="#8cc9ff" stroke="#000000" stroke-width="2" stroke-linecap="butt"/><path d="M175.56301,156.4c0,-0.72799 5.20666,55.91939 63.36046,56.93429c55.56352,0.9697 63.51358,-57.95314 63.51358,-56.93429c0,32.80479 -28.40173,59.39833 -63.43702,59.39833c-35.03529,0 -63.43702,-26.59354 -63.43702,-59.39833z" fill="#3ca4ff" stroke="#000000" stroke-width="0" stroke-linecap="butt"/><path d="M188.39015,156.77563c0,-12.968 10.51265,-23.48065 23.48065,-23.48065c12.968,0 23.48065,10.51265 23.48065,23.48065c0,12.968 -10.51265,23.48065 -23.48065,23.48065c-12.968,0 -23.48065,-10.51265 -23.48065,-23.48065z" fill="#ffffff" stroke="#000000" stroke-width="2" stroke-linecap="butt"/><path d="M195.45554,156.5c0,-9.12808 7.39976,-16.52784 16.52783,-16.52784c9.12808,0 16.52784,7.39977 16.52784,16.52784c0,9.12808 -7.39977,16.52784 -16.52784,16.52784c-9.12808,0 -16.52783,-7.39977 -16.52783,-16.52784z" fill="#000000" stroke="none" stroke-width="0" stroke-linecap="butt"/><path d="M266.12926,180.25627c-12.968,0 -23.48065,-10.51265 -23.48065,-23.48065c0,-12.968 10.51265,-23.48065 23.48065,-23.48065c12.968,0 23.48065,10.51265 23.48065,23.48065c0,12.968 -10.51265,23.48065 -23.48065,23.48065z" data-paper-data="{&quot;index&quot;:null}" fill="#ffffff" stroke="#000000" stroke-width="2" stroke-linecap="butt"/><path d="M266.01668,173.02784c-9.12807,0 -16.52783,-7.39977 -16.52783,-16.52784c0,-9.12808 7.39977,-16.52784 16.52783,-16.52784c9.12807,0 16.52783,7.39977 16.52783,16.52784c0,9.12808 -7.39977,16.52784 -16.52783,16.52784z" data-paper-data="{&quot;index&quot;:null}" fill="#000000" stroke="none" stroke-width="0" stroke-linecap="butt"/><path d="M188.39015,156.77563c0,-12.968 10.51265,-23.48065 23.48065,-23.48065c12.968,0 23.48065,10.51265 23.48065,23.48065c0,0 -46.96131,1.23155 -46.96131,0z" fill="#8cc9ff" stroke="#000000" stroke-width="2" stroke-linecap="butt"/><path d="M242.64861,156.77563c0,-12.968 10.51265,-23.48065 23.48065,-23.48065c12.968,0 23.48065,10.51265 23.48065,23.48065c0,1.2138 -46.96131,0 -46.96131,0z" data-paper-data="{&quot;index&quot;:null}" fill="#8cc9ff" stroke="#000000" stroke-width="2" stroke-linecap="butt"/><path d="M201.02782,127.96716c0,0 6.70895,-5.16922 11.79722,-6.36355c5.08827,-1.19433 12.33413,0.69937 12.33413,0.69937c0,0 -8.03812,-0.06028 -11.96762,0.86207c-4.10648,0.96388 -12.16372,4.80211 -12.16372,4.80211z" fill="#000000" stroke="none" stroke-width="0" stroke-linecap="butt"/><path d="M264.96236,123.16506c-3.9295,-0.92235 -11.96762,-0.86207 -11.96762,-0.86207c0,0 7.24586,-1.8937 12.33413,-0.69937c5.08826,1.19433 11.79721,6.36355 11.79721,6.36355c0,0 -8.05724,-3.83822 -12.16372,-4.80211z" data-paper-data="{&quot;index&quot;:null}" fill="#000000" stroke="none" stroke-width="0" stroke-linecap="butt"/><path d="M254.24959,99.14423l14.5,15.5l-22.5,-6l3.25,13.75l-33.25,-19.5" data-paper-data="{&quot;index&quot;:null}" fill="#8cc9ff" stroke="#000000" stroke-width="2" stroke-linecap="round"/><path d="M227,200.375l12.50562,-5.25l13.99438,5.25z" fill="#000000" stroke="#000000" stroke-width="2" stroke-linecap="butt"/></g></g></svg>