<svg version="1.1" xmlns="http://www.w3.org/2000/svg" xmlns:xlink="http://www.w3.org/1999/xlink" width="44.78789" height="18.6619" viewBox="0,0,44.78789,18.6619"><g transform="translate(-217.60606,-170.66905)"><g data-paper-data="{&quot;isPaintingLayer&quot;:true}" fill="#191919" fill-rule="nonzero" stroke="none" stroke-width="0" stroke-linecap="butt" stroke-linejoin="miter" stroke-miterlimit="10" stroke-dasharray="" stroke-dashoffset="0" style="mix-blend-mode: normal"><g><g><path d="M259.32564,177.598c0,0 -0.41237,-4.81504 1.56333,-4.81504c1.97569,0 1.43825,4.81504 1.43825,4.81504z"/><path d="M257.11159,178.06777c0,0 -0.49283,-5.75456 1.86837,-5.75456c2.36119,0 1.71889,5.75456 1.71889,5.75456z"/><path d="M254.07113,178.42008c0,0 -0.55318,-6.4592 2.09714,-6.4592c2.65032,0 1.92937,6.4592 1.92937,6.4592z"/><path d="M249.82581,179.00728c0,0 -0.65375,-7.63359 2.47844,-7.63359c3.13219,0 2.28016,7.63359 2.28016,7.63359z"/><path d="M239.86938,179.82936c0,0 -0.77445,-9.04287 2.936,-9.04287c3.71045,0 2.70112,9.04287 2.70112,9.04287z"/><path d="M245.02808,179.47704c0,0 -0.73421,-8.57312 2.78348,-8.57312c3.5177,0 2.5608,8.57312 2.5608,8.57312z"/></g><g data-paper-data="{&quot;index&quot;:null}"><path d="M217.67278,177.48056c0,0 -0.53744,-4.81504 1.43825,-4.81504c1.9757,0 1.56333,4.81504 1.56333,4.81504z"/><path d="M219.30115,177.95032c0,0 -0.6423,-5.75456 1.71889,-5.75456c2.3612,0 1.86837,5.75456 1.86837,5.75456z"/><path d="M221.90236,178.30264c0,0 -0.72095,-6.4592 1.92937,-6.4592c2.65032,0 2.09714,6.4592 2.09714,6.4592z"/><path d="M225.41559,178.88984c0,0 -0.85203,-7.63359 2.28016,-7.63359c3.13219,0 2.47844,7.63359 2.47844,7.63359z"/><path d="M234.4935,179.71192c0,0 -1.00933,-9.04287 2.70112,-9.04287c3.71045,0 2.936,9.04287 2.936,9.04287z"/><path d="M229.62763,179.3596c0,0 -0.95689,-8.57312 2.5608,-8.57312c3.5177,0 2.78348,8.57312 2.78348,8.57312z"/></g></g><g><g><path d="M260.1801,179.34199c0,0 0.48245,4.3224 -1.2911,4.3224c-1.77356,0 -1.40337,-4.3224 -1.40337,-4.3224z"/><path d="M258.71834,179.94818c0,0 0.57659,5.1658 -1.54303,5.1658c-2.11961,0 -1.67721,-5.1658 -1.67721,-5.1658z"/><path d="M256.38327,180.34352c0,0 0.64718,5.79835 -1.73197,5.79835c-2.37916,0 -1.88258,-5.79835 -1.88258,-5.79835z"/><path d="M253.22948,180.52801c0,0 0.76486,6.85259 -2.04687,6.85259c-2.81173,0 -2.22487,-6.85259 -2.22487,-6.85259z"/><path d="M245.08035,181.21327c0,0 0.90606,8.11768 -2.42476,8.11768c-3.33082,0 -2.63561,-8.11768 -2.63561,-8.11768z"/><path d="M249.44837,180.897c0,0 0.859,7.69598 -2.2988,7.69598c-3.15779,0 -2.49869,-7.69598 -2.49869,-7.69598z"/></g><g data-paper-data="{&quot;index&quot;:null}"><path d="M222.63182,179.34199c0,0 0.37018,4.3224 -1.40337,4.3224c-1.77356,0 -1.2911,-4.3224 -1.2911,-4.3224z"/><path d="M224.61934,179.94818c0,0 0.4424,5.1658 -1.67721,5.1658c-2.11961,0 -1.54303,-5.1658 -1.54303,-5.1658z"/><path d="M227.34872,180.34352c0,0 0.49658,5.79835 -1.88258,5.79835c-2.37915,0 -1.73197,-5.79835 -1.73197,-5.79835z"/><path d="M231.15971,180.52801c0,0 0.58686,6.85259 -2.22487,6.85259c-2.81173,0 -2.04687,-6.85259 -2.04687,-6.85259z"/><path d="M240.09747,181.21327c0,0 0.69522,8.11768 -2.63561,8.11768c-3.33082,0 -2.42476,-8.11768 -2.42476,-8.11768z"/><path d="M235.46657,180.897c0,0 0.6591,7.69598 -2.49869,7.69598c-3.15779,0 -2.2988,-7.69598 -2.2988,-7.69598z"/></g></g></g></g></svg>