<svg version="1.1" xmlns="http://www.w3.org/2000/svg" xmlns:xlink="http://www.w3.org/1999/xlink" width="34.67311" height="34.67311" viewBox="0,0,34.67311,34.67311"><defs><linearGradient x1="240.00007" y1="162.9135" x2="240.00007" y2="197.08661" gradientUnits="userSpaceOnUse" id="color-1"><stop offset="0" stop-color="#000000"/><stop offset="1" stop-color="#1a0000"/></linearGradient><linearGradient x1="239.96029" y1="176.50651" x2="239.96029" y2="187.60205" gradientUnits="userSpaceOnUse" id="color-2"><stop offset="0" stop-color="#1a0000"/><stop offset="1" stop-color="#800000"/></linearGradient></defs><g transform="translate(-222.66351,-162.6635)"><g data-paper-data="{&quot;isPaintingLayer&quot;:true}" stroke-miterlimit="10" stroke-dasharray="" stroke-dashoffset="0" style="mix-blend-mode: normal"><path d="M229.98318,162.9135h20.03379c3.9166,0 7.06966,3.15307 7.06966,7.06966v20.03379c0,3.91659 -3.15306,7.06966 -7.06966,7.06966h-20.03379c-3.91659,0 -7.06966,-3.15307 -7.06966,-7.06966v-20.03379c0,-3.91659 3.15307,-7.06966 7.06966,-7.06966z" fill="url(#color-1)" fill-rule="evenodd" stroke="#800000" stroke-width="0.5" stroke-linecap="round" stroke-linejoin="round"/><path d="M246.99959,185.32325c-1.09625,-0.92278 -1.19428,-2.61014 -0.21896,-3.76881c0.97533,-1.15868 8.88529,-6.52671 8.88529,-6.52671c0,0 -3.94009,8.70971 -4.91541,9.86839c-0.97533,1.15868 -2.65467,1.34991 -3.75092,0.42713z" data-paper-data="{&quot;index&quot;:null}" fill="#330000" fill-rule="nonzero" stroke="#000000" stroke-width="0" stroke-linecap="butt" stroke-linejoin="miter"/><path d="M229.24953,184.89612c-0.97533,-1.15868 -4.91541,-9.86839 -4.91541,-9.86839c0,0 7.90997,5.36803 8.88529,6.52671c0.97533,1.15868 0.8773,2.84603 -0.21896,3.76881c-1.09625,0.92278 -2.7756,0.73155 -3.75092,-0.42713z" fill="#330000" fill-rule="nonzero" stroke="#000000" stroke-width="0" stroke-linecap="butt" stroke-linejoin="miter"/><path d="M228.13999,187.60205c0,-6.1279 5.29213,-11.09554 11.8203,-11.09554c6.52817,0 11.8203,4.96764 11.8203,11.09554" fill="url(#color-2)" fill-rule="nonzero" stroke="#000000" stroke-width="0" stroke-linecap="butt" stroke-linejoin="miter"/><path d="M238.27878,176.96921c0,-0.64612 1.6745,-4.57123 1.6745,-4.57123c0,0 1.6745,3.92512 1.6745,4.57123c0,0.64612 -0.7497,1.1699 -1.6745,1.1699c-0.9248,0 -1.6745,-0.52378 -1.6745,-1.1699z" fill="#330000" fill-rule="nonzero" stroke="#000000" stroke-width="0" stroke-linecap="butt" stroke-linejoin="miter"/><path d="M244.54017,178.10993c0.25269,-0.59466 3.32886,-3.55229 3.32886,-3.55229c0,0 0.00609,4.26737 -0.2466,4.86203c-0.25269,0.59466 -1.14752,0.78353 -1.99866,0.42186c-0.85115,-0.36167 -1.33629,-1.13693 -1.08361,-1.73159z" fill="#330000" fill-rule="nonzero" stroke="#000000" stroke-width="0" stroke-linecap="butt" stroke-linejoin="miter"/><path d="M234.69651,179.78018c-0.85115,0.36167 -1.74598,0.1728 -1.99866,-0.42186c-0.25269,-0.59466 -0.2466,-4.86203 -0.2466,-4.86203c0,0 3.07618,2.95764 3.32886,3.55229c0.25269,0.59466 -0.23246,1.36992 -1.0836,1.73159z" data-paper-data="{&quot;index&quot;:null}" fill="#330000" fill-rule="nonzero" stroke="#000000" stroke-width="0" stroke-linecap="butt" stroke-linejoin="miter"/></g></g></svg>