<svg version="1.1" xmlns="http://www.w3.org/2000/svg" xmlns:xlink="http://www.w3.org/1999/xlink" width="34.67311" height="34.67311" viewBox="0,0,34.67311,34.67311"><defs><linearGradient x1="240" y1="162.91345" x2="240" y2="197.08656" gradientUnits="userSpaceOnUse" id="color-1"><stop offset="0" stop-color="#000000"/><stop offset="1" stop-color="#4e4026"/></linearGradient><linearGradient x1="239.4125" y1="173.0143" x2="239.4125" y2="177.1029" gradientUnits="userSpaceOnUse" id="color-2"><stop offset="0" stop-color="#736039"/><stop offset="1" stop-color="#18140c"/></linearGradient><linearGradient x1="239.95951" y1="169.08995" x2="239.95951" y2="183.91115" gradientUnits="userSpaceOnUse" id="color-3"><stop offset="0" stop-color="#675633"/><stop offset="1" stop-color="#b19358"/></linearGradient><linearGradient x1="228.08797" y1="181.64681" x2="228.08797" y2="190.91005" gradientUnits="userSpaceOnUse" id="color-4"><stop offset="0" stop-color="#675633"/><stop offset="1" stop-color="#b19358"/></linearGradient><linearGradient x1="251.84255" y1="181.64681" x2="251.84255" y2="190.91005" gradientUnits="userSpaceOnUse" id="color-5"><stop offset="0" stop-color="#675633"/><stop offset="1" stop-color="#b19358"/></linearGradient></defs><g transform="translate(-222.66344,-162.66344)"><g data-paper-data="{&quot;isPaintingLayer&quot;:true}" stroke-miterlimit="10" stroke-dasharray="" stroke-dashoffset="0" style="mix-blend-mode: normal"><path d="M229.9831,162.91345h20.03379c3.9166,0 7.06966,3.15307 7.06966,7.06966v20.03379c0,3.91659 -3.15306,7.06966 -7.06966,7.06966h-20.03379c-3.91659,0 -7.06966,-3.15307 -7.06966,-7.06966v-20.03379c0,-3.91659 3.15307,-7.06966 7.06966,-7.06966z" fill="url(#color-1)" fill-rule="evenodd" stroke="#aa804d" stroke-width="0.5" stroke-linecap="round" stroke-linejoin="round"/><g fill-rule="nonzero" stroke="#000000" stroke-width="0" stroke-linejoin="miter"><path d="M235.05239,176.496l4.40802,-3.44976l-0.25554,2.17207l4.56774,-2.20401l-0.92632,4.0886" data-paper-data="{&quot;index&quot;:null}" fill="url(#color-2)" stroke-linecap="round"/><g stroke-linecap="butt"><path d="M227.38316,183.20843l-1.41444,0.57496c0,0 -0.11879,-14.67411 14.08293,-14.69341c14.13154,-0.01921 13.89844,14.82118 13.89844,14.82118l-1.66043,-0.76661c0,0 0.00086,-12.43096 -12.23801,-12.713c-11.85254,-0.27314 -12.66849,12.77688 -12.66849,12.77688z" fill="url(#color-3)"/><path d="M224.22786,186.31037c0,-2.3992 1.74032,-4.34414 3.8871,-4.34414c0.19438,0 0.22737,8.68828 0,8.68828c-2.14679,0 -3.8871,-1.94494 -3.8871,-4.34414z" fill="#736039"/><path d="M227.1162,190.91005v-9.26324h1.94355v9.26324z" fill="url(#color-4)"/><path d="M251.88503,190.65451c-0.22737,0 -0.19438,-8.68828 0,-8.68828c2.14679,0 3.88711,1.94494 3.88711,4.34414c0,2.3992 -1.74032,4.34414 -3.88711,4.34414z" data-paper-data="{&quot;index&quot;:null}" fill="#736039"/><path d="M250.87077,190.91005v-9.26324h1.94355v9.26324z" fill="url(#color-5)"/></g></g></g></g></svg>