<svg version="1.1" xmlns="http://www.w3.org/2000/svg" xmlns:xlink="http://www.w3.org/1999/xlink" width="483.53084" height="367.72442" viewBox="0,0,483.53084,367.72442"><defs><radialGradient cx="240" cy="180" r="238.97286" gradientUnits="userSpaceOnUse" id="color-1"><stop offset="0" stop-color="#00c1ff"/><stop offset="1" stop-color="#0bff00"/></radialGradient><radialGradient cx="240" cy="180" r="238.97286" gradientUnits="userSpaceOnUse" id="color-2"><stop offset="0" stop-color="#c39600" stop-opacity="0"/><stop offset="1" stop-color="#c39600"/></radialGradient><linearGradient x1="245.00008" y1="193.50003" x2="245.00008" y2="325.50003" gradientUnits="userSpaceOnUse" id="color-3"><stop offset="0" stop-color="#242400"/><stop offset="1" stop-color="#6e6e00"/></linearGradient><linearGradient x1="294.47249" y1="69.25957" x2="294.47249" y2="115.11947" gradientUnits="userSpaceOnUse" id="color-4"><stop offset="0" stop-color="#6e6e00"/><stop offset="1" stop-color="#242400"/></linearGradient><linearGradient x1="321.33214" y1="47.2932" x2="321.33214" y2="82.63406" gradientUnits="userSpaceOnUse" id="color-5"><stop offset="0" stop-color="#241300"/><stop offset="1" stop-color="#4a2800"/></linearGradient><linearGradient x1="197.4037" y1="72.46546" x2="197.4037" y2="118.32537" gradientUnits="userSpaceOnUse" id="color-6"><stop offset="0" stop-color="#6e6e00"/><stop offset="1" stop-color="#242400"/></linearGradient><linearGradient x1="170.54404" y1="50.4991" x2="170.54404" y2="85.83997" gradientUnits="userSpaceOnUse" id="color-7"><stop offset="0" stop-color="#241300"/><stop offset="1" stop-color="#4a2800"/></linearGradient><linearGradient x1="244.83659" y1="80.2176" x2="244.83659" y2="200.81426" gradientUnits="userSpaceOnUse" id="color-8"><stop offset="0" stop-color="#242400"/><stop offset="1" stop-color="#6e6e00"/></linearGradient><linearGradient x1="249.18321" y1="71.19494" x2="249.18321" y2="94.44494" gradientUnits="userSpaceOnUse" id="color-9"><stop offset="0" stop-color="#6e6e00"/><stop offset="1" stop-color="#242400"/></linearGradient><linearGradient x1="239.92672" y1="161.08605" x2="261.84406" y2="217.50106" gradientUnits="userSpaceOnUse" id="color-10"><stop offset="0" stop-color="#717171"/><stop offset="1" stop-color="#542828"/></linearGradient></defs><g transform="translate(1.56881,3.86221)"><g data-paper-data="{&quot;isPaintingLayer&quot;:true}" stroke-miterlimit="10" stroke-dasharray="" stroke-dashoffset="0" style="mix-blend-mode: normal"><path d="M1.02714,361.36221v-362.72442h477.94572v362.72442z" fill="url(#color-1)" fill-rule="nonzero" stroke="#8b5304" stroke-width="5" stroke-linecap="butt" stroke-linejoin="miter"/><path d="M1.02714,361.36221v-362.72442h477.94572v362.72442z" fill="url(#color-2)" fill-rule="nonzero" stroke="#8b5304" stroke-width="5" stroke-linecap="butt" stroke-linejoin="miter"/><path d="M0.93119,56.08069v-54.63017h478.53084v54.63017z" fill="#a26100" fill-rule="nonzero" stroke="#8b5304" stroke-width="5" stroke-linecap="butt" stroke-linejoin="miter"/><path d="M201.36095,352.38196c-0.00002,0.02694 -0.02188,0.04879 -0.04884,0.04879c-0.02694,0 -0.04881,-0.02184 -0.04884,-0.04879c0.00002,-0.02694 0.02188,-0.04879 0.04884,-0.04879c0.02694,0 0.04881,0.02184 0.04884,0.04879z" fill="#ffffff" fill-rule="nonzero" stroke="#000000" stroke-width="0.27531" stroke-linecap="butt" stroke-linejoin="miter"/><path d="" fill="#808080" fill-rule="evenodd" stroke="none" stroke-width="0.82588" stroke-linecap="round" stroke-linejoin="round"/><path d="M44.86315,138.76331c0,0 0.10036,-2.7506 0.70504,-3.60765c0.76671,-1.08672 2.9992,-2.49179 2.9992,-2.49179l5.90546,0.04414c0,0 -2.85294,2.44692 -3.73302,3.50796c-0.8119,0.97885 -1.23838,3.23937 -1.23838,3.23937c0,0 -1.63761,0.44115 -2.34454,0.00928c-0.4667,-0.28511 0.04148,-1.49902 -0.33518,-1.51675c-0.45152,-0.02124 0.32217,1.34796 -0.28356,1.667c-0.39062,0.20574 -1.67502,-0.85157 -1.67502,-0.85157z" fill="#16c300" fill-rule="nonzero" stroke="#000000" stroke-width="0" stroke-linecap="butt" stroke-linejoin="miter"/><path d="M47.21983,132.52827h13.94932" fill="none" fill-rule="nonzero" stroke="#000000" stroke-width="0" stroke-linecap="round" stroke-linejoin="miter"/><path d="M192.04906,290.17264v-229.78515h105.92347v229.78515z" fill-opacity="0.01" fill="#000000" fill-rule="nonzero" stroke="none" stroke-width="0" stroke-linecap="butt" stroke-linejoin="miter"/><path d="M216.4194,284.91654l13.02124,-113.37021l32.48959,-0.13577l11.6721,113.50599z" fill="#fff000" fill-rule="nonzero" stroke="#000000" stroke-width="2" stroke-linecap="butt" stroke-linejoin="miter"/><path d="M227.55523,196.01438l2.68409,-22.63898l30.81064,-0.12213l2.37963,22.4483c0,0 -6.46247,3.60814 -18.53849,3.87781c-10.73541,0.23973 -17.33588,-3.565 -17.33588,-3.565z" fill="#ffcb00" fill-rule="nonzero" stroke="#000000" stroke-width="0" stroke-linecap="butt" stroke-linejoin="miter"/><path d="M189.84001,138.45898c0,-28.63606 24.73046,-51.85016 55.23702,-51.85016c30.50656,0 55.23702,23.21412 55.23702,51.85016c0,28.63606 -24.73046,51.85016 -55.23702,51.85016c-30.50656,0 -55.23702,-23.21412 -55.23702,-51.85016z" fill="#fff000" fill-rule="nonzero" stroke="#000000" stroke-width="2" stroke-linecap="butt" stroke-linejoin="miter"/><path d="M190.46177,138.21865c0,-0.62599 4.47718,48.08474 54.48327,48.95745c47.77873,0.83384 54.61494,-49.83355 54.61494,-48.95745c0,28.20864 -24.42247,51.07626 -54.5491,51.07626c-30.12663,0 -54.5491,-22.86762 -54.5491,-51.07626z" fill="#ffcb00" fill-rule="nonzero" stroke="#000000" stroke-width="0" stroke-linecap="butt" stroke-linejoin="miter"/><path d="M201.49175,138.54165c0,-11.1511 9.03976,-20.19087 20.19087,-20.19087c11.1511,0 20.19087,9.03976 20.19087,20.19087c0,11.1511 -9.03976,20.19087 -20.19087,20.19087c-11.1511,0 -20.19087,-9.03976 -20.19087,-20.19087z" fill="#ffffff" fill-rule="nonzero" stroke="#000000" stroke-width="2" stroke-linecap="butt" stroke-linejoin="miter"/><path d="M207.56723,138.30464c0,-7.84918 6.36301,-14.21219 14.21218,-14.21219c7.84918,0 14.21219,6.36302 14.21219,14.21219c0,7.84918 -6.36302,14.21219 -14.21219,14.21219c-7.84918,0 -14.21218,-6.36302 -14.21218,-14.21219z" fill="#000000" fill-rule="nonzero" stroke="none" stroke-width="0" stroke-linecap="butt" stroke-linejoin="miter"/><path d="M268.33911,158.73251c-11.1511,0 -20.19087,-9.03976 -20.19087,-20.19087c0,-11.1511 9.03976,-20.19087 20.19087,-20.19087c11.1511,0 20.19087,9.03976 20.19087,20.19087c0,11.1511 -9.03976,20.19087 -20.19087,20.19087z" data-paper-data="{&quot;index&quot;:null}" fill="#ffffff" fill-rule="nonzero" stroke="#000000" stroke-width="2" stroke-linecap="butt" stroke-linejoin="miter"/><path d="M268.60328,153.10239c-7.84917,0 -14.21218,-6.36302 -14.21218,-14.21219c0,-7.84918 6.36302,-14.21219 14.21218,-14.21219c7.84917,0 14.21218,6.36302 14.21218,14.21219c0,7.84918 -6.36302,14.21219 -14.21218,14.21219z" data-paper-data="{&quot;index&quot;:null}" fill="#000000" fill-rule="nonzero" stroke="none" stroke-width="0" stroke-linecap="butt" stroke-linejoin="miter"/><path d="M201.49175,138.54165c0,-11.1511 9.03976,-20.19087 20.19087,-20.19087c11.1511,0 20.19087,9.03976 20.19087,20.19087c0,0 -40.38174,1.059 -40.38174,0z" fill="#fff000" fill-rule="nonzero" stroke="#000000" stroke-width="2" stroke-linecap="butt" stroke-linejoin="miter"/><path d="M248.14826,138.54165c0,-11.1511 9.03976,-20.19087 20.19087,-20.19087c11.1511,0 20.19087,9.03976 20.19087,20.19087c0,1.04374 -40.38174,0 -40.38174,0z" data-paper-data="{&quot;index&quot;:null}" fill="#fff000" fill-rule="nonzero" stroke="#000000" stroke-width="2" stroke-linecap="butt" stroke-linejoin="miter"/><path d="M212.3588,113.76942c0,0 5.76899,-4.44498 10.14436,-5.47198c4.37537,-1.027 10.60604,0.60138 10.60604,0.60138c0,0 -6.91193,-0.05183 -10.29088,0.74129c-3.53114,0.82883 -10.45951,4.1293 -10.45951,4.1293z" fill="#000000" fill-rule="nonzero" stroke="none" stroke-width="0" stroke-linecap="butt" stroke-linejoin="miter"/><path d="M267.33566,109.64013c-3.37895,-0.79312 -10.29088,-0.74129 -10.29088,-0.74129c0,0 6.23067,-1.62838 10.60604,-0.60138c4.37536,1.027 10.14435,5.47198 10.14435,5.47198c0,0 -6.92837,-3.30046 -10.45951,-4.1293z" data-paper-data="{&quot;index&quot;:null}" fill="#000000" fill-rule="nonzero" stroke="none" stroke-width="0" stroke-linecap="butt" stroke-linejoin="miter"/><g fill-rule="nonzero" stroke-linejoin="miter"><path d="M254.92106,175.2043h-21.59158" fill="none" stroke="#000000" stroke-width="2" stroke-linecap="round"/><path d="M292.6254,178.55732c0,7.48979 -31.06137,13.08356 -48.5533,13.08356c-17.49193,0 -46.67586,-5.52528 -46.67586,-13.01507c0,-7.48979 31.43712,-19.70653 48.92904,-19.70653c17.49193,0 46.30012,12.14825 46.30012,19.63804z" fill="#ffcb00" stroke="#000000" stroke-width="2" stroke-linecap="butt"/><path d="M243.91541,190.95393c-6.44864,0 -15.06673,-1.107 -22.64541,-2.29978c-2.16298,-6.64103 -5.47839,-14.66542 -8.20485,-20.90677c-0.15967,-0.36551 22.51676,-8.12678 31.65595,-8.12678c9.16864,0 22.32719,3.67034 31.93562,7.5051c-0.59449,1.20152 -7.76888,16.22854 -10.18874,21.65196c-7.90261,1.20391 -16.10237,2.17627 -22.55257,2.17627z" fill="#ff9f00" stroke="#000000" stroke-width="0" stroke-linecap="butt"/><path d="M232.88869,173.09962c0,2.49817 -1.03169,4.52335 -2.30434,4.52335c-1.27265,0 -2.30434,-2.02518 -2.30434,-4.52335c0,-2.49817 1.03169,-4.52336 2.30434,-4.52336c1.27265,0 2.30434,2.02518 2.30434,4.52336z" fill="#000000" stroke="none" stroke-width="0" stroke-linecap="butt"/><path d="M262.04121,172.58554c0,2.49817 -1.03169,4.52335 -2.30434,4.52335c-1.27265,0 -2.30434,-2.02517 -2.30434,-4.52335c0,-2.49817 1.03169,-4.52336 2.30434,-4.52336c1.27265,0 2.30434,2.02518 2.30434,4.52336z" fill="#000000" stroke="none" stroke-width="0" stroke-linecap="butt"/></g><path d="M226.73769,95.43397l28.59147,-16.76793l-2.79466,11.82354l19.34761,-5.15936l-12.46846,13.32836" data-paper-data="{&quot;index&quot;:null}" fill="#fff000" fill-rule="nonzero" stroke="#000000" stroke-width="2" stroke-linecap="round" stroke-linejoin="miter"/><text transform="translate(348.6875,125.39999) scale(0.5,0.5)" font-size="40" xml:space="preserve" fill="#000000" fill-rule="nonzero" stroke="none" stroke-width="1" stroke-linecap="butt" stroke-linejoin="miter" stroke-miterlimit="10" stroke-dasharray="" stroke-dashoffset="0" font-family="Sans Serif" font-weight="normal" text-anchor="start" style="mix-blend-mode: normal"><tspan x="0" dy="0">50 = 25$</tspan></text><path d="M353.6875,129.39999l-60,80l1,-16l14,14l-16,6l2,-20" fill="none" fill-rule="nonzero" stroke="#8b5304" stroke-width="5" stroke-linecap="round" stroke-linejoin="miter"/><path d="M183.16858,317.28225v-267.22501h123.18203v267.22501z" fill-opacity="0.01" fill="#000000" fill-rule="nonzero" stroke="none" stroke-width="0" stroke-linecap="butt" stroke-linejoin="miter"/><path d="M211.75009,325.50002l15.14285,-131.8421l37.78325,-0.15789l13.57389,132z" fill="url(#color-3)" fill-rule="nonzero" stroke="#000000" stroke-width="0" stroke-linecap="butt" stroke-linejoin="miter"/><path d="M240.00696,228.89301c0,8.72179 -4.91983,15.7246 -10.98792,15.7922c-3.42018,0.03811 -4.31831,0.52658 -5.34042,0.06644c-2.19904,-0.98997 -1.1227,-4.99092 0.12667,-17.59994c2.47174,-16.39728 -0.8547,-14.0509 5.21376,-14.0509c6.06846,0 10.98792,7.07041 10.98792,15.7922z" data-paper-data="{&quot;index&quot;:null}" fill="#4f2b00" fill-rule="nonzero" stroke="none" stroke-width="0" stroke-linecap="butt" stroke-linejoin="miter"/><path d="M255.27879,267.64452c0,-8.72179 4.91946,-15.7922 10.98792,-15.7922c6.06846,0 2.74202,-2.34638 5.21376,14.0509c1.24937,12.60902 2.3257,16.60996 0.12667,17.59994c-1.02211,0.46014 -1.92025,-0.02834 -5.34042,-0.06644c-6.06809,-0.0676 -10.98792,-7.07041 -10.98792,-15.7922z" fill="#4f2b00" fill-rule="nonzero" stroke="none" stroke-width="0" stroke-linecap="butt" stroke-linejoin="miter"/><path d="M238.44623,292.40078c-0.11894,11.90573 -6.93029,21.39787 -15.21449,21.40741c-4.66925,0.00538 -5.90192,0.65992 -7.29089,0.01787c-2.9883,-1.38136 -1.46448,-6.82819 0.41292,-24.02319c3.59768,-22.3495 -0.9751,-19.19193 7.30869,-19.10918c8.28379,0.08275 14.90271,9.80136 14.78377,21.70709z" data-paper-data="{&quot;index&quot;:null}" fill="#4f2b00" fill-rule="nonzero" stroke="none" stroke-width="0" stroke-linecap="butt" stroke-linejoin="miter"/><path d="M271.16333,311.34803c3.15361,0 4.88125,1.7211 5.14223,2.06661c1.06883,1.41502 0.58592,3.81305 0.58592,6.99072c0,5.66314 1.36537,4.09334 -8.56085,4.09334c-9.92622,0 -11.491,1.37883 -11.491,-4.28431c0,-5.66314 4.39748,-8.86636 14.3237,-8.86636z" fill="#4f2b00" fill-rule="nonzero" stroke="none" stroke-width="0" stroke-linecap="butt" stroke-linejoin="miter"/><g data-paper-data="{&quot;index&quot;:null}" fill-rule="nonzero" stroke="#000000" stroke-width="0" stroke-linecap="butt" stroke-linejoin="miter"><path d="M271.4357,110.06604l41.05018,-40.80647l5.02342,5.05343l-41.05018,40.80647z" fill="url(#color-4)"/><path d="M325.15072,82.21267c-9.52639,2.10894 -18.95869,-3.90409 -21.06763,-13.43046c-2.10894,-9.52638 3.9041,-18.95868 13.43048,-21.06762c9.52638,-2.10894 18.95868,3.9041 21.06762,13.43048c2.10894,9.52638 -3.9041,18.95868 -13.43048,21.06762z" fill="url(#color-5)"/></g><g fill-rule="nonzero" stroke="#000000" stroke-width="0" stroke-linecap="butt" stroke-linejoin="miter"><path d="M215.41708,118.32537l-41.05018,-40.80647l5.02342,-5.05343l41.05018,40.80647z" fill="url(#color-6)"/><path d="M166.72546,85.41858c-9.52638,-2.10894 -15.53942,-11.54124 -13.43047,-21.06762c2.10894,-9.52638 11.54124,-15.53942 21.06762,-13.43047c9.52638,2.10894 15.53942,11.54124 13.43047,21.06762c-2.10894,9.52638 -11.54124,15.53941 -21.06763,13.43047z" fill="url(#color-7)"/></g><path d="M180.59957,140.51592c0,-33.30185 28.7599,-60.29833 64.23702,-60.29833c35.47712,0 64.23702,26.99649 64.23702,60.29833c0,33.30185 -28.7599,60.29833 -64.23702,60.29833c-35.47712,0 -64.23702,-26.99649 -64.23702,-60.29833z" fill="url(#color-8)" fill-rule="nonzero" stroke="#000000" stroke-width="0" stroke-linecap="butt" stroke-linejoin="miter"/><path d="M194.14979,140.6954c0,-12.968 10.51265,-23.48065 23.48065,-23.48065c12.968,0 23.48065,10.51265 23.48065,23.48065c0,12.968 -10.51265,23.48065 -23.48065,23.48065c-12.968,0 -23.48065,-10.51265 -23.48065,-23.48065z" fill="#8a8a8a" fill-rule="nonzero" stroke="#000000" stroke-width="0" stroke-linecap="butt" stroke-linejoin="miter"/><path d="M201.21517,140.66975c0,-9.12808 7.39976,-16.52784 16.52783,-16.52784c9.12808,0 16.52784,7.39977 16.52784,16.52784c0,9.12808 -7.39977,16.52784 -16.52784,16.52784c-9.12808,0 -16.52783,-7.39977 -16.52783,-16.52784z" fill="#000000" fill-rule="nonzero" stroke="none" stroke-width="0" stroke-linecap="butt" stroke-linejoin="miter"/><path d="M271.88883,164.17603c-12.968,0 -23.48065,-10.51265 -23.48065,-23.48065c0,-12.968 10.51265,-23.48065 23.48065,-23.48065c12.968,0 23.48065,10.51265 23.48065,23.48065c0,12.968 -10.51265,23.48065 -23.48065,23.48065z" data-paper-data="{&quot;index&quot;:null}" fill="#8a8a8a" fill-rule="nonzero" stroke="#000000" stroke-width="0" stroke-linecap="butt" stroke-linejoin="miter"/><path d="M271.77628,157.19761c-9.12807,0 -16.52783,-7.39977 -16.52783,-16.52784c0,-9.12808 7.39977,-16.52784 16.52783,-16.52784c9.12807,0 16.52783,7.39977 16.52783,16.52784c0,9.12808 -7.39977,16.52784 -16.52783,16.52784z" data-paper-data="{&quot;index&quot;:null}" fill="#000000" fill-rule="nonzero" stroke="none" stroke-width="0" stroke-linecap="butt" stroke-linejoin="miter"/><path d="M206.78746,112.13693c0,0 6.70895,-5.16922 11.79721,-6.36355c5.08827,-1.19433 12.33413,0.69937 12.33413,0.69937c0,0 -8.03812,-0.06028 -11.96762,0.86207c-4.10648,0.96389 -12.16372,4.80211 -12.16372,4.80211z" fill="#000000" fill-rule="nonzero" stroke="none" stroke-width="0" stroke-linecap="butt" stroke-linejoin="miter"/><path d="M270.72193,107.33483c-3.9295,-0.92235 -11.96762,-0.86207 -11.96762,-0.86207c0,0 7.24586,-1.8937 12.33413,-0.69937c5.08826,1.19433 11.79721,6.36355 11.79721,6.36355c0,0 -8.05724,-3.83822 -12.16372,-4.80211z" data-paper-data="{&quot;index&quot;:null}" fill="#000000" fill-rule="nonzero" stroke="none" stroke-width="0" stroke-linecap="butt" stroke-linejoin="miter"/><path d="M222.93321,90.69494l33.25,-19.5l-3.25,13.75l22.5,-6l-14.5,15.5" fill="url(#color-9)" fill-rule="nonzero" stroke="#000000" stroke-width="0" stroke-linecap="round" stroke-linejoin="miter"/><path d="M259.0796,210.86074c-2.90384,0.42672 -1.28003,12.77431 -6.27828,6.82078c-5.03439,-5.99657 -11.80702,-35.17426 -11.80702,-35.17426l15.09647,0.17215c0,0 10.95853,17.67652 12.59257,28.69227c1.33134,8.97514 -6.09615,-1.02638 -9.60374,-0.51094z" data-paper-data="{&quot;index&quot;:null}" fill="url(#color-10)" fill-rule="nonzero" stroke="none" stroke-width="0" stroke-linecap="butt" stroke-linejoin="miter"/><path d="M257.31052,179.9198c0,4.80557 -25.20825,4.80557 -25.20825,0c0,-4.80557 5.64306,-8.70125 12.60413,-8.70125c6.96107,0 12.60413,3.89568 12.60413,8.70125z" fill="#000000" fill-rule="nonzero" stroke="#000000" stroke-width="0" stroke-linecap="butt" stroke-linejoin="miter"/></g></g></svg>