<svg version="1.1" xmlns="http://www.w3.org/2000/svg" xmlns:xlink="http://www.w3.org/1999/xlink" width="76.63688" height="238.16173" viewBox="0,0,76.63688,238.16173"><defs><radialGradient cx="270.76816" cy="168.89443" r="35.29831" gradientUnits="userSpaceOnUse" id="color-1"><stop offset="0" stop-color="#1f190a"/><stop offset="1" stop-color="#7b6628"/></radialGradient><radialGradient cx="271.48891" cy="169.17135" r="21.6" gradientUnits="userSpaceOnUse" id="color-2"><stop offset="0" stop-color="#808080"/><stop offset="1" stop-color="#404040"/></radialGradient></defs><g transform="translate(-237.94443,25.74997)"><g data-paper-data="{&quot;isPaintingLayer&quot;:true}" fill-rule="nonzero" stroke-linejoin="miter" stroke-miterlimit="10" stroke-dasharray="" stroke-dashoffset="0" style="mix-blend-mode: normal"><path d="M241.19443,140.15626l-2,-164.65623" fill="none" stroke="#000000" stroke-width="2.5" stroke-linecap="round"/><g stroke-width="0"><path d="M246.6516,143.61943c5.34048,-5.21326 13.38682,-7.91675 20.70614,-8.03955c5.23179,0.04381 9.21433,4.82771 13.42081,7.82479c4.39609,3.13301 7.78494,7.48974 12.15308,10.38049c3.08899,2.09437 6.57882,3.20175 10.00789,4.43348c3.6376,1.30758 9.72078,-0.2402 11.06763,3.36696c1.91758,4.72373 -1.36656,10.26861 -3.99344,14.68433c-4.10782,6.9029 -10.12747,12.52994 -15.67657,18.33635c-4.02356,3.84099 -8.31515,7.40819 -12.93743,10.46008c-4.29125,2.83915 -8.61202,6.02364 -13.5854,7.27272c-1.79239,0.43522 -4.16919,-1.15152 -5.11261,-2.96059c-1.41601,-3.02727 -0.14811,-6.85012 -1.30829,-10.20224c-1.26349,-3.65159 -3.44123,-6.95324 -5.56078,-10.18878c-2.40689,-3.70066 -5.48272,-7.27163 -8.11515,-11.03118c-3.15581,-4.51435 -9.04987,-8.23374 -9.18706,-13.79194c-0.26528,-7.33288 2.85188,-15.39992 8.12118,-20.54496z" fill="url(#color-1)" stroke="#000000" stroke-linecap="round"/><path d="M244.90643,147.20408c0,0 -7.83667,-8.14856 -5.42483,-9.9252c2.47451,-1.82279 9.98482,6.00968 9.98482,6.00968" fill="#665521" stroke="#000000" stroke-linecap="round"/><g stroke-linecap="butt"><path d="M256.51653,184.74017c0,0 -3.02715,-16.32813 5.24186,-24.92655c8.26901,-8.59841 24.70289,-6.21108 24.70289,-6.21108c0,0 3.02715,16.32813 -5.24186,24.92655c-8.26901,8.59841 -24.70289,6.21108 -24.70289,6.21108z" fill="url(#color-2)" stroke="#000000"/><g stroke="none"><path d="M263.76285,177.4419c-4.49029,-4.31826 -4.62974,-11.45901 -0.31148,-15.94928c4.31826,-4.49029 11.45901,-4.62974 15.94928,-0.31148c4.49029,4.31826 4.62974,11.45901 0.31148,15.94928c-4.31826,4.49029 -11.45901,4.62974 -15.94928,0.31148z" fill="#000000"/><path d="M264.86716,170.19737c0.67753,0.65157 1.07749,1.33499 0.89336,1.52647c-0.18414,0.19148 -0.88265,-0.1815 -1.56018,-0.83308c-0.67753,-0.65157 -1.07749,-1.33499 -0.89336,-1.52647c0.18414,-0.19148 0.88265,0.1815 1.56018,0.83308z" fill="#808080"/><path d="M267.40092,167.77043c0.92768,0.89215 1.47533,1.82791 1.22321,2.09008c-0.25213,0.26217 -1.20856,-0.24852 -2.13624,-1.14067c-0.92768,-0.89215 -1.47533,-1.82791 -1.22321,-2.09008c0.25213,-0.26217 1.20856,0.24852 2.13624,1.14067z" fill="#808080"/><path d="M272.79301,161.74806c0.67753,0.65157 1.07749,1.33499 0.89336,1.52647c-0.18414,0.19148 -0.88265,-0.1815 -1.56018,-0.83308c-0.67753,-0.65157 -1.07749,-1.33499 -0.89336,-1.52647c0.18414,-0.19148 0.88265,0.1815 1.56018,0.83308z" fill="#808080"/></g></g></g></g></g></svg>