<svg version="1.1" xmlns="http://www.w3.org/2000/svg" xmlns:xlink="http://www.w3.org/1999/xlink" width="168.59301" height="267.22501" viewBox="0,0,168.59301,267.22501"><defs><linearGradient x1="164.10035" y1="68.78581" x2="192.66406" y2="128.87289" gradientUnits="userSpaceOnUse" id="color-1"><stop offset="0" stop-color="#ff323d"/><stop offset="1" stop-color="#ff808a"/></linearGradient><linearGradient x1="316.23162" y1="67.80226" x2="287.66791" y2="127.88934" gradientUnits="userSpaceOnUse" id="color-2"><stop offset="0" stop-color="#ff323d"/><stop offset="1" stop-color="#ff808a"/></linearGradient><linearGradient x1="240.00002" y1="175.50002" x2="240.00002" y2="307.50001" gradientUnits="userSpaceOnUse" id="color-3"><stop offset="0" stop-color="#ff323d"/><stop offset="1" stop-color="#ff808a"/></linearGradient><linearGradient x1="239.43622" y1="86.30788" x2="239.43622" y2="206.90454" gradientUnits="userSpaceOnUse" id="color-4"><stop offset="0" stop-color="#ff323d"/><stop offset="1" stop-color="#ff808a"/></linearGradient></defs><g transform="translate(-155.86947,-55.79427)"><g data-paper-data="{&quot;isPaintingLayer&quot;:true}" fill-rule="nonzero" stroke-linecap="butt" stroke-linejoin="miter" stroke-miterlimit="10" stroke-dasharray="" stroke-dashoffset="0" style="mix-blend-mode: normal"><path d="M172.52531,83.11642c10.30102,-4.81284 24.48103,-1.65319 27.54948,4.80164c7.88766,16.59259 -7.41074,40.95482 -7.41074,40.95482c0,0 -27.10411,-3.4501 -34.99177,-20.04269c-3.26362,-6.8654 3.7675,-20.5344 14.85302,-25.71377z" data-paper-data="{&quot;index&quot;:null}" fill="url(#color-1)" stroke="#000000" stroke-width="2"/><path d="M322.65967,107.84664c-7.88765,16.59259 -34.99176,20.04269 -34.99176,20.04269c0,0 -15.29839,-24.36223 -7.41073,-40.95482c3.06845,-6.45484 17.24845,-9.61448 27.54948,-4.80165c11.08552,5.17937 18.11663,18.84838 14.85302,25.71377z" data-paper-data="{&quot;index&quot;:null}" fill="url(#color-2)" stroke="#000000" stroke-width="2"/><path d="M178.24869,323.01928v-267.22501h123.18203v267.22501z" fill-opacity="0.01" fill="#000000" stroke="none" stroke-width="0"/><path d="M206.75003,307.50001l15.14285,-131.8421l37.78325,-0.15789l13.57389,132z" fill="url(#color-3)" stroke="#000000" stroke-width="2"/><path d="M219.70026,204.11264l3.12142,-26.32765l35.83075,-0.14203l2.76735,26.1059c0,0 -7.51543,4.19603 -21.55904,4.50964c-12.48458,0.27879 -20.16049,-4.14586 -20.16049,-4.14586z" fill="#cb000a" stroke="#000000" stroke-width="0"/><path d="M175.1992,146.60621c0,-33.30185 28.7599,-60.29833 64.23702,-60.29833c35.47712,0 64.23702,26.99649 64.23702,60.29833c0,33.30185 -28.7599,60.29833 -64.23702,60.29833c-35.47712,0 -64.23702,-26.99649 -64.23702,-60.29833z" fill="url(#color-4)" stroke="#000000" stroke-width="2"/><path d="M176.40271,146.30677c0,-0.72799 5.20666,55.91939 63.36046,56.93429c55.56352,0.9697 63.51358,-57.95314 63.51358,-56.93429c0,32.80479 -28.40173,59.39833 -63.43702,59.39833c-35.03529,0 -63.43702,-26.59354 -63.43702,-59.39833z" fill="#cb000a" stroke="#000000" stroke-width="0"/><path d="M189.22985,146.6824c0,-12.968 10.51265,-23.48065 23.48065,-23.48065c12.968,0 23.48065,10.51265 23.48065,23.48065c0,12.968 -10.51265,23.48065 -23.48065,23.48065c-12.968,0 -23.48065,-10.51265 -23.48065,-23.48065z" fill="#ffffff" stroke="#000000" stroke-width="2"/><path d="M196.29524,146.40677c0,-9.12808 7.39976,-16.52784 16.52783,-16.52784c9.12808,0 16.52784,7.39977 16.52784,16.52784c0,9.12808 -7.39977,16.52784 -16.52784,16.52784c-9.12808,0 -16.52783,-7.39977 -16.52783,-16.52784z" fill="#000000" stroke="none" stroke-width="0"/><path d="M266.96896,170.16304c-12.968,0 -23.48065,-10.51265 -23.48065,-23.48065c0,-12.968 10.51265,-23.48065 23.48065,-23.48065c12.968,0 23.48065,10.51265 23.48065,23.48065c0,12.968 -10.51265,23.48065 -23.48065,23.48065z" data-paper-data="{&quot;index&quot;:null}" fill="#ffffff" stroke="#000000" stroke-width="2"/><path d="M266.85638,162.93461c-9.12807,0 -16.52783,-7.39977 -16.52783,-16.52784c0,-9.12808 7.39977,-16.52784 16.52783,-16.52784c9.12807,0 16.52783,7.39977 16.52783,16.52784c0,9.12808 -7.39977,16.52784 -16.52783,16.52784z" data-paper-data="{&quot;index&quot;:null}" fill="#000000" stroke="none" stroke-width="0"/><path d="M189.22985,146.6824c0,-12.968 10.51265,-23.48065 23.48065,-23.48065c12.968,0 23.48065,10.51265 23.48065,23.48065c0,0 -46.96131,1.23155 -46.96131,0z" fill="#ff000d" stroke="#000000" stroke-width="2"/><path d="M243.48831,146.6824c0,-12.968 10.51265,-23.48065 23.48065,-23.48065c12.968,0 23.48065,10.51265 23.48065,23.48065c0,1.2138 -46.96131,0 -46.96131,0z" data-paper-data="{&quot;index&quot;:null}" fill="#ff000d" stroke="#000000" stroke-width="2"/><path d="M201.86752,117.87393c0,0 6.70895,-5.16922 11.79722,-6.36355c5.08827,-1.19433 12.33413,0.69937 12.33413,0.69937c0,0 -8.03812,-0.06028 -11.96762,0.86207c-4.10648,0.96388 -12.16372,4.80211 -12.16372,4.80211z" fill="#000000" stroke="none" stroke-width="0"/><path d="M265.80206,113.07183c-3.9295,-0.92235 -11.96762,-0.86207 -11.96762,-0.86207c0,0 7.24586,-1.8937 12.33413,-0.69937c5.08826,1.19433 11.79721,6.36355 11.79721,6.36355c0,0 -8.05724,-3.83822 -12.16372,-4.80211z" data-paper-data="{&quot;index&quot;:null}" fill="#000000" stroke="none" stroke-width="0"/><path d="M244.84361,186.24455c0,4.24829 -2.60758,7.69221 -5.8242,7.69221c-3.21662,0 -5.8242,-3.44392 -5.8242,-7.69221c0,-4.24829 2.60758,-7.69221 5.8242,-7.69221c3.21662,0 5.8242,3.44392 5.8242,7.69221z" fill="#000000" stroke="#000000" stroke-width="2"/></g></g></svg>