<svg version="1.1" xmlns="http://www.w3.org/2000/svg" xmlns:xlink="http://www.w3.org/1999/xlink" width="34.17311" height="34.17311" viewBox="0,0,34.17311,34.17311"><g transform="translate(-222.91347,-162.91346)"><g data-paper-data="{&quot;isPaintingLayer&quot;:true}" stroke-miterlimit="10" stroke-dasharray="" stroke-dashoffset="0" style="mix-blend-mode: normal"><path d="M229.98313,162.91346h20.03379c3.9166,0 7.06966,3.15307 7.06966,7.06966v20.03379c0,3.91659 -3.15306,7.06966 -7.06966,7.06966h-20.03379c-3.91659,0 -7.06966,-3.15307 -7.06966,-7.06966v-20.03379c0,-3.91659 3.15307,-7.06966 7.06966,-7.06966z" fill-opacity="0.09677" fill="#191919" fill-rule="evenodd" stroke="none" stroke-width="4.43922" stroke-linecap="round" stroke-linejoin="round"/><g fill-rule="nonzero" stroke-linejoin="miter"><g stroke-linecap="round"><path d="M239.98483,171.85688c2.01952,0.01943 4.07899,1.03678 5.50639,2.41037c0.99518,1.00707 0.84592,2.68491 1.08069,4.06275c0.2452,1.44011 0.0636,2.92268 0.34968,4.31098c0.19273,0.99137 0.65076,1.86994 1.07339,2.76076c0.44815,0.94518 1.91045,1.80947 1.48025,2.75848c-0.53386,1.27213 -2.22225,1.70883 -3.56902,2.0544c-2.1056,0.53997 -4.33438,0.47026 -6.50714,0.52479c-1.50497,-0.03127 -3.00909,-0.16622 -4.47827,-0.46315c-1.36508,-0.27454 -2.80174,-0.48847 -3.99415,-1.19822c-0.42688,-0.25866 -0.57991,-1.01672 -0.41555,-1.54381c0.30624,-0.85097 1.27917,-1.34223 1.6965,-2.20668c0.45468,-0.94162 0.66718,-1.99062 0.87823,-3.01584c0.24472,-1.16928 0.33637,-2.44138 0.54907,-3.66501c0.25639,-1.46832 -0.16421,-3.30684 0.87044,-4.39918c1.34885,-1.4572 3.48664,-2.40957 5.47949,-2.39064z" fill="#c5c5c5" stroke="#000000" stroke-width="0.5"/><path d="M235.80522,174.6452c0.63532,-0.91074 2.01945,-1.27022 3.1658,-1.40117c0.5278,-0.05975 1.26052,0.52123 1.14425,0.88872c-0.04216,0.40648 -0.97598,0.3253 -1.46107,0.65921c-0.75449,0.52571 -1.55482,1.09105 -2.02384,1.88302c-0.54749,0.92554 -0.30283,2.18435 -0.95958,3.01629c-0.20249,0.31573 -1.06731,0.09093 -1.05969,-0.31955c0.0306,-1.62283 0.26854,-3.3931 1.19413,-4.72653z" fill="#e5e5e5" stroke="none" stroke-width="0.60142"/><path d="M239.14125,172.21165c0,0 0.02025,-3.0593 0.82322,-2.9481c0.82383,0.1141 0.80003,3.0505 0.80003,3.0505" fill="#c5c5c5" stroke="#000000" stroke-width="0.5"/></g><path d="M249.16839,187.80888c0.05426,1.67325 -3.50786,2.62273 -8.79537,2.63174c-5.23089,0.00891 -9.61564,-0.95537 -9.65762,-2.24996c-0.01397,-0.43091 0.66417,-1.80841 1.45863,-1.86127c1.59237,-0.10595 4.34644,1.33008 7.83439,1.21697c3.87266,-0.12558 6.88381,-1.21431 8.26725,-0.96178c0.48423,0.08839 0.88001,0.83256 0.89272,1.22431z" fill="#a5a5a5" stroke="#dcb749" stroke-width="0" stroke-linecap="butt"/></g></g></g></svg>