<svg version="1.1" xmlns="http://www.w3.org/2000/svg" xmlns:xlink="http://www.w3.org/1999/xlink" width="34.17311" height="34.17311" viewBox="0,0,34.17311,34.17311"><g transform="translate(-222.91344,-162.91344)"><g data-paper-data="{&quot;isPaintingLayer&quot;:true}" stroke-miterlimit="10" stroke-dasharray="" stroke-dashoffset="0" style="mix-blend-mode: normal"><path d="M229.9831,162.91345h20.03379c3.9166,0 7.06966,3.15307 7.06966,7.06966v20.03379c0,3.91659 -3.15306,7.06966 -7.06966,7.06966h-20.03379c-3.91659,0 -7.06966,-3.15307 -7.06966,-7.06966v-20.03379c0,-3.91659 3.15307,-7.06966 7.06966,-7.06966z" fill="#ffb299" fill-rule="evenodd" stroke="none" stroke-width="4.43922" stroke-linecap="round" stroke-linejoin="round"/><g fill-rule="nonzero" stroke-width="0.5" stroke-linecap="butt" stroke-linejoin="miter"><path d="M228.20515,179.74227c0,-3.05987 2.48052,-5.54038 5.54038,-5.54038c3.05987,0 5.54038,2.48052 5.54038,5.54038c0,3.05987 -2.48052,5.54038 -5.54038,5.54038c-3.05987,0 -5.54038,-2.48052 -5.54038,-5.54038z" fill="#ffffff" stroke="#000000"/><path d="M229.87227,179.67723c0,-2.15382 1.74601,-3.89983 3.89983,-3.89983c2.15382,0 3.89983,1.74601 3.89983,3.89983c0,2.15382 -1.74601,3.89983 -3.89983,3.89983c-2.15382,0 -3.89983,-1.74601 -3.89983,-3.89983z" fill="#000000" stroke="none"/><path d="M246.5481,185.28265c-3.05987,0 -5.54038,-2.48052 -5.54038,-5.54038c0,-3.05987 2.48052,-5.54038 5.54038,-5.54038c3.05987,0 5.54038,2.48052 5.54038,5.54038c0,3.05987 -2.48052,5.54038 -5.54038,5.54038z" data-paper-data="{&quot;index&quot;:null}" fill="#ffffff" stroke="#000000"/><path d="M246.52154,183.57706c-2.15382,0 -3.89983,-1.74601 -3.89983,-3.89983c0,-2.15382 1.74601,-3.89983 3.89983,-3.89983c2.15382,0 3.89983,1.74601 3.89983,3.89983c0,2.15382 -1.74601,3.89983 -3.89983,3.89983z" data-paper-data="{&quot;index&quot;:null}" fill="#000000" stroke="none"/><path d="M228.20515,179.74227c0,-3.05987 2.48052,-5.54038 5.54038,-5.54038c3.05987,0 5.54038,2.48052 5.54038,5.54038c0,0 -11.08077,0.29059 -11.08077,0z" fill="#e38f73" stroke="#000000"/><path d="M241.00772,179.74227c0,-3.05987 2.48052,-5.54038 5.54038,-5.54038c3.05987,0 5.54038,2.48052 5.54038,5.54038c0,0.2864 -11.08077,0 -11.08077,0z" data-paper-data="{&quot;index&quot;:null}" fill="#e38f73" stroke="#000000"/><path d="M231.00487,172.94476c0,0 1.58301,-1.2197 2.78361,-1.50151c1.2006,-0.28181 2.9103,0.16502 2.9103,0.16502c0,0 -1.89664,-0.01422 -2.82382,0.20341c-0.96895,0.22743 -2.87009,1.13308 -2.87009,1.13308z" fill="#000000" stroke="none"/><path d="M246.09056,171.81167c-0.92719,-0.21763 -2.82382,-0.20341 -2.82382,-0.20341c0,0 1.7097,-0.44683 2.9103,-0.16502c1.2006,0.28181 2.78361,1.50151 2.78361,1.50151c0,0 -1.90115,-0.90565 -2.87009,-1.13308z" data-paper-data="{&quot;index&quot;:null}" fill="#000000" stroke="none"/><path d="M227.00598,193.74129v-23.90538h25.988v23.90539z" fill="#ff0000" stroke="#000000"/><path d="M237.19919,171.11529l1.11263,-4.85662h2.97205l1.15041,4.8604z" fill="#ffe88e" stroke="#000000"/><path d="M235.35455,183.07288c-0.58725,-0.05572 -0.53153,-0.64297 -0.53153,-0.64297l0.05078,-0.53327c0.13349,-1.90741 0.30749,-3.81489 0.37195,-5.72605c0,0 0.01993,-0.58955 0.60948,-0.56962c0.58955,0.01993 0.56962,0.60949 0.56962,0.60949c-0.06526,1.92539 -0.23991,3.84685 -0.37415,5.76847l-0.05318,0.56242c0,0 -0.05572,0.58725 -0.64297,0.53153z" fill="#000000" stroke="none"/><path d="M243.67999,182.89241c-0.58624,-0.06549 -0.52076,-0.65173 -0.52076,-0.65173l0.00135,0.00603c0.05632,-1.9582 0.06585,-3.91264 0.06585,-5.87205c0,0 0,-0.58989 0.58989,-0.58989c0.58989,0 0.58989,0.58989 0.58989,0.58989c0,1.97069 -0.00982,3.93643 -0.06633,5.90593l-0.00815,0.09106c0,0 -0.06549,0.58624 -0.65173,0.52076z" fill="#000000" stroke="none"/><path d="M237.9876,185.13411c1.19082,-0.06045 2.37892,-0.14979 3.57045,-0.2083c0.3228,-0.01585 1.72947,-0.16948 1.91633,0.18741c0.41489,0.79242 -0.54938,2.16885 -0.96877,2.79888c-0.03505,0.05265 -0.94648,1.37213 -0.99323,1.41285c-1.66927,1.45422 -4.12257,0.74153 -5.0261,-1.10991c-0.19539,-0.58411 -0.83374,-1.95082 -0.45167,-2.54564c0.20286,-0.31582 0.63351,-0.42294 0.99292,-0.53123c0.2554,-0.07695 0.61586,-0.0525 0.96006,-0.00406z" fill="#000000" stroke="none"/></g></g></g></svg>