<svg version="1.1" xmlns="http://www.w3.org/2000/svg" xmlns:xlink="http://www.w3.org/1999/xlink" width="186.75687" height="274.05575" viewBox="0,0,186.75687,274.05575"><g transform="translate(-149.14373,-34.44427)"><g data-paper-data="{&quot;isPaintingLayer&quot;:true}" fill-rule="nonzero" stroke-linejoin="miter" stroke-miterlimit="10" stroke-dasharray="" stroke-dashoffset="0" style="mix-blend-mode: normal"><path d="M178.64901,307.48815v-267.22501h123.18203v267.22501z" fill-opacity="0.01" fill="#000000" stroke="none" stroke-width="0" stroke-linecap="butt"/><g stroke="#000000" stroke-width="2" stroke-linecap="butt"><path d="M214.71514,105.20113l-49.49748,-49.49748l5.18545,-5.18544l49.49747,49.49748z" fill="#1c1c1c"/><path d="M155.31817,65.60315c-6.89926,-6.89926 -6.89926,-18.08518 0,-24.98444c6.89926,-6.89926 18.08518,-6.89926 24.98444,0c6.89926,6.89926 6.89926,18.08518 0,24.98444c-6.89926,6.89926 -18.08518,6.89926 -24.98444,0z" fill="#404040"/></g><path d="M271.45039,194.0854c-8.51535,1.67202 -9.137,16.15086 -9.137,16.15086l-7.07444,-40.86981l22.42255,-4.36286l8.24957,33.38606c0,0 -4.5732,-6.24568 -14.46068,-4.30424z" data-paper-data="{&quot;index&quot;:null}" fill="#2c2c2c" stroke="#000000" stroke-width="2" stroke-linecap="butt"/><path d="M194.55851,191.78192l8.24957,-33.38606l22.42256,4.36286l-7.07444,40.86981c0,0 -0.62166,-14.47884 -9.13701,-16.15086c-9.88748,-1.94144 -14.46068,4.30424 -14.46068,4.30424z" fill="#2c2c2c" stroke="#000000" stroke-width="2" stroke-linecap="butt"/><g data-paper-data="{&quot;index&quot;:null}" stroke="#000000" stroke-width="2" stroke-linecap="butt"><path d="M265.14373,100.01568l49.49748,-49.49747l5.18544,5.18544l-49.49747,49.49748z" fill="#1c1c1c"/><path d="M304.74171,65.60315c-6.89926,-6.89926 -6.89926,-18.08518 0,-24.98444c6.89926,-6.89926 18.08518,-6.89926 24.98444,0c6.89926,6.89926 6.89926,18.08518 0,24.98444c-6.89926,6.89926 -18.08518,6.89926 -24.98444,0z" fill="#404040"/></g><path d="M206.75005,307.5l15.14285,-131.8421l37.78325,-0.15789l13.57389,132z" fill="#404040" stroke="#000000" stroke-width="2" stroke-linecap="butt"/><path d="M219.70027,204.11263l3.12142,-26.32765l35.83075,-0.14203l2.76735,26.1059c0,0 -7.51543,4.19603 -21.55904,4.50964c-12.48458,0.27879 -20.16049,-4.14586 -20.16049,-4.14586z" fill="#2c2c2c" stroke="#000000" stroke-width="0" stroke-linecap="butt"/><path d="M176.07997,131.05513c0,-33.30185 28.7599,-60.29833 64.23702,-60.29833c35.47712,0 64.23702,26.99649 64.23702,60.29833c0,33.30185 -28.7599,60.29833 -64.23702,60.29833c-35.47712,0 -64.23702,-26.99649 -64.23702,-60.29833z" fill="#404040" stroke="#000000" stroke-width="2" stroke-linecap="butt"/><path d="M176.80309,130.77564c0,-0.72799 5.20666,55.91939 63.36046,56.93429c55.56352,0.9697 63.51358,-57.95314 63.51358,-56.93429c0,32.80479 -28.40173,59.39833 -63.43702,59.39833c-35.03529,0 -63.43702,-26.59354 -63.43702,-59.39833z" fill="#2c2c2c" stroke="#000000" stroke-width="0" stroke-linecap="butt"/><path d="M189.6302,131.15127c0,-12.968 10.51265,-23.48065 23.48065,-23.48065c12.968,0 23.48065,10.51265 23.48065,23.48065c0,12.968 -10.51265,23.48065 -23.48065,23.48065c-12.968,0 -23.48065,-10.51265 -23.48065,-23.48065z" fill="#000000" stroke="#000000" stroke-width="2" stroke-linecap="butt"/><path d="M267.36928,154.63191c-12.968,0 -23.48065,-10.51265 -23.48065,-23.48065c0,-12.968 10.51265,-23.48065 23.48065,-23.48065c12.968,0 23.48065,10.51265 23.48065,23.48065c0,12.968 -10.51265,23.48065 -23.48065,23.48065z" data-paper-data="{&quot;index&quot;:null}" fill="#000000" stroke="#000000" stroke-width="2" stroke-linecap="butt"/><path d="M189.6302,131.15127c0,-12.968 10.51265,-23.48065 23.48065,-23.48065c12.968,0 23.48065,10.51265 23.48065,23.48065c0,0 -46.96131,1.23155 -46.96131,0z" fill="#2c2c2c" stroke="#000000" stroke-width="2" stroke-linecap="butt"/><path d="M243.88864,131.15127c0,-12.968 10.51265,-23.48065 23.48065,-23.48065c12.968,0 23.48065,10.51265 23.48065,23.48065c0,1.2138 -46.96131,0 -46.96131,0z" data-paper-data="{&quot;index&quot;:null}" fill="#2c2c2c" stroke="#000000" stroke-width="2" stroke-linecap="butt"/><path d="M202.2679,102.3428c0,0 6.70895,-5.16922 11.79722,-6.36355c5.08827,-1.19433 12.33413,0.69937 12.33413,0.69937c0,0 -8.03812,-0.06028 -11.96762,0.86207c-4.10648,0.96388 -12.16372,4.80211 -12.16372,4.80211z" fill="#000000" stroke="none" stroke-width="0" stroke-linecap="butt"/><path d="M266.20238,97.5407c-3.9295,-0.92235 -11.96762,-0.86207 -11.96762,-0.86207c0,0 7.24586,-1.8937 12.33413,-0.69937c5.08826,1.19433 11.79721,6.36355 11.79721,6.36355c0,0 -8.05724,-3.83822 -12.16372,-4.80211z" data-paper-data="{&quot;index&quot;:null}" fill="#000000" stroke="none" stroke-width="0" stroke-linecap="butt"/><path d="M217.80944,79.51296l23,-18l-1.33333,11.33334l23.83333,-11.5l-4.83333,21.33333" data-paper-data="{&quot;index&quot;:null}" fill="#404040" stroke="#000000" stroke-width="2" stroke-linecap="round"/><path d="M220.84824,163.50945c0,-1.04315 38.28531,-1.42137 38.28531,0c0,9.92396 -8.57046,17.96893 -19.14265,17.96893c-10.57219,0 -19.14265,-8.04496 -19.14265,-17.96893z" fill="#000000" stroke="#000000" stroke-width="2" stroke-linecap="butt"/></g></g></svg>