<svg version="1.1" xmlns="http://www.w3.org/2000/svg" xmlns:xlink="http://www.w3.org/1999/xlink" width="80.99199" height="228.77625" viewBox="0,0,80.99199,228.77625"><defs><radialGradient cx="277.96996" cy="160.32198" r="35.29831" gradientUnits="userSpaceOnUse" id="color-1"><stop offset="0" stop-color="#1f190a"/><stop offset="1" stop-color="#7b6628"/></radialGradient><radialGradient cx="278.7408" cy="160.36639" r="21.6" gradientUnits="userSpaceOnUse" id="color-2"><stop offset="0" stop-color="#808080"/><stop offset="1" stop-color="#404040"/></radialGradient></defs><g transform="translate(-237.94443,25.74997)"><g data-paper-data="{&quot;isPaintingLayer&quot;:true}" fill-rule="nonzero" stroke-linejoin="miter" stroke-miterlimit="10" stroke-dasharray="" stroke-dashoffset="0" style="mix-blend-mode: normal"><path d="M241.19443,140.15626l-2,-164.65623" fill="none" stroke="#000000" stroke-width="2.5" stroke-linecap="round"/><g stroke-width="0"><path d="M247.30469,143.58653c3.50034,-6.59139 10.34205,-11.61567 17.27672,-13.96043c4.9969,-1.55067 10.24656,1.79409 15.16568,3.36865c5.14111,1.64632 9.69523,4.76488 14.73597,6.18895c3.57989,1.05481 7.2412,1.04745 10.88247,1.17703c3.863,0.13836 9.18646,-3.18752 11.56732,-0.16144c3.26436,3.91595 1.82373,10.19735 0.6655,15.2031c-1.81189,7.82568 -5.83323,15.01794 -9.35175,22.23784c-2.66358,4.8834 -5.6658,9.58758 -9.13987,13.90155c-3.2235,4.01057 -6.37,8.35908 -10.72723,11.06264c-1.57488,0.96012 -4.32187,0.17209 -5.77115,-1.264c-2.27024,-2.45265 -2.22605,-6.48003 -4.35147,-9.31998c-2.31498,-3.09377 -5.39431,-5.57593 -8.3981,-8.01283c-3.41906,-2.79249 -7.43585,-5.25785 -11.08768,-8.03779c-4.38011,-3.33963 -11.12659,-5.08858 -12.94902,-10.3413c-2.4846,-6.90422 -1.9707,-15.53728 1.4826,-22.04202z" fill="url(#color-1)" stroke="#000000" stroke-linecap="round"/><path d="M246.73338,147.53228c0,0 -9.94503,-5.3767 -8.18837,-7.80314c1.8023,-2.48947 11.34025,2.68547 11.34025,2.68547" fill="#665521" stroke="#000000" stroke-linecap="round"/><g stroke-linecap="butt"><path d="M269.21748,179.75367c0,0 -7.85331,-14.63205 -2.59373,-25.33935c5.25958,-10.70729 21.64037,-13.4352 21.64037,-13.4352c0,0 7.85331,14.63205 2.59373,25.33935c-5.25958,10.70729 -21.64037,13.4352 -21.64037,13.4352z" fill="url(#color-2)" stroke="#000000"/><g stroke="none"><path d="M273.89862,170.59611c-5.59159,-2.74667 -7.89785,-9.50617 -5.15118,-15.09775c2.74667,-5.59159 9.50617,-7.89785 15.09775,-5.15118c5.59159,2.74667 7.89785,9.50617 5.15118,15.09775c-2.74667,5.59159 -9.50617,7.89785 -15.09775,5.15118z" fill="#000000"/><path d="M272.74552,163.35919c0.8437,0.41444 1.4327,0.94369 1.31558,1.18213c-0.11712,0.23844 -0.89602,0.09576 -1.73972,-0.31868c-0.8437,-0.41444 -1.4327,-0.94369 -1.31558,-1.18213c0.11712,-0.23844 0.89602,-0.09576 1.73972,0.31868z" fill="#808080"/><path d="M274.42037,160.2762c1.15521,0.56746 1.96169,1.29214 1.80133,1.61861c-0.16037,0.32647 -1.22686,0.13112 -2.38207,-0.43634c-1.15521,-0.56746 -1.96169,-1.29214 -1.80133,-1.61861c0.16037,-0.32647 1.22686,-0.13112 2.38207,0.43634z" fill="#808080"/><path d="M277.7236,152.89838c0.8437,0.41444 1.4327,0.94369 1.31558,1.18213c-0.11712,0.23844 -0.89602,0.09576 -1.73972,-0.31868c-0.8437,-0.41444 -1.4327,-0.94369 -1.31558,-1.18213c0.11712,-0.23844 0.89602,-0.09576 1.73972,0.31868z" fill="#808080"/></g></g></g></g></g></svg>