<svg version="1.1" xmlns="http://www.w3.org/2000/svg" xmlns:xlink="http://www.w3.org/1999/xlink" width="34.17311" height="34.17311" viewBox="0,0,34.17311,34.17311"><g transform="translate(-222.91345,-162.91345)"><g data-paper-data="{&quot;isPaintingLayer&quot;:true}" stroke-miterlimit="10" stroke-dasharray="" stroke-dashoffset="0" style="mix-blend-mode: normal"><path d="M229.98312,162.91346h20.03379c3.9166,0 7.06966,3.15307 7.06966,7.06966v20.03379c0,3.91659 -3.15306,7.06966 -7.06966,7.06966h-20.03379c-3.91659,0 -7.06966,-3.15307 -7.06966,-7.06966v-20.03379c0,-3.91659 3.15307,-7.06966 7.06966,-7.06966z" fill-opacity="0.09677" fill="#191919" fill-rule="evenodd" stroke="none" stroke-width="4.43922" stroke-linecap="round" stroke-linejoin="round"/><g fill-rule="nonzero" stroke="#000000" stroke-width="0.5" stroke-linecap="butt" stroke-linejoin="miter"><path d="M246.15985,177.67001c-0.37741,1.07418 -1.50725,1.6555 -2.52355,1.29842c-1.01631,-0.35708 -1.53423,-1.51734 -1.15682,-2.59152c0.37741,-1.07418 4.51036,-6.95317 4.51036,-6.95317c0,0 -0.45258,7.1721 -0.82999,8.24627z" data-paper-data="{&quot;index&quot;:null}" fill="#686868"/><path d="M233.7069,177.99718c-0.37741,-1.07418 -0.82999,-8.24627 -0.82999,-8.24627c0,0 4.13295,5.87899 4.51036,6.95317c0.37741,1.07418 -0.14051,2.23444 -1.15682,2.59152c-1.01631,0.35708 -2.14614,-0.22424 -2.52355,-1.29842z" fill="#686868"/></g><path d="M229.10849,185.11189c0,-5.6464 4.8763,-10.22371 10.89152,-10.22371c6.01522,0 10.89153,4.57732 10.89153,10.22371" fill="#a9a9a9" fill-rule="nonzero" stroke="#000000" stroke-width="0.5" stroke-linecap="butt" stroke-linejoin="miter"/></g></g></svg>