<svg version="1.1" xmlns="http://www.w3.org/2000/svg" xmlns:xlink="http://www.w3.org/1999/xlink" width="34.67311" height="34.67311" viewBox="0,0,34.67311,34.67311"><defs><linearGradient x1="65.14656" y1="161.5255" x2="85.98332" y2="139.33123" gradientUnits="userSpaceOnUse" id="color-1"><stop offset="0" stop-color="#1a0000"/><stop offset="1" stop-color="#800000"/></linearGradient><linearGradient x1="162.31041" y1="168.19222" x2="141.47372" y2="145.99791" gradientUnits="userSpaceOnUse" id="color-2"><stop offset="0" stop-color="#1a0000"/><stop offset="1" stop-color="#800000"/></linearGradient><linearGradient x1="240" y1="162.91345" x2="240" y2="197.08656" gradientUnits="userSpaceOnUse" id="color-3"><stop offset="0" stop-color="#000000"/><stop offset="1" stop-color="#003b41"/></linearGradient><linearGradient x1="239.00533" y1="166.51523" x2="239.00533" y2="189.51371" gradientUnits="userSpaceOnUse" id="color-4"><stop offset="0" stop-color="#000000"/><stop offset="1" stop-color="#424242"/></linearGradient></defs><g transform="translate(-222.66345,-162.66344)"><g data-paper-data="{&quot;isPaintingLayer&quot;:true}" stroke-miterlimit="10" stroke-dasharray="" stroke-dashoffset="0" style="mix-blend-mode: normal"><path d="M229.98313,162.91348h20.03378c3.9166,0 7.06966,3.15307 7.06966,7.06966v20.03379c0,3.91659 -3.15306,7.06966 -7.06966,7.06966h-20.03378c-3.91659,0 -7.06967,-3.15307 -7.06967,-7.06966v-20.03379c0,-3.91659 3.15308,-7.06966 7.06967,-7.06966z" fill-opacity="0.09677" fill="#191919" fill-rule="evenodd" stroke="none" stroke-width="4.43922" stroke-linecap="round" stroke-linejoin="round"/><path d="" data-paper-data="{&quot;index&quot;:null}" fill="url(#color-1)" fill-rule="nonzero" stroke="#000000" stroke-width="0" stroke-linecap="butt" stroke-linejoin="miter"/><path d="" data-paper-data="{&quot;index&quot;:null}" fill="url(#color-2)" fill-rule="nonzero" stroke="#000000" stroke-width="0" stroke-linecap="butt" stroke-linejoin="miter"/><path d="M229.98311,162.91345h20.03379c3.9166,0 7.06966,3.15307 7.06966,7.06966v20.03379c0,3.91659 -3.15306,7.06966 -7.06966,7.06966h-20.03379c-3.91659,0 -7.06966,-3.15307 -7.06966,-7.06966v-20.03379c0,-3.91659 3.15307,-7.06966 7.06966,-7.06966z" fill="url(#color-3)" fill-rule="evenodd" stroke="#00aec2" stroke-width="0.5" stroke-linecap="round" stroke-linejoin="round"/><g data-paper-data="{&quot;index&quot;:null}" fill-rule="nonzero" stroke="#000000" stroke-width="0" stroke-linecap="butt" stroke-linejoin="miter"><path d="M243.15393,177.20663c0.41351,10.5703 0.29707,10.20858 -1.30177,10.24991c-1.76096,0.04551 -1.21002,-1.52406 -1.34208,-8.57211c-0.07916,-4.22478 -0.59817,-9.13222 -0.69561,-9.16718c-0.83456,-0.29934 -0.77444,0.60712 -1.59784,1.73183c-0.17702,0.2418 -1.36733,18.04731 -2.22261,18.06462c-0.12569,0.00254 -1.07412,-0.29692 -1.17925,-1.37652c-0.435,-4.46724 0.14669,-16.35526 0.14669,-16.62459c0,-0.15143 1.46871,-4.99735 3.82106,-4.99735c2.41425,0 3.98961,0.93193 4.3714,10.6914z" fill="url(#color-4)"/><path d="M239.71958,192.45121c-0.97293,-1.28863 -1.13283,-3.97933 0.1558,-5.6861c1.28863,-1.70677 3.14612,-1.45355 4.11905,-0.16492c0.97293,1.28863 1.61707,4.37096 0.30243,6.11219c-0.46483,0.61567 -1.74802,0.64946 -2.35535,0.7344c-1.11032,0.15526 -1.59301,-0.16257 -2.22192,-0.99556z" fill="#000000"/></g></g></g></svg>