<svg version="1.1" xmlns="http://www.w3.org/2000/svg" xmlns:xlink="http://www.w3.org/1999/xlink" width="41.625" height="41.5" viewBox="0,0,41.625,41.5"><g transform="translate(-219.1875,-159.25)"><g data-paper-data="{&quot;isPaintingLayer&quot;:true}" stroke-miterlimit="10" stroke-dasharray="" stroke-dashoffset="0" style="mix-blend-mode: normal"><path d="M259.09522,180c0,10.54601 -8.54924,19.09522 -19.09522,19.09522c-10.54601,0 -19.09522,-8.54922 -19.09522,-19.09522c0,-10.54601 8.54922,-19.09522 19.09522,-19.09522c10.54601,0 19.09522,8.54922 19.09522,19.09522" fill="#bebebe" fill-rule="evenodd" stroke="#ffffff" stroke-width="0" stroke-linecap="round" stroke-linejoin="round"/><path d="M219.1875,200.75v-41.5h41.625v41.5z" fill="none" fill-rule="nonzero" stroke="none" stroke-width="0" stroke-linecap="butt" stroke-linejoin="miter"/><path d="M241.60171,190.14605c0,0.54965 -0.44558,0.99523 -0.99523,0.99523c-0.54965,0 -0.99523,-0.44558 -0.99523,-0.99523c0,-0.54965 0.44558,-0.99523 0.99523,-0.99523c0.54965,0 0.99523,0.44558 0.99523,0.99523z" fill="#ffffff" fill-rule="nonzero" stroke="#ffffff" stroke-width="3" stroke-linecap="butt" stroke-linejoin="miter"/><g fill="none" fill-rule="nonzero" stroke="#ffffff" stroke-width="3" stroke-linecap="round" stroke-linejoin="miter"><path d="M227.21393,175.30963l5.46903,-3.78062l-0.34113,14.97778"/><path d="M236.26049,186.93942l-8.01418,0.0851"/></g><path d="M252.28797,170.73751l-7.52195,0.1101l-0.14334,7.62142c0,0 4.63644,-0.24991 5.9954,0.42429c1.35896,0.6742 1.86045,1.60185 1.83544,3.46066c-0.02501,1.8588 -0.34959,3.84073 -2.36306,4.56665c-3.01959,1.08867 -5.77519,-0.32695 -5.77519,-0.32695" fill="none" fill-rule="nonzero" stroke="#ffffff" stroke-width="3" stroke-linecap="round" stroke-linejoin="miter"/></g></g></svg>