<svg version="1.1" xmlns="http://www.w3.org/2000/svg" xmlns:xlink="http://www.w3.org/1999/xlink" width="34.67311" height="34.67311" viewBox="0,0,34.67311,34.67311"><defs><linearGradient x1="240" y1="162.91345" x2="240" y2="197.08656" gradientUnits="userSpaceOnUse" id="color-1"><stop offset="0" stop-color="#000000"/><stop offset="1" stop-color="#613d00"/></linearGradient><linearGradient x1="65.14656" y1="161.52549" x2="85.98328" y2="139.33122" gradientUnits="userSpaceOnUse" id="color-2"><stop offset="0" stop-color="#1a0000"/><stop offset="1" stop-color="#800000"/></linearGradient><linearGradient x1="162.31041" y1="168.19219" x2="141.47372" y2="145.9979" gradientUnits="userSpaceOnUse" id="color-3"><stop offset="0" stop-color="#1a0000"/><stop offset="1" stop-color="#800000"/></linearGradient><linearGradient x1="241.92012" y1="183.08955" x2="256.64798" y2="183.08955" gradientUnits="userSpaceOnUse" id="color-4"><stop offset="0" stop-color="#000000"/><stop offset="1" stop-color="#3d2900"/></linearGradient><linearGradient x1="235.41782" y1="183.61123" x2="223.54098" y2="174.90201" gradientUnits="userSpaceOnUse" id="color-5"><stop offset="0" stop-color="#000000"/><stop offset="1" stop-color="#3d2900"/></linearGradient><linearGradient x1="239.49178" y1="177.05071" x2="239.49178" y2="187.27442" gradientUnits="userSpaceOnUse" id="color-6"><stop offset="0" stop-color="#0e0900"/><stop offset="1" stop-color="#885b00"/></linearGradient></defs><g transform="translate(-222.66344,-162.66344)"><g data-paper-data="{&quot;isPaintingLayer&quot;:true}" stroke-miterlimit="10" stroke-dasharray="" stroke-dashoffset="0" style="mix-blend-mode: normal"><path d="M229.98312,162.91345h20.03378c3.9166,0 7.06966,3.15307 7.06966,7.06966v20.03379c0,3.91659 -3.15306,7.06966 -7.06966,7.06966h-20.03378c-3.91659,0 -7.06967,-3.15307 -7.06967,-7.06966v-20.03379c0,-3.91659 3.15308,-7.06966 7.06967,-7.06966z" fill="url(#color-1)" fill-rule="evenodd" stroke="#cf8a00" stroke-width="0.5" stroke-linecap="round" stroke-linejoin="round"/><path d="" data-paper-data="{&quot;index&quot;:null}" fill="url(#color-2)" fill-rule="nonzero" stroke="#000000" stroke-width="0" stroke-linecap="butt" stroke-linejoin="miter"/><path d="" data-paper-data="{&quot;index&quot;:null}" fill="url(#color-3)" fill-rule="nonzero" stroke="#000000" stroke-width="0" stroke-linecap="butt" stroke-linejoin="miter"/><path d="M245.52913,185.92618c-1.65148,0.32994 -3.24333,-0.66925 -3.5555,-2.23175c-0.31217,-1.56251 0.77356,-3.09664 2.42504,-3.42658c1.65148,-0.32994 12.24931,0.49484 12.24931,0.49484c0,0 -9.46738,4.83355 -11.11885,5.16349z" data-paper-data="{&quot;index&quot;:null}" fill="url(#color-4)" fill-rule="nonzero" stroke="#000000" stroke-width="0" stroke-linecap="butt" stroke-linejoin="miter"/><path d="M230.83002,183.76459c-1.13668,-1.24266 -5.91307,-10.739 -5.91307,-10.739c0,0 9.03403,5.60183 10.17071,6.84449c1.13668,1.24267 1.10503,3.12186 -0.07068,4.19729c-1.17572,1.07544 -3.05028,0.93988 -4.18695,-0.30279z" data-paper-data="{&quot;index&quot;:null}" fill="url(#color-5)" fill-rule="nonzero" stroke="#000000" stroke-width="0" stroke-linecap="butt" stroke-linejoin="miter"/><path d="M228.60026,187.27442c0,-5.6464 4.8763,-10.22371 10.89152,-10.22371c6.01522,0 10.89153,4.57732 10.89153,10.22371" fill="url(#color-6)" fill-rule="nonzero" stroke="#000000" stroke-width="0" stroke-linecap="butt" stroke-linejoin="miter"/></g></g></svg>