<svg version="1.1" xmlns="http://www.w3.org/2000/svg" xmlns:xlink="http://www.w3.org/1999/xlink" width="390.7229" height="364.16588" viewBox="0,0,390.7229,364.16588"><defs><linearGradient x1="90.07251" y1="111.24398" x2="126.51186" y2="140.86723" gradientUnits="userSpaceOnUse" id="color-1"><stop offset="0" stop-color="#999999"/><stop offset="1" stop-color="#b58989"/></linearGradient><linearGradient x1="122.77311" y1="171.75831" x2="225.19774" y2="255.02412" gradientUnits="userSpaceOnUse" id="color-2"><stop offset="0" stop-color="#392500"/><stop offset="1" stop-color="#6a4800"/></linearGradient><linearGradient x1="135.47601" y1="181.19787" x2="160.04757" y2="201.17324" gradientUnits="userSpaceOnUse" id="color-3"><stop offset="0" stop-color="#1a0000"/><stop offset="1" stop-color="#800000"/></linearGradient><linearGradient x1="35.14276" y1="104.4976" x2="46.75808" y2="113.94025" gradientUnits="userSpaceOnUse" id="color-4"><stop offset="0" stop-color="#2c2300"/><stop offset="1" stop-color="#6b5400"/></linearGradient><linearGradient x1="41.98357" y1="108.93696" x2="60.13423" y2="123.69249" gradientUnits="userSpaceOnUse" id="color-5"><stop offset="0" stop-color="#634e00"/><stop offset="1" stop-color="#070600"/></linearGradient><linearGradient x1="53.9342" y1="117.15539" x2="72.08486" y2="131.91091" gradientUnits="userSpaceOnUse" id="color-6"><stop offset="0" stop-color="#2c2300"/><stop offset="1" stop-color="#6b5400"/></linearGradient><linearGradient x1="64.8638" y1="124.18198" x2="86.84912" y2="142.05487" gradientUnits="userSpaceOnUse" id="color-7"><stop offset="0" stop-color="#634e00"/><stop offset="1" stop-color="#070600"/></linearGradient><linearGradient x1="127.46215" y1="178.87049" x2="139.07747" y2="188.31314" gradientUnits="userSpaceOnUse" id="color-8"><stop offset="0" stop-color="#2c2300"/><stop offset="1" stop-color="#6b5400"/></linearGradient><linearGradient x1="113.51354" y1="167.81109" x2="131.66422" y2="182.56663" gradientUnits="userSpaceOnUse" id="color-9"><stop offset="0" stop-color="#000000"/><stop offset="1" stop-color="#493900"/></linearGradient><linearGradient x1="103.02818" y1="157.79025" x2="121.17885" y2="172.54579" gradientUnits="userSpaceOnUse" id="color-10"><stop offset="0" stop-color="#2c2300"/><stop offset="1" stop-color="#6b5400"/></linearGradient><linearGradient x1="90.08338" y1="145.40821" x2="112.0687" y2="163.28111" gradientUnits="userSpaceOnUse" id="color-11"><stop offset="0" stop-color="#000000"/><stop offset="1" stop-color="#493900"/></linearGradient><linearGradient x1="77.3359" y1="133.32797" x2="99.32121" y2="151.20086" gradientUnits="userSpaceOnUse" id="color-12"><stop offset="0" stop-color="#2c2300"/><stop offset="1" stop-color="#6b5400"/></linearGradient><linearGradient x1="77.3359" y1="133.32797" x2="99.32121" y2="151.20086" gradientUnits="userSpaceOnUse" id="color-13"><stop offset="0" stop-color="#2c2300"/><stop offset="1" stop-color="#6b5400"/></linearGradient><linearGradient x1="115.75257" y1="131.87423" x2="139.02793" y2="150.79586" gradientUnits="userSpaceOnUse" id="color-14"><stop offset="0" stop-color="#1a0000"/><stop offset="1" stop-color="#800000"/></linearGradient></defs><g transform="translate(-12.99558,2.08294)"><g data-paper-data="{&quot;isPaintingLayer&quot;:true}" fill-rule="nonzero" stroke-linejoin="miter" stroke-miterlimit="10" stroke-dasharray="" stroke-dashoffset="0" style="mix-blend-mode: normal"><path d="M126.51186,140.86723c-8.18023,10.06244 -22.96886,11.58828 -33.0313,3.40804c-10.06245,-8.18024 -11.58828,-22.96886 -3.40804,-33.0313c8.18023,-10.06244 22.96886,-11.58829 33.0313,-3.40804c10.06245,8.18024 11.58828,22.96886 3.40804,33.0313z" data-paper-data="{&quot;index&quot;:null}" fill="url(#color-1)" stroke="#000000" stroke-width="0" stroke-linecap="butt"/><path d="M115.18786,141.09246c-5.758,7.08288 -16.16758,8.15688 -23.25046,2.39889c-7.08287,-5.75801 -8.1569,-16.16759 -2.3989,-23.25046c5.758,-7.08288 16.16759,-8.15688 23.25046,-2.39889c7.08288,5.75801 8.1569,16.1676 2.3989,23.25046z" data-paper-data="{&quot;index&quot;:null}" fill="#000000" stroke="none" stroke-width="0" stroke-linecap="butt"/><path d="M204.22359,280.82425l-92.74998,-94.91621l23.71122,-29.41729l110.98706,72.73322z" data-paper-data="{&quot;index&quot;:null}" fill="url(#color-2)" stroke="#000000" stroke-width="0" stroke-linecap="butt"/><path d="M152.35097,216.71771c-1.46902,2.25429 -27.96656,-21.87616 -27.96656,-21.87616l22.18319,-27.28738c0,0 33.37181,26.36534 31.72878,28.15653c-1.45628,1.58762 -20.71558,-14.34169 -22.03177,-12.62378c-1.70336,2.22329 6.79802,7.1706 5.40791,8.35994c-2.18344,1.86809 5.40478,5.06711 4.07441,7.00356c-1.40799,2.04941 -18.319,-15.11023 -19.6143,-14.01755c-2.0844,1.75831 11.47005,11.56409 10.01059,12.90578c-1.51775,1.39529 -9.93646,-4.05125 -11.82122,-3.40866c-3.02895,1.03267 23.10911,19.79639 21.46202,20.96537c-1.52162,1.07992 -18.79909,-13.68831 -19.86794,-12.3255c-1.39326,1.77642 -8.68443,-6.1716 -9.50781,-5.74396c-1.41597,0.7354 17.43673,17.59917 15.9427,19.89182z" data-paper-data="{&quot;index&quot;:null}" fill="url(#color-3)" stroke="none" stroke-width="0" stroke-linecap="butt"/><path d="M115.78982,182.18165l15.83917,-19.48364" data-paper-data="{&quot;index&quot;:null}" fill="none" stroke="#000000" stroke-width="2" stroke-linecap="round"/><g stroke="#000000" stroke-width="0" stroke-linecap="butt"><path d="M46.75808,113.94025c-11.43473,14.06578 -23.7766,22.97081 -27.5663,19.88998c-3.7897,-3.08084 4.64351,-15.42339 16.07824,-29.48916c11.43473,-14.06578 21.54088,-24.52834 25.33059,-21.4475c3.7897,3.08084 -2.40779,16.98092 -13.84252,31.04669z" data-paper-data="{&quot;index&quot;:null}" fill="url(#color-4)"/><g><path d="M60.13423,123.69249c-17.86846,21.97985 -37.15443,35.8953 -43.07641,31.08104c-5.92198,-4.81425 7.25616,-24.10132 25.12462,-46.08119c17.86846,-21.97986 33.66081,-38.32915 39.58278,-33.5149c5.92199,4.81426 -3.76253,26.53518 -21.631,48.51504z" data-paper-data="{&quot;index&quot;:null}" fill="url(#color-5)"/><path d="M72.08486,131.91092c-19.72248,24.26047 -40.51141,40.02471 -46.4334,35.21044c-5.92198,-4.81425 8.77976,-25.97551 28.50224,-50.23598c19.72248,-24.26047 36.99717,-42.43318 42.91915,-37.61892c5.92199,4.81426 -5.2655,28.38399 -24.98799,52.64446z" data-paper-data="{&quot;index&quot;:null}" fill="url(#color-6)"/><path d="M86.84912,142.05487c-21.6435,26.6235 -45.00397,43.47884 -52.17708,37.64748c-7.17312,-5.83136 8.78913,-29.19317 30.43264,-55.81668c21.6435,-26.6235 40.77227,-46.42688 47.94538,-40.59552c3.51753,2.85957 2.48931,10.64356 -2.02446,20.97415c-9.31756,-0.94472 -22.09949,6.3407 -25.01311,14.7061c-0.58768,1.68731 -1.36448,3.8476 -1.31674,5.68093c0.03452,1.32553 1.15177,4.37108 0.72456,5.57745c-0.97568,2.7552 -0.11687,6.45954 1.49875,8.81349c0.25451,0.37082 0.70334,0.82419 1.29059,1.32316c-0.44901,0.56288 -0.90254,1.12607 -1.36052,1.68943z" data-paper-data="{&quot;index&quot;:null}" fill="url(#color-7)"/></g><path d="M155.0284,158.98055c3.7897,3.08084 -4.38898,15.11032 -15.82371,29.17609c-11.43473,14.06578 -21.7954,24.84141 -25.58511,21.76058c-3.7897,-3.08084 2.4078,-16.98092 13.84252,-31.04669c11.43473,-14.06578 23.77659,-22.97082 27.56629,-19.88998z" fill="url(#color-8)"/><path d="M156.5899,136.73011c5.92199,4.81426 -6.85842,23.61209 -24.72688,45.59195c-17.86846,21.97985 -34.05854,38.81838 -39.98052,34.00413c-5.92199,-4.81427 3.76252,-26.53519 21.63099,-48.51504c17.86846,-21.97985 37.15443,-35.89529 43.07641,-31.08104z" fill="url(#color-9)"/><path d="M149.46155,122.57983c5.92199,4.81426 -8.34076,25.43552 -28.06324,49.69599c-19.72247,24.26047 -37.43616,42.97318 -43.35815,38.15892c-5.92199,-4.81427 5.2655,-28.38399 24.98798,-52.64445c2.32269,-2.85711 4.66016,-5.59639 6.98639,-8.19809c4.16904,-0.58464 9.51589,-3.01092 11.12248,-4.99759c1.2749,-1.57652 2.03547,-3.50854 3.12633,-5.21759c1.045,-1.63719 2.25309,-4.15958 3.24735,-6.97208c10.21521,-8.55291 18.54368,-12.59499 21.95087,-9.82513z" fill="url(#color-10)"/><path d="M142.26043,107.76078c7.17311,5.83136 -8.30739,28.60057 -29.95089,55.22407c-21.6435,26.6235 -41.25401,47.01947 -48.42712,41.18811c-7.17311,-5.83136 4.55743,-32.14121 26.20093,-58.76471c0.64432,-0.79256 1.29015,-1.57649 1.93703,-2.35139c1.7461,1.07298 3.66689,2.08577 5.34391,2.7617c0.55875,0.58855 1.17766,1.17671 1.90636,1.79132c1.58204,1.33432 5.01908,0.49291 6.24347,1.4183c3.0194,2.2821 13.28418,-1.54151 15.6229,-4.43355c1.2749,-1.57652 2.03547,-3.50854 3.12633,-5.21759c3.1011,-4.85844 7.63833,-17.51221 3.76197,-22.40958c-0.84012,-1.06141 -1.78665,-2.03887 -2.81842,-2.93035c-0.27488,-0.51324 -0.57543,-1.01351 -0.89991,-1.49911c8.18379,-5.42051 14.71662,-7.40858 17.95341,-4.77723z" fill="url(#color-11)"/><path d="M47.06876,197.09448c-7.17312,-5.83136 6.37793,-34.38059 30.26714,-63.76652c2.44655,-3.00948 4.90663,-5.91101 7.35954,-8.68888c0.00009,0.00408 0.00021,0.00817 0.00031,0.01225c0.03452,1.32553 1.15177,4.37107 0.72456,5.57745c-0.97568,2.7552 2.7196,2.97043 4.33522,5.32436c1.1746,1.71138 3.65196,8.67056 7.60879,10.26538c0.55875,0.58855 1.17766,1.17671 1.90636,1.79131c0.58751,0.49551 1.43082,0.69097 2.32164,0.78829c-0.66289,0.82151 -1.33143,1.64683 -2.00524,2.47568v0.00001c-23.8892,29.38592 -45.3452,52.05203 -52.51831,46.22067z" fill="url(#color-12)"/><path d="M133.57917,90.67869c3.92675,3.19223 0.52668,12.12225 -7.27424,24.37217c-0.35389,-0.34937 -0.72025,-0.68732 -1.09803,-1.01374c-2.44194,-4.55937 -6.90958,-8.09429 -12.16893,-9.42338c-2.59551,-0.65591 -5.58475,-0.53737 -8.61732,0.1677c13.53546,-11.85328 24.74921,-17.68729 29.15854,-14.10273z" fill="url(#color-13)"/></g><path d="M80.6754,157.38144c7.60813,6.18501 9.61416,16.31811 4.48056,22.6329c-5.13358,6.31478 -15.46281,6.41999 -23.07094,0.23498c-7.60813,-6.18501 -9.61415,-16.3181 -4.48056,-22.63288c5.13358,-6.31478 15.46281,-6.42 23.07094,-0.235z" fill="#000000" stroke="#000000" stroke-width="0" stroke-linecap="butt"/><path d="M182.89275,170.62268l-17.4535,14.0447l8.54197,-20.40701z" data-paper-data="{&quot;index&quot;:null}" fill="#000000" stroke="none" stroke-width="1" stroke-linecap="butt"/><path d="M157.91904,258.87306l7.50707,-20.80997l3.36035,22.14918z" data-paper-data="{&quot;index&quot;:null}" fill="#000000" stroke="none" stroke-width="1" stroke-linecap="butt"/><path d="M104.6661,150.00323c0,0 15.70194,-6.21309 19.87156,-12.14296c3.51203,-4.99468 3.5136,-21.11457 3.5136,-21.11457c0,0 16.66769,6.61783 15.18256,17.26134c-0.05878,0.42124 -7.91077,-6.54624 -7.91077,-6.54624c0,0 5.51566,6.28683 4.87222,7.00624c-0.8546,0.9555 -5.95681,-2.62289 -6.49854,-2.15563c-0.74458,0.64223 5.09567,5.57709 4.72554,6.78416c-0.39401,1.28497 -4.87138,-1.22041 -5.40163,-0.03594c-0.30738,0.68662 6.19094,7.47886 5.84731,8.17728c-0.14675,0.29825 -4.02637,-1.95565 -5.17709,-1.3625c-0.67297,0.3469 1.61122,3.79739 0.76292,3.66259c-2.28468,-0.36305 -4.98354,-3.28479 -5.81656,-2.6104c-1.22414,0.99103 4.15849,5.99205 2.67837,6.61555c-3.15073,1.32725 -6.62701,1.02046 -6.62701,1.02046c0,0 5.67945,6.65208 4.05188,8.88779c0,0 -4.69457,-3.74671 -8.74802,-6.01084c-3.96957,-2.21729 -15.32633,-7.4363 -15.32633,-7.4363z" fill="url(#color-14)" stroke="#000000" stroke-width="0" stroke-linecap="butt"/><path d="M12.99558,362.08294v-364.16588h390.7229v364.16588z" fill-opacity="0.01" fill="#000000" stroke="none" stroke-width="0" stroke-linecap="butt"/></g></g></svg>