<svg version="1.1" xmlns="http://www.w3.org/2000/svg" xmlns:xlink="http://www.w3.org/1999/xlink" width="483.53084" height="367.72442" viewBox="0,0,483.53084,367.72442"><defs><radialGradient cx="240" cy="180" r="238.97286" gradientUnits="userSpaceOnUse" id="color-1"><stop offset="0" stop-color="#00c1ff"/><stop offset="1" stop-color="#0bff00"/></radialGradient><radialGradient cx="240" cy="180" r="238.97286" gradientUnits="userSpaceOnUse" id="color-2"><stop offset="0" stop-color="#c39600" stop-opacity="0"/><stop offset="1" stop-color="#c39600"/></radialGradient><radialGradient cx="246.00003" cy="245.50001" r="66" gradientUnits="userSpaceOnUse" id="color-3"><stop offset="0" stop-color="#ffc700"/><stop offset="1" stop-color="#ffa400"/></radialGradient><radialGradient cx="214.79673" cy="165.71244" r="16.67431" gradientUnits="userSpaceOnUse" id="color-4"><stop offset="0" stop-color="#e88500"/><stop offset="1" stop-color="#e7b500"/></radialGradient></defs><g transform="translate(1.56881,3.86221)"><g data-paper-data="{&quot;isPaintingLayer&quot;:true}" stroke-miterlimit="10" stroke-dasharray="" stroke-dashoffset="0" style="mix-blend-mode: normal"><path d="M1.02714,361.36221v-362.72442h477.94572v362.72442z" fill="url(#color-1)" fill-rule="nonzero" stroke="#8b5304" stroke-width="5" stroke-linecap="butt" stroke-linejoin="miter"/><path d="M1.02714,361.36221v-362.72442h477.94572v362.72442z" fill="url(#color-2)" fill-rule="nonzero" stroke="#8b5304" stroke-width="5" stroke-linecap="butt" stroke-linejoin="miter"/><path d="M0.93119,56.08069v-54.63017h478.53084v54.63017z" fill="#a26100" fill-rule="nonzero" stroke="#8b5304" stroke-width="5" stroke-linecap="butt" stroke-linejoin="miter"/><path d="M201.36095,352.38196c-0.00002,0.02694 -0.02188,0.04879 -0.04884,0.04879c-0.02694,0 -0.04881,-0.02184 -0.04884,-0.04879c0.00002,-0.02694 0.02188,-0.04879 0.04884,-0.04879c0.02694,0 0.04881,0.02184 0.04884,0.04879z" fill="#ffffff" fill-rule="nonzero" stroke="#000000" stroke-width="0.27531" stroke-linecap="butt" stroke-linejoin="miter"/><path d="" fill="#808080" fill-rule="evenodd" stroke="none" stroke-width="0.82588" stroke-linecap="round" stroke-linejoin="round"/><path d="M44.86315,138.76331c0,0 0.10036,-2.7506 0.70504,-3.60765c0.76671,-1.08672 2.9992,-2.49179 2.9992,-2.49179l5.90546,0.04414c0,0 -2.85294,2.44692 -3.73302,3.50796c-0.8119,0.97885 -1.23838,3.23937 -1.23838,3.23937c0,0 -1.63761,0.44115 -2.34454,0.00928c-0.4667,-0.28511 0.04148,-1.49902 -0.33518,-1.51675c-0.45152,-0.02124 0.32217,1.34796 -0.28356,1.667c-0.39062,0.20574 -1.67502,-0.85157 -1.67502,-0.85157z" fill="#16c300" fill-rule="nonzero" stroke="#000000" stroke-width="0" stroke-linecap="butt" stroke-linejoin="miter"/><path d="M47.21983,132.52827h13.94932" fill="none" fill-rule="nonzero" stroke="#000000" stroke-width="0" stroke-linecap="round" stroke-linejoin="miter"/><path d="M192.04906,290.17264v-229.78515h105.92347v229.78515z" fill-opacity="0.01" fill="#000000" fill-rule="nonzero" stroke="none" stroke-width="0" stroke-linecap="butt" stroke-linejoin="miter"/><path d="M216.4194,284.91654l13.02124,-113.37021l32.48959,-0.13577l11.6721,113.50599z" fill="#fff000" fill-rule="nonzero" stroke="#000000" stroke-width="2" stroke-linecap="butt" stroke-linejoin="miter"/><path d="M227.55523,196.01438l2.68409,-22.63898l30.81064,-0.12213l2.37963,22.4483c0,0 -6.46247,3.60814 -18.53849,3.87781c-10.73541,0.23973 -17.33588,-3.565 -17.33588,-3.565z" fill="#ffcb00" fill-rule="nonzero" stroke="#000000" stroke-width="0" stroke-linecap="butt" stroke-linejoin="miter"/><path d="M189.84001,138.45898c0,-28.63606 24.73046,-51.85016 55.23702,-51.85016c30.50656,0 55.23702,23.21412 55.23702,51.85016c0,28.63606 -24.73046,51.85016 -55.23702,51.85016c-30.50656,0 -55.23702,-23.21412 -55.23702,-51.85016z" fill="#fff000" fill-rule="nonzero" stroke="#000000" stroke-width="2" stroke-linecap="butt" stroke-linejoin="miter"/><path d="M190.46177,138.21865c0,-0.62599 4.47718,48.08474 54.48327,48.95745c47.77873,0.83384 54.61494,-49.83355 54.61494,-48.95745c0,28.20864 -24.42247,51.07626 -54.5491,51.07626c-30.12663,0 -54.5491,-22.86762 -54.5491,-51.07626z" fill="#ffcb00" fill-rule="nonzero" stroke="#000000" stroke-width="0" stroke-linecap="butt" stroke-linejoin="miter"/><path d="M201.49175,138.54165c0,-11.1511 9.03976,-20.19087 20.19087,-20.19087c11.1511,0 20.19087,9.03976 20.19087,20.19087c0,11.1511 -9.03976,20.19087 -20.19087,20.19087c-11.1511,0 -20.19087,-9.03976 -20.19087,-20.19087z" fill="#ffffff" fill-rule="nonzero" stroke="#000000" stroke-width="2" stroke-linecap="butt" stroke-linejoin="miter"/><path d="M207.56723,138.30464c0,-7.84918 6.36301,-14.21219 14.21218,-14.21219c7.84918,0 14.21219,6.36302 14.21219,14.21219c0,7.84918 -6.36302,14.21219 -14.21219,14.21219c-7.84918,0 -14.21218,-6.36302 -14.21218,-14.21219z" fill="#000000" fill-rule="nonzero" stroke="none" stroke-width="0" stroke-linecap="butt" stroke-linejoin="miter"/><path d="M268.33911,158.73251c-11.1511,0 -20.19087,-9.03976 -20.19087,-20.19087c0,-11.1511 9.03976,-20.19087 20.19087,-20.19087c11.1511,0 20.19087,9.03976 20.19087,20.19087c0,11.1511 -9.03976,20.19087 -20.19087,20.19087z" data-paper-data="{&quot;index&quot;:null}" fill="#ffffff" fill-rule="nonzero" stroke="#000000" stroke-width="2" stroke-linecap="butt" stroke-linejoin="miter"/><path d="M268.60328,153.10239c-7.84917,0 -14.21218,-6.36302 -14.21218,-14.21219c0,-7.84918 6.36302,-14.21219 14.21218,-14.21219c7.84917,0 14.21218,6.36302 14.21218,14.21219c0,7.84918 -6.36302,14.21219 -14.21218,14.21219z" data-paper-data="{&quot;index&quot;:null}" fill="#000000" fill-rule="nonzero" stroke="none" stroke-width="0" stroke-linecap="butt" stroke-linejoin="miter"/><path d="M201.49175,138.54165c0,-11.1511 9.03976,-20.19087 20.19087,-20.19087c11.1511,0 20.19087,9.03976 20.19087,20.19087c0,0 -40.38174,1.059 -40.38174,0z" fill="#fff000" fill-rule="nonzero" stroke="#000000" stroke-width="2" stroke-linecap="butt" stroke-linejoin="miter"/><path d="M248.14826,138.54165c0,-11.1511 9.03976,-20.19087 20.19087,-20.19087c11.1511,0 20.19087,9.03976 20.19087,20.19087c0,1.04374 -40.38174,0 -40.38174,0z" data-paper-data="{&quot;index&quot;:null}" fill="#fff000" fill-rule="nonzero" stroke="#000000" stroke-width="2" stroke-linecap="butt" stroke-linejoin="miter"/><path d="M212.3588,113.76942c0,0 5.76899,-4.44498 10.14436,-5.47198c4.37537,-1.027 10.60604,0.60138 10.60604,0.60138c0,0 -6.91193,-0.05183 -10.29088,0.74129c-3.53114,0.82883 -10.45951,4.1293 -10.45951,4.1293z" fill="#000000" fill-rule="nonzero" stroke="none" stroke-width="0" stroke-linecap="butt" stroke-linejoin="miter"/><path d="M267.33566,109.64013c-3.37895,-0.79312 -10.29088,-0.74129 -10.29088,-0.74129c0,0 6.23067,-1.62838 10.60604,-0.60138c4.37536,1.027 10.14435,5.47198 10.14435,5.47198c0,0 -6.92837,-3.30046 -10.45951,-4.1293z" data-paper-data="{&quot;index&quot;:null}" fill="#000000" fill-rule="nonzero" stroke="none" stroke-width="0" stroke-linecap="butt" stroke-linejoin="miter"/><g fill-rule="nonzero" stroke-linejoin="miter"><path d="M254.92106,175.2043h-21.59158" fill="none" stroke="#000000" stroke-width="2" stroke-linecap="round"/><path d="M292.6254,178.55732c0,7.48979 -31.06137,13.08356 -48.5533,13.08356c-17.49193,0 -46.67586,-5.52528 -46.67586,-13.01507c0,-7.48979 31.43712,-19.70653 48.92904,-19.70653c17.49193,0 46.30012,12.14825 46.30012,19.63804z" fill="#ffcb00" stroke="#000000" stroke-width="2" stroke-linecap="butt"/><path d="M243.91541,190.95393c-6.44864,0 -15.06673,-1.107 -22.64541,-2.29978c-2.16298,-6.64103 -5.47839,-14.66542 -8.20485,-20.90677c-0.15967,-0.36551 22.51676,-8.12678 31.65595,-8.12678c9.16864,0 22.32719,3.67034 31.93562,7.5051c-0.59449,1.20152 -7.76888,16.22854 -10.18874,21.65196c-7.90261,1.20391 -16.10237,2.17627 -22.55257,2.17627z" fill="#ff9f00" stroke="#000000" stroke-width="0" stroke-linecap="butt"/><path d="M232.88869,173.09962c0,2.49817 -1.03169,4.52335 -2.30434,4.52335c-1.27265,0 -2.30434,-2.02518 -2.30434,-4.52335c0,-2.49817 1.03169,-4.52336 2.30434,-4.52336c1.27265,0 2.30434,2.02518 2.30434,4.52336z" fill="#000000" stroke="none" stroke-width="0" stroke-linecap="butt"/><path d="M262.04121,172.58554c0,2.49817 -1.03169,4.52335 -2.30434,4.52335c-1.27265,0 -2.30434,-2.02517 -2.30434,-4.52335c0,-2.49817 1.03169,-4.52336 2.30434,-4.52336c1.27265,0 2.30434,2.02518 2.30434,4.52336z" fill="#000000" stroke="none" stroke-width="0" stroke-linecap="butt"/></g><path d="M226.73769,95.43397l28.59147,-16.76793l-2.79466,11.82354l19.34761,-5.15936l-12.46846,13.32836" data-paper-data="{&quot;index&quot;:null}" fill="#fff000" fill-rule="nonzero" stroke="#000000" stroke-width="2" stroke-linecap="round" stroke-linejoin="miter"/><text transform="translate(348.6875,125.39999) scale(0.5,0.5)" font-size="40" xml:space="preserve" fill="#000000" fill-rule="nonzero" stroke="none" stroke-width="1" stroke-linecap="butt" stroke-linejoin="miter" stroke-miterlimit="10" stroke-dasharray="" stroke-dashoffset="0" font-family="Sans Serif" font-weight="normal" text-anchor="start" style="mix-blend-mode: normal"><tspan x="0" dy="0">50 = 25$</tspan></text><path d="M353.6875,129.39999l-60,80l1,-16l14,14l-16,6l2,-20" fill="none" fill-rule="nonzero" stroke="#8b5304" stroke-width="5" stroke-linecap="round" stroke-linejoin="miter"/><path d="M185.28373,317.61252v-267.22501h123.18203v267.22501z" fill-opacity="0.01" fill="#000000" fill-rule="nonzero" stroke="none" stroke-width="0" stroke-linecap="butt" stroke-linejoin="miter"/><path d="M212.75004,311.5l15.14285,-131.8421l37.78325,-0.15789l13.57389,132z" fill="url(#color-3)" fill-rule="nonzero" stroke="#000000" stroke-width="2" stroke-linecap="butt" stroke-linejoin="miter"/><path d="M225.70027,208.11263l3.12142,-26.32765l35.83075,-0.14203l2.76735,26.1059c0,0 -7.51543,4.19603 -21.55904,4.50964c-12.48458,0.27879 -20.16049,-4.14586 -20.16049,-4.14586z" fill="#b99100" fill-rule="nonzero" stroke="#000000" stroke-width="0" stroke-linecap="butt" stroke-linejoin="miter"/><path d="M258.61663,180.65643h-25.10959" fill="none" fill-rule="nonzero" stroke="#000000" stroke-width="2" stroke-linecap="round" stroke-linejoin="miter"/><g fill-rule="nonzero" stroke="#000000" stroke-linecap="butt" stroke-linejoin="miter"><g stroke-width="2"><path d="M242.91321,84.04487c-18.12731,0 -32.82237,-3.95929 -32.82237,-8.84328c0,-4.88399 14.89682,-6.126 33.02411,-6.126c18.12731,0 32.62064,1.24201 32.62064,6.126c0,4.88399 -14.69508,8.84328 -32.82238,8.84328z" data-paper-data="{&quot;index&quot;:null}" fill="#a98500"/><g><path d="M243.78372,100.57573c-28.32659,0 -51.28982,-6.18695 -51.28982,-13.81892c0,-7.63197 23.27848,-9.57279 51.60507,-9.57279c28.32659,0 50.97458,1.94082 50.97458,9.57279c0,7.63197 -22.96324,13.81892 -51.28983,13.81892z" data-paper-data="{&quot;index&quot;:null}" fill="#886b00"/><path d="M244.94515,115.03296c-31.26574,0 -56.6116,-6.18695 -56.6116,-13.81892c0,-7.63197 25.69383,-9.5728 56.95958,-9.5728c31.26574,0 56.26365,1.94082 56.26365,9.5728c0,7.63197 -25.34588,13.81892 -56.61163,13.81892z" data-paper-data="{&quot;index&quot;:null}" fill="#a98500"/><path d="M246.38733,132.88801c-34.3111,0 -62.12573,-7.49406 -62.12573,-16.73841c0,-9.24437 28.19648,-11.59521 62.50758,-11.59521c34.3111,0 61.74388,2.35086 61.74388,11.59521c0,9.24437 -27.81463,16.73841 -62.12572,16.73841z" data-paper-data="{&quot;index&quot;:null}" fill="#886b00"/></g><path d="M276.2616,196.46809c0,4.88399 -14.49334,6.12601 -32.62064,6.12601c-18.12731,0 -33.02412,-1.24201 -33.02412,-6.12601c0,-4.88399 14.69508,-8.84327 32.82238,-8.84327c18.12731,0 32.82238,3.95928 32.82238,8.84327z" fill="#a98500"/><path d="M294.51171,183.64411c0,7.63197 -22.64797,9.5728 -50.97456,9.5728c-28.32659,0 -51.60508,-1.94084 -51.60508,-9.5728c0,-7.63197 22.96324,-13.81892 51.28983,-13.81892c28.32659,0 51.28982,6.18695 51.28982,13.81892z" fill="#886b00"/><path d="M300.99494,169.18689c0,7.63197 -24.99791,9.5728 -56.26365,9.5728c-31.26574,0 -56.95958,-1.94082 -56.95958,-9.5728c0,-7.63197 25.34586,-13.81892 56.6116,-13.81892c31.26574,0 56.61163,6.18695 56.61163,13.81892z" fill="#a98500"/><path d="M307.95123,154.25133c0,9.24437 -27.43277,11.59521 -61.74387,11.59521c-34.3111,0 -62.50758,-2.35086 -62.50758,-11.59521c0,-9.24437 27.81462,-16.73841 62.12572,-16.73841c34.3111,0 62.12572,7.49406 62.12572,16.73841z" fill="#886b00"/><path d="M315.72979,136.73976c0,9.24437 -30.27918,11.59521 -68.15036,11.59521c-37.87119,0 -68.9933,-2.35086 -68.9933,-11.59521c0,-9.24437 30.70063,-16.73841 68.57182,-16.73841c37.87119,0 68.57185,7.49405 68.57185,16.73841z" fill="#a98500"/></g><g><path d="M230.60038,137.76559c0,9.805 -6.59732,17.75353 -14.73553,17.75353c-8.1382,0 -14.73551,-7.94853 -14.73551,-17.75353c0,-9.805 6.59731,-17.75353 14.73551,-17.75353c8.1382,0 14.73553,7.94853 14.73553,17.75353z" fill="#000000" stroke-width="2"/><path d="M224.68517,181.2331c0,2.59061 0.99077,-21.85219 -7.53148,-21.85219c-8.52224,0 -15.4309,-2.1001 -15.4309,-4.69072c0,-2.59061 6.90865,-4.69072 15.4309,-4.69072c2.04771,0 8.47855,3.13892 9.57352,5.68749c3.46216,8.05822 -2.04205,23.57798 -2.04205,25.54613z" fill="url(#color-4)" stroke-width="0"/></g></g></g></g></svg>