<svg version="1.1" xmlns="http://www.w3.org/2000/svg" xmlns:xlink="http://www.w3.org/1999/xlink" width="215.20014" height="267.22501" viewBox="0,0,215.20014,267.22501"><defs><linearGradient x1="275.30453" y1="110.28012" x2="347.28282" y2="110.28012" gradientUnits="userSpaceOnUse" id="color-1"><stop offset="0" stop-color="#000000"/><stop offset="1" stop-color="#3d2900"/></linearGradient><linearGradient x1="132.87164" y1="127.74945" x2="203.25336" y2="127.74945" gradientUnits="userSpaceOnUse" id="color-2"><stop offset="0" stop-color="#3d2900"/><stop offset="1" stop-color="#000000"/></linearGradient><linearGradient x1="302.19455" y1="145.82932" x2="302.19455" y2="193.17564" gradientUnits="userSpaceOnUse" id="color-3"><stop offset="0" stop-color="#605540"/><stop offset="1" stop-color="#938567"/></linearGradient><linearGradient x1="330.40393" y1="172.55252" x2="330.40393" y2="207.88821" gradientUnits="userSpaceOnUse" id="color-4"><stop offset="0" stop-color="#0e0900"/><stop offset="1" stop-color="#885b00"/></linearGradient><linearGradient x1="183.37742" y1="138.47589" x2="183.37742" y2="185.65443" gradientUnits="userSpaceOnUse" id="color-5"><stop offset="0" stop-color="#605540"/><stop offset="1" stop-color="#938567"/></linearGradient><linearGradient x1="155.10153" y1="165.02432" x2="155.10153" y2="200.3601" gradientUnits="userSpaceOnUse" id="color-6"><stop offset="0" stop-color="#0e0900"/><stop offset="1" stop-color="#885b00"/></linearGradient><linearGradient x1="240.00006" y1="175.50004" x2="240.00006" y2="307.50003" gradientUnits="userSpaceOnUse" id="color-7"><stop offset="0" stop-color="#0e0900"/><stop offset="1" stop-color="#885b00"/></linearGradient><linearGradient x1="240.07701" y1="76.62103" x2="240.07701" y2="197.2177" gradientUnits="userSpaceOnUse" id="color-8"><stop offset="0" stop-color="#0e0900"/><stop offset="1" stop-color="#885b00"/></linearGradient></defs><g transform="translate(-132.87163,-46.38749)"><g data-paper-data="{&quot;isPaintingLayer&quot;:true}" fill-rule="nonzero" stroke-linejoin="miter" stroke-miterlimit="10" stroke-dasharray="" stroke-dashoffset="0" style="mix-blend-mode: normal"><path d="M178.40899,313.61251v-267.22501h123.18203v267.22501z" fill-opacity="0.01" fill="#000000" stroke="none" stroke-width="0" stroke-linecap="butt"/><path d="M292.94252,124.14338c-8.07114,1.61251 -15.85086,-3.27076 -17.3765,-10.90706c-1.52564,-7.63631 3.78055,-15.13394 11.8517,-16.74646c8.07114,-1.61251 59.8651,2.4184 59.8651,2.4184c0,0 -46.26916,23.62261 -54.34029,25.23511z" data-paper-data="{&quot;index&quot;:null}" fill="url(#color-1)" stroke="#000000" stroke-width="0" stroke-linecap="butt"/><path d="M184.18445,142.85035c-7.85103,-2.47076 -51.31281,-30.93015 -51.31281,-30.93015c0,0 51.92716,1.55998 59.7782,4.03076c7.85104,2.47077 12.32053,10.49535 9.98288,17.92341c-2.33765,7.42807 -10.59722,11.44675 -18.44826,8.97599z" fill="url(#color-2)" stroke="#000000" stroke-width="0" stroke-linecap="butt"/><g data-paper-data="{&quot;index&quot;:null}" stroke="#000000" stroke-width="0" stroke-linecap="butt"><path d="M276.1556,145.82932l56.41876,41.43578l-4.34087,5.91053l-56.41876,-41.43578z" fill="url(#color-3)"/><path d="M319.94633,204.4594c-7.86399,-5.77558 -9.55699,-16.83264 -3.78142,-24.69663c5.77558,-7.86399 16.83263,-9.55699 24.69663,-3.78142c7.86399,5.77558 9.55698,16.83264 3.78142,24.69663c-5.77557,7.86398 -16.83263,9.55698 -24.69662,3.78142z" fill="url(#color-4)"/></g><g stroke="#000000" stroke-width="0" stroke-linecap="butt"><path d="M213.81422,144.40034l-56.55175,41.25408l-4.32184,-5.92446l56.55176,-41.25408z" fill="url(#color-5)"/><path d="M165.51326,196.96481c-7.88252,5.75024 -18.9341,4.02168 -24.68433,-3.86083c-5.75024,-7.88252 -4.02169,-18.93409 3.86085,-24.68434c7.88252,-5.75024 18.93409,-4.02169 24.68434,3.86084c5.75024,7.88252 4.02169,18.93407 -3.86084,24.68433z" fill="url(#color-6)"/></g><path d="M206.75007,307.50003l15.14285,-131.8421l37.78325,-0.15789l13.57389,132z" fill="url(#color-7)" stroke="#000000" stroke-width="0" stroke-linecap="butt"/><path d="M175.83999,136.91937c0,-33.30185 28.7599,-60.29833 64.23702,-60.29833c35.47712,0 64.23702,26.99649 64.23702,60.29833c0,33.30185 -28.7599,60.29833 -64.23702,60.29833c-35.47712,0 -64.23702,-26.99649 -64.23702,-60.29833z" fill="url(#color-8)" stroke="#000000" stroke-width="0" stroke-linecap="butt"/><path d="M189.39019,137.27566c0,-12.968 10.51265,-23.48065 23.48065,-23.48065c12.968,0 23.48065,10.51265 23.48065,23.48065c0,12.968 -10.51265,23.48065 -23.48065,23.48065c-12.968,0 -23.48065,-10.51265 -23.48065,-23.48065z" fill="#b1b1b1" stroke="#000000" stroke-width="0" stroke-linecap="butt"/><path d="M267.12926,160.75627c-12.968,0 -23.48065,-10.51265 -23.48065,-23.48065c0,-12.968 10.51265,-23.48065 23.48065,-23.48065c12.968,0 23.48065,10.51265 23.48065,23.48065c0,12.968 -10.51265,23.48065 -23.48065,23.48065z" data-paper-data="{&quot;index&quot;:null}" fill="#b1b1b1" stroke="#000000" stroke-width="0" stroke-linecap="butt"/><path d="M261.07237,153.66798c-9.12807,0 -16.52783,-7.39977 -16.52783,-16.52784c0,-9.12808 7.39977,-16.52784 16.52783,-16.52784c9.12807,0 16.52783,7.39977 16.52783,16.52784c0,9.12808 -7.39977,16.52784 -16.52783,16.52784z" data-paper-data="{&quot;index&quot;:null}" fill="#000000" stroke="none" stroke-width="0" stroke-linecap="butt"/><path d="M198.56515,105.9922c0,0 7.2153,-4.43512 12.40095,-5.0878c5.18565,-0.65268 12.19222,1.99242 12.19222,1.99242c0,0 -7.98722,-0.90515 -11.99192,-0.4011c-4.18507,0.52674 -12.60123,3.49648 -12.60123,3.49648z" fill="#000000" stroke="none" stroke-width="0" stroke-linecap="butt"/><path d="M273.94417,106.51059c3.9295,0.92235 11.96762,0.86207 11.96762,0.86207c0,0 -7.24586,1.8937 -12.33413,0.69937c-5.08826,-1.19433 -11.79721,-6.36355 -11.79721,-6.36355c0,0 8.05724,3.83822 12.16372,4.80211z" data-paper-data="{&quot;index&quot;:null}" fill="#000000" stroke="none" stroke-width="0" stroke-linecap="butt"/><path d="M231.63496,137.51281c0,9.84884 -7.7645,17.83289 -17.34251,17.83289c-9.578,0 -17.34251,-7.98406 -17.34251,-17.83289c0,-9.84884 7.7645,-17.83289 17.34251,-17.83289c9.578,0 17.34251,7.98406 17.34251,17.83289z" fill="#b1b1b1" stroke="#000000" stroke-width="5" stroke-linecap="butt"/><path d="M233.47265,179.48366c0,0 4.93308,-4.26062 12.19893,-4.14285c8.81398,0.14285 12.91066,4.14285 12.91066,4.14285" data-paper-data="{&quot;index&quot;:null}" fill="none" stroke="#000000" stroke-width="2" stroke-linecap="round"/><path d="M194.26847,156.22051l4.79477,4.26164l-7.50032,-6.49203" fill="none" stroke="#000000" stroke-width="2" stroke-linecap="round"/></g></g></svg>