<svg version="1.1" xmlns="http://www.w3.org/2000/svg" xmlns:xlink="http://www.w3.org/1999/xlink" width="34.88673" height="34.88867" viewBox="0,0,34.88673,34.88867"><g transform="translate(-222.55664,-162.55567)"><g data-paper-data="{&quot;isPaintingLayer&quot;:true}" stroke-miterlimit="10" stroke-dasharray="" stroke-dashoffset="0" style="mix-blend-mode: normal"><path d="M229.98311,162.91346h20.03379c3.9166,0 7.06966,3.15307 7.06966,7.06966v20.03379c0,3.91659 -3.15306,7.06966 -7.06966,7.06966h-20.03379c-3.91659,0 -7.06966,-3.15307 -7.06966,-7.06966v-20.03379c0,-3.91659 3.15307,-7.06966 7.06966,-7.06966z" fill="#c581ff" fill-rule="evenodd" stroke="none" stroke-width="4.43922" stroke-linecap="round" stroke-linejoin="round"/><g data-paper-data="{&quot;index&quot;:null}" fill-rule="nonzero" stroke="#000000" stroke-width="0.5" stroke-linecap="butt" stroke-linejoin="miter"><path d="M247.47398,185.81409l4.45073,-9.98427l1.04597,0.46626l-4.45073,9.98427z" fill="#f0e0ff"/><path d="M251.32443,178.58279c-1.39167,-0.62037 -2.01693,-2.25145 -1.39656,-3.64312c0.62037,-1.39167 2.25145,-2.01693 3.64312,-1.39656c1.39167,0.62037 2.01693,2.25145 1.39656,3.64312c-0.62037,1.39167 -2.25145,2.01693 -3.64312,1.39656z" fill="#c581ff"/></g><g fill-rule="nonzero" stroke="#000000" stroke-width="0.5" stroke-linecap="butt" stroke-linejoin="miter"><path d="M231.48004,186.69661l-4.45073,-9.98427l1.04597,-0.46626l4.45073,9.98427z" fill="#f0e0ff"/><path d="M225.03245,177.60249c-0.62037,-1.39167 0.00489,-3.02275 1.39656,-3.64312c1.39167,-0.62037 3.02275,0.00489 3.64312,1.39656c0.62037,1.39167 -0.00489,3.02275 -1.39656,3.64312c-1.39167,0.62037 -3.02275,-0.00489 -3.64312,-1.39656z" fill="#c581ff"/></g><path d="M228.60025,187.27439c0,-5.6464 4.8763,-10.22371 10.89152,-10.22371c6.01522,0 10.89153,4.57732 10.89153,10.22371" fill="#c581ff" fill-rule="nonzero" stroke="#000000" stroke-width="0.5" stroke-linecap="butt" stroke-linejoin="miter"/><path d="M241.83491,178.18461l2.26435,2.42052l-3.51365,-0.93697l0.50753,2.14723l-5.1924,-3.04517" data-paper-data="{&quot;index&quot;:null}" fill="#c581ff" fill-rule="nonzero" stroke="#000000" stroke-width="0.5" stroke-linecap="round" stroke-linejoin="miter"/><path d="M257.44336,169.71388v20.49804c0,4.00745 -3.22497,7.23243 -7.23242,7.23243h-20.5c-3.66107,0 -6.66147,-2.69385 -7.1543,-6.21484c0.7952,3.03475 3.54108,5.26367 6.83204,5.26367h20.0332c3.9166,0 7.07032,-3.15372 7.07032,-7.07031v-20.03321c0,-3.2976 -2.23906,-6.0451 -5.28321,-6.83398c3.52994,0.48496 6.23438,3.49081 6.23438,7.15821z" fill-opacity="0.29839" fill="#000000" fill-rule="evenodd" stroke="none" stroke-width="4.54219" stroke-linecap="round" stroke-linejoin="round"/></g></g></svg>