<svg version="1.1" xmlns="http://www.w3.org/2000/svg" xmlns:xlink="http://www.w3.org/1999/xlink" width="41.625" height="41.5" viewBox="0,0,41.625,41.5"><g transform="translate(-219.1875,-159.25)"><g data-paper-data="{&quot;isPaintingLayer&quot;:true}" stroke-miterlimit="10" stroke-dasharray="" stroke-dashoffset="0" style="mix-blend-mode: normal"><path d="M259.09522,180c0,10.54601 -8.54924,19.09522 -19.09522,19.09522c-10.54601,0 -19.09522,-8.54922 -19.09522,-19.09522c0,-10.54601 8.54922,-19.09522 19.09522,-19.09522c10.54601,0 19.09522,8.54922 19.09522,19.09522" fill="#bebebe" fill-rule="evenodd" stroke="#ffffff" stroke-width="0" stroke-linecap="round" stroke-linejoin="round"/><path d="M219.1875,200.75v-41.5h41.625v41.5z" fill="none" fill-rule="nonzero" stroke="none" stroke-width="0" stroke-linecap="butt" stroke-linejoin="miter"/><path d="M236.49528,178.90659c0,4.59258 -0.7559,8.23434 -4.32306,8.31559c-3.17266,0.07227 -4.32305,-3.72302 -4.32305,-8.31559c0,-4.59258 1.05124,-8.3156 4.32305,-8.3156c3.95958,0 4.32306,3.72302 4.32306,8.3156z" fill="none" fill-rule="nonzero" stroke="#ffffff" stroke-width="3" stroke-linecap="butt" stroke-linejoin="miter"/><path d="M251.91297,170.73751l-7.52195,0.1101l-0.14334,7.62143c0,0 4.63644,-0.24991 5.9954,0.4243c1.35896,0.6742 1.86045,1.60185 1.83544,3.46066c-0.02501,1.8588 -0.34959,3.84073 -2.36306,4.56665c-3.01959,1.08867 -5.77519,-0.32695 -5.77519,-0.32695" fill="none" fill-rule="nonzero" stroke="#ffffff" stroke-width="3" stroke-linecap="round" stroke-linejoin="miter"/><path d="M240.7517,190.34235c0,0.43131 -0.34964,0.78094 -0.78095,0.78094c-0.43131,0 -0.78095,-0.34963 -0.78095,-0.78094c0,-0.43131 0.34964,-0.78095 0.78095,-0.78095c0.43131,0 0.78095,0.34964 0.78095,0.78095z" fill="#ffffff" fill-rule="nonzero" stroke="#ffffff" stroke-width="3" stroke-linecap="butt" stroke-linejoin="miter"/></g></g></svg>