<svg version="1.1" xmlns="http://www.w3.org/2000/svg" xmlns:xlink="http://www.w3.org/1999/xlink" width="203.99144" height="305.00928" viewBox="0,0,203.99144,305.00928"><defs><linearGradient x1="270.55886" y1="109.53041" x2="356.31247" y2="109.53041" gradientUnits="userSpaceOnUse" id="color-1"><stop offset="0" stop-color="#2a1900"/><stop offset="1" stop-color="#6a3e00"/></linearGradient><linearGradient x1="283.78573" y1="54.07343" x2="283.78573" y2="119.90007" gradientUnits="userSpaceOnUse" id="color-2"><stop offset="0" stop-color="#6a3e00"/><stop offset="1" stop-color="#2a1900"/></linearGradient><linearGradient x1="131.70158" y1="110.53436" x2="217.45521" y2="110.53436" gradientUnits="userSpaceOnUse" id="color-3"><stop offset="0" stop-color="#6a3e00"/><stop offset="1" stop-color="#2a1900"/></linearGradient><linearGradient x1="196.7562" y1="49.46587" x2="196.7562" y2="105.94969" gradientUnits="userSpaceOnUse" id="color-4"><stop offset="0" stop-color="#6a3e00"/><stop offset="1" stop-color="#2a1900"/></linearGradient><linearGradient x1="240.4132" y1="8.60324" x2="240.4132" y2="105.1811" gradientUnits="userSpaceOnUse" id="color-5"><stop offset="0" stop-color="#6a3e00"/><stop offset="1" stop-color="#2a1900"/></linearGradient><radialGradient cx="249.55066" cy="50.69354" r="25.69186" gradientUnits="userSpaceOnUse" id="color-6"><stop offset="0" stop-color="#1a0000"/><stop offset="1" stop-color="#800000"/></radialGradient><linearGradient x1="240.00005" y1="175.50006" x2="240.00005" y2="307.50005" gradientUnits="userSpaceOnUse" id="color-7"><stop offset="0" stop-color="#1d1509"/><stop offset="1" stop-color="#583e1b"/></linearGradient><linearGradient x1="240.07697" y1="76.8812" x2="240.07697" y2="197.47787" gradientUnits="userSpaceOnUse" id="color-8"><stop offset="0" stop-color="#1d1509"/><stop offset="1" stop-color="#583e1b"/></linearGradient><radialGradient cx="318.25421" cy="99.71405" r="17.43881" gradientUnits="userSpaceOnUse" id="color-9"><stop offset="0" stop-color="#1a0000"/><stop offset="1" stop-color="#800000"/></radialGradient></defs><g transform="translate(-131.70158,-8.60323)"><g data-paper-data="{&quot;isPaintingLayer&quot;:true}" fill-rule="nonzero" stroke-linejoin="miter" stroke-miterlimit="10" stroke-dasharray="" stroke-dashoffset="0" style="mix-blend-mode: normal"><path d="M178.40899,313.61251v-267.22501h123.18203v267.22501z" fill-opacity="0.01" fill="#000000" stroke="none" stroke-width="0" stroke-linecap="butt"/><path d="M300.48285,136.91915c-9.33149,5.94822 -21.45836,3.61309 -27.08613,-5.21567c-5.62777,-8.82876 -2.62529,-20.80787 6.70619,-26.75609c4.44559,-2.83378 32.43962,-22.54034 49.55351,-28.10613c5.33475,-1.73497 -20.66467,17.46282 -27.77462,27.74606c-4.83979,6.99987 13.95714,-6.30512 11.69555,-1.98621c-6.12995,11.70626 21.31968,-13.46374 21.31968,-13.46374c0,0 -25.08269,41.83355 -34.41417,47.78177z" fill="url(#color-1)" stroke="#000000" stroke-width="0" stroke-linecap="butt"/><path d="M285.97115,112.9656c-4.97325,7.11985 -14.4657,9.07722 -21.20198,4.3719c-6.73627,-4.70531 -8.16549,-14.29152 -3.19222,-21.41138c4.97325,-7.11986 47.38249,-41.85269 47.38249,-41.85269c0,0 -18.01504,51.7723 -22.9883,58.89215z" fill="url(#color-2)" stroke="#000000" stroke-width="0" stroke-linecap="butt"/><path d="M187.5312,137.92308c-9.33149,-5.94822 -55.82962,-58.0691 -55.82962,-58.0691c0,0 66.87807,20.14913 76.20956,26.09736c9.33149,5.94823 12.33397,17.92734 6.7062,26.75609c-5.62777,8.82875 -17.75465,11.16388 -27.08613,5.21566z" fill="url(#color-3)" stroke="#000000" stroke-width="0" stroke-linecap="butt"/><path d="M191.58334,98.98359c-3.26457,-6.20856 -12.46062,-49.51772 -12.46062,-49.51772c0,0 30.46798,32.12401 33.73255,38.33259c3.26457,6.20857 1.14914,13.74549 -4.72494,16.83418c-5.87409,3.08868 -13.28242,0.55952 -16.547,-5.64904z" fill="url(#color-4)" stroke="#000000" stroke-width="0" stroke-linecap="butt"/><path d="M209.70636,81.51784c1.1877,-11.00215 31.53352,-72.91461 31.53352,-72.91461c0,0 9.669,11.65087 11.33802,28.38422c0.36159,3.62528 5.27116,11.96542 3.29541,16.61076c-2.12441,4.99485 -11.11856,6.27739 -9.85849,9.46608c1.17495,2.97329 6.0721,1.85324 8.43856,2.22989c4.17682,0.6648 6.48161,1.16582 9.47141,2.58438c6.62088,3.14138 7.6384,12.46173 7.21459,16.38765c-1.18772,11.00216 -22.55771,21.95896 -32.96712,20.83523c-10.40941,-1.12373 -29.6536,-12.58145 -28.46589,-23.5836z" fill="url(#color-5)" stroke="#000000" stroke-width="0" stroke-linecap="butt"/><path d="M256.37564,52.66838c0,1.86888 -10.58955,8.89776 -10.454,9.26988c1.81077,2.38951 11.08566,2.48138 16.80547,5.79377c6.82326,3.9514 8.37245,10.96167 8.37245,10.96167c0,0 -11.52572,-5.52395 -16.09208,-4.8168c-3.80115,0.58865 -9.43384,8.76977 -9.43384,8.76977c0,0 -0.12897,-5.75879 -2.15328,-9.45744c-1.68753,-3.08331 -5.20916,-4.06742 -6.23559,-5.33427c-3.03642,-3.74764 6.03462,-13.0136 6.03462,-17.16143c0,-14.18922 3.3291,-33.05722 3.3291,-33.05722c0,0 9.82715,23.6848 9.82715,35.03207z" fill="url(#color-6)" stroke="none" stroke-width="0" stroke-linecap="butt"/><path d="M206.75005,307.50005l15.14285,-131.8421l37.78325,-0.15789l13.57389,132z" fill="url(#color-7)" stroke="#000000" stroke-width="0" stroke-linecap="butt"/><path d="M175.83995,137.17953c0,-33.30185 28.7599,-60.29833 64.23702,-60.29833c35.47712,0 64.23702,26.99649 64.23702,60.29833c0,33.30185 -28.7599,60.29833 -64.23702,60.29833c-35.47712,0 -64.23702,-26.99649 -64.23702,-60.29833z" fill="url(#color-8)" stroke="#000000" stroke-width="0" stroke-linecap="butt"/><path d="M189.39018,137.27568c0,-12.968 10.51265,-23.48065 23.48065,-23.48065c12.968,0 23.48065,10.51265 23.48065,23.48065c0,12.968 -10.51265,23.48065 -23.48065,23.48065c-12.968,0 -23.48065,-10.51265 -23.48065,-23.48065z" fill="#808080" stroke="#000000" stroke-width="0" stroke-linecap="butt"/><path d="M196.45555,137c0,-9.12808 7.39976,-16.52784 16.52783,-16.52784c9.12808,0 16.52784,7.39977 16.52784,16.52784c0,9.12808 -7.39977,16.52784 -16.52784,16.52784c-9.12808,0 -16.52783,-7.39977 -16.52783,-16.52784z" fill="#000000" stroke="none" stroke-width="0" stroke-linecap="butt"/><path d="M227.50704,176.65648h25.10959" fill="none" stroke="#000000" stroke-width="2" stroke-linecap="round"/><path d="M267.12926,160.75627c-12.968,0 -23.48065,-10.51265 -23.48065,-23.48065c0,-12.968 10.51265,-23.48065 23.48065,-23.48065c12.968,0 23.48065,10.51265 23.48065,23.48065c0,12.968 -10.51265,23.48065 -23.48065,23.48065z" data-paper-data="{&quot;index&quot;:null}" fill="#808080" stroke="#000000" stroke-width="0" stroke-linecap="butt"/><path d="M267.01669,153.52785c-9.12807,0 -16.52783,-7.39977 -16.52783,-16.52784c0,-9.12808 7.39977,-16.52784 16.52783,-16.52784c9.12807,0 16.52783,7.39977 16.52783,16.52784c0,9.12808 -7.39977,16.52784 -16.52783,16.52784z" data-paper-data="{&quot;index&quot;:null}" fill="#000000" stroke="none" stroke-width="0" stroke-linecap="butt"/><path d="M202.02785,108.46721c0,0 6.70895,-5.16922 11.79722,-6.36355c5.08827,-1.19433 12.33413,0.69937 12.33413,0.69937c0,0 -8.03812,-0.06028 -11.96762,0.86207c-4.10648,0.96388 -12.16372,4.80211 -12.16372,4.80211z" fill="#000000" stroke="none" stroke-width="0" stroke-linecap="butt"/><path d="M265.96236,103.66511c-3.9295,-0.92235 -11.96762,-0.86207 -11.96762,-0.86207c0,0 7.24586,-1.8937 12.33413,-0.69937c5.08826,1.19433 11.79721,6.36355 11.79721,6.36355c0,0 -8.05724,-3.83822 -12.16372,-4.80211z" data-paper-data="{&quot;index&quot;:null}" fill="#000000" stroke="none" stroke-width="0" stroke-linecap="butt"/><path d="M313.02146,109.57859c-17.3531,3.17751 -11.11465,3.14069 -11.11465,-1.24758c0,-3.16094 7.12037,-5.64423 8.84242,-5.78508c2.24703,-0.18379 -1.05295,3.19114 1.78675,1.94918c4.20747,-1.84016 15.24431,-8.53248 16.7772,-11.04811c3.43108,-5.63077 7.27455,-7.71285 6.19433,-3.87695c-1.28651,4.56847 -10.31681,17.78024 -22.48605,20.00854z" fill="url(#color-9)" stroke="none" stroke-width="0" stroke-linecap="butt"/></g></g></svg>