<svg version="1.1" xmlns="http://www.w3.org/2000/svg" xmlns:xlink="http://www.w3.org/1999/xlink" width="34.67311" height="34.67311" viewBox="0,0,34.67311,34.67311"><defs><linearGradient x1="240.00002" y1="175.44815" x2="240.00002" y2="186.57762" gradientUnits="userSpaceOnUse" id="color-1"><stop offset="0" stop-color="#001a45"/><stop offset="1" stop-color="#003d98"/></linearGradient><linearGradient x1="239.52484" y1="173.42238" x2="239.52484" y2="178.05208" gradientUnits="userSpaceOnUse" id="color-2"><stop offset="0" stop-color="#003d98"/><stop offset="1" stop-color="#001a45"/></linearGradient></defs><g transform="translate(-222.66353,-162.6635)"><g data-paper-data="{&quot;isPaintingLayer&quot;:true}" stroke-miterlimit="10" stroke-dasharray="" stroke-dashoffset="0" style="mix-blend-mode: normal"><path d="M229.98319,162.9135h20.03379c3.9166,0 7.06966,3.15307 7.06966,7.06966v20.03379c0,3.91659 -3.15306,7.06966 -7.06966,7.06966h-20.03379c-3.91659,0 -7.06966,-3.15307 -7.06966,-7.06966v-20.03379c0,-3.91659 3.15307,-7.06966 7.06966,-7.06966z" fill="#000000" fill-rule="evenodd" stroke="#003d98" stroke-width="0.5" stroke-linecap="round" stroke-linejoin="round"/><path d="M228.14357,186.57762c0,-6.14664 5.30831,-11.12947 11.85645,-11.12947c6.54814,0 11.85645,4.98283 11.85645,11.12947" fill="url(#color-1)" fill-rule="nonzero" stroke="#000000" stroke-width="0" stroke-linecap="butt" stroke-linejoin="miter"/><path d="M234.58771,177.36486l4.99139,-3.90631l-0.28936,2.45953l5.17224,-2.4957l-1.04892,4.6297" data-paper-data="{&quot;index&quot;:null}" fill="url(#color-2)" fill-rule="nonzero" stroke="#000000" stroke-width="0" stroke-linecap="round" stroke-linejoin="miter"/></g></g></svg>