<svg version="1.1" xmlns="http://www.w3.org/2000/svg" xmlns:xlink="http://www.w3.org/1999/xlink" width="34.67311" height="34.67311" viewBox="0,0,34.67311,34.67311"><defs><linearGradient x1="240.00002" y1="162.91346" x2="240.00002" y2="197.08658" gradientUnits="userSpaceOnUse" id="color-1"><stop offset="0" stop-color="#000000"/><stop offset="1" stop-color="#3e3e24"/></linearGradient><linearGradient x1="65.14656" y1="161.52549" x2="85.9833" y2="139.33122" gradientUnits="userSpaceOnUse" id="color-2"><stop offset="0" stop-color="#1a0000"/><stop offset="1" stop-color="#800000"/></linearGradient><linearGradient x1="162.31041" y1="168.19221" x2="141.47372" y2="145.9979" gradientUnits="userSpaceOnUse" id="color-3"><stop offset="0" stop-color="#1a0000"/><stop offset="1" stop-color="#800000"/></linearGradient></defs><g transform="translate(-222.66346,-162.66346)"><g data-paper-data="{&quot;isPaintingLayer&quot;:true}" stroke-miterlimit="10" stroke-dasharray="" stroke-dashoffset="0" style="mix-blend-mode: normal"><path d="M229.98313,162.91346h20.03378c3.9166,0 7.06966,3.15307 7.06966,7.06966v20.03379c0,3.91659 -3.15306,7.06966 -7.06966,7.06966h-20.03378c-3.91659,0 -7.06967,-3.15307 -7.06967,-7.06966v-20.03379c0,-3.91659 3.15308,-7.06966 7.06967,-7.06966z" fill="url(#color-1)" fill-rule="evenodd" stroke="#ad8e03" stroke-width="0.5" stroke-linecap="round" stroke-linejoin="round"/><path d="" data-paper-data="{&quot;index&quot;:null}" fill="url(#color-2)" fill-rule="nonzero" stroke="#000000" stroke-width="0" stroke-linecap="butt" stroke-linejoin="miter"/><path d="" data-paper-data="{&quot;index&quot;:null}" fill="url(#color-3)" fill-rule="nonzero" stroke="#000000" stroke-width="0" stroke-linecap="butt" stroke-linejoin="miter"/><path d="M231.33199,172.92749l0.85226,-6.57552l13.16091,1.97687l-4.87755,18.20825l8.20039,0.55192l-0.67389,6.11349l-15.04603,0.44557l5.14428,-18.30827z" data-paper-data="{&quot;index&quot;:null}" fill="#ad8e03" fill-rule="nonzero" stroke="#000000" stroke-width="0" stroke-linecap="butt" stroke-linejoin="miter"/></g></g></svg>