<svg version="1.1" xmlns="http://www.w3.org/2000/svg" xmlns:xlink="http://www.w3.org/1999/xlink" width="41.625" height="41.5" viewBox="0,0,41.625,41.5"><g transform="translate(-219.1875,-159.25)"><g data-paper-data="{&quot;isPaintingLayer&quot;:true}" stroke-miterlimit="10" stroke-dasharray="" stroke-dashoffset="0" style="mix-blend-mode: normal"><path d="M259.09522,180c0,10.54601 -8.54924,19.09522 -19.09522,19.09522c-10.54601,0 -19.09522,-8.54922 -19.09522,-19.09522c0,-10.54601 8.54922,-19.09522 19.09522,-19.09522c10.54601,0 19.09522,8.54922 19.09522,19.09522" fill="#bebebe" fill-rule="evenodd" stroke="#ffffff" stroke-width="0" stroke-linecap="round" stroke-linejoin="round"/><path d="M219.1875,200.75v-41.5h41.625v41.5z" fill="none" fill-rule="nonzero" stroke="none" stroke-width="0" stroke-linecap="butt" stroke-linejoin="miter"/><path d="M241.60171,190.14605c0,0.54965 -0.44558,0.99523 -0.99523,0.99523c-0.54965,0 -0.99523,-0.44558 -0.99523,-0.99523c0,-0.54965 0.44558,-0.99523 0.99523,-0.99523c0.54965,0 0.99523,0.44558 0.99523,0.99523z" fill="#ffffff" fill-rule="nonzero" stroke="#ffffff" stroke-width="3" stroke-linecap="butt" stroke-linejoin="miter"/><path d="M247.81303,169.85872c3.27181,0 4.32305,3.94047 4.32305,8.80128c0,4.86082 -1.15039,8.87776 -4.32305,8.80127c-3.56716,-0.086 -4.32306,-3.94046 -4.32306,-8.80127c0,-4.86082 0.36348,-8.80128 4.32306,-8.80128z" data-paper-data="{&quot;index&quot;:null}" fill="none" fill-rule="nonzero" stroke="#ffffff" stroke-width="3" stroke-linecap="butt" stroke-linejoin="miter"/><path d="M226.49658,175.25909c0,0 1.07352,-5.31885 5.45363,-5.32385c4.30124,-0.00491 4.69284,3.97538 4.18902,7.21878c-6.79445,3.90272 -7.97807,10.28122 -7.97807,10.28122l8.50182,-0.16255" fill="none" fill-rule="nonzero" stroke="#ffffff" stroke-width="3" stroke-linecap="round" stroke-linejoin="miter"/></g></g></svg>