<svg version="1.1" xmlns="http://www.w3.org/2000/svg" xmlns:xlink="http://www.w3.org/1999/xlink" width="34.67311" height="34.67311" viewBox="0,0,34.67311,34.67311"><defs><linearGradient x1="240.00003" y1="166.3437" x2="240.00003" y2="193.65635" gradientUnits="userSpaceOnUse" id="color-1"><stop offset="0" stop-color="#4d4434"/><stop offset="1" stop-color="#7a6c51"/></linearGradient></defs><g transform="translate(-222.6635,-162.6635)"><g data-paper-data="{&quot;isPaintingLayer&quot;:true}" stroke-miterlimit="10" stroke-dasharray="" stroke-dashoffset="0" style="mix-blend-mode: normal"><path d="M229.98316,162.9135h20.03379c3.9166,0 7.06966,3.15307 7.06966,7.06966v20.03379c0,3.91659 -3.15306,7.06966 -7.06966,7.06966h-20.03379c-3.91659,0 -7.06966,-3.15307 -7.06966,-7.06966v-20.03379c0,-3.91659 3.15307,-7.06966 7.06966,-7.06966z" fill="#000000" fill-rule="evenodd" stroke="#a99671" stroke-width="0.5" stroke-linecap="round" stroke-linejoin="round"/><path d="M242.00929,166.64971c4.24198,1.17636 6.77331,5.40238 5.65388,9.43911c-1.11943,4.03673 -13.14314,17.56753 -13.14314,17.56753c0,0 -3.33787,-17.79075 -2.21844,-21.82747c1.11943,-4.03673 5.46572,-6.35552 9.7077,-5.17916z" data-paper-data="{&quot;index&quot;:null}" fill="url(#color-1)" fill-rule="nonzero" stroke="#000000" stroke-width="0" stroke-linecap="butt" stroke-linejoin="miter"/></g></g></svg>