<svg version="1.1" xmlns="http://www.w3.org/2000/svg" xmlns:xlink="http://www.w3.org/1999/xlink" width="164.59035" height="267.22501" viewBox="0,0,164.59035,267.22501"><defs><linearGradient x1="240.00006" y1="175.50003" x2="240.00006" y2="307.50003" gradientUnits="userSpaceOnUse" id="color-1"><stop offset="0" stop-color="#18140c"/><stop offset="1" stop-color="#736039"/></linearGradient><linearGradient x1="240.63756" y1="83.44606" x2="240.63756" y2="204.04272" gradientUnits="userSpaceOnUse" id="color-2"><stop offset="0" stop-color="#18140c"/><stop offset="1" stop-color="#736039"/></linearGradient><linearGradient x1="237.09758" y1="75.17648" x2="237.09758" y2="96.50981" gradientUnits="userSpaceOnUse" id="color-3"><stop offset="0" stop-color="#736039"/><stop offset="1" stop-color="#18140c"/></linearGradient><linearGradient x1="239.95173" y1="54.7002" x2="239.95173" y2="132.03363" gradientUnits="userSpaceOnUse" id="color-4"><stop offset="0" stop-color="#675633"/><stop offset="1" stop-color="#b19358"/></linearGradient><linearGradient x1="178.00897" y1="120.21881" x2="178.00897" y2="168.55215" gradientUnits="userSpaceOnUse" id="color-5"><stop offset="0" stop-color="#675633"/><stop offset="1" stop-color="#b19358"/></linearGradient><linearGradient x1="301.95456" y1="120.21881" x2="301.95456" y2="168.55215" gradientUnits="userSpaceOnUse" id="color-6"><stop offset="0" stop-color="#675633"/><stop offset="1" stop-color="#b19358"/></linearGradient></defs><g transform="translate(-157.86784,-52.95239)"><g data-paper-data="{&quot;isPaintingLayer&quot;:true}" fill-rule="nonzero" stroke-linejoin="miter" stroke-miterlimit="10" stroke-dasharray="" stroke-dashoffset="0" style="mix-blend-mode: normal"><path d="M178.96958,320.1774v-267.22501h123.18203v267.22501z" fill-opacity="0.01" fill="#000000" stroke="none" stroke-width="0" stroke-linecap="butt"/><path d="M206.75006,307.50001l15.14285,-131.8421l37.78325,-0.15789l13.57389,132z" fill="url(#color-1)" stroke="#000000" stroke-width="0" stroke-linecap="butt"/><path d="M176.40054,143.74439c0,-33.30185 28.7599,-60.29833 64.23702,-60.29833c35.47712,0 64.23702,26.99649 64.23702,60.29833c0,33.30185 -28.7599,60.29833 -64.23702,60.29833c-35.47712,0 -64.23702,-26.99649 -64.23702,-60.29833z" fill="url(#color-2)" stroke="#000000" stroke-width="0" stroke-linecap="butt"/><path d="M189.95077,143.84053c0,-12.968 10.51265,-23.48065 23.48065,-23.48065c12.968,0 23.48065,10.51265 23.48065,23.48065c0,12.968 -10.51265,23.48065 -23.48065,23.48065c-12.968,0 -23.48065,-10.51265 -23.48065,-23.48065z" fill="#666666" stroke="#000000" stroke-width="0" stroke-linecap="butt"/><path d="M197.01614,143.56489c0,-9.12808 7.39976,-16.52784 16.52783,-16.52784c9.12808,0 16.52784,7.39977 16.52784,16.52784c0,9.12808 -7.39977,16.52784 -16.52784,16.52784c-9.12808,0 -16.52783,-7.39977 -16.52783,-16.52784z" fill="#000000" stroke="none" stroke-width="0" stroke-linecap="butt"/><path d="M267.68985,167.32117c-12.968,0 -23.48065,-10.51265 -23.48065,-23.48065c0,-12.968 10.51265,-23.48065 23.48065,-23.48065c12.968,0 23.48065,10.51265 23.48065,23.48065c0,12.968 -10.51265,23.48065 -23.48065,23.48065z" data-paper-data="{&quot;index&quot;:null}" fill="#000000" stroke="#000000" stroke-width="0" stroke-linecap="butt"/><path d="M267.57728,160.09273c-9.12807,0 -16.52783,-7.39977 -16.52783,-16.52784c0,-9.12808 7.39977,-16.52784 16.52783,-16.52784c9.12807,0 16.52783,7.39977 16.52783,16.52784c0,9.12808 -7.39977,16.52784 -16.52783,16.52784z" data-paper-data="{&quot;index&quot;:null}" fill="#7a5b00" stroke="none" stroke-width="0" stroke-linecap="butt"/><path d="M202.58844,115.03206c0,0 6.70895,-5.16922 11.79722,-6.36355c5.08827,-1.19433 12.33413,0.69937 12.33413,0.69937c0,0 -8.03812,-0.06028 -11.96762,0.86207c-4.10648,0.96388 -12.16372,4.80211 -12.16372,4.80211z" fill="#000000" stroke="none" stroke-width="0" stroke-linecap="butt"/><path d="M266.52295,110.22996c-3.9295,-0.92235 -11.96762,-0.86207 -11.96762,-0.86207c0,0 7.24586,-1.8937 12.33413,-0.69937c5.08826,1.19433 11.79721,6.36355 11.79721,6.36355c0,0 -8.05724,-3.83822 -12.16372,-4.80211z" data-paper-data="{&quot;index&quot;:null}" fill="#000000" stroke="none" stroke-width="0" stroke-linecap="butt"/><path d="M291.80958,143.0455l4.74338,-5.09362" fill="none" stroke="#000000" stroke-width="2" stroke-linecap="round"/><path d="M189.68582,144.83685l-5.78415,-6.13441" fill="none" stroke="#000000" stroke-width="2" stroke-linecap="round"/><path d="M214.34758,93.34314l23,-18l-1.33333,11.33334l23.83333,-11.5l-4.83333,21.33333" data-paper-data="{&quot;index&quot;:null}" fill="url(#color-3)" stroke="#000000" stroke-width="0" stroke-linecap="round"/><g stroke="#000000" stroke-width="0" stroke-linecap="butt"><path d="M174.33141,128.36696l-7.38022,3c0,0 -0.61983,-76.56595 73.48132,-76.66666c73.73495,-0.10021 72.51868,77.33333 72.51868,77.33333l-8.66374,-4c0,0 0.0045,-64.86172 -63.85494,-66.33334c-61.84366,-1.42516 -66.1011,66.66667 -66.1011,66.66667z" fill="url(#color-4)"/><path d="M157.86784,144.55215c0,-12.51846 9.08054,-22.66667 20.28196,-22.66667c1.01424,0 1.18635,45.33333 0,45.33333c-11.20142,0 -20.28196,-10.14821 -20.28196,-22.66666z" fill="#736039"/><path d="M172.93848,168.55215v-48.33334h10.14098v48.33334z" fill="url(#color-5)"/><path d="M302.17622,167.21881c-1.18635,0 -1.01423,-45.33333 0,-45.33333c11.20142,0 20.28197,10.14821 20.28197,22.66667c0,12.51845 -9.08055,22.66666 -20.28197,22.66666z" data-paper-data="{&quot;index&quot;:null}" fill="#736039"/><path d="M296.88407,168.55215v-48.33334h10.14098v48.33334z" fill="url(#color-6)"/></g><path d="M253.68377,187.777c0,0 -8.47252,1.05855 -12.67775,1.05855c-4.16424,0 -14.63184,-1.51221 -14.63184,-1.51221c0,0 -1.07116,-6.69068 4.23447,-6.8419c9.09917,-0.25935 23.07512,7.29557 23.07512,7.29557z" data-paper-data="{&quot;index&quot;:null}" fill="#828282" stroke="#000000" stroke-width="2" stroke-linecap="round"/></g></g></svg>