<svg version="1.1" xmlns="http://www.w3.org/2000/svg" xmlns:xlink="http://www.w3.org/1999/xlink" width="76.95633" height="237.56193" viewBox="0,0,76.95633,237.56193"><defs><radialGradient cx="208.8943" cy="167.7993" r="35.29831" gradientUnits="userSpaceOnUse" id="color-1"><stop offset="0" stop-color="#1f190a"/><stop offset="1" stop-color="#7b6628"/></radialGradient><radialGradient cx="208.5725" cy="168.50115" r="21.6" gradientUnits="userSpaceOnUse" id="color-2"><stop offset="0" stop-color="#808080"/><stop offset="1" stop-color="#404040"/></radialGradient></defs><g transform="translate(-165.68365,25.74997)"><g data-paper-data="{&quot;isPaintingLayer&quot;:true}" fill-rule="nonzero" stroke-linejoin="miter" stroke-miterlimit="10" stroke-dasharray="" stroke-dashoffset="0" style="mix-blend-mode: normal"><path d="M241.19443,140.15626l-2,-164.65623" fill="none" stroke="#000000" stroke-width="2.5" stroke-linecap="round"/><g stroke-width="0"><path d="M235.63948,145.32421c4.86619,5.65854 7.05702,13.85931 6.71812,21.17181c-0.37356,5.21862 -5.39903,8.89163 -8.65536,12.90079c-3.40394,4.18982 -7.96566,7.29725 -11.12604,11.47446c-2.28495,2.95081 -3.61015,6.36387 -5.05562,9.70847c-1.53431,3.54793 -0.37313,9.71658 -4.05803,10.83334c-4.83523,1.61594 -10.16203,-2.01123 -14.40335,-4.91129c-6.63018,-4.53485 -11.86652,-10.89728 -17.31153,-16.80141c-3.57967,-4.25772 -6.86922,-8.76567 -9.62361,-13.57116c-2.56295,-4.4617 -5.4687,-8.97466 -6.40175,-14.01689c-0.32136,-1.81626 1.41208,-4.08829 3.27703,-4.91579c3.11052,-1.22233 6.84583,0.28406 10.26443,-0.66247c3.72398,-1.03076 7.15636,-2.99601 10.5191,-4.90736c3.84504,-2.16879 7.60282,-5.01337 11.52086,-7.40354c4.70433,-2.86492 8.78791,-8.51276 14.34371,-8.29926c7.33502,0.19756 15.18949,3.81711 19.99209,9.4003z" fill="url(#color-1)" stroke="#000000" stroke-linecap="round"/><path d="M232.17199,143.3565c0,0 8.62642,-7.30734 10.24747,-4.7883c1.66315,2.5845 -6.62723,9.58607 -6.62723,9.58607" fill="#665521" stroke="#000000" stroke-linecap="round"/><g stroke-linecap="butt"><path d="M193.9786,152.577c0,0 16.4865,-1.99171 24.54649,6.80295c8.05997,8.79465 4.6413,25.04532 4.6413,25.04532c0,0 -16.4865,1.99171 -24.54649,-6.80295c-8.05997,-8.79465 -4.6413,-25.04532 -4.6413,-25.04532z" fill="url(#color-2)" stroke="#000000"/><g stroke="none"><path d="M200.8055,160.26904c4.59276,-4.2091 11.72811,-3.89809 15.93719,0.69467c4.2091,4.59276 3.89809,11.72811 -0.69467,15.93719c-4.59276,4.2091 -11.72811,3.89809 -15.93719,-0.69467c-4.2091,-4.59276 -3.89809,-11.72811 0.69467,-15.93719z" fill="#000000"/><path d="M207.966,161.82789c-0.69298,0.6351 -1.40027,0.99117 -1.57975,0.79535c-0.17948,-0.19585 0.23679,-0.86945 0.92978,-1.50455c0.69298,-0.6351 1.40027,-0.99117 1.57975,-0.79535c0.17948,0.19585 -0.23679,0.86945 -0.92978,1.50455z" fill="#808080"/><path d="M210.22836,164.50963c-0.94887,0.86959 -1.91729,1.35715 -2.16304,1.089c-0.24575,-0.26817 0.32422,-1.1905 1.27309,-2.06007c0.94887,-0.86959 1.91729,-1.35715 2.16304,-1.089c0.24575,0.26817 -0.32422,1.1905 -1.27309,2.06007z" fill="#808080"/><path d="M215.8988,170.27067c-0.69298,0.6351 -1.40027,0.99117 -1.57975,0.79535c-0.17948,-0.19585 0.23679,-0.86945 0.92978,-1.50455c0.69298,-0.6351 1.40027,-0.99117 1.57975,-0.79535c0.17948,0.19585 -0.23679,0.86945 -0.92978,1.50455z" fill="#808080"/></g></g></g></g></g></svg>