<svg version="1.1" xmlns="http://www.w3.org/2000/svg" xmlns:xlink="http://www.w3.org/1999/xlink" width="34.88673" height="34.88867" viewBox="0,0,34.88673,34.88867"><g transform="translate(-222.67582,-162.6735)"><g data-paper-data="{&quot;isPaintingLayer&quot;:true}" stroke-miterlimit="10" stroke-dasharray="" stroke-dashoffset="0" style="mix-blend-mode: normal"><path d="M229.98313,162.91346h20.03379c3.9166,0 7.06966,3.15307 7.06966,7.06966v20.03379c0,3.91659 -3.15306,7.06966 -7.06966,7.06966h-20.03379c-3.91659,0 -7.06966,-3.15307 -7.06966,-7.06966v-20.03379c0,-3.91659 3.15307,-7.06966 7.06966,-7.06966z" fill="#0064ff" fill-rule="evenodd" stroke="none" stroke-width="4.43922" stroke-linecap="round" stroke-linejoin="round"/><path d="M228.23776,186.05469c0,-6.14664 5.30831,-11.12947 11.85645,-11.12947c6.54814,0 11.85645,4.98283 11.85645,11.12947" fill="#0064ff" fill-rule="nonzero" stroke="#000000" stroke-width="0.5" stroke-linecap="butt" stroke-linejoin="miter"/><path d="M234.6819,176.84193l4.99139,-3.90631l-0.28936,2.45953l5.17224,-2.4957l-1.04892,4.6297" data-paper-data="{&quot;index&quot;:null}" fill="#0064ff" fill-rule="nonzero" stroke="#000000" stroke-width="0.5" stroke-linecap="round" stroke-linejoin="miter"/><g fill-rule="nonzero" stroke="#000000" stroke-width="0.5" stroke-linejoin="miter"><path d="M243.66175,175.51724c2.11588,0.88166 3.80175,2.18728 4.86405,4.23601c1.09678,2.11522 2.06997,4.54854 2.41692,6.75696c-0.98629,-0.05873 -2.06703,-0.13213 -3.21327,-0.20232c-0.85986,-0.10428 -1.71954,-0.20231 -2.57901,-0.29264c-1.43376,-0.15069 -3.44406,-0.35195 -5.7646,-0.52949c-0.04165,-0.07312 -0.08286,-0.14645 -0.12359,-0.21996c-2.6522,-4.78683 -3.3334,-10.35351 -0.47878,-10.35352h0.00001c0.94395,0 3.38847,-0.01581 4.87826,0.60497z" fill="#ffffff" stroke-linecap="butt"/><path d="M243.1443,175.44988l-5.5942,5.46432" fill="none" stroke-linecap="round"/><path d="M245.96837,177.36906l-6.94747,7.25164" fill="none" stroke-linecap="round"/><path d="M242.82182,185.78146l5.10987,-4.31669" fill="none" stroke-linecap="round"/></g><path d="M257.56255,169.8317v20.49804c0,4.00745 -3.22497,7.23243 -7.23242,7.23243h-20.5c-3.66107,0 -6.66147,-2.69385 -7.1543,-6.21484c0.7952,3.03475 3.54108,5.26367 6.83204,5.26367h20.0332c3.9166,0 7.07032,-3.15372 7.07032,-7.07031v-20.03321c0,-3.2976 -2.23906,-6.0451 -5.28321,-6.83398c3.52994,0.48496 6.23438,3.49081 6.23438,7.15821z" fill-opacity="0.29839" fill="#000000" fill-rule="evenodd" stroke="none" stroke-width="4.54219" stroke-linecap="round" stroke-linejoin="round"/></g></g></svg>