<svg version="1.1" xmlns="http://www.w3.org/2000/svg" xmlns:xlink="http://www.w3.org/1999/xlink" width="34.17311" height="34.17311" viewBox="0,0,34.17311,34.17311"><defs><linearGradient x1="-591.19933" y1="-7.91138" x2="-591.19933" y2="106.42741" gradientUnits="userSpaceOnUse" id="color-1"><stop offset="0" stop-color="#1a1a1a"/><stop offset="1" stop-color="#808080"/></linearGradient></defs><g transform="translate(-222.91344,-162.91345)"><g data-paper-data="{&quot;isPaintingLayer&quot;:true}" stroke-miterlimit="10" stroke-dasharray="" stroke-dashoffset="0" style="mix-blend-mode: normal"><path d="M229.98312,162.91346h20.03378c3.9166,0 7.06966,3.15307 7.06966,7.06966v20.03379c0,3.91659 -3.15306,7.06966 -7.06966,7.06966h-20.03378c-3.91659,0 -7.06967,-3.15307 -7.06967,-7.06966v-20.03379c0,-3.91659 3.15308,-7.06966 7.06967,-7.06966z" fill-opacity="0.09677" fill="#191919" fill-rule="evenodd" stroke="none" stroke-width="4.43922" stroke-linecap="round" stroke-linejoin="round"/><path d="" fill="url(#color-1)" fill-rule="nonzero" stroke="#000000" stroke-width="0" stroke-linecap="butt" stroke-linejoin="miter"/><g fill="#000000" fill-rule="nonzero" stroke="#ffffff" stroke-width="0.5" stroke-linejoin="miter"><path d="M242.88738,179.97793h-6.29076" stroke-linecap="round"/><path d="M253.87262,180.95483c0,2.18216 -9.04981,3.81192 -14.14612,3.81192c-5.09631,0 -13.59913,-1.60981 -13.59913,-3.79197c0,-2.18216 9.15928,-5.74155 14.2556,-5.74155c5.09631,0 13.48965,3.53942 13.48965,5.72159z" stroke-linecap="butt"/><path d="M236.46817,179.36472c0,0.72785 -0.30058,1.31789 -0.67138,1.31789c-0.37079,0 -0.67138,-0.59004 -0.67138,-1.31789c0,-0.72785 0.30058,-1.31789 0.67138,-1.31789c0.37079,0 0.67138,0.59004 0.67138,1.31789z" stroke-linecap="butt"/><path d="M244.96183,179.21494c0,0.72785 -0.30058,1.31789 -0.67138,1.31789c-0.37079,0 -0.67138,-0.59004 -0.67138,-1.31789c0,-0.72785 0.30058,-1.31789 0.67138,-1.31789c0.37079,0 0.67138,0.59004 0.67138,1.31789z" stroke-linecap="butt"/></g></g></g></svg>