<svg version="1.1" xmlns="http://www.w3.org/2000/svg" xmlns:xlink="http://www.w3.org/1999/xlink" width="41.625" height="41.5" viewBox="0,0,41.625,41.5"><g transform="translate(-219.1875,-159.25)"><g data-paper-data="{&quot;isPaintingLayer&quot;:true}" stroke-miterlimit="10" stroke-dasharray="" stroke-dashoffset="0" style="mix-blend-mode: normal"><path d="M259.09522,180c0,10.54601 -8.54924,19.09522 -19.09522,19.09522c-10.54601,0 -19.09522,-8.54922 -19.09522,-19.09522c0,-10.54601 8.54922,-19.09522 19.09522,-19.09522c10.54601,0 19.09522,8.54922 19.09522,19.09522" fill="#ffffff" fill-rule="evenodd" stroke="#ffffff" stroke-width="0" stroke-linecap="round" stroke-linejoin="round"/><path d="M219.1875,200.75v-41.5h41.625v41.5z" fill="none" fill-rule="nonzero" stroke="none" stroke-width="0" stroke-linecap="butt" stroke-linejoin="miter"/><path d="M248.06303,169.85872c3.27181,0 4.32305,3.94047 4.32305,8.80128c0,4.86082 -1.15039,8.87776 -4.32305,8.80127c-3.56716,-0.086 -4.32306,-3.94046 -4.32306,-8.80127c0,-4.86082 0.36348,-8.80128 4.32306,-8.80128z" data-paper-data="{&quot;index&quot;:null}" fill="none" fill-rule="nonzero" stroke="#727272" stroke-width="3" stroke-linecap="butt" stroke-linejoin="miter"/><path d="M241.60171,190.14605c0,0.54965 -0.44558,0.99523 -0.99523,0.99523c-0.54965,0 -0.99523,-0.44558 -0.99523,-0.99523c0,-0.54965 0.44558,-0.99523 0.99523,-0.99523c0.54965,0 0.99523,0.44558 0.99523,0.99523z" fill="#727272" fill-rule="nonzero" stroke="#727272" stroke-width="3" stroke-linecap="butt" stroke-linejoin="miter"/><g fill="none" fill-rule="nonzero" stroke="#727272" stroke-width="3" stroke-linecap="round" stroke-linejoin="miter"><path d="M227.21393,175.30963l5.46903,-3.78062l-0.34113,14.97778"/><path d="M236.26049,186.93942l-8.01418,0.0851"/></g></g></g></svg>