<svg version="1.1" xmlns="http://www.w3.org/2000/svg" xmlns:xlink="http://www.w3.org/1999/xlink" width="34.17311" height="34.17311" viewBox="0,0,34.17311,34.17311"><defs><radialGradient cx="240.00001" cy="180.00001" r="17.08656" gradientUnits="userSpaceOnUse" id="color-1"><stop offset="0" stop-color="#ffc700"/><stop offset="1" stop-color="#ffa400"/></radialGradient><radialGradient cx="234.676" cy="185.84327" r="2.91654" gradientUnits="userSpaceOnUse" id="color-2"><stop offset="0" stop-color="#e88500"/><stop offset="1" stop-color="#e7b500"/></radialGradient></defs><g transform="translate(-222.91344,-162.91344)"><g data-paper-data="{&quot;isPaintingLayer&quot;:true}" stroke-miterlimit="10" stroke-dasharray="" stroke-dashoffset="0" style="mix-blend-mode: normal"><path d="M229.9831,162.91345h20.03379c3.9166,0 7.06966,3.15307 7.06966,7.06966v20.03379c0,3.91659 -3.15306,7.06966 -7.06966,7.06966h-20.03379c-3.91659,0 -7.06966,-3.15307 -7.06966,-7.06966v-20.03379c0,-3.91659 3.15307,-7.06966 7.06966,-7.06966z" fill="url(#color-1)" fill-rule="evenodd" stroke="none" stroke-width="0" stroke-linecap="round" stroke-linejoin="round"/><g fill-rule="nonzero" stroke="#000000" stroke-linecap="butt" stroke-linejoin="miter"><g stroke-width="0.5"><path d="M239.59392,170.68464c-3.17068,0 -5.74104,-0.7349 -5.74104,-1.64144c0,-0.90653 2.60564,-1.13707 5.77632,-1.13707c3.17068,0 5.70575,0.23053 5.70575,1.13707c0,0.90653 -2.57035,1.64144 -5.74103,1.64144z" data-paper-data="{&quot;index&quot;:null}" fill="#a98500"/><g><path d="M239.74618,173.753c-4.95467,0 -8.97122,-1.14838 -8.97122,-2.56498c0,-1.4166 4.07169,-1.77684 9.02636,-1.77684c4.95467,0 8.91608,0.36024 8.91608,1.77684c0,1.4166 -4.01655,2.56498 -8.97122,2.56498z" data-paper-data="{&quot;index&quot;:null}" fill="#886b00"/><path d="M239.94934,176.43646c-5.46875,0 -9.90206,-1.14838 -9.90206,-2.56498c0,-1.4166 4.49417,-1.77685 9.96292,-1.77685c5.46876,0 9.8412,0.36025 9.8412,1.77685c0,1.4166 -4.43331,2.56498 -9.90206,2.56498z" data-paper-data="{&quot;index&quot;:null}" fill="#a98500"/><path d="M240.20159,179.7506c-6.00143,0 -10.86655,-1.391 -10.86655,-3.10688c0,-1.71588 4.93191,-2.15224 10.93334,-2.15224c6.00143,0 10.79976,0.43636 10.79976,2.15224c0,1.71588 -4.86512,3.10689 -10.86655,3.10689z" data-paper-data="{&quot;index&quot;:null}" fill="#886b00"/></g><path d="M245.42696,191.55194c0,0.90653 -2.53507,1.13707 -5.70575,1.13707c-3.17068,0 -5.77632,-0.23054 -5.77632,-1.13707c0,-0.90653 2.57035,-1.64144 5.74103,-1.64144c3.17068,0 5.74104,0.7349 5.74104,1.64144z" fill="#a98500"/><path d="M248.61913,189.17164c0,1.4166 -3.96141,1.77685 -8.91608,1.77685c-4.95467,0 -9.02636,-0.36025 -9.02636,-1.77685c0,-1.4166 4.01655,-2.56498 8.97122,-2.56498c4.95467,0 8.97122,1.14838 8.97122,2.56498z" fill="#886b00"/><path d="M249.75312,186.48818c0,1.4166 -4.37244,1.77684 -9.8412,1.77684c-5.46876,0 -9.96293,-0.36024 -9.96293,-1.77684c0,-1.4166 4.4333,-2.56498 9.90206,-2.56498c5.46876,0 9.90206,1.14838 9.90206,2.56498z" fill="#a98500"/><path d="M250.96986,183.71593c0,1.71588 -4.79833,2.15223 -10.79976,2.15223c-6.00143,0 -10.93334,-0.43635 -10.93334,-2.15223c0,-1.71588 4.86512,-3.10688 10.86655,-3.10688c6.00143,0 10.86655,1.391 10.86655,3.10688z" fill="#886b00"/><path d="M252.33044,180.46554c0,1.71588 -5.29619,2.15223 -11.92033,2.15223c-6.62413,0 -12.06777,-0.43635 -12.06777,-2.15223c0,-1.71588 5.36991,-3.10688 11.99405,-3.10688c6.62413,0 11.99405,1.391 11.99405,3.10688z" fill="#a98500"/></g><g><path d="M237.44025,180.65595c0,1.81994 -1.15395,3.2953 -2.57742,3.2953c-1.42347,0 -2.57742,-1.47536 -2.57742,-3.2953c0,-1.81994 1.15395,-3.2953 2.57742,-3.2953c1.42347,0 2.57742,1.47536 2.57742,3.2953z" fill="#000000" stroke-width="0.5"/><path d="M236.40561,188.72412c0,0.48085 0.1733,-4.05607 -1.31734,-4.05607c-1.49065,0 -2.69906,-0.3898 -2.69906,-0.87066c0,-0.48085 1.20841,-0.87067 2.69906,-0.87067c0.35817,0 1.483,0.58262 1.67452,1.05567c0.60557,1.49571 -0.35718,4.3764 -0.35718,4.74171z" fill="url(#color-2)" stroke-width="0"/></g></g></g></g></svg>