<svg version="1.1" xmlns="http://www.w3.org/2000/svg" xmlns:xlink="http://www.w3.org/1999/xlink" width="123.18203" height="337.3625" viewBox="0,0,123.18203,337.3625"><g transform="translate(-179.28375,23.74997)"><g data-paper-data="{&quot;isPaintingLayer&quot;:true}" fill-rule="nonzero" stroke-linejoin="miter" stroke-miterlimit="10" stroke-dasharray="" stroke-dashoffset="0" style="mix-blend-mode: normal"><g><path d="M229.19789,151.45127c6.85724,-2.94571 15.33758,-2.57687 22.21204,-0.06107c4.86651,1.92109 6.86376,7.81662 9.7121,12.12519c2.97647,4.50356 4.57318,9.78712 7.61062,14.05455c2.12994,3.06456 4.98867,5.35215 7.74598,7.73391c2.92466,2.5275 9.15768,3.26929 9.1182,7.11951c0.09187,5.09729 -4.96559,9.09145 -9.00389,12.26814c-6.31415,4.96546 -13.95388,8.05322 -21.21897,11.47748c-5.13513,2.13838 -10.42199,3.92495 -15.83224,5.11179c-5.02488,1.10728 -10.20145,2.52621 -15.29145,1.90453c-1.82906,-0.23801 -3.47682,-2.57292 -3.70706,-4.60017c-0.23348,-3.33391 2.32358,-6.44571 2.44559,-9.99081c0.13323,-3.86171 -0.71247,-7.72541 -1.52763,-11.5065c-0.91615,-4.3184 -2.50314,-8.75619 -3.60861,-13.21061c-1.32261,-5.34689 -5.48622,-10.93601 -3.61674,-16.17215c2.38773,-6.93831 8.19576,-13.34617 14.96207,-16.25379z" fill="#ffd351" stroke="#000000" stroke-width="2" stroke-linecap="round"/><path d="M250.06271,198.10738c8.40487,-3.7632 16.40656,-6.31199 22.54419,-7.39026c6.13791,-1.07772 10.4117,-0.68499 11.36088,1.4349c0.94913,2.1198 -1.60432,5.56948 -6.49617,9.43017c-4.89206,3.86009 -12.12253,8.13136 -20.52739,11.89456c-8.40487,3.7632 -16.40656,6.31199 -22.54426,7.39031c-6.13784,1.07765 -10.4117,0.68499 -11.36088,-1.4349c-0.94911,-2.11994 1.60432,-5.56948 6.49617,-9.43017c4.89213,-3.86016 12.12261,-8.13141 20.52746,-11.89462z" fill="#eac24d" stroke="#736026" stroke-width="0" stroke-linecap="butt"/><path d="M250.94826,200.02949c0.68174,-0.3052 1.54007,-0.04378 2.37617,0.62559c0.83662,0.66922 1.65108,1.74637 2.24434,3.07142c0.59325,1.32505 0.85431,2.64992 0.79631,3.71974c-0.0575,1.06946 -0.4342,1.88384 -1.11595,2.1892c-0.68174,0.3052 -1.54007,0.04378 -2.37623,-0.62567c-0.83663,-0.66908 -1.65103,-1.74629 -2.24428,-3.07134c-0.59332,-1.32513 -0.85436,-2.65 -0.79631,-3.71974c0.05745,-1.06953 0.43413,-1.88392 1.11595,-2.1892z" fill="#ffd351" stroke="none" stroke-width="0.60142" stroke-linecap="butt"/><path d="M219.22387,167.11135c0.79004,-4.02667 4.93394,-7.30607 8.61464,-9.45819c1.69545,-0.98905 5.0392,-0.11726 5.19406,1.29863c0.46358,1.43723 -2.81485,2.55521 -3.95712,4.40753c-1.76712,2.90253 -3.63014,6.00744 -4.03499,9.38458c-0.47102,3.94578 2.23328,7.83714 1.25327,11.62933c-0.21384,1.36948 -3.4731,1.89897 -4.05944,0.49971c-2.31642,-5.53263 -4.15164,-11.87295 -3.01044,-17.76162z" fill="#fff1c8" stroke="none" stroke-width="0.60142" stroke-linecap="round"/><path d="M226.87456,153.90872c0,0 -4.49341,-10.37409 -1.61261,-11.19543c2.95562,-0.84266 7.25376,9.1212 7.25376,9.1212" fill="#ffd351" stroke="#000000" stroke-width="2" stroke-linecap="round"/></g><path d="M225.19444,144.15626c0,0 2.5,-56.26536 2.5,-83.67189c0,-19.57323 18.5,-82.98434 18.5,-82.98434" fill="none" stroke="#000000" stroke-width="2.5" stroke-linecap="round"/><g fill="#000000"><path d="M246.43179,191.56709c-3.25693,1.0226 -9.24809,-7.81561 -9.24809,-7.81561l12.68423,-3.98259c0,0 -0.17922,10.77558 -3.43615,11.79819z" stroke="#000000" stroke-width="2" stroke-linecap="round"/><path d="M223.08979,177.8232c-1.14825,-3.65709 0.88556,-7.55258 4.54265,-8.70083c3.65709,-1.14825 7.55258,0.88557 8.70083,4.54265c1.14825,3.65709 -0.88556,7.55258 -4.54265,8.70083c-3.65709,1.14825 -7.55258,-0.88557 -8.70083,-4.54265z" stroke="none" stroke-width="0" stroke-linecap="butt"/><path d="M253.43864,175.56884c-3.65708,1.14825 -7.55258,-0.88557 -8.70083,-4.54265c-1.14825,-3.65709 0.88557,-7.55258 4.54265,-8.70083c3.65709,-1.14825 7.55258,0.88557 8.70083,4.54265c1.14825,3.65709 -0.88556,7.55258 -4.54265,8.70083z" data-paper-data="{&quot;index&quot;:null}" stroke="none" stroke-width="0" stroke-linecap="butt"/></g><path d="M179.28375,313.61253v-267.22501h123.18203v267.22501z" fill-opacity="0.01" fill="#000000" stroke="none" stroke-width="0" stroke-linecap="butt"/></g></g></svg>