<svg version="1.1" xmlns="http://www.w3.org/2000/svg" xmlns:xlink="http://www.w3.org/1999/xlink" width="157.23483" height="296.36569" viewBox="0,0,157.23483,296.36569"><defs><linearGradient x1="292.47852" y1="154.06414" x2="321.04667" y2="154.06414" gradientUnits="userSpaceOnUse" id="color-1"><stop offset="0" stop-color="#000000"/><stop offset="1" stop-color="#240033"/></linearGradient><linearGradient x1="163.81184" y1="154.06413" x2="192.38001" y2="154.06413" gradientUnits="userSpaceOnUse" id="color-2"><stop offset="0" stop-color="#240033"/><stop offset="1" stop-color="#000000"/></linearGradient><linearGradient x1="240.00004" y1="175.50001" x2="240.00004" y2="307.50001" gradientUnits="userSpaceOnUse" id="color-3"><stop offset="0" stop-color="#000000"/><stop offset="1" stop-color="#470066"/></linearGradient><linearGradient x1="242.55885" y1="100.44877" x2="242.55885" y2="221.04543" gradientUnits="userSpaceOnUse" id="color-4"><stop offset="0" stop-color="#12001a"/><stop offset="1" stop-color="#590080"/></linearGradient><linearGradient x1="215.83364" y1="46.14777" x2="215.83364" y2="119.33622" gradientUnits="userSpaceOnUse" id="color-5"><stop offset="0" stop-color="#240033"/><stop offset="1" stop-color="#09000d"/></linearGradient><linearGradient x1="269.50029" y1="46.14778" x2="269.50029" y2="119.33624" gradientUnits="userSpaceOnUse" id="color-6"><stop offset="0" stop-color="#240033"/><stop offset="1" stop-color="#09000d"/></linearGradient></defs><g transform="translate(-163.81184,-46.14777)"><g data-paper-data="{&quot;isPaintingLayer&quot;:true}" fill-rule="nonzero" stroke-width="0" stroke-linecap="butt" stroke-linejoin="miter" stroke-miterlimit="10" stroke-dasharray="" stroke-dashoffset="0" style="mix-blend-mode: normal"><path d="M181.76561,342.51346v-267.22501h123.18203v267.22501z" fill-opacity="0.01" fill="#000000" stroke="none"/><path d="M306.84026,182.85713c-4.14017,-1.52046 -12.93069,-0.62633 -12.93069,-0.62633l-1.43105,-39l22.18129,-26.33333c0,0 3.95267,3.19116 5.89355,33.33501c1.85954,28.88061 -2.13703,40.99833 -2.13703,40.99833c0,0 -7.55053,-6.89531 -11.57606,-8.37367z" data-paper-data="{&quot;index&quot;:null}" fill="url(#color-1)" stroke="#000000"/><path d="M166.4422,191.2308c0,0 -3.99658,-12.11771 -2.13703,-40.99833c1.94088,-30.14385 5.89354,-33.33501 5.89354,-33.33501l22.18129,26.33333l-1.43105,39c0,0 -8.79053,-0.89413 -12.9307,0.62633c-4.02553,1.47836 -11.57605,8.37367 -11.57605,8.37367z" fill="url(#color-2)" stroke="#000000"/><path d="M206.75005,307.5l15.14285,-131.8421l37.78325,-0.15789l13.57389,132z" fill="url(#color-3)" stroke="#000000"/><path d="M178.32183,160.7471c0,-33.30185 28.7599,-60.29833 64.23702,-60.29833c35.47712,0 64.23702,26.99649 64.23702,60.29833c0,19.79675 -10.16338,37.36527 -25.85952,48.35884c-10.70771,7.49967 -23.52995,44.74324 -37.9172,44.74324c-13.38075,0 -26.26624,-36.6441 -36.55323,-43.21466c-16.98747,-10.85034 -28.14409,-29.14587 -28.14409,-49.88741z" fill="url(#color-4)" stroke="#000000"/><path d="M191.87204,160.84324c0,-12.968 10.51265,-23.48065 23.48065,-23.48065c12.968,0 23.48065,10.51265 23.48065,23.48065c0,12.968 -10.51265,23.48065 -23.48065,23.48065c-12.968,0 -23.48065,-10.51265 -23.48065,-23.48065z" fill="#808080" stroke="#000000"/><path d="M196.60409,160.90094c0,-10.41675 8.44443,-18.86117 18.86116,-18.86117c10.41675,0 18.86117,8.44444 18.86117,18.86117c0,10.41675 -8.44444,18.86117 -18.86117,18.86117c-10.41675,0 -18.86116,-8.44444 -18.86116,-18.86117z" fill="#000000" stroke="none"/><path d="M269.61113,184.65721c-12.968,0 -23.48065,-10.51265 -23.48065,-23.48065c0,-12.968 10.51265,-23.48065 23.48065,-23.48065c12.968,0 23.48065,10.51265 23.48065,23.48065c0,12.968 -10.51265,23.48065 -23.48065,23.48065z" data-paper-data="{&quot;index&quot;:null}" fill="#808080" stroke="#000000"/><path d="M269.49856,180.42878c-10.78492,0 -19.52783,-8.74292 -19.52783,-19.52784c0,-10.78494 8.74292,-19.52784 19.52783,-19.52784c10.78492,0 19.52783,8.74292 19.52783,19.52784c0,10.78494 -8.74292,19.52784 -19.52783,19.52784z" data-paper-data="{&quot;index&quot;:null}" fill="#000000" stroke="none"/><path d="M205.76021,110.64753c-0.90917,-5.63406 0.05873,-64.49976 0.05873,-64.49976c0,0 19.43483,55.57334 20.344,61.20739c0.90917,5.63406 -2.92113,10.93838 -8.55518,11.84754c-5.63405,0.90917 -10.93838,-2.92112 -11.84754,-8.55518z" fill="url(#color-5)" stroke="#000000"/><path d="M267.72618,119.20271c-5.63405,-0.90917 -9.46435,-6.21349 -8.55518,-11.84754c0.90916,-5.63406 20.344,-61.20739 20.344,-61.20739c0,0 0.96789,58.8657 0.05873,64.49976c-0.90916,5.63406 -6.21349,9.46434 -11.84755,8.55518z" data-paper-data="{&quot;index&quot;:null}" fill="url(#color-6)" stroke="#000000"/><path d="M244.1984,251.2543c-14.41405,0 -38.24715,-53.47407 -38.24715,-53.47407c0,0 17.29499,-10.25685 36.52485,-10.45283c16.84458,-0.17167 37.31459,10.6165 37.31459,10.6165c0,0 -21.17824,53.31041 -35.59229,53.31041z" fill="#000000" stroke="none"/><g fill="#191919" stroke="none"><g><path d="M264.9657,200.55728c0,0 -0.47208,-5.51218 1.78967,-5.51218c2.26174,0 1.64649,5.51218 1.64649,5.51218z"/><path d="M262.43109,201.09506c0,0 -0.56418,-6.58773 2.13888,-6.58773c2.70306,0 1.96776,6.58773 1.96776,6.58773z"/><path d="M258.95042,201.49838c0,0 -0.63327,-7.39439 2.40078,-7.39439c3.03404,0 2.20871,7.39439 2.20871,7.39439z"/><path d="M254.09045,202.1706c0,0 -0.74841,-8.73881 2.83727,-8.73881c3.58568,0 2.61029,8.73881 2.61029,8.73881z"/><path d="M242.69248,203.1117c0,0 -0.88658,-10.35214 3.36109,-10.35214c4.24767,0 3.0922,10.35214 3.0922,10.35214z"/><path d="M248.59808,202.70837c0,0 -0.84052,-9.81437 3.18648,-9.81437c4.02701,0 2.93157,9.81437 2.93157,9.81437z"/></g><g data-paper-data="{&quot;index&quot;:null}"><path d="M217.28217,200.42283c0,0 -0.61526,-5.51218 1.64648,-5.51218c2.26175,0 1.78967,5.51218 1.78967,5.51218z"/><path d="M219.1463,200.96061c0,0 -0.7353,-6.58773 1.96776,-6.58773c2.70307,0 2.13888,6.58773 2.13888,6.58773z"/><path d="M222.12412,201.36394c0,0 -0.82533,-7.39439 2.20872,-7.39439c3.03404,0 2.40077,7.39439 2.40077,7.39439z"/><path d="M226.14601,202.03616c0,0 -0.97539,-8.73881 2.61029,-8.73881c3.58568,0 2.83728,8.73881 2.83728,8.73881z"/><path d="M236.53826,202.97726c0,0 -1.15547,-10.35214 3.0922,-10.35214c4.24767,0 3.36109,10.35214 3.36109,10.35214z"/><path d="M230.96789,202.57393c0,0 -1.09544,-9.81437 2.93156,-9.81437c4.02701,0 3.18649,9.81437 3.18649,9.81437z"/></g></g><g fill="#191919" stroke="none"><g><path d="M265.88386,204.33495c0,0 0.5523,4.94821 -1.47803,4.94821c-2.03035,0 -1.60655,-4.94821 -1.60655,-4.94821z"/><path d="M264.21046,205.02891c0,0 0.66007,5.91373 -1.76644,5.91373c-2.42649,0 -1.92005,-5.91372 -1.92005,-5.91372z"/><path d="M261.53731,205.48149c0,0 0.74088,6.63786 -1.98273,6.63786c-2.72363,0 -2.15515,-6.63786 -2.15515,-6.63786z"/><path d="M257.9269,205.69269c0,0 0.8756,7.84473 -2.34322,7.84473c-3.21883,0 -2.547,-7.84473 -2.547,-7.84473z"/><path d="M248.59791,206.47716c0,0 1.03725,9.29299 -2.77582,9.29299c-3.81307,0 -3.0172,-9.29299 -3.0172,-9.29299z"/><path d="M253.59835,206.1151c0,0 0.98337,8.81023 -2.63163,8.81023c-3.61499,0 -2.86046,-8.81023 -2.86046,-8.81023z"/></g><g data-paper-data="{&quot;index&quot;:null}"><path d="M222.89919,204.33495c0,0 0.42378,4.94821 -1.60655,4.94821c-2.03035,0 -1.47803,-4.94821 -1.47803,-4.94821z"/><path d="M225.17447,205.02891c0,0 0.50645,5.91373 -1.92004,5.91373c-2.42649,0 -1.76644,-5.91372 -1.76644,-5.91372z"/><path d="M228.29902,205.48149c0,0 0.56847,6.63786 -2.15515,6.63786c-2.72361,0 -1.98273,-6.63786 -1.98273,-6.63786z"/><path d="M232.66178,205.69269c0,0 0.67183,7.84473 -2.54699,7.84473c-3.21883,0 -2.34323,-7.84473 -2.34323,-7.84473z"/><path d="M242.89359,206.47716c0,0 0.79588,9.29299 -3.0172,9.29299c-3.81307,0 -2.77582,-9.29299 -2.77582,-9.29299z"/><path d="M237.59221,206.1151c0,0 0.75453,8.81023 -2.86046,8.81023c-3.61499,0 -2.63163,-8.81023 -2.63163,-8.81023z"/></g></g></g></g></svg>