<svg version="1.1" xmlns="http://www.w3.org/2000/svg" xmlns:xlink="http://www.w3.org/1999/xlink" width="228.26312" height="270.26721" viewBox="0,0,228.26312,270.26721"><g transform="translate(-128.05509,-43.34529)"><g data-paper-data="{&quot;isPaintingLayer&quot;:true}" fill-rule="nonzero" stroke-linecap="butt" stroke-linejoin="miter" stroke-miterlimit="10" stroke-dasharray="" stroke-dashoffset="0" style="mix-blend-mode: normal"><g data-paper-data="{&quot;index&quot;:null}" stroke="#000000" stroke-width="2"><path d="M256.94731,153.30014l52.97758,-73.3732l6.48603,4.6831l-52.97758,73.3732z" fill="#ead989"/><path d="M336.02329,66.68984l-14.35462,31.80292l-20.6262,-18.36642l6.26077,-9.38883l12.17876,8.8928l14.61167,-31.34783l20.8323,12.73834l-6.55476,10.24866z" fill="#ffd204"/></g><g stroke="#000000" stroke-width="2"><path d="M220.93994,154.48325l-52.97758,-73.3732l6.48603,-4.6831l52.97758,73.3732z" fill="#ead989"/><path d="M136.00208,67.76945l-6.55477,-10.24866l20.8323,-12.73834l14.61166,31.34783l12.17877,-8.8928l6.26077,9.38882l-20.6262,18.36643l-14.35462,-31.80292z" fill="#ffd204"/></g><path d="M178.40899,313.61251v-267.22501h123.18203v267.22501z" fill-opacity="0.01" fill="#000000" stroke="none" stroke-width="0"/><path d="M206.75006,307.50002l15.14285,-131.8421l37.78325,-0.15789l13.57389,132z" fill="#d6d37d" stroke="#000000" stroke-width="2"/><path d="M219.70029,204.11265l3.12142,-26.32765l35.83075,-0.14203l2.76735,26.1059c0,0 -7.51543,4.19603 -21.55904,4.50964c-12.48458,0.27879 -20.16049,-4.14586 -20.16049,-4.14586z" fill="#c6c373" stroke="#000000" stroke-width="0"/><path d="M176.83997,140.67951c0,-33.30185 28.7599,-60.29833 64.23702,-60.29833c35.47712,0 64.23702,26.99649 64.23702,60.29833c0,33.30185 -28.7599,60.29833 -64.23702,60.29833c-35.47712,0 -64.23702,-26.99649 -64.23702,-60.29833z" fill="#d6d37d" stroke="#000000" stroke-width="2"/><path d="M177.56304,140.40002c0,-0.72799 5.20666,55.91939 63.36046,56.93429c55.56352,0.9697 63.51358,-57.95314 63.51358,-56.93429c0,32.80479 -28.40173,59.39833 -63.43702,59.39833c-35.03529,0 -63.43702,-26.59354 -63.43702,-59.39833z" fill="#c6c373" stroke="#000000" stroke-width="0"/><path d="M190.39018,140.77565c0,-12.968 10.51265,-23.48065 23.48065,-23.48065c12.968,0 23.48065,10.51265 23.48065,23.48065c0,12.968 -10.51265,23.48065 -23.48065,23.48065c-12.968,0 -23.48065,-10.51265 -23.48065,-23.48065z" fill="#ffffff" stroke="#000000" stroke-width="2"/><path d="M197.45557,140.5c0,-9.12808 7.39976,-16.52784 16.52783,-16.52784c9.12808,0 16.52784,7.39977 16.52784,16.52784c0,9.12808 -7.39977,16.52784 -16.52784,16.52784c-9.12808,0 -16.52783,-7.39977 -16.52783,-16.52784z" fill="#000000" stroke="none" stroke-width="0"/><path d="M268.12926,164.25627c-12.968,0 -23.48065,-10.51265 -23.48065,-23.48065c0,-12.968 10.51265,-23.48065 23.48065,-23.48065c12.968,0 23.48065,10.51265 23.48065,23.48065c0,12.968 -10.51265,23.48065 -23.48065,23.48065z" data-paper-data="{&quot;index&quot;:null}" fill="#ffffff" stroke="#000000" stroke-width="2"/><path d="M268.01671,157.02785c-9.12807,0 -16.52783,-7.39977 -16.52783,-16.52784c0,-9.12808 7.39977,-16.52784 16.52783,-16.52784c9.12807,0 16.52783,7.39977 16.52783,16.52784c0,9.12808 -7.39977,16.52784 -16.52783,16.52784z" data-paper-data="{&quot;index&quot;:null}" fill="#000000" stroke="none" stroke-width="0"/><path d="M190.39018,140.77565c0,-12.968 10.51265,-23.48065 23.48065,-23.48065c12.968,0 23.48065,10.51265 23.48065,23.48065c0,0 -46.96131,1.23155 -46.96131,0z" fill="#d6d37d" stroke="#000000" stroke-width="2"/><path d="M244.64864,140.77565c0,-12.968 10.51265,-23.48065 23.48065,-23.48065c12.968,0 23.48065,10.51265 23.48065,23.48065c0,1.2138 -46.96131,0 -46.96131,0z" data-paper-data="{&quot;index&quot;:null}" fill="#d6d37d" stroke="#000000" stroke-width="2"/><path d="M203.02785,111.96718c0,0 6.70895,-5.16922 11.79722,-6.36355c5.08827,-1.19433 12.33413,0.69937 12.33413,0.69937c0,0 -8.03812,-0.06028 -11.96762,0.86207c-4.10648,0.96388 -12.16372,4.80211 -12.16372,4.80211z" fill="#000000" stroke="none" stroke-width="0"/><path d="M266.96236,107.16508c-3.9295,-0.92235 -11.96762,-0.86207 -11.96762,-0.86207c0,0 7.24586,-1.8937 12.33413,-0.69937c5.08826,1.19433 11.79721,6.36355 11.79721,6.36355c0,0 -8.05724,-3.83822 -12.16372,-4.80211z" data-paper-data="{&quot;index&quot;:null}" fill="#000000" stroke="none" stroke-width="0"/><path d="M279.6624,242.51862l-9.69261,21.47413l-13.92733,-12.40147l4.22743,-6.33957l8.22341,6.00464l9.86617,-21.16685l14.0665,8.60125l-4.42594,6.92015z" fill="#ffd204" stroke="#000000" stroke-width="2"/><path d="M200.43983,214.04909l1.05586,-8.14633l16.30489,2.44912l-6.04273,22.55797l10.15936,0.68377l-0.83488,7.57392l-18.64034,0.55201l6.37318,-22.68188z" data-paper-data="{&quot;index&quot;:null}" fill="#ffd204" stroke="#000000" stroke-width="2"/><path d="M226.95091,171.46572h27.09818c0,0 -2.42878,22.06857 -13.12831,22.06857c-10.69953,0 -13.96987,-22.06857 -13.96987,-22.06857z" fill="#000000" stroke="none" stroke-width="0"/></g></g></svg>