<svg version="1.1" xmlns="http://www.w3.org/2000/svg" xmlns:xlink="http://www.w3.org/1999/xlink" width="133.09937" height="334.36252" viewBox="0,0,133.09937,334.36252"><g transform="translate(-169.36641,20.74999)"><g data-paper-data="{&quot;isPaintingLayer&quot;:true}" fill-rule="nonzero" stroke-linejoin="miter" stroke-miterlimit="10" stroke-dasharray="" stroke-dashoffset="0" style="mix-blend-mode: normal"><g><path d="M237.107,145.8243c5.63588,4.89242 8.99362,12.68843 9.71956,19.9727c0.38773,5.21758 -4.05147,9.58104 -6.69149,14.02031c-2.75984,4.63947 -6.82231,8.37602 -9.34301,12.96765c-1.83252,3.25116 -2.64837,6.82044 -3.59314,10.33939c-1.00318,3.73303 1.04095,9.66787 -2.44288,11.30758c-4.54953,2.30057 -10.34632,-0.51518 -14.96362,-2.76899c-7.21811,-3.52463 -13.32236,-9.05979 -19.56657,-14.11121c-4.15968,-3.69314 -8.06861,-7.67598 -11.49125,-12.03086c-3.18333,-4.04252 -6.71326,-8.08601 -8.36819,-12.93944c-0.58154,-1.75041 0.80382,-4.24995 2.52894,-5.33932c2.9002,-1.66082 6.81459,-0.71246 10.05961,-2.1451c3.53497,-1.5603 6.6458,-4.00286 9.69554,-6.38199c3.48958,-2.70384 6.79477,-6.06364 10.32444,-8.99712c4.23876,-3.51731 7.45948,-9.698 12.98742,-10.29303c7.28603,-0.86903 15.58264,1.57231 21.14465,6.39943z" fill="#ffd351" stroke="#000000" stroke-width="2" stroke-linecap="round"/><path d="M204.17717,184.91087c7.04531,5.93018 12.82177,12.02575 16.46313,17.08279c3.64099,5.05753 5.14693,9.07644 3.65123,10.85344c-1.49566,1.77691 -5.71269,0.97881 -11.31725,-1.7459c-5.60411,-2.72516 -12.59588,-7.37688 -19.64119,-13.30706c-7.04531,-5.93018 -12.82177,-12.02575 -16.46321,-17.08283c-3.6409,-5.05749 -5.14693,-9.07644 -3.65123,-10.85344c1.49579,-1.77696 5.71269,-0.97881 11.31725,1.7459c5.6042,2.7252 12.59597,7.37693 19.64127,13.3071z" fill="#eac24d" stroke="#736026" stroke-width="0" stroke-linecap="butt"/><path d="M202.83185,186.54453c0.57143,0.48103 0.70951,1.36759 0.47062,2.41165c-0.23854,1.04446 -0.854,2.24646 -1.78892,3.35715c-0.93492,1.11069 -2.01422,1.9222 -3.0027,2.33546c-0.98794,0.41355 -1.88509,0.42873 -2.45666,-0.05225c-0.57143,-0.48103 -0.70951,-1.36759 -0.47057,-2.41174c0.23841,-1.04441 0.85395,-2.24637 1.78887,-3.35706c0.93496,-1.11078 2.01427,-1.92228 3.0027,-2.33546c0.98798,-0.41364 1.88513,-0.42882 2.45666,0.05225z" fill="#ffd351" stroke="none" stroke-width="0.60142" stroke-linecap="butt"/><path d="M218.66723,143.65767c3.96928,-1.04069 8.72502,1.26351 12.26424,3.64114c1.62822,1.09621 2.29816,4.48617 1.0907,5.24167c-1.09234,1.04274 -3.52541,-1.42265 -5.69022,-1.64517c-3.38226,-0.32817 -6.98847,-0.65464 -10.20533,0.45026c-3.75765,1.29273 -6.08469,5.42078 -9.92551,6.18841c-1.32609,0.40332 -3.22096,-2.30086 -2.21621,-3.43761c3.97358,-4.49293 8.88376,-8.90403 14.68234,-10.43871z" fill="#fff1c8" stroke="none" stroke-width="0.60142" stroke-linecap="round"/><path d="M233.88346,144.80167c0,0 7.38552,-8.55959 9.37848,-6.32315c2.04472,2.29453 -5.05639,10.49982 -5.05639,10.49982" fill="#ffd351" stroke="#000000" stroke-width="2" stroke-linecap="round"/></g><path d="M222.19444,-19.49999c0,0 35,40.41111 35,59.98434c0,27.40653 -16,99.67189 -16,99.67189" fill="none" stroke="#000000" stroke-width="2.5" stroke-linecap="round"/><g fill="#000000"><path d="M219.78518,188.13228c-3.31894,0.79871 -8.69508,-8.42653 -8.69508,-8.42653l12.92574,-3.11063c0,0 -0.91172,10.73844 -4.23066,11.53715z" stroke="#000000" stroke-width="2" stroke-linecap="round"/><path d="M197.43204,172.83259c-0.89685,-3.72672 1.39721,-7.47486 5.12393,-8.37171c3.72672,-0.89685 7.47486,1.39722 8.37171,5.12393c0.89685,3.72672 -1.39721,7.47486 -5.12393,8.37171c-3.72672,0.89685 -7.47486,-1.39722 -8.37171,-5.12393z" stroke="none" stroke-width="0" stroke-linecap="butt"/><path d="M227.86394,172.64766c-3.72671,0.89685 -7.47486,-1.39722 -8.37171,-5.12393c-0.89685,-3.72672 1.39722,-7.47486 5.12393,-8.37171c3.72672,-0.89685 7.47486,1.39722 8.37171,5.12393c0.89685,3.72672 -1.39721,7.47486 -5.12393,8.37171z" data-paper-data="{&quot;index&quot;:null}" stroke="none" stroke-width="0" stroke-linecap="butt"/></g><path d="M179.28375,313.61253v-267.22501h123.18203v267.22501z" fill-opacity="0.01" fill="#000000" stroke="none" stroke-width="0" stroke-linecap="butt"/></g></g></svg>