<svg version="1.1" xmlns="http://www.w3.org/2000/svg" xmlns:xlink="http://www.w3.org/1999/xlink" width="483.53084" height="367.72442" viewBox="0,0,483.53084,367.72442"><defs><radialGradient cx="240" cy="180" r="238.97286" gradientUnits="userSpaceOnUse" id="color-1"><stop offset="0" stop-color="#00c1ff"/><stop offset="1" stop-color="#0bff00"/></radialGradient><radialGradient cx="240" cy="180" r="238.97286" gradientUnits="userSpaceOnUse" id="color-2"><stop offset="0" stop-color="#c39600" stop-opacity="0"/><stop offset="1" stop-color="#c39600"/></radialGradient></defs><g transform="translate(1.56881,3.86221)"><g data-paper-data="{&quot;isPaintingLayer&quot;:true}" stroke-miterlimit="10" stroke-dasharray="" stroke-dashoffset="0" style="mix-blend-mode: normal"><path d="M1.02714,361.36221v-362.72442h477.94572v362.72442z" fill="url(#color-1)" fill-rule="nonzero" stroke="#8b5304" stroke-width="5" stroke-linecap="butt" stroke-linejoin="miter"/><path d="M1.02714,361.36221v-362.72442h477.94572v362.72442z" fill="url(#color-2)" fill-rule="nonzero" stroke="#8b5304" stroke-width="5" stroke-linecap="butt" stroke-linejoin="miter"/><path d="M0.93119,56.08069v-54.63017h478.53084v54.63017z" fill="#a26100" fill-rule="nonzero" stroke="#8b5304" stroke-width="5" stroke-linecap="butt" stroke-linejoin="miter"/><path d="M201.36095,352.38196c-0.00002,0.02694 -0.02188,0.04879 -0.04884,0.04879c-0.02694,0 -0.04881,-0.02184 -0.04884,-0.04879c0.00002,-0.02694 0.02188,-0.04879 0.04884,-0.04879c0.02694,0 0.04881,0.02184 0.04884,0.04879z" fill="#ffffff" fill-rule="nonzero" stroke="#000000" stroke-width="0.27531" stroke-linecap="butt" stroke-linejoin="miter"/><path d="" fill="#808080" fill-rule="evenodd" stroke="none" stroke-width="0.82588" stroke-linecap="round" stroke-linejoin="round"/><path d="M44.86315,138.76331c0,0 0.10036,-2.7506 0.70504,-3.60765c0.76671,-1.08672 2.9992,-2.49179 2.9992,-2.49179l5.90546,0.04414c0,0 -2.85294,2.44692 -3.73302,3.50796c-0.8119,0.97885 -1.23838,3.23937 -1.23838,3.23937c0,0 -1.63761,0.44115 -2.34454,0.00928c-0.4667,-0.28511 0.04148,-1.49902 -0.33518,-1.51675c-0.45152,-0.02124 0.32217,1.34796 -0.28356,1.667c-0.39062,0.20574 -1.67502,-0.85157 -1.67502,-0.85157z" fill="#16c300" fill-rule="nonzero" stroke="#000000" stroke-width="0" stroke-linecap="butt" stroke-linejoin="miter"/><path d="M47.21983,132.52827h13.94932" fill="none" fill-rule="nonzero" stroke="#000000" stroke-width="0" stroke-linecap="round" stroke-linejoin="miter"/><path d="M192.04906,290.17264v-229.78515h105.92347v229.78515z" fill-opacity="0.01" fill="#000000" fill-rule="nonzero" stroke="none" stroke-width="0" stroke-linecap="butt" stroke-linejoin="miter"/><path d="M216.4194,284.91654l13.02124,-113.37021l32.48959,-0.13577l11.6721,113.50599z" fill="#fff000" fill-rule="nonzero" stroke="#000000" stroke-width="2" stroke-linecap="butt" stroke-linejoin="miter"/><path d="M227.55523,196.01438l2.68409,-22.63898l30.81064,-0.12213l2.37963,22.4483c0,0 -6.46247,3.60814 -18.53849,3.87781c-10.73541,0.23973 -17.33588,-3.565 -17.33588,-3.565z" fill="#ffcb00" fill-rule="nonzero" stroke="#000000" stroke-width="0" stroke-linecap="butt" stroke-linejoin="miter"/><path d="M189.84001,138.45898c0,-28.63606 24.73046,-51.85016 55.23702,-51.85016c30.50656,0 55.23702,23.21412 55.23702,51.85016c0,28.63606 -24.73046,51.85016 -55.23702,51.85016c-30.50656,0 -55.23702,-23.21412 -55.23702,-51.85016z" fill="#fff000" fill-rule="nonzero" stroke="#000000" stroke-width="2" stroke-linecap="butt" stroke-linejoin="miter"/><path d="M190.46177,138.21865c0,-0.62599 4.47718,48.08474 54.48327,48.95745c47.77873,0.83384 54.61494,-49.83355 54.61494,-48.95745c0,28.20864 -24.42247,51.07626 -54.5491,51.07626c-30.12663,0 -54.5491,-22.86762 -54.5491,-51.07626z" fill="#ffcb00" fill-rule="nonzero" stroke="#000000" stroke-width="0" stroke-linecap="butt" stroke-linejoin="miter"/><path d="M201.49175,138.54165c0,-11.1511 9.03976,-20.19087 20.19087,-20.19087c11.1511,0 20.19087,9.03976 20.19087,20.19087c0,11.1511 -9.03976,20.19087 -20.19087,20.19087c-11.1511,0 -20.19087,-9.03976 -20.19087,-20.19087z" fill="#ffffff" fill-rule="nonzero" stroke="#000000" stroke-width="2" stroke-linecap="butt" stroke-linejoin="miter"/><path d="M207.56723,138.30464c0,-7.84918 6.36301,-14.21219 14.21218,-14.21219c7.84918,0 14.21219,6.36302 14.21219,14.21219c0,7.84918 -6.36302,14.21219 -14.21219,14.21219c-7.84918,0 -14.21218,-6.36302 -14.21218,-14.21219z" fill="#000000" fill-rule="nonzero" stroke="none" stroke-width="0" stroke-linecap="butt" stroke-linejoin="miter"/><path d="M268.33911,158.73251c-11.1511,0 -20.19087,-9.03976 -20.19087,-20.19087c0,-11.1511 9.03976,-20.19087 20.19087,-20.19087c11.1511,0 20.19087,9.03976 20.19087,20.19087c0,11.1511 -9.03976,20.19087 -20.19087,20.19087z" data-paper-data="{&quot;index&quot;:null}" fill="#ffffff" fill-rule="nonzero" stroke="#000000" stroke-width="2" stroke-linecap="butt" stroke-linejoin="miter"/><path d="M268.60328,153.10239c-7.84917,0 -14.21218,-6.36302 -14.21218,-14.21219c0,-7.84918 6.36302,-14.21219 14.21218,-14.21219c7.84917,0 14.21218,6.36302 14.21218,14.21219c0,7.84918 -6.36302,14.21219 -14.21218,14.21219z" data-paper-data="{&quot;index&quot;:null}" fill="#000000" fill-rule="nonzero" stroke="none" stroke-width="0" stroke-linecap="butt" stroke-linejoin="miter"/><path d="M201.49175,138.54165c0,-11.1511 9.03976,-20.19087 20.19087,-20.19087c11.1511,0 20.19087,9.03976 20.19087,20.19087c0,0 -40.38174,1.059 -40.38174,0z" fill="#fff000" fill-rule="nonzero" stroke="#000000" stroke-width="2" stroke-linecap="butt" stroke-linejoin="miter"/><path d="M248.14826,138.54165c0,-11.1511 9.03976,-20.19087 20.19087,-20.19087c11.1511,0 20.19087,9.03976 20.19087,20.19087c0,1.04374 -40.38174,0 -40.38174,0z" data-paper-data="{&quot;index&quot;:null}" fill="#fff000" fill-rule="nonzero" stroke="#000000" stroke-width="2" stroke-linecap="butt" stroke-linejoin="miter"/><path d="M212.3588,113.76942c0,0 5.76899,-4.44498 10.14436,-5.47198c4.37537,-1.027 10.60604,0.60138 10.60604,0.60138c0,0 -6.91193,-0.05183 -10.29088,0.74129c-3.53114,0.82883 -10.45951,4.1293 -10.45951,4.1293z" fill="#000000" fill-rule="nonzero" stroke="none" stroke-width="0" stroke-linecap="butt" stroke-linejoin="miter"/><path d="M267.33566,109.64013c-3.37895,-0.79312 -10.29088,-0.74129 -10.29088,-0.74129c0,0 6.23067,-1.62838 10.60604,-0.60138c4.37536,1.027 10.14435,5.47198 10.14435,5.47198c0,0 -6.92837,-3.30046 -10.45951,-4.1293z" data-paper-data="{&quot;index&quot;:null}" fill="#000000" fill-rule="nonzero" stroke="none" stroke-width="0" stroke-linecap="butt" stroke-linejoin="miter"/><g fill-rule="nonzero" stroke-linejoin="miter"><path d="M254.92106,175.2043h-21.59158" fill="none" stroke="#000000" stroke-width="2" stroke-linecap="round"/><path d="M292.6254,178.55732c0,7.48979 -31.06137,13.08356 -48.5533,13.08356c-17.49193,0 -46.67586,-5.52528 -46.67586,-13.01507c0,-7.48979 31.43712,-19.70653 48.92904,-19.70653c17.49193,0 46.30012,12.14825 46.30012,19.63804z" fill="#ffcb00" stroke="#000000" stroke-width="2" stroke-linecap="butt"/><path d="M243.91541,190.95393c-6.44864,0 -15.06673,-1.107 -22.64541,-2.29978c-2.16298,-6.64103 -5.47839,-14.66542 -8.20485,-20.90677c-0.15967,-0.36551 22.51676,-8.12678 31.65595,-8.12678c9.16864,0 22.32719,3.67034 31.93562,7.5051c-0.59449,1.20152 -7.76888,16.22854 -10.18874,21.65196c-7.90261,1.20391 -16.10237,2.17627 -22.55257,2.17627z" fill="#ff9f00" stroke="#000000" stroke-width="0" stroke-linecap="butt"/><path d="M232.88869,173.09962c0,2.49817 -1.03169,4.52335 -2.30434,4.52335c-1.27265,0 -2.30434,-2.02518 -2.30434,-4.52335c0,-2.49817 1.03169,-4.52336 2.30434,-4.52336c1.27265,0 2.30434,2.02518 2.30434,4.52336z" fill="#000000" stroke="none" stroke-width="0" stroke-linecap="butt"/><path d="M262.04121,172.58554c0,2.49817 -1.03169,4.52335 -2.30434,4.52335c-1.27265,0 -2.30434,-2.02517 -2.30434,-4.52335c0,-2.49817 1.03169,-4.52336 2.30434,-4.52336c1.27265,0 2.30434,2.02518 2.30434,4.52336z" fill="#000000" stroke="none" stroke-width="0" stroke-linecap="butt"/></g><path d="M226.73769,95.43397l28.59147,-16.76793l-2.79466,11.82354l19.34761,-5.15936l-12.46846,13.32836" data-paper-data="{&quot;index&quot;:null}" fill="#fff000" fill-rule="nonzero" stroke="#000000" stroke-width="2" stroke-linecap="round" stroke-linejoin="miter"/><text transform="translate(348.6875,125.39999) scale(0.5,0.5)" font-size="40" xml:space="preserve" fill="#000000" fill-rule="nonzero" stroke="none" stroke-width="1" stroke-linecap="butt" stroke-linejoin="miter" stroke-miterlimit="10" stroke-dasharray="" stroke-dashoffset="0" font-family="Sans Serif" font-weight="normal" text-anchor="start" style="mix-blend-mode: normal"><tspan x="0" dy="0">50 = 25$</tspan></text><path d="M353.6875,129.39999l-60,80l1,-16l14,14l-16,6l2,-20" fill="none" fill-rule="nonzero" stroke="#8b5304" stroke-width="5" stroke-linecap="round" stroke-linejoin="miter"/><path d="M184.40899,321.61251v-267.22501h123.18203v267.22501z" fill-opacity="0.01" fill="#000000" fill-rule="nonzero" stroke="none" stroke-width="0" stroke-linecap="butt" stroke-linejoin="miter"/><path d="M212.75008,315.50002l15.14285,-131.8421l37.78325,-0.15789l13.57389,132z" fill="#fdff00" fill-rule="nonzero" stroke="#000000" stroke-width="2" stroke-linecap="butt" stroke-linejoin="miter"/><path d="M225.70031,212.11266l3.12142,-26.32765l35.83075,-0.14203l2.76735,26.1059c0,0 -7.51543,4.19603 -21.55904,4.50964c-12.48458,0.27879 -20.16049,-4.14586 -20.16049,-4.14586z" fill="#d5d500" fill-rule="nonzero" stroke="#000000" stroke-width="0" stroke-linecap="butt" stroke-linejoin="miter"/><path d="M241.00696,218.89302c0,8.72179 -4.91983,15.7246 -10.98792,15.7922c-3.42018,0.03811 -4.31831,0.52658 -5.34042,0.06644c-2.19904,-0.98997 -1.1227,-4.99092 0.12667,-17.59994c2.47174,-16.39728 -0.8547,-14.0509 5.21376,-14.0509c6.06846,0 10.98792,7.07041 10.98792,15.7922z" data-paper-data="{&quot;index&quot;:null}" fill="#804400" fill-rule="nonzero" stroke="none" stroke-width="0" stroke-linecap="butt" stroke-linejoin="miter"/><path d="M229.90548,203.29727c5.21412,0 9.57999,5.21976 10.70593,12.22187c-5.15909,-0.58378 -10.23078,-1.60701 -15.35098,-2.42602c1.34694,-11.70984 -0.83581,-9.79585 4.64506,-9.79585z" data-paper-data="{&quot;index&quot;:null}" fill="#572e00" fill-rule="nonzero" stroke="none" stroke-width="0" stroke-linecap="butt" stroke-linejoin="miter"/><path d="M256.27879,257.64453c0,-8.72179 4.91946,-15.7922 10.98792,-15.7922c6.06846,0 2.74202,-2.34638 5.21376,14.0509c1.24937,12.60902 2.3257,16.60996 0.12667,17.59994c-1.02211,0.46014 -1.92025,-0.02834 -5.34042,-0.06644c-6.06809,-0.0676 -10.98792,-7.07041 -10.98792,-15.7922z" fill="#804400" fill-rule="nonzero" stroke="none" stroke-width="0" stroke-linecap="butt" stroke-linejoin="miter"/><path d="M239.44623,282.40078c-0.11894,11.90573 -6.93029,21.39787 -15.21449,21.40741c-4.66925,0.00538 -5.90192,0.65992 -7.29089,0.01787c-2.9883,-1.38136 -1.46448,-6.82819 0.41292,-24.02319c3.59768,-22.3495 -0.9751,-19.19193 7.30869,-19.10918c8.28379,0.08275 14.90271,9.80136 14.78377,21.70709z" data-paper-data="{&quot;index&quot;:null}" fill="#804400" fill-rule="nonzero" stroke="none" stroke-width="0" stroke-linecap="butt" stroke-linejoin="miter"/><path d="M272.16333,301.34804c3.15361,0 4.88125,1.7211 5.14223,2.06661c1.06883,1.41502 0.58592,3.81305 0.58592,6.99072c0,5.66314 1.36537,4.09334 -8.56085,4.09334c-9.92622,0 -11.491,1.37883 -11.491,-4.28431c0,-5.66314 4.39748,-8.86636 14.3237,-8.86636z" fill="#804400" fill-rule="nonzero" stroke="none" stroke-width="0" stroke-linecap="butt" stroke-linejoin="miter"/><g data-paper-data="{&quot;index&quot;:null}" fill-rule="nonzero" stroke="#000000" stroke-width="2" stroke-linecap="butt" stroke-linejoin="miter"><path d="M272.67612,114.3963l41.05018,-40.80647l5.02342,5.05343l-41.05018,40.80647z" fill="#fdff00"/><path d="M326.39114,86.54293c-9.52639,2.10894 -18.95869,-3.90409 -21.06763,-13.43046c-2.10894,-9.52638 3.9041,-18.95868 13.43048,-21.06762c9.52638,-2.10894 18.95868,3.9041 21.06762,13.43048c2.10894,9.52638 -3.9041,18.95868 -13.43048,21.06762z" fill="#804400"/></g><g fill-rule="nonzero" stroke="#000000" stroke-width="2" stroke-linecap="butt" stroke-linejoin="miter"><path d="M216.6575,122.65563l-41.05018,-40.80647l5.02342,-5.05343l41.05018,40.80647z" fill="#fdff00"/><path d="M167.96589,89.74884c-9.52638,-2.10894 -15.53942,-11.54124 -13.43047,-21.06762c2.10894,-9.52638 11.54124,-15.53942 21.06762,-13.43047c9.52638,2.10894 15.53942,11.54124 13.43047,21.06762c-2.10894,9.52638 -11.54124,15.53941 -21.06763,13.43047z" fill="#804400"/></g><path d="M181.83999,144.84619c0,-33.30185 28.7599,-60.29833 64.23702,-60.29833c35.47712,0 64.23702,26.99649 64.23702,60.29833c0,33.30185 -28.7599,60.29833 -64.23702,60.29833c-35.47712,0 -64.23702,-26.99649 -64.23702,-60.29833z" fill="#fdff00" fill-rule="nonzero" stroke="#000000" stroke-width="2" stroke-linecap="butt" stroke-linejoin="miter"/><path d="M182.56305,144.90003c0,-0.72799 5.20666,55.91939 63.36046,56.93429c55.56352,0.9697 63.51358,-57.95314 63.51358,-56.93429c0,32.80479 -28.40173,59.39833 -63.43702,59.39833c-35.03529,0 -63.43702,-26.59354 -63.43702,-59.39833z" fill="#d5d500" fill-rule="nonzero" stroke="#000000" stroke-width="0" stroke-linecap="butt" stroke-linejoin="miter"/><path d="M195.39021,145.02566c0,-12.968 10.51265,-23.48065 23.48065,-23.48065c12.968,0 23.48065,10.51265 23.48065,23.48065c0,12.968 -10.51265,23.48065 -23.48065,23.48065c-12.968,0 -23.48065,-10.51265 -23.48065,-23.48065z" fill="#ffffff" fill-rule="nonzero" stroke="#000000" stroke-width="2" stroke-linecap="butt" stroke-linejoin="miter"/><path d="M202.45559,145.00001c0,-9.12808 7.39976,-16.52784 16.52783,-16.52784c9.12808,0 16.52784,7.39977 16.52784,16.52784c0,9.12808 -7.39977,16.52784 -16.52784,16.52784c-9.12808,0 -16.52783,-7.39977 -16.52783,-16.52784z" fill="#000000" fill-rule="nonzero" stroke="none" stroke-width="0" stroke-linecap="butt" stroke-linejoin="miter"/><path d="M273.12926,168.50629c-12.968,0 -23.48065,-10.51265 -23.48065,-23.48065c0,-12.968 10.51265,-23.48065 23.48065,-23.48065c12.968,0 23.48065,10.51265 23.48065,23.48065c0,12.968 -10.51265,23.48065 -23.48065,23.48065z" data-paper-data="{&quot;index&quot;:null}" fill="#ffffff" fill-rule="nonzero" stroke="#000000" stroke-width="2" stroke-linecap="butt" stroke-linejoin="miter"/><path d="M273.01672,161.52787c-9.12807,0 -16.52783,-7.39977 -16.52783,-16.52784c0,-9.12808 7.39977,-16.52784 16.52783,-16.52784c9.12807,0 16.52783,7.39977 16.52783,16.52784c0,9.12808 -7.39977,16.52784 -16.52783,16.52784z" data-paper-data="{&quot;index&quot;:null}" fill="#000000" fill-rule="nonzero" stroke="none" stroke-width="0" stroke-linecap="butt" stroke-linejoin="miter"/><path d="M208.02788,116.46719c0,0 6.70895,-5.16922 11.79721,-6.36355c5.08827,-1.19433 12.33413,0.69937 12.33413,0.69937c0,0 -8.03812,-0.06028 -11.96762,0.86207c-4.10648,0.96389 -12.16372,4.80211 -12.16372,4.80211z" fill="#000000" fill-rule="nonzero" stroke="none" stroke-width="0" stroke-linecap="butt" stroke-linejoin="miter"/><path d="M271.96236,111.66509c-3.9295,-0.92235 -11.96762,-0.86207 -11.96762,-0.86207c0,0 7.24586,-1.8937 12.33413,-0.69937c5.08826,1.19433 11.79721,6.36355 11.79721,6.36355c0,0 -8.05724,-3.83822 -12.16372,-4.80211z" data-paper-data="{&quot;index&quot;:null}" fill="#000000" fill-rule="nonzero" stroke="none" stroke-width="0" stroke-linecap="butt" stroke-linejoin="miter"/><path d="M195.30685,145.36809c0,-12.96801 10.51265,-23.48065 23.48066,-23.48065c12.96801,0 23.48065,10.51264 23.48065,23.48065c0,0 -46.9613,0.61661 -46.9613,0z" fill="#fdff00" fill-rule="nonzero" stroke="#000000" stroke-width="2" stroke-linecap="butt" stroke-linejoin="miter"/><path d="M249.64864,145.26809c0,-12.96801 10.51264,-23.48065 23.48065,-23.48065c12.96801,0 23.48066,10.51264 23.48066,23.48065c0,0.60606 -46.96131,0 -46.96131,0z" data-paper-data="{&quot;index&quot;:null}" fill="#fdff00" fill-rule="nonzero" stroke="#000000" stroke-width="2" stroke-linecap="butt" stroke-linejoin="miter"/><path d="M224.17363,95.0252l33.25,-19.5l-3.25,13.75l22.5,-6l-14.5,15.5" fill="#fdff00" fill-rule="nonzero" stroke="#000000" stroke-width="2" stroke-linecap="round" stroke-linejoin="miter"/><path d="M229.26489,195.87987c0,0 0.18066,-4.95124 1.26911,-6.49398c1.38013,-1.95616 5.39874,-4.48536 5.39874,-4.48536l10.63017,0.07945c0,0 -5.13546,4.4046 -6.71965,6.31454c-1.46147,1.76198 -2.22915,5.83105 -2.22915,5.83105c0,0 -2.9478,0.79409 -4.22031,0.01671c-0.84009,-0.51321 0.07467,-2.69833 -0.60335,-2.73023c-0.81277,-0.03824 0.57992,2.4264 -0.51042,3.00069c-0.70314,0.37035 -3.01513,-1.53287 -3.01513,-1.53287z" fill="#16c300" fill-rule="nonzero" stroke="#000000" stroke-width="1" stroke-linecap="butt" stroke-linejoin="miter"/><path d="M258.61665,184.65643h-25.10959" fill="none" fill-rule="nonzero" stroke="#000000" stroke-width="2" stroke-linecap="round" stroke-linejoin="miter"/></g></g></svg>