<svg version="1.1" xmlns="http://www.w3.org/2000/svg" xmlns:xlink="http://www.w3.org/1999/xlink" width="215.48508" height="292.2932" viewBox="0,0,215.48508,292.2932"><defs><linearGradient x1="240.00007" y1="175.50003" x2="240.00007" y2="307.50003" gradientUnits="userSpaceOnUse" id="color-1"><stop offset="0" stop-color="#2a1d19"/><stop offset="1" stop-color="#825b4e"/></linearGradient><linearGradient x1="229.71249" y1="80.59058" x2="229.71249" y2="223.36342" gradientUnits="userSpaceOnUse" id="color-2"><stop offset="0" stop-color="#2a1d19"/><stop offset="1" stop-color="#825b4e"/></linearGradient><radialGradient cx="145.32768" cy="221.74164" r="107.74254" gradientUnits="userSpaceOnUse" id="color-3"><stop offset="0" stop-color="#2a1d19"/><stop offset="1" stop-color="#825b4e"/></radialGradient><radialGradient cx="233.46283" cy="131.19871" r="101.35785" gradientUnits="userSpaceOnUse" id="color-4"><stop offset="0" stop-color="#150000"/><stop offset="1" stop-color="#850000"/></radialGradient><linearGradient x1="193.49691" y1="111.47324" x2="193.49691" y2="158.43454" gradientUnits="userSpaceOnUse" id="color-5"><stop offset="0" stop-color="#919191"/><stop offset="1" stop-color="#865959"/></linearGradient><linearGradient x1="258.30298" y1="100.10486" x2="258.30298" y2="147.06616" gradientUnits="userSpaceOnUse" id="color-6"><stop offset="0" stop-color="#919191"/><stop offset="1" stop-color="#865959"/></linearGradient><linearGradient x1="253.30636" y1="152.91934" x2="255.24458" y2="158.35906" gradientUnits="userSpaceOnUse" id="color-7"><stop offset="0" stop-color="#363636"/><stop offset="1" stop-color="#636363"/></linearGradient><linearGradient x1="250.95022" y1="153.16078" x2="253.26662" y2="159.66192" gradientUnits="userSpaceOnUse" id="color-8"><stop offset="0" stop-color="#363636"/><stop offset="1" stop-color="#636363"/></linearGradient><linearGradient x1="247.62416" y1="153.89731" x2="250.2242" y2="161.1945" gradientUnits="userSpaceOnUse" id="color-9"><stop offset="0" stop-color="#363636"/><stop offset="1" stop-color="#636363"/></linearGradient><linearGradient x1="243.00949" y1="154.79396" x2="246.08227" y2="163.4179" gradientUnits="userSpaceOnUse" id="color-10"><stop offset="0" stop-color="#363636"/><stop offset="1" stop-color="#636363"/></linearGradient><linearGradient x1="232.02635" y1="157.95974" x2="235.66641" y2="168.1758" gradientUnits="userSpaceOnUse" id="color-11"><stop offset="0" stop-color="#363636"/><stop offset="1" stop-color="#636363"/></linearGradient><linearGradient x1="237.73447" y1="156.07539" x2="241.18544" y2="165.76076" gradientUnits="userSpaceOnUse" id="color-12"><stop offset="0" stop-color="#363636"/><stop offset="1" stop-color="#636363"/></linearGradient><linearGradient x1="206.16734" y1="169.5658" x2="208.10556" y2="175.00554" gradientUnits="userSpaceOnUse" id="color-13"><stop offset="0" stop-color="#363636"/><stop offset="1" stop-color="#636363"/></linearGradient><linearGradient x1="208.1453" y1="168.26297" x2="210.4617" y2="174.7641" gradientUnits="userSpaceOnUse" id="color-14"><stop offset="0" stop-color="#363636"/><stop offset="1" stop-color="#636363"/></linearGradient><linearGradient x1="211.18772" y1="166.73037" x2="213.78776" y2="174.02756" gradientUnits="userSpaceOnUse" id="color-15"><stop offset="0" stop-color="#363636"/><stop offset="1" stop-color="#636363"/></linearGradient><linearGradient x1="215.32965" y1="164.50698" x2="218.40243" y2="173.13093" gradientUnits="userSpaceOnUse" id="color-16"><stop offset="0" stop-color="#363636"/><stop offset="1" stop-color="#636363"/></linearGradient><linearGradient x1="225.84006" y1="160.01443" x2="229.48012" y2="170.23049" gradientUnits="userSpaceOnUse" id="color-17"><stop offset="0" stop-color="#363636"/><stop offset="1" stop-color="#636363"/></linearGradient><linearGradient x1="220.22648" y1="162.16411" x2="223.67745" y2="171.84947" gradientUnits="userSpaceOnUse" id="color-18"><stop offset="0" stop-color="#363636"/><stop offset="1" stop-color="#636363"/></linearGradient><linearGradient x1="260.80361" y1="169.86027" x2="262.47534" y2="174.76721" gradientUnits="userSpaceOnUse" id="color-19"><stop offset="0" stop-color="#636363"/><stop offset="1" stop-color="#363636"/></linearGradient><linearGradient x1="259.08327" y1="171.21441" x2="261.08119" y2="177.0788" gradientUnits="userSpaceOnUse" id="color-20"><stop offset="0" stop-color="#636363"/><stop offset="1" stop-color="#363636"/></linearGradient><linearGradient x1="256.36381" y1="172.6418" x2="258.60637" y2="179.22427" gradientUnits="userSpaceOnUse" id="color-21"><stop offset="0" stop-color="#636363"/><stop offset="1" stop-color="#363636"/></linearGradient><linearGradient x1="252.48569" y1="174.19676" x2="255.13599" y2="181.97606" gradientUnits="userSpaceOnUse" id="color-22"><stop offset="0" stop-color="#636363"/><stop offset="1" stop-color="#363636"/></linearGradient><linearGradient x1="243.05653" y1="178.27737" x2="246.19611" y2="187.49284" gradientUnits="userSpaceOnUse" id="color-23"><stop offset="0" stop-color="#636363"/><stop offset="1" stop-color="#363636"/></linearGradient><linearGradient x1="248.04061" y1="176.17865" x2="251.0171" y2="184.91538" gradientUnits="userSpaceOnUse" id="color-24"><stop offset="0" stop-color="#636363"/><stop offset="1" stop-color="#363636"/></linearGradient><linearGradient x1="218.14599" y1="184.39314" x2="219.81771" y2="189.30007" gradientUnits="userSpaceOnUse" id="color-25"><stop offset="0" stop-color="#636363"/><stop offset="1" stop-color="#363636"/></linearGradient><linearGradient x1="220.33522" y1="184.41534" x2="222.33313" y2="190.27973" gradientUnits="userSpaceOnUse" id="color-26"><stop offset="0" stop-color="#636363"/><stop offset="1" stop-color="#363636"/></linearGradient><linearGradient x1="223.36048" y1="183.88557" x2="225.60304" y2="190.46805" gradientUnits="userSpaceOnUse" id="color-27"><stop offset="0" stop-color="#636363"/><stop offset="1" stop-color="#363636"/></linearGradient><linearGradient x1="227.38132" y1="182.74948" x2="230.03162" y2="190.52877" gradientUnits="userSpaceOnUse" id="color-28"><stop offset="0" stop-color="#636363"/><stop offset="1" stop-color="#363636"/></linearGradient><linearGradient x1="237.34054" y1="180.22472" x2="240.48013" y2="189.4402" gradientUnits="userSpaceOnUse" id="color-29"><stop offset="0" stop-color="#636363"/><stop offset="1" stop-color="#363636"/></linearGradient><linearGradient x1="232.11182" y1="181.60537" x2="235.08831" y2="190.3421" gradientUnits="userSpaceOnUse" id="color-30"><stop offset="0" stop-color="#636363"/><stop offset="1" stop-color="#363636"/></linearGradient></defs><g transform="translate(-126.00415,-25.36207)"><g data-paper-data="{&quot;isPaintingLayer&quot;:true}" fill-rule="nonzero" stroke-width="0" stroke-linecap="butt" stroke-linejoin="miter" stroke-miterlimit="10" stroke-dasharray="" stroke-dashoffset="0" style="mix-blend-mode: normal"><path d="M168.12148,317.65527v-267.22501h123.18203v267.22501z" fill-opacity="0.01" fill="#000000" stroke="none"/><path d="M206.75007,307.50002l15.14285,-131.8421l37.78325,-0.15789l13.57389,132z" fill="url(#color-1)" stroke="#000000"/><path d="M164.78026,140.88891c0,-33.30185 28.7599,-60.29833 64.23702,-60.29833c35.47712,0 64.23702,26.99649 64.23702,60.29833c0,13.05014 4.0286,82.47451 4.0286,82.47451c0,0 -46.69107,-22.17618 -68.26562,-22.17618c-20.49118,0 -66.8752,20.6796 -66.8752,20.6796c0,0 2.63818,-66.91085 2.63818,-80.97793z" fill="url(#color-2)" stroke="#000000"/><g stroke="none"><g fill="url(#color-3)"><path d="M130.26513,209.27485l18.50323,-56.63564l-22.76421,-28.10776l29.94245,-18.10513l7.09554,-31.71783l38.21793,18.70714l24.49605,-68.05356l26.79509,75.86143l37.68426,-31.55798l2.13355,43.89763l49.12021,5.54972l-42.40356,30.14046l33.04464,49.17646l-45.26528,-12.16217l6.37467,47.47005l-50.48801,-34.25879l-15.02463,34.81375l-51.70255,-45.69321l-44.7831,47.98139z"/></g><g fill="url(#color-4)"><path d="M136.11347,205.93825l17.40675,-53.27948l-21.41523,-26.44213l28.1681,-17.03224l6.67506,-29.83827l35.95318,17.59858l23.04444,-64.02079l25.20724,71.36597l35.45114,-29.68789l2.00712,41.29631l46.20941,5.22085l-39.89077,28.35438l31.08645,46.26232l-42.58292,-11.44146l5.99691,44.65703l-47.49615,-32.22865l-14.13429,32.75073l-48.63872,-42.98549l-42.1293,45.13807z"/></g></g><path d="M170.01626,134.95389c0,-12.968 10.51265,-23.48065 23.48065,-23.48065c12.968,0 23.48065,10.51265 23.48065,23.48065c0,12.968 -10.51265,23.48065 -23.48065,23.48065c-12.968,0 -23.48065,-10.51265 -23.48065,-23.48065z" fill="url(#color-5)" stroke="#000000"/><path d="M174.2394,137.88057c0,-9.12808 7.39976,-16.52784 16.52783,-16.52784c9.12808,0 16.52784,7.39977 16.52784,16.52784c0,9.12808 -7.39977,16.52784 -16.52784,16.52784c-9.12808,0 -16.52783,-7.39977 -16.52783,-16.52784z" fill="#000000" stroke="none"/><path d="M258.30298,147.06616c-12.968,0 -23.48065,-10.51265 -23.48065,-23.48065c0,-12.968 10.51265,-23.48065 23.48065,-23.48065c12.968,0 23.48065,10.51265 23.48065,23.48065c0,12.968 -10.51265,23.48065 -23.48065,23.48065z" data-paper-data="{&quot;index&quot;:null}" fill="url(#color-6)" stroke="#000000"/><path d="M254.2074,142.75363c-9.12807,0 -16.52783,-7.39977 -16.52783,-16.52784c0,-9.12808 7.39977,-16.52784 16.52783,-16.52784c9.12807,0 16.52783,7.39977 16.52783,16.52784c0,9.12808 -7.39977,16.52784 -16.52783,16.52784z" data-paper-data="{&quot;index&quot;:null}" fill="#000000" stroke="none"/><g stroke="none"><g><path d="M253.53158,158.96941c0,0 -2.40409,-5.27373 -0.17207,-6.06902c2.23201,-0.79528 3.56306,4.86078 3.56306,4.86078z" fill="url(#color-7)"/><path d="M251.2194,160.39136c0,0 -2.87317,-6.30276 -0.20564,-7.25322c2.66752,-0.95046 4.2583,5.80922 4.2583,5.80922z" fill="url(#color-8)"/><path d="M247.92629,162.01327c0,0 -3.22499,-7.07452 -0.23083,-8.14137c2.99417,-1.06685 4.77973,6.52056 4.77973,6.52056z" fill="url(#color-9)"/><path d="M243.36657,164.38553c0,0 -3.81134,-8.36078 -0.2728,-9.6216c3.53855,-1.26082 5.64875,7.70611 5.64875,7.70611z" fill="url(#color-10)"/><path d="M232.44934,169.32206c0,0 -4.51497,-9.90432 -0.32314,-11.3979c4.19183,-1.49358 6.69161,9.12877 6.69161,9.12877z" fill="url(#color-11)"/><path d="M238.13548,166.84749c0,0 -4.28043,-9.38983 -0.30637,-10.80581c3.97407,-1.41599 6.344,8.65456 6.344,8.65456z" fill="url(#color-12)"/></g><g data-paper-data="{&quot;index&quot;:null}"><path d="M206.42755,175.60342c0,0 -2.54539,-5.22339 -0.31338,-6.01866c2.23202,-0.79529 3.70437,4.81043 3.70437,4.81043z" fill="url(#color-13)"/><path d="M208.45628,175.47865c0,0 -3.04204,-6.24259 -0.37451,-7.19305c2.66753,-0.95046 4.42718,5.74906 4.42718,5.74906z" fill="url(#color-14)"/><path d="M211.53678,174.8296c0,0 -3.41453,-7.00699 -0.42037,-8.07384c2.99417,-1.06685 4.96927,6.45303 4.96927,6.45303z" fill="url(#color-15)"/><path d="M215.74217,174.0788c0,0 -4.03535,-8.28098 -0.4968,-9.54179c3.53855,-1.26082 5.87276,7.62629 5.87276,7.62629z" fill="url(#color-16)"/><path d="M226.32873,171.35336c0,0 -4.78034,-9.80977 -0.5885,-11.30335c4.19183,-1.49358 6.95697,9.03422 6.95697,9.03422z" fill="url(#color-17)"/><path d="M220.68976,172.91401c0,0 -4.53201,-9.30019 -0.55794,-10.71618c3.97407,-1.41599 6.59557,8.56493 6.59557,8.56493z" fill="url(#color-18)"/></g></g><g stroke="none"><g><path d="M262.31726,169.34459c0,0 2.21942,4.72035 0.20602,5.40629c-2.0134,0.68594 -3.26488,-4.36418 -3.26488,-4.36418z" fill="url(#color-19)"/><path d="M260.89227,170.59811c0,0 2.65249,5.64139 0.24622,6.46117c-2.40625,0.81977 -3.90194,-5.21571 -3.90194,-5.21571z" fill="url(#color-20)"/><path d="M258.39433,171.95002c0,0 2.97726,6.33218 0.27637,7.25233c-2.7009,0.92016 -4.37973,-5.85437 -4.37973,-5.85437z" fill="url(#color-21)"/><path d="M254.88539,173.37922c0,0 3.5186,7.48347 0.32662,8.57093c-3.19198,1.08747 -5.17605,-6.9188 -5.17605,-6.9188z" fill="url(#color-22)"/><path d="M245.89925,177.30889c0,0 4.16816,8.86504 0.38691,10.15326c-3.78126,1.28823 -6.13161,-8.19611 -6.13161,-8.19611z" fill="url(#color-23)"/><path d="M250.73566,175.26048c0,0 3.95166,8.40452 0.36681,9.62582c-3.58483,1.22131 -5.81309,-7.77034 -5.81309,-7.77034z" fill="url(#color-24)"/></g><g data-paper-data="{&quot;index&quot;:null}"><path d="M219.69118,183.86671c0,0 2.09196,4.76377 0.07858,5.4497c-2.0134,0.68594 -3.13743,-4.4076 -3.13743,-4.4076z" fill="url(#color-25)"/><path d="M222.18194,183.78619c0,0 2.50014,5.69329 0.09389,6.51306c-2.40625,0.81977 -3.74962,-5.26761 -3.74962,-5.26761z" fill="url(#color-26)"/><path d="M225.43333,183.17938c0,0 2.80629,6.39042 0.10539,7.31058c-2.70089,0.92015 -4.20874,-5.91263 -4.20874,-5.91263z" fill="url(#color-27)"/><path d="M229.83104,181.91489c0,0 3.31653,7.55231 0.12455,8.63977c-3.19198,1.08747 -4.97398,-6.98764 -4.97398,-6.98764z" fill="url(#color-28)"/><path d="M240.24252,179.23606c0,0 3.92881,8.94658 0.14754,10.23481c-3.78126,1.28823 -5.89225,-8.27767 -5.89225,-8.27767z" fill="url(#color-29)"/><path d="M234.86304,180.66806c0,0 3.72472,8.48183 0.13989,9.70313c-3.58483,1.22131 -5.58617,-7.84766 -5.58617,-7.84766z" fill="url(#color-30)"/></g></g></g></g></svg>