<svg version="1.1" xmlns="http://www.w3.org/2000/svg" xmlns:xlink="http://www.w3.org/1999/xlink" width="188.12897" height="279.02609" viewBox="0,0,188.12897,279.02609"><g transform="translate(-147.75473,-29.47394)"><g data-paper-data="{&quot;isPaintingLayer&quot;:true}" fill-rule="nonzero" stroke-linejoin="miter" stroke-miterlimit="10" stroke-dasharray="" stroke-dashoffset="0" style="mix-blend-mode: normal"><path d="M179.04971,300.46299v-267.22501h123.18203v267.22501z" fill-opacity="0.01" fill="#000000" stroke="none" stroke-width="0" stroke-linecap="butt"/><path d="M206.75009,307.50002l15.14285,-131.8421l37.78325,-0.15789l13.57389,132z" fill="#fdff00" stroke="#000000" stroke-width="2" stroke-linecap="butt"/><path d="M219.70031,204.11266l3.12142,-26.32765l35.83075,-0.14203l2.76735,26.1059c0,0 -7.51543,4.19603 -21.55904,4.50964c-12.48458,0.27879 -20.16049,-4.14586 -20.16049,-4.14586z" fill="#d5d500" stroke="#000000" stroke-width="0" stroke-linecap="butt"/><path d="M235.00696,210.89302c0,8.72179 -4.91983,15.7246 -10.98792,15.7922c-3.42018,0.03811 -4.31831,0.52658 -5.34042,0.06644c-2.19904,-0.98997 -1.1227,-4.99092 0.12667,-17.59994c2.47174,-16.39728 -0.8547,-14.0509 5.21376,-14.0509c6.06846,0 10.98792,7.07041 10.98792,15.7922z" data-paper-data="{&quot;index&quot;:null}" fill="#804400" stroke="none" stroke-width="0" stroke-linecap="butt"/><path d="M223.90548,195.29727c5.21412,0 9.57999,5.21976 10.70593,12.22187c-5.15909,-0.58378 -10.23078,-1.60701 -15.35098,-2.42602c1.34694,-11.70984 -0.83581,-9.79585 4.64506,-9.79585z" data-paper-data="{&quot;index&quot;:null}" fill="#572e00" stroke="none" stroke-width="0" stroke-linecap="butt"/><path d="M250.27879,249.64453c0,-8.72179 4.91946,-15.7922 10.98792,-15.7922c6.06846,0 2.74202,-2.34638 5.21376,14.0509c1.24937,12.60902 2.3257,16.60996 0.12667,17.59994c-1.02211,0.46014 -1.92025,-0.02834 -5.34042,-0.06644c-6.06809,-0.0676 -10.98792,-7.07041 -10.98792,-15.7922z" fill="#804400" stroke="none" stroke-width="0" stroke-linecap="butt"/><path d="M233.44623,274.40078c-0.11894,11.90573 -6.93029,21.39787 -15.21449,21.40741c-4.66925,0.00538 -5.90192,0.65992 -7.29089,0.01787c-2.9883,-1.38136 -1.46448,-6.82819 0.41292,-24.02319c3.59768,-22.3495 -0.9751,-19.19193 7.30869,-19.10918c8.28379,0.08275 14.90271,9.80136 14.78377,21.70709z" data-paper-data="{&quot;index&quot;:null}" fill="#804400" stroke="none" stroke-width="0" stroke-linecap="butt"/><path d="M266.16333,293.34804c3.15361,0 4.88125,1.7211 5.14223,2.06661c1.06883,1.41502 0.58592,3.81305 0.58592,6.99072c0,5.66314 1.36537,4.09334 -8.56085,4.09334c-9.92622,0 -11.491,1.37883 -11.491,-4.28431c0,-5.66314 4.39748,-8.86636 14.3237,-8.86636z" fill="#804400" stroke="none" stroke-width="0" stroke-linecap="butt"/><g data-paper-data="{&quot;index&quot;:null}" stroke="#000000" stroke-width="2" stroke-linecap="butt"><path d="M267.31683,93.24678l41.05018,-40.80647l5.02342,5.05343l-41.05018,40.80647z" fill="#fdff00"/><path d="M321.03184,65.39341c-9.52639,2.10894 -18.95869,-3.90409 -21.06763,-13.43046c-2.10894,-9.52638 3.9041,-18.95868 13.43048,-21.06762c9.52638,-2.10894 18.95868,3.9041 21.06762,13.43048c2.10894,9.52638 -3.9041,18.95868 -13.43048,21.06762z" fill="#804400"/></g><g stroke="#000000" stroke-width="2" stroke-linecap="butt"><path d="M211.29821,101.50611l-41.05018,-40.80647l5.02342,-5.05343l41.05018,40.80647z" fill="#fdff00"/><path d="M162.6066,68.59932c-9.52638,-2.10894 -15.53942,-11.54124 -13.43047,-21.06762c2.10894,-9.52638 11.54124,-15.53942 21.06762,-13.43047c9.52638,2.10894 15.53942,11.54124 13.43047,21.06762c-2.10894,9.52638 -11.54124,15.53941 -21.06763,13.43047z" fill="#804400"/></g><path d="M176.4807,123.69667c0,-33.30185 28.7599,-60.29833 64.23702,-60.29833c35.47712,0 64.23702,26.99649 64.23702,60.29833c0,33.30185 -28.7599,60.29833 -64.23702,60.29833c-35.47712,0 -64.23702,-26.99649 -64.23702,-60.29833z" fill="#fdff00" stroke="#000000" stroke-width="2" stroke-linecap="butt"/><path d="M177.20376,123.75051c0,-0.72799 5.20666,55.91939 63.36046,56.93429c55.56352,0.9697 63.51358,-57.95314 63.51358,-56.93429c0,32.80479 -28.40173,59.39833 -63.43702,59.39833c-35.03529,0 -63.43702,-26.59354 -63.43702,-59.39833z" fill="#d5d500" stroke="#000000" stroke-width="0" stroke-linecap="butt"/><path d="M190.03092,123.87614c0,-12.968 10.51265,-23.48065 23.48065,-23.48065c12.968,0 23.48065,10.51265 23.48065,23.48065c0,12.968 -10.51265,23.48065 -23.48065,23.48065c-12.968,0 -23.48065,-10.51265 -23.48065,-23.48065z" fill="#ffffff" stroke="#000000" stroke-width="2" stroke-linecap="butt"/><path d="M197.0963,123.85049c0,-9.12808 7.39976,-16.52784 16.52783,-16.52784c9.12808,0 16.52784,7.39977 16.52784,16.52784c0,9.12808 -7.39977,16.52784 -16.52784,16.52784c-9.12808,0 -16.52783,-7.39977 -16.52783,-16.52784z" fill="#000000" stroke="none" stroke-width="0" stroke-linecap="butt"/><path d="M267.76998,147.35677c-12.968,0 -23.48065,-10.51265 -23.48065,-23.48065c0,-12.968 10.51265,-23.48065 23.48065,-23.48065c12.968,0 23.48065,10.51265 23.48065,23.48065c0,12.968 -10.51265,23.48065 -23.48065,23.48065z" data-paper-data="{&quot;index&quot;:null}" fill="#ffffff" stroke="#000000" stroke-width="2" stroke-linecap="butt"/><path d="M267.65743,140.37835c-9.12807,0 -16.52783,-7.39977 -16.52783,-16.52784c0,-9.12808 7.39977,-16.52784 16.52783,-16.52784c9.12807,0 16.52783,7.39977 16.52783,16.52784c0,9.12808 -7.39977,16.52784 -16.52783,16.52784z" data-paper-data="{&quot;index&quot;:null}" fill="#000000" stroke="none" stroke-width="0" stroke-linecap="butt"/><path d="M202.66859,95.31767c0,0 6.70895,-5.16922 11.79721,-6.36355c5.08827,-1.19433 12.33413,0.69937 12.33413,0.69937c0,0 -8.03812,-0.06028 -11.96762,0.86207c-4.10648,0.96389 -12.16372,4.80211 -12.16372,4.80211z" fill="#000000" stroke="none" stroke-width="0" stroke-linecap="butt"/><path d="M266.60308,90.51557c-3.9295,-0.92235 -11.96762,-0.86207 -11.96762,-0.86207c0,0 7.24586,-1.8937 12.33413,-0.69937c5.08826,1.19433 11.79721,6.36355 11.79721,6.36355c0,0 -8.05724,-3.83822 -12.16372,-4.80211z" data-paper-data="{&quot;index&quot;:null}" fill="#000000" stroke="none" stroke-width="0" stroke-linecap="butt"/><path d="M189.94756,122.77747c0,-12.96801 10.51265,-23.48065 23.48066,-23.48065c12.96801,0 23.48065,10.51264 23.48065,23.48065c0,0 -11.86431,-5.96717 -24.39008,-5.8978c-10.8313,0.05998 -22.57122,6.18374 -22.57122,5.8978z" fill="#fdff00" stroke="#000000" stroke-width="2" stroke-linecap="butt"/><path d="M244.28935,124.11857c0,-12.96801 10.51264,-23.48065 23.48065,-23.48065c12.96801,0 23.48066,10.51264 23.48066,23.48065c0,0.28213 -10.17657,-5.58272 -21.05508,-5.64251c-12.49042,-0.06866 -25.90623,5.64251 -25.90623,5.64251z" data-paper-data="{&quot;index&quot;:null}" fill="#fdff00" stroke="#000000" stroke-width="2" stroke-linecap="butt"/><path d="M218.81434,73.87568l33.25,-19.5l-3.25,13.75l22.5,-6l-14.5,15.5" fill="#fdff00" stroke="#000000" stroke-width="2" stroke-linecap="round"/><path d="M251.39658,166.25628c0,4.80557 -25.20825,4.80557 -25.20825,0c0,-4.80557 5.64306,-8.70125 12.60413,-8.70125c6.96107,0 12.60413,3.89568 12.60413,8.70125z" fill="#000000" stroke="#000000" stroke-width="0" stroke-linecap="butt"/><path d="M222.12402,179.50379c0,0 0.18066,-4.95124 1.26911,-6.49398c1.38013,-1.95616 5.39874,-4.48536 5.39874,-4.48536l10.63017,0.07945c0,0 -5.13546,4.4046 -6.71965,6.31454c-1.46147,1.76198 -2.22915,5.83105 -2.22915,5.83105c0,0 -2.9478,0.79409 -4.22031,0.01671c-0.84009,-0.51321 0.07467,-2.69833 -0.60335,-2.73023c-0.81277,-0.03824 0.57992,2.4264 -0.51042,3.00069c-0.70314,0.37035 -3.01513,-1.53287 -3.01513,-1.53287z" fill="#16c300" stroke="#000000" stroke-width="1" stroke-linecap="butt"/></g></g></svg>