<svg version="1.1" xmlns="http://www.w3.org/2000/svg" xmlns:xlink="http://www.w3.org/1999/xlink" width="129.44844" height="214.71118" viewBox="0,0,129.44844,214.71118"><defs><linearGradient x1="240.00005" y1="175.50001" x2="240.00005" y2="307.50001" gradientUnits="userSpaceOnUse" id="color-1"><stop offset="0" stop-color="#27231b"/><stop offset="1" stop-color="#7a6c51"/></linearGradient><linearGradient x1="277.22853" y1="142.34027" x2="277.22853" y2="222.7431" gradientUnits="userSpaceOnUse" id="color-2"><stop offset="0" stop-color="#27231b"/><stop offset="1" stop-color="#7a6c51"/></linearGradient><linearGradient x1="194.69599" y1="143.84361" x2="194.69599" y2="223.7569" gradientUnits="userSpaceOnUse" id="color-3"><stop offset="0" stop-color="#27231b"/><stop offset="1" stop-color="#7a6c51"/></linearGradient><linearGradient x1="236.711" y1="92.78883" x2="236.711" y2="213.38549" gradientUnits="userSpaceOnUse" id="color-4"><stop offset="0" stop-color="#27231b"/><stop offset="1" stop-color="#7a6c51"/></linearGradient></defs><g transform="translate(-171.49959,-92.78883)"><g data-paper-data="{&quot;isPaintingLayer&quot;:true}" fill-rule="nonzero" stroke-linejoin="miter" stroke-miterlimit="10" stroke-dasharray="" stroke-dashoffset="0" style="mix-blend-mode: normal"><path d="M206.75005,307.5l15.14285,-131.8421l37.78325,-0.15789l13.57389,132z" fill="url(#color-1)" stroke="#000000" stroke-width="0" stroke-linecap="butt"/><path d="M272.21383,143.02725c12.52111,-3.01881 25.00031,4.19317 27.87306,16.10842c1.85925,7.71157 -8.6537,63.60743 -8.6537,63.60743c0,0 -33.81653,-40.76007 -36.68928,-52.67532c-2.87275,-11.91526 4.9488,-24.02171 17.46991,-27.04053z" data-paper-data="{&quot;index&quot;:null}" fill="url(#color-2)" stroke="#000000" stroke-width="0" stroke-linecap="butt"/><path d="M200.57482,144.73893c12.41149,3.44186 19.81783,15.80669 16.54252,27.61763c-3.27531,11.81094 -38.45513,51.40034 -38.45513,51.40034c0,0 -9.76618,-52.05346 -6.49087,-63.86439c3.27531,-11.81094 15.99198,-18.59542 28.40347,-15.15356z" data-paper-data="{&quot;index&quot;:null}" fill="url(#color-3)" stroke="#000000" stroke-width="0" stroke-linecap="butt"/><path d="M172.47398,153.08716c0,-33.30185 28.7599,-60.29833 64.23702,-60.29833c35.47712,0 64.23702,26.99649 64.23702,60.29833c0,33.30185 -28.7599,60.29833 -64.23702,60.29833c-35.47712,0 -64.23702,-26.99649 -64.23702,-60.29833z" fill="url(#color-4)" stroke="#000000" stroke-width="0" stroke-linecap="butt"/><path d="M186.02419,153.1833c0,-12.968 10.51265,-23.48065 23.48065,-23.48065c12.968,0 23.48065,10.51265 23.48065,23.48065c0,12.968 -10.51265,23.48065 -23.48065,23.48065c-12.968,0 -23.48065,-10.51265 -23.48065,-23.48065z" fill="#7d7d7d" stroke="#000000" stroke-width="0" stroke-linecap="butt"/><path d="M193.08958,152.90767c0,-9.12808 7.39976,-16.52784 16.52783,-16.52784c9.12808,0 16.52784,7.39977 16.52784,16.52784c0,9.12808 -7.39977,16.52784 -16.52784,16.52784c-9.12808,0 -16.52783,-7.39977 -16.52783,-16.52784z" fill="#000000" stroke="none" stroke-width="0" stroke-linecap="butt"/><path d="M263.76327,176.66394c-12.968,0 -23.48065,-10.51265 -23.48065,-23.48065c0,-12.968 10.51265,-23.48065 23.48065,-23.48065c12.968,0 23.48065,10.51265 23.48065,23.48065c0,12.968 -10.51265,23.48065 -23.48065,23.48065z" data-paper-data="{&quot;index&quot;:null}" fill="#7d7d7d" stroke="#000000" stroke-width="0" stroke-linecap="butt"/><path d="M263.65072,169.43551c-9.12807,0 -16.52783,-7.39977 -16.52783,-16.52784c0,-9.12808 7.39977,-16.52784 16.52783,-16.52784c9.12807,0 16.52783,7.39977 16.52783,16.52784c0,9.12808 -7.39977,16.52784 -16.52783,16.52784z" data-paper-data="{&quot;index&quot;:null}" fill="#000000" stroke="none" stroke-width="0" stroke-linecap="butt"/><path d="M198.66186,124.37483c0,0 6.70895,-5.16922 11.79722,-6.36355c5.08827,-1.19433 12.33413,0.69937 12.33413,0.69937c0,0 -8.03812,-0.06028 -11.96762,0.86207c-4.10648,0.96388 -12.16372,4.80211 -12.16372,4.80211z" fill="#000000" stroke="none" stroke-width="0" stroke-linecap="butt"/><path d="M262.59637,119.57273c-3.9295,-0.92235 -11.96762,-0.86207 -11.96762,-0.86207c0,0 7.24586,-1.8937 12.33413,-0.69937c5.08826,1.19433 11.79721,6.36355 11.79721,6.36355c0,0 -8.05724,-3.83822 -12.16372,-4.80211z" data-paper-data="{&quot;index&quot;:null}" fill="#000000" stroke="none" stroke-width="0" stroke-linecap="butt"/><path d="M230.56045,187.66967c-4.31063,-0.23955 -5.86534,-1.14354 -5.86534,-1.14354c0,0 9.0676,-4.37811 13.23184,-4.37811c4.20523,0 11.49403,5.07182 11.49403,5.07182c0,0 -11.11413,0.88031 -18.86052,0.44983z" fill="#7d7d7d" stroke="#000000" stroke-width="2" stroke-linecap="round"/></g></g></svg>