<svg version="1.1" xmlns="http://www.w3.org/2000/svg" xmlns:xlink="http://www.w3.org/1999/xlink" width="35.0611" height="35.32768" viewBox="0,0,35.0611,35.32768"><g transform="translate(-222.91347,-162.91346)"><g data-paper-data="{&quot;isPaintingLayer&quot;:true}" stroke-miterlimit="10" stroke-dasharray="" stroke-dashoffset="0" style="mix-blend-mode: normal"><path d="M229.98313,162.91346h20.03379c3.9166,0 7.06966,3.15307 7.06966,7.06966v20.03379c0,3.91659 -3.15306,7.06966 -7.06966,7.06966h-20.03379c-3.91659,0 -7.06966,-3.15307 -7.06966,-7.06966v-20.03379c0,-3.91659 3.15307,-7.06966 7.06966,-7.06966z" fill="#009fac" fill-rule="evenodd" stroke="none" stroke-width="4.43922" stroke-linecap="round" stroke-linejoin="round"/><g data-paper-data="{&quot;index&quot;:null}" fill-rule="nonzero" stroke="#000000" stroke-width="0.5" stroke-linecap="butt" stroke-linejoin="miter"><path d="M243.15393,177.20662c0.41351,10.5703 0.29707,10.20858 -1.30177,10.24991c-1.76096,0.04551 -1.21002,-1.52406 -1.34208,-8.57211c-0.07916,-4.22478 -0.59817,-9.13222 -0.69561,-9.16718c-0.83456,-0.29934 -0.77444,0.60712 -1.59784,1.73183c-0.17702,0.2418 -1.36733,18.04731 -2.22261,18.06462c-0.12569,0.00254 -1.07412,-0.29692 -1.17925,-1.37652c-0.435,-4.46724 0.14669,-16.35526 0.14669,-16.62459c0,-0.15143 1.46871,-4.99735 3.82106,-4.99735c2.41425,0 3.98961,0.93193 4.3714,10.6914z" fill="#8d8d8d"/><path d="M239.71958,192.45122c-0.97293,-1.28863 -1.13283,-3.97933 0.1558,-5.6861c1.28863,-1.70677 3.14612,-1.45355 4.11905,-0.16492c0.97293,1.28863 1.61707,4.37096 0.30243,6.11219c-0.46483,0.61567 -1.74802,0.64946 -2.35535,0.7344c-1.11032,0.15526 -1.59301,-0.16257 -2.22192,-0.99556z" fill="#272727"/></g><path d="M257.97456,170.51068v20.49804c0,4.00745 -3.22497,7.23243 -7.23242,7.23243h-20.5c-3.66107,0 -6.66147,-2.69385 -7.1543,-6.21484c0.7952,3.03475 3.54108,5.26367 6.83204,5.26367h20.0332c3.9166,0 7.07032,-3.15372 7.07032,-7.07031v-20.03321c0,-3.2976 -2.23906,-6.0451 -5.28321,-6.83398c3.52994,0.48496 6.23438,3.49081 6.23438,7.15821z" fill-opacity="0.29839" fill="#000000" fill-rule="evenodd" stroke="none" stroke-width="4.54219" stroke-linecap="round" stroke-linejoin="round"/></g></g></svg>