<svg version="1.1" xmlns="http://www.w3.org/2000/svg" xmlns:xlink="http://www.w3.org/1999/xlink" width="198.82797" height="267.22501" viewBox="0,0,198.82797,267.22501"><defs><linearGradient x1="177.74865" y1="113.48809" x2="234.66729" y2="147.71443" gradientUnits="userSpaceOnUse" id="color-1"><stop offset="0" stop-color="#1f0c00"/><stop offset="1" stop-color="#a23e00"/></linearGradient><linearGradient x1="183.65924" y1="120.1531" x2="226.86599" y2="146.13419" gradientUnits="userSpaceOnUse" id="color-2"><stop offset="0" stop-color="#4c4c4c"/><stop offset="1" stop-color="#a3a3a3"/></linearGradient><linearGradient x1="347.50056" y1="119.03814" x2="286.58206" y2="145.49772" gradientUnits="userSpaceOnUse" id="color-3"><stop offset="0" stop-color="#1f0c00"/><stop offset="1" stop-color="#a23e00"/></linearGradient><linearGradient x1="340.76631" y1="124.86972" x2="294.52328" y2="144.9551" gradientUnits="userSpaceOnUse" id="color-4"><stop offset="0" stop-color="#4c4c4c"/><stop offset="1" stop-color="#a3a3a3"/></linearGradient><linearGradient x1="239.50011" y1="173.00012" x2="239.50011" y2="305.00005" gradientUnits="userSpaceOnUse" id="color-5"><stop offset="0" stop-color="#1f0c00"/><stop offset="1" stop-color="#a23e00"/></linearGradient><linearGradient x1="259.4109" y1="76.88124" x2="259.4109" y2="197.47793" gradientUnits="userSpaceOnUse" id="color-6"><stop offset="0" stop-color="#1f0c00"/><stop offset="1" stop-color="#a23e00"/></linearGradient></defs><g transform="translate(-161.35,-46.38752)"><g data-paper-data="{&quot;isPaintingLayer&quot;:true}" fill-rule="nonzero" stroke-linecap="butt" stroke-linejoin="miter" stroke-miterlimit="10" stroke-dasharray="" stroke-dashoffset="0" style="mix-blend-mode: normal"><g data-paper-data="{&quot;index&quot;:null}" stroke="#000000" stroke-width="0"><path d="M214.97079,105.46607c11.98659,-2.55881 23.88345,5.57802 26.57235,18.1741c2.68891,12.59608 -4.84835,24.88155 -16.83494,27.44035c-11.98659,2.55881 -63.3582,-10.32134 -63.3582,-10.32134c0,0 41.63419,-32.73431 53.62078,-35.29311z" data-paper-data="{&quot;index&quot;:null}" fill="url(#color-1)"/><path d="M211.91444,114.06362c9.09898,-1.94238 18.12984,4.23425 20.17098,13.79589c2.04114,9.56164 -3.68036,18.88751 -12.77935,20.82988c-9.09898,1.94238 -48.09499,-7.8349 -48.09499,-7.8349c0,0 31.60437,-24.8485 40.70335,-26.79088z" data-paper-data="{&quot;index&quot;:null}" fill="url(#color-2)"/></g><g stroke="#000000" stroke-width="0"><path d="M311.65334,106.20004c11.54705,4.10993 48.52463,42.02561 48.52463,42.02561c0,0 -52.61773,6.02612 -64.16479,1.91619c-11.54705,-4.10993 -17.40662,-17.2784 -13.08771,-29.41258c4.3189,-12.13419 17.18081,-18.63914 28.72786,-14.52921z" data-paper-data="{&quot;index&quot;:null}" fill="url(#color-3)"/><path d="M313.55481,115.12436c8.76533,3.11983 36.83488,31.9015 36.83488,31.9015c0,0 -39.94194,4.5744 -48.70727,1.45457c-8.76533,-3.11983 -13.2133,-13.11597 -9.93484,-22.32699c3.27846,-9.21102 13.04189,-14.1489 21.80722,-11.02907z" data-paper-data="{&quot;index&quot;:null}" fill="url(#color-4)"/></g><path d="M197.74289,313.61253v-267.22501h123.18203v267.22501z" fill-opacity="0.01" fill="#000000" stroke="none" stroke-width="0"/><path d="M206.25012,305.00005l15.14285,-131.8421l37.78325,-0.15789l13.57389,132z" fill="url(#color-5)" stroke="#000000" stroke-width="0"/><path d="M213.3982,244.99663l1.37634,-10.33333h50.92473l1.03226,10.33333z" fill="#481b00" stroke="#000000" stroke-width="0"/><path d="M209.3982,276.66319l1.55699,-13.33333h57.60861l1.16774,13.33333z" fill="#481b00" stroke="#000000" stroke-width="0"/><path d="M216.73153,216.32998l1.21291,-9.66666h44.87742l0.90968,9.66666z" fill="#481b00" stroke="#000000" stroke-width="0"/><path d="M195.17388,137.17958c0,-33.30185 28.7599,-60.29833 64.23702,-60.29833c35.47712,0 64.23702,26.99649 64.23702,60.29833c0,33.30185 -28.7599,60.29833 -64.23702,60.29833c-35.47712,0 -64.23702,-26.99649 -64.23702,-60.29833z" fill="url(#color-6)" stroke="#000000" stroke-width="0"/><path d="M234.84159,104.44424c0.05797,9.75686 -3.14038,17.66666 -7.19047,17.66666c-4.05009,0 -5.76191,-11.05249 -5.76191,-20.80952c0,-9.75703 1.49819,-14.65052 5.33334,-15.95239c5.05009,-1.71429 7.47619,-4.9475 7.61905,19.09524z" fill="#481b00" stroke="none" stroke-width="0"/><path d="M208.72411,137.2757c0,-12.968 10.51265,-23.48065 23.48065,-23.48065c12.968,0 23.48065,10.51265 23.48065,23.48065c0,12.968 -10.51265,23.48065 -23.48065,23.48065c-12.968,0 -23.48065,-10.51265 -23.48065,-23.48065z" fill="#696969" stroke="#000000" stroke-width="0"/><path d="M292.16616,85.1347c3.83515,1.30187 5.33333,6.19535 5.33333,15.95238c0,9.75703 -1.71182,20.80953 -5.76191,20.80953c-4.05009,0 -7.24845,-7.90981 -7.19047,-17.66667c0.14285,-24.04274 2.56896,-20.80952 7.61905,-19.09524z" data-paper-data="{&quot;index&quot;:null}" fill="#481b00" stroke="none" stroke-width="0"/><path d="M286.46317,160.75633c-12.968,0 -23.48065,-10.51265 -23.48065,-23.48065c0,-12.968 10.51265,-23.48065 23.48065,-23.48065c12.968,0 23.48065,10.51265 23.48065,23.48065c0,12.968 -10.51265,23.48065 -23.48065,23.48065z" data-paper-data="{&quot;index&quot;:null}" fill="#696969" stroke="#000000" stroke-width="0"/><path d="M267.91358,105.78363c0,16.01626 -3.80558,29 -8.5,29c-4.69442,0 -8.5,-12.98374 -8.5,-29c0,-10.6661 -1.84373,-27.30448 3.70182,-28.2745c3.01106,-0.52669 3.23003,-0.7255 4.79818,-0.7255c1.96693,0 2.32523,0.52427 5.21812,0.3561c6.76392,-0.39322 3.28188,19.33834 3.28188,28.6439z" fill="#481b00" stroke="#000000" stroke-width="0"/><path d="M286.01724,154.19456c-9.12807,0 -16.52783,-7.39977 -16.52783,-16.52784c0,-9.12808 7.39977,-16.52784 16.52783,-16.52784c9.12807,0 16.52783,7.39977 16.52783,16.52784c0,9.12808 -7.39977,16.52784 -16.52783,16.52784z" data-paper-data="{&quot;index&quot;:null}" fill="#000000" stroke="none" stroke-width="0"/><path d="M215.45612,137.66671c0,-9.12808 7.39976,-16.52784 16.52783,-16.52784c9.12808,0 16.52784,7.39977 16.52784,16.52784c0,9.12808 -7.39977,16.52784 -16.52784,16.52784c-9.12808,0 -16.52783,-7.39977 -16.52783,-16.52784z" fill="#000000" stroke="none" stroke-width="0"/><path d="M284.96289,104.33178c-3.9295,-0.92235 -11.96762,-0.86207 -11.96762,-0.86207c0,0 7.24586,-1.8937 12.33413,-0.69937c5.08826,1.19433 11.79721,6.36355 11.79721,6.36355c0,0 -8.05724,-3.83822 -12.16372,-4.80211z" data-paper-data="{&quot;index&quot;:null}" fill="#000000" stroke="none" stroke-width="0"/><path d="M221.02839,109.13386c0,0 6.70895,-5.16922 11.79722,-6.36355c5.08827,-1.19433 12.33413,0.69937 12.33413,0.69937c0,0 -8.03812,-0.06028 -11.96762,0.86207c-4.10648,0.96388 -12.16372,4.80211 -12.16372,4.80211z" fill="#000000" stroke="none" stroke-width="0"/><path d="M249.5006,178.69418l37.5269,-8.55351v8.55351z" fill="#000000" stroke="#000000" stroke-width="2"/></g></g></svg>