<svg version="1.1" xmlns="http://www.w3.org/2000/svg" xmlns:xlink="http://www.w3.org/1999/xlink" width="552.54024" height="364.36414" viewBox="0,0,552.54024,364.36414"><defs><radialGradient cx="48.50675" cy="329.74675" r="23.48065" gradientUnits="userSpaceOnUse" id="color-1"><stop offset="0" stop-color="#808080"/><stop offset="1" stop-color="#804040"/></radialGradient><linearGradient x1="39.0465" y1="353.52047" x2="39.0465" y2="363.12047" gradientUnits="userSpaceOnUse" id="color-2"><stop offset="0" stop-color="#1a0000"/><stop offset="1" stop-color="#800000"/></linearGradient><linearGradient x1="75.63597" y1="301.38459" x2="75.63597" y2="357.55771" gradientUnits="userSpaceOnUse" id="color-3"><stop offset="0" stop-color="#333333"/><stop offset="1" stop-color="#999999"/></linearGradient></defs><g transform="translate(14.26458,-1.18823)"><g data-paper-data="{&quot;isPaintingLayer&quot;:true}" stroke-miterlimit="10" stroke-dasharray="" stroke-dashoffset="0" style="mix-blend-mode: normal"><path d="M19.64829,85.68751l-7.38022,3c0,0 -0.61983,-76.56595 73.48132,-76.66666c73.73495,-0.10021 72.51868,77.33333 72.51868,77.33333l-8.66374,-4c0,0 0.0045,-64.86172 -63.85494,-66.33334c-61.84366,-1.42516 -66.1011,66.66667 -66.1011,66.66667z" data-paper-data="{&quot;index&quot;:null}" fill="#bdbdbd" fill-rule="nonzero" stroke="#000000" stroke-width="2" stroke-linecap="butt" stroke-linejoin="miter"/><path d="M3.18473,101.8727c0,-12.51846 9.08054,-22.66667 20.28196,-22.66667c1.01424,0 1.18635,45.33333 0,45.33333c-11.20142,0 -20.28196,-10.14821 -20.28196,-22.66666z" data-paper-data="{&quot;index&quot;:null}" fill="#dadada" fill-rule="nonzero" stroke="#000000" stroke-width="2" stroke-linecap="butt" stroke-linejoin="miter"/><path d="M18.25534,125.8727v-48.33334h10.14098v48.33334z" data-paper-data="{&quot;index&quot;:null}" fill="#bdbdbd" fill-rule="nonzero" stroke="#000000" stroke-width="2" stroke-linecap="butt" stroke-linejoin="miter"/><path d="M147.4931,124.53936c-1.18635,0 -1.01423,-45.33333 0,-45.33333c11.20142,0 20.28197,10.14821 20.28197,22.66667c0,12.51845 -9.08055,22.66666 -20.28197,22.66666z" data-paper-data="{&quot;index&quot;:null}" fill="#dadada" fill-rule="nonzero" stroke="#000000" stroke-width="2" stroke-linecap="butt" stroke-linejoin="miter"/><path d="M142.20093,125.8727v-48.33334h10.14098v48.33334z" data-paper-data="{&quot;index&quot;:null}" fill="#bdbdbd" fill-rule="nonzero" stroke="#000000" stroke-width="2" stroke-linecap="butt" stroke-linejoin="miter"/><path d="M291.42366,73.97866c-5.95755,-5.01481 -6.49029,-14.18469 -1.18992,-20.48147c5.30037,-6.29678 48.28681,-35.46917 48.28681,-35.46917c0,0 -21.41226,47.33263 -26.71263,53.62941c-5.30037,6.29679 -14.42672,7.33603 -20.38427,2.32122z" data-paper-data="{&quot;index&quot;:null}" fill="#838383" fill-rule="nonzero" stroke="#000000" stroke-width="2" stroke-linecap="butt" stroke-linejoin="miter"/><path d="M194.96159,71.65743c-5.30037,-6.29678 -26.71263,-53.62941 -26.71263,-53.62941c0,0 42.98645,29.17238 48.28682,35.46917c5.30037,6.29679 4.76763,15.46666 -1.18992,20.48147c-5.95755,5.01481 -15.0839,3.97556 -20.38427,-2.32122z" fill="#838383" fill-rule="nonzero" stroke="#000000" stroke-width="2" stroke-linecap="butt" stroke-linejoin="miter"/><path d="M244.03074,28.57889c0,-3.51131 9.1,-24.84221 9.1,-24.84221c0,0 9.1,21.33091 9.1,24.84221c0,3.51131 -4.07421,6.35779 -9.1,6.35779c-5.02579,0 -9.1,-2.84648 -9.1,-6.35779z" fill="#838383" fill-rule="nonzero" stroke="#000000" stroke-width="2" stroke-linecap="butt" stroke-linejoin="miter"/><path d="M278.05807,34.7781c1.37321,-3.23165 18.0906,-19.30482 18.0906,-19.30482c0,0 0.03308,23.19088 -1.34013,26.42253c-1.37321,3.23165 -6.23614,4.25807 -10.86165,2.29257c-4.62552,-1.9655 -7.26202,-6.17862 -5.88882,-9.41027z" fill="#838383" fill-rule="nonzero" stroke="#000000" stroke-width="2" stroke-linecap="butt" stroke-linejoin="miter"/><path d="M224.56302,43.85505c-4.62552,1.9655 -9.48845,0.93908 -10.86166,-2.29257c-1.37321,-3.23165 -1.34013,-26.42253 -1.34013,-26.42253c0,0 16.71739,16.07317 18.0906,19.30482c1.37321,3.23165 -1.2633,7.44477 -5.88881,9.41027z" data-paper-data="{&quot;index&quot;:null}" fill="#838383" fill-rule="nonzero" stroke="#000000" stroke-width="2" stroke-linecap="butt" stroke-linejoin="miter"/><path d="M537.27566,68.81733c0,10.30931 -42.23447,18.66666 -94.33333,18.66666c-52.09886,0 -94.33333,-8.35735 -94.33333,-18.66666c0,-10.30931 42.23447,-23.66666 94.33333,-23.66666c52.09886,0 94.33333,13.35735 94.33333,23.66666z" fill="#babebf" fill-rule="nonzero" stroke="#000000" stroke-width="2" stroke-linecap="butt" stroke-linejoin="miter"/><path d="M443.98228,46.52043c7.21196,0 13.94953,0.37837 19.67189,1.03435c0.67244,0.07708 -16.05768,10.30149 -16.05768,10.30149l-6.0776,0.14849z" data-paper-data="{&quot;index&quot;:null}" fill="#ffffff" fill-rule="nonzero" stroke="#000000" stroke-width="0" stroke-linecap="butt" stroke-linejoin="miter"/><path d="M442.44232,85.78935c-17.46017,0 -33.77183,-0.91602 -47.62564,-2.50415c-1.62799,-0.18663 38.87564,-24.9399 38.87564,-24.9399l14.71387,-0.35948z" fill="#ffffff" fill-rule="nonzero" stroke="#000000" stroke-width="0" stroke-linecap="butt" stroke-linejoin="miter"/><path d="M434.41918,57.38099l2.86068,-40.04754c0,0 0.77342,-6.79148 -3.20744,-5.3051c-3.19631,1.19344 -10.92266,5.51814 -10.92266,5.51814c0,0 3.95548,-7.29662 8.98012,-9.95423c4.02875,-2.13086 9.17263,2.57207 9.17263,2.57207c0,0 4.73043,-4.16255 7.78452,-2.26642c4.01386,2.492 7.31197,9.83713 7.31197,9.83713c0,0 -5.97898,-3.40735 -8.62109,-4.74643c-2.91466,-1.4772 -3.20818,4.13691 -3.20818,4.13691l3.09945,40.25547c0,0 -2.43253,1.5 -6.67593,1.33334c-3.66806,-0.14407 -6.57407,-1.33334 -6.57407,-1.33334z" fill="#babebf" fill-rule="nonzero" stroke="#000000" stroke-width="2" stroke-linecap="butt" stroke-linejoin="miter"/><g fill-rule="nonzero" stroke="#000000" stroke-width="2" stroke-linecap="butt" stroke-linejoin="miter"><path d="M219.67964,181.66982v-70l7.33332,0.00001v70z" fill="#f0f0f0"/><path d="M205.67964,111.66982c0,-9.75702 7.90964,-17.66667 17.66666,-17.66667c9.75702,0 17.66667,7.90964 17.66667,17.66667c0,9.75702 -7.90964,17.66667 -17.66667,17.66667c-9.75702,0 -17.66666,-7.90964 -17.66666,-17.66667z" fill="#dadada"/></g><g fill-rule="nonzero" stroke="#000000" stroke-width="2" stroke-linecap="butt" stroke-linejoin="miter"><path d="M333.17963,181.66982v-70l7.33333,0.00001v70z" fill="#f0f0f0"/><path d="M319.17963,111.66982c0,-9.75702 7.90964,-17.66667 17.66666,-17.66667c9.75702,0 17.66667,7.90964 17.66667,17.66667c0,9.75702 -7.90965,17.66667 -17.66667,17.66667c-9.75702,0 -17.66666,-7.90964 -17.66666,-17.66667z" fill="#dadada"/></g><path d="M227.27349,155.60759h106.26448c6.43804,0 11.62097,5.18296 11.62097,11.62098v48.26449c0,6.43802 -5.18296,11.62098 -11.62097,11.62098h-106.26447c-6.43802,0 -11.62099,-5.18296 -11.62099,-11.62098v-48.26449c0,-6.43801 5.18297,-11.62098 11.62099,-11.62098z" fill="#dadada" fill-rule="evenodd" stroke="#000000" stroke-width="2" stroke-linecap="round" stroke-linejoin="round"/><path d="M235.20533,160.945h90.40082c5.47694,0 9.88614,4.40922 9.88614,9.88614v41.05934c0,5.47692 -4.40922,9.88614 -9.88614,9.88614h-90.4008c-5.47692,0 -9.88616,-4.40922 -9.88616,-9.88614v-41.05934c0,-5.47692 4.40923,-9.88614 9.88616,-9.88614z" fill="#000000" fill-rule="evenodd" stroke="#000000" stroke-width="2" stroke-linecap="round" stroke-linejoin="round"/><g data-paper-data="{&quot;index&quot;:null}" fill-rule="nonzero" stroke="#000000" stroke-width="2" stroke-linecap="butt" stroke-linejoin="miter"><path d="M440.37123,173.95404l-49.49748,-49.49748l5.18545,-5.18544l49.49747,49.49748z" fill="#f0f0f0"/><path d="M380.97426,134.35606c-6.89926,-6.89926 -6.89926,-18.08518 0,-24.98444c6.89926,-6.89926 18.08518,-6.89926 24.98444,0c6.89926,6.89926 6.89926,18.08518 0,24.98444c-6.89926,6.89926 -18.08518,6.89926 -24.98444,0z" fill="#dadada"/></g><path d="M102.27376,281.20802c-12.92088,-1.20561 -9.80557,-122.43002 -9.80557,-122.43002l12.67283,-1.75189c0,0 9.66941,125.35168 -2.86725,124.18191z" data-paper-data="{&quot;index&quot;:null}" fill="#006609" fill-rule="nonzero" stroke="#000000" stroke-width="2" stroke-linecap="butt" stroke-linejoin="miter"/><path d="M111.60709,269.87468c-12.92088,-1.20561 -8.80557,-109.76335 -8.80557,-109.76335l12.67282,-1.75189c0,0 8.66941,112.68501 -3.86725,111.51525z" data-paper-data="{&quot;index&quot;:null}" fill="#00800b" fill-rule="nonzero" stroke="#000000" stroke-width="2" stroke-linecap="butt" stroke-linejoin="miter"/><path d="M38.36428,137.35944l12.67282,1.75189c0,0 3.11531,139.22441 -9.80557,140.43003c-12.53666,1.16977 -2.86725,-142.18191 -2.86725,-142.18191z" fill="#006609" fill-rule="nonzero" stroke="#000000" stroke-width="2" stroke-linecap="butt" stroke-linejoin="miter"/><path d="M32.5765,270.31228c-12.8665,-1.68988 -4.5262,-105.69916 -4.5262,-105.69916l12.72966,-1.27485c0,0 4.28044,108.61365 -8.20346,106.97402z" data-paper-data="{&quot;index&quot;:null}" fill="#00800b" fill-rule="nonzero" stroke="#000000" stroke-width="2" stroke-linecap="butt" stroke-linejoin="miter"/><path d="M16.88931,259.562c-11.85707,-2.01666 0.80492,-97.76965 0.80492,-97.76965l12.76881,-0.7919c0,0 -1.16086,100.67273 -13.57373,98.56155z" data-paper-data="{&quot;index&quot;:null}" fill="#006609" fill-rule="nonzero" stroke="#000000" stroke-width="2" stroke-linecap="butt" stroke-linejoin="miter"/><path d="M125.26409,256.93346c-12.97213,-0.35584 -18.99203,-79.15159 -18.99203,-79.15159l12.53069,-2.57904c0,0 19.04773,82.07589 6.46134,81.73063z" data-paper-data="{&quot;index&quot;:null}" fill="#006609" fill-rule="nonzero" stroke="#000000" stroke-width="2" stroke-linecap="butt" stroke-linejoin="miter"/><path d="M129.20699,234.4727c-6.96196,-1.98495 2.87949,-14.59911 -0.90901,-27.03845c-3.24984,-10.67066 3.1711,-15.32245 6.4215,-4.65196c3.03726,9.97082 2.34727,33.93133 -5.51249,31.69041z" data-paper-data="{&quot;index&quot;:null}" fill="#006609" fill-rule="nonzero" stroke="#000000" stroke-width="2" stroke-linecap="butt" stroke-linejoin="miter"/><path d="M32.7779,165.81707c0,0 6.70895,-5.16922 11.79721,-6.36355c5.08827,-1.19433 12.33413,0.69937 12.33413,0.69937c0,0 -8.03812,-0.06028 -11.96762,0.86207c-4.10648,0.96389 -12.16372,4.80211 -12.16372,4.80211z" fill="#000000" fill-rule="nonzero" stroke="none" stroke-width="0" stroke-linecap="butt" stroke-linejoin="miter"/><path d="M3.22011,194.06153c8.91267,-6.70737 11.36062,0.8342 2.4483,7.54203c-10.38955,7.81966 -9.86848,23.81028 -16.66343,21.31277c-7.67121,-2.81958 5.88687,-22.58725 14.21513,-28.8548z" data-paper-data="{&quot;index&quot;:null}" fill="#006609" fill-rule="nonzero" stroke="#000000" stroke-width="2" stroke-linecap="butt" stroke-linejoin="miter"/><path d="M20.08895,194.3256l-3.6,-2.6" fill="none" fill-rule="nonzero" stroke="#000000" stroke-width="2" stroke-linecap="round" stroke-linejoin="miter"/><path d="M15.45292,145.43361c17.26267,-17.00054 45.16881,-25.8907 50.38685,-16.61226c4.12391,7.33291 -20.66933,2.94544 -43.61423,28.07498c-19.53961,21.40003 -16.41285,52.3994 -29.43331,48.98256c-12.8581,-3.37423 11.01223,-48.9737 22.66069,-60.44528z" fill="#00cc11" fill-rule="nonzero" stroke="#000000" stroke-width="2" stroke-linecap="butt" stroke-linejoin="miter"/><path d="M17.10266,154.06203c15.07986,-18.96354 41.70594,-31.1635 48.00784,-22.58425c4.9805,6.78033 -20.16137,5.42364 -39.8986,33.14374c-16.808,23.60612 -9.95502,53.99978 -23.29315,52.18276c-13.17181,-1.79437 5.00836,-49.94606 15.18391,-62.74224z" fill="#00e613" fill-rule="nonzero" stroke="#000000" stroke-width="2" stroke-linecap="butt" stroke-linejoin="miter"/><path d="M84.81736,128.85868c-0.17572,2.91984 -7.20804,4.71609 -15.70713,4.01203c-8.49909,-0.70406 -15.24652,-3.64181 -15.0708,-6.56165c0.17572,-2.91984 7.20804,-4.71609 15.70713,-4.01203c8.49909,0.70406 15.24652,3.64181 15.0708,6.56165z" fill="#00ff15" fill-rule="nonzero" stroke="#000000" stroke-width="2" stroke-linecap="butt" stroke-linejoin="miter"/><path d="M145.42219,210.26778c-13.08627,3.15544 -9.3394,-27.77512 -28.44657,-49.56212c-22.4371,-25.58395 -47.31322,-21.69383 -43.04331,-28.94269c5.40279,-9.17209 33.12532,0.27508 50.04411,17.61788c11.41641,11.70253 34.36887,57.77084 21.44578,60.88693z" data-paper-data="{&quot;index&quot;:null}" fill="#00b30f" fill-rule="nonzero" stroke="#000000" stroke-width="2" stroke-linecap="butt" stroke-linejoin="miter"/><path d="M140.85068,220.30851c-13.38485,1.43288 -5.66106,-28.75125 -21.78356,-52.83075c-18.93227,-28.27598 -44.10275,-27.64254 -38.92941,-34.2769c6.54591,-8.39455 32.81031,4.56571 47.33883,23.95489c9.80352,13.08338 26.59208,61.73776 13.37414,63.15277z" data-paper-data="{&quot;index&quot;:null}" fill="#00e613" fill-rule="nonzero" stroke="#000000" stroke-width="2" stroke-linecap="butt" stroke-linejoin="miter"/><g fill-rule="nonzero" stroke="#000000" stroke-width="2" stroke-linecap="butt" stroke-linejoin="miter"><path d="M2.11386,165.23533c0,-3.09425 2.00108,-3.92708 4.46952,-3.92708c2.46845,0 4.46952,0.83283 4.46952,3.92708c0,3.09425 -2.00107,7.27819 -4.46952,7.27819c-2.46845,0 -4.46952,-4.18394 -4.46952,-7.27819z" fill="#ff80ee"/><path d="M11.05289,186.4645c0,3.09425 -2.00107,3.92708 -4.46952,3.92708c-2.46845,0 -4.46952,-0.83283 -4.46952,-3.92708c0,-3.09425 2.00108,-7.27819 4.46952,-7.27819c2.46845,0 4.46952,4.18394 4.46952,7.27819z" fill="#ff80ee"/><path d="M-4.03122,180.31943c-3.09425,0 -3.92708,-2.00108 -3.92708,-4.46952c0,-2.46845 0.83283,-4.46952 3.92708,-4.46952c3.09425,0 7.27819,2.00108 7.27819,4.46952c0,2.46845 -4.18394,4.46952 -7.27819,4.46952z" fill="#ff80ee"/><path d="M17.19796,171.38039c3.09425,0 3.92708,2.00108 3.92708,4.46952c0,2.46845 -0.83283,4.46952 -3.92708,4.46952c-3.09425,0 -7.27819,-2.00108 -7.27819,-4.46952c0,-2.46845 4.18394,-4.46952 7.27819,-4.46952z" fill="#ff80ee"/><path d="M-4.08272,171.50469c-2.18796,-2.18797 -1.3619,-4.19183 0.38356,-5.93729c1.74545,-1.74546 3.74933,-2.57153 5.93729,-0.38357c2.18796,2.18797 3.73148,6.56143 1.98603,8.30689c-1.74545,1.74546 -6.11892,0.20194 -8.30688,-1.98603z" fill="#ff80ee"/><path d="M17.24943,180.19513c2.18796,2.18797 1.36189,4.19183 -0.38357,5.93729c-1.74545,1.74545 -3.74933,2.57153 -5.93729,0.38357c-2.18796,-2.18797 -3.73148,-6.56143 -1.98603,-8.30689c1.74545,-1.74546 6.11892,-0.20194 8.30689,1.98603z" fill="#ff80ee"/><path d="M2.23814,186.51599c-2.18796,2.18796 -4.19184,1.36189 -5.93729,-0.38357c-1.74545,-1.74546 -2.57152,-3.74932 -0.38356,-5.93729c2.18796,-2.18797 6.56143,-3.73149 8.30688,-1.98603c1.74545,1.74546 0.20193,6.11892 -1.98603,8.30689z" fill="#ff80ee"/><path d="M10.9286,165.18384c2.18796,-2.18797 4.19184,-1.36189 5.93729,0.38357c1.74545,1.74546 2.57153,3.74932 0.38357,5.93729c-2.18796,2.18797 -6.56143,3.73149 -8.30689,1.98603c-1.74545,-1.74546 -0.20193,-6.11892 1.98603,-8.30689z" fill="#ff80ee"/><path d="M0.66598,175.72401c0,-3.26808 2.6493,-5.91739 5.91739,-5.91739c3.26809,0 5.91739,2.6493 5.91739,5.91739c0,3.26808 -2.6493,5.91739 -5.91739,5.91739c-3.26809,0 -5.91739,-2.6493 -5.91739,-5.91739z" fill="#ffe900"/></g><path d="M20.74914,183.01671c6.90372,-8.76146 11.19683,-2.09536 4.29357,6.66646c-8.04749,10.2141 -3.45915,25.54115 -10.66664,24.86216c-8.13695,-0.76656 -0.07797,-23.34165 6.37307,-31.52861z" data-paper-data="{&quot;index&quot;:null}" fill="#00ff15" fill-rule="nonzero" stroke="#000000" stroke-width="2" stroke-linecap="butt" stroke-linejoin="miter"/><path d="M11.22835,181.42828c10.71804,-14.44813 20.47709,-26.1289 25.95351,-34.10829c6.86286,-9.99948 14.19538,-24.89167 21.27749,-21.66365c7.39562,3.37092 -0.38835,20.64223 -7.47701,30.97072c-5.45336,7.94578 -21.3435,21.70373 -32.01189,36.08648c-13.37042,18.02553 -4.68475,44.2372 -17.15317,43.42784c-14.07632,-0.91374 -1.30697,-40.26497 9.41108,-54.7131z" fill="#00ff15" fill-rule="nonzero" stroke="#000000" stroke-width="2" stroke-linecap="butt" stroke-linejoin="miter"/><g fill-rule="nonzero" stroke="#000000" stroke-width="2" stroke-linecap="butt" stroke-linejoin="miter"><path d="M13.77908,193.39841c0,-2.17218 1.40476,-2.75683 3.13763,-2.75683c1.73287,0 3.13762,0.58465 3.13762,2.75683c0,2.17218 -1.40476,5.10933 -3.13762,5.10933c-1.73287,0 -3.13763,-2.93715 -3.13763,-5.10933z" fill="#ff80ee"/><path d="M20.05432,208.30141c0,2.17218 -1.40476,2.75683 -3.13762,2.75683c-1.73287,0 -3.13763,-0.58465 -3.13763,-2.75683c0,-2.17218 1.40476,-5.10933 3.13763,-5.10933c1.73287,0 3.13762,2.93715 3.13762,5.10933z" fill="#ff80ee"/><path d="M9.4652,203.98754c-2.17218,0 -2.75683,-1.40476 -2.75683,-3.13763c0,-1.73287 0.58465,-3.13763 2.75683,-3.13763c2.17218,0 5.10933,1.40476 5.10933,3.13763c0,1.73287 -2.93715,3.13763 -5.10933,3.13763z" fill="#ff80ee"/><path d="M24.36821,197.71228c2.17218,0 2.75683,1.40476 2.75683,3.13763c0,1.73287 -0.58465,3.13763 -2.75683,3.13763c-2.17218,0 -5.10933,-1.40476 -5.10933,-3.13763c0,-1.73287 2.93715,-3.13763 5.10933,-3.13763z" fill="#ff80ee"/><path d="M9.42907,197.79954c-1.53597,-1.53597 -0.95606,-2.94269 0.26926,-4.16801c1.22532,-1.22532 2.63205,-1.80523 4.16801,-0.26926c1.53597,1.53597 2.61953,4.60616 1.3942,5.83148c-1.22532,1.22532 -4.29551,0.14176 -5.83148,-1.3942z" fill="#ff80ee"/><path d="M24.40436,203.90028c1.53597,1.53597 0.95606,2.94269 -0.26926,4.16801c-1.22532,1.22532 -2.63205,1.80523 -4.16801,0.26926c-1.53597,-1.53597 -2.61953,-4.60616 -1.3942,-5.83148c1.22532,-1.22532 4.29551,-0.14176 5.83148,1.3942z" fill="#ff80ee"/><path d="M13.86634,208.33755c-1.53597,1.53597 -2.94269,0.95606 -4.16801,-0.26926c-1.22532,-1.22532 -1.80523,-2.63205 -0.26926,-4.16801c1.53597,-1.53597 4.60616,-2.61953 5.83148,-1.3942c1.22532,1.22532 0.14176,4.29551 -1.3942,5.83148z" fill="#ff80ee"/><path d="M19.96708,193.36227c1.53597,-1.53597 2.94269,-0.95606 4.16801,0.26926c1.22532,1.22532 1.80523,2.63205 0.26926,4.16801c-1.53597,1.53597 -4.60616,2.61953 -5.83148,1.3942c-1.22532,-1.22532 -0.14176,-4.29551 1.3942,-5.83148z" fill="#ff80ee"/><path d="M12.76267,200.76153c0,-2.29422 1.85982,-4.15404 4.15404,-4.15404c2.29422,0 4.15404,1.85983 4.15404,4.15404c0,2.29422 -1.85983,4.15404 -4.15404,4.15404c-2.29422,0 -4.15404,-1.85982 -4.15404,-4.15404z" fill="#ffe900"/></g><path d="M85.62709,141.27571c0,0 20.59278,-12.62253 20.49553,-22.78685c-0.05559,-5.80918 -9.35213,-14.77672 -10.61022,-24.96033c-1.65819,-13.42209 11.36908,-24.59081 11.36908,-24.59081c0,0 -2.63261,10.4951 -1.39167,22.97406c0.98893,9.94474 9.07141,12.99485 12.10662,25.90051c2.97256,12.63927 -8.84819,33.90582 -8.84819,33.90582c0,0 -3.71802,4.22417 -14.22073,-0.55159c-9.55091,-4.34297 -8.90042,-9.8908 -8.90042,-9.8908z" fill="#004d05" fill-rule="nonzero" stroke="#000000" stroke-width="2" stroke-linecap="butt" stroke-linejoin="miter"/><path d="M23.4586,193.05451c7.18894,-16.49072 19.73798,-30.69582 23.27674,-39.70355c4.43464,-11.28816 8.22503,-27.4491 15.85217,-25.89892c7.96479,1.6188 4.27034,20.19942 -0.31022,31.85899c-3.52385,8.96979 -18.83197,22.18123 -25.98726,38.59707c-8.96753,20.57356 -0.27326,44.78246 -14.22908,42.72994c-10.96897,-1.61323 -5.79129,-31.09281 1.39765,-47.58353z" fill="#00b30f" fill-rule="nonzero" stroke="#000000" stroke-width="2" stroke-linecap="butt" stroke-linejoin="miter"/><path d="M75.10482,173.07762c-7.0695,-1.55921 1.98909,-14.74684 -2.54661,-26.9336c-3.8908,-10.454 2.23631,-15.48652 6.12765,-5.03272c3.63618,9.76833 4.40012,33.7266 -3.58104,31.96632z" data-paper-data="{&quot;index&quot;:null}" fill="#00cc11" fill-rule="nonzero" stroke="#000000" stroke-width="2" stroke-linecap="butt" stroke-linejoin="miter"/><path d="M137.49481,191.94798c-12.48388,6.55641 -9.50436,-12.89697 -22.10669,-23.3573c-10.05552,-8.34641 -26.98442,-11.51856 -32.12181,-16.22237c-6.67795,-6.11434 -16.38411,-18.59641 -9.35299,-22.63811c6.73306,-3.87037 16.0217,6.95432 22.48694,12.8739c5.15913,4.7237 19.74293,9.58608 29.84528,17.97019c10.10234,8.3841 21.06134,26.22052 11.24928,31.37371z" data-paper-data="{&quot;index&quot;:null}" fill="#00ff15" fill-rule="nonzero" stroke="#000000" stroke-width="2" stroke-linecap="butt" stroke-linejoin="miter"/><path d="M38.66487,176.75592c5.58244,-11.8822 16.71809,-22.48068 19.38112,-28.94892c3.33723,-8.10577 5.56837,-19.5644 13.30793,-18.9218c8.08218,0.67105 6.17735,13.80741 2.73032,22.17988c-2.65182,6.441 -16.62851,16.50589 -22.18459,28.33408c-6.96329,14.82397 3.99991,31.16776 -10.08684,30.53728c-11.07187,-0.49554 -8.73038,-21.29831 -3.14794,-33.18051z" fill="#00ff15" fill-rule="nonzero" stroke="#000000" stroke-width="2" stroke-linecap="butt" stroke-linejoin="miter"/><g fill-rule="nonzero" stroke="#000000" stroke-width="2" stroke-linecap="butt" stroke-linejoin="miter"><path d="M38.75599,133.80218c0,-3.80353 2.45977,-4.82727 5.49405,-4.82727c3.03428,0 5.49405,1.02374 5.49405,4.82727c0,3.80353 -2.45977,8.94654 -5.49405,8.94654c-3.03428,0 -5.49405,-5.14301 -5.49405,-8.94654z" fill="#ff80ee"/><path d="M49.74409,159.89764c0,3.80353 -2.45977,4.82727 -5.49405,4.82727c-3.03428,0 -5.49405,-1.02374 -5.49405,-4.82727c0,-3.80353 2.45977,-8.94654 5.49405,-8.94654c3.03428,0 5.49405,5.14301 5.49405,8.94654z" fill="#ff80ee"/><path d="M31.20231,152.34396c-3.80354,0 -4.82727,-2.45977 -4.82727,-5.49405c0,-3.03428 1.02373,-5.49405 4.82727,-5.49405c3.80354,0 8.94654,2.45977 8.94654,5.49405c0,3.03428 -5.143,5.49405 -8.94654,5.49405z" fill="#ff80ee"/><path d="M57.29777,141.35586c3.80354,0 4.82727,2.45977 4.82727,5.49405c0,3.03428 -1.02373,5.49405 -4.82727,5.49405c-3.80354,0 -8.94654,-2.45977 -8.94654,-5.49405c0,-3.03428 5.143,-5.49405 8.94654,-5.49405z" fill="#ff80ee"/><path d="M31.13902,141.50865c-2.6895,-2.6895 -1.67407,-5.15271 0.47149,-7.29827c2.14556,-2.14556 4.60877,-3.16099 7.29827,-0.47149c2.6895,2.6895 4.58684,8.06548 2.44128,10.21104c-2.14556,2.14556 -7.52153,0.24822 -10.21104,-2.44128z" fill="#ff80ee"/><path d="M57.36106,152.19117c2.6895,2.6895 1.67407,5.15271 -0.47149,7.29827c-2.14556,2.14556 -4.60877,3.16099 -7.29827,0.47149c-2.6895,-2.6895 -4.58684,-8.06548 -2.44128,-10.21104c2.14556,-2.14556 7.52154,-0.24822 10.21104,2.44128z" fill="#ff80ee"/><path d="M38.90878,159.96093c-2.6895,2.6895 -5.15272,1.67408 -7.29827,-0.47149c-2.14556,-2.14556 -3.16099,-4.60877 -0.47149,-7.29827c2.6895,-2.6895 8.06548,-4.58684 10.21104,-2.44128c2.14556,2.14556 0.24822,7.52154 -2.44128,10.21104z" fill="#ff80ee"/><path d="M49.5913,133.73889c2.6895,-2.6895 5.15272,-1.67408 7.29827,0.47149c2.14556,2.14556 3.16099,4.60877 0.47149,7.29827c-2.6895,2.6895 -8.06548,4.58684 -10.21104,2.44128c-2.14556,-2.14556 -0.24822,-7.52153 2.44128,-10.21104z" fill="#ff80ee"/><path d="M36.97623,146.69515c0,-4.01721 3.2566,-7.27381 7.27381,-7.27381c4.01721,0 7.27381,3.2566 7.27381,7.27381c0,4.01721 -3.2566,7.27381 -7.27381,7.27381c-4.01721,0 -7.27381,-3.2566 -7.27381,-7.27381z" fill="#ffe900"/></g><g fill-rule="nonzero" stroke="#000000" stroke-width="2" stroke-linecap="butt" stroke-linejoin="miter"><path d="M120.44573,153.06508c0,-2.17218 1.40476,-2.75683 3.13763,-2.75683c1.73287,0 3.13763,0.58465 3.13763,2.75683c0,2.17218 -1.40476,5.10933 -3.13763,5.10933c-1.73287,0 -3.13763,-2.93715 -3.13763,-5.10933z" fill="#ff80ee"/><path d="M126.72099,167.96808c0,2.17218 -1.40476,2.75683 -3.13763,2.75683c-1.73287,0 -3.13763,-0.58465 -3.13763,-2.75683c0,-2.17218 1.40476,-5.10932 3.13763,-5.10932c1.73287,0 3.13763,2.93715 3.13763,5.10932z" fill="#ff80ee"/><path d="M116.13187,163.65421c-2.17218,0 -2.75683,-1.40476 -2.75683,-3.13763c0,-1.73287 0.58465,-3.13763 2.75683,-3.13763c2.17218,0 5.10933,1.40476 5.10933,3.13763c0,1.73287 -2.93715,3.13763 -5.10933,3.13763z" fill="#ff80ee"/><path d="M131.03488,157.37895c2.17218,0 2.75683,1.40476 2.75683,3.13763c0,1.73287 -0.58465,3.13763 -2.75683,3.13763c-2.17218,0 -5.10933,-1.40476 -5.10933,-3.13763c0,-1.73287 2.93715,-3.13763 5.10933,-3.13763z" fill="#ff80ee"/><path d="M116.09572,157.46621c-1.53596,-1.53597 -0.95606,-2.94269 0.26926,-4.16801c1.22532,-1.22532 2.63205,-1.80523 4.16801,-0.26927c1.53596,1.53597 2.61953,4.60616 1.3942,5.83148c-1.22532,1.22532 -4.29551,0.14176 -5.83148,-1.3942z" fill="#ff80ee"/><path d="M131.07101,163.56695c1.53596,1.53597 0.95605,2.94269 -0.26927,4.16801c-1.22532,1.22532 -2.63205,1.80523 -4.16801,0.26926c-1.53596,-1.53597 -2.61953,-4.60616 -1.3942,-5.83148c1.22532,-1.22532 4.29552,-0.14176 5.83148,1.3942z" fill="#ff80ee"/><path d="M120.533,168.00422c-1.53596,1.53597 -2.94269,0.95606 -4.16801,-0.26926c-1.22532,-1.22532 -1.80523,-2.63205 -0.26926,-4.16801c1.53596,-1.53597 4.60616,-2.61952 5.83148,-1.3942c1.22532,1.22532 0.14176,4.29551 -1.3942,5.83148z" fill="#ff80ee"/><path d="M126.63375,153.02893c1.53596,-1.53597 2.94269,-0.95605 4.16801,0.26927c1.22532,1.22532 1.80523,2.63204 0.26927,4.16801c-1.53596,1.53597 -4.60616,2.61952 -5.83148,1.3942c-1.22532,-1.22532 -0.14176,-4.29551 1.3942,-5.83148z" fill="#ff80ee"/><path d="M119.42933,160.42819c0,-2.29421 1.85983,-4.15404 4.15404,-4.15404c2.29422,0 4.15404,1.85983 4.15404,4.15404c0,2.29421 -1.85983,4.15404 -4.15404,4.15404c-2.29422,0 -4.15404,-1.85983 -4.15404,-4.15404z" fill="#ffe900"/></g><path d="M459.24631,136.1118c8.3699,-8.95381 57.87822,-27.76515 57.87822,-27.76515c0,0 -15.43499,50.66262 -23.80489,59.61643c-8.3699,8.95381 -22.78262,9.08215 -32.19171,0.28667c-9.40909,-8.79548 -10.25152,-23.18413 -1.88162,-32.13794z" data-paper-data="{&quot;index&quot;:null}" fill="#a9a9a9" fill-rule="nonzero" stroke="#000000" stroke-width="2" stroke-linecap="butt" stroke-linejoin="miter"/><g fill-rule="nonzero" stroke="#000000" stroke-linejoin="miter"><path d="M445.33041,185.40992l7.57454,106.96654c0,0 -23.39218,7.44905 -55.74031,4.65238c-31.47015,-2.72077 -48.2035,-9.82848 -48.2035,-9.82848l19.15388,-105.63555c0,0 14.44013,-6.9705 40.09894,-5.21869c24.9018,1.70013 37.11647,9.06379 37.11647,9.06379z" fill="#333333" stroke-width="2" stroke-linecap="butt"/><path d="M445.33041,185.40992l7.57454,106.96654c0,0 -23.39218,7.44905 -55.74031,4.65238c-31.47015,-2.72077 -48.2035,-9.82848 -48.2035,-9.82848l19.15388,-105.63555c0,0 25.5394,5.30472 38.27675,5.939c12.99592,0.64715 38.93866,-2.09391 38.93866,-2.09391z" fill="#808080" stroke-width="2" stroke-linecap="butt"/><path d="M452.11454,291.77983c0,0 21.55612,17.25244 -8.75297,30.00902c-34.72487,14.61511 -94.73284,-34.418 -94.73284,-34.418" fill="none" stroke-width="2" stroke-linecap="round"/><path d="M444.39719,186.49035l7.71138,105.30835c0,0 -26.02866,6.75891 -56.58342,4.11729c-29.72546,-2.56994 -45.46815,-9.48089 -45.46815,-9.48089l2.51836,-13.88902c0,0 25.928,25.14506 59.88642,9.50351c31.63036,-14.56923 31.93541,-95.55923 31.93541,-95.55923z" fill="#666666" stroke-width="0" stroke-linecap="butt"/></g><path d="M193.65683,173.43794c0,-5.37706 5.3,-38.04221 5.3,-38.04221c0,0 5.3,32.66517 5.3,38.04221" fill="#dadada" fill-rule="nonzero" stroke="#000000" stroke-width="2" stroke-linecap="butt" stroke-linejoin="miter"/><path d="M217.26138,277.51831h-59.75c0,0 -3.94677,-0.84542 -4,-5.5c-0.04866,-4.25441 4,-5.5 4,-5.5h59.75z" fill="#dadada" fill-rule="nonzero" stroke="#000000" stroke-width="2" stroke-linecap="butt" stroke-linejoin="miter"/><path d="M226.66191,273.10587c0,-12.968 10.51265,-23.48065 23.48065,-23.48065c12.968,0 23.48065,10.51265 23.48065,23.48065c0,1.2138 -46.96131,0 -46.96131,0z" data-paper-data="{&quot;index&quot;:null}" fill="#ffc533" fill-rule="nonzero" stroke="#000000" stroke-width="2" stroke-linecap="butt" stroke-linejoin="miter"/><path d="M228.05169,266.51831h59.75c0,0 4.04866,1.24559 4,5.5c-0.05323,4.65458 -4,5.5 -4,5.5h-59.75z" data-paper-data="{&quot;index&quot;:null}" fill="#dadada" fill-rule="nonzero" stroke="#000000" stroke-width="2" stroke-linecap="butt" stroke-linejoin="miter"/><path d="M169.38145,244.2443h106.26448c6.43804,0 11.62097,5.18296 11.62097,11.62098v32.93116c0,6.43802 -5.18296,11.62098 -11.62097,11.62098h-106.26447c-6.43802,0 -11.62099,-5.18296 -11.62099,-11.62098v-32.93116c0,-6.43801 5.18297,-11.62098 11.62099,-11.62098z" fill="#dadada" fill-rule="evenodd" stroke="#000000" stroke-width="2" stroke-linecap="round" stroke-linejoin="round"/><path d="M180.68885,251.02531h85.64864c5.18902,0 9.36645,4.17744 9.36645,9.36645v26.54235c0,5.18901 -4.17744,9.36645 -9.36645,9.36645h-85.64864c-5.18901,0 -9.36646,-4.17744 -9.36646,-9.36645v-26.54235c0,-5.18901 4.17745,-9.36645 9.36646,-9.36645z" fill="#000000" fill-rule="evenodd" stroke="#000000" stroke-width="0" stroke-linecap="round" stroke-linejoin="round"/><path d="M180.18899,250.19261h85.64864c5.18902,0 9.36645,4.17744 9.36645,9.36645v26.54235c0,5.18901 -4.17744,9.36645 -9.36645,9.36645h-85.64864c-5.18901,0 -9.36646,-4.17744 -9.36646,-9.36645v-26.54235c0,-5.18901 4.17745,-9.36645 9.36646,-9.36645z" fill="none" fill-rule="evenodd" stroke="#000000" stroke-width="2" stroke-linecap="round" stroke-linejoin="round"/><g><path d="M32.09151,329.47113c0,-9.12808 7.39976,-16.52784 16.52783,-16.52784c9.12808,0 16.52784,7.39977 16.52784,16.52784c0,9.12808 -7.39977,16.52784 -16.52784,16.52784c-9.12808,0 -16.52783,-7.39977 -16.52783,-16.52784z" fill="#000000" fill-rule="nonzero" stroke="none" stroke-width="0" stroke-linecap="butt" stroke-linejoin="miter"/><path d="M102.7652,353.2274c-12.968,0 -23.48065,-10.51265 -23.48065,-23.48065c0,-12.968 10.51265,-23.48065 23.48065,-23.48065c12.968,0 23.48065,10.51265 23.48065,23.48065c0,12.968 -10.51265,23.48065 -23.48065,23.48065z" data-paper-data="{&quot;index&quot;:null}" fill="#ffffff" fill-rule="nonzero" stroke="#000000" stroke-width="2" stroke-linecap="butt" stroke-linejoin="miter"/><path d="M102.65263,345.99898c-9.12807,0 -16.52783,-7.39977 -16.52783,-16.52784c0,-9.12808 7.39977,-16.52784 16.52783,-16.52784c9.12807,0 16.52783,7.39977 16.52783,16.52784c0,9.12808 -7.39977,16.52784 -16.52783,16.52784z" data-paper-data="{&quot;index&quot;:null}" fill="#000000" fill-rule="nonzero" stroke="none" stroke-width="0" stroke-linecap="butt" stroke-linejoin="miter"/><path d="M69.88404,334.15922h-59.75c0,0 -3.94677,-0.84542 -4,-5.5c-0.04866,-4.25441 4,-5.5 4,-5.5h59.75z" fill="#1a1405" fill-rule="nonzero" stroke="#000000" stroke-width="0" stroke-linecap="butt" stroke-linejoin="miter"/><path d="M79.28457,329.74675c0,-12.968 10.51265,-23.48065 23.48065,-23.48065c12.968,0 23.48065,10.51265 23.48065,23.48065c0,1.2138 -46.96131,0 -46.96131,0z" data-paper-data="{&quot;index&quot;:null}" fill="#ffc533" fill-rule="nonzero" stroke="#000000" stroke-width="2" stroke-linecap="butt" stroke-linejoin="miter"/><path d="M25.02612,329.74675c0,-12.968 10.51265,-23.48065 23.48065,-23.48065c12.968,0 23.48065,10.51265 23.48065,23.48065c0,12.968 -10.51265,23.48065 -23.48065,23.48065c-12.968,0 -23.48065,-10.51265 -23.48065,-23.48065z" fill="url(#color-1)" fill-rule="nonzero" stroke="#000000" stroke-width="0" stroke-linecap="butt" stroke-linejoin="miter"/><path d="M80.67435,323.15922h59.75c0,0 4.04866,1.24559 4,5.5c-0.05323,4.65458 -4,5.5 -4,5.5h-59.75z" data-paper-data="{&quot;index&quot;:null}" fill="#1a1405" fill-rule="nonzero" stroke="#000000" stroke-width="0" stroke-linecap="butt" stroke-linejoin="miter"/><path d="M37.4465,360.92045c-2.71429,-0.06487 -3.4,-7.4 -3.4,-7.4h10c0,0 2.31387,11.37115 -1.2,12c-2.65777,0.47564 -2.04139,-4.51974 -5.4,-4.6z" fill="url(#color-2)" fill-rule="nonzero" stroke="none" stroke-width="0" stroke-linecap="butt" stroke-linejoin="miter"/><path d="M32.09151,329.47113c0,-9.12808 7.39976,-16.52784 16.52783,-16.52784c9.12808,0 16.52784,7.39977 16.52784,16.52784c0,9.12808 -7.39977,16.52784 -16.52784,16.52784c-9.12808,0 -16.52783,-7.39977 -16.52783,-16.52784z" fill="#000000" fill-rule="nonzero" stroke="none" stroke-width="0" stroke-linecap="butt" stroke-linejoin="miter"/><path d="M128.76821,301.38459c6.43804,0 11.62097,5.18296 11.62097,11.62098v32.93116c0,6.43802 -5.18296,11.62098 -11.62097,11.62098h-106.26447c-6.43802,0 -11.62099,-5.18296 -11.62099,-11.62098v-32.93116c0,-6.43801 5.18297,-11.62098 11.62099,-11.62098zM89.57483,349.60239l-9.4,-41.6c0,0 -22.07402,-1.42368 -30.85484,-0.87056c-8.097,0.51005 -19.94516,4.07056 -19.94516,4.07056c0,0 -3.39043,9.85647 -3.7885,15.82744c-0.4019,6.02848 1.3885,20.17256 1.3885,20.17256l11.991,3.4348l30.81044,0.83545z" fill="url(#color-3)" fill-rule="evenodd" stroke="#000000" stroke-width="0" stroke-linecap="round" stroke-linejoin="round"/><path d="M33.14498,307.16684h85.64864c5.18902,0 9.36645,4.17744 9.36645,9.36645v26.54235c0,5.18901 -4.17744,9.36645 -9.36645,9.36645h-85.64864c-5.18901,0 -9.36646,-4.17744 -9.36646,-9.36645v-26.54235c0,-5.18901 4.17745,-9.36645 9.36646,-9.36645zM47.17482,350.00238l7.61558,-3.23865l4.8967,2.03074l3.26425,-5.44534l5.07596,-1.91433l-0.95009,-4.21655l9.01081,-0.05588l-4.71321,-9.15999l1.91257,-10.02215l-6.86103,-3.04008l-7.73357,-5.55774l-10.17882,-0.24641l-8.82634,-0.23493l-5.19743,6.92437l-5.68461,2.05052l1.56923,9.32641l-2.19707,5.78291l5.07995,5.87115l0.86239,8.03844l8.04413,-0.81016z" fill="#000000" fill-rule="evenodd" stroke="#000000" stroke-width="0" stroke-linecap="round" stroke-linejoin="round"/><path d="M32.81165,306.83351h85.64864c5.18902,0 9.36645,4.17744 9.36645,9.36645v26.54235c0,5.18901 -4.17744,9.36645 -9.36645,9.36645h-85.64864c-5.18901,0 -9.36646,-4.17744 -9.36646,-9.36645v-26.54235c0,-5.18901 4.17745,-9.36645 9.36646,-9.36645z" fill="none" fill-rule="evenodd" stroke="#000000" stroke-width="0" stroke-linecap="round" stroke-linejoin="round"/></g></g></g></svg>