<svg version="1.1" xmlns="http://www.w3.org/2000/svg" xmlns:xlink="http://www.w3.org/1999/xlink" width="34.17311" height="34.17311" viewBox="0,0,34.17311,34.17311"><g transform="translate(-222.91344,-162.91344)"><g data-paper-data="{&quot;isPaintingLayer&quot;:true}" stroke-miterlimit="10" stroke-dasharray="" stroke-dashoffset="0" style="mix-blend-mode: normal"><path d="M229.98311,162.91345h20.03379c3.9166,0 7.06966,3.15307 7.06966,7.06966v20.03379c0,3.91659 -3.15306,7.06966 -7.06966,7.06966h-20.03379c-3.91659,0 -7.06966,-3.15307 -7.06966,-7.06966v-20.03379c0,-3.91659 3.15307,-7.06966 7.06966,-7.06966z" fill-opacity="0.09677" fill="#191919" fill-rule="evenodd" stroke="none" stroke-width="4.43922" stroke-linecap="round" stroke-linejoin="round"/><g fill-rule="nonzero" stroke="#000000" stroke-width="0.5" stroke-linejoin="miter"><path d="M235.03621,176.48454l4.42244,-3.46104l-0.25638,2.17917l4.58267,-2.21122l-0.92935,4.10197" data-paper-data="{&quot;index&quot;:null}" fill="#bababa" stroke-linecap="round"/><g stroke-linecap="butt"><path d="M227.34191,183.21892l-1.41907,0.57684c0,0 -0.11918,-14.72209 14.12897,-14.74146c14.17774,-0.01927 13.94388,14.86964 13.94388,14.86964l-1.66586,-0.76912c0,0 0.00087,-12.4716 -12.27802,-12.75456c-11.89129,-0.27403 -12.7099,12.81866 -12.7099,12.81866z" fill="#d7d7d7"/><path d="M224.1763,186.331c0,-2.40705 1.746,-4.35834 3.89981,-4.35834c0.19502,0 0.22811,8.71668 0,8.71668c-2.15381,0 -3.89981,-1.95129 -3.89981,-4.35834z" fill="#bababa"/><path d="M227.07408,190.94572v-9.29353h1.94991v9.29353z" fill="#d7d7d7"/><path d="M251.92389,190.68934c-0.22811,0 -0.19502,-8.71668 0,-8.71668c2.15381,0 3.89981,1.9513 3.89981,4.35834c0,2.40705 -1.746,4.35834 -3.89981,4.35834z" data-paper-data="{&quot;index&quot;:null}" fill="#bababa"/><path d="M250.90632,190.94572v-9.29353h1.94991v9.29353z" fill="#d7d7d7"/></g></g></g></g></svg>