<svg version="1.1" xmlns="http://www.w3.org/2000/svg" xmlns:xlink="http://www.w3.org/1999/xlink" width="137.29958" height="267.22501" viewBox="0,0,137.29958,267.22501"><g transform="translate(-171.36696,-51.35091)"><g data-paper-data="{&quot;isPaintingLayer&quot;:true}" fill-rule="nonzero" stroke-linejoin="miter" stroke-miterlimit="10" stroke-dasharray="" stroke-dashoffset="0" style="mix-blend-mode: normal"><path d="M206.75008,307.50005l15.14285,-131.8421l37.78325,-0.15789l13.57389,132z" fill="#ffb299" stroke="#000000" stroke-width="2" stroke-linecap="butt"/><path d="M219.7003,204.11272l3.12142,-26.32765l35.83075,-0.14203l2.76735,26.1059c0,0 -7.51543,4.19603 -21.55904,4.50964c-12.48458,0.27879 -20.16049,-4.14586 -20.16049,-4.14586z" fill="#e38f73" stroke="#000000" stroke-width="0" stroke-linecap="butt"/><path d="M176.56303,141.86346c0,-0.72799 5.20666,55.91939 63.36046,56.93429c55.56352,0.9697 63.51358,-57.95314 63.51358,-56.93429c0,32.80479 -28.40173,59.39833 -63.43702,59.39833c-35.03529,0 -63.43702,-26.59354 -63.43702,-59.39833z" fill="#e38f73" stroke="#000000" stroke-width="0" stroke-linecap="butt"/><path d="M189.39019,142.23909c0,-12.968 10.51265,-23.48065 23.48065,-23.48065c12.968,0 23.48065,10.51265 23.48065,23.48065c0,12.968 -10.51265,23.48065 -23.48065,23.48065c-12.968,0 -23.48065,-10.51265 -23.48065,-23.48065z" fill="#ffffff" stroke="#000000" stroke-width="2" stroke-linecap="butt"/><path d="M196.45557,141.96343c0,-9.12808 7.39976,-16.52784 16.52783,-16.52784c9.12808,0 16.52784,7.39977 16.52784,16.52784c0,9.12808 -7.39977,16.52784 -16.52784,16.52784c-9.12808,0 -16.52783,-7.39977 -16.52783,-16.52784z" fill="#000000" stroke="none" stroke-width="0" stroke-linecap="butt"/><path d="M267.12925,165.71974c-12.968,0 -23.48065,-10.51265 -23.48065,-23.48065c0,-12.968 10.51265,-23.48065 23.48065,-23.48065c12.968,0 23.48065,10.51265 23.48065,23.48065c0,12.968 -10.51265,23.48065 -23.48065,23.48065z" data-paper-data="{&quot;index&quot;:null}" fill="#ffffff" stroke="#000000" stroke-width="2" stroke-linecap="butt"/><path d="M267.0167,158.49126c-9.12807,0 -16.52783,-7.39977 -16.52783,-16.52784c0,-9.12808 7.39977,-16.52784 16.52783,-16.52784c9.12807,0 16.52783,7.39977 16.52783,16.52784c0,9.12808 -7.39977,16.52784 -16.52783,16.52784z" data-paper-data="{&quot;index&quot;:null}" fill="#000000" stroke="none" stroke-width="0" stroke-linecap="butt"/><path d="M189.39019,142.23909c0,-12.968 10.51265,-23.48065 23.48065,-23.48065c12.968,0 23.48065,10.51265 23.48065,23.48065c0,0 -46.96131,1.23155 -46.96131,0z" fill="#e38f73" stroke="#000000" stroke-width="2" stroke-linecap="butt"/><path d="M243.64863,142.23909c0,-12.968 10.51265,-23.48065 23.48065,-23.48065c12.968,0 23.48065,10.51265 23.48065,23.48065c0,1.2138 -46.96131,0 -46.96131,0z" data-paper-data="{&quot;index&quot;:null}" fill="#e38f73" stroke="#000000" stroke-width="2" stroke-linecap="butt"/><path d="M252.61665,176.65653c0,0 -4.09668,4 -12.91066,4.14285c-7.26585,0.11777 -12.19893,-4.14285 -12.19893,-4.14285" fill="none" stroke="#000000" stroke-width="2" stroke-linecap="round"/><path d="M178.51155,318.57592v-267.22501h123.18203v267.22501z" fill-opacity="0.01" fill="#000000" stroke="none" stroke-width="0" stroke-linecap="butt"/><path d="M175.06777,141.80958c0,-33.30185 28.7599,-60.29833 64.23702,-60.29833c35.47712,0 64.23702,26.99649 64.23702,60.29833c0,13.05014 4.0286,82.47451 4.0286,82.47451c0,0 -46.69107,-22.17618 -68.26562,-22.17618c-20.49118,0 -66.8752,20.6796 -66.8752,20.6796c0,0 2.63818,-66.91085 2.63818,-80.97793z" fill="#ffb299" stroke="#000000" stroke-width="2" stroke-linecap="butt"/><path d="M201.25566,113.43059c0,0 6.70895,-5.16922 11.79721,-6.36355c5.08827,-1.19433 12.33413,0.69937 12.33413,0.69937c0,0 -8.03812,-0.06028 -11.96762,0.86207c-4.10648,0.96389 -12.16372,4.80211 -12.16372,4.80211z" fill="#000000" stroke="none" stroke-width="0" stroke-linecap="butt"/><path d="M265.19015,108.62849c-3.9295,-0.92235 -11.96762,-0.86207 -11.96762,-0.86207c0,0 7.24586,-1.8937 12.33413,-0.69937c5.08826,1.19433 11.79721,6.36355 11.79721,6.36355c0,0 -8.05724,-3.83822 -12.16372,-4.80211z" data-paper-data="{&quot;index&quot;:null}" fill="#000000" stroke="none" stroke-width="0" stroke-linecap="butt"/><path d="M184.30798,201.56821v-101.3132h110.13953v101.31321z" fill="#ff0000" stroke="#000000" stroke-width="2" stroke-linecap="butt"/><path d="M227.50774,105.67717l4.71544,-20.58282h12.59581l4.87555,20.59884z" fill="#ffe88e" stroke="#000000" stroke-width="2" stroke-linecap="butt"/><path d="M219.68999,156.35449c-2.48882,-0.23615 -2.25267,-2.72498 -2.25267,-2.72498l0.21522,-2.26003c0.56576,-8.08376 1.30317,-16.16786 1.57635,-24.26752c0,0 0.08448,-2.49857 2.58305,-2.41409c2.49857,0.08448 2.41409,2.58306 2.41409,2.58306c-0.27658,8.15999 -1.01675,16.3033 -1.58567,24.44732l-0.22539,2.38359c0,0 -0.23615,2.48882 -2.72498,2.25266z" fill="#000000" stroke="none" stroke-width="0.5" stroke-linecap="butt"/><path d="M254.97396,155.58965c-2.48454,-0.27754 -2.20702,-2.76208 -2.20702,-2.76208l0.00571,0.02557c0.23871,-8.29905 0.27906,-16.58213 0.27906,-24.88628c0,0 0,-2.5 2.5,-2.5c2.5,0 2.5,2.5 2.5,2.5c0,8.35197 -0.04161,16.68295 -0.28112,25.02986l-0.03455,0.38592c0,0 -0.27754,2.48454 -2.76208,2.20701z" fill="#000000" stroke="none" stroke-width="0.5" stroke-linecap="butt"/><path d="M225.1418,171.70653c9.17957,-1.35542 18.23297,-1.56934 27.6074,-2.15127l2.02003,-0.7734c0.29221,-0.11976 0.61213,-0.18578 0.94746,-0.18578c1.38071,0 2.5,1.11929 2.5,2.5c0,0.51223 -0.15405,0.98849 -0.41836,1.38495l-1.91494,2.97146l-0.04662,-0.03004c-0.06183,0.11686 -0.12669,0.23234 -0.19488,0.34632c-1.50286,2.51211 -4.36055,3.01592 -6.80556,3.81841c-5.7972,1.90272 -10.83129,2.22075 -16.93331,2.13456c-3.04798,-0.04306 -8.18605,0.16571 -10.64297,-2.19391c-0.73617,-0.70702 -1.78996,-1.53089 -2.45708,-2.41646c-0.40608,-0.29565 -0.7555,-0.7761 -0.91003,-1.54886c-0.49024,-2.45146 1.96123,-2.9417 1.96123,-2.9417c1.44694,-0.2892 2.88869,-0.54336 4.32696,-0.76826c0.05045,-0.01654 0.10046,-0.03328 0.14997,-0.05027c0.15032,-0.05156 0.43712,-0.08161 0.81069,-0.09573z" fill="#000000" stroke="none" stroke-width="0.5" stroke-linecap="butt"/></g></g></svg>