<svg version="1.1" xmlns="http://www.w3.org/2000/svg" xmlns:xlink="http://www.w3.org/1999/xlink" width="196.76219" height="267.22501" viewBox="0,0,196.76219,267.22501"><g transform="translate(-140.72577,-61.9988)"><g data-paper-data="{&quot;isPaintingLayer&quot;:true}" fill-rule="nonzero" stroke-linejoin="miter" stroke-miterlimit="10" stroke-dasharray="" stroke-dashoffset="0" style="mix-blend-mode: normal"><g data-paper-data="{&quot;index&quot;:null}" stroke="#000000" stroke-width="2" stroke-linecap="butt"><path d="M286.96726,173.9134l28.50065,-63.93522l6.69796,2.98576l-28.50064,63.93523z" fill="#f0e0ff"/><path d="M311.62387,127.60709c-8.91168,-3.97259 -12.9156,-14.41738 -8.94302,-23.32906c3.9726,-8.91168 14.41738,-12.9156 23.32906,-8.94302c8.91167,3.97259 12.9156,14.41738 8.94301,23.32905c-3.97259,8.91169 -14.41737,12.91561 -23.32905,8.94302z" fill="#c581ff"/></g><g stroke="#000000" stroke-width="2" stroke-linecap="butt"><path d="M184.54848,179.56469l-28.50064,-63.93523l6.69797,-2.98576l28.50064,63.93523z" fill="#f0e0ff"/><path d="M143.26079,121.32959c-3.97259,-8.91168 0.03134,-19.35646 8.94301,-23.32905c8.91168,-3.97259 19.35646,0.03133 23.32905,8.94302c3.97259,8.91168 -0.03133,19.35647 -8.94302,23.32906c-8.91168,3.97259 -19.35645,-0.03133 -23.32905,-8.94302z" fill="#c581ff"/></g><path d="M177.488,329.22381v-267.22501h123.18203v267.22501z" fill-opacity="0.01" fill="#000000" stroke="none" stroke-width="0" stroke-linecap="butt"/><path d="M206.75006,307.50001l15.14285,-131.8421l37.78325,-0.15789l13.57389,132z" fill="#c581ff" stroke="#000000" stroke-width="2" stroke-linecap="butt"/><path d="M219.70029,204.11265l3.12142,-26.32765l35.83075,-0.14203l2.76735,26.1059c0,0 -7.51543,4.19603 -21.55904,4.50964c-12.48458,0.27879 -20.16049,-4.14586 -20.16049,-4.14586z" fill="#a66dd7" stroke="#000000" stroke-width="0" stroke-linecap="butt"/><path d="M174.91898,152.7908c0,-33.30185 28.7599,-60.29833 64.23702,-60.29833c35.47712,0 64.23702,26.99649 64.23702,60.29833c0,33.30185 -28.7599,60.29833 -64.23702,60.29833c-35.47712,0 -64.23702,-26.99649 -64.23702,-60.29833z" fill="#c581ff" stroke="#000000" stroke-width="2" stroke-linecap="butt"/><path d="M175.64205,152.51131c0,-0.72799 5.20666,55.91939 63.36046,56.93429c55.56352,0.9697 63.51358,-57.95314 63.51358,-56.93429c0,32.80479 -28.40173,59.39833 -63.43702,59.39833c-35.03529,0 -63.43702,-26.59354 -63.43702,-59.39833z" fill="#a66dd7" stroke="#000000" stroke-width="0" stroke-linecap="butt"/><path d="M188.46919,152.88694c0,-12.968 10.51265,-23.48065 23.48065,-23.48065c12.968,0 23.48065,10.51265 23.48065,23.48065c0,12.968 -10.51265,23.48065 -23.48065,23.48065c-12.968,0 -23.48065,-10.51265 -23.48065,-23.48065z" fill="#ffffff" stroke="#000000" stroke-width="2" stroke-linecap="butt"/><path d="M195.53458,152.6113c0,-9.12808 7.39976,-16.52784 16.52783,-16.52784c9.12808,0 16.52784,7.39977 16.52784,16.52784c0,9.12808 -7.39977,16.52784 -16.52784,16.52784c-9.12808,0 -16.52783,-7.39977 -16.52783,-16.52784z" fill="#000000" stroke="none" stroke-width="0" stroke-linecap="butt"/><path d="M266.20827,176.36757c-12.968,0 -23.48065,-10.51265 -23.48065,-23.48065c0,-12.968 10.51265,-23.48065 23.48065,-23.48065c12.968,0 23.48065,10.51265 23.48065,23.48065c0,12.968 -10.51265,23.48065 -23.48065,23.48065z" data-paper-data="{&quot;index&quot;:null}" fill="#ffffff" stroke="#000000" stroke-width="2" stroke-linecap="butt"/><path d="M266.09572,169.13915c-9.12807,0 -16.52783,-7.39977 -16.52783,-16.52784c0,-9.12808 7.39977,-16.52784 16.52783,-16.52784c9.12807,0 16.52783,7.39977 16.52783,16.52784c0,9.12808 -7.39977,16.52784 -16.52783,16.52784z" data-paper-data="{&quot;index&quot;:null}" fill="#000000" stroke="none" stroke-width="0" stroke-linecap="butt"/><path d="M188.46919,152.88694c0,-12.968 10.51265,-23.48065 23.48065,-23.48065c12.968,0 23.48065,10.51265 23.48065,23.48065c0,0 -46.96131,1.23155 -46.96131,0z" fill="#c581ff" stroke="#000000" stroke-width="2" stroke-linecap="butt"/><path d="M242.72765,152.88694c0,-12.968 10.51265,-23.48065 23.48065,-23.48065c12.968,0 23.48065,10.51265 23.48065,23.48065c0,1.2138 -46.96131,0 -46.96131,0z" data-paper-data="{&quot;index&quot;:null}" fill="#c581ff" stroke="#000000" stroke-width="2" stroke-linecap="butt"/><path d="M201.10686,124.07847c0,0 6.70895,-5.16922 11.79722,-6.36355c5.08827,-1.19433 12.33413,0.69937 12.33413,0.69937c0,0 -8.03812,-0.06028 -11.96762,0.86207c-4.10648,0.96388 -12.16372,4.80211 -12.16372,4.80211z" fill="#000000" stroke="none" stroke-width="0" stroke-linecap="butt"/><path d="M265.04137,119.27637c-3.9295,-0.92235 -11.96762,-0.86207 -11.96762,-0.86207c0,0 7.24586,-1.8937 12.33413,-0.69937c5.08826,1.19433 11.79721,6.36355 11.79721,6.36355c0,0 -8.05724,-3.83822 -12.16372,-4.80211z" data-paper-data="{&quot;index&quot;:null}" fill="#000000" stroke="none" stroke-width="0" stroke-linecap="butt"/><path d="M253.45127,99.36891l14.5,15.5l-22.5,-6l3.25,13.75l-33.25,-19.5" data-paper-data="{&quot;index&quot;:null}" fill="#c581ff" stroke="#000000" stroke-width="2" stroke-linecap="round"/><path d="M253.16916,198.26977c0,5.01285 -28.1803,5.01285 -28.1803,0c0,-5.01285 6.30837,-9.07657 14.09015,-9.07657c7.78177,0 14.09015,4.06372 14.09015,9.07657z" fill="#000000" stroke="#000000" stroke-width="2" stroke-linecap="butt"/></g></g></svg>