<svg version="1.1" xmlns="http://www.w3.org/2000/svg" xmlns:xlink="http://www.w3.org/1999/xlink" width="131.1012" height="267.22501" viewBox="0,0,131.1012,267.22501"><g transform="translate(-174.48002,-46.3875)"><g data-paper-data="{&quot;isPaintingLayer&quot;:true}" fill-rule="nonzero" stroke-linejoin="miter" stroke-miterlimit="10" stroke-dasharray="" stroke-dashoffset="0" style="mix-blend-mode: normal"><path d="M178.40899,313.61251v-267.22501h123.18203v267.22501z" fill-opacity="0.01" fill="#000000" stroke="none" stroke-width="0" stroke-linecap="butt"/><g data-paper-data="{&quot;index&quot;:null}" stroke="#000000" stroke-width="2" stroke-linecap="butt"><path d="M269.78537,187.35125l20.62831,66.89151l-7.00768,2.16105l-20.62831,-66.8915z" fill="#d8f7ff"/><path d="M303.79199,250.11708c2.8753,9.32375 -2.3522,19.21303 -11.67595,22.08833c-9.32374,2.8753 -19.21303,-2.3522 -22.08833,-11.67594c-2.8753,-9.32375 2.3522,-19.21303 11.67594,-22.08833c9.32375,-2.8753 19.21303,2.3522 22.08834,11.67595z" fill="#c0f2ff"/></g><g data-paper-data="{&quot;index&quot;:null}" stroke="#000000" stroke-width="2" stroke-linecap="butt"><path d="M219.1233,187.69471l-20.62831,66.8915l-7.00768,-2.16105l20.62832,-66.89151z" fill="#d8f7ff"/><path d="M200.19735,236.62354c9.32375,2.8753 14.55125,12.76459 11.67595,22.08833c-2.8753,9.32375 -12.76459,14.55125 -22.08833,11.67595c-9.32375,-2.8753 -14.55125,-12.76459 -11.67595,-22.08833c2.8753,-9.32375 12.76459,-14.55125 22.08833,-11.67595z" fill="#c0f2ff"/></g><path d="M206.75013,307.50005l15.14285,-131.8421l37.78325,-0.15789l13.57389,132z" fill="#c0f2ff" stroke="#000000" stroke-width="2" stroke-linecap="butt"/><path d="M219.70031,204.11268l3.12142,-26.32765l35.83075,-0.14203l2.76735,26.1059c0,0 -7.51543,4.19603 -21.55904,4.50964c-12.48458,0.27879 -20.16049,-4.14586 -20.16049,-4.14586z" fill="#91e9ff" stroke="#000000" stroke-width="0" stroke-linecap="butt"/><path d="M175.48002,161.83758c0,-33.30185 28.7599,-60.29833 64.23702,-60.29833c35.47712,0 64.23702,26.99649 64.23702,60.29833c0,33.30185 -28.7599,60.29833 -64.23702,60.29833c-35.47712,0 -64.23702,-26.99649 -64.23702,-60.29833z" fill="#c0f2ff" stroke="#000000" stroke-width="2" stroke-linecap="butt"/><path d="M189.03023,161.93374c0,-12.968 10.51265,-23.48065 23.48065,-23.48065c12.968,0 23.48065,10.51265 23.48065,23.48065c0,12.968 -10.51265,23.48065 -23.48065,23.48065c-12.968,0 -23.48065,-10.51265 -23.48065,-23.48065z" fill="#ffffff" stroke="#000000" stroke-width="2" stroke-linecap="butt"/><path d="M196.09562,161.65805c0,-9.12808 7.39976,-16.52784 16.52783,-16.52784c9.12808,0 16.52784,7.39977 16.52784,16.52784c0,9.12808 -7.39977,16.52784 -16.52784,16.52784c-9.12808,0 -16.52783,-7.39977 -16.52783,-16.52784z" fill="#000000" stroke="none" stroke-width="0" stroke-linecap="butt"/><path d="M266.7693,185.41438c-12.968,0 -23.48065,-10.51265 -23.48065,-23.48065c0,-12.968 10.51265,-23.48065 23.48065,-23.48065c12.968,0 23.48065,10.51265 23.48065,23.48065c0,12.968 -10.51265,23.48065 -23.48065,23.48065z" data-paper-data="{&quot;index&quot;:null}" fill="#ffffff" stroke="#000000" stroke-width="2" stroke-linecap="butt"/><path d="M266.6567,178.18591c-9.12807,0 -16.52783,-7.39977 -16.52783,-16.52784c0,-9.12808 7.39977,-16.52784 16.52783,-16.52784c9.12807,0 16.52783,7.39977 16.52783,16.52784c0,9.12808 -7.39977,16.52784 -16.52783,16.52784z" data-paper-data="{&quot;index&quot;:null}" fill="#000000" stroke="none" stroke-width="0" stroke-linecap="butt"/><path d="M189.03023,161.93374c0,-12.968 10.51265,-23.48065 23.48065,-23.48065c12.968,0 23.48065,10.51265 23.48065,23.48065c0,0 -46.96131,1.23155 -46.96131,0z" fill="#91e9ff" stroke="#000000" stroke-width="2" stroke-linecap="butt"/><path d="M243.28868,161.93374c0,-12.968 10.51265,-23.48065 23.48065,-23.48065c12.968,0 23.48065,10.51265 23.48065,23.48065c0,1.2138 -46.96131,0 -46.96131,0z" data-paper-data="{&quot;index&quot;:null}" fill="#91e9ff" stroke="#000000" stroke-width="2" stroke-linecap="butt"/><path d="M201.66789,133.12525c0,0 6.70895,-5.16922 11.79722,-6.36355c5.08827,-1.19433 12.33413,0.69937 12.33413,0.69937c0,0 -8.03812,-0.06028 -11.96762,0.86207c-4.10648,0.96388 -12.16372,4.80211 -12.16372,4.80211z" fill="#000000" stroke="none" stroke-width="0" stroke-linecap="butt"/><path d="M265.60235,128.32315c-3.9295,-0.92235 -11.96762,-0.86207 -11.96762,-0.86207c0,0 7.24586,-1.8937 12.33413,-0.69937c5.08826,1.19433 11.79721,6.36355 11.79721,6.36355c0,0 -8.05724,-3.83822 -12.16372,-4.80211z" data-paper-data="{&quot;index&quot;:null}" fill="#000000" stroke="none" stroke-width="0" stroke-linecap="butt"/><path d="M217.29326,112.56457l33.25,-19.5l-3.25,13.75l22.5,-6l-14.5,15.5" data-paper-data="{&quot;index&quot;:null}" fill="#c0f2ff" stroke="#000000" stroke-width="2" stroke-linecap="round"/><path d="M176.20303,161.55804c0,-0.72799 5.20666,55.91939 63.36046,56.93429c55.56352,0.9697 63.51358,-57.95314 63.51358,-56.93429c0,32.80479 -28.40173,59.39833 -63.43702,59.39833c-35.03529,0 -63.43702,-26.59354 -63.43702,-59.39833z" fill="#91e9ff" stroke="#000000" stroke-width="0" stroke-linecap="butt"/><path d="M246.12921,203.05151c0,2.99005 -2.66583,5.41396 -5.95431,5.41396c-3.28847,0 -5.95431,-2.42391 -5.95431,-5.41396c0,-2.99005 2.66583,-5.41396 5.95431,-5.41396c3.28847,0 5.95431,2.42391 5.95431,5.41396z" fill="#000000" stroke="#000000" stroke-width="2" stroke-linecap="butt"/></g></g></svg>