<svg version="1.1" xmlns="http://www.w3.org/2000/svg" xmlns:xlink="http://www.w3.org/1999/xlink" width="34.67311" height="34.67311" viewBox="0,0,34.67311,34.67311"><defs><linearGradient x1="248.21407" y1="174.06371" x2="248.21407" y2="182.15464" gradientUnits="userSpaceOnUse" id="color-1"><stop offset="0" stop-color="#242400"/><stop offset="1" stop-color="#6e6e00"/></linearGradient><linearGradient x1="252.95285" y1="170.18824" x2="252.95285" y2="176.42333" gradientUnits="userSpaceOnUse" id="color-2"><stop offset="0" stop-color="#241300"/><stop offset="1" stop-color="#4a2800"/></linearGradient><linearGradient x1="231.08849" y1="174.62932" x2="231.08849" y2="182.72025" gradientUnits="userSpaceOnUse" id="color-3"><stop offset="0" stop-color="#242400"/><stop offset="1" stop-color="#6e6e00"/></linearGradient><linearGradient x1="226.34972" y1="170.75385" x2="226.34972" y2="176.98894" gradientUnits="userSpaceOnUse" id="color-4"><stop offset="0" stop-color="#241300"/><stop offset="1" stop-color="#4a2800"/></linearGradient><linearGradient x1="240.09417" y1="174.9252" x2="240.09417" y2="186.05467" gradientUnits="userSpaceOnUse" id="color-5"><stop offset="0" stop-color="#242400"/><stop offset="1" stop-color="#6e6e00"/></linearGradient><linearGradient x1="240.2238" y1="174.40516" x2="240.2238" y2="178.50709" gradientUnits="userSpaceOnUse" id="color-6"><stop offset="0" stop-color="#6e6e00"/><stop offset="1" stop-color="#242400"/></linearGradient></defs><g transform="translate(-222.66344,-162.66344)"><g data-paper-data="{&quot;isPaintingLayer&quot;:true}" stroke-miterlimit="10" stroke-dasharray="" stroke-dashoffset="0" style="mix-blend-mode: normal"><path d="M229.9831,162.91345h20.03379c3.9166,0 7.06966,3.15307 7.06966,7.06966v20.03379c0,3.91659 -3.15306,7.06966 -7.06966,7.06966h-20.03379c-3.91659,0 -7.06966,-3.15307 -7.06966,-7.06966v-20.03379c0,-3.91659 3.15307,-7.06966 7.06966,-7.06966z" fill="#000000" fill-rule="evenodd" stroke="#a2a200" stroke-width="0.5" stroke-linecap="round" stroke-linejoin="round"/><g data-paper-data="{&quot;index&quot;:null}" fill-rule="nonzero" stroke="#000000" stroke-width="0" stroke-linecap="butt" stroke-linejoin="miter"><path d="M244.14975,181.26308l7.24237,-7.19937l0.88627,0.89156l-7.24237,7.19937z" fill="url(#color-1)"/><path d="M253.62655,176.34899c-1.68071,0.37207 -3.34483,-0.68879 -3.7169,-2.3695c-0.37207,-1.68071 0.68879,-3.34483 2.3695,-3.7169c1.68071,-0.37207 3.34483,0.68879 3.7169,2.3695c0.37207,1.68071 -0.68879,3.34483 -2.3695,3.7169z" fill="url(#color-2)"/></g><g fill-rule="nonzero" stroke="#000000" stroke-width="0" stroke-linecap="butt" stroke-linejoin="miter"><path d="M234.26654,182.72025l-7.24237,-7.19937l0.88627,-0.89156l7.24237,7.19937z" fill="url(#color-3)"/><path d="M225.67603,176.9146c-1.68071,-0.37207 -2.74158,-2.03619 -2.3695,-3.7169c0.37207,-1.68071 2.03619,-2.74158 3.7169,-2.3695c1.68071,0.37207 2.74158,2.03619 2.3695,3.7169c-0.37207,1.68071 -2.03619,2.74157 -3.7169,2.3695z" fill="url(#color-4)"/></g><path d="M228.23773,186.05467c0,-6.14664 5.30831,-11.12947 11.85645,-11.12947c6.54814,0 11.85645,4.98283 11.85645,11.12947" fill="url(#color-5)" fill-rule="nonzero" stroke="#000000" stroke-width="0" stroke-linecap="butt" stroke-linejoin="miter"/><path d="M235.5926,177.84549l5.8662,-3.44033l-0.57339,2.42587l3.96961,-1.05856l-2.55819,2.73462" fill="url(#color-6)" fill-rule="nonzero" stroke="#000000" stroke-width="0" stroke-linecap="round" stroke-linejoin="miter"/></g></g></svg>