<svg version="1.1" xmlns="http://www.w3.org/2000/svg" xmlns:xlink="http://www.w3.org/1999/xlink" width="34.67311" height="34.67311" viewBox="0,0,34.67311,34.67311"><defs><linearGradient x1="240.00001" y1="162.91346" x2="240.00001" y2="197.08658" gradientUnits="userSpaceOnUse" id="color-1"><stop offset="0" stop-color="#000000"/><stop offset="1" stop-color="#49332c"/></linearGradient><radialGradient cx="227.15584" cy="193.1857" r="15.65118" gradientUnits="userSpaceOnUse" id="color-2"><stop offset="0" stop-color="#2a1d19"/><stop offset="1" stop-color="#825b4e"/></radialGradient><radialGradient cx="239.95877" cy="180.03301" r="14.72372" gradientUnits="userSpaceOnUse" id="color-3"><stop offset="0" stop-color="#150000"/><stop offset="1" stop-color="#850000"/></radialGradient></defs><g transform="translate(-222.66345,-162.66346)"><g data-paper-data="{&quot;isPaintingLayer&quot;:true}" stroke-miterlimit="10" stroke-dasharray="" stroke-dashoffset="0" style="mix-blend-mode: normal"><path d="M229.98312,162.91346h20.03379c3.9166,0 7.06966,3.15307 7.06966,7.06966v20.03379c0,3.91659 -3.15306,7.06966 -7.06966,7.06966h-20.03379c-3.91659,0 -7.06966,-3.15307 -7.06966,-7.06966v-20.03379c0,-3.91659 3.15307,-7.06966 7.06966,-7.06966z" fill="url(#color-1)" fill-rule="evenodd" stroke="#b17c6c" stroke-width="0.5" stroke-linecap="round" stroke-linejoin="round"/><g fill-rule="nonzero" stroke="none" stroke-width="0" stroke-linecap="butt" stroke-linejoin="miter"><g fill="url(#color-2)"><path d="M224.96778,191.37472l2.68787,-8.22716l-3.30684,-4.08306l4.34958,-2.63004l1.03073,-4.60748l5.55172,2.71749l3.55841,-9.88578l3.89238,11.01999l5.47419,-4.58426l0.30993,6.37677l7.13543,0.80618l-6.15974,4.37834l4.80022,7.1436l-6.57545,-1.76673l0.92601,6.89572l-7.33412,-4.97659l-2.18255,5.05721l-7.51055,-6.63761l-6.5054,6.97z"/></g><g fill="url(#color-3)"><path d="M225.81734,190.89003l2.52859,-7.73963l-3.11088,-3.84111l4.09183,-2.47418l0.96965,-4.33445l5.22273,2.55645l3.34754,-9.29996l3.66172,10.36695l5.1498,-4.3126l0.29156,5.9989l6.71259,0.75841l-5.79472,4.11889l4.51576,6.72028l-6.18579,-1.66204l0.87114,6.48709l-6.89951,-4.68168l-2.05321,4.75752l-7.06549,-6.24427l-6.1199,6.55697z"/></g></g></g></g></svg>