<svg version="1.1" xmlns="http://www.w3.org/2000/svg" xmlns:xlink="http://www.w3.org/1999/xlink" width="34.17311" height="34.17311" viewBox="0,0,34.17311,34.17311"><g transform="translate(-222.91353,-162.9135)"><g data-paper-data="{&quot;isPaintingLayer&quot;:true}" stroke-miterlimit="10" stroke-dasharray="" stroke-dashoffset="0" style="mix-blend-mode: normal"><path d="M229.98321,162.9135h20.03378c3.9166,0 7.06966,3.15307 7.06966,7.06966v20.03379c0,3.91659 -3.15306,7.06966 -7.06966,7.06966h-20.03378c-3.91659,0 -7.06967,-3.15307 -7.06967,-7.06966v-20.03379c0,-3.91659 3.15308,-7.06966 7.06967,-7.06966z" fill-opacity="0.09677" fill="#191919" fill-rule="evenodd" stroke="none" stroke-width="4.43922" stroke-linecap="round" stroke-linejoin="round"/><g data-paper-data="{&quot;index&quot;:null}" fill="#000000" fill-rule="nonzero" stroke="#ffffff" stroke-width="0.5" stroke-linecap="butt" stroke-linejoin="miter"><path d="M244.14975,181.26309l7.24237,-7.19937l0.88627,0.89156l-7.24237,7.19937z"/><path d="M253.62655,176.34899c-1.68071,0.37207 -3.34483,-0.68879 -3.7169,-2.3695c-0.37207,-1.68071 0.68879,-3.34483 2.3695,-3.7169c1.68071,-0.37207 3.34483,0.68879 3.7169,2.3695c0.37207,1.68071 -0.68879,3.34483 -2.3695,3.7169z"/></g><g fill="#000000" fill-rule="nonzero" stroke="#ffffff" stroke-width="0.5" stroke-linecap="butt" stroke-linejoin="miter"><path d="M234.26654,182.72025l-7.24237,-7.19937l0.88627,-0.89156l7.24237,7.19937z"/><path d="M225.67603,176.91461c-1.68071,-0.37207 -2.74158,-2.03619 -2.3695,-3.7169c0.37207,-1.68071 2.03619,-2.74158 3.7169,-2.3695c1.68071,0.37207 2.74158,2.03619 2.3695,3.7169c-0.37207,1.68071 -2.03619,2.74157 -3.7169,2.3695z"/></g><path d="M228.23773,186.05467c0,-6.14664 5.30831,-11.12947 11.85645,-11.12947c6.54814,0 11.85645,4.98283 11.85645,11.12947" fill="#000000" fill-rule="nonzero" stroke="#ffffff" stroke-width="0.5" stroke-linecap="butt" stroke-linejoin="miter"/><path d="M235.5926,177.8455l5.8662,-3.44033l-0.57339,2.42587l3.96961,-1.05856l-2.55819,2.73462" fill="#000000" fill-rule="nonzero" stroke="#ffffff" stroke-width="0.5" stroke-linecap="round" stroke-linejoin="miter"/></g></g></svg>