<svg version="1.1" xmlns="http://www.w3.org/2000/svg" xmlns:xlink="http://www.w3.org/1999/xlink" width="483.53084" height="367.72442" viewBox="0,0,483.53084,367.72442"><defs><radialGradient cx="240" cy="180" r="238.97286" gradientUnits="userSpaceOnUse" id="color-1"><stop offset="0" stop-color="#00c1ff"/><stop offset="1" stop-color="#0bff00"/></radialGradient><radialGradient cx="240" cy="180" r="238.97286" gradientUnits="userSpaceOnUse" id="color-2"><stop offset="0" stop-color="#c39600" stop-opacity="0"/><stop offset="1" stop-color="#c39600"/></radialGradient><linearGradient x1="270.35377" y1="111.42579" x2="270.35377" y2="159.44151" gradientUnits="userSpaceOnUse" id="color-3"><stop offset="0" stop-color="#999999"/><stop offset="1" stop-color="#b58989"/></linearGradient><linearGradient x1="243.43446" y1="176.39898" x2="243.43446" y2="311.36277" gradientUnits="userSpaceOnUse" id="color-4"><stop offset="0" stop-color="#392500"/><stop offset="1" stop-color="#6a4800"/></linearGradient><linearGradient x1="244.13836" y1="192.56522" x2="244.13836" y2="224.94289" gradientUnits="userSpaceOnUse" id="color-5"><stop offset="0" stop-color="#1a0000"/><stop offset="1" stop-color="#800000"/></linearGradient><linearGradient x1="240.27835" y1="63.4952" x2="240.27835" y2="78.80058" gradientUnits="userSpaceOnUse" id="color-6"><stop offset="0" stop-color="#2c2300"/><stop offset="1" stop-color="#6b5400"/></linearGradient><linearGradient x1="241.16839" y1="71.7857" x2="241.16839" y2="95.70262" gradientUnits="userSpaceOnUse" id="color-7"><stop offset="0" stop-color="#634e00"/><stop offset="1" stop-color="#070600"/></linearGradient><linearGradient x1="242.35591" y1="86.56752" x2="242.35591" y2="110.48445" gradientUnits="userSpaceOnUse" id="color-8"><stop offset="0" stop-color="#2c2300"/><stop offset="1" stop-color="#6b5400"/></linearGradient><linearGradient x1="243.83046" y1="99.7706" x2="243.83046" y2="128.74041" gradientUnits="userSpaceOnUse" id="color-9"><stop offset="0" stop-color="#634e00"/><stop offset="1" stop-color="#070600"/></linearGradient><linearGradient x1="240.81617" y1="184.70621" x2="240.81617" y2="200.0116" gradientUnits="userSpaceOnUse" id="color-10"><stop offset="0" stop-color="#2c2300"/><stop offset="1" stop-color="#6b5400"/></linearGradient><linearGradient x1="240.59396" y1="166.50694" x2="240.59396" y2="190.42387" gradientUnits="userSpaceOnUse" id="color-11"><stop offset="0" stop-color="#000000"/><stop offset="1" stop-color="#493900"/></linearGradient><linearGradient x1="241.78146" y1="151.72511" x2="241.78146" y2="175.64203" gradientUnits="userSpaceOnUse" id="color-12"><stop offset="0" stop-color="#2c2300"/><stop offset="1" stop-color="#6b5400"/></linearGradient><linearGradient x1="243.25603" y1="133.46915" x2="243.25603" y2="162.43896" gradientUnits="userSpaceOnUse" id="color-13"><stop offset="0" stop-color="#000000"/><stop offset="1" stop-color="#493900"/></linearGradient><linearGradient x1="244.6184" y1="115.56439" x2="244.6184" y2="144.53419" gradientUnits="userSpaceOnUse" id="color-14"><stop offset="0" stop-color="#2c2300"/><stop offset="1" stop-color="#6b5400"/></linearGradient><linearGradient x1="244.6184" y1="115.56439" x2="244.6184" y2="144.53419" gradientUnits="userSpaceOnUse" id="color-15"><stop offset="0" stop-color="#2c2300"/><stop offset="1" stop-color="#6b5400"/></linearGradient><linearGradient x1="270.54916" y1="145.10529" x2="270.54916" y2="175.77496" gradientUnits="userSpaceOnUse" id="color-16"><stop offset="0" stop-color="#1a0000"/><stop offset="1" stop-color="#800000"/></linearGradient></defs><g transform="translate(1.56881,3.86221)"><g data-paper-data="{&quot;isPaintingLayer&quot;:true}" stroke-miterlimit="10" stroke-dasharray="" stroke-dashoffset="0" style="mix-blend-mode: normal"><path d="M1.02714,361.36221v-362.72442h477.94572v362.72442z" fill="url(#color-1)" fill-rule="nonzero" stroke="#8b5304" stroke-width="5" stroke-linecap="butt" stroke-linejoin="miter"/><path d="M1.02714,361.36221v-362.72442h477.94572v362.72442z" fill="url(#color-2)" fill-rule="nonzero" stroke="#8b5304" stroke-width="5" stroke-linecap="butt" stroke-linejoin="miter"/><path d="M0.93119,56.08069v-54.63017h478.53084v54.63017z" fill="#a26100" fill-rule="nonzero" stroke="#8b5304" stroke-width="5" stroke-linecap="butt" stroke-linejoin="miter"/><path d="M201.36095,352.38196c-0.00002,0.02694 -0.02188,0.04879 -0.04884,0.04879c-0.02694,0 -0.04881,-0.02184 -0.04884,-0.04879c0.00002,-0.02694 0.02188,-0.04879 0.04884,-0.04879c0.02694,0 0.04881,0.02184 0.04884,0.04879z" fill="#ffffff" fill-rule="nonzero" stroke="#000000" stroke-width="0.27531" stroke-linecap="butt" stroke-linejoin="miter"/><path d="" fill="#808080" fill-rule="evenodd" stroke="none" stroke-width="0.82588" stroke-linecap="round" stroke-linejoin="round"/><path d="M44.86315,138.76331c0,0 0.10036,-2.7506 0.70504,-3.60765c0.76671,-1.08672 2.9992,-2.49179 2.9992,-2.49179l5.90546,0.04414c0,0 -2.85294,2.44692 -3.73302,3.50796c-0.8119,0.97885 -1.23838,3.23937 -1.23838,3.23937c0,0 -1.63761,0.44115 -2.34454,0.00928c-0.4667,-0.28511 0.04148,-1.49902 -0.33518,-1.51675c-0.45152,-0.02124 0.32217,1.34796 -0.28356,1.667c-0.39062,0.20574 -1.67502,-0.85157 -1.67502,-0.85157z" fill="#16c300" fill-rule="nonzero" stroke="#000000" stroke-width="0" stroke-linecap="butt" stroke-linejoin="miter"/><path d="M47.21983,132.52827h13.94932" fill="none" fill-rule="nonzero" stroke="#000000" stroke-width="0" stroke-linecap="round" stroke-linejoin="miter"/><path d="M192.04906,290.17264v-229.78515h105.92347v229.78515z" fill-opacity="0.01" fill="#000000" fill-rule="nonzero" stroke="none" stroke-width="0" stroke-linecap="butt" stroke-linejoin="miter"/><path d="M216.4194,284.91654l13.02124,-113.37021l32.48959,-0.13577l11.6721,113.50599z" fill="#fff000" fill-rule="nonzero" stroke="#000000" stroke-width="2" stroke-linecap="butt" stroke-linejoin="miter"/><path d="M227.55523,196.01438l2.68409,-22.63898l30.81064,-0.12213l2.37963,22.4483c0,0 -6.46247,3.60814 -18.53849,3.87781c-10.73541,0.23973 -17.33588,-3.565 -17.33588,-3.565z" fill="#ffcb00" fill-rule="nonzero" stroke="#000000" stroke-width="0" stroke-linecap="butt" stroke-linejoin="miter"/><path d="M189.84001,138.45898c0,-28.63606 24.73046,-51.85016 55.23702,-51.85016c30.50656,0 55.23702,23.21412 55.23702,51.85016c0,28.63606 -24.73046,51.85016 -55.23702,51.85016c-30.50656,0 -55.23702,-23.21412 -55.23702,-51.85016z" fill="#fff000" fill-rule="nonzero" stroke="#000000" stroke-width="2" stroke-linecap="butt" stroke-linejoin="miter"/><path d="M190.46177,138.21865c0,-0.62599 4.47718,48.08474 54.48327,48.95745c47.77873,0.83384 54.61494,-49.83355 54.61494,-48.95745c0,28.20864 -24.42247,51.07626 -54.5491,51.07626c-30.12663,0 -54.5491,-22.86762 -54.5491,-51.07626z" fill="#ffcb00" fill-rule="nonzero" stroke="#000000" stroke-width="0" stroke-linecap="butt" stroke-linejoin="miter"/><path d="M201.49175,138.54165c0,-11.1511 9.03976,-20.19087 20.19087,-20.19087c11.1511,0 20.19087,9.03976 20.19087,20.19087c0,11.1511 -9.03976,20.19087 -20.19087,20.19087c-11.1511,0 -20.19087,-9.03976 -20.19087,-20.19087z" fill="#ffffff" fill-rule="nonzero" stroke="#000000" stroke-width="2" stroke-linecap="butt" stroke-linejoin="miter"/><path d="M207.56723,138.30464c0,-7.84918 6.36301,-14.21219 14.21218,-14.21219c7.84918,0 14.21219,6.36302 14.21219,14.21219c0,7.84918 -6.36302,14.21219 -14.21219,14.21219c-7.84918,0 -14.21218,-6.36302 -14.21218,-14.21219z" fill="#000000" fill-rule="nonzero" stroke="none" stroke-width="0" stroke-linecap="butt" stroke-linejoin="miter"/><path d="M268.33911,158.73251c-11.1511,0 -20.19087,-9.03976 -20.19087,-20.19087c0,-11.1511 9.03976,-20.19087 20.19087,-20.19087c11.1511,0 20.19087,9.03976 20.19087,20.19087c0,11.1511 -9.03976,20.19087 -20.19087,20.19087z" data-paper-data="{&quot;index&quot;:null}" fill="#ffffff" fill-rule="nonzero" stroke="#000000" stroke-width="2" stroke-linecap="butt" stroke-linejoin="miter"/><path d="M268.60328,153.10239c-7.84917,0 -14.21218,-6.36302 -14.21218,-14.21219c0,-7.84918 6.36302,-14.21219 14.21218,-14.21219c7.84917,0 14.21218,6.36302 14.21218,14.21219c0,7.84918 -6.36302,14.21219 -14.21218,14.21219z" data-paper-data="{&quot;index&quot;:null}" fill="#000000" fill-rule="nonzero" stroke="none" stroke-width="0" stroke-linecap="butt" stroke-linejoin="miter"/><path d="M201.49175,138.54165c0,-11.1511 9.03976,-20.19087 20.19087,-20.19087c11.1511,0 20.19087,9.03976 20.19087,20.19087c0,0 -40.38174,1.059 -40.38174,0z" fill="#fff000" fill-rule="nonzero" stroke="#000000" stroke-width="2" stroke-linecap="butt" stroke-linejoin="miter"/><path d="M248.14826,138.54165c0,-11.1511 9.03976,-20.19087 20.19087,-20.19087c11.1511,0 20.19087,9.03976 20.19087,20.19087c0,1.04374 -40.38174,0 -40.38174,0z" data-paper-data="{&quot;index&quot;:null}" fill="#fff000" fill-rule="nonzero" stroke="#000000" stroke-width="2" stroke-linecap="butt" stroke-linejoin="miter"/><path d="M212.3588,113.76942c0,0 5.76899,-4.44498 10.14436,-5.47198c4.37537,-1.027 10.60604,0.60138 10.60604,0.60138c0,0 -6.91193,-0.05183 -10.29088,0.74129c-3.53114,0.82883 -10.45951,4.1293 -10.45951,4.1293z" fill="#000000" fill-rule="nonzero" stroke="none" stroke-width="0" stroke-linecap="butt" stroke-linejoin="miter"/><path d="M267.33566,109.64013c-3.37895,-0.79312 -10.29088,-0.74129 -10.29088,-0.74129c0,0 6.23067,-1.62838 10.60604,-0.60138c4.37536,1.027 10.14435,5.47198 10.14435,5.47198c0,0 -6.92837,-3.30046 -10.45951,-4.1293z" data-paper-data="{&quot;index&quot;:null}" fill="#000000" fill-rule="nonzero" stroke="none" stroke-width="0" stroke-linecap="butt" stroke-linejoin="miter"/><g fill-rule="nonzero" stroke-linejoin="miter"><path d="M254.92106,175.2043h-21.59158" fill="none" stroke="#000000" stroke-width="2" stroke-linecap="round"/><path d="M292.6254,178.55732c0,7.48979 -31.06137,13.08356 -48.5533,13.08356c-17.49193,0 -46.67586,-5.52528 -46.67586,-13.01507c0,-7.48979 31.43712,-19.70653 48.92904,-19.70653c17.49193,0 46.30012,12.14825 46.30012,19.63804z" fill="#ffcb00" stroke="#000000" stroke-width="2" stroke-linecap="butt"/><path d="M243.91541,190.95393c-6.44864,0 -15.06673,-1.107 -22.64541,-2.29978c-2.16298,-6.64103 -5.47839,-14.66542 -8.20485,-20.90677c-0.15967,-0.36551 22.51676,-8.12678 31.65595,-8.12678c9.16864,0 22.32719,3.67034 31.93562,7.5051c-0.59449,1.20152 -7.76888,16.22854 -10.18874,21.65196c-7.90261,1.20391 -16.10237,2.17627 -22.55257,2.17627z" fill="#ff9f00" stroke="#000000" stroke-width="0" stroke-linecap="butt"/><path d="M232.88869,173.09962c0,2.49817 -1.03169,4.52335 -2.30434,4.52335c-1.27265,0 -2.30434,-2.02518 -2.30434,-4.52335c0,-2.49817 1.03169,-4.52336 2.30434,-4.52336c1.27265,0 2.30434,2.02518 2.30434,4.52336z" fill="#000000" stroke="none" stroke-width="0" stroke-linecap="butt"/><path d="M262.04121,172.58554c0,2.49817 -1.03169,4.52335 -2.30434,4.52335c-1.27265,0 -2.30434,-2.02517 -2.30434,-4.52335c0,-2.49817 1.03169,-4.52336 2.30434,-4.52336c1.27265,0 2.30434,2.02518 2.30434,4.52336z" fill="#000000" stroke="none" stroke-width="0" stroke-linecap="butt"/></g><path d="M226.73769,95.43397l28.59147,-16.76793l-2.79466,11.82354l19.34761,-5.15936l-12.46846,13.32836" data-paper-data="{&quot;index&quot;:null}" fill="#fff000" fill-rule="nonzero" stroke="#000000" stroke-width="2" stroke-linecap="round" stroke-linejoin="miter"/><text transform="translate(348.6875,125.39999) scale(0.5,0.5)" font-size="40" xml:space="preserve" fill="#000000" fill-rule="nonzero" stroke="none" stroke-width="1" stroke-linecap="butt" stroke-linejoin="miter" stroke-miterlimit="10" stroke-dasharray="" stroke-dashoffset="0" font-family="Sans Serif" font-weight="normal" text-anchor="start" style="mix-blend-mode: normal"><tspan x="0" dy="0">50 = 25$</tspan></text><path d="M353.6875,129.39999l-60,80l1,-16l14,14l-16,6l2,-20" fill="none" fill-rule="nonzero" stroke="#8b5304" stroke-width="5" stroke-linecap="round" stroke-linejoin="miter"/><path d="M270.35377,159.44151c-13.25917,0 -24.00786,-10.74869 -24.00786,-24.00786c0,-13.25917 10.74869,-24.00786 24.00786,-24.00786c13.25917,0 24.00786,10.74869 24.00786,24.00786c0,13.25917 -10.74869,24.00786 -24.00786,24.00786z" data-paper-data="{&quot;index&quot;:null}" fill="url(#color-3)" fill-rule="nonzero" stroke="#000000" stroke-width="0" stroke-linecap="butt" stroke-linejoin="miter"/><path d="M270.23867,152.05078c-9.33302,0 -16.89893,-7.56592 -16.89893,-16.89894c0,-9.33303 7.56592,-16.89894 16.89893,-16.89894c9.33302,0 16.89893,7.56592 16.89893,16.89894c0,9.33303 -7.56592,16.89894 -16.89893,16.89894z" data-paper-data="{&quot;index&quot;:null}" fill="#000000" fill-rule="nonzero" stroke="none" stroke-width="0" stroke-linecap="butt" stroke-linejoin="miter"/><path d="M209.43791,311.36276l15.48285,-134.80235l38.6316,-0.16144l13.87866,134.96379z" data-paper-data="{&quot;index&quot;:null}" fill="url(#color-4)" fill-rule="nonzero" stroke="#000000" stroke-width="0" stroke-linecap="butt" stroke-linejoin="miter"/><path d="M226.84187,228.8623c-2.73594,0.28846 -0.68164,-36.29708 -0.68164,-36.29708h35.95627c0,0 0.60626,43.48078 -1.87449,43.33253c-2.19882,-0.13141 -1.98261,-25.68494 -4.19444,-25.62116c-2.86249,0.08255 -1.30444,10.01811 -3.14458,9.68232c-2.89033,-0.52741 -0.53417,7.55608 -2.92853,7.74955c-2.53404,0.20475 0.17283,-24.27925 -1.52948,-24.60216c-2.73936,-0.51964 -1.77678,16.55838 -3.78253,16.26584c-2.08588,-0.30422 -3.19455,-10.49616 -4.91995,-11.57702c-2.77285,-1.73704 -0.80124,31.10198 -2.79097,30.54918c-1.83817,-0.51069 -1.26491,-23.74305 -3.03548,-23.71208c-2.30795,0.04036 -0.70482,-10.8704 -1.57514,-11.24783c-1.4967,-0.64907 -2.71651,25.18456 -5.49903,25.47793z" data-paper-data="{&quot;index&quot;:null}" fill="url(#color-5)" fill-rule="nonzero" stroke="none" stroke-width="0" stroke-linecap="butt" stroke-linejoin="miter"/><path d="M230.66096,177.58136h25.67338" data-paper-data="{&quot;index&quot;:null}" fill="none" fill-rule="nonzero" stroke="#000000" stroke-width="2" stroke-linecap="round" stroke-linejoin="miter"/><g fill-rule="nonzero" stroke="#000000" stroke-width="0" stroke-linecap="butt" stroke-linejoin="miter"><path d="M240.27835,78.80058c-18.53432,0 -33.55934,-4.04819 -33.55934,-9.04184c0,-4.99365 15.2313,-6.26355 33.76561,-6.26355c18.53432,0 33.35307,1.26989 33.35307,6.26355c0,4.99365 -15.02503,9.04184 -33.55934,9.04184z" data-paper-data="{&quot;index&quot;:null}" fill="url(#color-6)"/><g><path d="M241.16839,95.70262c-28.96261,0 -52.44143,-6.32587 -52.44143,-14.1292c0,-7.80333 23.80114,-9.78772 52.76376,-9.78772c28.96262,0 52.1191,1.9844 52.1191,9.78772c0,7.80333 -23.47882,14.1292 -52.44144,14.1292z" data-paper-data="{&quot;index&quot;:null}" fill="url(#color-7)"/><path d="M242.3559,110.48445c-31.96775,0 -57.8827,-6.32587 -57.8827,-14.1292c0,-7.80333 26.27073,-9.78773 58.23849,-9.78773c31.96775,0 57.52694,1.9844 57.52694,9.78773c0,7.80333 -25.91497,14.1292 -57.88273,14.1292z" data-paper-data="{&quot;index&quot;:null}" fill="url(#color-8)"/><path d="M243.83046,128.74041c-35.08149,0 -63.52063,-7.66231 -63.52063,-17.11424c0,-9.45193 28.82957,-11.85557 63.91106,-11.85557c35.08149,0 63.13021,2.40364 63.13021,11.85557c0,4.635 -6.83873,8.83966 -17.9459,11.92145c-5.25999,-8.00155 -19.28389,-13.44347 -27.7999,-10.35965c-1.71769,0.62201 -3.93259,1.39904 -5.3563,2.61935c-1.02937,0.88231 -2.72502,3.73297 -3.95765,4.17211c-2.81516,1.00294 -5.20017,4.07345 -6.02568,6.87344c-0.13005,0.44108 -0.20026,1.08958 -0.21737,1.87731c-0.73617,0.00681 -1.4755,0.01023 -2.21782,0.01023z" data-paper-data="{&quot;index&quot;:null}" fill="url(#color-9)"/></g><path d="M274.37545,193.74804c0,4.99365 -14.81876,6.26356 -33.35307,6.26356c-18.53432,0 -33.76561,-1.26991 -33.76561,-6.26356c0,-4.99365 15.02504,-9.04183 33.55934,-9.04183c18.53432,0 33.55934,4.04817 33.55934,9.04183z" fill="url(#color-10)"/><path d="M293.0353,180.63612c0,7.80333 -23.15648,9.78774 -52.11909,9.78774c-28.96261,0 -52.76377,-1.98441 -52.76377,-9.78774c0,-7.80333 23.47882,-14.1292 52.44144,-14.1292c28.96261,0 52.44143,6.32587 52.44143,14.1292z" fill="url(#color-11)"/><path d="M299.66412,165.85431c0,7.80333 -25.55919,9.78774 -57.52694,9.78774c-31.96775,0 -58.23849,-1.9844 -58.23849,-9.78774c0,-7.80333 25.91496,-14.1292 57.88271,-14.1292c3.76478,0 7.44563,0.08774 11.01007,0.25529c3.15271,2.93051 8.52617,5.60766 11.13852,5.60094c2.07302,-0.00534 4.09637,-0.64801 6.15583,-0.88483c1.97288,-0.22686 4.75324,-0.89526 7.62584,-1.92041c13.37404,2.58807 21.95246,6.58861 21.95246,11.07822z" fill="url(#color-12)"/><path d="M306.77659,150.5834c0,9.45192 -28.04872,11.85556 -63.1302,11.85556c-35.08149,0 -63.91105,-2.40363 -63.91105,-11.85556c0,-9.45192 28.43914,-17.11425 63.52063,-17.11425c1.04435,0 2.08283,0.00679 3.11483,0.02021c0.27491,2.07733 0.71024,4.25443 1.25559,6.02088c-0.10655,0.82289 -0.17401,1.69324 -0.19163,2.66777c-0.03825,2.11572 2.84607,4.29989 2.90158,5.86811c0.13688,3.86737 9.79082,9.54501 13.59366,9.53521c2.07302,-0.00534 4.09637,-0.64801 6.15583,-0.88483c5.85462,-0.67322 18.82006,-5.23478 20.20535,-11.46877c0.30023,-1.3511 0.46524,-2.73246 0.50705,-4.12601c0.2299,-0.54911 0.43295,-1.11021 0.60893,-1.68083c9.57871,2.99671 15.36941,6.8974 15.36941,11.16249z" fill="url(#color-13)"/><path d="M174.50694,132.67863c0,-9.45193 31.38995,-17.11423 70.11146,-17.11423c3.96555,0 7.8542,0.08036 11.64012,0.23479c-0.00318,0.00271 -0.00635,0.00543 -0.00953,0.00815c-1.02937,0.88231 -2.72502,3.73297 -3.95765,4.17211c-2.81516,1.00294 -0.60258,4.07345 -1.4281,6.87344c-0.60017,2.03567 -4.52355,8.48955 -3.23681,12.65736c-0.10655,0.82289 -0.17401,1.69324 -0.19163,2.66777c-0.0142,0.78569 0.37464,1.58081 0.87197,2.35033c-1.07929,0.00393 -2.16527,0.00584 -3.25742,0.00584h-0.00001c-38.7215,0 -70.5424,-2.40363 -70.5424,-11.85556z" fill="url(#color-14)"/><path d="M314.72983,132.67863c0,5.17424 -9.2777,8.23628 -24.02769,9.94806c0.04893,-0.50609 0.08076,-1.01471 0.09607,-1.52497c2.0423,-4.87799 1.96531,-10.70236 -0.37234,-15.73218c-1.15363,-2.48223 -3.17564,-4.77734 -5.69092,-6.72854c18.13389,3.09363 29.99488,8.22752 29.99488,14.03765z" fill="url(#color-15)"/></g><path d="M227.68905,133.72749c0,10.02515 -6.74545,18.15215 -15.06639,18.15215c-8.32092,0 -15.06637,-8.127 -15.06637,-18.15215c0,-10.02515 6.74544,-18.15215 15.06637,-18.15215c8.32092,0 15.06639,8.127 15.06639,18.15215z" fill="#000000" fill-rule="nonzero" stroke="#000000" stroke-width="0" stroke-linecap="butt" stroke-linejoin="miter"/><path d="M283.11049,223.36344l-22.39949,-4.78869l21.6995,-6.38489z" data-paper-data="{&quot;index&quot;:null}" fill="#000000" fill-rule="nonzero" stroke="none" stroke-width="1" stroke-linecap="butt" stroke-linejoin="miter"/><path d="M196.98843,260.46855l21.35173,-7.46584l-15.40512,16.95143z" data-paper-data="{&quot;index&quot;:null}" fill="#000000" fill-rule="nonzero" stroke="none" stroke-width="1" stroke-linecap="butt" stroke-linejoin="miter"/><path d="M249.01583,148.00223c0,0 15.05646,8.45016 22.45028,7.93364c6.22774,-0.43506 19.01774,-10.83059 19.01774,-10.83059c0,0 5.4997,17.49186 -3.90236,23.17829c-0.37211,0.22505 0.09141,-10.49823 0.09141,-10.49823c0,0 -1.43036,8.43072 -2.41611,8.38423c-1.30925,-0.06175 -1.76101,-6.41761 -2.48113,-6.54603c-0.98975,-0.17651 -1.13814,7.63976 -2.33451,8.12463c-1.27358,0.51616 -2.17364,-4.65191 -3.45535,-4.30865c-0.74299,0.19898 -1.94053,9.73529 -2.71627,9.91311c-0.33126,0.07594 -1.04532,-4.45572 -2.25807,-4.98609c-0.70927,-0.31018 -1.97354,3.72748 -2.41371,2.96752c-1.1855,-2.04675 -0.60818,-6.07235 -1.68047,-6.29828c-1.57578,-0.33202 -2.07182,7.16387 -3.5211,6.39172c-3.08511,-1.64365 -5.08379,-4.59948 -5.08379,-4.59948c0,0 -1.61448,8.79624 -4.43795,8.94694c0,0 -0.05532,-6.14102 -0.87337,-10.81716c-0.80112,-4.5794 -3.98523,-16.95555 -3.98523,-16.95555z" fill="url(#color-16)" fill-rule="nonzero" stroke="#000000" stroke-width="0" stroke-linecap="butt" stroke-linejoin="miter"/><path d="M180.46046,317.61251v-273.22501h125.94783v273.22501z" fill-opacity="0.01" fill="#000000" fill-rule="nonzero" stroke="none" stroke-width="0" stroke-linecap="butt" stroke-linejoin="miter"/></g></g></svg>