<svg version="1.1" xmlns="http://www.w3.org/2000/svg" xmlns:xlink="http://www.w3.org/1999/xlink" width="146.85707" height="231.79596" viewBox="0,0,146.85707,231.79596"><defs><linearGradient x1="157.02978" y1="99.74663" x2="202.49437" y2="99.74663" gradientUnits="userSpaceOnUse" id="color-1"><stop offset="0" stop-color="#874141"/><stop offset="1" stop-color="#321818"/></linearGradient><linearGradient x1="240.00006" y1="175.5001" x2="240.00006" y2="307.50005" gradientUnits="userSpaceOnUse" id="color-2"><stop offset="0" stop-color="#321818"/><stop offset="1" stop-color="#874141"/></linearGradient><linearGradient x1="239.64983" y1="81.22417" x2="239.64983" y2="201.82083" gradientUnits="userSpaceOnUse" id="color-3"><stop offset="0" stop-color="#321818"/><stop offset="1" stop-color="#874141"/></linearGradient><radialGradient cx="212.87084" cy="141.59877" r="23.48065" gradientUnits="userSpaceOnUse" id="color-4"><stop offset="0" stop-color="#000000"/><stop offset="1" stop-color="#4a0000"/></radialGradient><radialGradient cx="264.51863" cy="144.81257" r="23.48065" gradientUnits="userSpaceOnUse" id="color-5"><stop offset="0" stop-color="#969696"/><stop offset="1" stop-color="#955555"/></radialGradient><linearGradient x1="274.18336" y1="89.66452" x2="274.18336" y2="115.82345" gradientUnits="userSpaceOnUse" id="color-6"><stop offset="0" stop-color="#1a0000"/><stop offset="1" stop-color="#800000"/></linearGradient><linearGradient x1="211.01859" y1="217.72143" x2="212.04878" y2="139.86634" gradientUnits="userSpaceOnUse" id="color-7"><stop offset="0" stop-color="#801c1c"/><stop offset="1" stop-color="#000000"/></linearGradient><radialGradient cx="204.87269" cy="232.59863" r="23.48669" gradientUnits="userSpaceOnUse" id="color-8"><stop offset="0" stop-color="#969696"/><stop offset="1" stop-color="#955555"/></radialGradient></defs><g transform="translate(-157.02978,-75.7041)"><g data-paper-data="{&quot;isPaintingLayer&quot;:true}" fill-rule="nonzero" stroke-linejoin="miter" stroke-miterlimit="10" stroke-dasharray="" stroke-dashoffset="0" style="mix-blend-mode: normal"><path d="M172.68562,78.03271c10.30102,-4.81284 24.48103,-1.65319 27.54948,4.80164c7.88766,16.59259 -7.41074,40.95482 -7.41074,40.95482c0,0 -27.10411,-3.4501 -34.99177,-20.04269c-3.26362,-6.8654 3.7675,-20.5344 14.85302,-25.71377z" data-paper-data="{&quot;index&quot;:null}" fill="url(#color-1)" stroke="#000000" stroke-width="0" stroke-linecap="butt"/><path d="M206.75007,307.50005l15.14285,-131.8421l37.78325,-0.15789l13.57389,132z" fill="url(#color-2)" stroke="#000000" stroke-width="0" stroke-linecap="butt"/><path d="M175.41281,141.52251c0,-33.30185 28.7599,-60.29833 64.23702,-60.29833c35.47712,0 64.23702,26.99649 64.23702,60.29833c0,33.30185 -28.7599,60.29833 -64.23702,60.29833c-35.47712,0 -64.23702,-26.99649 -64.23702,-60.29833z" fill="url(#color-3)" stroke="#000000" stroke-width="0" stroke-linecap="butt"/><path d="M189.39019,141.59877c0,-12.968 10.51265,-23.48065 23.48065,-23.48065c12.968,0 23.48065,10.51265 23.48065,23.48065c0,12.968 -10.51265,23.48065 -23.48065,23.48065c-12.968,0 -23.48065,-10.51265 -23.48065,-23.48065z" fill="url(#color-4)" stroke="#000000" stroke-width="0" stroke-linecap="butt"/><path d="M267.12928,165.0794c-12.968,0 -23.48065,-10.51265 -23.48065,-23.48065c0,-12.968 10.51265,-23.48065 23.48065,-23.48065c12.968,0 23.48065,10.51265 23.48065,23.48065c0,12.968 -10.51265,23.48065 -23.48065,23.48065z" data-paper-data="{&quot;index&quot;:null}" fill="url(#color-5)" stroke="#000000" stroke-width="0" stroke-linecap="butt"/><path d="M265.96236,107.98818c-3.9295,-0.92235 -11.96762,-0.86207 -11.96762,-0.86207c0,0 7.24586,-1.8937 12.33413,-0.69937c5.08826,1.19433 11.79721,6.36355 11.79721,6.36355c0,0 -8.05724,-3.83822 -12.16372,-4.80211z" data-paper-data="{&quot;index&quot;:null}" fill="#000000" stroke="none" stroke-width="0" stroke-linecap="butt"/><path d="M299.54031,122.06844c-1.25673,-3.4751 -6.02025,-9.08855 -11.5931,-14.11447c-1.27997,-1.15435 -2.81088,-4.61528 -3.93532,-3.33705c-10.76835,12.24116 -3.4604,-2.6305 -5.14518,-3.71421c-1.53574,-0.98785 -7.64372,-5.42024 -10.73005,-3.70458c-5.31837,2.95641 -8.28631,13.26362 -11.18241,12.26331c-4.10626,-1.4183 4.55511,-9.65414 4.27363,-15.28417c-0.22291,-4.45855 -9.74078,-6.37741 -9.74078,-8.34559c0,-7.22359 17.39451,0.67061 30.30176,10.23747c14.20724,7.2263 18.80054,28.90023 17.75146,25.9993z" fill="url(#color-6)" stroke="none" stroke-width="0" stroke-linecap="butt"/><g data-paper-data="{&quot;index&quot;:null}" stroke="none" stroke-width="0" stroke-linecap="butt"><path d="M212.20622,140.82594c0.72376,0.06794 6.4194,-1.47609 6.30783,0.8184c-0.30126,6.19589 -6.4442,22.39496 -7.87353,37.62298c-1.20613,12.85007 2.14886,27.47273 2.68828,34.18762c0.33655,4.18948 -3.70235,3.26149 -4.73131,3.16491c-0.90908,-0.08533 -2.91954,2.73557 -3.44568,-0.58034c-1.02386,-6.45275 -0.23573,-23.18845 1.05807,-36.97251c1.49343,-15.91097 0.45536,-32.7696 2.01549,-38.49435c0.48599,-1.7833 3.34475,0.19359 3.98086,0.2533z" fill="url(#color-7)"/><path d="M198.43506,255.17954c-12.4711,-3.5554 -19.6987,-16.54745 -16.1433,-29.01854c3.5554,-12.4711 16.54745,-19.6987 29.01854,-16.1433c12.4711,3.5554 19.6987,16.54745 16.1433,29.01854c-3.5554,12.4711 -16.54745,19.6987 -29.01854,16.1433z" data-paper-data="{&quot;index&quot;:null}" fill="url(#color-8)"/><path d="M204.24894,255.38674c-10.0131,0 -18.13033,-8.11722 -18.13033,-18.13033c0,-10.0131 8.11722,-18.13033 18.13033,-18.13033c10.0131,0 18.13032,8.11722 18.13032,18.13033c0,10.0131 -8.11721,18.13033 -18.13032,18.13033z" fill="#000000"/></g><path d="M250.51471,141.26305c0,-9.12808 7.39976,-16.52784 16.52783,-16.52784c9.12808,0 16.52784,7.39977 16.52784,16.52784c0,9.12808 -7.39977,16.52784 -16.52784,16.52784c-9.12808,0 -16.52783,-7.39977 -16.52783,-16.52784z" fill="#000000" stroke="none" stroke-width="0" stroke-linecap="butt"/><path d="M240.08411,181.03504c-6.49396,-0.37342 -14.40277,0.47842 -14.40277,0.47842c0,0 24.51153,-6.42039 36.84683,-3.67986c8.83171,1.96214 -15.99586,3.57223 -22.44406,3.20144z" data-paper-data="{&quot;index&quot;:null}" fill="#000000" stroke="#000000" stroke-width="2" stroke-linecap="round"/></g></g></svg>