<svg version="1.1" xmlns="http://www.w3.org/2000/svg" xmlns:xlink="http://www.w3.org/1999/xlink" width="34.67311" height="34.67311" viewBox="0,0,34.67311,34.67311"><defs><linearGradient x1="240" y1="162.91345" x2="240" y2="197.08656" gradientUnits="userSpaceOnUse" id="color-1"><stop offset="0" stop-color="#000000"/><stop offset="1" stop-color="#273c00"/></linearGradient><linearGradient x1="65.14655" y1="161.52549" x2="85.98327" y2="139.33122" gradientUnits="userSpaceOnUse" id="color-2"><stop offset="0" stop-color="#1a0000"/><stop offset="1" stop-color="#800000"/></linearGradient><linearGradient x1="162.31041" y1="168.19216" x2="141.4737" y2="145.99789" gradientUnits="userSpaceOnUse" id="color-3"><stop offset="0" stop-color="#1a0000"/><stop offset="1" stop-color="#800000"/></linearGradient><linearGradient x1="240.54106" y1="172.57277" x2="240.54106" y2="199.9523" gradientUnits="userSpaceOnUse" id="color-4"><stop offset="0" stop-color="#121b00"/><stop offset="1" stop-color="#395700"/></linearGradient><linearGradient x1="248.51207" y1="180.47661" x2="248.51207" y2="188.86345" gradientUnits="userSpaceOnUse" id="color-5"><stop offset="0" stop-color="#1a0000"/><stop offset="1" stop-color="#800000"/></linearGradient></defs><g transform="translate(-222.66344,-162.66344)"><g data-paper-data="{&quot;isPaintingLayer&quot;:true}" stroke-miterlimit="10" stroke-dasharray="" stroke-dashoffset="0" style="mix-blend-mode: normal"><path d="M229.98312,162.91345h20.03378c3.9166,0 7.06966,3.15307 7.06966,7.06966v20.03379c0,3.91659 -3.15306,7.06966 -7.06966,7.06966h-20.03378c-3.91659,0 -7.06967,-3.15307 -7.06967,-7.06966v-20.03379c0,-3.91659 3.15308,-7.06966 7.06967,-7.06966z" fill="url(#color-1)" fill-rule="evenodd" stroke="#436700" stroke-width="0.5" stroke-linecap="round" stroke-linejoin="round"/><path d="" data-paper-data="{&quot;index&quot;:null}" fill="url(#color-2)" fill-rule="nonzero" stroke="#000000" stroke-width="0" stroke-linecap="butt" stroke-linejoin="miter"/><path d="" data-paper-data="{&quot;index&quot;:null}" fill="url(#color-3)" fill-rule="nonzero" stroke="#000000" stroke-width="0" stroke-linecap="butt" stroke-linejoin="miter"/><g fill-rule="nonzero" stroke-width="0" stroke-linecap="butt" stroke-linejoin="miter"><path d="M228.04845,187.01868c0,-1.99746 0.53296,-3.87808 1.47267,-5.52339c0.4276,-0.74867 -6.52801,-8.63061 -6.52801,-8.63061c0,0 8.77926,5.29157 9.17964,4.95282c2.21022,-1.87004 5.13682,-2.50513 8.34666,-2.50513c2.4007,0 4.64296,0.63675 6.54557,1.74015c0.62091,0.36009 3.27692,2.6803 3.87736,3.53617c1.29466,1.84542 2.04803,4.05511 2.04803,6.42998c0,0.0462 -0.00029,0.09223 -0.00085,0.13809c-2.25622,0.0589 -23.9875,0.0835 -24.94196,0.00096c0.00058,-0.04512 0.00089,-0.09144 0.00089,-0.13905z" fill="url(#color-4)" stroke="#000000"/><path d="M246.75806,186.45676c0.00368,-0.43036 -0.05673,-1.05214 -0.06138,-1.24231c-0.0263,-1.07533 -0.80078,-8.68535 -0.80078,-8.68535c0,0 2.44062,1.0822 3.3344,1.80899c0.93478,0.76012 2.1568,2.65623 2.1568,2.65623c0,0 -0.61155,3.49787 -0.61155,4.99586c0,0.39067 0.00883,0.82244 0.00266,1.23354c-0.23496,0.00804 -0.46992,0.01635 -0.70486,0.02492c-0.03919,-0.33467 -0.16172,-0.54857 -0.29359,-0.63097c-0.08319,-0.05197 -0.07989,0.31898 -0.10352,0.6457c-0.20489,0.00772 -0.40977,0.01564 -0.61465,0.02373c0.00218,-0.15622 0.00668,-0.32039 0.00647,-0.48162c-0.0007,-0.52682 -0.07709,-1.02233 -0.24905,-1.10679c0,0 -0.07685,0.60251 -0.34079,0.65189c-0.35339,0.06612 -0.06201,0.77546 -0.47014,0.76649c-0.45942,-0.0101 -0.40745,-1.70038 -0.55961,-1.64347c-0.12126,0.04535 -0.01702,0.52663 -0.02552,1.06141c-0.00442,0.27787 -0.02488,0.57018 -0.06633,0.8233c-0.20135,0.00884 -0.40269,0.01782 -0.60401,0.02693c-0.00728,-0.26619 0.00256,-0.58985 0.00546,-0.92848z" fill="url(#color-5)" stroke="none"/></g></g></g></svg>