<svg version="1.1" xmlns="http://www.w3.org/2000/svg" xmlns:xlink="http://www.w3.org/1999/xlink" width="35.53703" height="34.17311" viewBox="0,0,35.53703,34.17311"><g transform="translate(-222.91344,-162.91345)"><g data-paper-data="{&quot;isPaintingLayer&quot;:true}" stroke-miterlimit="10" stroke-dasharray="" stroke-dashoffset="0" style="mix-blend-mode: normal"><path d="M229.9831,162.91345h20.03379c3.9166,0 7.06966,3.15307 7.06966,7.06966v20.03379c0,3.91659 -3.15306,7.06966 -7.06966,7.06966h-20.03379c-3.91659,0 -7.06966,-3.15307 -7.06966,-7.06966v-20.03379c0,-3.91659 3.15307,-7.06966 7.06966,-7.06966z" fill-opacity="0.09677" fill="#191919" fill-rule="evenodd" stroke="none" stroke-width="4.43922" stroke-linecap="round" stroke-linejoin="round"/><g fill="#666666" fill-rule="nonzero" stroke="#000000" stroke-width="0.5" stroke-linecap="butt" stroke-linejoin="miter"><path d="M249.32895,183.60358c-1.39477,0.88907 -3.20736,0.54004 -4.04853,-0.77958c-0.84118,-1.31962 -0.3924,-3.11013 1.00237,-3.9992c1.39477,-0.88907 11.39095,-3.90074 11.39095,-3.90074c0,0 -6.95002,7.79045 -8.34478,8.67952z"/><path d="M247.1599,180.02327c-0.74335,1.0642 -2.16217,1.35676 -3.16903,0.65346c-1.00686,-0.7033 -1.22049,-2.13614 -0.47714,-3.20033c0.74335,-1.0642 7.0822,-6.25567 7.0822,-6.25567c0,0 -2.69269,7.73834 -3.43603,8.80254z"/><path d="M232.4462,183.75364c-1.39477,-0.88907 -8.34479,-8.67952 -8.34479,-8.67952c0,0 9.99618,3.01167 11.39095,3.90074c1.39477,0.88907 1.84354,2.67958 1.00237,3.9992c-0.84118,1.31962 -2.65377,1.66865 -4.04853,0.77958z"/><path d="M233.05187,177.9334c-0.48795,-0.92799 -1.86247,-7.40135 -1.86247,-7.40135c0,0 4.55401,4.80154 5.04196,5.72953c0.48795,0.92799 0.17176,2.05452 -0.70623,2.51618c-0.87799,0.46166 -1.98531,0.08363 -2.47326,-0.84436z"/><path d="M235.76069,175.32281c0.17752,-1.64448 4.71328,-10.89846 4.71328,-10.89846c0,0 4.64657,9.66478 4.46904,11.30925c-0.17753,1.64448 -3.37167,3.28218 -4.92756,3.11422c-1.55588,-0.16796 -4.43229,-1.88053 -4.25476,-3.52501z"/></g><path d="M229.10849,185.11189c0,-5.6464 4.8763,-10.22371 10.89152,-10.22371c6.01522,0 10.89153,4.57732 10.89153,10.22371" fill="#afafaf" fill-rule="nonzero" stroke="#000000" stroke-width="0.5" stroke-linecap="butt" stroke-linejoin="miter"/></g></g></svg>