<svg version="1.1" xmlns="http://www.w3.org/2000/svg" xmlns:xlink="http://www.w3.org/1999/xlink" width="246.60668" height="281.24295" viewBox="0,0,246.60668,281.24295"><g transform="translate(-118.20207,-41.70799)"><g data-paper-data="{&quot;isPaintingLayer&quot;:true}" fill-rule="nonzero" stroke-linejoin="miter" stroke-miterlimit="10" stroke-dasharray="" stroke-dashoffset="0" style="mix-blend-mode: normal"><g data-paper-data="{&quot;index&quot;:null}" stroke="#000000" stroke-width="2" stroke-linecap="butt"><path d="M206.84378,132.47943l-69.71708,6.28719l-0.65867,-7.30368l69.71708,-6.28719z" fill="#ffdf9e"/><path d="M135.21058,117.5195c9.71761,-0.87633 18.30569,6.29093 19.18203,16.0085c0.87634,9.71759 -6.29093,18.3057 -16.00851,19.18204c-9.71759,0.87634 -18.30569,-6.29093 -19.18203,-16.0085c-0.87634,-9.71758 6.29093,-18.30567 16.0085,-19.18202z" fill="#ffa800"/></g><g data-paper-data="{&quot;index&quot;:null}" stroke="#000000" stroke-width="2" stroke-linecap="butt"><path d="M278.30496,127.95133l68.57077,14.07302l-1.47433,7.18358l-68.57077,-14.073z" fill="#ffdf9e"/><path d="M349.69034,128.31018c9.55781,1.96158 15.71577,11.29991 13.7542,20.85771c-1.96157,9.55781 -11.2999,15.71578 -20.85771,13.7542c-9.55782,-1.96159 -15.71579,-11.2999 -13.75421,-20.85772c1.96159,-9.55782 11.29991,-15.71579 20.85772,-13.75421z" fill="#ffa800"/></g><path d="M175.63025,322.95094v-267.22501h123.18203v267.22501z" fill-opacity="0.01" fill="#000000" stroke="none" stroke-width="0" stroke-linecap="butt"/><path d="M283.23678,104.79685c-2.72834,7.76528 -10.89597,11.96768 -18.2429,9.38633c-7.34693,-2.58135 -11.09102,-10.96896 -8.36268,-18.73425c2.72834,-7.76529 32.60562,-50.26482 32.60562,-50.26482c0,0 -3.2717,51.84746 -6.00004,59.61273z" data-paper-data="{&quot;index&quot;:null}" fill="#946300" stroke="#000000" stroke-width="2" stroke-linecap="butt"/><path d="M193.21376,107.16196c-2.72835,-7.76527 -6.00004,-59.61273 -6.00004,-59.61273c0,0 29.87728,42.49954 32.60562,50.26482c2.72834,7.76528 -1.01575,16.1529 -8.36268,18.73425c-7.34693,2.58135 -15.51455,-1.62106 -18.2429,-9.38633z" fill="#946300" stroke="#000000" stroke-width="2" stroke-linecap="butt"/><path d="M206.75008,307.50002l15.14285,-131.8421l37.78325,-0.15789l13.57389,132z" fill="#ffa800" stroke="#000000" stroke-width="2" stroke-linecap="butt"/><path d="M219.70031,204.11265l3.12142,-26.32765l35.83075,-0.14203l2.76735,26.1059c0,0 -7.51543,4.19603 -21.55904,4.50964c-12.48458,0.27879 -20.16049,-4.14586 -20.16049,-4.14586z" fill="#c88500" stroke="#000000" stroke-width="0" stroke-linecap="butt"/><path d="M174.35451,147.51286c0,-33.30185 28.7599,-60.29833 64.23702,-60.29833c35.47712,0 64.23702,26.99649 64.23702,60.29833c0,33.30185 -28.7599,60.29833 -64.23702,60.29833c-35.47712,0 -64.23702,-26.99649 -64.23702,-60.29833z" fill="#ffa800" stroke="#000000" stroke-width="2" stroke-linecap="butt"/><path d="M175.31149,147.68777c0,-0.72799 5.20666,55.91939 63.36046,56.93429c55.56352,0.9697 63.51358,-57.95314 63.51358,-56.93429c0,32.80479 -28.40173,59.39833 -63.43702,59.39833c-35.03529,0 -63.43702,-26.59354 -63.43702,-59.39833z" fill="#c88500" stroke="#000000" stroke-width="0" stroke-linecap="butt"/><path d="M187.76538,147.60901c0,-12.968 10.51265,-23.48065 23.48065,-23.48065c12.968,0 23.48065,10.51265 23.48065,23.48065c0,12.968 -10.51265,23.48065 -23.48065,23.48065c-12.968,0 -23.48065,-10.51265 -23.48065,-23.48065z" fill="#ffffff" stroke="#000000" stroke-width="2" stroke-linecap="butt"/><path d="M188.62214,147.27353c0,-9.12808 7.39976,-16.52784 16.52783,-16.52784c9.12808,0 16.52784,7.39977 16.52784,16.52784c0,9.12808 -7.39977,16.52784 -16.52784,16.52784c-9.12808,0 -16.52783,-7.39977 -16.52783,-16.52784z" fill="#000000" stroke="none" stroke-width="0" stroke-linecap="butt"/><path d="M265.50446,171.08965c-12.968,0 -23.48065,-10.51265 -23.48065,-23.48065c0,-12.968 10.51265,-23.48065 23.48065,-23.48065c12.968,0 23.48065,10.51265 23.48065,23.48065c0,12.968 -10.51265,23.48065 -23.48065,23.48065z" data-paper-data="{&quot;index&quot;:null}" fill="#ffffff" stroke="#000000" stroke-width="2" stroke-linecap="butt"/><path d="M259.3302,164.02507c-9.12807,0 -16.52783,-7.39977 -16.52783,-16.52784c0,-9.12808 7.39977,-16.52784 16.52783,-16.52784c9.12807,0 16.52783,7.39977 16.52783,16.52784c0,9.12808 -7.39977,16.52784 -16.52783,16.52784z" data-paper-data="{&quot;index&quot;:null}" fill="#000000" stroke="none" stroke-width="0" stroke-linecap="butt"/><path d="M200.40305,118.80054c0,0 6.70895,-5.16922 11.79722,-6.36355c5.08827,-1.19433 12.33413,0.69937 12.33413,0.69937c0,0 -8.03812,-0.06028 -11.96762,0.86207c-4.10648,0.96388 -12.16372,4.80211 -12.16372,4.80211z" fill="#000000" stroke="none" stroke-width="0" stroke-linecap="butt"/><path d="M264.33754,113.99844c-3.9295,-0.92235 -11.96762,-0.86207 -11.96762,-0.86207c0,0 7.24586,-1.8937 12.33413,-0.69937c5.08826,1.19433 11.79721,6.36355 11.79721,6.36355c0,0 -8.05724,-3.83822 -12.16372,-4.80211z" data-paper-data="{&quot;index&quot;:null}" fill="#000000" stroke="none" stroke-width="0" stroke-linecap="butt"/><path d="M218.14712,186.70841c0,0 25.46311,-6.29686 32.18168,-6.18361c4.89631,0.08253 4.42164,6.8006 4.42164,6.8006" fill="#000000" stroke="#000000" stroke-width="0.5" stroke-linecap="round"/><path d="M187.57441,147.88937c0,-12.96801 10.51265,-23.48065 23.48066,-23.48065c12.96801,0 23.48065,10.51264 23.48065,23.48065c0,0 -9.31888,-14.62498 -23.43307,-15.13879c-14.72884,-0.53619 -23.52823,15.7554 -23.52823,15.13879z" fill="#ffa800" stroke="#000000" stroke-width="2" stroke-linecap="butt"/><path d="M241.54961,147.82575c0,-12.96801 10.51265,-23.48065 23.48066,-23.48065c12.96801,0 23.48065,10.51264 23.48065,23.48065c0,0 -9.31888,-14.62498 -23.43307,-15.13879c-14.72884,-0.53619 -23.52823,15.7554 -23.52823,15.13879z" fill="#ffa800" stroke="#000000" stroke-width="2" stroke-linecap="butt"/></g></g></svg>