<svg version="1.1" xmlns="http://www.w3.org/2000/svg" xmlns:xlink="http://www.w3.org/1999/xlink" width="38.19044" height="38.19044" viewBox="0,0,38.19044,38.19044"><g transform="translate(-220.9048,-160.90481)"><g data-paper-data="{&quot;isPaintingLayer&quot;:true}" stroke-miterlimit="10" stroke-dasharray="" stroke-dashoffset="0" style="mix-blend-mode: normal"><path d="M259.09524,180.00003c0,10.54601 -8.54924,19.09522 -19.09522,19.09522c-10.54601,0 -19.09522,-8.54922 -19.09522,-19.09522c0,-10.54601 8.54922,-19.09522 19.09522,-19.09522c10.54601,0 19.09522,8.54922 19.09522,19.09522" fill="#727272" fill-rule="evenodd" stroke="none" stroke-width="0.07853" stroke-linecap="round" stroke-linejoin="round"/><path d="M246.57149,173.87162h-13.14286" fill="none" fill-rule="nonzero" stroke="#ffffff" stroke-width="2" stroke-linecap="round" stroke-linejoin="miter"/><path d="M246.57149,180.00003h-13.14286" fill="none" fill-rule="nonzero" stroke="#ffffff" stroke-width="2" stroke-linecap="round" stroke-linejoin="miter"/><path d="M233.42863,186.12844h13.14286" fill="none" fill-rule="nonzero" stroke="#ffffff" stroke-width="2" stroke-linecap="round" stroke-linejoin="miter"/><path d="M247.94628,182.48302c-1.18169,0.48143 -11.08717,0.54724 -13.34947,0.06932c-2.2437,-0.474 -3.25403,-3.39212 -1.25,-4.6875c3.47877,-2.24863 8.95289,1.42368 12.15469,-0.37806c-3.40863,-0.01454 -8.08076,-0.98286 -9.97513,-1.08153c-0.29179,-0.0152 -5.26037,0.3852 -5.56132,-1.11955l-0.61481,-1.64203c1.08987,-1.34754 2.255,-2.01687 3.49603,-2.29371c2.82063,-0.62921 6.03337,0.76902 9.64596,0.84002c1.55627,0.03059 3.2944,-0.7912 4.66932,-0.06147c1.4964,0.7942 3.50571,2.18876 2.07116,4.34059c-0.0471,0.07065 -0.1019,0.13696 -0.16395,0.19911c0.66768,0.44885 1.10698,1.21124 1.10698,2.07625c0,0.25107 -0.03701,0.4935 -0.10587,0.72213c0.13724,1.17913 -0.45618,2.33713 -2.12358,3.01644z" fill="#727272" fill-rule="nonzero" stroke="none" stroke-width="0.5" stroke-linecap="butt" stroke-linejoin="miter"/><path d="M242.32671,183.96101c0.93075,0.05112 4.47745,-0.89356 5.29114,-0.07987c1.14342,1.14342 1.5103,3.3579 0,4.375c-2.98267,2.00865 -11.51282,-0.29904 -14.98287,-0.07986c-0.84259,0.05322 -4.05265,-0.33125 -3.95114,-1.80316c-0.15961,-0.32924 -0.24912,-0.69877 -0.24912,-1.08921c0,-1.38071 1.11929,-2.5 2.5,-2.5c0.38263,0 0.74518,0.08596 1.0694,0.23962c3.21973,-0.95108 6.3682,0.72029 10.32259,0.93748z" fill="#727272" fill-rule="nonzero" stroke="none" stroke-width="0.5" stroke-linecap="butt" stroke-linejoin="miter"/><path d="M228.7113,173.77445l0.13079,8.63209" fill="none" fill-rule="nonzero" stroke="#ffffff" stroke-width="1" stroke-linecap="round" stroke-linejoin="miter"/><path d="M233.28892,177.82892l-8.89366,0.13079" fill="none" fill-rule="nonzero" stroke="#ffffff" stroke-width="1" stroke-linecap="round" stroke-linejoin="miter"/><text transform="translate(233.29633,187.17474) scale(0.62186,0.62186)" font-size="40" xml:space="preserve" fill="#ffffff" fill-rule="nonzero" stroke="none" stroke-width="1" stroke-linecap="butt" stroke-linejoin="miter" stroke-miterlimit="10" stroke-dasharray="" stroke-dashoffset="0" font-family="Handwriting" font-weight="normal" text-anchor="start" style="mix-blend-mode: normal"><tspan x="0" dy="0">$</tspan></text></g></g></svg>