<svg version="1.1" xmlns="http://www.w3.org/2000/svg" xmlns:xlink="http://www.w3.org/1999/xlink" width="34.17311" height="34.17311" viewBox="0,0,34.17311,34.17311"><g transform="translate(-222.91345,-162.91344)"><g data-paper-data="{&quot;isPaintingLayer&quot;:true}" stroke-miterlimit="10" stroke-dasharray="" stroke-dashoffset="0" style="mix-blend-mode: normal"><path d="M229.98311,162.91345h20.03379c3.9166,0 7.06966,3.15307 7.06966,7.06966v20.03379c0,3.91659 -3.15306,7.06966 -7.06966,7.06966h-20.03379c-3.91659,0 -7.06966,-3.15307 -7.06966,-7.06966v-20.03379c0,-3.91659 3.15307,-7.06966 7.06966,-7.06966z" fill="#fff000" fill-rule="evenodd" stroke="none" stroke-width="0" stroke-linecap="round" stroke-linejoin="round"/><g fill-rule="nonzero" stroke-linejoin="miter"><path d="M243.08418,182.01373h-6.71956" fill="none" stroke="#000000" stroke-width="0.5" stroke-linecap="round"/><path d="M254.81821,183.05724c0,2.33091 -9.66668,4.07176 -15.11038,4.07176c-5.4437,0 -14.5261,-1.71954 -14.5261,-4.05045c0,-2.33091 9.78361,-6.13291 15.22731,-6.13291c5.4437,0 14.40916,3.78068 14.40916,6.1116z" fill="#ffcb00" stroke="#000000" stroke-width="0.5" stroke-linecap="butt"/><path d="M239.65907,186.91521c-2.00689,0 -4.68895,-0.34451 -7.04753,-0.71572c-0.67314,-2.06677 -1.70494,-4.56406 -2.55345,-6.50644c-0.04969,-0.11375 7.00749,-2.52915 9.85172,-2.52915c2.85339,0 6.94849,1.14225 9.93875,2.33568c-0.18501,0.37393 -2.41777,5.05052 -3.17086,6.73835c-2.45939,0.37467 -5.01125,0.67728 -7.01864,0.67728z" fill="#ff9f00" stroke="#000000" stroke-width="0" stroke-linecap="butt"/><path d="M236.22744,181.35873c0,0.77746 -0.32108,1.40772 -0.71714,1.40772c-0.39606,0 -0.71714,-0.63026 -0.71714,-1.40772c0,-0.77746 0.32108,-1.40772 0.71714,-1.40772c0.39606,0 0.71714,0.63026 0.71714,1.40772z" fill="#000000" stroke="none" stroke-width="0.5" stroke-linecap="butt"/><path d="M245.30006,181.19874c0,0.77746 -0.32108,1.40772 -0.71714,1.40772c-0.39606,0 -0.71714,-0.63026 -0.71714,-1.40772c0,-0.77746 0.32108,-1.40772 0.71714,-1.40772c0.39606,0 0.71714,0.63026 0.71714,1.40772z" fill="#000000" stroke="none" stroke-width="0.5" stroke-linecap="butt"/></g></g></g></svg>