<svg version="1.1" xmlns="http://www.w3.org/2000/svg" xmlns:xlink="http://www.w3.org/1999/xlink" width="34.52544" height="34.17311" viewBox="0,0,34.52544,34.17311"><g transform="translate(-222.91344,-162.91344)"><g data-paper-data="{&quot;isPaintingLayer&quot;:true}" stroke-miterlimit="10" stroke-dasharray="" stroke-dashoffset="0" style="mix-blend-mode: normal"><path d="M229.98311,162.91345h20.03379c3.9166,0 7.06966,3.15307 7.06966,7.06966v20.03379c0,3.91659 -3.15306,7.06966 -7.06966,7.06966h-20.03379c-3.91659,0 -7.06966,-3.15307 -7.06966,-7.06966v-20.03379c0,-3.91659 3.15307,-7.06966 7.06966,-7.06966z" fill="#ff6300" fill-rule="evenodd" stroke="none" stroke-width="4.43922" stroke-linecap="round" stroke-linejoin="round"/><path d="M257.08655,190.0169c0,3.91659 -3.15306,7.06966 -7.06966,7.06966h-20.03379c-3.91659,0 -7.06966,-3.15307 -7.06966,-7.06966l0.07796,-8.05621l34.44749,0.8562z" fill="#5a2700" fill-rule="evenodd" stroke="none" stroke-width="4.43922" stroke-linecap="round" stroke-linejoin="round"/><g data-paper-data="{&quot;index&quot;:null}" fill-rule="nonzero" stroke="#000000" stroke-linecap="butt" stroke-linejoin="miter"><path d="M236.15971,179.82752c1.63627,1.75042 -5.02487,7.08827 -6.66114,5.33785c-1.63627,-1.75042 -4.65372,-10.76578 -4.65372,-10.76578c0,0 9.67859,3.67751 11.31485,5.42793z" data-paper-data="{&quot;index&quot;:null}" fill="#ff6300" stroke-width="0.5"/><path d="M234.41139,180.18161c1.24209,1.32873 1.11707,3.46399 -0.27923,4.76923c-1.3963,1.30524 -3.53513,1.2862 -4.77722,-0.04254c-1.24209,-1.32873 -3.53262,-8.84701 -3.53262,-8.84701c0,0 7.34699,2.79158 8.58907,4.12031z" data-paper-data="{&quot;index&quot;:null}" fill="#ffffff" stroke-width="0"/></g><g fill-rule="nonzero" stroke="#000000" stroke-linecap="butt" stroke-linejoin="miter"><path d="M245.42363,179.24103c1.63627,-1.75042 11.31485,-5.42792 11.31485,-5.42792c0,0 -3.01745,9.34869 -4.65371,11.09911c-1.63627,1.75042 -8.29741,-3.92076 -6.66114,-5.67118z" data-paper-data="{&quot;index&quot;:null}" fill="#ff6300" stroke-width="0.5"/><path d="M247.17194,179.59513c1.24209,-1.32873 8.58907,-4.12032 8.58907,-4.12032c0,0 -2.29054,7.51828 -3.53262,8.84701c-1.24209,1.32873 -3.38092,1.34778 -4.77722,0.04254c-1.3963,-1.30524 -1.52131,-3.44051 -0.27923,-4.76924z" data-paper-data="{&quot;index&quot;:null}" fill="#ffffff" stroke-width="0"/></g><path d="M228.2377,186.05463c0,-6.14664 5.30831,-11.12947 11.85645,-11.12947c6.54814,0 11.85645,4.98283 11.85645,11.12947" fill="#ff6300" fill-rule="nonzero" stroke="#000000" stroke-width="0.5" stroke-linecap="butt" stroke-linejoin="miter"/><path d="M235.52967,180.52207c0.01134,1.90741 -0.61392,3.45373 -1.40569,3.45373c-0.79177,0 -1.12642,-2.1607 -1.12642,-4.06814c0,-1.90744 0.29289,-2.86409 1.04264,-3.1186c0.98727,-0.33514 1.46155,-0.96721 1.48948,3.73301z" fill="#5a2700" fill-rule="nonzero" stroke="none" stroke-width="0.5" stroke-linecap="butt" stroke-linejoin="miter"/><path d="M241.95595,180.86211c0,3.13109 -0.74397,5.66933 -1.6617,5.66933c-0.91773,0 -1.6617,-2.53824 -1.6617,-5.66933c0,-2.08516 -0.36044,-5.33786 0.72368,-5.5275c0.58865,-0.10297 0.63145,-0.14183 0.93802,-0.14183c0.38452,0 0.45457,0.10249 1.02011,0.06961c1.32231,-0.07687 0.64159,3.78053 0.64159,5.59972z" fill="#5a2700" fill-rule="nonzero" stroke="#000000" stroke-width="0" stroke-linecap="butt" stroke-linejoin="miter"/><path d="M246.5799,176.74717c0.74975,0.25451 1.04264,1.21116 1.04264,3.1186c0,1.90744 -0.33465,4.06814 -1.12642,4.06814c-0.79177,0 -1.41703,-1.54632 -1.40569,-3.45373c0.02793,-4.70021 0.50221,-4.06814 1.48948,-3.73301z" data-paper-data="{&quot;index&quot;:null}" fill="#5a2700" fill-rule="nonzero" stroke="none" stroke-width="0.5" stroke-linecap="butt" stroke-linejoin="miter"/></g></g></svg>