<svg version="1.1" xmlns="http://www.w3.org/2000/svg" xmlns:xlink="http://www.w3.org/1999/xlink" width="186.75688" height="273.0439" viewBox="0,0,186.75688,273.0439"><g transform="translate(-149.4638,-46.40042)"><g data-paper-data="{&quot;isPaintingLayer&quot;:true}" fill-rule="nonzero" stroke-linejoin="miter" stroke-miterlimit="10" stroke-dasharray="" stroke-dashoffset="0" style="mix-blend-mode: normal"><path d="M178.96909,319.44432v-267.22501h123.18203v267.22501z" fill-opacity="0.01" fill="#000000" stroke="none" stroke-width="0" stroke-linecap="butt"/><g stroke="#000000" stroke-width="2" stroke-linecap="butt"><path d="M215.03523,117.1573l-49.49748,-49.49748l5.18545,-5.18544l49.49747,49.49748z" fill="#1c1c1c"/><path d="M155.63825,77.55931c-6.89926,-6.89926 -6.89926,-18.08518 0,-24.98444c6.89926,-6.89926 18.08518,-6.89926 24.98444,0c6.89926,6.89926 6.89926,18.08518 0,24.98444c-6.89926,6.89926 -18.08518,6.89926 -24.98444,0z" fill="#404040"/></g><path d="M272.75096,214.78787c-8.51535,1.67202 -9.137,16.15086 -9.137,16.15086l-7.07444,-40.86981l22.42255,-4.36286l8.24957,33.38606c0,0 -4.5732,-6.24568 -14.46068,-4.30424z" data-paper-data="{&quot;index&quot;:null}" fill="#2c2c2c" stroke="#000000" stroke-width="2" stroke-linecap="butt"/><path d="M192.93717,213.60517l8.24957,-33.38606l22.42256,4.36286l-7.07444,40.86981c0,0 -0.62166,-14.47884 -9.13701,-16.15086c-9.88748,-1.94144 -14.46068,4.30424 -14.46068,4.30424z" fill="#2c2c2c" stroke="#000000" stroke-width="2" stroke-linecap="butt"/><g data-paper-data="{&quot;index&quot;:null}" stroke="#000000" stroke-width="2" stroke-linecap="butt"><path d="M265.46382,111.97185l49.49748,-49.49747l5.18544,5.18544l-49.49747,49.49748z" fill="#1c1c1c"/><path d="M305.0618,77.55931c-6.89926,-6.89926 -6.89926,-18.08518 0,-24.98444c6.89926,-6.89926 18.08518,-6.89926 24.98444,0c6.89926,6.89926 6.89926,18.08518 0,24.98444c-6.89926,6.89926 -18.08518,6.89926 -24.98444,0z" fill="#404040"/></g><path d="M206.90988,307.82783l15.14285,-131.8421l37.78325,-0.15789l13.57389,132z" fill="#404040" stroke="#000000" stroke-width="2" stroke-linecap="butt"/><path d="M219.8601,204.44046l3.12142,-26.32765l35.83075,-0.14203l2.76735,26.1059c0,0 -7.51543,4.19603 -21.55904,4.50964c-12.48458,0.27879 -20.16049,-4.14586 -20.16049,-4.14586z" fill="#2c2c2c" stroke="#000000" stroke-width="0" stroke-linecap="butt"/><path d="M176.40005,143.0113c0,-33.30185 28.7599,-60.29833 64.23702,-60.29833c35.47712,0 64.23702,26.99649 64.23702,60.29833c0,33.30185 -28.7599,60.29833 -64.23702,60.29833c-35.47712,0 -64.23702,-26.99649 -64.23702,-60.29833z" fill="#404040" stroke="#000000" stroke-width="2" stroke-linecap="butt"/><path d="M177.12318,142.7318c0,-0.72799 5.20666,55.91939 63.36046,56.93429c55.56352,0.9697 63.51358,-57.95314 63.51358,-56.93429c0,32.80479 -28.40173,59.39833 -63.43702,59.39833c-35.03529,0 -63.43702,-26.59354 -63.43702,-59.39833z" fill="#2c2c2c" stroke="#000000" stroke-width="0" stroke-linecap="butt"/><path d="M189.95028,143.10744c0,-12.968 10.51265,-23.48065 23.48065,-23.48065c12.968,0 23.48065,10.51265 23.48065,23.48065c0,12.968 -10.51265,23.48065 -23.48065,23.48065c-12.968,0 -23.48065,-10.51265 -23.48065,-23.48065z" fill="#000000" stroke="#000000" stroke-width="2" stroke-linecap="butt"/><path d="M267.68937,166.58808c-12.968,0 -23.48065,-10.51265 -23.48065,-23.48065c0,-12.968 10.51265,-23.48065 23.48065,-23.48065c12.968,0 23.48065,10.51265 23.48065,23.48065c0,12.968 -10.51265,23.48065 -23.48065,23.48065z" data-paper-data="{&quot;index&quot;:null}" fill="#000000" stroke="#000000" stroke-width="2" stroke-linecap="butt"/><path d="M189.95028,143.10744c0,-12.968 10.51265,-23.48065 23.48065,-23.48065c12.968,0 23.48065,10.51265 23.48065,23.48065c0,0 -46.96131,1.23155 -46.96131,0z" fill="#2c2c2c" stroke="#000000" stroke-width="2" stroke-linecap="butt"/><path d="M244.20873,143.10744c0,-12.968 10.51265,-23.48065 23.48065,-23.48065c12.968,0 23.48065,10.51265 23.48065,23.48065c0,1.2138 -46.96131,0 -46.96131,0z" data-paper-data="{&quot;index&quot;:null}" fill="#2c2c2c" stroke="#000000" stroke-width="2" stroke-linecap="butt"/><path d="M202.58799,114.29897c0,0 6.70895,-5.16922 11.79722,-6.36355c5.08827,-1.19433 12.33413,0.69937 12.33413,0.69937c0,0 -8.03812,-0.06028 -11.96762,0.86207c-4.10648,0.96388 -12.16372,4.80211 -12.16372,4.80211z" fill="#000000" stroke="none" stroke-width="0" stroke-linecap="butt"/><path d="M266.52245,109.49687c-3.9295,-0.92235 -11.96762,-0.86207 -11.96762,-0.86207c0,0 7.24586,-1.8937 12.33413,-0.69937c5.08826,1.19433 11.79721,6.36355 11.79721,6.36355c0,0 -8.05724,-3.83822 -12.16372,-4.80211z" data-paper-data="{&quot;index&quot;:null}" fill="#000000" stroke="none" stroke-width="0" stroke-linecap="butt"/><path d="M218.12953,91.46913l23,-18l-1.33333,11.33334l23.83333,-11.5l-4.83333,21.33333" data-paper-data="{&quot;index&quot;:null}" fill="#404040" stroke="#000000" stroke-width="2" stroke-linecap="round"/><path d="M240.00781,190.80639c-6.44738,0 -12.24271,-15.35286 -12.24271,-15.35286h25.10959c0,0 -6.4195,15.35286 -12.86688,15.35286z" fill="#000000" stroke="#000000" stroke-width="2" stroke-linecap="round"/></g></g></svg>