<svg version="1.1" xmlns="http://www.w3.org/2000/svg" xmlns:xlink="http://www.w3.org/1999/xlink" width="166.24526" height="267.22501" viewBox="0,0,166.24526,267.22501"><g transform="translate(-159.16813,-46.3875)"><g data-paper-data="{&quot;isPaintingLayer&quot;:true}" fill-rule="nonzero" stroke-linejoin="miter" stroke-miterlimit="10" stroke-dasharray="" stroke-dashoffset="0" style="mix-blend-mode: normal"><g data-paper-data="{&quot;index&quot;:null}" stroke="#000000" stroke-linecap="butt"><path d="M218.59717,102.15804c8.3699,8.95381 7.52747,23.34246 -1.88162,32.13794c-9.40909,8.79548 -23.82181,8.66714 -32.19171,-0.28667c-8.3699,-8.95381 -23.80489,-59.61643 -23.80489,-59.61643c0,0 49.50832,18.81134 57.87822,27.76515z" data-paper-data="{&quot;index&quot;:null}" fill="#ff6300" stroke-width="2"/><path d="M209.65411,103.96932c6.35356,6.79681 5.71408,17.71918 -1.42833,24.3958c-7.14241,6.67662 -18.08306,6.5792 -24.43662,-0.21761c-6.35356,-6.79681 -18.07021,-45.25463 -18.07021,-45.25463c0,0 37.5816,14.27962 43.93516,21.07643z" data-paper-data="{&quot;index&quot;:null}" fill="#ffffff" stroke-width="0"/></g><g stroke="#000000" stroke-linecap="butt"><path d="M265.98436,99.15803c8.3699,-8.95381 57.87822,-27.76515 57.87822,-27.76515c0,0 -15.43499,50.66262 -23.80489,59.61643c-8.3699,8.95381 -22.78262,9.08215 -32.19171,0.28667c-9.40909,-8.79548 -10.25152,-23.18413 -1.88162,-32.13794z" data-paper-data="{&quot;index&quot;:null}" fill="#ff6300" stroke-width="2"/><path d="M274.92742,100.96931c6.35356,-6.79681 43.93516,-21.07643 43.93516,-21.07643c0,0 -11.71665,38.45782 -18.07021,45.25463c-6.35356,6.79681 -17.29421,6.89423 -24.43662,0.21761c-7.14241,-6.67662 -7.78189,-17.59899 -1.42833,-24.3958z" data-paper-data="{&quot;index&quot;:null}" fill="#ffffff" stroke-width="0"/></g><path d="M178.40901,313.61252v-267.22501h123.18203v267.22501z" fill-opacity="0.01" fill="#000000" stroke="none" stroke-width="0" stroke-linecap="butt"/><g stroke="#000000" stroke-linecap="butt"><path d="M206.2501,305.00003l15.14285,-131.8421l37.78325,-0.15789l13.57389,132z" fill="#ff6300" stroke-width="2"/><path d="M219.20031,201.61266l3.12142,-26.32765l35.83075,-0.14203l2.76735,26.1059c0,0 -7.51543,4.19603 -21.55904,4.50964c-12.48458,0.27879 -20.16049,-4.14586 -20.16049,-4.14586z" fill="#ce4f00" stroke-width="0"/><path d="M213.73152,244.66322l1.33333,-10.33333h49.33333l1,10.33333z" fill="#5a2700" stroke-width="0"/><path d="M210.39818,276.66319l1.50538,-13.33333h55.69893l1.12903,13.33333z" fill="#5a2700" stroke-width="0"/><path d="M217.73152,216.32989l1.15269,-9.66666h42.64946l0.86452,9.66666z" fill="#5a2700" stroke-width="0"/></g><path d="M175.50666,137.84618c0,-33.30185 28.7599,-60.29833 64.23702,-60.29833c35.47712,0 64.23702,26.99649 64.23702,60.29833c0,33.30185 -28.7599,60.29833 -64.23702,60.29833c-35.47712,0 -64.23702,-26.99649 -64.23702,-60.29833z" fill="#ff6300" stroke="#000000" stroke-width="2" stroke-linecap="butt"/><path d="M176.22972,137.56669c0,-0.72799 5.20666,55.91939 63.36046,56.93429c55.56352,0.9697 63.51358,-57.95314 63.51358,-56.93429c0,32.80479 -28.40173,59.39833 -63.43702,59.39833c-35.03529,0 -63.43702,-26.59354 -63.43702,-59.39833z" fill="#ce4f00" stroke="#000000" stroke-width="0" stroke-linecap="butt"/><path d="M189.05689,137.94232c0,-12.968 10.51265,-23.48065 23.48065,-23.48065c12.968,0 23.48065,10.51265 23.48065,23.48065c0,12.968 -10.51265,23.48065 -23.48065,23.48065c-12.968,0 -23.48065,-10.51265 -23.48065,-23.48065z" fill="#fffffe" stroke="#000000" stroke-width="2" stroke-linecap="butt"/><path d="M196.12226,137.66668c0,-9.12808 7.39976,-16.52784 16.52783,-16.52784c9.12808,0 16.52784,7.39977 16.52784,16.52784c0,9.12808 -7.39977,16.52784 -16.52784,16.52784c-9.12808,0 -16.52783,-7.39977 -16.52783,-16.52784z" fill="#000000" stroke="none" stroke-width="0" stroke-linecap="butt"/><path d="M227.17374,177.32312h25.10959" fill="none" stroke="#000000" stroke-width="2" stroke-linecap="round"/><path d="M266.79595,161.42295c-12.968,0 -23.48065,-10.51265 -23.48065,-23.48065c0,-12.968 10.51265,-23.48065 23.48065,-23.48065c12.968,0 23.48065,10.51265 23.48065,23.48065c0,12.968 -10.51265,23.48065 -23.48065,23.48065z" data-paper-data="{&quot;index&quot;:null}" fill="#fffffe" stroke="#000000" stroke-width="2" stroke-linecap="butt"/><path d="M215.37437,105.71084c0.05797,9.75686 -3.14038,17.66666 -7.19047,17.66666c-4.05009,0 -5.76191,-11.05249 -5.76191,-20.80952c0,-9.75703 1.49819,-14.65052 5.33334,-15.95239c5.05009,-1.71429 7.47619,-4.9475 7.61905,19.09524z" fill="#5a2700" stroke="none" stroke-width="0" stroke-linecap="butt"/><path d="M248.24636,107.45025c0,16.01626 -3.80558,29 -8.5,29c-4.69442,0 -8.5,-12.98374 -8.5,-29c0,-10.6661 -1.84373,-27.30448 3.70182,-28.2745c3.01106,-0.52669 3.23003,-0.7255 4.79818,-0.7255c1.96693,0 2.32523,0.52427 5.21812,0.3561c6.76392,-0.39322 3.28188,19.33834 3.28188,28.6439z" fill="#5a2700" stroke="#000000" stroke-width="0" stroke-linecap="butt"/><path d="M266.68338,154.19453c-9.12807,0 -16.52783,-7.39977 -16.52783,-16.52784c0,-9.12808 7.39977,-16.52784 16.52783,-16.52784c9.12807,0 16.52783,7.39977 16.52783,16.52784c0,9.12808 -7.39977,16.52784 -16.52783,16.52784z" data-paper-data="{&quot;index&quot;:null}" fill="#000000" stroke="none" stroke-width="0" stroke-linecap="butt"/><path d="M189.05689,137.94232c0,-12.968 10.51265,-23.48065 23.48065,-23.48065c12.968,0 23.48065,10.51265 23.48065,23.48065c0,0 -46.96131,1.23155 -46.96131,0z" fill="#ff6300" stroke="#000000" stroke-width="2" stroke-linecap="butt"/><path d="M271.89895,86.40131c3.83515,1.30187 5.33333,6.19535 5.33333,15.95238c0,9.75703 -1.71182,20.80953 -5.76191,20.80953c-4.05009,0 -7.24845,-7.90981 -7.19047,-17.66667c0.14285,-24.04274 2.56896,-20.80952 7.61905,-19.09524z" data-paper-data="{&quot;index&quot;:null}" fill="#5a2700" stroke="none" stroke-width="0" stroke-linecap="butt"/><path d="M243.31532,137.94232c0,-12.968 10.51265,-23.48065 23.48065,-23.48065c12.968,0 23.48065,10.51265 23.48065,23.48065c0,1.2138 -46.96131,0 -46.96131,0z" data-paper-data="{&quot;index&quot;:null}" fill="#ff6300" stroke="#000000" stroke-width="2" stroke-linecap="butt"/><path d="M201.69453,109.13385c0,0 6.70895,-5.16922 11.79722,-6.36355c5.08827,-1.19433 12.33413,0.69937 12.33413,0.69937c0,0 -8.03812,-0.06028 -11.96762,0.86207c-4.10648,0.96388 -12.16372,4.80211 -12.16372,4.80211z" fill="#000000" stroke="none" stroke-width="0" stroke-linecap="butt"/><path d="M265.62903,104.33175c-3.9295,-0.92235 -11.96762,-0.86207 -11.96762,-0.86207c0,0 7.24586,-1.8937 12.33413,-0.69937c5.08826,1.19433 11.79721,6.36355 11.79721,6.36355c0,0 -8.05724,-3.83822 -12.16372,-4.80211z" data-paper-data="{&quot;index&quot;:null}" fill="#000000" stroke="none" stroke-width="0" stroke-linecap="butt"/></g></g></svg>