<svg version="1.1" xmlns="http://www.w3.org/2000/svg" xmlns:xlink="http://www.w3.org/1999/xlink" width="131.54191" height="250.72943" viewBox="0,0,131.54191,250.72943"><defs><linearGradient x1="246.65771" y1="271.5392" x2="246.65771" y2="297.13918" gradientUnits="userSpaceOnUse" id="color-1"><stop offset="0" stop-color="#1a0c12"/><stop offset="1" stop-color="#4d2637"/></linearGradient><linearGradient x1="243.55771" y1="264.98918" x2="243.55771" y2="277.18919" gradientUnits="userSpaceOnUse" id="color-2"><stop offset="0" stop-color="#1a0c12"/><stop offset="1" stop-color="#4d2637"/></linearGradient><linearGradient x1="232.55771" y1="263.3892" x2="232.55771" y2="275.5892" gradientUnits="userSpaceOnUse" id="color-3"><stop offset="0" stop-color="#1a0c12"/><stop offset="1" stop-color="#4d2637"/></linearGradient><linearGradient x1="229.15771" y1="261.98918" x2="229.15771" y2="274.18919" gradientUnits="userSpaceOnUse" id="color-4"><stop offset="0" stop-color="#1a0c12"/><stop offset="1" stop-color="#4d2637"/></linearGradient><linearGradient x1="231.85771" y1="258.58919" x2="231.85771" y2="269.98918" gradientUnits="userSpaceOnUse" id="color-5"><stop offset="0" stop-color="#1a0c12"/><stop offset="1" stop-color="#4d2637"/></linearGradient><linearGradient x1="250.25771" y1="244.1892" x2="250.25771" y2="272.7892" gradientUnits="userSpaceOnUse" id="color-6"><stop offset="0" stop-color="#1a0c12"/><stop offset="1" stop-color="#4d2637"/></linearGradient><linearGradient x1="240.0001" y1="175.50002" x2="240.0001" y2="307.50002" gradientUnits="userSpaceOnUse" id="color-7"><stop offset="0" stop-color="#212f26"/><stop offset="1" stop-color="#5c856b"/></linearGradient><linearGradient x1="240.027" y1="76.83112" x2="240.027" y2="197.42778" gradientUnits="userSpaceOnUse" id="color-8"><stop offset="0" stop-color="#212f26"/><stop offset="1" stop-color="#5c856b"/></linearGradient><linearGradient x1="214.19098" y1="142.05852" x2="214.19098" y2="184.28957" gradientUnits="userSpaceOnUse" id="color-9"><stop offset="0" stop-color="#1a0000"/><stop offset="1" stop-color="#800000"/></linearGradient><linearGradient x1="267.33417" y1="132.06763" x2="267.33417" y2="174.29868" gradientUnits="userSpaceOnUse" id="color-10"><stop offset="0" stop-color="#1a0000"/><stop offset="1" stop-color="#800000"/></linearGradient><linearGradient x1="212.87087" y1="113.79499" x2="212.87087" y2="160.75629" gradientUnits="userSpaceOnUse" id="color-11"><stop offset="0" stop-color="#808080"/><stop offset="1" stop-color="#804040"/></linearGradient><radialGradient cx="212.98346" cy="137.00001" r="16.52784" gradientUnits="userSpaceOnUse" id="color-12"><stop offset="0" stop-color="#a40000"/><stop offset="1" stop-color="#6d0000"/></radialGradient><linearGradient x1="267.12926" y1="113.79497" x2="267.12926" y2="160.75627" gradientUnits="userSpaceOnUse" id="color-13"><stop offset="0" stop-color="#808080"/><stop offset="1" stop-color="#804040"/></linearGradient><linearGradient x1="194.19649" y1="56.65139" x2="194.19649" y2="90.75229" gradientUnits="userSpaceOnUse" id="color-14"><stop offset="0" stop-color="#212f26"/><stop offset="1" stop-color="#5c856b"/></linearGradient><linearGradient x1="190.1524" y1="73.15685" x2="190.1524" y2="85.20536" gradientUnits="userSpaceOnUse" id="color-15"><stop offset="0" stop-color="#9c9c00"/><stop offset="1" stop-color="#575800"/></linearGradient><linearGradient x1="283.58892" y1="56.77059" x2="283.58892" y2="90.87149" gradientUnits="userSpaceOnUse" id="color-16"><stop offset="0" stop-color="#212f26"/><stop offset="1" stop-color="#5c856b"/></linearGradient><linearGradient x1="287.63298" y1="73.27606" x2="287.63298" y2="85.32457" gradientUnits="userSpaceOnUse" id="color-17"><stop offset="0" stop-color="#9c9c00"/><stop offset="1" stop-color="#575800"/></linearGradient><linearGradient x1="212.43145" y1="70.35093" x2="215.61832" y2="79.82024" gradientUnits="userSpaceOnUse" id="color-18"><stop offset="0" stop-color="#1a0000"/><stop offset="1" stop-color="#800000"/></linearGradient><linearGradient x1="216.32881" y1="87.50798" x2="216.32881" y2="101.21125" gradientUnits="userSpaceOnUse" id="color-19"><stop offset="0" stop-color="#1a0000"/><stop offset="1" stop-color="#800000"/></linearGradient><linearGradient x1="230.4089" y1="86.29556" x2="230.4089" y2="93.80097" gradientUnits="userSpaceOnUse" id="color-20"><stop offset="0" stop-color="#1a0000"/><stop offset="1" stop-color="#800000"/></linearGradient><linearGradient x1="209.80399" y1="93.10046" x2="209.80399" y2="99.84528" gradientUnits="userSpaceOnUse" id="color-21"><stop offset="0" stop-color="#1a0000"/><stop offset="1" stop-color="#800000"/></linearGradient></defs><g transform="translate(-175.78999,-56.77059)"><g data-paper-data="{&quot;isPaintingLayer&quot;:true}" fill-rule="nonzero" stroke-linejoin="miter" stroke-miterlimit="10" stroke-dasharray="" stroke-dashoffset="0" style="mix-blend-mode: normal"><path d="M206.23965,307.43624l15.14285,-131.8421l37.78325,-0.15789c0,0 1.74209,16.94105 3.5889,34.90043c1.08148,10.51693 5.91247,57.49611 7.36739,71.64455c1.45211,14.12119 2.6176,25.45502 2.6176,25.45502z" fill="#000000" stroke="none" stroke-width="0" stroke-linecap="butt"/><path d="M258.28138,224.2735c1.36538,9.21649 3.30965,18.16332 -6.37233,17.50873c-7.50629,-0.5075 -9.02287,-7.95003 -9.02287,-17.33957c0,-9.38952 1.87172,-17.00122 6.03094,-17.00122c4.15922,0 7.94819,7.27336 9.36426,16.83206z" data-paper-data="{&quot;index&quot;:null}" fill="#330017" stroke="none" stroke-width="0" stroke-linecap="butt"/><g stroke="none" stroke-width="0" stroke-linecap="butt"><path d="M243.85771,297.13918v-25.6h5.6v25.6z" fill="url(#color-1)"/><path d="M243.55771,264.9892c8.06336,0 14.6,2.73106 14.6,6.1c0,3.36894 -6.53664,6.1 -14.6,6.1c-8.06336,0 -14.6,-2.73106 -14.6,-6.1c0,-3.36894 6.53664,-6.1 14.6,-6.1z" fill="url(#color-2)"/><path d="M232.55771,263.38919c6.51696,0 11.8,-1.06894 11.8,2.3c0,3.36894 -5.48304,12.3 -12,12.3c-10.71696,0 -11.6,-5.13106 -11.6,-8.5c0,-3.36894 5.28304,-6.1 11.8,-6.1z" fill="url(#color-3)"/><path d="M229.15771,261.9892c8.06336,0 14.6,2.73107 14.6,6.1c0,3.36893 -6.53664,6.1 -14.6,6.1c-8.06336,0 -14.6,-2.73107 -14.6,-6.1c0,-3.36893 6.53664,-6.1 14.6,-6.1z" fill="url(#color-4)"/><path d="M231.85771,258.58919c6.12186,0 11.08461,2.55198 11.08461,5.7c0,3.14803 -4.96275,5.7 -11.08461,5.7c-6.12187,0 -11.08462,-2.55198 -11.08462,-5.7c0,-3.14802 4.96276,-5.7 11.08462,-5.7z" fill="url(#color-5)"/><path d="M250.25771,244.18919c6.68265,0 12.1,6.40233 12.1,14.3c0,7.89767 -5.41735,14.3 -12.1,14.3c-6.68265,0 -12.1,-6.40233 -12.1,-14.3c0,-7.89767 5.41735,-14.3 12.1,-14.3z" fill="url(#color-6)"/></g><path d="M206.75011,307.50001l15.14285,-131.8421l37.78325,-0.15789c0,0 1.74209,16.94104 3.5889,34.90042c1.08148,10.51693 -20.33745,28.66841 -19.51295,36.68626c1.14644,11.14862 25.42542,20.80985 26.88034,34.95829c1.45211,14.12119 2.6176,25.45503 2.6176,25.45503z" fill="url(#color-7)" stroke="none" stroke-width="0" stroke-linecap="butt"/><path d="M175.78999,137.12945c0,-33.30185 28.7599,-60.29833 64.23702,-60.29833c35.47712,0 64.23702,26.99649 64.23702,60.29833c0,33.30185 -28.7599,60.29833 -64.23702,60.29833c-35.47712,0 -64.23702,-26.99649 -64.23702,-60.29833z" fill="url(#color-8)" stroke="none" stroke-width="0" stroke-linecap="butt"/><path d="M203.16238,178.53079c-0.78123,0.02856 -1.22881,-2.73934 -1.30702,-6.45921c-0.03934,-1.87109 0.16416,-3.98303 0.16416,-6.10109c0,-7.53623 0.34286,-23.91197 0.34286,-23.91197h23.6572c0,0 -1.14286,16.09763 -1.14286,23.48539c0,1.13864 -0.19927,3.37804 -0.16045,5.53509c0.04939,2.74367 0.23684,5.3541 -0.98388,5.39657c-2.21906,0.07721 -0.68264,-4.24952 -2.44196,-3.92345c-0.41422,0.07677 -1.32583,-1.38649 -1.6009,-2.97988c-0.47183,-2.73312 -0.23614,-6.23755 -0.82637,-5.81667c-0.64979,0.46336 -1.33864,6.42609 -1.46123,11.52474c-0.09875,4.10703 0.45083,7.58318 -0.47113,7.71158c-1.08287,0.15081 -2.11519,-3.77941 -2.55192,-7.33075c-0.35105,-2.85464 -0.10496,-5.46447 -0.80187,-5.5131c-2.29594,-0.16019 -1.15643,5.05038 -3.16217,5.26721c-0.41296,0.04464 -0.96436,1.07665 -1.02745,2.50813c-0.14667,3.32756 0.58381,8.81371 -0.7849,9.07413c-0.8279,0.15752 -1.84605,-4.57219 -2.15911,-9.3576c-0.31978,-4.88829 0.0701,-9.8347 -0.35509,-9.68935c-0.68231,0.23324 -1.30011,2.09844 -1.6401,4.19951c-0.4767,2.94596 -0.60042,6.35564 -1.28579,6.3807z" fill="url(#color-9)" stroke="none" stroke-width="0" stroke-linecap="butt"/><path d="M278.36275,168.53988c-0.68537,-0.02506 -0.80909,-3.43474 -1.28579,-6.3807c-0.33999,-2.10107 -0.95779,-3.96627 -1.6401,-4.19951c-0.42519,-0.14535 -0.03531,4.80106 -0.35509,9.68935c-0.31306,4.78541 -1.33121,9.51512 -2.15911,9.3576c-1.36871,-0.26042 -0.63823,-5.74657 -0.7849,-9.07413c-0.06309,-1.43148 -0.61449,-2.46349 -1.02745,-2.50813c-2.00574,-0.21683 -0.86623,-5.4274 -3.16217,-5.26721c-0.69691,0.04863 -0.45082,2.65846 -0.80187,5.5131c-0.43673,3.55134 -1.46905,7.48156 -2.55192,7.33075c-0.92196,-0.1284 -0.37238,-3.60455 -0.47113,-7.71158c-0.12259,-5.09865 -0.81144,-11.06138 -1.46123,-11.52474c-0.59023,-0.42088 -0.35454,3.08355 -0.82637,5.81667c-0.27507,1.59339 -1.18668,3.05665 -1.6009,2.97988c-1.75932,-0.32607 -0.2229,4.00066 -2.44196,3.92345c-1.22072,-0.04247 -1.03327,-2.6529 -0.98388,-5.39657c0.03882,-2.15705 -0.16045,-4.39645 -0.16045,-5.53509c0,-7.38776 -1.14286,-23.48539 -1.14286,-23.48539h23.6572c0,0 0.34286,16.37574 0.34286,23.91197c0,2.11806 0.2035,4.23 0.16416,6.10109c-0.07821,3.71987 -0.52579,6.48777 -1.30702,6.45921z" data-paper-data="{&quot;index&quot;:null}" fill="url(#color-10)" stroke="none" stroke-width="0" stroke-linecap="butt"/><path d="M189.39022,137.27564c0,-12.968 10.51265,-23.48065 23.48065,-23.48065c12.968,0 23.48065,10.51265 23.48065,23.48065c0,12.968 -10.51265,23.48065 -23.48065,23.48065c-12.968,0 -23.48065,-10.51265 -23.48065,-23.48065z" fill="url(#color-11)" stroke="none" stroke-width="0" stroke-linecap="butt"/><path d="M196.45562,137c0,-9.12808 7.39976,-16.52784 16.52783,-16.52784c9.12808,0 16.52784,7.39977 16.52784,16.52784c0,9.12808 -7.39977,16.52784 -16.52784,16.52784c-9.12808,0 -16.52783,-7.39977 -16.52783,-16.52784z" fill="url(#color-12)" stroke="none" stroke-width="0" stroke-linecap="butt"/><path d="M267.12926,160.75627c-12.968,0 -23.48065,-10.51265 -23.48065,-23.48065c0,-12.968 10.51265,-23.48065 23.48065,-23.48065c12.968,0 23.48065,10.51265 23.48065,23.48065c0,12.968 -10.51265,23.48065 -23.48065,23.48065z" data-paper-data="{&quot;index&quot;:null}" fill="url(#color-13)" stroke="none" stroke-width="0" stroke-linecap="butt"/><path d="M267.01671,153.52785c-9.12807,0 -16.52783,-7.39977 -16.52783,-16.52784c0,-9.12808 7.39977,-16.52784 16.52783,-16.52784c9.12807,0 16.52783,7.39977 16.52783,16.52784c0,9.12808 -7.39977,16.52784 -16.52783,16.52784z" data-paper-data="{&quot;index&quot;:null}" fill="#000000" stroke="none" stroke-width="0" stroke-linecap="butt"/><path d="M202.0279,108.46717c0,0 6.70895,-5.16922 11.79722,-6.36355c5.08827,-1.19433 12.33413,0.69937 12.33413,0.69937c0,0 -8.03812,-0.06028 -11.96762,0.86207c-4.10648,0.96388 -12.16372,4.80211 -12.16372,4.80211z" fill="#000000" stroke="none" stroke-width="0" stroke-linecap="butt"/><path d="M265.96236,103.66507c-3.9295,-0.92235 -11.96762,-0.86207 -11.96762,-0.86207c0,0 7.24586,-1.8937 12.33413,-0.69937c5.08826,1.19433 11.79721,6.36355 11.79721,6.36355c0,0 -8.05724,-3.83822 -12.16372,-4.80211z" data-paper-data="{&quot;index&quot;:null}" fill="#000000" stroke="none" stroke-width="0" stroke-linecap="butt"/><g stroke="none" stroke-width="0" stroke-linecap="butt"><path d="M217.59795,87.20073c0,0.62224 -5.12753,0.8263 -5.18449,0.23971c-0.4679,-4.81803 -1.16224,-10.83587 -3.04152,-15.65838c2.21875,-1.29896 4.50245,-2.5477 6.7337,-3.82257c2.89993,8.30875 1.4923,18.52384 1.4923,19.24124z" fill="url(#color-14)"/><path d="" fill="url(#color-15)"/></g><g data-paper-data="{&quot;index&quot;:null}" stroke="none" stroke-width="0" stroke-linecap="butt"><path d="M260.18746,87.31994c0,-0.90132 -2.22184,-16.79408 4.66809,-25.06327c5.06635,-6.08055 13.51429,-5.46892 18.75554,-5.46892c6.16734,0 14.28301,0.77483 19.26797,5.2433c2.41057,2.16081 4.50601,20.46588 4.45181,22.98826c-0.0542,2.52237 -11.69251,6.76244 -15.86162,5.67831c-7.17876,-1.86676 -5.28949,-10.68035 -5.28949,-10.42282c0,0.03181 2.28104,-1.2913 3.48435,-0.64362c1.1743,0.63208 0.49835,4.25561 2.93355,5.10418c3.32289,1.15789 9.22447,-2.2632 9.36268,-2.37897c0.1382,-0.11577 -3.33541,-15.14628 -3.76086,-15.40155c-0.42545,-0.25527 -1.47789,-5.31689 -14.58841,-4.50303c-3.10524,0.19276 -9.13982,0.58198 -12.41486,4.51084c-4.08839,4.90458 -5.17461,13.90731 -5.82427,20.59699c-0.05696,0.58659 -5.18449,0.38253 -5.18449,-0.23971z" fill="url(#color-16)"/><path d="M285.65441,81.2438c0,0 -3.85259,-0.3588 -3.97603,-1.40626c-0.12567,-1.04739 3.53397,-2.30097 3.53397,-2.30097c0,0 -0.84968,-3.77461 0.10899,-4.21735c0.95757,-0.44161 3.28073,2.65146 3.28073,2.65146c0,0 3.32657,-1.97431 4.04336,-1.20013c0.71654,0.77348 -1.50684,3.93951 -1.50684,3.93951c0,0 2.90593,2.55414 2.39099,3.47494c-0.51428,0.9206 -4.21259,-0.21611 -4.21259,-0.21611c0,0 -1.53093,3.55158 -2.56486,3.34718c-1.03595,-0.20367 -1.09772,-4.07227 -1.09772,-4.07227z" fill="url(#color-17)"/></g><g data-paper-data="{&quot;index&quot;:null}" fill="#000000" stroke="none" stroke-width="0" stroke-linecap="butt"><path d="M243.91596,66.15445c0.37775,-0.3845 0.76225,-0.00676 0.76225,-0.00676l-0.13227,0.04091c1.4526,0.13316 2.81321,0.47103 4.03229,-0.6261c0.27992,-0.25192 0.50543,-0.6254 0.71336,-0.93839c0.56349,-0.84754 0.07305,-1.95214 -0.25127,-2.83694c-0.09823,-0.26797 -0.22248,-0.79658 -0.41424,-1.04159c-0.15819,-0.20211 -0.61803,-0.35581 -0.80636,-0.45246c-0.60314,-0.30953 -1.31233,-0.95575 -2.00996,-0.55374c-0.33195,0.19128 -1.22875,0.54574 -1.33526,0.94895c-0.0284,0.10752 -0.02849,0.21718 -0.01605,0.32797c0.23217,-0.08498 0.45063,-0.0323 0.6398,0.10553c0.24537,0.06556 0.44626,0.15633 0.52813,0.26257c0.2497,0.32402 0.24428,0.80557 0.19487,1.21164c-0.00342,0.0281 -0.00756,0.05542 -0.01238,0.08199c0.03809,0.57607 -0.10382,1.15328 -0.42518,1.39442c-0.74982,0.56266 -1.49188,0.10334 -1.9064,-0.6231c-0.13576,-0.15801 -0.19833,-0.32388 -0.21716,-0.49312c-0.19331,-0.59803 -0.16878,-1.25463 0.20424,-1.66138c-0.03958,-0.32102 -0.11755,-0.6446 -0.01414,-0.94267c0.26039,-0.75062 1.20053,-1.23959 1.86306,-1.56968c1.1434,-0.56969 1.99016,0.03154 2.99623,0.55031c0.44897,0.23151 0.79835,0.2987 1.143,0.7206c0.35001,0.42845 0.41981,0.87019 0.60012,1.36319c0.47099,1.28773 0.88121,2.55145 0.14551,3.79085c-0.2741,0.4099 -0.51815,0.8163 -0.89445,1.15245c-1.48229,1.3241 -3.07374,1.06284 -4.85536,0.90232l-0.52561,-0.34551c0,0 -0.38451,-0.37774 -0.00676,-0.76224z"/><path d="M246.1075,76.33251c0.29922,0.09676 0.83111,-0.08257 1.21206,-0.0845c0.13427,-0.12073 0.25493,-0.25471 0.33574,-0.33354c0.12628,-0.12319 0.25544,-0.24741 0.38278,-0.37421c-0.06467,-0.3264 0.24458,-0.53136 0.24458,-0.53136l0.0604,0.17997c0.09013,-0.63172 0.41983,-1.19988 0.40933,-1.84188c-0.00878,-0.53706 -0.28241,-0.6408 -0.20543,-1.25089c0.00598,-0.04736 0.0104,-0.09688 0.01401,-0.14781c-0.2157,-0.57585 -0.50006,-1.10945 -0.82265,-1.54715c0,0 -0.0552,-0.07542 -0.08822,-0.18644c-0.61398,0.03172 -1.26463,0.16994 -1.72549,0.35827c-0.25709,0.10506 -0.70846,0.18566 -0.91811,0.42888c-0.09581,0.11116 -0.08959,0.29074 -0.1913,0.39653c-0.00528,0.00549 -0.01059,0.01096 -0.01592,0.0164l0.0043,0.00274l-0.0998,0.1569l-0.04829,0.1648c-0.05776,0.21531 -0.24553,0.3774 -0.474,0.39699c-0.04561,0.01254 -0.09364,0.01924 -0.14324,0.01924c-0.28274,0 -0.51464,-0.21769 -0.53721,-0.49461l-0.0682,-0.73226c-0.12311,-0.4202 -0.16173,-0.84413 -0.17114,-1.27192c-0.11291,-0.25768 -0.25935,-0.49711 -0.44398,-0.72303l-0.20134,-0.07499c-0.21108,-0.07305 -0.36266,-0.27358 -0.36266,-0.50951c0,-0.21491 0.12577,-0.40044 0.30772,-0.487l0.43689,-0.21919c0.08967,-0.09754 0.15616,-0.18306 0.20582,-0.26188l0.01061,-0.377c0.00349,-0.14403 0.06347,-0.27405 0.15863,-0.36876c0.0098,-0.1195 0.02638,-0.25708 0.06377,-0.42444l0.00342,-0.55577c0.00156,-0.29636 0.24228,-0.53611 0.539,-0.53611c0.19387,0 0.36384,0.10235 0.45881,0.25597l0.22512,0.35165c0.3248,0.14699 0.63441,0.32758 0.93644,0.51701c0,0 0.45633,0.28688 0.16945,0.74321c-0.28688,0.45633 -0.7432,0.16945 -0.7432,0.16945c-0.1411,-0.08893 -0.28379,-0.17536 -0.4278,-0.25961c-0.04658,0.20552 -0.1487,0.43326 -0.27241,0.654l0.00701,0.11543l-0.00324,0.00019c0.00129,0.00404 0.00258,0.00808 0.00385,0.01213c0.1672,0.53317 0.10261,1.11722 0.06625,1.70058c0.10321,0.17085 0.21452,0.34511 0.30856,0.52053c0.05298,-0.03078 0.10436,-0.05931 0.15244,-0.08534c1.0179,-0.55089 2.04353,-0.59312 3.17093,-0.58602c0.29221,0.00184 0.6,-0.0851 0.87662,0.00908c0.91723,0.3123 1.06144,1.08433 1.42587,1.84582c0.90275,1.88631 1.27782,4.7772 -0.80507,5.94794c-0.92313,0.47621 -2.06944,1.0628 -3.08221,1.19311c-0.82482,0.10613 -1.49865,0.38599 -2.18791,-0.28896c-0.25223,-0.24699 -0.50332,-0.95397 -0.6853,-1.26029c-0.17488,-0.29436 -0.66664,-0.8219 -0.73184,-1.16103c-0.05775,-0.30039 -0.00135,-0.61639 0.06259,-0.91553c0.08961,-0.41922 0.50411,-1.36518 1.0032,-1.46448c0.37212,-0.07403 0.73929,0.18936 1.08324,0.34951c0.79188,0.3687 1.54964,1.16119 0.92563,2.08226c-0.09636,0.14225 -0.24162,0.23867 -0.40153,0.31577c0.12712,0.19979 0.31162,0.36035 0.59239,0.45114z"/><path d="M246.1896,60.20107c-0.56195,0.25634 -1.40456,0.60408 -1.49917,1.12549c-0.04013,0.22118 -0.01049,0.44947 -0.01574,0.67419c0,0 -0.0234,0.53849 -0.5619,0.5151c-0.5385,-0.02339 -0.51511,-0.56189 -0.51511,-0.56189c0.01774,-0.30429 -0.02591,-0.61852 0.05321,-0.91287c0.16028,-0.59623 0.61834,-0.98745 1.13926,-1.30119c-0.02348,-0.07218 -0.03222,-0.15907 -0.01766,-0.26356c0.07441,-0.53385 0.60826,-0.45945 0.60826,-0.45945l0.4607,0.0644c0.04984,0.00576 0.09965,0.01157 0.14939,0.01749c0.34457,-0.19375 0.91471,-0.55 1.29597,-0.55262c1.16922,-0.00804 2.16355,1.43035 2.4918,2.43154c0.21445,0.17987 0.17261,0.48843 0.17261,0.48843l-0.00646,0.04381l0.09302,0.29741c0.01836,0.05427 0.02832,0.11242 0.02832,0.17289c0,0.15137 -0.0624,0.28817 -0.16287,0.38607c0.00876,0.67624 0.02072,1.3655 -0.15988,2.01417c-0.00718,0.02581 -0.0137,0.0523 -0.0199,0.07917c-0.00771,0.19651 -0.01411,0.39115 -0.01655,0.58283l-0.06957,0.08043l0.04166,0.01636l-0.22312,0.56794c-0.07558,0.20636 -0.27374,0.35362 -0.50628,0.35362c-0.29769,0 -0.53901,-0.24132 -0.53901,-0.53901c0,-0.01013 0.00028,-0.0202 0.00083,-0.03019l0.03086,-0.63428l0.01855,0.0009c-0.0034,-0.02786 -0.0061,-0.05584 -0.008,-0.08398c-0.01752,-0.25953 0.10567,-0.50149 0.21045,-0.74762c0.0296,-0.73185 0.07422,-1.48333 -0.08097,-2.17476c-0.00992,-0.04419 -0.02123,-0.08874 -0.03376,-0.13357c-0.33344,-0.37578 -0.56144,-0.95428 -1.00051,-1.19372c-0.35977,-0.1962 -0.88815,-0.27276 -1.35844,-0.32355z"/></g><path d="M227.21093,177.21661c0,0 9.74384,-2.08061 14.19499,-2.08061c3.8227,0 10.9146,2.08061 10.9146,2.08061" fill="none" stroke="#000000" stroke-width="2" stroke-linecap="round"/><path d="M212.48843,80.87359l-3.18687,-9.46931l6.95529,-3.17247l2.03608,10.65513c0,0 -3.67193,-3.78874 -4.79401,-3.41111c-0.92705,0.31199 -1.01049,5.39776 -1.01049,5.39776z" fill="url(#color-18)" stroke="none" stroke-width="0" stroke-linecap="butt"/><path d="M236.70355,87.50798l-40.74948,13.70327" fill="none" stroke="url(#color-19)" stroke-width="2.5" stroke-linecap="round"/><path d="M227.9671,86.29556l4.88361,7.50542" fill="none" stroke="url(#color-20)" stroke-width="2.5" stroke-linecap="round"/><path d="M210.6546,99.84528l-1.70123,-6.74482" fill="none" stroke="url(#color-21)" stroke-width="2.5" stroke-linecap="round"/></g></g></svg>