<svg version="1.1" xmlns="http://www.w3.org/2000/svg" xmlns:xlink="http://www.w3.org/1999/xlink" width="128.47404" height="267.22501" viewBox="0,0,128.47404,267.22501"><defs><linearGradient x1="240.00007" y1="175.50007" x2="240.00007" y2="307.50007" gradientUnits="userSpaceOnUse" id="color-1"><stop offset="0" stop-color="#001a45"/><stop offset="1" stop-color="#003d98"/></linearGradient><linearGradient x1="240.23751" y1="99.62452" x2="240.23751" y2="220.22118" gradientUnits="userSpaceOnUse" id="color-2"><stop offset="0" stop-color="#001a45"/><stop offset="1" stop-color="#003d98"/></linearGradient><linearGradient x1="213.03136" y1="136.8717" x2="213.03136" y2="183.833" gradientUnits="userSpaceOnUse" id="color-3"><stop offset="0" stop-color="#a0a0a0"/><stop offset="1" stop-color="#957c7c"/></linearGradient><radialGradient cx="267.28978" cy="160.35234" r="23.48065" gradientUnits="userSpaceOnUse" id="color-4"><stop offset="0" stop-color="#000000"/><stop offset="1" stop-color="#590000"/></radialGradient><linearGradient x1="233.85543" y1="96.21145" x2="233.85543" y2="117.54478" gradientUnits="userSpaceOnUse" id="color-5"><stop offset="0" stop-color="#003d98"/><stop offset="1" stop-color="#001a45"/></linearGradient><linearGradient x1="273.03425" y1="239.71083" x2="272.00405" y2="161.85578" gradientUnits="userSpaceOnUse" id="color-6"><stop offset="0" stop-color="#801c1c"/><stop offset="1" stop-color="#000000"/></linearGradient><linearGradient x1="273.91654" y1="234.19543" x2="286.79178" y2="279.35725" gradientUnits="userSpaceOnUse" id="color-7"><stop offset="0" stop-color="#943737"/><stop offset="1" stop-color="#ffffff"/></linearGradient></defs><g transform="translate(-176.00049,-69.4642)"><g data-paper-data="{&quot;isPaintingLayer&quot;:true}" fill-rule="nonzero" stroke-linejoin="miter" stroke-miterlimit="10" stroke-dasharray="" stroke-dashoffset="0" style="mix-blend-mode: normal"><path d="M179.44427,336.68921v-267.22501h123.18203v267.22501z" fill-opacity="0.01" fill="#000000" stroke="none" stroke-width="0" stroke-linecap="butt"/><path d="M206.75008,307.50005l15.14285,-131.8421l37.78325,-0.15789l13.57389,132z" fill="url(#color-1)" stroke="#000000" stroke-width="0" stroke-linecap="butt"/><path d="M176.00049,159.92285c0,-33.30185 28.7599,-60.29833 64.23702,-60.29833c35.47712,0 64.23702,26.99649 64.23702,60.29833c0,33.30185 -28.7599,60.29833 -64.23702,60.29833c-35.47712,0 -64.23702,-26.99649 -64.23702,-60.29833z" fill="url(#color-2)" stroke="#000000" stroke-width="0" stroke-linecap="butt"/><path d="M189.55071,160.35235c0,-12.968 10.51265,-23.48065 23.48065,-23.48065c12.968,0 23.48065,10.51265 23.48065,23.48065c0,12.968 -10.51265,23.48065 -23.48065,23.48065c-12.968,0 -23.48065,-10.51265 -23.48065,-23.48065z" fill="url(#color-3)" stroke="#000000" stroke-width="0" stroke-linecap="butt"/><path d="M196.61609,160.07668c0,-9.12808 7.39976,-16.52784 16.52783,-16.52784c9.12808,0 16.52784,7.39977 16.52784,16.52784c0,9.12808 -7.39977,16.52784 -16.52784,16.52784c-9.12808,0 -16.52783,-7.39977 -16.52783,-16.52784z" fill="#000000" stroke="none" stroke-width="0" stroke-linecap="butt"/><path d="M267.28978,183.833c-12.968,0 -23.48065,-10.51265 -23.48065,-23.48065c0,-12.968 10.51265,-23.48065 23.48065,-23.48065c12.968,0 23.48065,10.51265 23.48065,23.48065c0,12.968 -10.51265,23.48065 -23.48065,23.48065z" data-paper-data="{&quot;index&quot;:null}" fill="url(#color-4)" stroke="#000000" stroke-width="0" stroke-linecap="butt"/><path d="M211.10543,114.37811l23,-18l-1.33333,11.33334l23.83333,-11.5l-4.83333,21.33333" data-paper-data="{&quot;index&quot;:null}" fill="url(#color-5)" stroke="#000000" stroke-width="0" stroke-linecap="round"/><path d="M202.18838,131.54387c0,0 6.70895,-5.16922 11.79721,-6.36355c5.08827,-1.19433 12.33413,0.69937 12.33413,0.69937c0,0 -8.03812,-0.06028 -11.96762,0.86207c-4.10648,0.96389 -12.16372,4.80211 -12.16372,4.80211z" fill="#000000" stroke="none" stroke-width="0" stroke-linecap="butt"/><path d="M266.12288,126.74177c-3.9295,-0.92235 -11.96762,-0.86207 -11.96762,-0.86207c0,0 7.24586,-1.8937 12.33413,-0.69937c5.08826,1.19433 11.79721,6.36355 11.79721,6.36355c0,0 -8.05724,-3.83822 -12.16372,-4.80211z" data-paper-data="{&quot;index&quot;:null}" fill="#000000" stroke="none" stroke-width="0" stroke-linecap="butt"/><g stroke="none" stroke-width="0" stroke-linecap="butt"><path d="M271.84663,162.81536c0.63611,-0.05971 3.49487,-2.0366 3.98086,-0.2533c1.56013,5.72475 0.52206,22.58338 2.01549,38.49435c1.2938,13.78406 2.08193,30.51976 1.05807,36.97251c-0.52614,3.31591 -2.5366,0.49501 -3.44568,0.58034c-1.02896,0.09658 -5.06786,1.02457 -4.73131,-3.16491c0.53942,-6.71489 5.90915,-21.33755 4.70302,-34.18762c-1.42933,-15.22802 -9.58701,-31.42709 -9.88827,-37.62298c-0.11157,-2.29449 5.58407,-0.75046 6.30783,-0.8184z" fill="url(#color-6)"/><path d="M257.77324,263.21395c-3.5554,-12.47109 3.6722,-25.46314 16.1433,-29.01854c12.47109,-3.5554 25.46314,3.6722 29.01854,16.1433c3.5554,12.47109 -3.6722,25.46314 -16.1433,29.01854c-12.47109,3.5554 -25.46314,-3.6722 -29.01854,-16.1433z" data-paper-data="{&quot;index&quot;:null}" fill="url(#color-7)"/></g><path d="M260.83214,252.66134c0,-10.01311 8.11722,-18.13033 18.13032,-18.13033c10.01311,0 18.13033,8.11723 18.13033,18.13033c0,10.01311 -8.11723,18.13033 -18.13033,18.13033c-10.01311,0 -18.13032,-8.11723 -18.13032,-18.13033z" fill="#000000" stroke="none" stroke-width="0" stroke-linecap="butt"/><path d="M226.5001,207.7129v-13.04945h25.55847v13.04945z" fill="#000000" stroke="#000000" stroke-width="2" stroke-linecap="butt"/></g></g></svg>