<svg version="1.1" xmlns="http://www.w3.org/2000/svg" xmlns:xlink="http://www.w3.org/1999/xlink" width="34.17311" height="34.17311" viewBox="0,0,34.17311,34.17311"><g transform="translate(-222.91348,-162.91348)"><g data-paper-data="{&quot;isPaintingLayer&quot;:true}" stroke="#ffffff" stroke-miterlimit="10" stroke-dasharray="" stroke-dashoffset="0" style="mix-blend-mode: normal"><path d="M229.98316,162.91349h20.03378c3.9166,0 7.06966,3.15307 7.06966,7.06966v20.03379c0,3.91659 -3.15306,7.06966 -7.06966,7.06966h-20.03378c-3.91659,0 -7.06967,-3.15307 -7.06967,-7.06966v-20.03379c0,-3.91659 3.15308,-7.06966 7.06967,-7.06966z" fill-opacity="0.09677" fill="#191919" fill-rule="evenodd" stroke-width="0" stroke-linecap="round" stroke-linejoin="round"/><path d="M229.27932,184.89016c-0.97378,-1.15685 -4.90766,-9.85281 -4.90766,-9.85281c0,0 7.89749,5.35956 8.87127,6.51641c0.97378,1.15685 0.87591,2.84154 -0.21861,3.76286c-1.09453,0.92132 -2.77122,0.73039 -3.745,-0.42646z" fill="#000000" fill-rule="nonzero" stroke-width="0.5" stroke-linecap="butt" stroke-linejoin="miter"/><path d="M234.7177,179.7823c-0.8498,0.36111 -1.74322,0.17252 -1.99551,-0.4212c-0.25229,-0.59372 -0.24621,-4.85435 -0.24621,-4.85435c0,0 3.07133,2.95297 3.32361,3.54669c0.25229,0.59372 -0.2321,1.36775 -1.0819,1.72885z" data-paper-data="{&quot;index&quot;:null}" fill="#000000" fill-rule="nonzero" stroke-width="0.5" stroke-linecap="butt" stroke-linejoin="miter"/><path d="M246.41306,184.88096c-1.09625,-0.92278 -1.19428,-2.61014 -0.21896,-3.76881c0.97533,-1.15868 8.88529,-6.52671 8.88529,-6.52671c0,0 -3.94009,8.70971 -4.91541,9.86839c-0.97533,1.15868 -2.65467,1.34991 -3.75092,0.42713z" data-paper-data="{&quot;index&quot;:null}" fill="#000000" fill-rule="nonzero" stroke-width="0.5" stroke-linecap="butt" stroke-linejoin="miter"/><path d="M227.55346,187.15976c0,-6.1279 5.29213,-11.09554 11.8203,-11.09554c6.52817,0 11.8203,4.96764 11.8203,11.09554" fill="#000000" fill-rule="nonzero" stroke-width="0.5" stroke-linecap="butt" stroke-linejoin="miter"/><path d="M237.69225,176.52692c0,-0.64612 1.6745,-4.57123 1.6745,-4.57123c0,0 1.6745,3.92512 1.6745,4.57123c0,0.64612 -0.7497,1.1699 -1.6745,1.1699c-0.9248,0 -1.6745,-0.52378 -1.6745,-1.1699z" fill="#000000" fill-rule="nonzero" stroke-width="0.5" stroke-linecap="butt" stroke-linejoin="miter"/><path d="M243.95364,177.66764c0.25269,-0.59466 3.32886,-3.55229 3.32886,-3.55229c0,0 0.00609,4.26737 -0.2466,4.86203c-0.25269,0.59466 -1.14752,0.78353 -1.99866,0.42186c-0.85115,-0.36167 -1.33629,-1.13693 -1.08361,-1.73159z" fill="#000000" fill-rule="nonzero" stroke-width="0.5" stroke-linecap="butt" stroke-linejoin="miter"/></g></g></svg>