<svg version="1.1" xmlns="http://www.w3.org/2000/svg" xmlns:xlink="http://www.w3.org/1999/xlink" width="232.27152" height="268.5073" viewBox="0,0,232.27152,268.5073"><g transform="translate(-125.97107,-45.1052)"><g data-paper-data="{&quot;isPaintingLayer&quot;:true}" fill-rule="nonzero" stroke-linecap="butt" stroke-linejoin="miter" stroke-miterlimit="10" stroke-dasharray="" stroke-dashoffset="0" style="mix-blend-mode: normal"><path d="M178.40899,313.6125v-267.22501h123.18203v267.22501z" fill-opacity="0.01" fill="#000000" stroke="none" stroke-width="0"/><path d="M285.41887,108.19406c-2.72834,7.76528 -10.89597,11.96768 -18.2429,9.38633c-7.34693,-2.58135 -11.09102,-10.96896 -8.36268,-18.73425c2.72834,-7.76529 32.60562,-50.26482 32.60562,-50.26482c0,0 -3.2717,51.84746 -6.00004,59.61273z" data-paper-data="{&quot;index&quot;:null}" fill="#946300" stroke="#000000" stroke-width="2"/><path d="M195.39585,110.55917c-2.72835,-7.76527 -6.00004,-59.61273 -6.00004,-59.61273c0,0 29.87728,42.49954 32.60562,50.26482c2.72834,7.76528 -1.01575,16.1529 -8.36268,18.73425c-7.34693,2.58135 -15.51455,-1.62106 -18.2429,-9.38633z" fill="#946300" stroke="#000000" stroke-width="2"/><g data-paper-data="{&quot;index&quot;:null}" stroke="#000000" stroke-width="2"><path d="M274.77094,141.16053l66.01905,23.26984l-2.43777,6.91627l-66.01905,-23.26983z" fill="#ffdf9e"/><path d="M333.69824,184.55048c-9.20214,-3.24349 -14.03258,-13.33268 -10.78909,-22.53482c3.24349,-9.20214 13.33268,-14.03258 22.53482,-10.78909c9.20214,3.24349 14.03258,13.33268 10.78909,22.53481c-3.24349,9.20212 -13.33268,14.03257 -22.53481,10.78908z" fill="#ffa800"/></g><g stroke="#000000" stroke-width="2"><path d="M209.16739,142.02932l-62.91863,30.67974l-3.21405,-6.59147l62.91863,-30.67974z" fill="#ffdf9e"/><path d="M152.38471,185.2928c-8.76997,4.27632 -19.34612,0.6335 -23.62244,-8.13647c-4.27632,-8.76997 -0.6335,-19.34612 8.13648,-23.62245c8.76997,-4.27633 19.34613,-0.6335 23.62246,8.13648c4.27632,8.76997 0.63351,19.3461 -8.13648,23.62245z" fill="#ffa800"/></g><path d="M206.75007,307.5l15.14285,-131.8421l37.78325,-0.15789l13.57389,132z" fill="#ffa800" stroke="#000000" stroke-width="2"/><path d="M219.7003,204.11263l3.12142,-26.32765l35.83075,-0.14203l2.76735,26.1059c0,0 -7.51543,4.19603 -21.55904,4.50964c-12.48458,0.27879 -20.16049,-4.14586 -20.16049,-4.14586z" fill="#c88500" stroke="#000000" stroke-width="0"/><path d="M176.39726,150.91008c0,-33.30185 28.7599,-60.29833 64.23702,-60.29833c35.47712,0 64.23702,26.99649 64.23702,60.29833c0,33.30185 -28.7599,60.29833 -64.23702,60.29833c-35.47712,0 -64.23702,-26.99649 -64.23702,-60.29833z" fill="#ffa800" stroke="#000000" stroke-width="2"/><path d="M176.56298,150.30737c0,-0.72799 5.20666,55.91939 63.36046,56.93429c55.56352,0.9697 63.51358,-57.95314 63.51358,-56.93429c0,32.80479 -28.40173,59.39833 -63.43702,59.39833c-35.03529,0 -63.43702,-26.59354 -63.43702,-59.39833z" fill="#c88500" stroke="#000000" stroke-width="0"/><path d="M189.94747,151.00622c0,-12.968 10.51265,-23.48065 23.48065,-23.48065c12.968,0 23.48065,10.51265 23.48065,23.48065c0,12.968 -10.51265,23.48065 -23.48065,23.48065c-12.968,0 -23.48065,-10.51265 -23.48065,-23.48065z" fill="#ffffff" stroke="#000000" stroke-width="2"/><path d="M197.01286,150.73059c0,-9.12808 7.39976,-16.52784 16.52783,-16.52784c9.12808,0 16.52784,7.39977 16.52784,16.52784c0,9.12808 -7.39977,16.52784 -16.52784,16.52784c-9.12808,0 -16.52783,-7.39977 -16.52783,-16.52784z" fill="#000000" stroke="none" stroke-width="0"/><path d="M267.68655,174.48686c-12.968,0 -23.48065,-10.51265 -23.48065,-23.48065c0,-12.968 10.51265,-23.48065 23.48065,-23.48065c12.968,0 23.48065,10.51265 23.48065,23.48065c0,12.968 -10.51265,23.48065 -23.48065,23.48065z" data-paper-data="{&quot;index&quot;:null}" fill="#ffffff" stroke="#000000" stroke-width="2"/><path d="M267.57399,167.25843c-9.12807,0 -16.52783,-7.39977 -16.52783,-16.52784c0,-9.12808 7.39977,-16.52784 16.52783,-16.52784c9.12807,0 16.52783,7.39977 16.52783,16.52784c0,9.12808 -7.39977,16.52784 -16.52783,16.52784z" data-paper-data="{&quot;index&quot;:null}" fill="#000000" stroke="none" stroke-width="0"/><path d="M189.94747,151.00622c0,-12.968 10.51265,-23.48065 23.48065,-23.48065c12.968,0 23.48065,10.51265 23.48065,23.48065c0,0 -46.96131,1.23155 -46.96131,0z" fill="#ffa800" stroke="#000000" stroke-width="2"/><path d="M244.20593,151.00622c0,-12.968 10.51265,-23.48065 23.48065,-23.48065c12.968,0 23.48065,10.51265 23.48065,23.48065c0,1.2138 -46.96131,0 -46.96131,0z" data-paper-data="{&quot;index&quot;:null}" fill="#ffa800" stroke="#000000" stroke-width="2"/><path d="M202.58514,122.19775c0,0 6.70895,-5.16922 11.79722,-6.36355c5.08827,-1.19433 12.33413,0.69937 12.33413,0.69937c0,0 -8.03812,-0.06028 -11.96762,0.86207c-4.10648,0.96388 -12.16372,4.80211 -12.16372,4.80211z" fill="#000000" stroke="none" stroke-width="0"/><path d="M266.51964,117.39565c-3.9295,-0.92235 -11.96762,-0.86207 -11.96762,-0.86207c0,0 7.24586,-1.8937 12.33413,-0.69937c5.08826,1.19433 11.79721,6.36355 11.79721,6.36355c0,0 -8.05724,-3.83822 -12.16372,-4.80211z" data-paper-data="{&quot;index&quot;:null}" fill="#000000" stroke="none" stroke-width="0"/><path d="M226.50208,181.68599h27.09818l-13.12831,24.06857z" fill="#000000" stroke="none" stroke-width="0"/></g></g></svg>