<svg version="1.1" xmlns="http://www.w3.org/2000/svg" xmlns:xlink="http://www.w3.org/1999/xlink" width="35.31575" height="35.31537" viewBox="0,0,35.31575,35.31537"><g transform="translate(-222.91347,-162.91346)"><g data-paper-data="{&quot;isPaintingLayer&quot;:true}" stroke-miterlimit="10" stroke-dasharray="" stroke-dashoffset="0" style="mix-blend-mode: normal"><path d="M229.98313,162.91346h20.03379c3.9166,0 7.06966,3.15307 7.06966,7.06966v20.03379c0,3.91659 -3.15306,7.06966 -7.06966,7.06966h-20.03379c-3.91659,0 -7.06966,-3.15307 -7.06966,-7.06966v-20.03379c0,-3.91659 3.15307,-7.06966 7.06966,-7.06966z" fill="#fdff00" fill-rule="evenodd" stroke="none" stroke-width="4.43922" stroke-linecap="round" stroke-linejoin="round"/><g data-paper-data="{&quot;index&quot;:null}" fill-rule="nonzero" stroke="#000000" stroke-width="0.5" stroke-linecap="butt" stroke-linejoin="miter"><path d="M244.14978,181.2631l7.24237,-7.19937l0.88627,0.89156l-7.24237,7.19937z" fill="#fdff00"/><path d="M253.62657,176.349c-1.68071,0.37207 -3.34483,-0.68879 -3.7169,-2.3695c-0.37207,-1.68071 0.68879,-3.34483 2.3695,-3.7169c1.68071,-0.37207 3.34483,0.68879 3.7169,2.3695c0.37207,1.68071 -0.68879,3.34483 -2.3695,3.7169z" fill="#804400"/></g><g fill-rule="nonzero" stroke="#000000" stroke-width="0.5" stroke-linecap="butt" stroke-linejoin="miter"><path d="M234.26657,182.72027l-7.24237,-7.19937l0.88627,-0.89156l7.24237,7.19937z" fill="#fdff00"/><path d="M225.67605,176.91462c-1.68071,-0.37207 -2.74158,-2.03619 -2.3695,-3.7169c0.37207,-1.68071 2.03619,-2.74158 3.7169,-2.3695c1.68071,0.37207 2.74158,2.03619 2.3695,3.7169c-0.37207,1.68071 -2.03619,2.74157 -3.7169,2.3695z" fill="#804400"/></g><path d="M228.23775,186.05468c0,-6.14664 5.30831,-11.12947 11.85645,-11.12947c6.54814,0 11.85645,4.98283 11.85645,11.12947" fill="#fdff00" fill-rule="nonzero" stroke="#000000" stroke-width="0.5" stroke-linecap="butt" stroke-linejoin="miter"/><path d="M235.59262,177.8455l5.8662,-3.44033l-0.57339,2.42587l3.96961,-1.05856l-2.55819,2.73462" fill="#fdff00" fill-rule="nonzero" stroke="#000000" stroke-width="0.5" stroke-linecap="round" stroke-linejoin="miter"/><path d="M258.22921,170.49837v20.49804c0,4.00745 -3.22497,7.23243 -7.23242,7.23243h-20.5c-3.66107,0 -6.66147,-2.69385 -7.1543,-6.21484c0.7952,3.03475 3.54108,5.26367 6.83204,5.26367h20.0332c3.9166,0 7.07032,-3.15372 7.07032,-7.07031v-20.03321c0,-3.2976 -2.23906,-6.0451 -5.28321,-6.83398c3.52994,0.48496 6.23438,3.49081 6.23438,7.15821z" fill-opacity="0.29839" fill="#000000" fill-rule="evenodd" stroke="none" stroke-width="4.54219" stroke-linecap="round" stroke-linejoin="round"/></g></g></svg>