<svg version="1.1" xmlns="http://www.w3.org/2000/svg" xmlns:xlink="http://www.w3.org/1999/xlink" width="251.95522" height="267.22501" viewBox="0,0,251.95522,267.22501"><defs><radialGradient cx="240.00003" cy="241.50001" r="66" gradientUnits="userSpaceOnUse" id="color-1"><stop offset="0" stop-color="#ffc700"/><stop offset="1" stop-color="#ffa400"/></radialGradient><radialGradient cx="208.79673" cy="161.71244" r="16.67431" gradientUnits="userSpaceOnUse" id="color-2"><stop offset="0" stop-color="#e88500"/><stop offset="1" stop-color="#e7b500"/></radialGradient></defs><g transform="translate(-98.84583,-46.38751)"><g data-paper-data="{&quot;isPaintingLayer&quot;:true}" fill-rule="nonzero" stroke-linejoin="miter" stroke-miterlimit="10" stroke-dasharray="" stroke-dashoffset="0" style="mix-blend-mode: normal"><path d="M179.28373,313.61252v-267.22501h123.18203v267.22501z" fill-opacity="0.01" fill="#000000" stroke="none" stroke-width="0" stroke-linecap="butt"/><path d="M206.75004,307.5l15.14285,-131.8421l37.78325,-0.15789l13.57389,132z" fill="url(#color-1)" stroke="#000000" stroke-width="2" stroke-linecap="butt"/><path d="M219.70027,204.11263l3.12142,-26.32765l35.83075,-0.14203l2.76735,26.1059c0,0 -7.51543,4.19603 -21.55904,4.50964c-12.48458,0.27879 -20.16049,-4.14586 -20.16049,-4.14586z" fill="#b99100" stroke="#000000" stroke-width="0" stroke-linecap="butt"/><path d="M252.61663,176.65643h-25.10959" fill="none" stroke="#000000" stroke-width="2" stroke-linecap="round"/><g stroke="#000000" stroke-linecap="butt"><g stroke-width="2"><path d="M236.91321,80.04487c-18.12731,0 -32.82237,-3.95929 -32.82237,-8.84328c0,-4.88399 14.89682,-6.126 33.02411,-6.126c18.12731,0 32.62064,1.24201 32.62064,6.126c0,4.88399 -14.69508,8.84328 -32.82238,8.84328z" data-paper-data="{&quot;index&quot;:null}" fill="#a98500"/><g><path d="M237.78372,96.57573c-28.32659,0 -51.28982,-6.18695 -51.28982,-13.81892c0,-7.63197 23.27848,-9.57279 51.60507,-9.57279c28.32659,0 50.97458,1.94082 50.97458,9.57279c0,7.63197 -22.96324,13.81892 -51.28983,13.81892z" data-paper-data="{&quot;index&quot;:null}" fill="#886b00"/><path d="M238.94515,111.03296c-31.26574,0 -56.6116,-6.18695 -56.6116,-13.81892c0,-7.63197 25.69383,-9.5728 56.95958,-9.5728c31.26574,0 56.26365,1.94082 56.26365,9.5728c0,7.63197 -25.34588,13.81892 -56.61163,13.81892z" data-paper-data="{&quot;index&quot;:null}" fill="#a98500"/><path d="M240.38733,128.88801c-34.3111,0 -62.12573,-7.49406 -62.12573,-16.73841c0,-9.24437 28.19648,-11.59521 62.50758,-11.59521c34.3111,0 61.74388,2.35086 61.74388,11.59521c0,9.24437 -27.81463,16.73841 -62.12572,16.73841z" data-paper-data="{&quot;index&quot;:null}" fill="#886b00"/></g><path d="M270.2616,192.46809c0,4.88399 -14.49334,6.12601 -32.62064,6.12601c-18.12731,0 -33.02412,-1.24201 -33.02412,-6.12601c0,-4.88399 14.69508,-8.84327 32.82238,-8.84327c18.12731,0 32.82238,3.95928 32.82238,8.84327z" fill="#a98500"/><path d="M288.51171,179.64411c0,7.63197 -22.64797,9.5728 -50.97456,9.5728c-28.32659,0 -51.60508,-1.94084 -51.60508,-9.5728c0,-7.63197 22.96324,-13.81892 51.28983,-13.81892c28.32659,0 51.28982,6.18695 51.28982,13.81892z" fill="#886b00"/><path d="M294.99494,165.18689c0,7.63197 -24.99791,9.5728 -56.26365,9.5728c-31.26574,0 -56.95958,-1.94082 -56.95958,-9.5728c0,-7.63197 25.34586,-13.81892 56.6116,-13.81892c31.26574,0 56.61163,6.18695 56.61163,13.81892z" fill="#a98500"/><path d="M301.95123,150.25133c0,9.24437 -27.43277,11.59521 -61.74387,11.59521c-34.3111,0 -62.50758,-2.35086 -62.50758,-11.59521c0,-9.24437 27.81462,-16.73841 62.12572,-16.73841c34.3111,0 62.12572,7.49406 62.12572,16.73841z" fill="#886b00"/><path d="M309.7298,132.73976c0,9.24437 -30.27918,11.59521 -68.15036,11.59521c-37.87119,0 -68.9933,-2.35086 -68.9933,-11.59521c0,-9.24437 30.70063,-16.73841 68.57182,-16.73841c37.87119,0 68.57185,7.49405 68.57185,16.73841z" fill="#a98500"/></g><g><path d="M224.60038,133.76559c0,9.805 -6.59732,17.75353 -14.73553,17.75353c-8.1382,0 -14.73551,-7.94853 -14.73551,-17.75353c0,-9.805 6.59731,-17.75353 14.73551,-17.75353c8.1382,0 14.73553,7.94853 14.73553,17.75353z" fill="#000000" stroke-width="2"/><path d="M218.68517,177.2331c0,2.59061 0.99077,-21.85219 -7.53148,-21.85219c-8.52224,0 -15.4309,-2.1001 -15.4309,-4.69072c0,-2.59061 6.90865,-4.69072 15.4309,-4.69072c2.04771,0 8.47855,3.13892 9.57352,5.68749c3.46216,8.05822 -2.04205,23.57798 -2.04205,25.54613z" fill="url(#color-2)" stroke-width="0"/></g></g><g stroke="none" stroke-width="1" stroke-linecap="butt"><path d="M116.4291,71.97278c0,0 -13.53855,-5.14465 -7.58159,-10.01853c7.31082,-5.68619 7.58159,10.01853 7.58159,10.01853z" fill="#9bc9bb"/><path d="M116.69988,72.24355c0,0 0.27077,-14.89241 6.4985,-10.56007c7.85236,5.14465 -6.4985,10.56007 -6.4985,10.56007z" fill="#9bc9bb"/><path d="M128.34303,78.74205l8.3939,2.16617l-8.66467,1.62463z" fill="#614f4f"/><path d="M106.95212,90.11444c-10.01853,-1.08308 -11.10161,-15.43395 -0.81231,-18.6832c10.2893,-3.24925 26.53556,-2.43694 26.26479,11.10161c-0.27077,9.20622 -17.60012,8.3939 -25.45248,7.58159z" fill="#ffac38"/><path d="M106.68135,90.11444c-9.74776,-1.08308 -10.83084,-15.16318 -0.81231,-18.41243c2.43694,4.06157 5.14465,11.37238 0.81231,18.41243z" fill="#3c3131"/><path d="M118.3245,90.65598c-1.62463,0 -3.24925,0 -4.60311,0c3.24925,-8.66467 0.54154,-16.24626 -1.8954,-20.30783c1.35386,-0.27077 2.70771,-0.27077 4.06157,-0.27077c6.4985,7.31082 4.60311,15.43395 2.43694,20.5786z" fill="#3c3131"/><path d="M127.25995,72.78509c3.24925,5.41542 2.70771,11.10161 1.35386,15.43395c-1.35386,0.81231 -3.24925,1.62463 -5.14465,1.8954c2.97848,-8.3939 0,-15.43395 -2.16617,-19.49551c2.43694,0.27077 4.33234,1.08308 5.95696,2.16617z" fill="#3c3131"/></g><path d="M152.39046,146.93197c5.95696,4.87388 -7.58159,10.01853 -7.58159,10.01853c0,0 0.27077,-15.70472 7.58159,-10.01853z" data-paper-data="{&quot;index&quot;:null}" fill="#9bc9bb" stroke="none" stroke-width="1" stroke-linecap="butt"/><path d="M138.03959,146.6612c6.22773,-4.33234 6.4985,10.56007 6.4985,10.56007c0,0 -14.35086,-5.41542 -6.4985,-10.56007z" data-paper-data="{&quot;index&quot;:null}" fill="#9bc9bb" stroke="none" stroke-width="1" stroke-linecap="butt"/><path d="M133.16571,167.51057l-8.66467,-1.62463l8.3939,-2.16617z" data-paper-data="{&quot;index&quot;:null}" fill="#614f4f" stroke="none" stroke-width="1" stroke-linecap="butt"/><path d="M128.83337,167.51057c-0.27077,-13.53855 15.97549,-14.35086 26.26479,-11.10161c10.2893,3.24925 9.20622,17.60012 -0.81231,18.6832c-7.85236,0.81231 -25.18171,1.62463 -25.45248,-7.58159z" data-paper-data="{&quot;index&quot;:null}" fill="#ffac38" stroke="none" stroke-width="1" stroke-linecap="butt"/><path d="M155.36893,156.67973c10.01853,3.24925 8.93545,17.32935 -0.81231,18.41243c-4.33234,-7.04005 -1.62463,-14.35086 0.81231,-18.41243z" data-paper-data="{&quot;index&quot;:null}" fill="#3c3131" stroke="none" stroke-width="1" stroke-linecap="butt"/><path d="M145.35041,155.0551c1.35386,0 2.70771,0 4.06157,0.27077c-2.43694,4.06157 -5.14465,11.64316 -1.8954,20.30783c-1.35386,0 -2.97848,0 -4.60311,0c-2.16617,-5.14465 -4.06156,-13.26778 2.43694,-20.5786z" data-paper-data="{&quot;index&quot;:null}" fill="#3c3131" stroke="none" stroke-width="1" stroke-linecap="butt"/><path d="M133.97802,157.76282c1.62462,-1.08309 3.52002,-1.8954 5.95696,-2.16617c-2.16617,4.06156 -5.14465,11.10161 -2.16617,19.49551c-1.8954,-0.27077 -3.79079,-1.08309 -5.14465,-1.8954c-1.35385,-4.33234 -1.89539,-10.01853 1.35386,-15.43395z" data-paper-data="{&quot;index&quot;:null}" fill="#3c3131" stroke="none" stroke-width="1" stroke-linecap="butt"/><path d="M340.79937,78.07495c5.95696,4.87388 -7.58159,10.01853 -7.58159,10.01853c0,0 0.27077,-15.70472 7.58159,-10.01853z" data-paper-data="{&quot;index&quot;:null}" fill="#9bc9bb" stroke="none" stroke-width="1" stroke-linecap="butt"/><path d="M326.4485,77.80418c6.22773,-4.33234 6.4985,10.56007 6.4985,10.56007c0,0 -14.35086,-5.41542 -6.4985,-10.56007z" data-paper-data="{&quot;index&quot;:null}" fill="#9bc9bb" stroke="none" stroke-width="1" stroke-linecap="butt"/><path d="M321.57462,98.65355l-8.66467,-1.62463l8.3939,-2.16617z" data-paper-data="{&quot;index&quot;:null}" fill="#614f4f" stroke="none" stroke-width="1" stroke-linecap="butt"/><path d="M317.24228,98.65355c-0.27077,-13.53855 15.97549,-14.35086 26.26479,-11.10161c10.2893,3.24925 9.20622,17.60012 -0.81231,18.6832c-7.85236,0.81231 -25.18171,1.62463 -25.45248,-7.58159z" data-paper-data="{&quot;index&quot;:null}" fill="#ffac38" stroke="none" stroke-width="1" stroke-linecap="butt"/><path d="M343.77784,87.82271c10.01853,3.24925 8.93545,17.32935 -0.81231,18.41243c-4.33234,-7.04005 -1.62463,-14.35086 0.81231,-18.41243z" data-paper-data="{&quot;index&quot;:null}" fill="#3c3131" stroke="none" stroke-width="1" stroke-linecap="butt"/><path d="M333.75932,86.19808c1.35386,0 2.70771,0 4.06157,0.27077c-2.43694,4.06157 -5.14465,11.64316 -1.8954,20.30783c-1.35386,0 -2.97848,0 -4.60311,0c-2.16617,-5.14465 -4.06156,-13.26778 2.43694,-20.5786z" data-paper-data="{&quot;index&quot;:null}" fill="#3c3131" stroke="none" stroke-width="1" stroke-linecap="butt"/><path d="M322.38693,88.9058c1.62462,-1.08309 3.52002,-1.8954 5.95696,-2.16617c-2.16617,4.06156 -5.14465,11.10161 -2.16617,19.49551c-1.8954,-0.27077 -3.79079,-1.08309 -5.14465,-1.8954c-1.35385,-4.33234 -1.89539,-10.01853 1.35386,-15.43395z" data-paper-data="{&quot;index&quot;:null}" fill="#3c3131" stroke="none" stroke-width="1" stroke-linecap="butt"/></g></g></svg>