<svg version="1.1" xmlns="http://www.w3.org/2000/svg" xmlns:xlink="http://www.w3.org/1999/xlink" width="34.17311" height="34.17311" viewBox="0,0,34.17311,34.17311"><g transform="translate(-222.91351,-162.9135)"><g data-paper-data="{&quot;isPaintingLayer&quot;:true}" stroke-miterlimit="10" stroke-dasharray="" stroke-dashoffset="0" style="mix-blend-mode: normal"><path d="M229.98319,162.9135h20.03378c3.9166,0 7.06966,3.15307 7.06966,7.06966v20.03379c0,3.91659 -3.15306,7.06966 -7.06966,7.06966h-20.03378c-3.91659,0 -7.06967,-3.15307 -7.06967,-7.06966v-20.03379c0,-3.91659 3.15308,-7.06966 7.06967,-7.06966z" fill-opacity="0.09677" fill="#191919" fill-rule="evenodd" stroke="none" stroke-width="4.43922" stroke-linecap="round" stroke-linejoin="round"/><g fill="#000000" fill-rule="nonzero" stroke="#ffffff" stroke-width="0.5" stroke-linecap="butt" stroke-linejoin="miter"><g><path d="M235.62112,178.00368c0,0.1267 -1.04408,0.16825 -1.05568,0.04881c-0.13229,-1.36217 -0.35346,-3.19532 -1.18595,-4.194c-0.66687,-0.8 -1.89565,-0.87926 -2.52794,-0.91851c-2.66959,-0.16572 -2.88389,0.86494 -2.97052,0.91692c-0.08663,0.05198 -0.79394,3.11252 -0.76579,3.1361c0.02814,0.02357 1.22984,0.72018 1.90645,0.48441c0.49586,-0.17279 0.35822,-0.91062 0.59734,-1.03932c0.24502,-0.13188 0.70949,0.13753 0.70949,0.13106c0,-0.05244 0.3847,1.7422 -1.07706,2.12232c-0.84892,0.22075 -3.21874,-0.64262 -3.22978,-1.15623c-0.01104,-0.51361 0.41564,-4.24093 0.90649,-4.68092c1.01505,-0.90988 2.66758,-1.06765 3.92339,-1.06765c1.06723,0 2.78742,-0.12454 3.81904,1.11359c1.40294,1.68379 0.95053,4.91991 0.95053,5.10344z"/><path d="M230.21195,177.59565c-0.21053,0.04162 -0.52226,-0.68156 -0.52226,-0.68156c0,0 -0.75306,0.23146 -0.85778,0.044c-0.10485,-0.1875 0.48686,-0.70758 0.48686,-0.70758c0,0 -0.45273,-0.64467 -0.30683,-0.80217c0.14595,-0.15764 0.82332,0.24437 0.82332,0.24437c0,0 0.47305,-0.62982 0.66803,-0.5399c0.19521,0.09015 0.02219,0.85875 0.02219,0.85875c0,0 0.74519,0.25526 0.71959,0.46853c-0.02514,0.21329 -0.80961,0.28635 -0.80961,0.28635c0,0 -0.01258,0.78773 -0.22352,0.8292z"/></g><g data-paper-data="{&quot;index&quot;:null}"><path d="M244.37887,178.02795c0,-0.18353 -0.45242,-3.41965 0.95053,-5.10344c1.03162,-1.23813 2.75181,-1.11359 3.81904,-1.11359c1.25581,0 2.90834,0.15777 3.92339,1.06765c0.49085,0.43999 0.91752,4.16731 0.90649,4.68092c-0.01104,0.51361 -2.38085,1.37698 -3.22978,1.15623c-1.46175,-0.38011 -1.07706,-2.17476 -1.07706,-2.12232c0,0.00648 0.46447,-0.26294 0.70949,-0.13106c0.23911,0.12871 0.10148,0.86654 0.59734,1.03932c0.67661,0.23577 1.87831,-0.46084 1.90645,-0.48441c0.02814,-0.02357 -0.67916,-3.08412 -0.76579,-3.1361c-0.08663,-0.05198 -0.30093,-1.08264 -2.97052,-0.91692c-0.6323,0.03925 -1.86107,0.1185 -2.52794,0.91851c-0.83249,0.99868 -1.05367,2.83184 -1.18595,4.194c-0.0116,0.11944 -1.05568,0.07789 -1.05568,-0.04881z"/><path d="M249.5645,176.79071c0,0 -0.78447,-0.07306 -0.80961,-0.28635c-0.02559,-0.21327 0.71959,-0.46853 0.71959,-0.46853c0,0 -0.17301,-0.76859 0.02219,-0.85875c0.19498,-0.08992 0.66803,0.5399 0.66803,0.5399c0,0 0.67736,-0.40201 0.82332,-0.24437c0.1459,0.1575 -0.30683,0.80217 -0.30683,0.80217c0,0 0.59171,0.52008 0.48686,0.70757c-0.10472,0.18745 -0.85778,-0.044 -0.85778,-0.044c0,0 -0.31173,0.72318 -0.52226,0.68156c-0.21094,-0.04147 -0.22352,-0.8292 -0.22352,-0.8292z"/></g><g data-paper-data="{&quot;index&quot;:null}"><path d="M241.06562,173.71819c0.07692,-0.07829 0.15521,-0.00138 0.15521,-0.00138l-0.02693,0.00833c0.29578,0.02711 0.57283,0.09591 0.82106,-0.12749c0.057,-0.0513 0.10292,-0.12735 0.14526,-0.19108c0.11474,-0.17258 0.01487,-0.3975 -0.05116,-0.57766c-0.02,-0.05456 -0.0453,-0.1622 -0.08435,-0.21209c-0.03221,-0.04115 -0.12584,-0.07245 -0.16419,-0.09213c-0.12281,-0.06303 -0.26722,-0.19461 -0.40927,-0.11275c-0.06759,0.03895 -0.2502,0.11112 -0.27189,0.19323c-0.00578,0.02189 -0.0058,0.04422 -0.00327,0.06678c0.04727,-0.0173 0.09176,-0.00658 0.13028,0.02149c0.04996,0.01335 0.09087,0.03183 0.10754,0.05347c0.05084,0.06598 0.04974,0.16403 0.03968,0.24672c-0.0007,0.00572 -0.00154,0.01128 -0.00252,0.01669c0.00776,0.1173 -0.02114,0.23483 -0.08658,0.28393c-0.15268,0.11457 -0.30378,0.02104 -0.38819,-0.12688c-0.02764,-0.03217 -0.04038,-0.06595 -0.04422,-0.10041c-0.03936,-0.12177 -0.03437,-0.25547 0.04159,-0.33829c-0.00806,-0.06537 -0.02394,-0.13125 -0.00288,-0.19195c0.05302,-0.15284 0.24445,-0.25241 0.37936,-0.31962c0.23282,-0.116 0.40524,0.00642 0.6101,0.11206c0.09142,0.04714 0.16256,0.06082 0.23274,0.14673c0.07127,0.08724 0.08548,0.17719 0.1222,0.27758c0.0959,0.26221 0.17943,0.51953 0.02963,0.7719c-0.05581,0.08346 -0.10551,0.16622 -0.18213,0.23466c-0.30183,0.26962 -0.62588,0.21642 -0.98866,0.18373l-0.10703,-0.07035c0,0 -0.07829,-0.07692 -0.00138,-0.15521z"/><path d="M241.51187,175.79067c0.06093,0.0197 0.16923,-0.01681 0.2468,-0.01721c0.02734,-0.02458 0.05191,-0.05186 0.06836,-0.06792c0.02571,-0.02508 0.05201,-0.05038 0.07794,-0.0762c-0.01317,-0.06646 0.0498,-0.1082 0.0498,-0.1082l0.0123,0.03665c0.01835,-0.12863 0.08549,-0.24432 0.08335,-0.37505c-0.00179,-0.10936 -0.0575,-0.13048 -0.04183,-0.25471c0.00122,-0.00964 0.00212,-0.01973 0.00285,-0.0301c-0.04392,-0.11726 -0.10182,-0.22591 -0.16751,-0.31503c0,0 -0.01124,-0.01536 -0.01796,-0.03796c-0.12502,0.00646 -0.25751,0.0346 -0.35135,0.07295c-0.05235,0.02139 -0.14426,0.0378 -0.18695,0.08733c-0.01951,0.02263 -0.01824,0.0592 -0.03895,0.08074c-0.00108,0.00112 -0.00216,0.00223 -0.00324,0.00334l0.00088,0.00056l-0.02032,0.03195l-0.00983,0.03356c-0.01176,0.04384 -0.05,0.07685 -0.09652,0.08084c-0.00929,0.00255 -0.01907,0.00392 -0.02917,0.00392c-0.05757,0 -0.10479,-0.04433 -0.10939,-0.10071l-0.01389,-0.1491c-0.02507,-0.08556 -0.03293,-0.17188 -0.03485,-0.25899c-0.02299,-0.05247 -0.05281,-0.10122 -0.0904,-0.14722l-0.041,-0.01527c-0.04298,-0.01487 -0.07385,-0.05571 -0.07385,-0.10375c0,-0.04376 0.02561,-0.08154 0.06266,-0.09916l0.08896,-0.04463c0.01826,-0.01986 0.0318,-0.03728 0.04191,-0.05332l0.00216,-0.07677c0.00071,-0.02933 0.01292,-0.0558 0.0323,-0.07509c0.002,-0.02433 0.00537,-0.05235 0.01298,-0.08643l0.0007,-0.11317c0.00032,-0.06035 0.04933,-0.10916 0.10975,-0.10916c0.03948,0 0.07409,0.02084 0.09342,0.05212l0.04584,0.0716c0.06614,0.02993 0.12918,0.0667 0.19068,0.10527c0,0 0.09292,0.05842 0.0345,0.15133c-0.05842,0.09292 -0.15133,0.0345 -0.15133,0.0345c-0.02873,-0.01811 -0.05779,-0.03571 -0.08711,-0.05286c-0.00948,0.04185 -0.03028,0.08822 -0.05547,0.13317l0.00143,0.0235l-0.00066,0.00004c0.00026,0.00082 0.00053,0.00165 0.00078,0.00247c0.03405,0.10857 0.02089,0.22749 0.01349,0.34628c0.02102,0.03479 0.04368,0.07027 0.06283,0.10599c0.01079,-0.00627 0.02125,-0.01208 0.03104,-0.01738c0.20727,-0.11217 0.41611,-0.12077 0.64567,-0.11933c0.0595,0.00037 0.12217,-0.01733 0.1785,0.00185c0.18677,0.06359 0.21613,0.22079 0.29034,0.37585c0.18382,0.38409 0.26019,0.97274 -0.16393,1.21113c-0.18797,0.09697 -0.42138,0.21641 -0.62761,0.24294c-0.16795,0.02161 -0.30516,0.0786 -0.44551,-0.05884c-0.05136,-0.05029 -0.10249,-0.19425 -0.13954,-0.25662c-0.03561,-0.05994 -0.13574,-0.16736 -0.14902,-0.23641c-0.01176,-0.06117 -0.00027,-0.12551 0.01274,-0.18642c0.01825,-0.08536 0.10265,-0.27798 0.20427,-0.2982c0.07577,-0.01507 0.15054,0.03856 0.22057,0.07117c0.16124,0.07508 0.31554,0.23644 0.18848,0.42399c-0.01962,0.02897 -0.0492,0.0486 -0.08176,0.0643c0.02588,0.04068 0.06345,0.07338 0.12062,0.09186z"/><path d="M241.52859,172.50595c-0.11443,0.0522 -0.286,0.123 -0.30526,0.22917c-0.00817,0.04504 -0.00214,0.09152 -0.00321,0.13728c0,0 -0.00476,0.10965 -0.11442,0.10489c-0.10965,-0.00476 -0.10489,-0.11441 -0.10489,-0.11441c0.00361,-0.06196 -0.00528,-0.12594 0.01083,-0.18588c0.03264,-0.12141 0.12591,-0.20107 0.23198,-0.26495c-0.00478,-0.0147 -0.00656,-0.03239 -0.0036,-0.05367c0.01515,-0.1087 0.12386,-0.09355 0.12386,-0.09355l0.09381,0.01311c0.01015,0.00117 0.02029,0.00236 0.03042,0.00356c0.07016,-0.03945 0.18626,-0.11199 0.26389,-0.11253c0.23808,-0.00164 0.44055,0.29125 0.50739,0.49512c0.04367,0.03663 0.03515,0.09946 0.03515,0.09946l-0.00132,0.00892l0.01894,0.06056c0.00374,0.01105 0.00577,0.02289 0.00577,0.0352c0,0.03082 -0.01271,0.05868 -0.03316,0.07861c0.00178,0.1377 0.00422,0.27805 -0.03256,0.41013c-0.00146,0.00526 -0.00279,0.01065 -0.00405,0.01612c-0.00157,0.04001 -0.00287,0.07965 -0.00337,0.11868l-0.01417,0.01638l0.00848,0.00333l-0.04543,0.11565c-0.01539,0.04202 -0.05574,0.072 -0.10309,0.072c-0.06062,0 -0.10975,-0.04914 -0.10975,-0.10975c0,-0.00206 0.00006,-0.00411 0.00017,-0.00615l0.00628,-0.12915l0.00378,0.00018c-0.00069,-0.00567 -0.00124,-0.01137 -0.00163,-0.0171c-0.00357,-0.05285 0.02152,-0.10211 0.04285,-0.15223c0.00603,-0.14902 0.01511,-0.30204 -0.01649,-0.44283c-0.00202,-0.009 -0.00432,-0.01807 -0.00687,-0.0272c-0.0679,-0.07652 -0.11432,-0.19431 -0.20373,-0.24307c-0.07326,-0.03995 -0.18085,-0.05554 -0.27661,-0.06588z"/></g></g><path d="M228.35773,188.21683c0,-6.14664 5.30831,-11.12947 11.85645,-11.12947c6.54814,0 11.85645,4.98283 11.85645,11.12947" fill="#000000" fill-rule="nonzero" stroke="#ffffff" stroke-width="0.5" stroke-linecap="butt" stroke-linejoin="miter"/></g></g></svg>