<svg version="1.1" xmlns="http://www.w3.org/2000/svg" xmlns:xlink="http://www.w3.org/1999/xlink" width="123.18203" height="336.05907" viewBox="0,0,123.18203,336.05907"><g transform="translate(-179.28375,22.44653)"><g data-paper-data="{&quot;isPaintingLayer&quot;:true}" fill-rule="nonzero" stroke-linejoin="miter" stroke-miterlimit="10" stroke-dasharray="" stroke-dashoffset="0" style="mix-blend-mode: normal"><g><g stroke-linecap="round"><path d="M238.31556,149.82988c7.43824,0.60933 14.75803,4.90737 19.65334,10.35012c3.39983,3.97678 2.40297,10.12109 2.90141,15.26196c0.5203,5.37314 -0.54377,10.78916 0.14099,15.98225c0.44641,3.70525 1.90064,7.0654 3.22117,10.46125c1.40011,3.603 6.55965,7.17791 4.72134,10.56114c-2.3064,4.54657 -8.64561,5.7066 -13.70146,6.62171c-7.90447,1.42953 -16.10061,0.5792 -24.12335,0.20165c-5.5386,-0.51597 -11.04645,-1.41385 -16.38242,-2.89941c-4.95823,-1.37534 -10.19643,-2.54637 -14.40234,-5.47979c-1.50452,-1.06702 -1.86668,-3.90175 -1.12055,-5.80071c1.35531,-3.05492 5.07209,-4.60654 6.84039,-7.68156c1.92652,-3.34949 2.98907,-7.15925 4.03993,-10.88174c1.21329,-4.24451 1.88981,-8.90872 2.99955,-13.36208c1.33592,-5.34358 0.27522,-12.23189 4.37954,-15.98246c5.35949,-5.01172 13.49242,-7.9527 20.83247,-7.35232z" fill="#ffd351" stroke="#000000" stroke-width="2"/><path d="M222.16819,158.99404c2.5841,-3.18758 7.78136,-4.14401 12.04136,-4.32141c1.96123,-0.0797 4.50715,2.25676 3.98077,3.58025c-0.26362,1.48695 -3.68382,0.93909 -5.56065,2.04063c-2.92081,1.73672 -6.02116,3.60733 -7.9607,6.40148c-2.26435,3.26554 -1.69775,7.97031 -4.33987,10.86177c-0.83039,1.10979 -3.95801,0.05098 -3.82064,-1.45991c0.54487,-5.97317 1.89321,-12.43457 5.65972,-17.10279z" fill="#fff1c8" stroke="none" stroke-width="0.60142"/><path d="M235.11179,150.91286c0,0 0.8892,-11.2704 3.81914,-10.64671c3.00604,0.63989 2.13649,11.45637 2.13649,11.45637" fill="#ffd351" stroke="#000000" stroke-width="2"/></g><path d="M267.91638,211.06998c-0.24553,6.1816 -13.62736,8.73269 -33.11813,7.35805c-19.28207,-1.35992 -35.18635,-6.08149 -34.99639,-10.8642c0.06323,-1.59193 2.92945,-6.4885 5.87171,-6.47179c5.89726,0.03348 15.66569,6.05959 28.55146,6.57141c14.30705,0.56827 25.69522,-2.64274 30.72701,-1.34365c1.7612,0.4547 3.02183,3.30292 2.96434,4.75016z" fill="#eac24d" stroke="#dcb749" stroke-width="0" stroke-linecap="butt"/></g><path d="M238.78449,140.12318l10.4732,-161.31971" fill="none" stroke="#000000" stroke-width="2.5" stroke-linecap="round"/><g fill="#000000"><path d="M234.70241,199.80691c-3.40782,-0.20008 -5.87157,-10.5894 -5.87157,-10.5894l13.2719,0.77923c0,0 -3.99251,10.01025 -7.40033,9.81017z" stroke="#000000" stroke-width="2" stroke-linecap="round"/><path d="M217.75905,178.67244c0.22466,-3.82653 3.5088,-6.74641 7.33533,-6.52175c3.82653,0.22466 6.74641,3.50881 6.52175,7.33533c-0.22466,3.82653 -3.5088,6.74641 -7.33533,6.52175c-3.82653,-0.22466 -6.74641,-3.50881 -6.52175,-7.33533z" stroke="none" stroke-width="0" stroke-linecap="butt"/><path d="M246.93179,187.33766c-3.82652,-0.22466 -6.74641,-3.50881 -6.52175,-7.33533c0.22466,-3.82653 3.50881,-6.74641 7.33533,-6.52175c3.82653,0.22466 6.74641,3.50881 6.52175,7.33533c-0.22466,3.82653 -3.5088,6.74641 -7.33533,6.52175z" data-paper-data="{&quot;index&quot;:null}" stroke="none" stroke-width="0" stroke-linecap="butt"/></g><path d="M179.28375,313.61253v-267.22501h123.18203v267.22501z" fill-opacity="0.01" fill="#000000" stroke="none" stroke-width="0" stroke-linecap="butt"/></g></g></svg>