<svg version="1.1" xmlns="http://www.w3.org/2000/svg" xmlns:xlink="http://www.w3.org/1999/xlink" width="34.67311" height="34.67311" viewBox="0,0,34.67311,34.67311"><defs><linearGradient x1="65.14657" y1="161.52551" x2="85.98334" y2="139.33127" gradientUnits="userSpaceOnUse" id="color-1"><stop offset="0" stop-color="#1a0000"/><stop offset="1" stop-color="#800000"/></linearGradient><linearGradient x1="162.31042" y1="168.19224" x2="141.47373" y2="145.99792" gradientUnits="userSpaceOnUse" id="color-2"><stop offset="0" stop-color="#1a0000"/><stop offset="1" stop-color="#800000"/></linearGradient><linearGradient x1="240.00001" y1="162.91346" x2="240.00001" y2="197.08656" gradientUnits="userSpaceOnUse" id="color-3"><stop offset="0" stop-color="#000000"/><stop offset="1" stop-color="#6f4100"/></linearGradient><linearGradient x1="250.45638" y1="177.40587" x2="250.45638" y2="186.57738" gradientUnits="userSpaceOnUse" id="color-4"><stop offset="0" stop-color="#6a3e00"/><stop offset="1" stop-color="#2a1900"/></linearGradient><linearGradient x1="246.02464" y1="173.70254" x2="246.02464" y2="183.54157" gradientUnits="userSpaceOnUse" id="color-5"><stop offset="0" stop-color="#6a3e00"/><stop offset="1" stop-color="#2a1900"/></linearGradient><linearGradient x1="229.70154" y1="177.55593" x2="229.70154" y2="186.72743" gradientUnits="userSpaceOnUse" id="color-6"><stop offset="0" stop-color="#6a3e00"/><stop offset="1" stop-color="#2a1900"/></linearGradient><linearGradient x1="233.01644" y1="173.01386" x2="233.01644" y2="181.45642" gradientUnits="userSpaceOnUse" id="color-7"><stop offset="0" stop-color="#6a3e00"/><stop offset="1" stop-color="#2a1900"/></linearGradient><linearGradient x1="239.54179" y1="166.90616" x2="239.54179" y2="181.34153" gradientUnits="userSpaceOnUse" id="color-8"><stop offset="0" stop-color="#6a3e00"/><stop offset="1" stop-color="#2a1900"/></linearGradient><linearGradient x1="239.85591" y1="178.05841" x2="239.85591" y2="188.28212" gradientUnits="userSpaceOnUse" id="color-9"><stop offset="0" stop-color="#1d1509"/><stop offset="1" stop-color="#583e1b"/></linearGradient></defs><g transform="translate(-222.66345,-162.66345)"><g data-paper-data="{&quot;isPaintingLayer&quot;:true}" stroke-miterlimit="10" stroke-dasharray="" stroke-dashoffset="0" style="mix-blend-mode: normal"><path d="M229.98314,162.91349h20.03378c3.9166,0 7.06966,3.15307 7.06966,7.06966v20.03379c0,3.91659 -3.15306,7.06966 -7.06966,7.06966h-20.03378c-3.91659,0 -7.06967,-3.15307 -7.06967,-7.06966v-20.03379c0,-3.91659 3.15308,-7.06966 7.06967,-7.06966z" fill-opacity="0.09677" fill="#191919" fill-rule="evenodd" stroke="none" stroke-width="4.43922" stroke-linecap="round" stroke-linejoin="round"/><path d="" data-paper-data="{&quot;index&quot;:null}" fill="url(#color-1)" fill-rule="nonzero" stroke="#000000" stroke-width="0" stroke-linecap="butt" stroke-linejoin="miter"/><path d="" data-paper-data="{&quot;index&quot;:null}" fill="url(#color-2)" fill-rule="nonzero" stroke="#000000" stroke-width="0" stroke-linecap="butt" stroke-linejoin="miter"/><path d="M229.98319,162.9135h20.03379c3.9166,0 7.06966,3.15307 7.06966,7.06966v20.03379c0,3.91659 -3.15306,7.06966 -7.06966,7.06966h-20.03379c-3.91659,0 -7.06966,-3.15307 -7.06966,-7.06966v-20.03379c0,-3.91659 3.15307,-7.06966 7.06966,-7.06966z" fill-opacity="0.09677" fill="#191919" fill-rule="evenodd" stroke="none" stroke-width="4.43922" stroke-linecap="round" stroke-linejoin="round"/><path d="M229.98313,162.91347h20.03379c3.9166,0 7.06966,3.15307 7.06966,7.06966v20.03379c0,3.91659 -3.15306,7.06966 -7.06966,7.06966h-20.03379c-3.91659,0 -7.06966,-3.15307 -7.06966,-7.06966v-20.03379c0,-3.91659 3.15307,-7.06966 7.06966,-7.06966z" fill-opacity="0.09677" fill="#191919" fill-rule="evenodd" stroke="none" stroke-width="4.43922" stroke-linecap="round" stroke-linejoin="round"/><path d="M229.98312,162.91346h20.03379c3.9166,0 7.06966,3.15307 7.06966,7.06966v20.03379c0,3.91659 -3.15306,7.06966 -7.06966,7.06966h-20.03379c-3.91659,0 -7.06966,-3.15307 -7.06966,-7.06966v-20.03379c0,-3.91659 3.15307,-7.06966 7.06966,-7.06966z" fill="url(#color-3)" fill-rule="evenodd" stroke="#ffb650" stroke-width="0.5" stroke-linecap="round" stroke-linejoin="round"/><g fill-rule="nonzero" stroke="#000000" stroke-width="0" stroke-linecap="butt" stroke-linejoin="miter"><path d="M248.52034,186.08539c-1.39477,0.88907 -3.20736,0.54004 -4.04853,-0.77958c-0.84118,-1.31962 -0.3924,-3.11013 1.00237,-3.9992c1.39477,-0.88907 11.39095,-3.90074 11.39095,-3.90074c0,0 -6.95002,7.79045 -8.34478,8.67952z" fill="url(#color-4)"/><path d="M246.35129,182.50508c-0.74335,1.0642 -2.16217,1.35676 -3.16903,0.65346c-1.00686,-0.7033 -1.22049,-2.13614 -0.47714,-3.20033c0.74335,-1.0642 7.0822,-6.25567 7.0822,-6.25567c0,0 -2.69269,7.73834 -3.43603,8.80254z" fill="url(#color-5)"/><path d="M231.63759,186.23545c-1.39477,-0.88907 -8.34479,-8.67952 -8.34479,-8.67952c0,0 9.99618,3.01167 11.39095,3.90074c1.39477,0.88907 1.84354,2.67958 1.00237,3.9992c-0.84118,1.31962 -2.65377,1.66865 -4.04853,0.77958z" fill="url(#color-6)"/><path d="M232.24326,180.41521c-0.48795,-0.92799 -1.86247,-7.40135 -1.86247,-7.40135c0,0 4.55401,4.80154 5.04196,5.72953c0.48795,0.92799 0.17176,2.05452 -0.70623,2.51618c-0.87799,0.46166 -1.98531,0.08363 -2.47326,-0.84436z" fill="url(#color-7)"/><path d="M234.95208,177.80462c0.17752,-1.64448 4.71328,-10.89846 4.71328,-10.89846c0,0 4.64657,9.66478 4.46904,11.30925c-0.17753,1.64448 -3.37167,3.28218 -4.92756,3.11422c-1.55588,-0.16796 -4.43229,-1.88053 -4.25476,-3.52501z" fill="url(#color-8)"/></g><path d="M228.96439,188.28212c0,-5.6464 4.8763,-10.22371 10.89152,-10.22371c6.01522,0 10.89153,4.57732 10.89153,10.22371" fill="url(#color-9)" fill-rule="nonzero" stroke="#000000" stroke-width="0" stroke-linecap="butt" stroke-linejoin="miter"/></g></g></svg>