<svg version="1.1" xmlns="http://www.w3.org/2000/svg" xmlns:xlink="http://www.w3.org/1999/xlink" width="34.17311" height="34.17311" viewBox="0,0,34.17311,34.17311"><g transform="translate(-222.91344,-162.91344)"><g data-paper-data="{&quot;isPaintingLayer&quot;:true}" stroke-miterlimit="10" stroke-dasharray="" stroke-dashoffset="0" style="mix-blend-mode: normal"><path d="M229.98312,162.91345h20.03378c3.9166,0 7.06966,3.15307 7.06966,7.06966v20.03379c0,3.91659 -3.15306,7.06966 -7.06966,7.06966h-20.03378c-3.91659,0 -7.06967,-3.15307 -7.06967,-7.06966v-20.03379c0,-3.91659 3.15308,-7.06966 7.06967,-7.06966z" fill-opacity="0.09677" fill="#191919" fill-rule="evenodd" stroke="none" stroke-width="4.43922" stroke-linecap="round" stroke-linejoin="round"/><g data-paper-data="{&quot;index&quot;:null}" fill="#000000" fill-rule="nonzero" stroke="#ffffff" stroke-width="0.5" stroke-linecap="butt" stroke-linejoin="miter"><path d="M247.47399,185.81413l4.45073,-9.98427l1.04597,0.46626l-4.45073,9.98427z"/><path d="M251.32445,178.58283c-1.39167,-0.62037 -2.01693,-2.25145 -1.39656,-3.64312c0.62037,-1.39167 2.25145,-2.01693 3.64312,-1.39656c1.39167,0.62037 2.01693,2.25145 1.39656,3.64312c-0.62037,1.39167 -2.25145,2.01693 -3.64312,1.39656z"/></g><g fill="#000000" fill-rule="nonzero" stroke="#ffffff" stroke-width="0.5" stroke-linecap="butt" stroke-linejoin="miter"><path d="M231.48006,186.69665l-4.45073,-9.98427l1.04597,-0.46626l4.45073,9.98427z"/><path d="M225.03246,177.6025c-0.62037,-1.39167 0.00489,-3.02275 1.39656,-3.64312c1.39167,-0.62037 3.02275,0.00489 3.64312,1.39656c0.62037,1.39167 -0.00489,3.02275 -1.39656,3.64312c-1.39167,0.62037 -3.02275,-0.00489 -3.64312,-1.39656z"/></g><path d="M228.60026,187.27441c0,-5.6464 4.8763,-10.22371 10.89152,-10.22371c6.01522,0 10.89153,4.57732 10.89153,10.22371" fill="#000000" fill-rule="nonzero" stroke="#ffffff" stroke-width="0.5" stroke-linecap="butt" stroke-linejoin="miter"/><path d="M241.83493,178.18465l2.26435,2.42052l-3.51365,-0.93697l0.50753,2.14723l-5.1924,-3.04517" data-paper-data="{&quot;index&quot;:null}" fill="#000000" fill-rule="nonzero" stroke="#ffffff" stroke-width="0.5" stroke-linecap="round" stroke-linejoin="miter"/></g></g></svg>