<svg version="1.1" xmlns="http://www.w3.org/2000/svg" xmlns:xlink="http://www.w3.org/1999/xlink" width="34.17311" height="34.17311" viewBox="0,0,34.17311,34.17311"><g transform="translate(-222.91346,-162.91346)"><g data-paper-data="{&quot;isPaintingLayer&quot;:true}" stroke-linecap="round" stroke-miterlimit="10" stroke-dasharray="" stroke-dashoffset="0" style="mix-blend-mode: normal"><path d="M229.98314,162.91347h20.03378c3.9166,0 7.06966,3.15307 7.06966,7.06966v20.03379c0,3.91659 -3.15306,7.06966 -7.06966,7.06966h-20.03378c-3.91659,0 -7.06967,-3.15307 -7.06967,-7.06966v-20.03379c0,-3.91659 3.15308,-7.06966 7.06967,-7.06966z" fill-opacity="0.09677" fill="#191919" fill-rule="evenodd" stroke="none" stroke-width="4.43922" stroke-linejoin="round"/><path d="M240.39685,170.41777c2.37617,0.07507 4.77356,1.32557 6.41789,2.97897c1.14514,1.2109 0.92612,3.1816 1.1668,4.80917c0.25134,1.70113 -0.0007,3.44119 0.30009,5.08241c0.20119,1.17168 0.71751,2.21746 1.19186,3.27675c0.50298,1.12391 2.20154,2.17886 1.67073,3.28457c-0.66116,1.4833 -2.65942,1.95359 -4.2533,2.32547c-2.49193,0.58103 -5.11307,0.4414 -7.67149,0.4494c-1.77031,-0.07571 -3.53695,-0.2734 -5.25828,-0.66081c-1.5994,-0.35838 -3.2846,-0.64728 -4.66954,-1.51336c-0.49569,-0.31544 -0.65619,-1.21151 -0.44913,-1.82757c0.3824,-0.99355 1.54009,-1.54654 2.05356,-2.55308c0.55942,-1.09639 0.83663,-2.32541 1.1115,-3.52649c0.31822,-1.36974 0.45896,-2.86444 0.7409,-4.29898c0.33968,-1.72136 -0.10778,-3.8959 1.13809,-5.15467c1.62506,-1.68004 4.16553,-2.74558 6.51032,-2.67179z" fill="#000000" fill-rule="nonzero" stroke="#ffffff" stroke-width="0.5" stroke-linejoin="miter"/><path d="M239.18846,170.80859c0,0 0.14054,-3.59854 1.08101,-3.43707c0.9649,0.16567 0.82487,3.61948 0.82487,3.61948" fill="#000000" fill-rule="nonzero" stroke="#ffffff" stroke-width="0.5" stroke-linejoin="miter"/></g></g></svg>