<svg version="1.1" xmlns="http://www.w3.org/2000/svg" xmlns:xlink="http://www.w3.org/1999/xlink" width="204.60584" height="267.22501" viewBox="0,0,204.60584,267.22501"><defs><linearGradient x1="162.19811" y1="101.07872" x2="213.83332" y2="119.07944" gradientUnits="userSpaceOnUse" id="color-1"><stop offset="0" stop-color="#333333"/><stop offset="1" stop-color="#4d4d4d"/></linearGradient><linearGradient x1="139.81741" y1="119.486" x2="173.18147" y2="131.11712" gradientUnits="userSpaceOnUse" id="color-2"><stop offset="0" stop-color="#000000"/><stop offset="1" stop-color="#191919"/></linearGradient><linearGradient x1="318.32334" y1="96.90016" x2="268.12907" y2="118.59708" gradientUnits="userSpaceOnUse" id="color-3"><stop offset="0" stop-color="#333333"/><stop offset="1" stop-color="#4d4d4d"/></linearGradient><linearGradient x1="341.97968" y1="113.63641" x2="309.54668" y2="127.65586" gradientUnits="userSpaceOnUse" id="color-4"><stop offset="0" stop-color="#000000"/><stop offset="1" stop-color="#191919"/></linearGradient><linearGradient x1="240.00006" y1="175.50004" x2="240.00006" y2="307.50004" gradientUnits="userSpaceOnUse" id="color-5"><stop offset="0" stop-color="#000000"/><stop offset="1" stop-color="#191919"/></linearGradient><linearGradient x1="240.07698" y1="76.88119" x2="240.07698" y2="197.47784" gradientUnits="userSpaceOnUse" id="color-6"><stop offset="0" stop-color="#000000"/><stop offset="1" stop-color="#191919"/></linearGradient><linearGradient x1="240.31943" y1="67.47066" x2="240.31943" y2="88.80402" gradientUnits="userSpaceOnUse" id="color-7"><stop offset="0" stop-color="#191919"/><stop offset="1" stop-color="#000000"/></linearGradient></defs><g transform="translate(-138.82871,-46.3875)"><g data-paper-data="{&quot;isPaintingLayer&quot;:true}" fill-rule="nonzero" stroke-width="0" stroke-linejoin="miter" stroke-miterlimit="10" stroke-dasharray="" stroke-dashoffset="0" style="mix-blend-mode: normal"><path d="M178.409,313.61252v-267.22501h123.18203v267.22501z" fill-opacity="0.01" fill="#000000" stroke="none" stroke-linecap="butt"/><g stroke="#000000" stroke-linecap="butt"><path d="M221.12672,98.15826l-63.03254,30.44502l-3.18947,-6.60341l63.03254,-30.44501z" fill="url(#color-1)"/><path d="M164.18318,141.20979c-8.78586,4.24361 -19.34834,0.56139 -23.59196,-8.22447c-4.24361,-8.78586 -0.56139,-19.34834 8.22447,-23.59196c8.78586,-4.24361 19.34834,-0.56139 23.59196,8.22447c4.24361,8.78586 0.56139,19.34834 -8.22447,23.59196z" fill="url(#color-2)"/></g><path d="M271.8507,198.54861c-8.51535,1.67202 -9.137,16.15086 -9.137,16.15086l-7.07444,-40.86981l22.42255,-4.36286l8.24957,33.38606c0,0 -4.5732,-6.24568 -14.46068,-4.30424z" data-paper-data="{&quot;index&quot;:null}" fill="#000000" stroke="#000000" stroke-linecap="butt"/><path d="M193.87815,201.98933l8.24957,-33.38606l22.42256,4.36286l-7.07444,40.86981c0,0 -0.62166,-14.47884 -9.13701,-16.15086c-9.88748,-1.94144 -14.46068,4.30424 -14.46068,4.30424z" fill="#000000" stroke="#000000" stroke-linecap="butt"/><g data-paper-data="{&quot;index&quot;:null}" stroke="#000000" stroke-linecap="butt"><path d="M262.04041,91.44247l65.07393,25.79504l-2.70233,6.81726l-65.07393,-25.79502z" fill="url(#color-3)"/><path d="M309.33976,114.13596c3.59547,-9.0704 13.86319,-13.50872 22.93359,-9.91325c9.0704,3.59547 13.50872,13.86319 9.91325,22.93359c-3.59547,9.0704 -13.86319,13.50872 -22.93359,9.91325c-9.0704,-3.59547 -13.50872,-13.86319 -9.91325,-22.93359z" fill="url(#color-4)"/></g><path d="M206.75006,307.50003l15.14285,-131.8421l37.78325,-0.15789l13.57389,132z" fill="url(#color-5)" stroke="#000000" stroke-linecap="butt"/><path d="M175.83996,137.17951c0,-33.30185 28.7599,-60.29833 64.23702,-60.29833c35.47712,0 64.23702,26.99649 64.23702,60.29833c0,33.30185 -28.7599,60.29833 -64.23702,60.29833c-35.47712,0 -64.23702,-26.99649 -64.23702,-60.29833z" fill="url(#color-6)" stroke="#000000" stroke-linecap="butt"/><path d="M189.39019,137.27566c0,-12.968 10.51265,-23.48065 23.48065,-23.48065c12.968,0 23.48065,10.51265 23.48065,23.48065c0,12.968 -10.51265,23.48065 -23.48065,23.48065c-12.968,0 -23.48065,-10.51265 -23.48065,-23.48065z" fill="#777777" stroke="#000000" stroke-linecap="butt"/><path d="M267.12926,160.75628c-12.968,0 -23.48065,-10.51265 -23.48065,-23.48065c0,-12.968 10.51265,-23.48065 23.48065,-23.48065c12.968,0 23.48065,10.51265 23.48065,23.48065c0,12.968 -10.51265,23.48065 -23.48065,23.48065z" data-paper-data="{&quot;index&quot;:null}" fill="#777777" stroke="#000000" stroke-linecap="butt"/><path d="M202.02789,108.46719c0,0 6.70895,-5.16922 11.79722,-6.36355c5.08827,-1.19433 12.33413,0.69937 12.33413,0.69937c0,0 -8.03812,-0.06028 -11.96762,0.86207c-4.10648,0.96388 -12.16372,4.80211 -12.16372,4.80211z" fill="#000000" stroke="none" stroke-linecap="butt"/><path d="M265.96236,103.66509c-3.9295,-0.92235 -11.96762,-0.86207 -11.96762,-0.86207c0,0 7.24586,-1.8937 12.33413,-0.69937c5.08826,1.19433 11.79721,6.36355 11.79721,6.36355c0,0 -8.05724,-3.83822 -12.16372,-4.80211z" data-paper-data="{&quot;index&quot;:null}" fill="#000000" stroke="none" stroke-linecap="butt"/><path d="M217.56943,85.63735l23,-18l-1.33333,11.33334l23.83333,-11.5l-4.83333,21.33333" data-paper-data="{&quot;index&quot;:null}" fill="url(#color-7)" stroke="#000000" stroke-linecap="round"/><path d="M221.95426,173.33282l36.09149,13.33439h-35.68707z" data-paper-data="{&quot;index&quot;:null}" fill="#000000" stroke="none" stroke-linecap="butt"/></g></g></svg>