<svg version="1.1" xmlns="http://www.w3.org/2000/svg" xmlns:xlink="http://www.w3.org/1999/xlink" width="123.18203" height="337.00654" viewBox="0,0,123.18203,337.00654"><g transform="translate(-178.40898,23.39404)"><g data-paper-data="{&quot;isPaintingLayer&quot;:true}" fill-rule="nonzero" stroke-linejoin="miter" stroke-miterlimit="10" stroke-dasharray="" stroke-dashoffset="0" style="mix-blend-mode: normal"><g><g stroke-linecap="round"><path d="M244.28141,148.9717c7.45797,-0.27819 15.23632,3.1203 20.74327,7.94328c3.84798,3.54495 3.58774,9.76416 4.69308,14.80948c1.15462,5.27335 0.74117,10.7774 2.03771,15.85244c0.88321,3.62603 2.72613,6.78974 4.44054,10.00476c1.81802,3.41126 7.36554,6.34824 5.94196,9.92582c-1.75023,4.78827 -7.90685,6.6928 -12.81827,8.20177c-7.67881,2.35799 -15.91793,2.48688 -23.92875,3.06461c-5.56068,0.14533 -11.13618,-0.0922 -16.6108,-0.93366c-5.08646,-0.77687 -10.42665,-1.31764 -14.95112,-3.7309c-1.62057,-0.88083 -2.31676,-3.6525 -1.80139,-5.62662c0.98298,-3.19424 4.48923,-5.17621 5.8799,-8.43944c1.51517,-3.55455 2.11784,-7.46352 2.71926,-11.28445c0.70072,-4.35855 0.81863,-9.07009 1.39173,-13.62371c0.69198,-5.4644 -1.17913,-12.17803 2.45081,-16.38941c4.72649,-5.61265 12.45267,-9.49852 19.81208,-9.77394z" fill="#ffd351" stroke="#000000" stroke-width="2"/><path d="M229.33642,159.98836c2.18733,-3.47186 7.23425,-5.03865 11.44305,-5.72062c1.93789,-0.31201 4.74323,1.70562 4.37772,3.08225c-0.0852,1.50773 -3.54625,1.36986 -5.27901,2.68646c-2.69393,2.07125 -5.55023,4.29676 -7.14428,7.30144c-1.86058,3.5113 -0.73935,8.11551 -3.01945,11.30024c-0.69274,1.20054 -3.92396,0.52059 -3.96696,-0.99592c-0.16823,-5.99561 0.40335,-12.5714 3.58891,-17.65383z" fill="#fff1c8" stroke="none" stroke-width="0.60142"/><path d="M241.2289,150.42744c0,0 -0.45533,-11.29625 2.52794,-11.02487c3.06075,0.27843 3.4817,11.12164 3.4817,11.12164" fill="#ffd351" stroke="#000000" stroke-width="2"/></g><path d="M280.94442,206.26378c0.49021,6.16702 -12.49404,10.28901 -32.01015,11.23842c-19.30713,0.93924 -35.65953,-1.86047 -36.03881,-6.6319c-0.12624,-1.58818 2.13829,-6.79044 5.06172,-7.12321c5.85952,-0.66699 16.27437,4.15659 29.12976,3.13474c14.27331,-1.13456 25.19964,-5.67507 30.35009,-4.98265c1.80273,0.24236 3.39264,2.92074 3.5074,4.36457z" fill="#eac24d" stroke="#dcb749" stroke-width="0" stroke-linecap="butt"/></g><path d="M234.83858,-22.14404l8.75587,161.42203" fill="none" stroke="#000000" stroke-width="2.5" stroke-linecap="round"/><g fill="#000000"><path d="M246.62805,199.02419c-3.40747,0.20598 -7.08741,-9.8173 -7.08741,-9.8173l13.27053,-0.80218c0,0 -2.77566,10.4135 -6.18312,10.61948z" stroke="#000000" stroke-width="2" stroke-linecap="round"/><path d="M227.29507,180.05108c-0.23129,-3.82614 2.68291,-7.11531 6.50905,-7.3466c3.82614,-0.23129 7.11532,2.68292 7.3466,6.50905c0.23129,3.82614 -2.68291,7.11531 -6.50905,7.3466c-3.82614,0.23129 -7.11532,-2.68292 -7.3466,-6.50905z" stroke="none" stroke-width="0" stroke-linecap="butt"/><path d="M257.29033,185.19105c-3.82613,0.23129 -7.11532,-2.68292 -7.3466,-6.50905c-0.23129,-3.82614 2.68292,-7.11532 6.50905,-7.3466c3.82614,-0.23129 7.11532,2.68292 7.3466,6.50905c0.23129,3.82614 -2.68291,7.11531 -6.50905,7.3466z" data-paper-data="{&quot;index&quot;:null}" stroke="none" stroke-width="0" stroke-linecap="butt"/></g><path d="M178.40899,313.61251v-267.22501h123.18203v267.22501z" fill-opacity="0.01" fill="#000000" stroke="none" stroke-width="0" stroke-linecap="butt"/></g></g></svg>