<svg version="1.1" xmlns="http://www.w3.org/2000/svg" xmlns:xlink="http://www.w3.org/1999/xlink" width="166.59034" height="267.22501" viewBox="0,0,166.59034,267.22501"><g transform="translate(-156.30726,-46.38751)"><g data-paper-data="{&quot;isPaintingLayer&quot;:true}" fill-rule="nonzero" stroke-linejoin="miter" stroke-miterlimit="10" stroke-dasharray="" stroke-dashoffset="0" style="mix-blend-mode: normal"><path d="M179.28373,313.61252v-267.22501h123.18203v267.22501z" fill-opacity="0.01" fill="#000000" stroke="none" stroke-width="0" stroke-linecap="butt"/><path d="M206.75005,307.5l15.14285,-131.8421l37.78325,-0.15789l13.57389,132z" fill="#ffd580" stroke="#000000" stroke-width="2" stroke-linecap="butt"/><path d="M219.70027,204.11263l3.12142,-26.32765l35.83075,-0.14203l2.76735,26.1059c0,0 -7.51543,4.19603 -21.55904,4.50964c-12.48458,0.27879 -20.16049,-4.14586 -20.16049,-4.14586z" fill="#d3b06a" stroke="#000000" stroke-width="0" stroke-linecap="butt"/><path d="M175.83995,137.17949c0,-33.30185 28.7599,-60.29833 64.23702,-60.29833c35.47712,0 64.23702,26.99649 64.23702,60.29833c0,33.30185 -28.7599,60.29833 -64.23702,60.29833c-35.47712,0 -64.23702,-26.99649 -64.23702,-60.29833z" fill="#ffd580" stroke="#000000" stroke-width="2" stroke-linecap="butt"/><path d="M176.56304,136.9c0,-0.72799 5.20666,55.91939 63.36046,56.93429c55.56352,0.9697 63.51358,-57.95314 63.51358,-56.93429c0,32.80479 -28.40173,59.39833 -63.43702,59.39833c-35.03529,0 -63.43702,-26.59354 -63.43702,-59.39833z" fill="#d3b06a" stroke="#000000" stroke-width="0" stroke-linecap="butt"/><path d="M189.39018,137.27563c0,-12.968 10.51265,-23.48065 23.48065,-23.48065c12.968,0 23.48065,10.51265 23.48065,23.48065c0,12.968 -10.51265,23.48065 -23.48065,23.48065c-12.968,0 -23.48065,-10.51265 -23.48065,-23.48065z" fill="#ffffff" stroke="#000000" stroke-width="2" stroke-linecap="butt"/><path d="M196.45555,137c0,-9.12808 7.39976,-16.52784 16.52783,-16.52784c9.12808,0 16.52784,7.39977 16.52784,16.52784c0,9.12808 -7.39977,16.52784 -16.52784,16.52784c-9.12808,0 -16.52783,-7.39977 -16.52783,-16.52784z" fill="#000000" stroke="none" stroke-width="0" stroke-linecap="butt"/><path d="M227.50704,176.65643h25.10959" fill="none" stroke="#000000" stroke-width="2" stroke-linecap="round"/><path d="M267.12926,160.75627c-12.968,0 -23.48065,-10.51265 -23.48065,-23.48065c0,-12.968 10.51265,-23.48065 23.48065,-23.48065c12.968,0 23.48065,10.51265 23.48065,23.48065c0,12.968 -10.51265,23.48065 -23.48065,23.48065z" data-paper-data="{&quot;index&quot;:null}" fill="#000000" stroke="#000000" stroke-width="2" stroke-linecap="butt"/><path d="M267.01669,153.52784c-9.12807,0 -16.52783,-7.39977 -16.52783,-16.52784c0,-9.12808 7.39977,-16.52784 16.52783,-16.52784c9.12807,0 16.52783,7.39977 16.52783,16.52784c0,9.12808 -7.39977,16.52784 -16.52783,16.52784z" data-paper-data="{&quot;index&quot;:null}" fill="#ffbf00" stroke="none" stroke-width="0" stroke-linecap="butt"/><path d="M243.64862,137.27563c0,-12.968 10.51265,-23.48065 23.48065,-23.48065c12.968,0 23.48065,10.51265 23.48065,23.48065c0,1.2138 -46.96131,0 -46.96131,0z" data-paper-data="{&quot;index&quot;:null}" fill="#ffd580" stroke="#000000" stroke-width="2" stroke-linecap="butt"/><path d="M202.02785,108.46716c0,0 6.70895,-5.16922 11.79722,-6.36355c5.08827,-1.19433 12.33413,0.69937 12.33413,0.69937c0,0 -8.03812,-0.06028 -11.96762,0.86207c-4.10648,0.96388 -12.16372,4.80211 -12.16372,4.80211z" fill="#000000" stroke="none" stroke-width="0" stroke-linecap="butt"/><path d="M265.96236,103.66506c-3.9295,-0.92235 -11.96762,-0.86207 -11.96762,-0.86207c0,0 7.24586,-1.8937 12.33413,-0.69937c5.08826,1.19433 11.79721,6.36355 11.79721,6.36355c0,0 -8.05724,-3.83822 -12.16372,-4.80211z" data-paper-data="{&quot;index&quot;:null}" fill="#000000" stroke="none" stroke-width="0" stroke-linecap="butt"/><path d="M291.24899,136.48061l4.74338,-5.09362" fill="none" stroke="#000000" stroke-width="2" stroke-linecap="round"/><path d="M189.12523,138.27195l-5.78415,-6.13441" fill="none" stroke="#000000" stroke-width="2" stroke-linecap="round"/><path d="M213.78699,86.77824l23,-18l-1.33333,11.33334l23.83333,-11.5l-4.83333,21.33333" data-paper-data="{&quot;index&quot;:null}" fill="#ffd580" stroke="#000000" stroke-width="2" stroke-linecap="round"/><g stroke="#000000" stroke-width="2" stroke-linecap="butt"><path d="M173.77082,121.80206l-7.38022,3c0,0 -0.61983,-76.56595 73.48132,-76.66666c73.73495,-0.10021 72.51868,77.33333 72.51868,77.33333l-8.66374,-4c0,0 0.0045,-64.86172 -63.85494,-66.33334c-61.84366,-1.42516 -66.1011,66.66667 -66.1011,66.66667z" fill="#fff2d7"/><path d="M157.30726,137.98725c0,-12.51846 9.08054,-22.66667 20.28196,-22.66667c1.01424,0 1.18635,45.33333 0,45.33333c-11.20142,0 -20.28196,-10.14821 -20.28196,-22.66666z" fill="#ffd580"/><path d="M172.37789,161.98725v-48.33334h10.14098v48.33334z" fill="#fff2d7"/><path d="M301.61563,160.65391c-1.18635,0 -1.01423,-45.33333 0,-45.33333c11.20142,0 20.28197,10.14821 20.28197,22.66667c0,12.51845 -9.08055,22.66666 -20.28197,22.66666z" data-paper-data="{&quot;index&quot;:null}" fill="#ffd580"/><path d="M296.32348,161.98725v-48.33334h10.14098v48.33334z" fill="#fff2d7"/></g><path d="M189.52872,137.18728c0,-12.96801 10.51265,-23.48065 23.48066,-23.48065c12.96801,0 23.48065,10.51264 23.48065,23.48065c0,0 -4.90806,22.46511 -23.43307,22.26121c-19.92475,-0.21931 -23.52823,-21.6446 -23.52823,-22.26121z" fill="#ffd580" stroke="#000000" stroke-width="2" stroke-linecap="butt"/><g stroke="#000000" stroke-width="2" stroke-linecap="butt"><path d="M229.55192,138.93084c0,0 18.1527,-10.99499 25.15239,-17.56549c6.37139,-5.98073 15.13839,-20.25485 15.13839,-20.25485c0,0 8.05088,16.49816 14.65614,22.69841c6.81824,6.40018 25.63463,15.12194 25.63463,15.12194c0,0 -16.42969,8.25825 -22.99867,14.42445c-6.84954,6.42956 -17.29209,23.39589 -17.29209,23.39589c0,0 -8.50254,-16.7124 -15.13028,-22.93376c-6.79819,-6.38136 -25.1605,-14.88658 -25.1605,-14.88658z" fill="#ff6f00"/><path d="M241.35281,167.42072c0,0 5.06126,-20.61053 5.36474,-30.20611c0.27624,-8.73426 -3.61789,-25.0268 -3.61789,-25.0268c0,0 17.3588,5.97313 26.41366,5.68675c9.34684,-0.29561 28.81924,-7.4336 28.81924,-7.4336c0,0 -5.77809,17.45701 -6.06289,26.46215c-0.29697,9.38974 4.31604,28.77075 4.31604,28.77075c0,0 -17.82965,-5.80525 -26.91533,-5.5179c-9.31935,0.29475 -28.31757,7.26476 -28.31757,7.26476z" fill="#ff6f00"/><path d="M242.71339,138.93084c0,-13.95579 12.05239,-25.26918 26.91977,-25.26918c14.86737,0 26.91976,11.3134 26.91976,25.26918c0,13.95578 -12.05239,25.26918 -26.91976,25.26918c-14.86737,0 -26.91977,-11.3134 -26.91977,-25.26918z" fill="#ffe900"/></g></g></g></svg>