<svg version="1.1" xmlns="http://www.w3.org/2000/svg" xmlns:xlink="http://www.w3.org/1999/xlink" width="166.86714" height="83.89182" viewBox="0,0,166.86714,83.89182"><g transform="translate(-152.27366,-110.94832)"><g data-paper-data="{&quot;isPaintingLayer&quot;:true}" fill-rule="nonzero" stroke-linejoin="miter" stroke-miterlimit="10" stroke-dasharray="" stroke-dashoffset="0" style="mix-blend-mode: normal"><g><path d="M189.0454,121.54418c7.4619,0.13758 15.03889,3.964 20.2687,9.08618c3.64456,3.75375 3.03839,9.94882 3.86102,15.04785c0.85914,5.32947 0.1398,10.80195 1.1517,15.94131c0.67989,3.6696 2.34377,6.93102 3.87646,10.23654c1.62522,3.50722 7.00056,6.74859 5.37995,10.24135c-2.01417,4.68336 -8.26731,6.24206 -13.25515,7.47516c-7.79821,1.92669 -16.03172,1.59652 -24.06228,1.72722c-5.56014,-0.16459 -11.11376,-0.71227 -16.53302,-1.85731c-5.0353,-1.05894 -10.3371,-1.89628 -14.72013,-4.55777c-1.56901,-0.96971 -2.10976,-3.77586 -1.48524,-5.71821c1.15935,-3.13454 4.77053,-4.91816 6.34078,-8.09887c1.71078,-3.46465 2.53022,-7.334 3.34349,-11.1155c0.94237,-4.31276 1.32249,-9.01042 2.1483,-13.52505c0.99523,-5.41738 -0.49908,-12.22481 3.35977,-16.22749c5.03173,-5.3407 12.96233,-8.79027 20.32567,-8.65539z" fill="#ffd351" stroke="#000000" stroke-width="2" stroke-linecap="round"/><path d="M188.85883,172.65288c9.20883,0.0295 17.5504,0.99985 23.58788,2.54322c6.03752,1.54398 9.77091,3.66087 9.7635,5.98354c-0.00743,2.32257 -3.75438,4.4156 -9.80165,5.92082c-6.04721,1.50458 -14.39483,2.42146 -23.60366,2.39196c-9.20883,-0.0295 -17.5504,-0.99985 -23.58797,-2.5432c-6.03742,-1.544 -9.77091,-3.66087 -9.7635,-5.98354c0.00751,-2.32269 3.75438,-4.4156 9.80165,-5.92082c6.04731,-1.5046 14.39493,-2.42148 23.60375,-2.39198z" fill="#eac24d" stroke="#736026" stroke-width="0" stroke-linecap="butt"/><path d="M188.87482,174.76912c0.74694,0.00242 1.4216,0.59394 1.90811,1.5481c0.48704,0.95425 0.78601,2.27114 0.78134,3.72293c-0.00467,1.45178 -0.31203,2.76668 -0.80519,3.71783c-0.49257,0.95101 -1.17105,1.53819 -1.91806,1.53589c-0.74694,-0.00242 -1.4216,-0.59394 -1.90814,-1.5482c-0.48711,-0.95413 -0.78599,-2.27104 -0.78132,-3.72283c0.00465,-1.45188 0.31202,-2.76678 0.80519,-3.71783c0.49254,-0.95111 1.17103,-1.53828 1.91806,-1.53589z" fill="#ffd351" stroke="none" stroke-width="0.60142" stroke-linecap="butt"/><path d="M173.51006,131.71141c2.37729,-3.34466 7.50365,-4.62793 11.7439,-5.07445c1.95226,-0.2036 4.64087,1.96712 4.19927,3.32127c-0.16903,1.50065 -3.61704,1.17025 -5.42044,2.3883c-2.80511,1.91801 -5.78092,3.98098 -7.53982,6.89222c-2.05325,3.40224 -1.19017,8.06175 -3.64409,11.11454c-0.75853,1.16009 -3.94687,0.30125 -3.90535,-1.21532c0.16594,-5.99569 1.10285,-12.52943 4.56652,-17.42655z" fill="#fff1c8" stroke="none" stroke-width="0.60142" stroke-linecap="round"/><path d="M185.91655,122.82764c0,0 0.17449,-11.30408 3.13802,-10.86697c3.0405,0.44846 2.8569,11.29829 2.8569,11.29829" fill="#ffd351" stroke="#000000" stroke-width="2" stroke-linecap="round"/></g><g><g stroke-linecap="round"><path d="M282.78119,124.06247c7.46283,0.07181 15.07326,3.83126 20.348,8.90714c3.67753,3.72148 3.12597,9.92165 3.99353,15.01324c0.9061,5.32169 0.23502,10.8003 1.29218,15.93055c0.71222,3.66346 2.40477,6.91008 3.96654,10.20196c1.65608,3.49275 7.05978,6.68662 5.47004,10.19351c-1.97281,4.70094 -8.21196,6.31471 -13.18874,7.59173c-7.78092,1.99536 -16.01702,1.73779 -24.04612,1.93927c-5.56138,-0.11557 -11.11961,-0.61426 -16.54875,-1.71148c-5.04444,-1.01451 -10.3534,-1.80507 -14.75974,-4.42782c-1.57749,-0.95584 -2.14296,-3.75711 -1.53559,-5.7049c1.13168,-3.14464 4.72699,-4.96002 6.26914,-8.15446c1.68018,-3.47959 2.46547,-7.35602 3.24537,-11.14455c0.90431,-4.3209 1.24301,-9.02174 2.02898,-13.54347c0.94743,-5.42595 -0.60683,-12.21992 3.21659,-16.25648c4.98446,-5.38486 12.88433,-8.90419 20.24858,-8.83424z" fill="#ffd351" stroke="#000000" stroke-width="2"/><path d="M267.3361,134.36627c2.34771,-3.36549 7.46256,-4.6939 11.69871,-5.17779c1.95039,-0.22081 4.65803,1.92614 4.22839,3.28412c-0.15579,1.50208 -3.6066,1.20208 -5.39917,2.43599c-2.78808,1.94266 -5.7456,4.03179 -7.47877,6.95842c-2.02317,3.4202 -1.11906,8.07193 -3.54596,11.14623c-0.74827,1.16673 -3.94406,0.33603 -3.91591,-1.18084c0.11308,-5.99691 0.99235,-12.53866 4.41271,-17.46613z" fill="#fff1c8" stroke="none" stroke-width="0.60142"/><path d="M279.66379,125.37347c0,0 0.07483,-11.30517 3.04209,-10.89422c3.04433,0.42163 2.95639,11.27266 2.95639,11.27266" fill="#ffd351" stroke="#000000" stroke-width="2"/></g><path d="M316.71758,183.01058c0.2005,6.18322 -12.96273,9.69188 -32.50188,9.72517c-19.32994,0.03292 -35.53309,-3.53043 -35.68822,-8.31438c-0.05164,-1.59235 2.45432,-6.6827 5.39013,-6.87804c5.88434,-0.39152 16.06158,4.91509 28.95074,4.49713c14.31081,-0.46406 25.43802,-4.48727 30.55033,-3.55411c1.78939,0.32662 3.25195,3.0766 3.29889,4.52423z" fill="#eac24d" stroke="#dcb749" stroke-width="0" stroke-linecap="butt"/></g></g></g></svg>