<svg version="1.1" xmlns="http://www.w3.org/2000/svg" xmlns:xlink="http://www.w3.org/1999/xlink" width="76.01331" height="78.46552" viewBox="0,0,76.01331,78.46552"><defs><radialGradient cx="250.54647" cy="206.19544" r="8.99875" gradientUnits="userSpaceOnUse" id="color-1"><stop offset="0" stop-color="#e88500"/><stop offset="1" stop-color="#e7b500"/></radialGradient></defs><g transform="translate(-230.00444,-149.8519)"><g data-paper-data="{&quot;isPaintingLayer&quot;:true}" fill-rule="nonzero" stroke="#000000" stroke-linecap="butt" stroke-linejoin="miter" stroke-miterlimit="10" stroke-dasharray="" stroke-dashoffset="0" style="mix-blend-mode: normal"><g stroke-width="2"><path d="M265.7203,159.42475c-9.78289,0 -17.71349,-2.26747 -17.71349,-5.06451c0,-2.79704 8.03947,-3.50833 17.82236,-3.50833c9.78289,0 17.60461,0.71129 17.60461,3.50833c0,2.79704 -7.9306,5.06451 -17.71349,5.06451z" data-paper-data="{&quot;index&quot;:null}" fill="#a98500"/><g><path d="M266.19009,168.89191c-15.28722,0 -27.67995,-3.54324 -27.67995,-7.91404c0,-4.3708 12.56286,-5.4823 27.85008,-5.4823c15.28722,0 27.50982,1.1115 27.50982,5.4823c0,4.3708 -12.39273,7.91404 -27.67995,7.91404z" data-paper-data="{&quot;index&quot;:null}" fill="#886b00"/><path d="M266.81689,177.1715c-16.8734,0 -30.55199,-3.54324 -30.55199,-7.91404c0,-4.3708 13.86638,-5.4823 30.73978,-5.4823c16.87341,0 30.36421,1.1115 30.36421,5.4823c0,4.3708 -13.6786,7.91404 -30.552,7.91404z" data-paper-data="{&quot;index&quot;:null}" fill="#a98500"/><path d="M267.5952,187.39702c-18.51692,0 -33.52784,-4.29182 -33.52784,-9.58603c0,-5.29421 15.21699,-6.64053 33.73391,-6.64053c18.51692,0 33.32176,1.34633 33.32176,6.64054c0,5.29421 -15.01092,9.58603 -33.52783,9.58603z" data-paper-data="{&quot;index&quot;:null}" fill="#886b00"/></g><path d="M283.71767,223.80908c0,2.79704 -7.82173,3.50834 -17.60462,3.50834c-9.78289,0 -17.82236,-0.7113 -17.82236,-3.50834c0,-2.79704 7.9306,-5.06451 17.71349,-5.06451c9.78289,0 17.71349,2.26747 17.71349,5.06451z" fill="#a98500"/><path d="M293.56683,216.46484c0,4.3708 -12.2226,5.48231 -27.50981,5.48231c-15.28722,0 -27.85009,-1.11151 -27.85009,-5.48231c0,-4.3708 12.39274,-7.91404 27.67995,-7.91404c15.28722,0 27.67995,3.54324 27.67995,7.91404z" fill="#886b00"/><path d="M297.06568,208.18525c0,4.3708 -13.49081,5.4823 -30.36421,5.4823c-16.87341,0 -30.73978,-1.1115 -30.73978,-5.4823c0,-4.3708 13.67858,-7.91404 30.55199,-7.91404c16.87341,0 30.552,3.54324 30.552,7.91404z" fill="#a98500"/><path d="M300.81983,199.63171c0,5.29421 -14.80484,6.64054 -33.32175,6.64054c-18.51692,0 -33.73391,-1.34633 -33.73391,-6.64053c0,-5.29421 15.01091,-9.58603 33.52783,-9.58603c18.51692,0 33.52783,4.29182 33.52783,9.58603z" fill="#886b00"/><path d="M305.01775,189.6029c0,5.29421 -16.34098,6.64054 -36.7792,6.64054c-20.43821,0 -37.23411,-1.34633 -37.23411,-6.64053c0,-5.29421 16.56843,-9.58602 37.00665,-9.58602c20.43822,0 37.00666,4.29181 37.00666,9.58602z" fill="#a98500"/></g><g><path d="M259.07534,190.19039c0,5.61529 -3.56042,10.16737 -7.95242,10.16737c-4.392,0 -7.95242,-4.55209 -7.95242,-10.16737c0,-5.61529 3.56042,-10.16737 7.95242,-10.16737c4.392,0 7.95242,4.55209 7.95242,10.16737z" fill="#000000" stroke-width="2"/><path d="M255.88304,215.08407c0,1.48363 0.5347,-12.51466 -4.06456,-12.51466c-4.59926,0 -8.3277,-1.20272 -8.3277,-2.68636c0,-1.48363 3.72844,-2.68636 8.3277,-2.68636c1.1051,0 4.57568,1.79765 5.16661,3.2572c1.86845,4.61491 -1.10205,13.50302 -1.10205,14.63017z" fill="url(#color-1)" stroke-width="0"/></g></g></g></svg>