<svg version="1.1" xmlns="http://www.w3.org/2000/svg" xmlns:xlink="http://www.w3.org/1999/xlink" width="233.35964" height="281.24296" viewBox="0,0,233.35964,281.24296"><g transform="translate(-123.32018,-35.14046)"><g data-paper-data="{&quot;isPaintingLayer&quot;:true}" fill-rule="nonzero" stroke-linecap="butt" stroke-linejoin="miter" stroke-miterlimit="10" stroke-dasharray="" stroke-dashoffset="0" style="mix-blend-mode: normal"><path d="M175.46118,316.38342v-267.22501h123.18203v267.22501z" fill-opacity="0.01" fill="#000000" stroke="none" stroke-width="0"/><path d="M283.06771,98.22932c-2.72834,7.76528 -10.89597,11.96768 -18.2429,9.38633c-7.34693,-2.58135 -11.09102,-10.96896 -8.36268,-18.73425c2.72834,-7.76529 32.60562,-50.26482 32.60562,-50.26482c0,0 -3.2717,51.84746 -6.00004,59.61273z" data-paper-data="{&quot;index&quot;:null}" fill="#946300" stroke="#000000" stroke-width="2"/><path d="M193.04469,100.59443c-2.72835,-7.76527 -6.00004,-59.61273 -6.00004,-59.61273c0,0 29.87728,42.49954 32.60562,50.26482c2.72834,7.76528 -1.01575,16.1529 -8.36268,18.73425c-7.34693,2.58135 -15.51455,-1.62106 -18.2429,-9.38633z" fill="#946300" stroke="#000000" stroke-width="2"/><g data-paper-data="{&quot;index&quot;:null}" stroke="#000000" stroke-width="2"><path d="M273.41513,131.60694l62.99521,-30.52219l3.19754,6.59949l-62.9952,30.5222z" fill="#ffdf9e"/><path d="M330.3059,88.4857c8.78065,-4.25437 19.34764,-0.58508 23.60201,8.19556c4.25437,8.78065 0.58509,19.34764 -8.19557,23.60201c-8.78066,4.25437 -19.34765,0.58509 -23.60202,-8.19557c-4.25437,-8.78066 -0.58509,-19.34765 8.19557,-23.60202z" fill="#ffa800"/></g><g data-paper-data="{&quot;index&quot;:null}" stroke="#000000" stroke-width="2"><path d="M198.39504,142.80524l-58.42573,-38.5543l4.039,-6.12079l58.42573,38.5543z" fill="#ffdf9e"/><path d="M151.71918,86.44498c8.14374,5.37396 10.38909,16.3322 5.01517,24.47592c-5.37394,8.14373 -16.33221,10.3891 -24.47593,5.01517c-8.14373,-5.37394 -10.38909,-16.3322 -5.01517,-24.47592c5.37393,-8.14372 16.33219,-10.38908 24.47591,-5.01516z" fill="#ffa800"/></g><path d="M206.75007,307.50001l15.14285,-131.8421l37.78325,-0.15789l13.57389,132z" fill="#ffa800" stroke="#000000" stroke-width="2"/><path d="M219.7003,204.11264l3.12142,-26.32765l35.83075,-0.14203l2.76735,26.1059c0,0 -7.51543,4.19603 -21.55904,4.50964c-12.48458,0.27879 -20.16049,-4.14586 -20.16049,-4.14586z" fill="#c88500" stroke="#000000" stroke-width="0"/><path d="M174.18544,140.94533c0,-33.30185 28.7599,-60.29833 64.23702,-60.29833c35.47712,0 64.23702,26.99649 64.23702,60.29833c0,33.30185 -28.7599,60.29833 -64.23702,60.29833c-35.47712,0 -64.23702,-26.99649 -64.23702,-60.29833z" fill="#ffa800" stroke="#000000" stroke-width="2"/><path d="M174.7824,140.87987c0,-0.72799 5.20666,55.91939 63.36046,56.93429c55.56352,0.9697 63.51358,-57.95314 63.51358,-56.93429c0,32.80479 -28.40173,59.39833 -63.43702,59.39833c-35.03529,0 -63.43702,-26.59354 -63.43702,-59.39833z" fill="#c88500" stroke="#000000" stroke-width="0"/><path d="M187.59631,141.04148c0,-12.968 10.51265,-23.48065 23.48065,-23.48065c12.968,0 23.48065,10.51265 23.48065,23.48065c0,12.968 -10.51265,23.48065 -23.48065,23.48065c-12.968,0 -23.48065,-10.51265 -23.48065,-23.48065z" fill="#ffffff" stroke="#000000" stroke-width="2"/><path d="M193.69302,135.86625c0,-9.12808 7.39976,-16.52784 16.52783,-16.52784c9.12808,0 16.52784,7.39977 16.52784,16.52784c0,9.12808 -7.39977,16.52784 -16.52784,16.52784c-9.12808,0 -16.52783,-7.39977 -16.52783,-16.52784z" fill="#000000" stroke="none" stroke-width="0"/><path d="M265.33539,164.52212c-12.968,0 -23.48065,-10.51265 -23.48065,-23.48065c0,-12.968 10.51265,-23.48065 23.48065,-23.48065c12.968,0 23.48065,10.51265 23.48065,23.48065c0,12.968 -10.51265,23.48065 -23.48065,23.48065z" data-paper-data="{&quot;index&quot;:null}" fill="#ffffff" stroke="#000000" stroke-width="2"/><path d="M264.84695,152.81617c-9.12807,0 -16.52783,-7.39977 -16.52783,-16.52784c0,-9.12808 7.39977,-16.52784 16.52783,-16.52784c9.12807,0 16.52783,7.39977 16.52783,16.52784c0,9.12808 -7.39977,16.52784 -16.52783,16.52784z" data-paper-data="{&quot;index&quot;:null}" fill="#000000" stroke="none" stroke-width="0"/><path d="M200.23398,112.23302c0,0 6.70895,-5.16922 11.79722,-6.36355c5.08827,-1.19433 12.33413,0.69937 12.33413,0.69937c0,0 -8.03812,-0.06028 -11.96762,0.86207c-4.10648,0.96388 -12.16372,4.80211 -12.16372,4.80211z" fill="#000000" stroke="none" stroke-width="0"/><path d="M264.16848,107.43091c-3.9295,-0.92235 -11.96762,-0.86207 -11.96762,-0.86207c0,0 7.24586,-1.8937 12.33413,-0.69937c5.08826,1.19433 11.79721,6.36355 11.79721,6.36355c0,0 -8.05724,-3.83822 -12.16372,-4.80211z" data-paper-data="{&quot;index&quot;:null}" fill="#000000" stroke="none" stroke-width="0"/><path d="M226.45091,167.76429h27.09818l-13.12831,23.97142z" fill="#000000" stroke="none" stroke-width="0"/></g></g></svg>