<svg version="1.1" xmlns="http://www.w3.org/2000/svg" xmlns:xlink="http://www.w3.org/1999/xlink" width="194.76219" height="267.22501" viewBox="0,0,194.76219,267.22501"><defs><linearGradient x1="305.48756" y1="94.36688" x2="305.48756" y2="161.28787" gradientUnits="userSpaceOnUse" id="color-1"><stop offset="0" stop-color="#4b4650"/><stop offset="1" stop-color="#8c8395"/></linearGradient><linearGradient x1="319.73788" y1="78.18868" x2="319.73788" y2="113.5308" gradientUnits="userSpaceOnUse" id="color-2"><stop offset="0" stop-color="#291b44"/><stop offset="1" stop-color="#573a90"/></linearGradient><linearGradient x1="174.56814" y1="97.0324" x2="174.56814" y2="163.95339" gradientUnits="userSpaceOnUse" id="color-3"><stop offset="0" stop-color="#4b4650"/><stop offset="1" stop-color="#8c8395"/></linearGradient><linearGradient x1="160.31781" y1="80.85421" x2="160.31781" y2="116.19634" gradientUnits="userSpaceOnUse" id="color-4"><stop offset="0" stop-color="#291b44"/><stop offset="1" stop-color="#573a90"/></linearGradient><linearGradient x1="240.00005" y1="175.50002" x2="240.00005" y2="307.50002" gradientUnits="userSpaceOnUse" id="color-5"><stop offset="0" stop-color="#291b44"/><stop offset="1" stop-color="#573a90"/></linearGradient><linearGradient x1="240.07699" y1="76.88117" x2="240.07699" y2="197.47783" gradientUnits="userSpaceOnUse" id="color-6"><stop offset="0" stop-color="#291b44"/><stop offset="1" stop-color="#573a90"/></linearGradient></defs><g transform="translate(-142.64675,-46.3875)"><g data-paper-data="{&quot;isPaintingLayer&quot;:true}" fill-rule="nonzero" stroke-linejoin="miter" stroke-miterlimit="10" stroke-dasharray="" stroke-dashoffset="0" style="mix-blend-mode: normal"><g data-paper-data="{&quot;index&quot;:null}" stroke="#000000" stroke-width="0" stroke-linecap="butt"><path d="M287.88825,158.3021l28.50065,-63.93522l6.69796,2.98576l-28.50064,63.93523z" fill="url(#color-1)"/><path d="M312.54486,111.99579c-8.91168,-3.97259 -12.9156,-14.41738 -8.94302,-23.32906c3.9726,-8.91168 14.41738,-12.9156 23.32906,-8.94302c8.91167,3.97259 12.9156,14.41738 8.94301,23.32905c-3.97259,8.91169 -14.41737,12.91561 -23.32905,8.94302z" fill="url(#color-2)"/></g><g stroke="#000000" stroke-width="0" stroke-linecap="butt"><path d="M185.46947,163.95339l-28.50064,-63.93523l6.69797,-2.98576l28.50064,63.93523z" fill="url(#color-3)"/><path d="M144.18178,105.71829c-3.97259,-8.91168 0.03134,-19.35646 8.94301,-23.32905c8.91168,-3.97259 19.35646,0.03133 23.32905,8.94302c3.97259,8.91168 -0.03133,19.35647 -8.94302,23.32906c-8.91168,3.97259 -19.35645,-0.03133 -23.32905,-8.94302z" fill="url(#color-4)"/></g><path d="M178.40899,313.61251v-267.22501h123.18203v267.22501z" fill-opacity="0.01" fill="#000000" stroke="none" stroke-width="0" stroke-linecap="butt"/><path d="M206.75006,307.50001l15.14285,-131.8421l37.78325,-0.15789l13.57389,132z" fill="url(#color-5)" stroke="#000000" stroke-width="0" stroke-linecap="butt"/><path d="M175.83997,137.1795c0,-33.30185 28.7599,-60.29833 64.23702,-60.29833c35.47712,0 64.23702,26.99649 64.23702,60.29833c0,33.30185 -28.7599,60.29833 -64.23702,60.29833c-35.47712,0 -64.23702,-26.99649 -64.23702,-60.29833z" fill="url(#color-6)" stroke="#000000" stroke-width="0" stroke-linecap="butt"/><path d="M189.39018,137.27564c0,-12.968 10.51265,-23.48065 23.48065,-23.48065c12.968,0 23.48065,10.51265 23.48065,23.48065c0,12.968 -10.51265,23.48065 -23.48065,23.48065c-12.968,0 -23.48065,-10.51265 -23.48065,-23.48065z" fill="#909090" stroke="#000000" stroke-width="0" stroke-linecap="butt"/><path d="M196.45557,137c0,-9.12808 7.39976,-16.52784 16.52783,-16.52784c9.12808,0 16.52784,7.39977 16.52784,16.52784c0,9.12808 -7.39977,16.52784 -16.52784,16.52784c-9.12808,0 -16.52783,-7.39977 -16.52783,-16.52784z" fill="#000000" stroke="none" stroke-width="0" stroke-linecap="butt"/><path d="M252.61665,176.65644h-25.10959" fill="none" stroke="#000000" stroke-width="2" stroke-linecap="round"/><path d="M267.12926,160.75627c-12.968,0 -23.48065,-10.51265 -23.48065,-23.48065c0,-12.968 10.51265,-23.48065 23.48065,-23.48065c12.968,0 23.48065,10.51265 23.48065,23.48065c0,12.968 -10.51265,23.48065 -23.48065,23.48065z" data-paper-data="{&quot;index&quot;:null}" fill="#909090" stroke="#000000" stroke-width="0" stroke-linecap="butt"/><path d="M267.01671,153.52785c-9.12807,0 -16.52783,-7.39977 -16.52783,-16.52784c0,-9.12808 7.39977,-16.52784 16.52783,-16.52784c9.12807,0 16.52783,7.39977 16.52783,16.52784c0,9.12808 -7.39977,16.52784 -16.52783,16.52784z" data-paper-data="{&quot;index&quot;:null}" fill="#000000" stroke="none" stroke-width="0" stroke-linecap="butt"/><path d="M202.02785,108.46717c0,0 6.70895,-5.16922 11.79722,-6.36355c5.08827,-1.19433 12.33413,0.69937 12.33413,0.69937c0,0 -8.03812,-0.06028 -11.96762,0.86207c-4.10648,0.96388 -12.16372,4.80211 -12.16372,4.80211z" fill="#000000" stroke="none" stroke-width="0" stroke-linecap="butt"/><path d="M265.96236,103.66507c-3.9295,-0.92235 -11.96762,-0.86207 -11.96762,-0.86207c0,0 7.24586,-1.8937 12.33413,-0.69937c5.08826,1.19433 11.79721,6.36355 11.79721,6.36355c0,0 -8.05724,-3.83822 -12.16372,-4.80211z" data-paper-data="{&quot;index&quot;:null}" fill="#000000" stroke="none" stroke-width="0" stroke-linecap="butt"/><path d="M254.37226,83.75761l14.5,15.5l-22.5,-6l3.25,13.75l-33.25,-19.5" data-paper-data="{&quot;index&quot;:null}" fill="none" stroke="#000000" stroke-width="1" stroke-linecap="round"/></g></g></svg>