<svg version="1.1" xmlns="http://www.w3.org/2000/svg" xmlns:xlink="http://www.w3.org/1999/xlink" width="341.69979" height="364.16588" viewBox="0,0,341.69979,364.16588"><defs><linearGradient x1="142.8596" y1="115.93345" x2="172.97607" y2="151.96624" gradientUnits="userSpaceOnUse" id="color-1"><stop offset="0" stop-color="#999999"/><stop offset="1" stop-color="#b58989"/></linearGradient><linearGradient x1="163.41089" y1="181.57611" x2="248.063" y2="282.85799" gradientUnits="userSpaceOnUse" id="color-2"><stop offset="0" stop-color="#392500"/><stop offset="1" stop-color="#6a4800"/></linearGradient><linearGradient x1="174.07892" y1="193.26636" x2="194.38688" y2="217.56377" gradientUnits="userSpaceOnUse" id="color-3"><stop offset="0" stop-color="#1a0000"/><stop offset="1" stop-color="#800000"/></linearGradient><linearGradient x1="90.22682" y1="98.82846" x2="99.82667" y2="110.3142" gradientUnits="userSpaceOnUse" id="color-4"><stop offset="0" stop-color="#2c2300"/><stop offset="1" stop-color="#6b5400"/></linearGradient><linearGradient x1="96.09471" y1="104.49171" x2="111.09591" y2="122.43987" gradientUnits="userSpaceOnUse" id="color-5"><stop offset="0" stop-color="#634e00"/><stop offset="1" stop-color="#070600"/></linearGradient><linearGradient x1="106.25734" y1="114.83971" x2="121.25853" y2="132.78786" gradientUnits="userSpaceOnUse" id="color-6"><stop offset="0" stop-color="#2c2300"/><stop offset="1" stop-color="#6b5400"/></linearGradient><linearGradient x1="115.64514" y1="123.82293" x2="133.81561" y2="145.56295" gradientUnits="userSpaceOnUse" id="color-7"><stop offset="0" stop-color="#634e00"/><stop offset="1" stop-color="#070600"/></linearGradient><linearGradient x1="166.65649" y1="189.45242" x2="176.25634" y2="200.93815" gradientUnits="userSpaceOnUse" id="color-8"><stop offset="0" stop-color="#2c2300"/><stop offset="1" stop-color="#6b5400"/></linearGradient><linearGradient x1="155.07477" y1="175.93436" x2="170.07598" y2="193.88254" gradientUnits="userSpaceOnUse" id="color-9"><stop offset="0" stop-color="#000000"/><stop offset="1" stop-color="#493900"/></linearGradient><linearGradient x1="146.69445" y1="164.0967" x2="161.69565" y2="182.04487" gradientUnits="userSpaceOnUse" id="color-10"><stop offset="0" stop-color="#2c2300"/><stop offset="1" stop-color="#6b5400"/></linearGradient><linearGradient x1="136.3505" y1="149.47188" x2="154.52097" y2="171.21191" gradientUnits="userSpaceOnUse" id="color-11"><stop offset="0" stop-color="#000000"/><stop offset="1" stop-color="#493900"/></linearGradient><linearGradient x1="126.14264" y1="135.18097" x2="144.3131" y2="156.92099" gradientUnits="userSpaceOnUse" id="color-12"><stop offset="0" stop-color="#2c2300"/><stop offset="1" stop-color="#6b5400"/></linearGradient><linearGradient x1="126.14264" y1="135.18097" x2="144.3131" y2="156.92099" gradientUnits="userSpaceOnUse" id="color-13"><stop offset="0" stop-color="#2c2300"/><stop offset="1" stop-color="#6b5400"/></linearGradient><linearGradient x1="164.13071" y1="141.08525" x2="183.36738" y2="164.10092" gradientUnits="userSpaceOnUse" id="color-14"><stop offset="0" stop-color="#1a0000"/><stop offset="1" stop-color="#800000"/></linearGradient></defs><g transform="translate(-62.01869,2.08294)"><g data-paper-data="{&quot;isPaintingLayer&quot;:true}" fill-rule="nonzero" stroke-linejoin="miter" stroke-miterlimit="10" stroke-dasharray="" stroke-dashoffset="0" style="mix-blend-mode: normal"><path d="M172.97607,151.96624c-9.95017,8.31643 -24.7582,6.99201 -33.07462,-2.95817c-8.31643,-9.95018 -6.99201,-24.7582 2.95817,-33.07462c9.95017,-8.31643 24.7582,-6.99202 33.07462,2.95817c8.31643,9.95018 6.99201,24.7582 -2.95817,33.07462z" data-paper-data="{&quot;index&quot;:null}" fill="url(#color-1)" stroke="#000000" stroke-width="0" stroke-linecap="butt"/><path d="M167.60946,147.80603c-7.00385,5.85387 -17.42708,4.92161 -23.28096,-2.08223c-5.85386,-7.00386 -4.92163,-17.42709 2.08222,-23.28096c7.00385,-5.85387 17.42709,-4.92161 23.28096,2.08223c5.85387,7.00386 4.92162,17.4271 -2.08222,23.28096z" data-paper-data="{&quot;index&quot;:null}" fill="#000000" stroke="none" stroke-width="0" stroke-linecap="butt"/><path d="M222.55071,304.18133l-72.93194,-110.8719l28.88934,-24.35169l95.06718,92.57689z" data-paper-data="{&quot;index&quot;:null}" fill="url(#color-2)" stroke="#000000" stroke-width="0" stroke-linecap="butt"/><path d="M183.86527,231.35377c-1.87222,1.93252 -23.27782,-26.81115 -23.27782,-26.81115l26.98293,-22.55253c0,0 27.72703,32.24935 25.77237,33.69407c-1.73249,1.28053 -17.59795,-18.0314 -19.21779,-16.59624c-2.09634,1.85737 5.30467,8.33613 3.71314,9.23833c-2.49981,1.41708 4.33846,6.00541 2.663,7.65239c-1.77322,1.74305 -15.09875,-18.32846 -16.57877,-17.50306c-2.38164,1.32822 9.0524,13.54047 7.36372,14.57898c-1.75613,1.08001 -8.98072,-5.87303 -10.95347,-5.60193c-3.17035,0.43566 18.90654,23.84263 17.06663,24.6758c-1.69974,0.76969 -15.84137,-17.0243 -17.15065,-15.89051c-1.70666,1.47789 -7.34706,-7.71548 -8.23692,-7.45283c-1.53029,0.45167 13.75771,20.60329 11.85362,22.56869z" data-paper-data="{&quot;index&quot;:null}" fill="url(#color-3)" stroke="none" stroke-width="0" stroke-linecap="butt"/><path d="M173.83305,174.37234l-19.26626,16.10288" data-paper-data="{&quot;index&quot;:null}" fill="none" stroke="#000000" stroke-width="2" stroke-linecap="round"/><g stroke="#000000" stroke-width="0" stroke-linecap="butt"><path d="M99.82667,110.3142c-13.90884,11.62511 -27.7233,18.01121 -30.85542,14.26379c-3.13212,-3.74743 7.50152,-14.25379 21.41036,-25.87889c13.90884,-11.62511 25.8259,-19.96677 28.95802,-16.21934c3.13212,3.74743 -5.60412,16.20935 -19.51296,27.83445z" data-paper-data="{&quot;index&quot;:null}" fill="url(#color-4)"/><g><path d="M111.09591,122.43987c-21.73463,18.16595 -43.32173,28.14519 -48.21614,22.28928c-4.89441,-5.8559 11.72221,-22.27364 33.45685,-40.43961c21.73463,-18.16596 40.35678,-31.20102 45.25119,-25.34512c4.89442,5.85591 -8.75726,25.32948 -30.4919,43.49544z" data-paper-data="{&quot;index&quot;:null}" fill="url(#color-5)"/><path d="M121.25853,132.78787c-23.9898,20.05084 -47.40506,31.55808 -52.29947,25.70215c-4.89441,-5.8559 13.57548,-23.82263 37.56528,-43.87347c23.9898,-20.05084 44.41503,-34.59293 49.30944,-28.73702c4.89442,5.85591 -10.58543,26.8575 -34.57524,46.90833z" data-paper-data="{&quot;index&quot;:null}" fill="url(#color-6)"/><path d="M133.81561,145.56295c-26.32647,22.00384 -52.47423,34.09138 -58.40267,26.9983c-5.92846,-7.09308 14.19872,-26.97937 40.5252,-48.98322c26.32647,-22.00384 48.88289,-37.79281 54.81134,-30.69973c2.90717,3.47829 0.41238,10.923 -5.98989,20.20234c-8.96603,-2.70549 -22.90338,2.00678 -27.35987,9.66242c-0.89888,1.54415 -2.07367,3.5165 -2.37667,5.32524c-0.21907,1.30776 0.29644,4.51055 -0.35314,5.61322c-1.48354,2.51837 -1.34744,6.31852 -0.21073,8.93753c0.17907,0.41257 0.53313,0.94327 1.01436,1.54513c-0.54818,0.46685 -1.10085,0.93314 -1.65792,1.39874z" data-paper-data="{&quot;index&quot;:null}" fill="url(#color-7)"/></g><path d="M197.51185,175.18866c3.13212,3.74743 -7.19192,13.99504 -21.10076,25.62015c-13.90884,11.62511 -26.13549,20.22551 -29.26761,16.47809c-3.13212,-3.74743 5.60413,-16.20935 19.51296,-27.83445c13.90884,-11.62511 27.72329,-18.01122 30.85541,-14.26379z" fill="url(#color-8)"/><path d="M203.29085,153.64513c4.89442,5.85591 -11.23842,21.86931 -32.97305,40.03527c-21.73463,18.16595 -40.84057,31.60536 -45.73498,25.74946c-4.89442,-5.85592 8.75725,-25.3295 30.49189,-43.49544c21.73463,-18.16595 43.32173,-28.14518 48.21614,-22.28928z" fill="url(#color-9)"/><path d="M198.99389,138.39456c4.89442,5.85591 -13.0415,23.37634 -37.03129,43.42718c-23.98979,20.05084 -44.949,35.03923 -49.84342,29.18332c-4.89442,-5.85592 10.58543,-26.8575 34.57523,-46.90833c2.82524,-2.36135 5.64251,-4.60421 8.42249,-6.71417c4.20399,0.22171 9.9156,-1.13961 11.87179,-2.78317c1.55233,-1.30425 2.66762,-3.05562 4.06458,-4.52508c1.33823,-1.40768 3.00548,-3.65316 4.5182,-6.22423c11.65968,-6.44629 20.60646,-8.82471 23.42245,-5.45554z" fill="url(#color-10)"/><path d="M194.75313,122.47362c5.92845,7.09308 -13.61275,26.48959 -39.93921,48.49343c-26.32647,22.00384 -49.46886,38.28257 -55.39731,31.18949c-5.92845,-7.09308 10.60739,-30.68079 36.93385,-52.68463c0.78373,-0.65503 1.56729,-1.30131 2.35016,-1.93852c1.50925,1.38648 3.20146,2.74721 4.71867,3.73076c0.43616,0.68436 0.93146,1.37982 1.52948,2.1222c1.29833,1.61171 4.83277,1.44167 5.85806,2.58372c2.5284,2.81637 13.33422,1.02193 16.18186,-1.37065c1.55233,-1.30425 2.66762,-3.05562 4.06458,-4.52508c3.97127,-4.17735 10.83992,-15.7327 7.9694,-21.27981c-0.62212,-1.20223 -1.36472,-2.34236 -2.20741,-3.41435c-0.17188,-0.55626 -0.37144,-1.1047 -0.59729,-1.64329c9.06782,-3.75913 15.85998,-4.46396 18.53513,-1.26327z" fill="url(#color-11)"/><path d="M84.26278,191.9995c-5.92846,-7.09308 12.82178,-32.5316 41.87986,-56.81854c2.97591,-2.48728 5.94449,-4.86601 8.88244,-7.12473c-0.00069,0.00402 -0.00135,0.00806 -0.00203,0.01208c-0.21907,1.30776 0.29644,4.51054 -0.35314,5.61322c-1.48354,2.51837 2.10275,3.43484 3.23946,6.05383c0.82642,1.90408 1.93019,9.20814 5.50995,11.52876c0.43616,0.68436 0.93146,1.37982 1.52948,2.12219c0.48215,0.59852 1.27266,0.95132 2.12854,1.21686c-0.80748,0.67991 -1.62124,1.36248 -2.44084,2.04751v0.00001c-29.05806,24.28693 -54.44526,42.44189 -60.37371,35.34881z" fill="url(#color-12)"/><path d="M189.4913,104.04877c3.24539,3.88293 -1.79637,11.99998 -11.79165,22.53606c-0.28071,-0.41048 -0.57585,-0.81214 -0.88439,-1.20465c-1.52697,-4.94159 -5.23791,-9.26413 -10.14696,-11.57247c-2.42264,-1.13917 -5.37956,-1.59327 -8.49095,-1.47988c15.54874,-9.05238 27.66974,-12.63918 31.31397,-8.27904z" fill="url(#color-13)"/></g><path d="M124.83049,159.42968c6.28798,7.52325 6.32338,17.85295 0.07903,23.072c-6.24432,5.21905 -16.4038,3.35114 -22.69178,-4.17211c-6.28798,-7.52325 -6.32337,-17.85293 -0.07904,-23.07198c6.24432,-5.21905 16.4038,-3.35115 22.69179,4.17209z" fill="#000000" stroke="#000000" stroke-width="0" stroke-linecap="butt"/><path d="M222.64236,191.93436l-19.81298,10.45582l12.27939,-18.40185z" data-paper-data="{&quot;index&quot;:null}" fill="#000000" stroke="none" stroke-width="1" stroke-linecap="butt"/><path d="M181.28624,273.79697l11.3404,-18.9949l-0.92828,22.3834z" data-paper-data="{&quot;index&quot;:null}" fill="#000000" stroke="none" stroke-width="1" stroke-linecap="butt"/><path d="M149.78832,156.76537c0,0 16.59905,-3.1024 21.82368,-8.12758c4.40065,-4.23266 7.47846,-20.056 7.47846,-20.056c0,0 15.09845,9.67701 11.60944,19.84149c-0.13809,0.40228 -6.51612,-7.9356 -6.51612,-7.9356c0,0 4.21454,7.22388 3.44563,7.80728c-1.02124,0.77485 -5.34679,-3.71146 -5.96774,-3.35617c-0.85346,0.48833 3.93771,6.44703 3.34403,7.56128c-0.63199,1.18616 -4.54895,-2.12762 -5.2955,-1.06611c-0.43276,0.61534 4.64992,8.52287 4.17932,9.14288c-0.20097,0.26476 -3.57916,-2.68809 -4.82193,-2.32544c-0.7268,0.2121 0.85693,4.03508 0.04994,3.74087c-2.17341,-0.79238 -4.26509,-4.17546 -5.2115,-3.67244c-1.39077,0.73921 2.93856,6.67552 1.36666,7.0051c-3.34611,0.70158 -6.69996,-0.26297 -6.69996,-0.26297c0,0 4.30561,7.61367 2.2813,9.4977c0,0 -3.89328,-4.57375 -7.44016,-7.56981c-3.47348,-2.93408 -13.62554,-10.22446 -13.62554,-10.22446z" fill="url(#color-14)" stroke="#000000" stroke-width="0" stroke-linecap="butt"/><path d="M63.31197,362.08294v-364.16588h340.40651v364.16588z" fill-opacity="0.01" fill="#000000" stroke="none" stroke-width="0" stroke-linecap="butt"/></g></g></svg>