<svg version="1.1" xmlns="http://www.w3.org/2000/svg" xmlns:xlink="http://www.w3.org/1999/xlink" width="164.59034" height="267.22501" viewBox="0,0,164.59034,267.22501"><defs><linearGradient x1="240.00005" y1="175.50001" x2="240.00005" y2="307.50001" gradientUnits="userSpaceOnUse" id="color-1"><stop offset="0" stop-color="#18140c"/><stop offset="1" stop-color="#736039"/></linearGradient><linearGradient x1="240.03708" y1="88.24954" x2="240.03708" y2="208.8462" gradientUnits="userSpaceOnUse" id="color-2"><stop offset="0" stop-color="#18140c"/><stop offset="1" stop-color="#736039"/></linearGradient><linearGradient x1="236.4971" y1="79.97996" x2="236.4971" y2="101.31329" gradientUnits="userSpaceOnUse" id="color-3"><stop offset="0" stop-color="#736039"/><stop offset="1" stop-color="#18140c"/></linearGradient><linearGradient x1="239.35125" y1="59.50368" x2="239.35125" y2="136.83711" gradientUnits="userSpaceOnUse" id="color-4"><stop offset="0" stop-color="#675633"/><stop offset="1" stop-color="#b19358"/></linearGradient><linearGradient x1="177.40849" y1="125.02229" x2="177.40849" y2="173.35563" gradientUnits="userSpaceOnUse" id="color-5"><stop offset="0" stop-color="#675633"/><stop offset="1" stop-color="#b19358"/></linearGradient><linearGradient x1="301.35408" y1="125.02229" x2="301.35408" y2="173.35563" gradientUnits="userSpaceOnUse" id="color-6"><stop offset="0" stop-color="#675633"/><stop offset="1" stop-color="#b19358"/></linearGradient></defs><g transform="translate(-157.26737,-57.75587)"><g data-paper-data="{&quot;isPaintingLayer&quot;:true}" fill-rule="nonzero" stroke-linejoin="miter" stroke-miterlimit="10" stroke-dasharray="" stroke-dashoffset="0" style="mix-blend-mode: normal"><path d="M178.3691,324.98088v-267.22501h123.18203v267.22501z" fill-opacity="0.01" fill="#000000" stroke="none" stroke-width="0" stroke-linecap="butt"/><path d="M206.75005,307.5l15.14285,-131.8421l37.78325,-0.15789l13.57389,132z" fill="url(#color-1)" stroke="#000000" stroke-width="0" stroke-linecap="butt"/><path d="M175.80006,148.54787c0,-33.30185 28.7599,-60.29833 64.23702,-60.29833c35.47712,0 64.23702,26.99649 64.23702,60.29833c0,33.30185 -28.7599,60.29833 -64.23702,60.29833c-35.47712,0 -64.23702,-26.99649 -64.23702,-60.29833z" fill="url(#color-2)" stroke="#000000" stroke-width="0" stroke-linecap="butt"/><path d="M189.35029,148.64401c0,-12.968 10.51265,-23.48065 23.48065,-23.48065c12.968,0 23.48065,10.51265 23.48065,23.48065c0,12.968 -10.51265,23.48065 -23.48065,23.48065c-12.968,0 -23.48065,-10.51265 -23.48065,-23.48065z" fill="#666666" stroke="#000000" stroke-width="0" stroke-linecap="butt"/><path d="M196.41566,148.36838c0,-9.12808 7.39976,-16.52784 16.52783,-16.52784c9.12808,0 16.52784,7.39977 16.52784,16.52784c0,9.12808 -7.39977,16.52784 -16.52784,16.52784c-9.12808,0 -16.52783,-7.39977 -16.52783,-16.52784z" fill="#000000" stroke="none" stroke-width="0" stroke-linecap="butt"/><path d="M267.08937,172.12465c-12.968,0 -23.48065,-10.51265 -23.48065,-23.48065c0,-12.968 10.51265,-23.48065 23.48065,-23.48065c12.968,0 23.48065,10.51265 23.48065,23.48065c0,12.968 -10.51265,23.48065 -23.48065,23.48065z" data-paper-data="{&quot;index&quot;:null}" fill="#000000" stroke="#000000" stroke-width="0" stroke-linecap="butt"/><path d="M266.9768,164.89622c-9.12807,0 -16.52783,-7.39977 -16.52783,-16.52784c0,-9.12808 7.39977,-16.52784 16.52783,-16.52784c9.12807,0 16.52783,7.39977 16.52783,16.52784c0,9.12808 -7.39977,16.52784 -16.52783,16.52784z" data-paper-data="{&quot;index&quot;:null}" fill="#7a5b00" stroke="none" stroke-width="0" stroke-linecap="butt"/><path d="M201.98796,119.83554c0,0 6.70895,-5.16922 11.79722,-6.36355c5.08827,-1.19433 12.33413,0.69937 12.33413,0.69937c0,0 -8.03812,-0.06028 -11.96762,0.86207c-4.10648,0.96388 -12.16372,4.80211 -12.16372,4.80211z" fill="#000000" stroke="none" stroke-width="0" stroke-linecap="butt"/><path d="M265.92247,115.03344c-3.9295,-0.92235 -11.96762,-0.86207 -11.96762,-0.86207c0,0 7.24586,-1.8937 12.33413,-0.69937c5.08826,1.19433 11.79721,6.36355 11.79721,6.36355c0,0 -8.05724,-3.83822 -12.16372,-4.80211z" data-paper-data="{&quot;index&quot;:null}" fill="#000000" stroke="none" stroke-width="0" stroke-linecap="butt"/><path d="M291.2091,147.84899l4.74338,-5.09362" fill="none" stroke="#000000" stroke-width="2" stroke-linecap="round"/><path d="M189.08534,149.64033l-5.78415,-6.13441" fill="none" stroke="#000000" stroke-width="2" stroke-linecap="round"/><path d="M213.7471,98.14662l23,-18l-1.33333,11.33334l23.83333,-11.5l-4.83333,21.33333" data-paper-data="{&quot;index&quot;:null}" fill="url(#color-3)" stroke="#000000" stroke-width="0" stroke-linecap="round"/><g stroke="#000000" stroke-width="0" stroke-linecap="butt"><path d="M173.73093,133.17044l-7.38022,3c0,0 -0.61983,-76.56595 73.48132,-76.66666c73.73495,-0.10021 72.51868,77.33333 72.51868,77.33333l-8.66374,-4c0,0 0.0045,-64.86172 -63.85494,-66.33334c-61.84366,-1.42516 -66.1011,66.66667 -66.1011,66.66667z" fill="url(#color-4)"/><path d="M157.26737,149.35563c0,-12.51846 9.08054,-22.66667 20.28196,-22.66667c1.01424,0 1.18635,45.33333 0,45.33333c-11.20142,0 -20.28196,-10.14821 -20.28196,-22.66666z" fill="#736039"/><path d="M172.338,173.35563v-48.33334h10.14098v48.33334z" fill="url(#color-5)"/><path d="M301.57574,172.02229c-1.18635,0 -1.01423,-45.33333 0,-45.33333c11.20142,0 20.28197,10.14821 20.28197,22.66667c0,12.51845 -9.08055,22.66666 -20.28197,22.66666z" data-paper-data="{&quot;index&quot;:null}" fill="#736039"/><path d="M296.28359,173.35563v-48.33334h10.14098v48.33334z" fill="url(#color-6)"/></g><path d="M253.02989,192.56715c0,0 -8.47252,1.05855 -12.67775,1.05855c-4.16424,0 -14.63184,-1.51221 -14.63184,-1.51221c0,0 -0.61746,-9.70614 4.68817,-9.85736c9.09917,-0.25935 22.62142,10.31103 22.62142,10.31103z" data-paper-data="{&quot;index&quot;:null}" fill="#828282" stroke="#000000" stroke-width="2" stroke-linecap="round"/></g></g></svg>