<svg version="1.1" xmlns="http://www.w3.org/2000/svg" xmlns:xlink="http://www.w3.org/1999/xlink" width="34.67311" height="34.67311" viewBox="0,0,34.67311,34.67311"><defs><linearGradient x1="240.00002" y1="162.91348" x2="240.00002" y2="197.08659" gradientUnits="userSpaceOnUse" id="color-1"><stop offset="0" stop-color="#000000"/><stop offset="1" stop-color="#321818"/></linearGradient><linearGradient x1="229.43415" y1="174.76458" x2="229.43415" y2="182.86411" gradientUnits="userSpaceOnUse" id="color-2"><stop offset="0" stop-color="#321818"/><stop offset="1" stop-color="#874141"/></linearGradient><linearGradient x1="249.83722" y1="174.59891" x2="249.83722" y2="182.69844" gradientUnits="userSpaceOnUse" id="color-3"><stop offset="0" stop-color="#321818"/><stop offset="1" stop-color="#874141"/></linearGradient><linearGradient x1="240.09421" y1="176.96256" x2="240.09421" y2="188.09203" gradientUnits="userSpaceOnUse" id="color-4"><stop offset="0" stop-color="#321818"/><stop offset="1" stop-color="#874141"/></linearGradient></defs><g transform="translate(-222.66347,-162.66347)"><g data-paper-data="{&quot;isPaintingLayer&quot;:true}" stroke-miterlimit="10" stroke-dasharray="" stroke-dashoffset="0" style="mix-blend-mode: normal"><path d="M229.98313,162.91348h20.03379c3.9166,0 7.06966,3.15307 7.06966,7.06966v20.03379c0,3.91659 -3.15306,7.06966 -7.06966,7.06966h-20.03379c-3.91659,0 -7.06966,-3.15307 -7.06966,-7.06966v-20.03379c0,-3.91659 3.15307,-7.06966 7.06966,-7.06966z" fill="url(#color-1)" fill-rule="evenodd" stroke="#673232" stroke-width="0.5" stroke-linecap="round" stroke-linejoin="round"/><g fill-rule="nonzero" stroke="#000000" stroke-width="0" stroke-linecap="butt" stroke-linejoin="miter"><path d="M228.24218,175.15682c1.73512,-0.81068 4.12362,-0.27847 4.64048,0.8088c1.32861,2.79488 -1.24828,6.89849 -1.24828,6.89849c0,0 -4.56546,-0.58114 -5.89407,-3.37602c-0.54973,-1.15642 0.6346,-3.45885 2.50187,-4.33127z" data-paper-data="{&quot;index&quot;:null}" fill="url(#color-2)"/><path d="M253.53105,179.32242c-1.32861,2.79488 -5.89407,3.37602 -5.89407,3.37602c0,0 -2.57688,-4.10361 -1.24827,-6.89849c0.51685,-1.08726 2.90536,-1.61948 4.64048,-0.8088c1.86726,0.87242 3.05159,3.17485 2.50187,4.33127z" data-paper-data="{&quot;index&quot;:null}" fill="url(#color-3)"/></g><path d="M228.23776,188.09203c0,-6.14664 5.30831,-11.12947 11.85645,-11.12947c6.54814,0 11.85645,4.98283 11.85645,11.12947" fill="url(#color-4)" fill-rule="nonzero" stroke="#000000" stroke-width="0" stroke-linecap="butt" stroke-linejoin="miter"/></g></g></svg>