<svg version="1.1" xmlns="http://www.w3.org/2000/svg" xmlns:xlink="http://www.w3.org/1999/xlink" width="34.17314" height="34.17312" viewBox="0,0,34.17314,34.17312"><defs><linearGradient x1="65.14656" y1="161.5255" x2="85.98333" y2="139.33126" gradientUnits="userSpaceOnUse" id="color-1"><stop offset="0" stop-color="#1a0000"/><stop offset="1" stop-color="#800000"/></linearGradient><linearGradient x1="162.31041" y1="168.19222" x2="141.47372" y2="145.99791" gradientUnits="userSpaceOnUse" id="color-2"><stop offset="0" stop-color="#1a0000"/><stop offset="1" stop-color="#800000"/></linearGradient><linearGradient x1="239.99999" y1="165.9066" x2="239.99999" y2="194.09339" gradientUnits="userSpaceOnUse" id="color-3"><stop offset="0" stop-color="#000000"/><stop offset="1" stop-color="#6d6d6d"/></linearGradient></defs><g transform="translate(-222.91346,-162.91348)"><g data-paper-data="{&quot;isPaintingLayer&quot;:true}" stroke-miterlimit="10" stroke-dasharray="" stroke-dashoffset="0" style="mix-blend-mode: normal"><path d="M229.98313,162.91348h20.03378c3.9166,0 7.06966,3.15307 7.06966,7.06966v20.03379c0,3.91659 -3.15306,7.06966 -7.06966,7.06966h-20.03378c-3.91659,0 -7.06967,-3.15307 -7.06967,-7.06966v-20.03379c0,-3.91659 3.15308,-7.06966 7.06967,-7.06966z" fill-opacity="0.09677" fill="#191919" fill-rule="evenodd" stroke="none" stroke-width="4.43922" stroke-linecap="round" stroke-linejoin="round"/><path d="" data-paper-data="{&quot;index&quot;:null}" fill="url(#color-1)" fill-rule="nonzero" stroke="#000000" stroke-width="0" stroke-linecap="butt" stroke-linejoin="miter"/><path d="" data-paper-data="{&quot;index&quot;:null}" fill="url(#color-2)" fill-rule="nonzero" stroke="#000000" stroke-width="0" stroke-linecap="butt" stroke-linejoin="miter"/><path d="M229.98316,162.91349h20.03379c3.9166,0 7.06966,3.15307 7.06966,7.06966v20.03379c0,3.91659 -3.15306,7.06966 -7.06966,7.06966h-20.03379c-3.91659,0 -7.06966,-3.15307 -7.06966,-7.06966v-20.03379c0,-3.91659 3.15307,-7.06966 7.06966,-7.06966z" fill-opacity="0.09677" fill="#191919" fill-rule="evenodd" stroke="none" stroke-width="4.43922" stroke-linecap="round" stroke-linejoin="round"/><path d="M242.72412,179.08947c-3.53336,10.9772 0.1864,15.43237 -6.56452,14.97171c-3.8709,-0.26414 -3.77166,-9.8739 -0.80617,-17.04471c3.68534,-8.91147 6.20804,-12.5513 9.55886,-10.59536c4.34057,2.53367 0.22244,5.17926 -2.18817,12.66837z" fill="url(#color-3)" fill-rule="nonzero" stroke="#ffffff" stroke-width="0.5" stroke-linecap="butt" stroke-linejoin="miter"/></g></g></svg>