<svg version="1.1" xmlns="http://www.w3.org/2000/svg" xmlns:xlink="http://www.w3.org/1999/xlink" width="491.33333" height="370.50564" viewBox="0,0,491.33333,370.50564"><g transform="translate(5.5,6.52462)"><g data-paper-data="{&quot;isPaintingLayer&quot;:true}" stroke-miterlimit="10" stroke-dasharray="" stroke-dashoffset="0" style="mix-blend-mode: normal"><path d="M-5.38905,-3.98101h490.7781v367.96203h-490.7781z" fill="#1a1a1a" fill-rule="evenodd" stroke="none" stroke-width="2.07968" stroke-linecap="round" stroke-linejoin="round"/><path d="M-5.5,55.08069v-60.58069h491.33333v60.58069z" fill="#666666" fill-rule="nonzero" stroke="none" stroke-width="0" stroke-linecap="butt" stroke-linejoin="miter"/><text transform="translate(148.24002,42.06864) scale(1.08566,1.13271)" font-size="40" xml:space="preserve" fill="#666666" fill-rule="nonzero" stroke="#ffffff" stroke-width="1" stroke-linecap="butt" stroke-linejoin="miter" stroke-miterlimit="10" stroke-dasharray="" stroke-dashoffset="0" font-family="Sans Serif" font-weight="normal" text-anchor="start" style="mix-blend-mode: normal"><tspan x="0" dy="0">GALLERY</tspan></text><path d="M340.23881,32.90443c2.23607,4.47214 -2.23607,6.7082 -2.23607,6.7082l-4.23607,1.52786c-0.84661,0 -1.69282,-0.00112 -2.53878,-0.00335c-0.05016,0.04405 -0.09918,0.08739 -0.14689,0.12998c-1.60324,1.43107 -4.81233,1.48073 -7.24998,1.42167c-0.52982,0.32172 -1.08134,0.60404 -1.63822,0.84601c0.04826,0.19393 0.07387,0.39682 0.07387,0.60569c0,0.33934 -0.06761,0.66289 -0.1901,0.95792l1.75126,2.62689c0.27681,0.40239 0.43883,0.88987 0.43883,1.41519c0,1.38071 -1.11929,2.5 -2.5,2.5c-0.09171,0 -0.18227,-0.00494 -0.27143,-0.01456l-3.01778,-0.28978l0.00153,-0.01589l-0.0589,0.00971c-4.7683,-0.68679 -9.17918,-0.26564 -13.9363,-0.70554c-5.7225,-0.52916 -11.26477,-2.81347 -17.02377,-3.44708c-3.45765,-0.38694 -7.0385,0.18372 -10.4178,-0.64414c-1.16733,-0.28597 -1.84935,-1.65296 -3,-2c-1.0459,-0.31545 -2.18327,0.0886 -3.27554,0.10727c-3.33129,0.05694 -6.66815,0 -10,0c-6.97906,0 -14.03574,0.25995 -21.04926,0.14965c-0.84221,1.04584 -2.32361,0.82239 -2.32361,0.82239l-2.15815,-0.42154c-0.44064,-0.20295 -0.88623,-0.40093 -1.3363,-0.59124c-0.50237,-0.02619 -1.00434,-0.0552 -1.50587,-0.08727c-2.13592,-0.13657 -4.24047,-0.55198 -6.33366,-1.0307c2.4768,0.69471 7.08966,1.76761 8.96167,3.49645c0.03861,0.03566 0.07685,0.07166 0.11472,0.10797l0.01722,-0.02582l2.96774,1.97849c0.68925,0.44514 1.14551,1.2201 1.14551,2.10163c0,1.38071 -1.11929,2.5 -2.5,2.5c-0.44031,0 -0.85404,-0.11383 -1.21336,-0.31367l-2.50503,-1.32834c-4.68668,-1.20506 -9.36325,-2.59768 -14.08438,-3.65398c-7.38502,-1.65231 -15.80036,-1.87302 -22.88742,-4.64373l-4.59453,-1.06028c-0.98809,0 -1.97618,0 -2.96427,0c-0.8505,0.31849 -1.71062,0.60847 -2.57815,0.86272c0.00499,0.0645 0.00753,0.12968 0.00753,0.19545c0,1.25626 -0.9266,2.29609 -2.13364,2.47335l-2.64015,0.43519l-0.00668,-0.04053c-0.06489,0.02279 -0.13019,0.04464 -0.19594,0.06548c-1.33579,0.42354 -2.80266,0.01183 -4.20398,0.00834c-5.33304,-0.0133 -9.55133,-1.57505 -14.81148,-1.9788l-3.203,-0.02124c-1.19943,-0.0068 -2.19879,-0.85826 -2.43341,-1.98974c-0.8509,-0.00417 -1.70161,-0.0077 -2.55211,-0.01022c-1.92557,-0.00572 -5.57716,0.21469 -7.77771,-0.99475l-0.26849,-0.00567c-1.35939,-0.02464 -2.45379,-1.1343 -2.45379,-2.49958c0,-1.32004 1.02308,-2.40113 2.31957,-2.49359c0.05125,-0.052 0.10333,-0.10358 0.15612,-0.15472c-0.34365,-0.05307 -0.67139,-0.16151 -0.97566,-0.35167c-0.00215,-0.00001 -0.00429,-0.00001 -0.00644,-0.00002l-2.99359,0c-1.89844,0 -3.54976,-1.05803 -4.39648,-2.61661c-0.88044,-0.03537 -1.75056,-0.14646 -2.60352,-0.38339h-8c-2.41896,0 -4.43671,-1.71776 -4.89998,-4h-1.10002c-2.76142,0 -5,-2.23858 -5,-5c0,-2.76142 2.23858,-5 5,-5l4.27192,0c0.62359,-0.1683 1.25477,-0.2509 1.89132,-0.27146c1.88462,-0.67945 3.74215,-1.45897 5.65079,-2.04971c0.67142,-1.17884 2.18596,-1.17884 2.18596,-1.17884c0.27527,0 0.55184,-0.00198 0.82955,-0.00562c0.65646,-0.31681 1.39272,-0.49438 2.17045,-0.49438h4c1.20083,0 2.29441,-0.04045 3.34035,-0.10873c0.82697,-0.2342 1.68862,-0.26813 2.56401,-0.2228c0.03573,-0.00376 0.07147,-0.00754 0.10721,-0.01134c0.08425,-1.2441 0.62359,-2.36337 1.4529,-3.19267l1.68734,-1.68734l-0.86078,-0.57386c-1.37851,-0.89027 -2.29102,-2.4402 -2.29102,-4.20327c0,-2.76142 2.23858,-5 5,-5h4c5.50323,-1.34313 14.29183,2.17916 19.37295,2.81748c4.40569,0.55347 9.18163,0.18252 13.62705,0.18252c10.33333,0 20.66667,0 31,0c7.76232,0 15.34323,-0.39584 22.98058,1.0971c3.72951,0.7464 7.51222,1.22328 11.22468,2.05034c1.65195,0.36802 3.32671,1.20881 4.99383,0.91712c5.55902,-0.97263 9.95556,-4.00907 15.80091,-4.06456c7.99841,-0.07593 16.00118,0 24,0c4.79546,0 9.63985,0.58431 14.19909,-0.93544c6.82352,-0.11591 13.92236,-0.52693 20.26441,2.58444c0.90218,0.4426 1.30503,1.57813 2.16516,2.09775c0.76426,0.4617 1.78757,0.32805 2.5681,0.76168c2.24448,1.24693 4.24535,2.8924 6.4319,4.23832c2.33619,1.43803 11.81354,5.28818 11.37134,10.25325c-0.68409,7.68101 -6.28895,6.79884 -11,7c-5.9126,0.25247 -11.8628,0.22387 -17.81092,0.14888c0.60135,0.49853 1.08402,1.13522 1.39935,1.8614c1.46959,-0.00754 2.93967,-0.01028 4.41157,-0.01028l-0.23607,-0.47214c0,0 4.47214,-2.23607 6.7082,2.23607zM337.76667,19.1405c0.19571,0 0.39141,0 0.58712,0c-1.44753,-1.02037 -2.77753,-1.94934 -3.78388,-2.50842c-0.55606,-0.30892 -1.18355,-0.46306 -1.80509,-0.62894c0.00123,0.04564 0.00185,0.09143 0.00185,0.13736c0,1.12561 -0.37194,2.16434 -0.99963,3c1.99988,0 3.99976,0 5.99963,0z" fill="#666666" fill-rule="nonzero" stroke="none" stroke-width="0.5" stroke-linecap="butt" stroke-linejoin="miter"/></g></g></svg>