<svg version="1.1" xmlns="http://www.w3.org/2000/svg" xmlns:xlink="http://www.w3.org/1999/xlink" width="34.17311" height="34.17311" viewBox="0,0,34.17311,34.17311"><g transform="translate(-222.91344,-162.91344)"><g data-paper-data="{&quot;isPaintingLayer&quot;:true}" stroke-miterlimit="10" stroke-dasharray="" stroke-dashoffset="0" style="mix-blend-mode: normal"><path d="M229.98312,162.91345h20.03378c3.9166,0 7.06966,3.15307 7.06966,7.06966v20.03379c0,3.91659 -3.15306,7.06966 -7.06966,7.06966h-20.03378c-3.91659,0 -7.06967,-3.15307 -7.06967,-7.06966v-20.03379c0,-3.91659 3.15308,-7.06966 7.06967,-7.06966z" fill-opacity="0.09677" fill="#191919" fill-rule="evenodd" stroke="none" stroke-width="4.43922" stroke-linecap="round" stroke-linejoin="round"/><g fill="#000000" fill-rule="nonzero" stroke="#ffffff" stroke-width="0.5" stroke-linejoin="miter"><path d="M235.05239,176.496l4.40803,-3.44975l-0.25554,2.17207l4.56773,-2.20401l-0.92632,4.08861" data-paper-data="{&quot;index&quot;:null}" stroke-linecap="round"/><g stroke-linecap="butt"><path d="M227.38316,183.20843l-1.41445,0.57496c0,0 -0.11879,-14.67412 14.08293,-14.69342c14.13154,-0.0192 13.89844,14.82119 13.89844,14.82119l-1.66043,-0.76662c0,0 0.00086,-12.43096 -12.23801,-12.713c-11.85254,-0.27313 -12.66849,12.77688 -12.66849,12.77688z"/><path d="M224.22787,186.31037c0,-2.3992 1.74031,-4.34414 3.8871,-4.34414c0.19438,0 0.22737,8.68828 0,8.68828c-2.14679,0 -3.8871,-1.94494 -3.8871,-4.34414z"/><path d="M227.1162,190.91005v-9.26325h1.94355v9.26325z"/><path d="M251.88503,190.65451c-0.22737,0 -0.19438,-8.68828 0,-8.68828c2.14679,0 3.8871,1.94494 3.8871,4.34414c0,2.3992 -1.74031,4.34414 -3.8871,4.34414z" data-paper-data="{&quot;index&quot;:null}"/><path d="M250.87078,190.91005v-9.26325h1.94355v9.26325z"/></g></g></g></g></svg>