<svg version="1.1" xmlns="http://www.w3.org/2000/svg" xmlns:xlink="http://www.w3.org/1999/xlink" width="215.48508" height="292.2932" viewBox="0,0,215.48508,292.2932"><defs><linearGradient x1="240.00007" y1="175.50003" x2="240.00007" y2="307.50003" gradientUnits="userSpaceOnUse" id="color-1"><stop offset="0" stop-color="#2a1d19"/><stop offset="1" stop-color="#825b4e"/></linearGradient><linearGradient x1="260.41437" y1="81.0307" x2="260.41437" y2="223.80354" gradientUnits="userSpaceOnUse" id="color-2"><stop offset="0" stop-color="#2a1d19"/><stop offset="1" stop-color="#825b4e"/></linearGradient><radialGradient cx="176.02956" cy="222.18176" r="107.74254" gradientUnits="userSpaceOnUse" id="color-3"><stop offset="0" stop-color="#2a1d19"/><stop offset="1" stop-color="#825b4e"/></radialGradient><radialGradient cx="264.16471" cy="131.63883" r="101.35785" gradientUnits="userSpaceOnUse" id="color-4"><stop offset="0" stop-color="#150000"/><stop offset="1" stop-color="#850000"/></radialGradient><linearGradient x1="224.19878" y1="111.91336" x2="224.19878" y2="158.87466" gradientUnits="userSpaceOnUse" id="color-5"><stop offset="0" stop-color="#919191"/><stop offset="1" stop-color="#865959"/></linearGradient><linearGradient x1="289.00485" y1="100.54499" x2="289.00485" y2="147.50629" gradientUnits="userSpaceOnUse" id="color-6"><stop offset="0" stop-color="#919191"/><stop offset="1" stop-color="#865959"/></linearGradient><linearGradient x1="236.27388" y1="153.27934" x2="234.33567" y2="158.71906" gradientUnits="userSpaceOnUse" id="color-7"><stop offset="0" stop-color="#363636"/><stop offset="1" stop-color="#636363"/></linearGradient><linearGradient x1="238.63002" y1="153.52078" x2="236.31362" y2="160.02192" gradientUnits="userSpaceOnUse" id="color-8"><stop offset="0" stop-color="#363636"/><stop offset="1" stop-color="#636363"/></linearGradient><linearGradient x1="241.95609" y1="154.25731" x2="239.35604" y2="161.5545" gradientUnits="userSpaceOnUse" id="color-9"><stop offset="0" stop-color="#363636"/><stop offset="1" stop-color="#636363"/></linearGradient><linearGradient x1="246.57075" y1="155.15396" x2="243.49797" y2="163.7779" gradientUnits="userSpaceOnUse" id="color-10"><stop offset="0" stop-color="#363636"/><stop offset="1" stop-color="#636363"/></linearGradient><linearGradient x1="257.5539" y1="158.31974" x2="253.91384" y2="168.5358" gradientUnits="userSpaceOnUse" id="color-11"><stop offset="0" stop-color="#363636"/><stop offset="1" stop-color="#636363"/></linearGradient><linearGradient x1="251.84577" y1="156.43539" x2="248.3948" y2="166.12076" gradientUnits="userSpaceOnUse" id="color-12"><stop offset="0" stop-color="#363636"/><stop offset="1" stop-color="#636363"/></linearGradient><linearGradient x1="283.4129" y1="169.9258" x2="281.47468" y2="175.36554" gradientUnits="userSpaceOnUse" id="color-13"><stop offset="0" stop-color="#363636"/><stop offset="1" stop-color="#636363"/></linearGradient><linearGradient x1="281.43494" y1="168.62297" x2="279.11854" y2="175.1241" gradientUnits="userSpaceOnUse" id="color-14"><stop offset="0" stop-color="#363636"/><stop offset="1" stop-color="#636363"/></linearGradient><linearGradient x1="278.39253" y1="167.09037" x2="275.79248" y2="174.38756" gradientUnits="userSpaceOnUse" id="color-15"><stop offset="0" stop-color="#363636"/><stop offset="1" stop-color="#636363"/></linearGradient><linearGradient x1="274.25059" y1="164.86698" x2="271.17781" y2="173.49093" gradientUnits="userSpaceOnUse" id="color-16"><stop offset="0" stop-color="#363636"/><stop offset="1" stop-color="#636363"/></linearGradient><linearGradient x1="263.74018" y1="160.37443" x2="260.10012" y2="170.59049" gradientUnits="userSpaceOnUse" id="color-17"><stop offset="0" stop-color="#363636"/><stop offset="1" stop-color="#636363"/></linearGradient><linearGradient x1="269.35377" y1="162.52411" x2="265.9028" y2="172.20947" gradientUnits="userSpaceOnUse" id="color-18"><stop offset="0" stop-color="#363636"/><stop offset="1" stop-color="#636363"/></linearGradient><linearGradient x1="231.95913" y1="170.40717" x2="230.2874" y2="175.31411" gradientUnits="userSpaceOnUse" id="color-19"><stop offset="0" stop-color="#636363"/><stop offset="1" stop-color="#363636"/></linearGradient><linearGradient x1="233.67947" y1="171.76131" x2="231.68155" y2="177.6257" gradientUnits="userSpaceOnUse" id="color-20"><stop offset="0" stop-color="#636363"/><stop offset="1" stop-color="#363636"/></linearGradient><linearGradient x1="236.39893" y1="173.1887" x2="234.15637" y2="179.77118" gradientUnits="userSpaceOnUse" id="color-21"><stop offset="0" stop-color="#636363"/><stop offset="1" stop-color="#363636"/></linearGradient><linearGradient x1="240.27705" y1="174.74367" x2="237.62675" y2="182.52296" gradientUnits="userSpaceOnUse" id="color-22"><stop offset="0" stop-color="#636363"/><stop offset="1" stop-color="#363636"/></linearGradient><linearGradient x1="249.70621" y1="178.82427" x2="246.56663" y2="188.03974" gradientUnits="userSpaceOnUse" id="color-23"><stop offset="0" stop-color="#636363"/><stop offset="1" stop-color="#363636"/></linearGradient><linearGradient x1="244.72213" y1="176.72555" x2="241.74564" y2="185.46229" gradientUnits="userSpaceOnUse" id="color-24"><stop offset="0" stop-color="#636363"/><stop offset="1" stop-color="#363636"/></linearGradient><linearGradient x1="274.61675" y1="184.94004" x2="272.94503" y2="189.84698" gradientUnits="userSpaceOnUse" id="color-25"><stop offset="0" stop-color="#636363"/><stop offset="1" stop-color="#363636"/></linearGradient><linearGradient x1="272.42752" y1="184.96224" x2="270.42961" y2="190.82663" gradientUnits="userSpaceOnUse" id="color-26"><stop offset="0" stop-color="#636363"/><stop offset="1" stop-color="#363636"/></linearGradient><linearGradient x1="269.40226" y1="184.43248" x2="267.1597" y2="191.01496" gradientUnits="userSpaceOnUse" id="color-27"><stop offset="0" stop-color="#636363"/><stop offset="1" stop-color="#363636"/></linearGradient><linearGradient x1="265.38142" y1="183.29638" x2="262.73112" y2="191.07567" gradientUnits="userSpaceOnUse" id="color-28"><stop offset="0" stop-color="#636363"/><stop offset="1" stop-color="#363636"/></linearGradient><linearGradient x1="255.4222" y1="180.77162" x2="252.28261" y2="189.9871" gradientUnits="userSpaceOnUse" id="color-29"><stop offset="0" stop-color="#636363"/><stop offset="1" stop-color="#363636"/></linearGradient><linearGradient x1="260.65092" y1="182.15227" x2="257.67443" y2="190.88901" gradientUnits="userSpaceOnUse" id="color-30"><stop offset="0" stop-color="#636363"/><stop offset="1" stop-color="#363636"/></linearGradient></defs><g transform="translate(-156.70603,-25.80219)"><g data-paper-data="{&quot;isPaintingLayer&quot;:true}" fill-rule="nonzero" stroke-width="0" stroke-linecap="butt" stroke-linejoin="miter" stroke-miterlimit="10" stroke-dasharray="" stroke-dashoffset="0" style="mix-blend-mode: normal"><path d="M198.82336,318.09539v-267.22501h123.18203v267.22501z" fill-opacity="0.01" fill="#000000" stroke="none"/><path d="M206.75007,307.50002l15.14285,-131.8421l37.78325,-0.15789l13.57389,132z" fill="url(#color-1)" stroke="#000000"/><path d="M195.48214,141.32903c0,-33.30185 28.7599,-60.29833 64.23702,-60.29833c35.47712,0 64.23702,26.99649 64.23702,60.29833c0,13.05014 4.0286,82.47451 4.0286,82.47451c0,0 -46.69107,-22.17618 -68.26562,-22.17618c-20.49118,0 -66.8752,20.6796 -66.8752,20.6796c0,0 2.63818,-66.91085 2.63818,-80.97793z" fill="url(#color-2)" stroke="#000000"/><g stroke="none"><g fill="url(#color-3)"><path d="M160.96701,209.71497l18.50323,-56.63564l-22.76421,-28.10776l29.94245,-18.10513l7.09554,-31.71783l38.21793,18.70714l24.49605,-68.05356l26.79509,75.86143l37.68426,-31.55798l2.13355,43.89763l49.12021,5.54972l-42.40356,30.14046l33.04464,49.17646l-45.26528,-12.16217l6.37467,47.47005l-50.48801,-34.25879l-15.02463,34.81375l-51.70255,-45.69321l-44.7831,47.98139z"/></g><g fill="url(#color-4)"><path d="M166.81535,206.37837l17.40675,-53.27948l-21.41523,-26.44213l28.1681,-17.03224l6.67506,-29.83827l35.95318,17.59858l23.04444,-64.02079l25.20724,71.36597l35.45114,-29.68789l2.00712,41.29631l46.20941,5.22085l-39.89077,28.35438l31.08645,46.26232l-42.58292,-11.44146l5.99691,44.65703l-47.49615,-32.22865l-14.13429,32.75073l-48.63872,-42.98549l-42.1293,45.13807z"/></g></g><path d="M200.71813,135.39401c0,-12.968 10.51265,-23.48065 23.48065,-23.48065c12.968,0 23.48065,10.51265 23.48065,23.48065c0,12.968 -10.51265,23.48065 -23.48065,23.48065c-12.968,0 -23.48065,-10.51265 -23.48065,-23.48065z" fill="url(#color-5)" stroke="#000000"/><path d="M210.16497,137.36003c0,-9.12808 7.39976,-16.52784 16.52783,-16.52784c9.12808,0 16.52784,7.39977 16.52784,16.52784c0,9.12808 -7.39977,16.52784 -16.52784,16.52784c-9.12808,0 -16.52783,-7.39977 -16.52783,-16.52784z" fill="#000000" stroke="none"/><path d="M289.00485,147.50629c-12.968,0 -23.48065,-10.51265 -23.48065,-23.48065c0,-12.968 10.51265,-23.48065 23.48065,-23.48065c12.968,0 23.48065,10.51265 23.48065,23.48065c0,12.968 -10.51265,23.48065 -23.48065,23.48065z" data-paper-data="{&quot;index&quot;:null}" fill="url(#color-6)" stroke="#000000"/><path d="M292.09453,142.09276c-9.12807,0 -16.52783,-7.39977 -16.52783,-16.52784c0,-9.12808 7.39977,-16.52784 16.52783,-16.52784c9.12807,0 16.52783,7.39977 16.52783,16.52784c0,9.12808 -7.39977,16.52784 -16.52783,16.52784z" data-paper-data="{&quot;index&quot;:null}" fill="#000000" stroke="none"/><g data-paper-data="{&quot;index&quot;:null}" stroke="none"><g><path d="M232.65767,158.12118c0,0 1.33104,-5.65606 3.56305,-4.86078c2.23202,0.79529 -0.17207,6.06902 -0.17207,6.06902z" fill="url(#color-7)"/><path d="M234.30819,159.30736c0,0 1.59078,-6.75968 4.2583,-5.80922c2.66753,0.95046 -0.20564,7.25322 -0.20564,7.25322z" fill="url(#color-8)"/><path d="M237.10505,160.75246c0,0 1.78556,-7.58741 4.77973,-6.52056c2.99417,1.06685 -0.23083,8.14137 -0.23083,8.14137z" fill="url(#color-9)"/><path d="M240.83772,162.83003c0,0 2.11021,-8.96692 5.64875,-7.70611c3.53855,1.26082 -0.2728,9.6216 -0.2728,9.6216z" fill="url(#color-10)"/><path d="M250.76244,167.41293c0,0 2.49978,-10.62235 6.69161,-9.12877c4.19183,1.49358 -0.32315,11.3979 -0.32315,11.3979z" fill="url(#color-11)"/><path d="M245.40713,165.05623c0,0 2.36993,-10.07055 6.344,-8.65456c3.97406,1.41599 -0.30637,10.80581 -0.30637,10.80581z" fill="url(#color-12)"/></g><g data-paper-data="{&quot;index&quot;:null}"><path d="M279.7617,174.75519c0,0 1.47235,-5.60572 3.70436,-4.81043c2.23201,0.79528 -0.31338,6.01866 -0.31338,6.01866z" fill="url(#color-13)"/><path d="M277.0713,174.39465c0,0 1.75964,-6.69952 4.42717,-5.74906c2.66753,0.95046 -0.37451,7.19305 -0.37451,7.19305z" fill="url(#color-14)"/><path d="M273.49456,173.56879c0,0 1.9751,-7.51987 4.96927,-6.45303c2.99417,1.06685 -0.42037,8.07384 -0.42037,8.07384z" fill="url(#color-15)"/><path d="M268.46211,172.5233c0,0 2.33421,-8.88711 5.87276,-7.62629c3.53855,1.26082 -0.4968,9.54179 -0.4968,9.54179z" fill="url(#color-16)"/><path d="M256.88305,169.44423c0,0 2.76514,-10.5278 6.95697,-9.03422c4.19183,1.49358 -0.5885,11.30335 -0.5885,11.30335z" fill="url(#color-17)"/><path d="M262.85285,171.12275c0,0 2.62151,-9.98092 6.59557,-8.56493c3.97407,1.41599 -0.55794,10.71618 -0.55794,10.71618z" fill="url(#color-18)"/></g></g><g data-paper-data="{&quot;index&quot;:null}" stroke="none"><g><path d="M233.50433,170.9336c0,0 -1.25148,5.05012 -3.26488,4.36418c-2.0134,-0.68594 0.20602,-5.40629 0.20602,-5.40629z" fill="url(#color-19)"/><path d="M235.52619,172.39047c0,0 -1.49569,6.03549 -3.90194,5.21571c-2.40627,-0.81978 0.24622,-6.46117 0.24622,-6.46117z" fill="url(#color-20)"/><path d="M238.47176,173.89489c0,0 -1.67883,6.77453 -4.37973,5.85437c-2.70089,-0.92015 0.27638,-7.25233 0.27638,-7.25233z" fill="url(#color-21)"/><path d="M242.72678,175.57826c0,0 -1.98407,8.00627 -5.17605,6.9188c-3.19198,-1.08747 0.32662,-8.57094 0.32662,-8.57094z" fill="url(#color-22)"/><path d="M252.60819,179.81293c0,0 -2.35036,9.48434 -6.13162,8.19612c-3.78125,-1.28822 0.38691,-10.15326 0.38691,-10.15326z" fill="url(#color-23)"/><path d="M247.47336,177.66286c0,0 -2.22826,8.99165 -5.81309,7.77035c-3.58485,-1.22131 0.36681,-9.62583 0.36681,-9.62583z" fill="url(#color-24)"/></g><g data-paper-data="{&quot;index&quot;:null}"><path d="M276.13041,185.45572c0,0 -1.12403,5.09353 -3.13743,4.40759c-2.01339,-0.68594 0.07858,-5.4497 0.07858,-5.4497z" fill="url(#color-25)"/><path d="M274.23653,185.57855c0,0 -1.34336,6.08738 -3.74961,5.2676c-2.40625,-0.81977 0.09389,-6.51306 0.09389,-6.51306z" fill="url(#color-26)"/><path d="M271.43276,185.12424c0,0 -1.50785,6.83278 -4.20874,5.91262c-2.7009,-0.92016 0.10539,-7.31058 0.10539,-7.31058z" fill="url(#color-27)"/><path d="M267.78113,184.11393c0,0 -1.78201,8.07511 -4.97398,6.98765c-3.19198,-1.08747 0.12455,-8.63978 0.12455,-8.63978z" fill="url(#color-28)"/><path d="M258.26492,181.7401c0,0 -2.11099,9.5659 -5.89224,8.27767c-3.78127,-1.28823 0.14754,-10.23481 0.14754,-10.23481z" fill="url(#color-29)"/><path d="M263.34598,183.07044c0,0 -2.00134,9.06897 -5.58617,7.84767c-3.58483,-1.22131 0.13989,-9.70314 0.13989,-9.70314z" fill="url(#color-30)"/></g></g></g></g></svg>