<svg version="1.1" xmlns="http://www.w3.org/2000/svg" xmlns:xlink="http://www.w3.org/1999/xlink" width="491.33333" height="370.50564" viewBox="0,0,491.33333,370.50564"><g transform="translate(5.5,6.52462)"><g data-paper-data="{&quot;isPaintingLayer&quot;:true}" stroke-miterlimit="10" stroke-dasharray="" stroke-dashoffset="0" style="mix-blend-mode: normal"><path d="M-5.38905,-3.98101h490.7781v367.96203h-490.7781z" fill="#1a1a1a" fill-rule="evenodd" stroke="none" stroke-width="2.07968" stroke-linecap="round" stroke-linejoin="round"/><path d="M-5.5,55.08069v-60.58069h491.33333v60.58069z" fill="#666666" fill-rule="nonzero" stroke="none" stroke-width="0" stroke-linecap="butt" stroke-linejoin="miter"/><text transform="translate(148.24002,42.06864) scale(1.08566,1.13271)" font-size="40" xml:space="preserve" fill="#ffffff" fill-rule="nonzero" stroke="#ffffff" stroke-width="1" stroke-linecap="butt" stroke-linejoin="miter" stroke-miterlimit="10" stroke-dasharray="" stroke-dashoffset="0" font-family="Sans Serif" font-weight="normal" text-anchor="start" style="mix-blend-mode: normal"><tspan x="0" dy="0">GALLERY</tspan></text><path d="M384.54199,24.21539c2.92511,8.77532 -5.85021,11.70043 -5.85021,11.70043l-4.44342,1.35524c-1.4939,0.03981 -2.98945,0.20029 -4.48169,0.11944c-0.70846,-0.03838 -1.42075,-0.74943 -2.07489,-0.47468c-1.26875,0.5329 -1.89357,2.10668 -3.14954,2.66906c-1.72331,0.77165 -3.78919,0.49176 -5.53201,1.21829c-2.41358,1.00615 -4.38463,2.90619 -6.79484,3.92039c-2.79576,1.17644 -5.96372,1.12282 -8.96704,1.54751c-2.08742,0.29517 -3.92591,1.62237 -6,2c-0.98383,0.17913 -2.01155,-0.15154 -3,0c-2.51462,0.38553 -4.87673,1.46066 -7.35149,2.05014c-7.75018,0.05883 -16.50179,0.90867 -24.26039,0c-1.36504,-0.15987 -2.63345,-0.85357 -4,-1c-2.31915,-0.2485 -4.71547,0.3157 -6.99502,-0.17814c-3.08605,-0.66856 -5.50841,-3.40605 -8.62403,-3.91946c-0.7495,-0.12351 -1.50388,-0.17605 -2.26136,-0.18509c-2.5148,0.1203 -5.04105,0.352 -6.98939,0.352c-1.48885,0 -2.97772,0.00103 -4.46661,0.00246c-1.15126,0.55279 -2.18092,1.39945 -3.40817,1.7501c-0.96152,0.27472 -2.03864,-0.27531 -3,0c-1.19374,0.34185 -2.07475,1.43924 -3.26471,1.79404c-2.96078,0.88278 -6.30187,0.39273 -9.11839,1.66267c-1.43263,0.64596 -2.52648,2.05762 -4.06162,2.39384c-2.63945,0.57809 -15.02266,0.36486 -17.59198,0.35188c-5.25264,-1.00975 -10.35094,-1.33879 -15.57021,-2.07442c-1.04378,-0.14712 -1.95039,-0.9029 -3,-1c-5.06985,-0.46902 -12.20111,-0.50055 -17.38812,0.05014c-1.85197,0.19662 -3.62405,1.13073 -5.48518,1.06249c-1.91881,-0.07036 -3.72921,-0.92215 -5.57012,-1.46787c-0.7472,-0.2215 -2.02711,-1.093 -2.94968,-0.77277c-1.40829,0.48883 -2.53584,1.71987 -4,2c-2.25082,0.43064 -4.61678,0.47364 -6.87446,0.08054c-2.2543,-0.39251 -4.27975,-1.62149 -6.43236,-2.39748c-4.23669,-1.52727 -9.11132,-2.51394 -12.91043,-4.96333c-1.98545,-1.28007 -3.47673,-2.78985 -4.69669,-4.46432l-2.22287,-1.48191c-2.55023,-1.647 -4.2384,-4.51438 -4.2384,-7.77605c0,-2.46639 0.96529,-4.70732 2.53868,-6.36561c-0.2798,-1.08571 -0.46137,-2.22099 -0.54597,-3.3662c-2.42833,-1.09183 -4.99271,-3.39782 -4.99271,-8.26819c0,-9.25 9.25,-9.25 9.25,-9.25c1.66156,0.47 3.19814,-1.33961 4.87479,-1.75255c3.63731,-0.89583 8.35754,-0.24745 12.12521,-0.24745c16.33333,0 32.66667,0 49,0c3.41237,0 6.83636,0.31351 10.23706,0.03152c2.82336,-0.23411 5.47477,-1.52507 8.28126,-1.91208c2.75778,-0.38029 5.59281,0.3236 8.35149,-0.05014c1.36193,-0.18451 2.63737,-0.82078 4,-1c6.21926,-0.81797 12.85363,-0.06931 19.1302,-0.06931c4.50811,0 10.34408,-0.88374 14.74924,0.1669c3.68035,0.87777 6.97497,2.93458 10.46001,4.40766c3.35408,1.41773 8.0351,0.73455 11.53441,1.84171c2.33935,0.74015 4.39615,2.24784 6.75385,2.92728c2.02913,0.58475 4.2092,0.41862 6.28065,0.82897c1.43834,0.28493 2.8598,0.64529 4.27788,1.02072c1.01031,-1.84403 2.24153,-3.5688 3.57928,-5.09873c1.63366,-1.86836 4.89655,-0.83388 7.36469,-1.09451c4.01224,-0.42369 8.99806,-0.35425 13,0c2.80104,0.24795 6.00082,-0.42847 8.36469,1.09451c6.46108,4.16272 9.31574,12.55071 5.1393,19.56406c-0.18756,0.31496 -0.40484,0.60158 -0.64684,0.86424c0.61682,-0.34475 1.2464,-0.66358 1.89929,-0.93547c1.39575,-0.58127 3.08476,-0.17123 4.46799,-0.78171c1.79437,-0.79193 2.97074,-2.771 4.85046,-3.33094c3.10276,-0.92426 6.30911,-0.6018 9.44342,-0.35524l1.55658,-0.64476c0,0 8.77532,-2.92511 11.70043,5.85021zM346.9165,26.67018c-1.14937,0.45353 -2.3496,0.83806 -3.43627,1.29705c0.64158,-0.02415 1.26816,-0.12253 1.83772,-0.40979c0.54382,-0.27428 1.07443,-0.5745 1.59855,-0.88726z" fill="#666666" fill-rule="nonzero" stroke="none" stroke-width="0.5" stroke-linecap="butt" stroke-linejoin="miter"/></g></g></svg>