<svg version="1.1" xmlns="http://www.w3.org/2000/svg" xmlns:xlink="http://www.w3.org/1999/xlink" width="215.48508" height="292.2932" viewBox="0,0,215.48508,292.2932"><defs><linearGradient x1="240.00007" y1="175.50003" x2="240.00007" y2="307.50003" gradientUnits="userSpaceOnUse" id="color-1"><stop offset="0" stop-color="#2a1d19"/><stop offset="1" stop-color="#825b4e"/></linearGradient><linearGradient x1="240" y1="89.11667" x2="240" y2="231.88951" gradientUnits="userSpaceOnUse" id="color-2"><stop offset="0" stop-color="#2a1d19"/><stop offset="1" stop-color="#825b4e"/></linearGradient><radialGradient cx="155.61519" cy="230.26773" r="107.74254" gradientUnits="userSpaceOnUse" id="color-3"><stop offset="0" stop-color="#2a1d19"/><stop offset="1" stop-color="#825b4e"/></radialGradient><radialGradient cx="243.75034" cy="139.7248" r="101.35785" gradientUnits="userSpaceOnUse" id="color-4"><stop offset="0" stop-color="#150000"/><stop offset="1" stop-color="#850000"/></radialGradient><linearGradient x1="203.78442" y1="119.99933" x2="203.78442" y2="166.96063" gradientUnits="userSpaceOnUse" id="color-5"><stop offset="0" stop-color="#919191"/><stop offset="1" stop-color="#865959"/></linearGradient><linearGradient x1="268.59049" y1="108.63096" x2="268.59049" y2="155.59226" gradientUnits="userSpaceOnUse" id="color-6"><stop offset="0" stop-color="#919191"/><stop offset="1" stop-color="#865959"/></linearGradient><linearGradient x1="267.10338" y1="166.85761" x2="267.12389" y2="172.63229" gradientUnits="userSpaceOnUse" id="color-7"><stop offset="0" stop-color="#363636"/><stop offset="1" stop-color="#636363"/></linearGradient><linearGradient x1="264.80089" y1="166.30242" x2="264.82541" y2="173.20386" gradientUnits="userSpaceOnUse" id="color-8"><stop offset="0" stop-color="#363636"/><stop offset="1" stop-color="#636363"/></linearGradient><linearGradient x1="261.41908" y1="165.89188" x2="261.44661" y2="173.6384" gradientUnits="userSpaceOnUse" id="color-9"><stop offset="0" stop-color="#363636"/><stop offset="1" stop-color="#636363"/></linearGradient><linearGradient x1="256.76868" y1="165.20418" x2="256.80122" y2="174.35914" gradientUnits="userSpaceOnUse" id="color-10"><stop offset="0" stop-color="#363636"/><stop offset="1" stop-color="#636363"/></linearGradient><linearGradient x1="245.35767" y1="164.54049" x2="245.39621" y2="175.3856" gradientUnits="userSpaceOnUse" id="color-11"><stop offset="0" stop-color="#363636"/><stop offset="1" stop-color="#636363"/></linearGradient><linearGradient x1="251.3676" y1="164.65997" x2="251.40413" y2="174.94172" gradientUnits="userSpaceOnUse" id="color-12"><stop offset="0" stop-color="#363636"/><stop offset="1" stop-color="#636363"/></linearGradient><linearGradient x1="217.11147" y1="166.89442" x2="217.13199" y2="172.6691" gradientUnits="userSpaceOnUse" id="color-13"><stop offset="0" stop-color="#363636"/><stop offset="1" stop-color="#636363"/></linearGradient><linearGradient x1="219.40996" y1="166.32287" x2="219.43448" y2="173.2243" gradientUnits="userSpaceOnUse" id="color-14"><stop offset="0" stop-color="#363636"/><stop offset="1" stop-color="#636363"/></linearGradient><linearGradient x1="222.78876" y1="165.88831" x2="222.81629" y2="173.63483" gradientUnits="userSpaceOnUse" id="color-15"><stop offset="0" stop-color="#363636"/><stop offset="1" stop-color="#636363"/></linearGradient><linearGradient x1="227.43415" y1="165.16759" x2="227.46668" y2="174.32255" gradientUnits="userSpaceOnUse" id="color-16"><stop offset="0" stop-color="#363636"/><stop offset="1" stop-color="#636363"/></linearGradient><linearGradient x1="238.84015" y1="164.42281" x2="238.8787" y2="175.26792" gradientUnits="userSpaceOnUse" id="color-17"><stop offset="0" stop-color="#363636"/><stop offset="1" stop-color="#636363"/></linearGradient><linearGradient x1="232.83123" y1="164.585" x2="232.86777" y2="174.86674" gradientUnits="userSpaceOnUse" id="color-18"><stop offset="0" stop-color="#363636"/><stop offset="1" stop-color="#636363"/></linearGradient><linearGradient x1="265.08359" y1="186.57176" x2="265.1442" y2="191.75529" gradientUnits="userSpaceOnUse" id="color-19"><stop offset="0" stop-color="#636363"/><stop offset="1" stop-color="#363636"/></linearGradient><linearGradient x1="263.0271" y1="187.32286" x2="263.09955" y2="193.51782" gradientUnits="userSpaceOnUse" id="color-20"><stop offset="0" stop-color="#636363"/><stop offset="1" stop-color="#363636"/></linearGradient><linearGradient x1="259.99837" y1="187.83246" x2="260.07969" y2="194.78598" gradientUnits="userSpaceOnUse" id="color-21"><stop offset="0" stop-color="#636363"/><stop offset="1" stop-color="#363636"/></linearGradient><linearGradient x1="255.82886" y1="188.10249" x2="255.92497" y2="196.32029" gradientUnits="userSpaceOnUse" id="color-22"><stop offset="0" stop-color="#636363"/><stop offset="1" stop-color="#363636"/></linearGradient><linearGradient x1="245.59784" y1="189.04402" x2="245.71168" y2="198.77896" gradientUnits="userSpaceOnUse" id="color-23"><stop offset="0" stop-color="#636363"/><stop offset="1" stop-color="#363636"/></linearGradient><linearGradient x1="250.98764" y1="188.60166" x2="251.09558" y2="197.83087" gradientUnits="userSpaceOnUse" id="color-24"><stop offset="0" stop-color="#636363"/><stop offset="1" stop-color="#363636"/></linearGradient><linearGradient x1="220.02141" y1="187.09873" x2="220.08202" y2="192.28226" gradientUnits="userSpaceOnUse" id="color-25"><stop offset="0" stop-color="#636363"/><stop offset="1" stop-color="#363636"/></linearGradient><linearGradient x1="222.09488" y1="187.80154" x2="222.16732" y2="193.99649" gradientUnits="userSpaceOnUse" id="color-26"><stop offset="0" stop-color="#636363"/><stop offset="1" stop-color="#363636"/></linearGradient><linearGradient x1="225.13469" y1="188.24017" x2="225.21601" y2="195.19369" gradientUnits="userSpaceOnUse" id="color-27"><stop offset="0" stop-color="#636363"/><stop offset="1" stop-color="#363636"/></linearGradient><linearGradient x1="229.3094" y1="188.41262" x2="229.4055" y2="196.63042" gradientUnits="userSpaceOnUse" id="color-28"><stop offset="0" stop-color="#636363"/><stop offset="1" stop-color="#363636"/></linearGradient><linearGradient x1="239.55965" y1="189.11463" x2="239.67349" y2="198.84957" gradientUnits="userSpaceOnUse" id="color-29"><stop offset="0" stop-color="#636363"/><stop offset="1" stop-color="#363636"/></linearGradient><linearGradient x1="234.16098" y1="188.79844" x2="234.2689" y2="198.02765" gradientUnits="userSpaceOnUse" id="color-30"><stop offset="0" stop-color="#636363"/><stop offset="1" stop-color="#363636"/></linearGradient></defs><g transform="translate(-136.29166,-33.88816)"><g data-paper-data="{&quot;isPaintingLayer&quot;:true}" fill-rule="nonzero" stroke-width="0" stroke-linecap="butt" stroke-linejoin="miter" stroke-miterlimit="10" stroke-dasharray="" stroke-dashoffset="0" style="mix-blend-mode: normal"><path d="M178.40899,326.18136v-267.22501h123.18203v267.22501z" fill-opacity="0.01" fill="#000000" stroke="none"/><path d="M206.75007,307.50002l15.14285,-131.8421l37.78325,-0.15789l13.57389,132z" fill="url(#color-1)" stroke="#000000"/><path d="M175.06777,149.415c0,-33.30185 28.7599,-60.29833 64.23702,-60.29833c35.47712,0 64.23702,26.99649 64.23702,60.29833c0,13.05014 4.0286,82.47451 4.0286,82.47451c0,0 -46.69107,-22.17618 -68.26562,-22.17618c-20.49118,0 -66.8752,20.6796 -66.8752,20.6796c0,0 2.63818,-66.91085 2.63818,-80.97793z" fill="url(#color-2)" stroke="#000000"/><g stroke="none"><g fill="url(#color-3)"><path d="M140.55264,217.80094l18.50323,-56.63564l-22.76421,-28.10776l29.94245,-18.10513l7.09554,-31.71783l38.21793,18.70714l24.49605,-68.05356l26.79509,75.86143l37.68426,-31.55798l2.13355,43.89763l49.12021,5.54972l-42.40356,30.14046l33.04464,49.17646l-45.26528,-12.16217l6.37467,47.47005l-50.48801,-34.25879l-15.02463,34.81375l-51.70255,-45.69321l-44.7831,47.98139z"/></g><g fill="url(#color-4)"><path d="M146.40098,214.46434l17.40675,-53.27948l-21.41523,-26.44213l28.1681,-17.03224l6.67506,-29.83827l35.95318,17.59858l23.04444,-64.02079l25.20724,71.36597l35.45114,-29.68789l2.00712,41.29631l46.20941,5.22085l-39.89077,28.35438l31.08645,46.26232l-42.58292,-11.44146l5.99691,44.65703l-47.49615,-32.22865l-14.13429,32.75073l-48.63872,-42.98549l-42.1293,45.13807z"/></g></g><path d="M180.30377,143.47998c0,-12.968 10.51265,-23.48065 23.48065,-23.48065c12.968,0 23.48065,10.51265 23.48065,23.48065c0,12.968 -10.51265,23.48065 -23.48065,23.48065c-12.968,0 -23.48065,-10.51265 -23.48065,-23.48065z" fill="url(#color-5)" stroke="#000000"/><path d="M190.3913,146.64687c0,-9.12808 7.39976,-16.52784 16.52783,-16.52784c9.12808,0 16.52784,7.39977 16.52784,16.52784c0,9.12808 -7.39977,16.52784 -16.52784,16.52784c-9.12808,0 -16.52783,-7.39977 -16.52783,-16.52784z" fill="#000000" stroke="none"/><path d="M268.59049,155.59226c-12.968,0 -23.48065,-10.51265 -23.48065,-23.48065c0,-12.968 10.51265,-23.48065 23.48065,-23.48065c12.968,0 23.48065,10.51265 23.48065,23.48065c0,12.968 -10.51265,23.48065 -23.48065,23.48065z" data-paper-data="{&quot;index&quot;:null}" fill="url(#color-6)" stroke="#000000"/><path d="M269.95899,155.38249c-9.12807,0 -16.52783,-7.39977 -16.52783,-16.52784c0,-9.12808 7.39977,-16.52784 16.52783,-16.52784c9.12807,0 16.52783,7.39977 16.52783,16.52784c0,9.12808 -7.39977,16.52784 -16.52783,16.52784z" data-paper-data="{&quot;index&quot;:null}" fill="#000000" stroke="none"/><g stroke="none"><g><path d="M265.30543,172.63875c0,0 -0.51507,-5.77291 1.85438,-5.78134c2.36944,-0.00842 1.74541,5.76854 1.74541,5.76854z" fill="url(#color-7)"/><path d="M262.65213,173.21158c0,0 -0.61557,-6.89934 2.21621,-6.90941c2.83177,-0.01007 2.08599,6.89411 2.08599,6.89411z" fill="url(#color-8)"/><path d="M259.0072,173.64707c0,0 -0.69095,-7.74416 2.48757,-7.75546c3.17853,-0.0113 2.34143,7.7383 2.34143,7.7383z" fill="url(#color-9)"/><path d="M253.91829,174.36938c0,0 -0.81659,-9.15217 2.93985,-9.16553c3.75644,-0.01336 2.76712,9.14524 2.76712,9.14524z" fill="url(#color-10)"/><path d="M241.98105,175.39774c0,0 -0.96732,-10.84181 3.48262,-10.85762c4.44994,-0.01581 3.27799,10.8336 3.27799,10.8336z" fill="url(#color-11)"/><path d="M248.16637,174.95322c0,0 -0.91707,-10.27862 3.30169,-10.2936c4.21877,-0.01499 3.10772,10.27083 3.10772,10.27083z" fill="url(#color-12)"/></g><g data-paper-data="{&quot;index&quot;:null}"><path d="M215.35066,172.67544c0,0 -0.66508,-5.77239 1.70436,-5.7808c2.36946,-0.00842 1.89543,5.76801 1.89543,5.76801z" fill="url(#color-13)"/><path d="M217.30557,173.23187c0,0 -0.79484,-6.89872 2.03694,-6.90878c2.83178,-0.01006 2.26527,6.89349 2.26527,6.89349z" fill="url(#color-14)"/><path d="M220.4267,173.64333c0,0 -0.89216,-7.74346 2.28636,-7.75475c3.17854,-0.0113 2.54263,7.73759 2.54263,7.73759z" fill="url(#color-15)"/><path d="M224.64262,174.33258c0,0 -1.05438,-9.15133 2.70206,-9.16468c3.75644,-0.01336 3.00493,9.1444 3.00493,9.1444z" fill="url(#color-16)"/><path d="M235.53325,175.2798c0,0 -1.24903,-10.84081 3.20092,-10.85662c4.44994,-0.01581 3.55969,10.8326 3.55969,10.8326z" fill="url(#color-17)"/><path d="M229.69612,174.87801c0,0 -1.18414,-10.27767 3.03463,-10.29266c4.21877,-0.01499 3.37477,10.26988 3.37477,10.26988z" fill="url(#color-18)"/></g></g><g stroke="none"><g><path d="M266.68255,186.55305c0,0 0.63918,5.17677 -1.48771,5.20165c-2.12689,0.02487 -1.74357,-5.16386 -1.74357,-5.16386z" fill="url(#color-19)"/><path d="M264.93808,187.30052c0,0 0.76391,6.18687 -1.778,6.21659c-2.54188,0.02972 -2.0838,-6.17143 -2.0838,-6.17143z" fill="url(#color-20)"/><path d="M262.14336,187.80738c0,0 0.85743,6.94444 -1.9957,6.97781c-2.85315,0.03337 -2.33896,-6.92712 -2.33896,-6.92712z" fill="url(#color-21)"/><path d="M258.36383,188.07284c0,0 1.01334,8.20707 -2.35856,8.24651c-3.3719,0.03943 -2.76423,-8.18659 -2.76423,-8.18659z" fill="url(#color-22)"/><path d="M248.6008,189.0089c0,0 1.2004,9.72221 -2.79399,9.76893c-3.9944,0.04671 -3.27454,-9.69797 -3.27454,-9.69797z" fill="url(#color-23)"/><path d="M253.83461,188.56837c0,0 1.13807,9.21717 -2.64885,9.26145c-3.7869,0.04428 -3.10443,-9.19418 -3.10443,-9.19418z" fill="url(#color-24)"/></g><g data-paper-data="{&quot;index&quot;:null}"><path d="M221.65371,187.07964c0,0 0.50455,5.17835 -1.62233,5.20321c-2.12689,0.02487 -1.60894,-5.16543 -1.60894,-5.16543z" fill="url(#color-25)"/><path d="M224.0457,187.77873c0,0 0.60298,6.18875 -1.93891,6.21847c-2.54188,0.02972 -1.92289,-6.17331 -1.92289,-6.17331z" fill="url(#color-26)"/><path d="M227.32439,188.21456c0,0 0.67682,6.94656 -2.17632,6.97992c-2.85314,0.03337 -2.15833,-6.92923 -2.15833,-6.92923z" fill="url(#color-27)"/><path d="M231.8972,188.38236c0,0 0.79989,8.20956 -2.57201,8.249c-3.3719,0.03943 -2.55077,-8.18909 -2.55077,-8.18909z" fill="url(#color-28)"/><path d="M242.62521,189.07878c0,0 0.94756,9.72517 -3.04686,9.77189c-3.9944,0.04671 -3.02167,-9.70092 -3.02167,-9.70092z" fill="url(#color-29)"/><path d="M237.06728,188.76445c0,0 0.89834,9.21998 -2.88857,9.26427c-3.7869,0.04428 -2.86472,-9.19698 -2.86472,-9.19698z" fill="url(#color-30)"/></g></g></g></g></svg>