<svg version="1.1" xmlns="http://www.w3.org/2000/svg" xmlns:xlink="http://www.w3.org/1999/xlink" width="34.17311" height="34.17311" viewBox="0,0,34.17311,34.17311"><g transform="translate(-222.91344,-162.91344)"><g data-paper-data="{&quot;isPaintingLayer&quot;:true}" stroke-miterlimit="10" stroke-dasharray="" stroke-dashoffset="0" style="mix-blend-mode: normal"><path d="M229.9831,162.91345h20.03379c3.9166,0 7.06966,3.15307 7.06966,7.06966v20.03379c0,3.91659 -3.15306,7.06966 -7.06966,7.06966h-20.03379c-3.91659,0 -7.06966,-3.15307 -7.06966,-7.06966v-20.03379c0,-3.91659 3.15307,-7.06966 7.06966,-7.06966z" fill-opacity="0.09677" fill="#191919" fill-rule="evenodd" stroke="none" stroke-width="4.43922" stroke-linecap="round" stroke-linejoin="round"/><path d="M229.98311,162.91345h20.03379c3.9166,0 7.06966,3.15307 7.06966,7.06966v20.03379c0,3.91659 -3.15306,7.06966 -7.06966,7.06966h-20.03379c-3.91659,0 -7.06966,-3.15307 -7.06966,-7.06966v-20.03379c0,-3.91659 3.15307,-7.06966 7.06966,-7.06966z" fill="#404040" fill-rule="evenodd" stroke="none" stroke-width="4.43922" stroke-linecap="round" stroke-linejoin="round"/><g fill-rule="nonzero" stroke="#000000" stroke-width="0.5" stroke-linecap="butt" stroke-linejoin="miter"><path d="M235.28528,184.10652l-8.3924,-8.3924l0.8792,-0.8792l8.3924,8.3924z" fill="#1a1a1a"/><path d="M225.2144,177.3926c-1.16978,-1.16978 -1.16978,-3.06638 0,-4.23617c1.16978,-1.16978 3.06638,-1.16978 4.23617,0c1.16978,1.16978 1.16978,3.06638 0,4.23617c-1.16978,1.16978 -3.06638,1.16978 -4.23617,0z" fill="#404040"/></g><g data-paper-data="{&quot;index&quot;:null}" fill-rule="nonzero" stroke="#000000" stroke-width="0.5" stroke-linecap="butt" stroke-linejoin="miter"><path d="M243.83556,183.22731l8.3924,-8.3924l0.8792,0.8792l-8.3924,8.3924z" fill="#1a1a1a"/><path d="M250.54948,177.3926c-1.16978,-1.16978 -1.16978,-3.06638 0,-4.23617c1.16978,-1.16978 3.06638,-1.16978 4.23617,0c1.16978,1.16978 1.16978,3.06638 0,4.23617c-1.16978,1.16978 -3.06638,1.16978 -4.23617,0z" fill="#404040"/></g><path d="M229.04684,187.72097c0,-5.6464 4.8763,-10.22371 10.89152,-10.22371c6.01522,0 10.89153,4.57732 10.89153,10.22371" fill="#404040" fill-rule="nonzero" stroke="#000000" stroke-width="0.5" stroke-linecap="butt" stroke-linejoin="miter"/><path d="M235.12502,179.33207l4.70189,-3.67974l-0.27257,2.31688l4.87224,-2.35094l-0.98808,4.36117" data-paper-data="{&quot;index&quot;:null}" fill="#404040" fill-rule="nonzero" stroke="#000000" stroke-width="0.5" stroke-linecap="round" stroke-linejoin="miter"/></g></g></svg>