<svg version="1.1" xmlns="http://www.w3.org/2000/svg" xmlns:xlink="http://www.w3.org/1999/xlink" width="128.47404" height="267.22501" viewBox="0,0,128.47404,267.22501"><defs><linearGradient x1="240.00005" y1="175.50004" x2="240.00005" y2="307.50004" gradientUnits="userSpaceOnUse" id="color-1"><stop offset="0" stop-color="#001112"/><stop offset="1" stop-color="#00454c"/></linearGradient><linearGradient x1="252.70621" y1="93.81335" x2="252.70621" y2="214.41001" gradientUnits="userSpaceOnUse" id="color-2"><stop offset="0" stop-color="#001112"/><stop offset="1" stop-color="#00454c"/></linearGradient><linearGradient x1="214.09367" y1="110.77944" x2="227.49425" y2="138.11401" gradientUnits="userSpaceOnUse" id="color-3"><stop offset="0" stop-color="#1a0000"/><stop offset="1" stop-color="#800000"/></linearGradient><linearGradient x1="292.05749" y1="111.77656" x2="278.65691" y2="139.11112" gradientUnits="userSpaceOnUse" id="color-4"><stop offset="0" stop-color="#1a0000"/><stop offset="1" stop-color="#800000"/></linearGradient><linearGradient x1="260.96001" y1="71.79794" x2="260.96001" y2="163.27812" gradientUnits="userSpaceOnUse" id="color-5"><stop offset="0" stop-color="#000000"/><stop offset="1" stop-color="#393939"/></linearGradient></defs><g transform="translate(-188.46919,-63.31966)"><g data-paper-data="{&quot;isPaintingLayer&quot;:true}" fill-rule="nonzero" stroke-linejoin="miter" stroke-miterlimit="10" stroke-dasharray="" stroke-dashoffset="0" style="mix-blend-mode: normal"><path d="M240.22996,267.92832v-64.20634h6.12456v64.20634z" fill="#3a3a3a" stroke="none" stroke-width="0" stroke-linecap="butt"/><path d="M206.75005,307.50002l15.14285,-131.8421l37.78325,-0.15789l3.87116,37.64524c-1.40964,-0.75937 -3.0224,-1.19029 -4.7358,-1.19029c-4.06727,0 -7.56741,2.42818 -9.12985,5.91399c-5.05137,0.50361 -8.99593,4.76626 -8.99593,9.95022c0,1.94014 0.55251,3.75123 1.50877,5.28451c-0.36319,0.72712 -0.64039,1.50468 -0.81829,2.31937c-1.47942,1.74348 -2.3718,4.00074 -2.3718,6.46643c0,3.27493 1.57427,6.18216 4.00733,8.00624c0.13881,4.70065 3.5216,8.58699 7.9869,9.49753c-0.09575,0.55569 -0.14565,1.12707 -0.14565,1.7101c0,5.52285 4.47716,10 10,10c3.40148,0 6.4063,-1.69829 8.2128,-4.2932l4.18424,40.68985z" fill="url(#color-1)" stroke="#000000" stroke-width="0" stroke-linecap="butt"/><path d="M259.16445,219.27754l-16.46857,3.69706l-0.09061,-6.11439l16.46857,-3.69706z" fill="#3a3a3a" stroke="none" stroke-width="0" stroke-linecap="butt"/><path d="M260.80566,252.61645l-16.46856,3.69707l-0.09061,-6.1144l16.46857,-3.69706z" fill="#3a3a3a" stroke="none" stroke-width="0" stroke-linecap="butt"/><path d="M260.21345,235.54722l-16.46856,3.69706l-0.09061,-6.11439l16.46857,-3.69706z" fill="#3a3a3a" stroke="none" stroke-width="0" stroke-linecap="butt"/><path d="M191.03823,330.54468v-267.22501h123.18203v267.22501z" fill-opacity="0.01" fill="#000000" stroke="none" stroke-width="0" stroke-linecap="butt"/><path d="M188.46919,154.11168c0,-33.30185 28.7599,-60.29833 64.23702,-60.29833c35.47712,0 64.23702,26.99649 64.23702,60.29833c0,33.30185 -28.7599,60.29833 -64.23702,60.29833c-35.47712,0 -64.23702,-26.99649 -64.23702,-60.29833z" fill="url(#color-2)" stroke="#000000" stroke-width="0" stroke-linecap="butt"/><path d="M233.62948,134.33593c0,0 -2.81673,-4.94325 -4.10214,-6.97627c-1.97261,-3.11993 -7.09089,-6.54126 -7.09089,-6.54126c0,0 0.75124,3.22314 0.4047,6.3203c-0.30517,2.72751 2.15085,2.91128 -0.1723,4.21228c-1.16619,0.65308 -2.32981,-0.90585 -2.65107,-2.64634c-0.29631,-1.6053 -1.30261,-2.65121 -1.30261,-2.65121c0,0 -0.68984,3.74672 -1.51752,4.08932c-0.62629,0.25923 -1.58884,1.39171 -1.92475,2.49456c-0.70873,2.3269 -0.41849,5.32151 -0.86767,5.31853c-0.16401,-0.00108 -1.35479,-3.12221 -1.60294,-6.71279c-0.18033,-2.60902 0.54364,-6.0064 0.54364,-6.0064c0,0 -1.25458,3.04058 -2.84759,3.20822c-0.64079,0.06743 -1.12147,1.07437 -1.05674,1.94824c0.09621,1.29856 0.81001,2.66463 -0.75321,3.13987c-0.88809,0.27 -2.20936,-0.43667 -2.80233,-1.87122c-0.74199,-1.79506 -0.64977,-4.44193 -0.64977,-4.44193c0,0 -0.56856,1.23771 -0.5246,2.22703c0.05938,1.33631 0.60832,2.53375 -0.71985,2.57131c-0.72436,0.02048 -1.35595,-0.73247 -1.83491,-1.57799c-0.6028,-1.06411 -0.96385,-2.27482 -0.96385,-2.27482l-0.28564,8.49678c0,0 -2.67902,-4.27297 -3.40206,-6.93086c-0.64839,-2.38347 0.14637,-6.61703 0.14637,-6.61703c0,0 11.02845,-14.17417 16.65833,-17.34629c6.84762,-3.85825 18.52644,-9.2466 18.52644,-9.2466c0,0 -2.21035,16.82302 -2.42033,22.41252c-0.22011,5.8593 3.21328,15.4021 3.21328,15.4021z" data-paper-data="{&quot;index&quot;:null}" fill="url(#color-3)" stroke="#000000" stroke-width="0" stroke-linecap="butt"/><path d="M202.01942,154.20782c0,-12.968 10.51265,-23.48065 23.48065,-23.48065c12.968,0 23.48065,10.51265 23.48065,23.48065c0,12.968 -10.51265,23.48065 -23.48065,23.48065c-12.968,0 -23.48065,-10.51265 -23.48065,-23.48065z" fill="#808080" stroke="#000000" stroke-width="0" stroke-linecap="butt"/><path d="M272.52169,135.33309c0,0 3.43339,-9.5428 3.21328,-15.4021c-0.20998,-5.5895 -2.42033,-22.41252 -2.42033,-22.41252c0,0 11.67882,5.38835 18.52644,9.2466c5.62988,3.17212 16.65833,17.34629 16.65833,17.34629c0,0 0.79476,4.23356 0.14637,6.61703c-0.72304,2.65789 -3.40206,6.93086 -3.40206,6.93086l-0.28564,-8.49678c0,0 -0.36105,1.21071 -0.96385,2.27482c-0.47896,0.84552 -1.11055,1.59847 -1.83491,1.57799c-1.32817,-0.03756 -0.77923,-1.235 -0.71985,-2.57131c0.04396,-0.98932 -0.5246,-2.22703 -0.5246,-2.22703c0,0 0.09222,2.64687 -0.64977,4.44193c-0.59297,1.43455 -1.91424,2.14122 -2.80233,1.87122c-1.56322,-0.47524 -0.84942,-1.84131 -0.75321,-3.13987c0.06473,-0.87387 -0.41595,-1.88081 -1.05674,-1.94824c-1.59301,-0.16764 -2.84759,-3.20822 -2.84759,-3.20822c0,0 0.72397,3.39738 0.54364,6.0064c-0.24815,3.59058 -1.43893,6.71171 -1.60294,6.71279c-0.44918,0.00298 -0.15894,-2.99163 -0.86767,-5.31853c-0.33591,-1.10285 -1.29846,-2.23533 -1.92475,-2.49456c-0.82768,-0.3426 -1.51752,-4.08932 -1.51752,-4.08932c0,0 -1.0063,1.04591 -1.30261,2.65121c-0.32126,1.74049 -1.48488,3.29942 -2.65107,2.64634c-2.32315,-1.301 0.13287,-1.48477 -0.1723,-4.21228c-0.34654,-3.09716 0.4047,-6.3203 0.4047,-6.3203c0,0 -5.11828,3.42133 -7.09089,6.54126c-1.28541,2.03302 -4.10214,6.97627 -4.10214,6.97627z" data-paper-data="{&quot;index&quot;:null}" fill="url(#color-4)" stroke="#000000" stroke-width="0" stroke-linecap="butt"/><path d="M279.7585,177.68845c-12.968,0 -23.48065,-10.51265 -23.48065,-23.48065c0,-12.968 10.51265,-23.48065 23.48065,-23.48065c12.968,0 23.48065,10.51265 23.48065,23.48065c0,12.968 -10.51265,23.48065 -23.48065,23.48065z" data-paper-data="{&quot;index&quot;:null}" fill="#808080" stroke="#000000" stroke-width="0" stroke-linecap="butt"/><path d="M214.70768,154.35258c0,-8.29964 6.72818,-15.02784 15.02783,-15.02784c8.29964,0 15.02784,6.72819 15.02784,15.02785c0,8.29964 -6.72819,15.02785 -15.02784,15.02785c-8.29964,0 -15.02783,-6.72819 -15.02783,-15.02785z" fill="#8c0000" stroke="#000000" stroke-width="5" stroke-linecap="butt"/><path d="M301.31839,154.07212c0,8.29966 -6.72818,15.02785 -15.02783,15.02785c-8.29964,0 -15.02784,-6.72821 -15.02784,-15.02785c0,-8.29966 6.7282,-15.02785 15.02784,-15.02785c8.29964,0 15.02783,6.7282 15.02783,15.02784z" data-paper-data="{&quot;index&quot;:null}" fill="#8c0000" stroke="#000000" stroke-width="5" stroke-linecap="butt"/><path d="M214.65712,125.39935c0,0 6.70895,-5.16922 11.79722,-6.36355c5.08827,-1.19433 12.33413,0.69937 12.33413,0.69937c0,0 -8.03812,-0.06028 -11.96762,0.86207c-4.10648,0.96388 -12.16372,4.80211 -12.16372,4.80211z" fill="#000000" stroke="none" stroke-width="0" stroke-linecap="butt"/><path d="M278.5916,120.59725c-3.9295,-0.92235 -11.96762,-0.86207 -11.96762,-0.86207c0,0 7.24586,-1.8937 12.33413,-0.69937c5.08826,1.19433 11.79721,6.36355 11.79721,6.36355c0,0 -8.05724,-3.83822 -12.16372,-4.80211z" data-paper-data="{&quot;index&quot;:null}" fill="#000000" stroke="none" stroke-width="0" stroke-linecap="butt"/><g stroke="#000000" stroke-width="0" stroke-linecap="butt"><path d="M278.40887,118.5002c1.8063,46.17332 1.29764,44.59324 -5.68642,44.77377c-7.69227,0.19883 -5.28562,-6.65741 -5.86248,-37.44479c-0.34579,-18.45472 -2.6129,-39.89146 -3.03857,-40.04414c-3.64553,-1.30756 -3.3829,2.65201 -6.97967,7.56499c-0.77328,1.05626 -4.29428,0.21982 -8.03031,0.29539c-2.82097,0.05706 -6.18895,1.44287 -6.18895,-0.018c0,-0.66147 6.41567,-21.82948 16.6912,-21.82948c10.54598,0 17.42745,4.07085 19.09519,46.70227z" fill="url(#color-5)"/><path d="M263.40687,185.09171c-4.24996,-5.62901 -4.94842,-17.38252 0.68059,-24.83806c5.62901,-7.45553 13.7429,-6.34946 17.99286,-0.72045c4.24996,5.62901 7.06373,19.09328 1.32108,26.69933c-2.03051,2.68937 -7.63574,2.83701 -10.28869,3.208c-4.8501,0.67824 -6.95859,-0.71014 -9.70584,-4.34882z" fill="#000000"/></g><path d="M239.35382,192.13989c0,0 4.93308,-4.26062 12.19893,-4.14285c8.81398,0.14285 12.91066,4.14285 12.91066,4.14285" data-paper-data="{&quot;index&quot;:null}" fill="none" stroke="#000000" stroke-width="2" stroke-linecap="round"/></g></g></svg>