<svg version="1.1" xmlns="http://www.w3.org/2000/svg" xmlns:xlink="http://www.w3.org/1999/xlink" width="198.15815" height="267.22501" viewBox="0,0,198.15815,267.22501"><defs><linearGradient x1="327.15089" y1="50.78248" x2="327.15089" y2="100.99276" gradientUnits="userSpaceOnUse" id="color-1"><stop offset="0" stop-color="#524302"/><stop offset="1" stop-color="#b79604"/></linearGradient><linearGradient x1="327.15089" y1="50.78248" x2="327.15089" y2="100.99276" gradientUnits="userSpaceOnUse" id="color-2"><stop offset="0" stop-color="#524302"/><stop offset="1" stop-color="#b79604"/></linearGradient><linearGradient x1="155.55573" y1="47.28246" x2="155.55573" y2="97.49274" gradientUnits="userSpaceOnUse" id="color-3"><stop offset="0" stop-color="#524302"/><stop offset="1" stop-color="#b79604"/></linearGradient><linearGradient x1="240.00005" y1="175.50003" x2="240.00005" y2="307.50001" gradientUnits="userSpaceOnUse" id="color-4"><stop offset="0" stop-color="#222214"/><stop offset="1" stop-color="#717042"/></linearGradient><linearGradient x1="239.91032" y1="82.54784" x2="239.91032" y2="203.1445" gradientUnits="userSpaceOnUse" id="color-5"><stop offset="0" stop-color="#222214"/><stop offset="1" stop-color="#717042"/></linearGradient><linearGradient x1="211.34722" y1="156.4948" x2="211.34722" y2="189.99481" gradientUnits="userSpaceOnUse" id="color-6"><stop offset="0" stop-color="#1a0000"/><stop offset="1" stop-color="#800000"/></linearGradient><linearGradient x1="212.37083" y1="119.79499" x2="212.37083" y2="166.75629" gradientUnits="userSpaceOnUse" id="color-7"><stop offset="0" stop-color="#808080"/><stop offset="1" stop-color="#804040"/></linearGradient><linearGradient x1="265.34722" y1="157.4948" x2="265.34722" y2="190.99481" gradientUnits="userSpaceOnUse" id="color-8"><stop offset="0" stop-color="#1a0000"/><stop offset="1" stop-color="#800000"/></linearGradient><linearGradient x1="266.62926" y1="119.79498" x2="266.62926" y2="166.75629" gradientUnits="userSpaceOnUse" id="color-9"><stop offset="0" stop-color="#808080"/><stop offset="1" stop-color="#804040"/></linearGradient><linearGradient x1="251.84722" y1="214.32813" x2="251.84722" y2="291.82813" gradientUnits="userSpaceOnUse" id="color-10"><stop offset="0" stop-color="#1a0000"/><stop offset="1" stop-color="#800000"/></linearGradient><linearGradient x1="203.92469" y1="119.74597" x2="211.64051" y2="141.94077" gradientUnits="userSpaceOnUse" id="color-11"><stop offset="0" stop-color="#222214"/><stop offset="1" stop-color="#717042"/></linearGradient><linearGradient x1="266.27573" y1="118.89708" x2="266.37704" y2="142.39459" gradientUnits="userSpaceOnUse" id="color-12"><stop offset="0" stop-color="#222214"/><stop offset="1" stop-color="#717042"/></linearGradient></defs><g transform="translate(-134.28347,-46.3875)"><g data-paper-data="{&quot;isPaintingLayer&quot;:true}" fill-rule="nonzero" stroke-linecap="butt" stroke-linejoin="miter" stroke-miterlimit="10" stroke-dasharray="" stroke-dashoffset="0" style="mix-blend-mode: normal"><path d="M178.40899,313.61251v-267.22501h123.18203v267.22501z" fill-opacity="0.01" fill="#000000" stroke="none" stroke-width="0"/><path d="M213.75006,299.00001l13.25862,-115.43693l33.08186,-0.13824l1.86983,18.18325c-0.27985,-0.01312 -0.56139,-0.01975 -0.84449,-0.01975c-9.79217,0 -17.73028,7.93812 -17.73028,17.73028c0,1.16038 0.11147,2.29473 0.32429,3.39292c-2.23226,2.28807 -3.60768,5.41594 -3.60768,8.86505c0,1.52143 0.26763,2.98036 0.75837,4.33227c-1.996,2.86867 -3.16618,6.35499 -3.16618,10.11462c0,9.79217 7.93812,17.73028 17.73028,17.73028c0.80857,0 1.60451,-0.05413 2.38437,-0.15895c2.48689,4.05678 6.55991,7.03614 11.35594,8.07498l2.81044,27.33021z" fill="#210000" stroke="#000000" stroke-width="0"/><g data-paper-data="{&quot;index&quot;:null}" stroke="#000000" stroke-width="0"><path d="M256.11398,155.80014l46.35331,-64.19868c1.98824,-1.61047 3.54198,-3.73629 4.45795,-6.1742l2.16632,-3.00032l6.48603,4.6831l-52.97758,73.3732z" fill="#ab9e65"/><path d="M320.83534,100.99276l-14.97483,-13.33421c1.2627,-2.15083 1.98671,-4.65608 1.98671,-7.33042c0,-2.4172 -0.59147,-4.69625 -1.63757,-6.70032l0.26026,-0.3903l12.17876,8.8928l9.06382,-19.44549c1.32275,1.42649 2.92899,2.5864 4.72913,3.39014c-4.52328,2.45445 -7.59441,7.24516 -7.59441,12.75317c0,2.94791 0.8797,5.69035 2.39091,7.97913z" fill="url(#color-1)"/><path d="" fill="url(#color-2)"/></g><g stroke="#000000" stroke-width="0"><path d="M220.10661,156.98325l-52.97758,-73.3732l4.66002,-3.36467c0.5119,0.05469 1.03176,0.08274 1.55817,0.08274c0.41827,0 0.8324,-0.01771 1.24168,-0.05242l52.00374,72.02444z" fill="#ab9e65"/><path d="M149.44628,47.28246l9.52209,20.42867c0.39311,3.03145 1.72247,5.76911 3.68856,7.91343l1.40101,3.00572l1.1221,-0.81935c2.32594,1.58837 5.13809,2.51719 8.16717,2.51719c3.06069,0 5.8999,-0.9483 8.23983,-2.56712l0.91043,1.36531l-20.6262,18.36643l-10.78738,-23.89963c0.17281,-0.89506 0.26332,-1.81945 0.26332,-2.76498c0,-8.00813 -6.49187,-14.5 -14.5,-14.5c-0.87484,0 -1.73158,0.07747 -2.56374,0.22594z" fill="url(#color-3)"/></g><path d="M234.63436,217.57944c0,-4.37992 1.46921,-8.00701 6.46501,-7.93055c5.60666,0.08582 6.71367,4.07933 6.71367,8.45925c0,4.37992 0.39002,9.25231 -3.6055,10.70624c-3.89783,1.4184 -9.57319,-6.85503 -9.57319,-11.23494z" fill="#330000" stroke="none" stroke-width="0"/><path d="M206.75006,307.50001l15.14285,-131.8421l37.78325,-0.15789l2.13556,20.76734c-0.31962,-0.01499 -0.64117,-0.02256 -0.9645,-0.02256c-11.18377,0 -20.25,9.06623 -20.25,20.25c0,1.32529 0.12731,2.62084 0.37038,3.8751c-2.5495,2.61324 -4.12038,6.18562 -4.12038,10.1249c0,1.73765 0.30566,3.40391 0.86614,4.94795c-2.27966,3.27635 -3.61614,7.25812 -3.61614,11.55205c0,11.18377 9.06623,20.25 20.25,20.25c0.92348,0 1.83253,-0.06182 2.72322,-0.18154c2.84031,4.6333 7.49216,8.03607 12.96977,9.22255l3.20984,31.21421z" fill="url(#color-4)" stroke="#000000" stroke-width="0"/><path d="M175.6733,142.84616c0,-33.30185 28.7599,-60.29833 64.23702,-60.29833c35.47712,0 64.23702,26.99649 64.23702,60.29833c0,33.30185 -28.7599,60.29833 -64.23702,60.29833c-35.47712,0 -64.23702,-26.99649 -64.23702,-60.29833z" fill="url(#color-5)" stroke="#000000" stroke-width="0"/><path d="M198.18055,183.66146c-0.8836,-13.21293 -2.33333,-27.16666 -2.33333,-27.16666h31l-1.40149,27.52759c0,0 -1.12831,-13.53572 -1.59851,-13.02759c-3.93951,4.25722 -0.20122,-5.18194 -5.18316,-4.79653c-1.21481,0.09398 -0.64708,22.23802 -2.19992,23.98387c-1.27033,1.42822 -1.69933,-22.22643 -3.20316,-21.55257c-1.29377,0.57973 -2.02107,12.68131 -3.44288,14.55305c-0.80998,1.06629 -1.34085,-16.31243 -1.48567,-15.12576c-0.84507,6.92431 -0.13279,12.99595 -1.94849,16.54398c-1.19561,2.33632 -1.57278,-17.93538 -2.47665,-17.5922c-1.49728,0.56849 -5.64982,17.80294 -5.72673,16.65283z" fill="url(#color-6)" stroke="#ffffff" stroke-width="0"/><path d="M188.89018,143.27565c0,-12.968 10.51265,-23.48065 23.48065,-23.48065c12.968,0 23.48065,10.51265 23.48065,23.48065c0,12.968 -10.51265,23.48065 -23.48065,23.48065c-12.968,0 -23.48065,-10.51265 -23.48065,-23.48065z" fill="url(#color-7)" stroke="#000000" stroke-width="0"/><path d="M272.78715,168.00863c-0.90388,-0.34318 -1.28104,19.92852 -2.47665,17.5922c-1.8157,-3.54803 -1.10343,-9.61968 -1.94849,-16.54398c-0.14483,-1.18667 -0.6757,16.19206 -1.48568,15.12576c-1.42181,-1.87174 -2.14911,-13.97332 -3.44288,-14.55305c-1.50383,-0.67386 -1.93284,22.9808 -3.20316,21.55257c-1.55284,-1.74585 -0.98511,-23.88989 -2.19992,-23.98387c-4.98194,-0.38541 -1.24365,9.05375 -5.18316,4.79653c-0.4702,-0.50813 -1.59851,13.02759 -1.59851,13.02759l-1.40149,-27.52759h31c0,0 -1.44973,13.95374 -2.33333,27.16666c-0.07691,1.15011 -4.22946,-16.08434 -5.72674,-16.65283z" data-paper-data="{&quot;index&quot;:null}" fill="url(#color-8)" stroke="#ffffff" stroke-width="0"/><path d="M266.62926,166.75629c-12.968,0 -23.48065,-10.51265 -23.48065,-23.48065c0,-12.968 10.51265,-23.48065 23.48065,-23.48065c12.968,0 23.48065,10.51265 23.48065,23.48065c0,12.968 -10.51265,23.48065 -23.48065,23.48065z" data-paper-data="{&quot;index&quot;:null}" fill="url(#color-9)" stroke="#000000" stroke-width="0"/><path d="M201.52785,114.46717c0,0 6.70895,-5.16922 11.79721,-6.36355c5.08827,-1.19433 12.33413,0.69937 12.33413,0.69937c0,0 -8.03812,-0.06028 -11.96762,0.86207c-4.10648,0.96389 -12.16372,4.80211 -12.16372,4.80211z" fill="#000000" stroke="none" stroke-width="0"/><path d="M265.46236,109.66507c-3.9295,-0.92235 -11.96762,-0.86207 -11.96762,-0.86207c0,0 7.24586,-1.8937 12.33413,-0.69937c5.08826,1.19433 11.79721,6.36355 11.79721,6.36355c0,0 -8.05724,-3.83822 -12.16372,-4.80211z" data-paper-data="{&quot;index&quot;:null}" fill="#000000" stroke="none" stroke-width="0"/><path d="M195.45557,147c0,-9.12808 7.39976,-16.52784 16.52783,-16.52784c9.12808,0 16.52784,7.39977 16.52784,16.52784c0,9.12808 -7.39977,16.52784 -16.52784,16.52784c-9.12808,0 -16.52783,-7.39977 -16.52783,-16.52784z" fill="#000000" stroke="none" stroke-width="0"/><path d="M266.51671,163.02785c-9.12807,0 -16.52783,-7.39977 -16.52783,-16.52784c0,-9.12808 7.39977,-16.52784 16.52783,-16.52784c9.12807,0 16.52783,7.39977 16.52783,16.52784c0,9.12808 -7.39977,16.52784 -16.52783,16.52784z" data-paper-data="{&quot;index&quot;:null}" fill="#000000" stroke="none" stroke-width="0"/><path d="M237.34722,291.82813v-34c0,0 2.338,4.68539 7.13472,6.67523c3.75145,1.55623 12.74038,2.06675 12.74038,2.06675l9.6249,9.25801c0,0 -2.71509,14.48238 -6.44039,11.81179c-2.98596,-2.14057 -4.15725,-5.37941 -4.09106,-6.49882c0.13267,-2.2437 0.11423,17.83503 -1.65402,15.64357c-1.95939,-2.42834 -3.7044,-17.22877 -4.92292,-21.70722c-0.7629,-2.8039 -1.67028,13.78517 -3.97417,12.38672c-3.08701,-1.8738 -2.77576,-14.63604 -4.41743,-14.63604c-3.12925,0 -4.00001,19.00001 -4.00001,19.00001z" fill="url(#color-10)" stroke="#ffffff" stroke-width="0"/><path d="M189.45623,149.63484c-4.25824,-12.24895 2.21952,-25.63065 14.46847,-29.88889c12.24895,-4.25824 25.63065,2.21951 29.88889,14.46846c0,0 -13.60448,-10.75405 -27.10477,-6.60477c-14.08821,4.32997 -17.0501,22.60762 -17.25257,22.0252z" fill="url(#color-11)" stroke="#000000" stroke-width="0"/><path d="M242.89653,142.47875c-0.05591,-12.96789 10.41132,-23.52576 23.37921,-23.58167c12.96789,-0.05591 23.52576,10.41131 23.58167,23.3792c0,0 -9.71518,-18.58466 -23.83146,-19.03762c-14.73101,-0.47268 -23.12675,19.85669 -23.12941,19.24009z" fill="url(#color-12)" stroke="#000000" stroke-width="0"/><path d="M245,182.00001c0,4.14213 -2.46243,7.5 -5.5,7.5c-3.03757,0 -5.5,-3.35787 -5.5,-7.5c0,-4.14213 2.46243,-7.5 5.5,-7.5c3.03757,0 5.5,3.35787 5.5,7.5z" fill="#000000" stroke="#000000" stroke-width="2"/></g></g></svg>