<svg version="1.1" xmlns="http://www.w3.org/2000/svg" xmlns:xlink="http://www.w3.org/1999/xlink" width="214.41115" height="267.22501" viewBox="0,0,214.41115,267.22501"><defs><linearGradient x1="261.17445" y1="112.64242" x2="333.15277" y2="112.64242" gradientUnits="userSpaceOnUse" id="color-1"><stop offset="0" stop-color="#000000"/><stop offset="1" stop-color="#3d2900"/></linearGradient><linearGradient x1="118.74158" y1="130.11175" x2="189.1233" y2="130.11175" gradientUnits="userSpaceOnUse" id="color-2"><stop offset="0" stop-color="#3d2900"/><stop offset="1" stop-color="#000000"/></linearGradient><linearGradient x1="284.10148" y1="148.19162" x2="284.10148" y2="195.53793" gradientUnits="userSpaceOnUse" id="color-3"><stop offset="0" stop-color="#605540"/><stop offset="1" stop-color="#938567"/></linearGradient><linearGradient x1="312.31086" y1="174.91481" x2="312.31086" y2="210.25051" gradientUnits="userSpaceOnUse" id="color-4"><stop offset="0" stop-color="#0e0900"/><stop offset="1" stop-color="#885b00"/></linearGradient><linearGradient x1="169.24737" y1="140.83819" x2="169.24737" y2="188.01672" gradientUnits="userSpaceOnUse" id="color-5"><stop offset="0" stop-color="#605540"/><stop offset="1" stop-color="#938567"/></linearGradient><linearGradient x1="140.97146" y1="167.38662" x2="140.97146" y2="202.72239" gradientUnits="userSpaceOnUse" id="color-6"><stop offset="0" stop-color="#0e0900"/><stop offset="1" stop-color="#885b00"/></linearGradient><linearGradient x1="240.00007" y1="175.50006" x2="240.00007" y2="307.50005" gradientUnits="userSpaceOnUse" id="color-7"><stop offset="0" stop-color="#0e0900"/><stop offset="1" stop-color="#885b00"/></linearGradient><linearGradient x1="225.94696" y1="78.98332" x2="225.94696" y2="199.58" gradientUnits="userSpaceOnUse" id="color-8"><stop offset="0" stop-color="#0e0900"/><stop offset="1" stop-color="#885b00"/></linearGradient></defs><g transform="translate(-118.74159,-48.74979)"><g data-paper-data="{&quot;isPaintingLayer&quot;:true}" fill-rule="nonzero" stroke-linejoin="miter" stroke-miterlimit="10" stroke-dasharray="" stroke-dashoffset="0" style="mix-blend-mode: normal"><path d="M164.27893,315.9748v-267.22501h123.18203v267.22501z" fill-opacity="0.01" fill="#000000" stroke="none" stroke-width="0" stroke-linecap="butt"/><path d="M278.81244,126.50568c-8.07114,1.61251 -15.85086,-3.27076 -17.3765,-10.90706c-1.52564,-7.63631 3.78055,-15.13394 11.8517,-16.74646c8.07114,-1.61251 59.8651,2.4184 59.8651,2.4184c0,0 -46.26916,23.62261 -54.34029,25.23511z" data-paper-data="{&quot;index&quot;:null}" fill="url(#color-1)" stroke="#000000" stroke-width="0" stroke-linecap="butt"/><path d="M170.0544,145.21265c-7.85103,-2.47076 -51.31281,-30.93015 -51.31281,-30.93015c0,0 51.92716,1.55998 59.7782,4.03076c7.85104,2.47077 12.32053,10.49535 9.98288,17.92341c-2.33765,7.42807 -10.59722,11.44675 -18.44826,8.97599z" fill="url(#color-2)" stroke="#000000" stroke-width="0" stroke-linecap="butt"/><g data-paper-data="{&quot;index&quot;:null}" stroke="#000000" stroke-width="0" stroke-linecap="butt"><path d="M258.06253,148.19162l56.41876,41.43578l-4.34087,5.91053l-56.41876,-41.43578z" fill="url(#color-3)"/><path d="M301.85326,206.8217c-7.86399,-5.77558 -9.55699,-16.83264 -3.78142,-24.69663c5.77558,-7.86399 16.83263,-9.55699 24.69663,-3.78142c7.86399,5.77558 9.55698,16.83264 3.78142,24.69663c-5.77557,7.86398 -16.83263,9.55698 -24.69662,3.78142z" fill="url(#color-4)"/></g><g stroke="#000000" stroke-width="0" stroke-linecap="butt"><path d="M199.68417,146.76263l-56.55175,41.25408l-4.32184,-5.92446l56.55176,-41.25408z" fill="url(#color-5)"/><path d="M151.38318,199.32711c-7.88252,5.75024 -18.9341,4.02168 -24.68433,-3.86083c-5.75024,-7.88252 -4.02169,-18.93409 3.86085,-24.68434c7.88252,-5.75024 18.93409,-4.02169 24.68434,3.86084c5.75024,7.88252 4.02169,18.93407 -3.86084,24.68433z" fill="url(#color-6)"/></g><path d="M206.75012,307.50005l15.14285,-131.8421l37.78325,-0.15789l13.57389,132z" fill="url(#color-7)" stroke="#000000" stroke-width="0" stroke-linecap="butt"/><path d="M161.70993,139.28166c0,-33.30185 28.7599,-60.29833 64.23702,-60.29833c35.47712,0 64.23702,26.99649 64.23702,60.29833c0,33.30185 -28.7599,60.29833 -64.23702,60.29833c-35.47712,0 -64.23702,-26.99649 -64.23702,-60.29833z" fill="url(#color-8)" stroke="#000000" stroke-width="0" stroke-linecap="butt"/><path d="M175.26013,139.63795c0,-12.968 10.51265,-23.48065 23.48065,-23.48065c12.968,0 23.48065,10.51265 23.48065,23.48065c0,12.968 -10.51265,23.48065 -23.48065,23.48065c-12.968,0 -23.48065,-10.51265 -23.48065,-23.48065z" fill="#b1b1b1" stroke="#000000" stroke-width="0" stroke-linecap="butt"/><path d="M252.99919,163.11856c-12.968,0 -23.48065,-10.51265 -23.48065,-23.48065c0,-12.968 10.51265,-23.48065 23.48065,-23.48065c12.968,0 23.48065,10.51265 23.48065,23.48065c0,12.968 -10.51265,23.48065 -23.48065,23.48065z" data-paper-data="{&quot;index&quot;:null}" fill="#b1b1b1" stroke="#000000" stroke-width="0" stroke-linecap="butt"/><path d="M246.94232,156.03026c-9.12807,0 -16.52783,-7.39977 -16.52783,-16.52784c0,-9.12808 7.39977,-16.52784 16.52783,-16.52784c9.12807,0 16.52783,7.39977 16.52783,16.52784c0,9.12808 -7.39977,16.52784 -16.52783,16.52784z" data-paper-data="{&quot;index&quot;:null}" fill="#000000" stroke="none" stroke-width="0" stroke-linecap="butt"/><path d="M184.43509,108.3545c0,0 7.2153,-4.43512 12.40095,-5.0878c5.18565,-0.65268 12.19222,1.99242 12.19222,1.99242c0,0 -7.98722,-0.90515 -11.99192,-0.4011c-4.18507,0.52674 -12.60123,3.49648 -12.60123,3.49648z" fill="#000000" stroke="none" stroke-width="0" stroke-linecap="butt"/><path d="M259.8141,108.87289c3.9295,0.92235 11.96762,0.86207 11.96762,0.86207c0,0 -7.24586,1.8937 -12.33413,0.69937c-5.08826,-1.19433 -11.79721,-6.36355 -11.79721,-6.36355c0,0 8.05724,3.83822 12.16372,4.80211z" data-paper-data="{&quot;index&quot;:null}" fill="#000000" stroke="none" stroke-width="0" stroke-linecap="butt"/><path d="M217.50491,139.87509c0,9.84884 -7.7645,17.83289 -17.34251,17.83289c-9.578,0 -17.34251,-7.98406 -17.34251,-17.83289c0,-9.84884 7.7645,-17.83289 17.34251,-17.83289c9.578,0 17.34251,7.98406 17.34251,17.83289z" fill="#b1b1b1" stroke="#000000" stroke-width="5" stroke-linecap="butt"/><path d="M176.17544,158.58281l4.79477,4.26164l-7.50032,-6.49203" fill="none" stroke="#000000" stroke-width="2" stroke-linecap="round"/><path d="M186.13094,171.5191c0.30698,-1.0522 44.42328,8.45353 44.005,9.88724c-2.92041,10.0101 -15.13873,15.91158 -27.29037,13.18129c-12.15164,-2.73028 -19.63504,-13.05842 -16.71462,-23.06853z" fill="#000000" stroke="#000000" stroke-width="2" stroke-linecap="butt"/></g></g></svg>