<svg version="1.1" xmlns="http://www.w3.org/2000/svg" xmlns:xlink="http://www.w3.org/1999/xlink" width="128.47404" height="267.22501" viewBox="0,0,128.47404,267.22501"><defs><linearGradient x1="240.00003" y1="175.50001" x2="240.00003" y2="307.50001" gradientUnits="userSpaceOnUse" id="color-1"><stop offset="0" stop-color="#1a252f"/><stop offset="1" stop-color="#4a7294"/></linearGradient><linearGradient x1="240.07696" y1="76.88116" x2="240.07696" y2="197.47782" gradientUnits="userSpaceOnUse" id="color-2"><stop offset="0" stop-color="#1a252f"/><stop offset="1" stop-color="#4a7294"/></linearGradient><linearGradient x1="212.8708" y1="113.79498" x2="212.8708" y2="160.75628" gradientUnits="userSpaceOnUse" id="color-3"><stop offset="0" stop-color="#aeaeae"/><stop offset="1" stop-color="#396384"/></linearGradient><radialGradient cx="212.98338" cy="137" r="16.52784" gradientUnits="userSpaceOnUse" id="color-4"><stop offset="0" stop-color="#396384"/><stop offset="1" stop-color="#000000"/></radialGradient><linearGradient x1="267.12926" y1="113.79497" x2="267.12926" y2="160.75627" gradientUnits="userSpaceOnUse" id="color-5"><stop offset="0" stop-color="#aeaeae"/><stop offset="1" stop-color="#396384"/></linearGradient><radialGradient cx="267.01668" cy="137" r="16.52784" gradientUnits="userSpaceOnUse" id="color-6"><stop offset="0" stop-color="#396384"/><stop offset="1" stop-color="#000000"/></radialGradient></defs><g transform="translate(-175.83994,-46.38751)"><g data-paper-data="{&quot;isPaintingLayer&quot;:true}" fill-rule="nonzero" stroke-linejoin="miter" stroke-miterlimit="10" stroke-dasharray="" stroke-dashoffset="0" style="mix-blend-mode: normal"><path d="M179.28372,313.61252v-267.22501h123.18203v267.22501z" fill-opacity="0.01" fill="#000000" stroke="none" stroke-width="0" stroke-linecap="butt"/><path d="M206.75003,307.5l15.14285,-131.8421l37.78325,-0.15789l13.57389,132z" fill="url(#color-1)" stroke="#000000" stroke-width="0" stroke-linecap="butt"/><path d="M175.83994,137.17949c0,-33.30185 28.7599,-60.29833 64.23702,-60.29833c35.47712,0 64.23702,26.99649 64.23702,60.29833c0,33.30185 -28.7599,60.29833 -64.23702,60.29833c-35.47712,0 -64.23702,-26.99649 -64.23702,-60.29833z" fill="url(#color-2)" stroke="#000000" stroke-width="0" stroke-linecap="butt"/><path d="M189.39015,137.27563c0,-12.968 10.51265,-23.48065 23.48065,-23.48065c12.968,0 23.48065,10.51265 23.48065,23.48065c0,12.968 -10.51265,23.48065 -23.48065,23.48065c-12.968,0 -23.48065,-10.51265 -23.48065,-23.48065z" fill="url(#color-3)" stroke="#000000" stroke-width="0" stroke-linecap="butt"/><path d="M196.45554,137c0,-9.12808 7.39976,-16.52784 16.52783,-16.52784c9.12808,0 16.52784,7.39977 16.52784,16.52784c0,9.12808 -7.39977,16.52784 -16.52784,16.52784c-9.12808,0 -16.52783,-7.39977 -16.52783,-16.52784z" fill="url(#color-4)" stroke="none" stroke-width="0" stroke-linecap="butt"/><path d="M267.12926,160.75627c-12.968,0 -23.48065,-10.51265 -23.48065,-23.48065c0,-12.968 10.51265,-23.48065 23.48065,-23.48065c12.968,0 23.48065,10.51265 23.48065,23.48065c0,12.968 -10.51265,23.48065 -23.48065,23.48065z" data-paper-data="{&quot;index&quot;:null}" fill="url(#color-5)" stroke="#000000" stroke-width="0" stroke-linecap="butt"/><path d="M267.01668,153.52784c-9.12807,0 -16.52783,-7.39977 -16.52783,-16.52784c0,-9.12808 7.39977,-16.52784 16.52783,-16.52784c9.12807,0 16.52783,7.39977 16.52783,16.52784c0,9.12808 -7.39977,16.52784 -16.52783,16.52784z" data-paper-data="{&quot;index&quot;:null}" fill="url(#color-6)" stroke="none" stroke-width="0" stroke-linecap="butt"/><path d="M202.02782,108.46716c0,0 6.70895,-5.16922 11.79722,-6.36355c5.08827,-1.19433 12.33413,0.69937 12.33413,0.69937c0,0 -8.03812,-0.06028 -11.96762,0.86207c-4.10648,0.96388 -12.16372,4.80211 -12.16372,4.80211z" fill="#000000" stroke="none" stroke-width="0" stroke-linecap="butt"/><path d="M265.96236,103.66506c-3.9295,-0.92235 -11.96762,-0.86207 -11.96762,-0.86207c0,0 7.24586,-1.8937 12.33413,-0.69937c5.08826,1.19433 11.79721,6.36355 11.79721,6.36355c0,0 -8.05724,-3.83822 -12.16372,-4.80211z" data-paper-data="{&quot;index&quot;:null}" fill="#000000" stroke="none" stroke-width="0" stroke-linecap="butt"/><path d="M227.50703,176.65643c0,0 1.92738,-7.69056 12.66658,-7.75c11.13397,-0.06162 12.44301,7.75 12.44301,7.75" fill="#000000" stroke="#000000" stroke-width="0" stroke-linecap="round"/><path d="M255.24959,79.64423l14.5,15.5l-22.5,-6l3.25,13.75l-33.25,-19.5" data-paper-data="{&quot;index&quot;:null}" fill="none" stroke="#141d26" stroke-width="1" stroke-linecap="round"/></g></g></svg>