<svg version="1.1" xmlns="http://www.w3.org/2000/svg" xmlns:xlink="http://www.w3.org/1999/xlink" width="38.19044" height="38.19044" viewBox="0,0,38.19044,38.19044"><g transform="translate(-220.9048,-160.90481)"><g data-paper-data="{&quot;isPaintingLayer&quot;:true}" stroke-miterlimit="10" stroke-dasharray="" stroke-dashoffset="0" style="mix-blend-mode: normal"><path d="M259.09524,180.00003c0,10.54601 -8.54924,19.09522 -19.09522,19.09522c-10.54601,0 -19.09522,-8.54922 -19.09522,-19.09522c0,-10.54601 8.54922,-19.09522 19.09522,-19.09522c10.54601,0 19.09522,8.54922 19.09522,19.09522" fill="#727272" fill-rule="evenodd" stroke="none" stroke-width="0.07853" stroke-linecap="round" stroke-linejoin="round"/><path d="M229.46303,190.537v-21.074h21.074v21.074z" fill="#ffffff" fill-rule="nonzero" stroke="#ffffff" stroke-width="0" stroke-linecap="butt" stroke-linejoin="miter"/><path d="M230.79871,189.20132v-18.40265h18.40265v18.40265z" fill="#727272" fill-rule="nonzero" stroke="#ffffff" stroke-width="0" stroke-linecap="butt" stroke-linejoin="miter"/><g fill="#ffffff" fill-rule="nonzero" stroke="#000000" stroke-width="0" stroke-linecap="butt" stroke-linejoin="miter"><path d="M237.34442,189.84656l0.75802,-6.59978l4.10276,-0.01714l0.67725,6.58595z"/><path d="M233.10171,179.03235c0,-3.61614 3.12294,-6.5476 6.97529,-6.5476c3.85234,0 6.97529,2.93146 6.97529,6.5476c0,3.61614 -3.12294,6.5476 -6.97529,6.5476c-3.85234,0 -6.97529,-2.93146 -6.97529,-6.5476z"/></g><path d="M240.24105,180.13987c-0.27735,0.41603 -0.69338,0.13868 -0.69338,0.13868l-0.58272,-0.54476c-0.10114,-0.41604 -0.12731,-0.85142 -0.11427,-1.27938c0.87395,-1.24063 3.10079,-1.66029 2.62385,-3.43726c-0.4962,-1.84874 -3.471,-0.33567 -3.0773,0.12177c0,0 0.22361,0.44721 -0.22361,0.67082c-0.44721,0.22361 -0.67082,-0.22361 -0.67082,-0.22361c-1.49755,-3.82649 8.03676,-2.67007 4.56851,1.48626c-0.65509,0.78505 -1.61604,0.91951 -2.27196,1.69824c0.01902,0.24369 0.07449,0.48398 0.13573,0.72062l0.16728,-0.04476c0,0 0.41603,0.27735 0.13868,0.69338z" fill="#000000" fill-rule="nonzero" stroke="none" stroke-width="0.5" stroke-linecap="butt" stroke-linejoin="miter"/><path d="M239.20003,181.73752c0,-0.27614 0.22386,-0.5 0.5,-0.5c0.27614,0 0.5,0.22386 0.5,0.5c0,0.27614 -0.22386,0.5 -0.5,0.5c-0.27614,0 -0.5,-0.22386 -0.5,-0.5z" fill="#000000" fill-rule="nonzero" stroke="none" stroke-width="0.5" stroke-linecap="butt" stroke-linejoin="miter"/></g></g></svg>