<svg version="1.1" xmlns="http://www.w3.org/2000/svg" xmlns:xlink="http://www.w3.org/1999/xlink" width="151" height="278.88501" viewBox="0,0,151,278.88501"><defs><linearGradient x1="240.00013" y1="175.50005" x2="240.00013" y2="307.50005" gradientUnits="userSpaceOnUse" id="color-1"><stop offset="0" stop-color="#000000"/><stop offset="1" stop-color="#050066"/></linearGradient><linearGradient x1="240.57734" y1="163.59026" x2="240.57734" y2="250.64548" gradientUnits="userSpaceOnUse" id="color-2"><stop offset="0" stop-color="#000000"/><stop offset="1" stop-color="#030033"/></linearGradient><linearGradient x1="239.76683" y1="31.50009" x2="239.76683" y2="193.00009" gradientUnits="userSpaceOnUse" id="color-3"><stop offset="0" stop-color="#000000"/><stop offset="1" stop-color="#04004d"/></linearGradient><linearGradient x1="238.9966" y1="58.77535" x2="238.9966" y2="179.37202" gradientUnits="userSpaceOnUse" id="color-4"><stop offset="0" stop-color="#000000"/><stop offset="1" stop-color="#060080"/></linearGradient></defs><g transform="translate(-164.2668,-28.61503)"><g data-paper-data="{&quot;isPaintingLayer&quot;:true}" fill-rule="nonzero" stroke-width="0" stroke-linecap="butt" stroke-linejoin="miter" stroke-miterlimit="10" stroke-dasharray="" stroke-dashoffset="0" style="mix-blend-mode: normal"><path d="M178.20335,295.84004v-267.22501h123.18203v267.22501z" fill-opacity="0.01" fill="#000000" stroke="none"/><path d="M206.75014,307.50003l15.14285,-131.8421l37.78325,-0.15789l13.57389,132z" fill="url(#color-1)" stroke="#000000"/><path d="M210.42395,250.08805l8.20157,-86.27259l44.60128,-0.22518l7.50395,87.0552l-30.23979,-11.89646z" fill="url(#color-2)" stroke="#000000"/><path d="M315.2668,112.25008c0,44.597 -33.8025,80.75 -75.5,80.75c-41.6975,0 -75.5,-36.15301 -75.5,-80.75c0,-44.59699 33.8025,-80.75 75.5,-80.75c41.6975,0 75.5,36.15301 75.5,80.75z" fill="url(#color-3)" stroke="none"/><path d="M306.93975,117.3942c0,38.06162 -30.45365,68.91667 -68.02013,68.91667c-37.56647,0 -68.02013,-30.85504 -68.02013,-68.91667c0,-38.06162 30.45365,-68.91667 68.02013,-68.91667c37.56647,0 68.02013,30.85504 68.02013,68.91667z" fill="#000000" stroke="none"/><path d="M174.75958,119.07369c0,-33.30185 28.7599,-60.29833 64.23702,-60.29833c35.47712,0 64.23702,26.99649 64.23702,60.29833c0,33.30185 -28.7599,60.29833 -64.23702,60.29833c-35.47712,0 -64.23702,-26.99649 -64.23702,-60.29833z" fill="url(#color-4)" stroke="#000000"/><g fill="#000000" stroke="none"><path d="M303.04341,123.7812c0,16.15245 -17.54213,29.24659 -39.18144,29.24659c-21.63931,0 -39.18143,-13.09414 -39.18143,-29.24659c0,-16.15244 17.54213,-29.24658 39.18144,-29.24658c21.63931,0 39.18144,13.09414 39.18144,29.24658z"/><path d="M252.44721,124.11c0,16.15245 -17.54213,29.24659 -39.18144,29.24659c-21.63931,0 -39.18143,-13.09414 -39.18143,-29.24659c0,-16.15244 17.54213,-29.24659 39.18144,-29.24659c21.63931,0 39.18144,13.09414 39.18144,29.24659z"/><path d="M303.13408,113.58985c0,29.27418 -30.51781,31.86942 -67.56851,31.86942c-37.05069,0 -60.66408,2.80122 -60.66408,-26.47295c0,-29.27417 23.70348,-71.84971 60.75418,-71.84971c37.0507,0 67.47841,37.17907 67.47841,66.45325z"/></g><path d="M188.05981,119.75316c0,-12.968 10.51265,-23.48065 23.48065,-23.48065c12.968,0 23.48065,10.51265 23.48065,23.48065c0,12.968 -10.51265,23.48065 -23.48065,23.48065c-12.968,0 -23.48065,-10.51265 -23.48065,-23.48065z" fill="#808080" stroke="#000000"/><path d="M195.37518,119.13408c0,-9.12808 7.39976,-16.52784 16.52783,-16.52784c9.12808,0 16.52784,7.39977 16.52784,16.52784c0,9.12808 -7.39977,16.52784 -16.52784,16.52784c-9.12808,0 -16.52783,-7.39977 -16.52783,-16.52784z" fill="#000000" stroke="none"/><path d="M265.79888,143.23379c-12.968,0 -23.48065,-10.51265 -23.48065,-23.48065c0,-12.968 10.51265,-23.48065 23.48065,-23.48065c12.968,0 23.48065,10.51265 23.48065,23.48065c0,12.968 -10.51265,23.48065 -23.48065,23.48065z" data-paper-data="{&quot;index&quot;:null}" fill="#808080" stroke="#000000"/><path d="M265.93629,135.75537c-9.12807,0 -16.52783,-7.39977 -16.52783,-16.52784c0,-9.12808 7.39977,-16.52784 16.52783,-16.52784c9.12807,0 16.52783,7.39977 16.52783,16.52784c0,9.12808 -7.39977,16.52784 -16.52783,16.52784z" data-paper-data="{&quot;index&quot;:null}" fill="#000000" stroke="none"/><path d="M200.51755,88.2431c0,0 7.59834,-3.74113 12.82228,-3.90615c5.22395,-0.16501 11.95254,3.12355 11.95254,3.12355c0,0 -7.86762,-1.64791 -11.9019,-1.52047c-4.21598,0.13318 -12.87293,2.30307 -12.87293,2.30307z" fill="#000000" stroke="none"/><path d="M264.54382,85.95757c-4.03603,0.04644 -11.82537,2.03168 -11.82537,2.03168c0,0 6.58071,-3.57532 11.80692,-3.63546c5.2262,-0.06014 12.97862,3.35026 12.97862,3.35026c0,0 -8.74237,-1.79502 -12.96017,-1.74649z" data-paper-data="{&quot;index&quot;:null}" fill="#000000" stroke="none"/><path d="M247.80401,164.36279c0,6.56047 -3.90008,11.87878 -8.71109,11.87878c-4.81101,0 -8.71109,-5.31831 -8.71109,-11.87878c0,-6.56047 3.90008,-11.87878 8.71109,-11.87878c4.81101,0 8.71109,5.31831 8.71109,11.87878z" fill="#000000" stroke="none"/><path d="M187.48722,116.3002c0,-12.96801 10.51265,-23.48065 23.48066,-23.48065c12.96801,0 23.48065,10.51264 23.48065,23.48065c0,0 -9.31888,-14.62498 -23.43307,-15.13879c-14.72884,-0.53619 -23.52823,15.7554 -23.52823,15.13879z" fill="#000000" stroke="#000000"/><path d="M242.16335,116.97694c0,-12.96801 10.51265,-23.48065 23.48066,-23.48065c12.96801,0 23.48065,10.51264 23.48065,23.48065c0,0 -9.31888,-14.62498 -23.43307,-15.13879c-14.72884,-0.53619 -23.52823,15.7554 -23.52823,15.13879z" fill="#000000" stroke="#000000"/></g></g></svg>