<svg version="1.1" xmlns="http://www.w3.org/2000/svg" xmlns:xlink="http://www.w3.org/1999/xlink" width="123.18203" height="337.36251" viewBox="0,0,123.18203,337.36251"><g transform="translate(-179.28375,23.74998)"><g data-paper-data="{&quot;isPaintingLayer&quot;:true}" fill-rule="nonzero" stroke-linejoin="miter" stroke-miterlimit="10" stroke-dasharray="" stroke-dashoffset="0" style="mix-blend-mode: normal"><g><path d="M234.00476,151.07785c6.20729,-4.14349 14.61332,-5.32282 21.83064,-4.09898c5.1347,1.00416 8.17067,6.43824 11.75497,10.15705c3.74575,3.88726 6.27658,8.7924 10.03935,12.43637c2.65168,2.62617 5.87871,4.35581 9.02314,6.19649c3.33549,1.95356 9.59948,1.5496 10.26077,5.34281c1.0172,4.99561 -3.22967,9.84281 -6.62301,13.70084c-5.30599,6.03081 -12.2569,10.45627 -18.77822,15.14449c-4.66069,3.03648 -9.53455,5.7546 -14.6388,7.90543c-4.73977,2.00252 -9.57203,4.33908 -14.69022,4.6533c-1.84185,0.09855 -3.88671,-1.89782 -4.48173,-3.84941c-0.83581,-3.23588 1.11279,-6.76076 0.58814,-10.26895c-0.57119,-3.82156 -2.10534,-7.46707 -3.59445,-11.0369c-1.68611,-4.07982 -4.05359,-8.15506 -5.9506,-12.33421c-2.27281,-5.01726 -7.38331,-9.75611 -6.49711,-15.2449c1.0863,-7.25682 5.63233,-14.61395 11.75713,-18.70345z" fill="#ffd351" stroke="#000000" stroke-width="2" stroke-linecap="round"/><path d="M263.00545,193.16221c7.58047,-5.22876 14.98531,-9.19005 20.82455,-11.36638c5.83962,-2.17584 10.11357,-2.56678 11.4324,-0.65483c1.31876,1.91188 -0.56485,5.76835 -4.67314,10.45419c-4.1086,4.68529 -10.44187,10.2001 -18.02233,15.42886c-7.58047,5.22876 -14.98531,9.19005 -20.82461,11.36644c-5.83956,2.17576 -10.11357,2.56678 -11.4324,0.65483c-1.31877,-1.91202 0.56485,-5.76835 4.67314,-10.45419c4.10866,-4.68537 10.44194,-10.20017 18.02239,-15.42893z" fill="#eac24d" stroke="#736026" stroke-width="0" stroke-linecap="butt"/><path d="M264.22575,194.89125c0.61488,-0.42408 1.50643,-0.32309 2.45031,0.18309c0.94436,0.50594 1.94111,1.41703 2.76542,2.61212c0.8243,1.19509 1.32192,2.4504 1.45941,3.51293c0.13792,1.06209 -0.08441,1.93139 -0.69927,2.35562c-0.61488,0.42408 -1.50643,0.32309 -2.45038,-0.18316c-0.94435,-0.5058 -1.94104,-1.41696 -2.76534,-2.61205c-0.82438,-1.19515 -1.32198,-2.45047 -1.45941,-3.51293c-0.13799,-1.06215 0.08433,-1.93145 0.69927,-2.35562z" fill="#ffd351" stroke="none" stroke-width="0.60142" stroke-linecap="butt"/><path d="M227.04456,168.29049c0.04468,-4.1032 3.52319,-8.08143 6.7512,-10.86696c1.48734,-1.28085 4.93387,-1.03161 5.34361,0.33252c0.71719,1.32897 -2.3033,3.02445 -3.08971,5.0536c-1.20988,3.17547 -2.47726,6.56738 -2.26128,9.96183c0.25431,3.96565 3.62111,7.3004 3.347,11.20757c0.03874,1.38553 -3.0699,2.49884 -3.9009,1.22953c-3.28383,-5.01919 -6.24134,-10.9201 -6.18994,-16.91811z" fill="#fff1c8" stroke="none" stroke-width="0.60142" stroke-linecap="round"/><path d="M232.16701,153.9168c0,0 -6.30487,-9.38409 -3.62145,-10.71556c2.75312,-1.36605 8.79139,7.65015 8.79139,7.65015" fill="#ffd351" stroke="#000000" stroke-width="2" stroke-linecap="round"/></g><path d="M228.69444,144.65625c0,0 -8.5,-55.76536 -8.5,-83.17189c0,-19.57323 27,-83.98434 27,-83.98434" fill="none" stroke="#000000" stroke-width="2.5" stroke-linecap="round"/><g fill="#000000"><path d="M251.43179,190.06708c-3.25693,1.0226 -9.24809,-7.81561 -9.24809,-7.81561l12.68423,-3.98259c0,0 -0.17922,10.77558 -3.43615,11.79819z" stroke="#000000" stroke-width="2" stroke-linecap="round"/><path d="M228.08979,176.32319c-1.14825,-3.65709 0.88556,-7.55258 4.54265,-8.70083c3.65709,-1.14825 7.55258,0.88557 8.70083,4.54265c1.14825,3.65709 -0.88556,7.55258 -4.54265,8.70083c-3.65709,1.14825 -7.55258,-0.88557 -8.70083,-4.54265z" stroke="none" stroke-width="0" stroke-linecap="butt"/><path d="M258.43864,174.06883c-3.65708,1.14825 -7.55258,-0.88557 -8.70083,-4.54265c-1.14825,-3.65709 0.88557,-7.55258 4.54265,-8.70083c3.65709,-1.14825 7.55258,0.88557 8.70083,4.54265c1.14825,3.65709 -0.88556,7.55258 -4.54265,8.70083z" data-paper-data="{&quot;index&quot;:null}" stroke="none" stroke-width="0" stroke-linecap="butt"/></g><path d="M179.28375,313.61253v-267.22501h123.18203v267.22501z" fill-opacity="0.01" fill="#000000" stroke="none" stroke-width="0" stroke-linecap="butt"/></g></g></svg>